<?xml version="1.0" standalone="no"?>
<!DOCTYPE svg PUBLIC "-//W3C//DTD SVG 1.1//EN" "http://www.w3.org/Graphics/SVG/1.1/DTD/svg11.dtd" >
<svg xmlns="http://www.w3.org/2000/svg" xmlns:xlink="http://www.w3.org/1999/xlink" version="1.1">
<metadata>
Created by FontForge 20170731 at Mon Apr  5 21:27:42 2010
 By Aleksey,,,
Copyright (c) 2009, Larry E. Yerkes, Vigilante Typeface Corporation,WolfBainx and Associates All rights reserved. This font should not be distributed without a License and is not to be modified under any circumstances.This Font is provided free for personal non-commercial use and not to be used for commercial purposes without purchasing those rights from the copyright holder. Email: Abrasiveart@gmail.com for any questions or to purchase the rights to use this font in a commercial venture.- http://www.myspace.com/wolfbainx - http://wolfbainx.deviantart.com/ - http://www.facebook.com/wolfbainx
</metadata>
<defs>
<font id="Vtc-NueTattooScript" horiz-adv-x="438" >
  <font-face 
    font-family="Vtc-NueTattooScript"
    font-weight="400"
    font-stretch="normal"
    units-per-em="1000"
    panose-1="2 0 5 3 0 0 0 2 0 4"
    ascent="800"
    descent="-200"
    x-height="493"
    cap-height="729"
    bbox="-543 -442 2362 971"
    underline-thickness="50"
    underline-position="-150"
    unicode-range="U+0020-FB02"
  />
<missing-glyph horiz-adv-x="500" 
 />
    <glyph glyph-name=".notdef" horiz-adv-x="500" 
 />
    <glyph glyph-name=".null" horiz-adv-x="0" 
 />
    <glyph glyph-name="nonmarkingreturn" horiz-adv-x="500" 
 />
    <glyph glyph-name="space" unicode=" " horiz-adv-x="271" 
 />
    <glyph glyph-name="space" unicode="&#xa0;" horiz-adv-x="271" 
 />
    <glyph glyph-name="exclam" unicode="!" horiz-adv-x="305" 
d="M107 156q17 70 34 146t39 150.5t50.5 144t69.5 128.5q-4 -19 3 -29.5t17 -19.5t19 -19t10 -28q-10 3 -27.5 -20t-39 -62.5t-45.5 -91t-47.5 -105t-45 -104.5t-37.5 -90zM124 75q6 -11 3.5 -24.5t-11.5 -24t-24 -16t-35 0.5q-4 15 -0.5 29t12.5 23t23 12.5t32 -0.5z" />
    <glyph glyph-name="quotedbl" unicode="&#x22;" horiz-adv-x="243" 
d="M57 640q-15 19 -13.5 44t8.5 50.5t15 50t7 44.5q12 -3 18.5 -10.5t11.5 -16.5t10.5 -16.5t14.5 -10.5q-7 -15 -18.5 -30t-23 -31.5t-20.5 -34.5t-10 -39zM149 638q-15 19 -13.5 44t8.5 50.5t15 50t7 44.5q12 -3 18.5 -10.5t11.5 -16.5t10.5 -16.5t14.5 -10.5
q-7 -15 -18.5 -30t-23 -31.5t-20.5 -34.5t-10 -39z" />
    <glyph glyph-name="numbersign" unicode="#" horiz-adv-x="833" 
d="M387 4q17 57 35 112t37 112q-44 4 -92 6t-98 4q-31 -65 -60 -126.5t-50 -111.5q18 60 36.5 120t39.5 120q-64 2 -123.5 2.5t-108.5 0.5q61 8 121.5 14t121.5 11q14 38 28.5 76t29.5 75q-67 3 -129 4t-113 1q63 8 127 14t127 11q27 65 55.5 127.5t60.5 122.5
q-5 -21 1.5 -36t16 -28.5t17.5 -27.5t7 -33q-5 4 -13.5 -3.5t-20 -23.5t-26.5 -40t-31 -54q42 3 82.5 5t82.5 2q26 63 54 123.5t59 119.5q-5 -22 2 -37t16 -28.5t17 -27.5t6 -33q-7 8 -31 -24.5t-57 -90.5q56 0 109 -1.5t108 -3.5q-22 -5 -34 -16.5t-21 -25t-19 -26
t-29 -18.5q2 4 -8 8.5t-29.5 9t-47 8t-61.5 6.5q-15 -29 -31 -59.5t-33 -62.5q64 2 127.5 0.5t126.5 -4.5q-22 -5 -34 -16.5t-21 -25t-19 -26.5t-29 -19q2 6 -10.5 10.5t-36 9t-57.5 8.5t-74 7q-30 -61 -56.5 -118t-47.5 -103zM362 417q-18 -33 -37 -70.5t-38 -75.5
q48 4 95.5 5.5t95.5 3.5q12 32 23.5 64t24.5 64q-37 2 -79 4.5t-85 4.5z" />
    <glyph glyph-name="dollar" unicode="$" horiz-adv-x="456" 
d="M158 -75q11 8 15.5 16t6.5 14q-27 -1 -53 11.5t-44.5 38t-26 62.5t3.5 85q-4 -60 13.5 -97.5t44.5 -53.5t59.5 -11t60.5 29t45.5 66.5t14.5 102.5q-2 32 -15 63.5t-33 59.5q-7 10 -20 15.5t-27.5 7.5t-29 0.5t-24.5 -5.5q16 9 22 24t8 30q-16 40 -15 91.5t16.5 101
t45.5 89t72 54.5q-3 14 -3 37.5t-8 52.5q10 -4 17 -12t13.5 -16.5t14.5 -16t22 -10.5q-12 -9 -16.5 -17t-6.5 -15q16 -7 22 -28.5t8 -40.5q11 14 33 31t56 19q-35 -9 -57.5 -30t-32.5 -38q3 -18 0 -47.5t-14 -60.5t-30 -57.5t-47 -37.5q-7 27 -2 55t17 55.5t29 52.5t34 45
q-3 12 -5.5 27t-8 24.5t-15.5 10.5t-28 -14q-20 -18 -37 -45t-28 -57t-14.5 -61t4.5 -58q5 -20 14.5 -34.5t21 -26.5t23.5 -22t22 -22q21 -28 37 -68.5t22 -78.5q6 -35 -2.5 -75t-28 -76t-48 -64t-63.5 -39q4 -14 4 -37.5t8 -53.5q-11 4 -17.5 12t-13 16.5t-14.5 16
t-22 10.5zM280 449q34 30 48.5 76.5t17.5 93.5q-31 -35 -48 -78.5t-18 -91.5z" />
    <glyph glyph-name="percent" unicode="%" horiz-adv-x="477" 
d="M48 427q-16 5 -25.5 15t-11.5 21q-8 28 2.5 58t30.5 55t46 40.5t50 14.5q16 -1 29 -8t22.5 -17t15 -21.5t5.5 -21.5q3 -29 -10 -58t-36 -49.5t-54 -29.5t-64 1zM61 473q22 -15 45 -10t38 22.5t18 43t-13 51.5q-21 3 -40.5 -4.5t-32 -23t-17.5 -36.5t2 -43zM300 134
q-16 5 -25.5 15t-11.5 21q-8 28 2.5 58t30.5 55t46 40.5t50 14.5q16 -1 29 -8t22.5 -17t15 -21.5t5.5 -21.5q3 -29 -10 -58t-36 -49.5t-54 -29.5t-64 1zM313 180q22 -15 45 -10t38 22.5t18 43t-13 51.5q-21 3 -40.5 -4.5t-32 -23t-17.5 -36.5t2 -43zM79 0q60 204 131.5 399
t163.5 378q-5 -24 2 -41t17.5 -32t19 -30.5t6.5 -36.5q-8 8 -29 -21t-51 -81t-65.5 -120.5t-70.5 -142t-67.5 -145t-56.5 -127.5z" />
    <glyph glyph-name="ampersand" unicode="&#x26;" horiz-adv-x="515" 
d="M387 233q-3 -27 -20.5 -59t-45.5 -63t-63.5 -57t-72.5 -41.5t-73 -16.5t-66 18q-31 20 -37 58.5t1.5 79.5t24 76.5t30.5 50.5q-2 11 -7 31t-21 37q19 -13 53 -10.5t65 22.5q50 33 109 50q-34 34 -46 70t-6.5 70t26 64.5t51.5 54.5t70.5 39.5t82.5 19.5q22 -24 27.5 -58.5
t-2.5 -69t-28 -64.5t-47 -44q-17 -8 -31 -6.5t-24 10.5t-13 23.5t3 31.5q7 19 28 30.5t47 3.5q-30 -3 -43.5 -21.5t-12 -35t17.5 -22.5t44 17q13 10 23.5 28.5t16.5 39.5t6.5 42.5t-5.5 39.5q-36 -1 -67.5 -16.5t-54.5 -39.5t-36.5 -54.5t-13.5 -62.5t14 -62t47 -53
q-66 -24 -125 -64t-92 -102q-7 -12 -13.5 -28.5t-11.5 -34t-7.5 -35t-1.5 -32.5q3 -36 19.5 -49.5t39.5 -12t50.5 15t53.5 32t47.5 38t32.5 33.5q14 17 26.5 39.5t13.5 48.5q-19 2 -47 6t-52 2q-29 -3 -41 -16t-12.5 -27t8 -24.5t19.5 -7.5q-13 -8 -26 -6.5t-23 8t-15.5 17
t-3.5 21.5q5 29 25.5 43t49.5 21q17 4 42.5 2t52.5 -5t53 -4.5t43 2.5t22.5 16.5t-7.5 38.5q29 -17 36 -36t-3.5 -33.5t-37.5 -20.5t-66 3z" />
    <glyph glyph-name="quotesingle" unicode="'" horiz-adv-x="155" 
d="M70 540q-14 27 -16.5 60.5t0 64t7 55t5.5 33.5q10 -4 16 -12.5t11.5 -18.5t13 -18t21.5 -11q-11 -1 -22 -19t-20 -42t-13.5 -50t-2.5 -42z" />
    <glyph glyph-name="parenleft" unicode="(" horiz-adv-x="250" 
d="M293 -132q-80 82 -136.5 155t-90.5 145.5t-45.5 149.5t-0.5 169q4 30 15 66t20 72.5t11.5 70.5t-10.5 60q15 -8 32 -26.5t31 -40.5t23.5 -43t9.5 -34q-14 4 -26 -9.5t-22 -38t-17.5 -57t-11 -66.5t-4 -67t4.5 -59q13 -76 35 -139.5t50.5 -117.5t62 -100.5t69.5 -89.5z
" />
    <glyph glyph-name="parenright" unicode=")" horiz-adv-x="254" 
d="M-69 -132q36 43 69.5 89.5t62 100.5t50.5 117.5t35 139.5q5 26 4.5 59t-4 67t-11 66.5t-17.5 57t-22 38t-26 9.5q0 13 9.5 34t23.5 43t31 40.5t32 26.5q-14 -26 -11 -60t12 -70.5t20 -72.5t15 -66q11 -92 -0.5 -169t-45.5 -149.5t-91 -145.5t-136 -155z" />
    <glyph glyph-name="asterisk" unicode="*" horiz-adv-x="366" 
d="M191 500q-9 10 -15.5 28.5t-10.5 39.5t-4 40t4 31q-26 -11 -50.5 -33t-36.5 -41q-11 13 -27.5 29t-36.5 24q10 8 26 16.5t34.5 16.5t37.5 14t34 10q-9 12 -33 28t-66 30q81 -3 130 -33q10 33 19 62t24 51q8 -14 24.5 -29t33.5 -20q-8 -3 -16.5 -10.5t-17 -18.5t-15 -23.5
t-9.5 -25.5q32 11 59 12.5t69 1.5q-10 0 -24.5 -2.5t-30 -7t-31 -11t-27.5 -14.5q19 -12 49 -32t59 -57q-20 2 -42.5 -6t-39.5 -15q-11 20 -25.5 44.5t-35.5 37.5q-6 -11 -9.5 -27.5t-4.5 -35.5t0.5 -38.5t4.5 -35.5z" />
    <glyph glyph-name="plus" unicode="+" horiz-adv-x="556" 
d="M210 133q-14 18 -19.5 44t-5.5 54.5t5.5 56.5t14.5 49q-28 -6 -58.5 -11.5t-55.5 -3.5t-41.5 17t-17.5 51q7 -23 21 -33t32 -11t38.5 4t40 11.5t37 12.5t29.5 6q6 10 20.5 30.5t29 42.5t26 40.5t13.5 26.5q19 -12 39 -12.5t40.5 4t41 10.5t40.5 5q-17 -8 -37 -22t-41 -32
t-40.5 -38.5t-34.5 -41.5q25 3 55.5 1t59 -10t51 -22t31.5 -35q-23 9 -40 4.5t-31 -13t-27.5 -17t-30.5 -8.5q2 17 -9.5 27.5t-29.5 15t-39 5t-39 -1.5q-17 -19 -33.5 -41.5t-27.5 -48.5t-14 -55.5t7 -60.5z" />
    <glyph glyph-name="comma" unicode="," horiz-adv-x="114" 
d="M-6 -63q9 8 21.5 20.5t14.5 32.5q-13 11 -13.5 26t8 28t24 21t33.5 5q10 -19 5.5 -40t-18.5 -40t-34 -33t-41 -20z" />
    <glyph glyph-name="hyphen" unicode="-" horiz-adv-x="418" 
d="M365 264q-34 -2 -73 3.5t-78.5 11.5t-77.5 7.5t-70 -8.5q13 13 38.5 20.5t56 11.5t64 6t64 4.5t54.5 6.5t37 13q0 -10 -5 -19.5t-9.5 -18.5t-5.5 -18.5t5 -19.5z" />
    <glyph glyph-name="period" unicode="." horiz-adv-x="153" 
d="M93 75q6 -11 3.5 -24.5t-11.5 -24t-24 -16t-35 0.5q-4 15 -0.5 29t12.5 23t23 12.5t32 -0.5z" />
    <glyph glyph-name="slash" unicode="/" horiz-adv-x="405" 
d="M24 0q60 204 131.5 399t163.5 378q-5 -24 2 -41t17.5 -32t19 -30.5t6.5 -36.5q-7 8 -28.5 -21t-51.5 -81t-65.5 -120.5t-70.5 -142t-67.5 -145t-56.5 -127.5z" />
    <glyph glyph-name="zero" unicode="0" horiz-adv-x="673" 
d="M262 216q-39 31 -48.5 78t4.5 98t48.5 99.5t81.5 82.5t104.5 47.5t117.5 -6.5q21 -7 41 -26t30 -36q18 -30 21 -69.5t-5 -84t-25.5 -90t-41.5 -88t-52.5 -78.5t-58.5 -61q-19 -16 -43 -30.5t-51.5 -25t-58.5 -16t-64 -3.5q-63 4 -104 26.5t-62.5 58.5t-26.5 82t4 96
q1 5 -4.5 12t-15 13.5t-21.5 11t-22 4.5q10 2 22.5 7t25.5 11.5t24 15t17 18.5q24 51 59 104.5t82 98t106.5 75t131.5 36.5q-46 -6 -92 -34t-87.5 -71.5t-76 -97.5t-58 -111.5t-33 -113.5t-1 -103t38 -81.5t83.5 -47.5q48 -12 93 5.5t85 54.5t72.5 89t56 109t36 113.5
t12.5 103.5t-15 79.5t-46 40.5q-54 14 -101.5 -0.5t-86 -47t-66 -78.5t-41.5 -94.5t-12 -95t23 -80.5z" />
    <glyph glyph-name="one" unicode="1" horiz-adv-x="344" 
d="M157 0q-27 24 -37.5 54t-9.5 64.5t11.5 72t26.5 75.5q5 12 -6.5 24.5t-41.5 19.5q17 4 32.5 10t28.5 13.5t21.5 15t11.5 13.5q28 56 52 104.5t27 82.5q-30 -20 -55.5 -42t-54 -41.5t-65 -36t-88.5 -25.5q61 23 102.5 56t80 66.5t84 64t115.5 48.5q-58 -97 -106.5 -197.5
t-81.5 -188.5t-46 -155t-1 -98z" />
    <glyph glyph-name="two" unicode="2" horiz-adv-x="679" 
d="M613 39q-29 -21 -59.5 -29.5t-60.5 -8.5q-32 0 -64 7.5t-62 17.5t-58.5 21t-53.5 17q-16 -5 -36.5 -15t-43 -19.5t-46.5 -17t-47 -7.5q-16 0 -30 1.5t-23.5 5t-14.5 10t-3 16.5q4 18 18 31.5t35 22.5t46.5 13.5t52.5 4.5q28 0 54 -5t50 -13q55 27 109.5 74t100.5 101
q2 3 4 5.5t3 6.5q3 17 -32 31q19 0 35 6t28.5 14t21 16.5t12.5 13.5q26 39 43 72.5t22 54.5q6 26 5.5 49.5t-10 41.5t-30 28.5t-54.5 10.5q-42 0 -78.5 -17t-64.5 -43.5t-46.5 -59t-24.5 -63.5q-8 -38 2 -69.5t42 -42.5q-5 -1 -10 -1.5t-10 -0.5q-27 0 -44.5 9.5t-27.5 24
t-12.5 32t1.5 34.5q9 43 40 81.5t72 67.5t86 46.5t83 17.5q40 0 68 -14.5t44.5 -38t21 -53.5t-1.5 -61q-15 -71 -57.5 -128t-95.5 -103t-109.5 -83.5t-101.5 -68.5q26 -5 54 -15t57 -20t59 -18t62 -8q20 0 39.5 3.5t40.5 13.5zM52 42q11 -8 23.5 -11t26.5 -3q18 0 37 4
t37 11t34 15t28 16q-14 5 -37.5 9.5t-49.5 4.5q-32 0 -60 -10t-39 -36z" />
    <glyph glyph-name="three" unicode="3" horiz-adv-x="579" 
d="M422 335q30 -11 57.5 -23.5t47 -29.5t28 -39t2.5 -53q-8 -35 -39 -65t-73 -54t-88.5 -40.5t-83.5 -22.5q-24 -4 -48 -6.5t-47 -2.5q-39 0 -72.5 8t-56.5 24.5t-33 43t-2 62.5q2 11 7 24t10 27q-10 -48 -1.5 -81.5t31.5 -54.5t58 -31t79 -10q52 0 101 17t88.5 44t66.5 61
t34 69q8 38 -12 72t-79 54q-5 -6 -18 -13t-31 -14t-38.5 -11.5t-39.5 -4.5q-21 0 -39 6t-31 21q21 24 50.5 32.5t57.5 8.5q27 0 49.5 -4t34.5 -9q44 22 75.5 66.5t42.5 92.5q5 25 3 48.5t-14 41t-34 28t-56 10.5q-44 0 -82.5 -13t-68 -35t-49 -50.5t-26.5 -58.5
q-8 -43 8 -82q-41 17 -55.5 40.5t-9.5 48.5q6 29 34 58.5t67 53t85 38t88 14.5q49 0 83 -12t54.5 -32.5t27.5 -46.5t1 -54q-10 -46 -48 -90t-96 -71zM240 316q21 -9 43 -9q23 0 44.5 6.5t46.5 14.5q-20 4 -39.5 7.5t-38.5 3.5q-16 0 -31 -4.5t-25 -18.5z" />
    <glyph glyph-name="four" unicode="4" horiz-adv-x="500" 
d="M401 -17q-33 13 -41.5 44t-5 67t13.5 71t15 58q-42 5 -88.5 6t-94.5 -0.5t-96.5 -4.5t-93.5 -6q87 47 166.5 103t151 114t135 114t118.5 103q-46 -92 -80.5 -198.5t-60.5 -215.5q26 -5 53 -15.5t44 -28.5q-8 4 -21 9t-28 8.5t-30 6t-27 1.5q-2 -7 -8.5 -23.5t-13.5 -38.5
t-13.5 -47t-9 -49t0.5 -44.5t14 -33.5zM500 557q-42 -38 -88 -81.5t-97 -86t-106.5 -81.5t-117.5 -67q42 0 75.5 -0.5t66.5 -1t70 -1t86 -0.5q3 7 5.5 15t5.5 16q3 10 -10.5 22t-43.5 17q34 11 57 25.5t27 28.5q17 51 35 101t35 94z" />
    <glyph glyph-name="five" unicode="5" horiz-adv-x="617" 
d="M207 399q45 11 92.5 20.5t92.5 9.5q51 0 88.5 -14.5t60.5 -40t30.5 -59.5t-1.5 -73q-14 -60 -53 -105t-91.5 -75.5t-113 -46t-117.5 -15.5t-97 14t-62 37t-25 52t13 58.5t52 56.5t92 46q-40 -16 -65 -41t-36 -53t-8.5 -56t18.5 -50.5t45 -36.5t71 -14q59 0 111 18
t92.5 49.5t68 74.5t38.5 92q1 5 1.5 9.5t1.5 9.5q1 10 -14.5 21.5t-61.5 14.5q16 3 29.5 10t22 15.5t11.5 17.5t0 15q-14 25 -43 41.5t-77 16.5q-24 0 -52 -4.5t-55.5 -11.5t-53 -15t-44.5 -14q11 33 21 67t17 67t10 64.5t1 58.5q37 -6 89.5 -11t107.5 -5.5t106.5 5.5
t86.5 22q-50 -36 -106 -48.5t-105.5 -12.5t-87 7t-49.5 11q-6 -51 -22.5 -101t-29.5 -98z" />
    <glyph glyph-name="six" unicode="6" horiz-adv-x="590" 
d="M113 286q19 26 48.5 50.5t65 43t74.5 30t77 11.5q56 0 91.5 -18t52 -48t16.5 -67.5t-15 -77.5t-43.5 -77.5t-68 -67.5t-88.5 -48t-106 -18q-53 0 -90.5 19t-59.5 50.5t-28 73.5t4 88q5 18 11 36q1 6 0 13t-5.5 14t-14 11.5t-24.5 4.5q15 0 29 5.5t25.5 13.5t19.5 16.5
t12 14.5q21 38 47.5 77.5t59.5 74.5t72.5 63t86.5 43t101 14.5t117 -22.5q-60 13 -114.5 5t-102.5 -31.5t-88.5 -58t-72.5 -75t-54.5 -83t-34.5 -80.5zM179 336q-24 -20 -40.5 -51.5t-24.5 -67.5t-6 -72.5t15.5 -65.5t40 -47.5t67.5 -18.5q53 0 99 29.5t80 73.5t52.5 95.5
t15.5 95.5t-31 73.5t-86 29.5q-24 0 -49.5 -6.5t-49.5 -17t-45.5 -23.5t-37.5 -27z" />
    <glyph glyph-name="seven" unicode="7" horiz-adv-x="484" 
d="M24 -12q-17 24 -13 59t21 74t42.5 77t52.5 68q5 6 7.5 14t0 16t-12 15t-27.5 12q17 -2 37.5 2.5t40 11.5t35 15.5t23.5 15.5q37 34 77 66.5t79 63t77 61t71 60.5q-43 -11 -89.5 -13.5t-94 -1.5t-94.5 2t-91 -4t-83.5 -19t-71.5 -43q36 53 95.5 82t129.5 29t143 -8.5
t139 -8.5q17 0 32.5 0.5t30.5 2.5q-60 -44 -124.5 -101.5t-127 -120.5t-118.5 -127t-98 -121.5t-66 -104t-23 -74.5z" />
    <glyph glyph-name="eight" unicode="8" horiz-adv-x="638" 
d="M329 364q76 -19 121 -54t61.5 -75t5.5 -82t-48 -76t-98 -55.5t-144 -21.5q-47 0 -89 10t-72.5 29.5t-45.5 49t-7 69.5q8 39 30 64.5t51 45.5q10 6 18.5 15.5t13.5 20.5t6.5 22t-3.5 20q14 -9 32 -10.5t36 0.5t34 7.5t25 11.5q-54 24 -80.5 54.5t-29 62t16.5 61t54 53
t84.5 37.5t109.5 14q39 0 70 -9t50.5 -27t25.5 -44t-3 -59q28 14 43.5 29t30.5 26q-43 -71 -120 -114t-179 -75zM223 9q69 0 120 19.5t81 50.5t38 69.5t-9.5 76t-61.5 70t-118 51.5q-45 -15 -83 -46t-63.5 -68t-36.5 -77t-1.5 -72t41.5 -53t93 -21zM302 375q31 13 61.5 24.5
t57.5 22.5t50 23.5t39 28.5q15 71 -14 112.5t-100 41.5q-52 0 -91 -15.5t-63.5 -39.5t-34 -53.5t-2.5 -57.5t31 -51.5t66 -35.5z" />
    <glyph glyph-name="nine" unicode="9" horiz-adv-x="586" 
d="M500 346q-19 -27 -49 -51.5t-66 -43.5t-75.5 -30t-76.5 -11q-51 0 -85.5 15t-51.5 40q-8 11 -29.5 23.5t-56.5 12.5q9 3 19 9t19 14t15 16t8 15t3 15t3 16q9 43 36 87t68.5 79.5t95.5 58t118 22.5q53 0 90.5 -19t59.5 -51t28 -74t-4 -88q-14 -67 -52 -139t-93 -132
t-124 -99t-145 -39q-32 0 -63 7t-63 23q50 -14 93 -14q71 0 132.5 29.5t110 77t83 108t52.5 123.5zM249 220q49 0 92.5 21t77.5 54t56.5 74t31.5 82q7 33 4 63.5t-18 54t-43 37t-71 13.5t-80 -20.5t-66 -53.5t-48.5 -74.5t-28.5 -82.5q-7 -33 -7 -63t10.5 -53.5t32 -37.5
t57.5 -14z" />
    <glyph glyph-name="colon" unicode=":" horiz-adv-x="166" 
d="M124 75q6 -11 3.5 -24.5t-11.5 -24t-24 -16t-35 0.5q-4 15 -0.5 29t12.5 23t23 12.5t32 -0.5zM136 368q6 -11 3.5 -24.5t-11.5 -24t-24 -16t-35 0.5q-4 15 -0.5 29t12.5 23t23 12.5t32 -0.5z" />
    <glyph glyph-name="semicolon" unicode=";" horiz-adv-x="134" 
d="M14 -63q9 8 21.5 20.5t14.5 32.5q-13 11 -13.5 26t8 28t24 21t33.5 5q10 -19 5.5 -40t-18.5 -40t-34 -33t-41 -20zM136 368q6 -11 3.5 -24.5t-11.5 -24t-24 -16t-35 0.5q-4 15 -0.5 29t12.5 23t23 12.5t32 -0.5z" />
    <glyph glyph-name="less" unicode="&#x3c;" horiz-adv-x="373" 
d="M283 138q-14 30 -45.5 62.5t-69 61t-74.5 49.5t-61 27q22 9 45 36.5t38.5 57.5t19.5 54t-11 27q7 11 20.5 14.5t28.5 6.5t29 8.5t22 21.5q1 -26 -18 -56.5t-43 -60.5t-46 -57t-27 -46q28 -18 57 -39.5t54.5 -47t46.5 -55.5t34 -64z" />
    <glyph glyph-name="equal" unicode="=" horiz-adv-x="392" 
d="M324 264q-6 10 -5 19.5t5.5 18.5t9.5 18.5t5 19.5q-13 -9 -37 -13t-54.5 -6.5t-64 -4.5t-64 -6t-55.5 -11.5t-39 -20.5q32 10 70 8.5t77.5 -7.5t78.5 -11.5t73 -3.5zM55 394q6 10 5 19.5t-5.5 18.5t-9.5 18.5t-5 19.5q12 -9 36.5 -13t55 -6.5t64 -4.5t64 -6t56 -11
t38.5 -21q-32 10 -70 8.5t-77.5 -7.5t-78.5 -11.5t-73 -3.5z" />
    <glyph glyph-name="greater" unicode="&#x3e;" horiz-adv-x="373" 
d="M33 138q13 34 34 64t46.5 55.5t54 47t57.5 39.5q-5 19 -27 46t-46 57t-43 60.5t-18 56.5q8 -16 22 -21.5t29 -8.5t28.5 -6.5t20.5 -14.5q-15 -3 -11 -27t19.5 -54t38 -57.5t45.5 -36.5q-24 -6 -61 -27t-74.5 -49.5t-69 -61t-45.5 -62.5z" />
    <glyph glyph-name="question" unicode="?" horiz-adv-x="443" 
d="M104 143q-8 28 -11 54.5t-3 49.5t2.5 42.5t5.5 32.5q44 -5 89 9t83.5 41.5t67 66t39.5 82t1.5 90t-47.5 90.5q-8 3 -22 5.5t-32.5 -0.5t-41.5 -12t-48 -28q0 -29 -2.5 -63.5t-10 -69t-21.5 -65.5t-36 -53q-17 28 -15.5 65t12 74t27 68t30.5 47q1 10 1 24.5t-3 30.5
t-10.5 32.5t-19.5 31.5q28 -23 36 -52t8 -48q13 10 31 21t40 19.5t47 12.5t51 0q33 -26 55.5 -68t29.5 -91t-4 -99.5t-44 -94t-91 -75t-145 -41.5q-9 -7 -16.5 -21t-14 -32t-11.5 -38t-7 -38zM119 439q30 48 43 100t11 105q-28 -47 -45 -101t-9 -104zM117 55
q-16 10 -30.5 10.5t-25.5 -6.5t-18 -20t-7 -30q18 -12 34 -10.5t27.5 10t17 21.5t2.5 25z" />
    <glyph glyph-name="at" unicode="@" horiz-adv-x="833" 
d="M522 722q82 -11 131.5 -44.5t72 -81.5t21 -106.5t-21.5 -119t-56.5 -118.5t-84 -105t-103 -79t-113.5 -40q-35 -5 -74 -3.5t-74.5 14.5t-64 40t-43.5 72q-22 68 -17 138t30 134t67 119.5t94.5 96t113 63t122.5 20.5zM224 525q-24 -34 -45 -84t-32 -104.5t-8.5 -108
t24.5 -94t67.5 -62.5t120.5 -14q45 5 90 26.5t85.5 54.5t75 75.5t59 89t36.5 94.5t9 93q-6 74 -35.5 117.5t-72.5 61.5t-95.5 13.5t-104 -25.5t-97.5 -55.5t-77 -77.5zM395 209q-13 -12 -29.5 -27.5t-35 -29.5t-38 -23.5t-37.5 -9.5t-29.5 15.5t-18 38.5t-8.5 49.5t-2 48.5
q0 15 0.5 26t1.5 17q0 12 -5 22t-19 21q23 1 35 12.5t18 23.5q11 24 28 54.5t39 61.5t48.5 59t56.5 46q45 -8 76.5 -43.5t31.5 -93.5q14 30 27 51t11 38q12 1 24 6t23.5 10t23.5 9t24 4q7 0 11 -1t12 -5q-17 -11 -40 -39.5t-48.5 -67.5t-51 -84.5t-46.5 -92t-35.5 -89.5
t-18.5 -76q11 -2 29 14.5t34 42.5q-6 -14 -15.5 -28.5t-20 -25.5t-20.5 -18t-17 -7q-8 4 -12.5 15t-6 25t-1 28t0.5 23zM405 243q13 35 25.5 72t29.5 69q-11 -4 -21 -4q-25 0 -37.5 19t-12.5 42q0 26 14.5 45t43.5 19q-19 -2 -29.5 -22t-10.5 -40q0 -17 8 -30t26 -13
q20 0 33 24t13 59q0 15 -3 31t-9 29.5t-16 23t-24 11.5q-10 -2 -25.5 -17t-33 -39t-35.5 -54.5t-34 -62.5t-28 -64t-17 -58q-8 -38 -8 -77q0 -9 1 -22t3 -25t5 -20.5t7 -8.5q12 0 33 14.5t42 33.5t38 37.5t22 27.5z" />
    <glyph glyph-name="A" unicode="A" horiz-adv-x="698" 
d="M645 124q-5 -22 -15.5 -46t-24 -44t-29.5 -33t-33 -13q-24 9 -33.5 30.5t-9.5 48.5q0 31 8.5 65.5t20 66t22 56t14.5 35.5q-34 3 -55.5 8t-46.5 10q-34 -44 -69.5 -85t-72.5 -83q13 1 31 8t36.5 20.5t35.5 33.5t28 48q-17 -63 -58 -95t-101 -39q-17 -18 -44.5 -39.5
t-58.5 -40.5t-62 -32t-56 -13q-17 0 -29.5 8t-20.5 21t-12.5 29t-4.5 33q0 34 14 70.5t37.5 71.5t53.5 65.5t62 53.5t64 36.5t59 13.5q29 0 42 -11t22 -28q12 -2 22.5 -4.5t22.5 -4.5q1 3 1 8q0 12 -7 24.5t-13 23.5q27 -1 49 10t48 37q64 56 124.5 120.5t115.5 144.5
q2 0 4 -0.5t4 -0.5q13 0 27 4t28 8.5t28.5 8.5t29.5 4q14 0 25 -4q-20 -18 -46.5 -47.5t-54.5 -65.5t-53.5 -75.5t-44.5 -76.5q24 -11 36 -29t12 -38q0 -26 -10 -47t-26.5 -36t-37.5 -23t-43 -8q-9 0 -14 1q-10 -23 -21.5 -50.5t-22 -57.5t-17.5 -61t-7 -61q4 -26 12 -37
t19 -11q13 0 27.5 12t28 29t24.5 37t16 36zM25 77q3 -39 17.5 -54t35.5 -14.5t46 13.5t49.5 31t46 38t35.5 34q-34 13 -56 36.5t-22 49.5q0 24 13 49t34.5 45.5t49.5 34t58 15.5q-17 18 -42 18q-24 0 -53.5 -14t-59.5 -37t-58.5 -53.5t-50 -63.5t-33.5 -66t-10 -62zM269 144
q1 0 2 1.5t2 2.5q39 38 74 83t54 99q-12 2 -21 5.5t-21 4.5q-4 -48 -30 -69t-68 -32q12 6 25 12t24 15.5t18.5 23.5t7.5 37v8q-26 0 -48.5 -11t-39 -29t-26 -40.5t-9.5 -44.5q0 -24 14 -42.5t42 -23.5zM474 321q22 -6 47 -11t48 -5q3 6 13.5 26t22 44t22 45.5t14.5 30.5
q-34 -5 -52 -24.5t-29 -48.5q1 18 8.5 34t20 28.5t28.5 20t33 8.5q27 52 58 101.5t67 91.5q-41 -28 -80 -68t-76.5 -85.5t-73.5 -94t-71 -93.5zM664 453q-23 -39 -38 -74t-32 -72q3 -1 10 -1q23 0 44 18t32 42t8.5 48.5t-24.5 38.5z" />
    <glyph glyph-name="B" unicode="B" horiz-adv-x="552" 
d="M106 -49q-3 16 -5 30t0 31q-42 21 -65 51t-29 63t4 65t33.5 55.5t60 35.5t83.5 6q4 13 8.5 29.5l7.5 27.5q3 6 3.5 14t-1.5 16t-6.5 15t-11.5 11q26 0 51.5 11.5t39.5 34.5q28 32 55.5 75.5t46.5 89.5q-16 -5 -27 -12.5t-25 -15.5q-15 -35 -43 -72t-62.5 -66.5t-72.5 -45
t-72 -6.5q8 30 34 60t60 57t71.5 50t69.5 39q-3 31 -22.5 44t-42.5 13q-17 0 -33.5 -7t-29.5 -21q14 23 33 33.5t39 10.5q29 0 50.5 -19.5t21.5 -48.5q16 10 33 19t30 21q10 11 12 23.5t-12 17.5q23 0 42.5 9t38 18.5t37.5 15.5t42 0q-13 -8 -26.5 -24t-20.5 -34
q32 17 67 31t77 29q18 -31 18.5 -65t-11 -68t-33 -66.5t-47.5 -61t-54.5 -50.5t-54.5 -36q63 -11 63 -74q0 -23 -7 -45.5t-17.5 -43.5t-23 -40t-24.5 -35q-18 -24 -44 -50t-60 -48t-76 -36.5t-92 -14.5q-17 0 -34.5 1.5t-34.5 6.5q-6 -14 -6.5 -25.5t-5.5 -28.5zM124 19
q48 -14 95.5 -2.5t90 39.5t76 67.5t54 83t24.5 85.5t-14 74q-35 -26 -80.5 -42.5t-97.5 -13.5q-9 -11 -16 -24t-15 -27q7 -5 14.5 -17.5t12 -28.5t5.5 -33.5t-3 -32.5q9 8 22.5 12t27.5 2.5t25 -9t14 -23.5q-17 19 -35 20t-35 -7.5t-31.5 -22.5t-23.5 -26q7 14 14 31t9 36
t-2.5 39.5t-20.5 43.5q-32 -53 -58 -109.5t-52 -114.5zM178 270q-46 7 -81.5 -16t-50.5 -60.5t-4 -82.5t58 -81q13 67 36 122.5t42 117.5zM423 372q-18 0 -37.5 -4.5t-39 -11.5t-36 -15.5t-28.5 -16.5q12 -5 32 -2t40.5 11t39 18.5t29.5 20.5zM495 647q-24 -38 -49.5 -75
t-52 -74.5t-53 -76.5t-50.5 -81q32 18 67 32.5t87 14.5q37 27 70 62.5t56 75.5t33.5 83.5t1.5 87.5q-5 -2 -22 -8.5t-36 -14.5t-34.5 -15.5t-17.5 -10.5zM306 576q-29 -16 -55 -32t-49.5 -34.5t-43.5 -40.5t-38 -49q24 -4 51.5 9t53 35.5t47 52t34.5 59.5z" />
    <glyph glyph-name="C" unicode="C" horiz-adv-x="406" 
d="M392 300q-8 -54 -45.5 -107t-86.5 -95t-101 -69t-90 -29q-8 -1 -16.5 1.5t-13.5 6.5q-17 12 -22.5 39t-2.5 61.5t12 72t20.5 71t23 59t19.5 35.5q0 18 -5.5 31t-21.5 24q29 0 50 13t42 33q24 20 42 46q-23 2 -45 8.5t-39 17t-28 25.5t-11 34q0 20 13.5 37t34.5 29.5
t46 19.5t49 7q27 0 46 -10.5t21 -34.5q0 -26 -22.5 -39.5t-50.5 -13.5q-26 0 -41 12q10 -6 26.5 -6.5t32.5 4t27 14.5t11 27q0 13 -13 22t-44 9q-19 0 -38.5 -6t-35 -16t-25.5 -23t-10 -27q0 -16 9.5 -29.5t24 -24t32.5 -16.5t36 -6h6q24 27 57 64t70 71t74.5 59t69.5 28
q21 -24 27.5 -56t1.5 -66t-19.5 -67t-35 -59t-46 -42.5t-51.5 -16.5q-13 0 -23 7t-16 17.5t-8 22.5t0 23q-12 -2 -23.5 -4t-25.5 -2q-33 -44 -72 -98t-72 -111t-55 -113.5t-22 -105.5q1 -23 12 -31.5t31 -6.5q46 6 96.5 37t94 73t76 88t43.5 82zM328 497q-2 -8 -2.5 -18
t2.5 -19t9.5 -15.5t18.5 -7.5q36 1 65 27.5t47 63.5t24 76t-5 65q-35 -11 -64 -29.5t-54.5 -41t-48.5 -47.5l-46 -50q11 0 20 2t18 5q3 12 14.5 28.5t29 31.5t38.5 25.5t43 10.5q18 0 33 -8q-8 -21 -26.5 -38t-39.5 -29.5t-42 -20.5t-34 -11zM432 582q-13 0 -28 -4.5
t-29 -13.5t-25 -21.5t-17 -27.5q31 8 58 23.5t41 43.5z" />
    <glyph glyph-name="D" unicode="D" horiz-adv-x="509" 
d="M77 -46q-8 11 -10 22t-2 21q-20 0 -38 7t-32 19t-22.5 28.5t-8.5 35.5q0 27 14 48.5t36 38t48 27t49 15.5q2 9 5.5 16.5t5.5 16.5q-12 7 -24.5 18t-22 24t-16 28.5t-6.5 31.5q0 43 25.5 80.5t63.5 68.5t80.5 55.5t77.5 42.5q5 6 8 15.5t4 18.5t0.5 17t-1.5 12
q14 -5 31.5 1.5t36 16.5t38.5 18.5t39 7.5q-13 -8 -26 -24.5t-18 -32.5q47 20 104.5 36.5t115.5 21.5q18 -63 1 -138t-58 -152t-100.5 -150t-127 -131t-137 -96t-129.5 -45q-3 -5 -4.5 -18.5t0.5 -21.5zM157 203q-4 -4 -14.5 -30.5t-22.5 -59.5t-22 -63t-13 -42
q50 6 106.5 39.5t111 86.5t103.5 120.5t85.5 139.5t56 144.5t15.5 136.5q-24 -2 -48.5 -7.5t-46 -13t-39.5 -15.5t-30 -14q-29 -32 -59 -78.5t-58 -97.5t-54 -101.5t-47 -89.5q69 19 119 59q1 29 11.5 69.5t30.5 81t49.5 74.5t70.5 49q9 3 9 -11q0 -46 -15.5 -85.5t-39 -73
t-51 -61t-50.5 -49.5q-2 -28 11.5 -50.5t30.5 -35.5q-29 12 -40 30.5t-15 44.5q-29 -18 -60.5 -34t-69.5 -25q-3 -5 -4.5 -9.5t-4.5 -11.5q46 -3 65.5 -23.5t16 -45t-29 -45t-68.5 -22.5q31 6 52 23.5t26 37t-9 36.5t-54 22h-5zM107 200q-18 -3 -38 -12t-37 -23t-28 -32.5
t-11 -40.5q0 -15 4 -29.5t13 -26t23 -18.5t33 -7q4 54 15.5 99.5t25.5 89.5zM155 342q2 17 -10 33.5t-28 24.5q28 2 49 16t38 32q26 27 45 61t38 64q-31 -14 -66.5 -37.5t-65.5 -53t-50 -64t-20 -71.5q0 -13 2 -23t6.5 -19.5t12.5 -19t20 -21.5q2 4 7 15.5t9.5 24t8.5 23.5
t4 15zM440 540q-47 -16 -81 -71t-45 -139q24 24 45 44t37 43.5t27 52.5t17 70z" />
    <glyph glyph-name="E" unicode="E" horiz-adv-x="479" 
d="M239 38q-32 -16 -67.5 -30t-73.5 -13q-21 0 -39.5 8t-33 22t-23 32.5t-8.5 39.5q1 27 16.5 61t37.5 68.5t47 66t45 52.5q6 10 6.5 18.5t-2.5 15t-7.5 11.5t-8.5 10q9 -5 22 -6t27 1.5t27.5 7.5t22.5 12q-26 8 -39.5 28.5t-11.5 44.5q0 9 6 20.5t14 22.5t16.5 19.5
t11.5 12.5q-33 7 -54.5 34t-21.5 59q0 25 20.5 47t55.5 22q25 0 37 -13.5t12 -30.5t-12.5 -32t-35.5 -17q14 4 23.5 18.5t9.5 29.5q0 13 -8 23t-27 9q-27 -1 -40 -21.5t-11.5 -45.5t17 -46t46.5 -24q24 24 59 50.5t74 48.5t80 36.5t77 14.5q13 0 29 -1.5t30 -7.5t24 -17
t10 -30q-1 -25 -20.5 -54.5t-49 -55.5t-64 -45.5t-66 -25.5t-56.5 4.5t-35 45.5h-2q-4 0 -14 2t-19 5q-21 -22 -26 -45t4.5 -42t33.5 -32t62 -15q-42 -11 -81.5 -35.5t-75 -56t-64.5 -66t-50.5 -66t-34 -56.5t-13.5 -37q-3 -32 5.5 -50t24.5 -26t37 -7t42.5 7t42 15t34.5 18
q-13 34 -4.5 67.5t29.5 62.5t51 53t61 41t58.5 25t44.5 5q1 -33 -21 -72t-55 -75t-71.5 -66.5t-70.5 -47.5q9 -15 23.5 -20.5t30.5 -5t30 6t21 13.5q-9 -14 -25.5 -21.5t-35 -7.5t-35.5 7.5t-25 21.5zM434 274q-19 0 -43 -8.5t-48 -23.5t-45.5 -35.5t-35.5 -44.5t-19 -50.5
t5 -53.5q71 38 121 93t69 123h-4zM530 707q-36 0 -67.5 -13t-60 -34t-54 -48.5t-48.5 -56.5q7 -3 14.5 -4.5t12.5 -1.5q6 25 31 46t57.5 33t66.5 14t58 -11q-6 -25 -28 -43.5t-52 -30.5t-62.5 -17t-58.5 -3q9 -27 31 -35t50 -2t58.5 23t57 39.5t45 48t22.5 48.5
q0 25 -20.5 36.5t-52.5 11.5zM340 548q22 -2 49 1.5t51 12.5t42.5 23.5t25.5 34.5q-18 10 -45.5 7.5t-53.5 -13.5t-46 -29t-23 -37z" />
    <glyph glyph-name="F" unicode="F" horiz-adv-x="479" 
d="M373 695q24 -7 42 -1t35.5 15t36.5 17t44 4q-12 -4 -22 -11.5t-19 -17.5t-16 -20t-11 -19q10 -2 30 -5t43.5 -5t48.5 -0.5t46.5 9t35.5 23t16 42.5q17 -36 10 -60t-29 -37.5t-54 -18.5t-64.5 -4t-61 6.5t-43.5 13.5q-42 -63 -82.5 -129.5t-76.5 -132.5q29 -5 63 -5t65 3
q13 11 28.5 21.5t33 17.5t35.5 9t36 -4q-3 -15 -15.5 -25.5t-29.5 -17.5t-37 -10t-39 -4q-9 -3 -18 -17.5t-9 -26.5t5.5 -15t12.5 -1.5t13.5 6t8.5 8.5q-1 -12 -9.5 -19t-18.5 -7.5t-18.5 5.5t-9.5 20q-1 13 4.5 24t10.5 19q-34 -3 -63 -1t-59 5q-12 -22 -24 -44.5
t-23 -45.5q11 -7 20 -20.5t16 -30t10.5 -35t3.5 -36.5q0 -15 -3.5 -30t-10 -26.5t-15.5 -19t-21 -7.5q-17 0 -28 13t-11 27q0 17 16 26q-2 -5 -3.5 -9t0.5 -8q7 -19 17.5 -23t20.5 2t17.5 20.5t7.5 32.5q0 16 -4 33t-10 32t-14 26.5t-16 16.5q-30 -59 -56.5 -122.5
t-38.5 -139.5q-39 8 -73 34t-52 61t-14 74t40 73q-15 45 0 75t46 47.5t69.5 23t70.5 2.5q0 16 -9 20t-21 9q25 6 43 20.5t30 29.5t26.5 38t29.5 49.5t28.5 52.5t23.5 47q-6 2 -14 2h-16q-7 -42 -35.5 -79.5t-68 -63t-85 -34t-86.5 8.5q17 37 45 69.5t62.5 58t73 41.5
t77.5 21q3 22 -6 37.5t-24 24.5t-32.5 11.5t-31 -2.5t-20 -18.5t1.5 -34.5q-17 23 -14 38.5t18 24t37 8.5t42.5 -9.5t34 -28t12.5 -47.5q4 2 11 1t28 -1q2 5 2 12v18zM114 -4q0 1 0.5 2t0.5 2q1 20 5 53t11.5 71t18.5 76.5t25 68.5q0 2 -5 1t-5 1q-4 -18 -17 -35.5
t-31.5 -28.5t-40.5 -12t-44 15q-18 -29 -20 -60.5t9 -60.5t34 -53t54 -38q2 -1 2.5 -1t2.5 -1zM43 221q15 -13 32 -12t32 10t25.5 24t13.5 29q-36 -3 -60.5 -16.5t-42.5 -34.5zM206 356q-27 2 -60 -1t-60 -16t-42.5 -37t-7.5 -64q23 19 48.5 32.5t63.5 18.5q-2 12 -5.5 19.5
t-15.5 14.5q15 -1 25.5 -10.5t12.5 -25.5q8 0 13 -2q7 17 15 37t13 34zM506 392q-26 0 -40.5 -8.5t-28.5 -19.5q21 0 41.5 6.5t27.5 21.5zM94 491q35 -9 71 -2.5t66 26t52.5 51t30.5 71.5q-44 -6 -76.5 -17.5t-57.5 -29.5t-45 -42t-39 -54q-3 -3 -2 -3z" />
    <glyph glyph-name="G" unicode="G" horiz-adv-x="500" 
d="M293 23q-28 -35 -54 -68.5t-54 -66t-61 -65t-75 -65.5q-72 46 -103.5 94t-31.5 92q0 31 14.5 59t41 48t62.5 32t79 12q36 0 76 -9.5t82 -29.5q73 123 130 265q-25 -29 -57.5 -62.5t-72 -63t-86.5 -50.5t-100 -25q-18 26 -25.5 55t-7.5 61q0 26 4 53t11 56q-2 12 -9 25.5
t-27 29.5q28 2 48 17t32 31q20 23 51 61t69 79.5t81 80t87 62.5q27 -15 49 -37.5t37.5 -48.5t24 -54t8.5 -54q0 -37 -17.5 -64t-57.5 -35q-29 -1 -47.5 6t-30 19.5t-16 28.5t-4.5 33q0 13 6 25.5t15.5 22.5t23 16t28.5 6q17 0 31 -10t14 -28q0 -13 -9 -29q1 9 -1 18.5
t-7.5 17t-13.5 11.5t-18 2q-18 -3 -27 -20t-9 -37q0 -13 4 -26t12 -22.5t20.5 -15t29.5 -3.5q31 3 45.5 28t14.5 57q0 20 -5 40.5t-15 38.5t-24.5 32t-33.5 20q-57 -40 -116 -98t-107 -124.5t-78.5 -136t-30.5 -131.5q0 -18 3 -36q25 -1 57.5 12t66 33t65 45.5t55 51.5
t36 49t8.5 38q21 -2 38 6.5t33 19t31.5 19.5t32.5 8q-16 -51 -40.5 -102t-53 -99.5t-59 -95.5t-58.5 -90q31 -14 64 -29.5t70.5 -25t80.5 -11t95 12.5q-58 -25 -106.5 -25.5t-89 11t-72.5 27.5t-56 25zM49 -218q33 24 62.5 55t56 65.5t49 70t42.5 68.5q-36 20 -72 29t-70 9
q-47 0 -80.5 -15t-53 -39.5t-25 -56.5t3 -65t30 -64.5t57.5 -56.5z" />
    <glyph glyph-name="H" unicode="H" horiz-adv-x="531" 
d="M427 -18q-32 47 -38.5 97.5t2 98.5t25.5 92.5t32 79.5q-57 2 -108 0.5t-91 -9.5q-6 -14 -12.5 -29t-11.5 -30q32 -10 52.5 -39.5t25 -61.5t-9 -57t-49.5 -26q-18 2 -32 15t-10 38q2 12 10 19t17 8.5t17 -2t11 -11.5q-17 7 -26 1.5t-10.5 -15.5t4.5 -20t20 -11
q22 1 32.5 11.5t12.5 26.5t-3.5 34.5t-15.5 35t-24 27.5t-29 13q-14 -31 -25 -66.5t-20 -72t-17.5 -74t-17.5 -71.5q-33 10 -61 27t-48 41.5t-30 57.5t-7 76q6 34 26.5 61.5t49 48.5t61 35t62.5 21q3 19 -11 29.5t-30 18.5q10 0 22.5 5t24 12t21 15.5t13.5 15.5
q15 27 29 58.5t28.5 64.5t30.5 65t35 59q-26 -3 -50.5 -12t-46.5 -17q4 -47 -12 -90.5t-46 -76.5t-70.5 -53t-85.5 -19q2 46 18 84.5t41.5 69.5t59 54t70.5 40q-9 14 -24 17.5t-29.5 0.5t-26.5 -10t-16 -13q7 18 22.5 28.5t32.5 13t33 -4.5t24 -25q27 10 58 19.5t61.5 16
t60 9.5t53.5 0q-19 -5 -39.5 -27.5t-41.5 -55.5t-41 -73t-38.5 -79t-34 -74t-26.5 -59q16 3 33 4.5t39 2t51 -0.5t70 -2q20 46 37 88.5t34 77.5q-30 1 -53.5 -7t-40.5 -22q-16 -13 -22 -29t-2.5 -26.5t18.5 -13t41 11.5q-17 -21 -37 -24t-33.5 7t-15 29t19.5 40
q23 20 56 34.5t75 13.5q17 37 37 81t45 82q13 -4 32.5 2t39 14t38 13t30.5 -2q-27 -10 -50 -32t-43 -51t-38 -62t-35 -63q32 -14 45 -32.5t11.5 -37.5t-15.5 -37.5t-34.5 -33.5t-46.5 -24.5t-51 -9.5q-18 -40 -38.5 -86t-33 -94t-14 -96t17.5 -92zM172 278
q-45 2 -76.5 -14.5t-49.5 -43t-21.5 -59t6.5 -63.5t34.5 -56.5t63.5 -38.5q-1 42 3 77t10 67.5t14 64t16 66.5zM189 335q-20 -3 -41.5 -11t-41.5 -19t-36 -24.5t-23 -27.5q7 7 20.5 14.5t30.5 13.5t37 9.5t41 1.5q4 9 7.5 20.5t5.5 22.5zM501 366q27 0 57 16t47 39t13.5 48
t-41.5 43q-16 -28 -35 -65.5t-41 -80.5zM240 661q-37 -15 -65.5 -32.5t-49 -40.5t-33.5 -55t-19 -75q32 -1 64 15.5t56.5 45t38 65.5t8.5 77z" />
    <glyph glyph-name="I" unicode="I" horiz-adv-x="385" 
d="M240 239q-6 -15 -13.5 -42.5t-14 -61.5t-10.5 -72.5t-2 -75.5q-25 16 -53 39.5t-53.5 52t-46.5 61t-32 67t-10.5 69t18.5 67.5q11 21 30.5 35.5t45.5 18.5q-6 51 12.5 96.5t53.5 84t82 69t98.5 50.5t103.5 28.5t97 3.5q-56 -38 -102 -89.5t-83 -113t-65.5 -131
t-50.5 -144.5q24 -8 42 -5.5t30.5 10.5t19.5 20t9 25q2 17 -4.5 25.5t-15.5 9.5t-18.5 -5.5t-13.5 -18.5q1 19 14 29t27.5 10t25.5 -11t8 -34q-3 -17 -13.5 -32t-27.5 -25.5t-39 -14t-49 4.5zM100 382q-32 -17 -46 -46t-13.5 -64t13 -73t32 -72.5t44.5 -63t50 -43.5
q0 57 7.5 120t15.5 114q-11 5 -22 12.5t-16 14.5q-13 -15 -35 -19.5t-42 3.5q8 -2 18 -0.5t19.5 5t17.5 8.5t12 12q-17 15 -32.5 40.5t-22.5 51.5zM217 345q-2 11 -3 19t-5 14t-11 11t-19 11q16 0 34.5 12.5t29.5 32.5q38 67 78.5 133.5t84.5 124.5q-46 -12 -97 -38
t-94.5 -65t-71.5 -90t-28 -113q20 -1 36.5 -9t25.5 -21.5t8.5 -32t-13.5 -40.5q7 -8 13.5 -13t20.5 -12q2 24 5.5 39t5.5 37zM118 383q6 -26 18 -46t25 -33q6 12 5.5 25t-6.5 25t-16.5 20t-25.5 9z" />
    <glyph glyph-name="J" unicode="J" horiz-adv-x="396" 
d="M11 92q-10 82 6.5 164.5t54 156.5t92.5 137t121 107t139 65.5t147 13.5q-58 -58 -98.5 -129.5t-73 -148.5t-62.5 -155t-66 -149q13 4 29 14t31.5 23t29.5 27t23 27q6 7 11.5 17.5t6 20t-6.5 17t-25 8.5q23 7 34.5 2t14 -16.5t-3 -27t-15.5 -28.5q-26 -32 -58 -59t-80 -45
q-36 -77 -71 -143t-75.5 -126t-90 -116t-113.5 -111q-25 59 -27 113t14.5 102.5t48 90.5t72 77t88 63t95.5 48q22 53 46 105t35 109q2 24 -12 38t-32 16q12 -1 25.5 4t26 13t23 17.5t15.5 17.5q9 24 22 56t28 67t30 68.5t28 60.5q-89 -28 -165 -83.5t-129 -130t-79.5 -163.5
t-17.5 -183q33 8 67 28.5t61 49.5t44 63.5t15 71.5q-15 16 -31 13t-28 -15.5t-16 -30t5 -29.5q-14 16 -15.5 32t6 29t21 21.5t28 10t27.5 -5t20 -24.5q3 -33 -17 -76t-54.5 -82.5t-78.5 -70t-90 -37.5zM-60 -300q46 44 82 92.5t65.5 99.5t54.5 105.5t50 110.5
q-64 -27 -122.5 -65.5t-97.5 -89t-50.5 -114t18.5 -139.5z" />
    <glyph glyph-name="K" unicode="K" horiz-adv-x="652" 
d="M968 700q-42 16 -74 16t-55 -15t-46 -41.5t-51 -61t-69 -74t-100.5 -81.5t-145.5 -82q22 -29 49 -74t58.5 -95.5t67 -102t75.5 -92.5t83.5 -67t91.5 -26q26 0 42 13.5t18 40.5q5 -21 -1 -35.5t-18.5 -23.5t-30 -12.5t-35.5 -3.5q-58 0 -107.5 27.5t-91.5 71t-77 96.5
t-62.5 105t-49 97t-35.5 71q-7 -5 -26.5 -12t-39.5 -8q-22 -38 -46 -79t-44 -84.5t-33.5 -89.5t-14.5 -95q-32 14 -65.5 39.5t-62 58t-47.5 70t-22 75.5q-1 15 2 34.5t11 37t21 30t32 14.5q26 2 51 -14.5t43 -42.5t26.5 -58.5t2.5 -61.5q-5 -23 -18 -34t-28 -11
q-12 0 -24 6.5t-20 18.5t-10.5 28.5t4.5 35.5q-3 -20 5.5 -37.5t22 -25.5t28.5 -2.5t23 31.5q3 37 -6.5 67t-25.5 49.5t-35.5 27t-36.5 -0.5t-28.5 -34t-11.5 -72q10 -72 52 -122t105 -87q0 93 22.5 172.5t60.5 154.5q-37 4 -62 21.5t-36 36.5q-10 -4 -26.5 -6.5t-34.5 -2.5
q-22 0 -39 4t-26 17q3 25 19 51t42 51.5t59 50t68 46.5t70 40.5t66 31.5q-5 19 -22 29.5t-37 10.5q-22 0 -38.5 -14t-13.5 -44q-8 18 -5.5 32t11 23.5t21.5 15t28 5.5q22 0 42 -12.5t28 -39.5q17 8 41.5 18.5t52 20t57.5 16t59 6.5q25 0 46 -6q-27 -3 -58.5 -37.5
t-65.5 -83.5t-68.5 -104.5t-67.5 -100.5q11 -8 17.5 -15.5t15.5 -15.5q31 14 57.5 32.5t55.5 46.5q42 40 84.5 88t86.5 90t89.5 70t92.5 28q45 0 88 -30zM190 393q14 -21 36.5 -32t52.5 -16q8 14 8 30q0 20 -12 31q13 3 27.5 7t22.5 15q-15 6 -28.5 10t-25.5 3
q-14 -12 -37.5 -26.5t-43.5 -21.5zM375 395q-4 -8 -12.5 -21.5t-13.5 -23.5q13 1 25 5t23 10q-8 14 -22 30zM92 415q16 -16 32 -18t41 3q-9 21 -2 34.5t23.5 20t38 6.5t39.5 -4q21 18 41.5 38.5t36.5 45t25 53t6 61.5q-43 -19 -92.5 -47.5t-91.5 -61t-70 -67t-27 -64.5z
M253 444q-9 2 -22.5 0t-25.5 -7t-19 -13.5t-3 -19.5q11 4 33 15.5t37 24.5zM338 436q39 67 79 133t80 134q-28 -11 -56 -20.5t-54 -20.5q4 -35 -3.5 -65t-23 -55.5t-35.5 -47.5t-40 -40q18 -2 31.5 -7.5t21.5 -10.5z" />
    <glyph glyph-name="L" unicode="L" horiz-adv-x="625" 
d="M421 166q18 -14 37 -34.5t36 -43.5q42 -59 103 -105.5t132.5 -69t150.5 -15t158 57.5q-77 -55 -155.5 -68.5t-151.5 5.5t-138 66.5t-115 113.5q-17 24 -34.5 45t-36.5 35q-16 -21 -33 -43.5t-36.5 -43t-42.5 -37.5t-50 -28q-39 -15 -77.5 -15.5t-72 14.5t-60 45t-40.5 75
q35 46 81 73t97 36t103 1t99 -31q8 15 19 32.5t21.5 37t20 39t15.5 37.5q-1 12 -6.5 20.5t-13 14.5t-16 10t-15.5 8q19 0 37 8.5t34.5 22t29.5 29.5t21 31q-41 -6 -83.5 -2t-88.5 12q-20 4 -48 16.5t-51.5 31t-36 42t-1.5 50.5q3 5 10.5 8.5t15.5 4t15 -4t10 -15.5
q-12 8 -21 4t-13 -14t-1.5 -22.5t11.5 -22.5q11 -11 25.5 -22t30.5 -20t31.5 -14t29.5 -4q-41 24 -52.5 54t-1.5 57.5t36 47.5t60 22q16 1 37 -2t38.5 -12t28.5 -24.5t8 -37.5q-2 -15 -14 -23.5t-26 -9t-25.5 8t-12.5 27.5q6 -17 19 -20.5t22.5 3t12 20.5t-11.5 31
q-24 20 -49.5 24.5t-48.5 -3t-40 -23.5t-22.5 -37t3 -43.5t36.5 -42.5q65 -45 182 -27q46 62 109.5 118t133.5 93t141.5 47.5t134.5 -18.5q1 -38 -25.5 -70t-69 -59t-94.5 -48.5t-102 -36.5t-91.5 -23.5t-62.5 -9.5q-26 -51 -46.5 -93.5t-41.5 -81.5t-45 -77.5t-56 -81.5z
M39 118q19 -52 44.5 -79t54.5 -33t60 6t60.5 37t57 60.5t49.5 77.5q-44 21 -94 27t-96 -3t-82.5 -32.5t-53.5 -60.5zM1019 732q-41 19 -91 12.5t-102.5 -35t-105.5 -77.5t-99 -115q19 2 54 9.5t77 21t86.5 31.5t82.5 41.5t65 51.5t33 60z" />
    <glyph glyph-name="M" unicode="M" horiz-adv-x="802" 
d="M470 154q-13 62 -11.5 132t13.5 138t32.5 129.5t44.5 105.5q-50 -56 -89.5 -125.5t-73 -141t-63.5 -139.5t-61.5 -122t-67 -88.5t-79.5 -38.5q-38 3 -64 31t-35.5 70t1 93t46.5 102q-17 43 -11.5 82t25.5 73t50.5 63t63.5 52.5t64.5 41.5t53.5 30q0 17 -4.5 28.5t-11 19
t-14 12.5l-13.5 9q26 -8 41.5 -26t17.5 -38q21 12 48 24.5t56.5 23t60.5 17t61 6.5q17 0 32.5 -4t24.5 -13q-25 -21 -45 -56t-34.5 -77t-24.5 -88t-15.5 -89.5t-5.5 -82t4 -65.5q10 28 36 74.5t63.5 100t84.5 108t99.5 99.5t108.5 74.5t111 33.5q36 2 50 -13t11 -36.5
t-21.5 -44.5t-48.5 -37q4 3 16 15t21 28t10.5 34t-15.5 33q-28 -21 -63.5 -66.5t-73 -105t-73 -127.5t-64 -134t-45.5 -124.5t-17 -99.5q0 -28 4.5 -40t12.5 -12q5 0 13.5 7t18 18t19.5 25.5t17 28.5q-15 -43 -34.5 -68t-39.5 -28q-26 11 -32.5 39t-6.5 62q0 41 12 93
t32 108t45.5 113.5t52.5 110t53.5 97t47.5 75.5q-64 -36 -128 -95.5t-120 -130.5t-101.5 -150t-72.5 -154zM84 297q10 -14 24 -13t28 10t26 21t18 20q-8 28 -21 28.5t-27.5 -11.5t-27.5 -29.5t-20 -25.5zM309 615q-26 -12 -56 -30t-58.5 -41t-54 -49.5t-43 -56t-23.5 -61
t3 -63.5q8 13 23.5 31t33 28.5t34.5 9.5t29 -25q16 19 34 47t34 61.5t27.5 71.5t16.5 77zM324 624q0 -50 -16 -98.5t-37 -87.5t-40.5 -66t-25.5 -34q5 -30 -1 -61t-20.5 -56.5t-36 -42.5t-46.5 -20q9 4 24 15.5t29.5 30.5t24 46t8.5 63q-8 -9 -20.5 -20.5t-27.5 -18.5
t-31.5 -7t-32.5 14q-14 -19 -22.5 -56.5t-6.5 -78t18 -76.5t51 -51q22 0 43.5 27.5t41.5 66t36.5 80.5t28.5 71q8 22 16 41.5t13 39.5q1 6 2.5 13.5t0.5 15t-5 14t-14 12.5q28 8 46.5 25.5t32 39.5t25 47t25.5 48q20 32 37.5 64t30.5 64q-42 -11 -78.5 -28.5t-72.5 -35.5z
" />
    <glyph glyph-name="N" unicode="N" horiz-adv-x="667" 
d="M913 580q26 28 38 48.5t12 32.5q0 16 -17 16q-14 0 -37 -12.5t-52 -39.5q-60 -56 -122.5 -129.5t-113.5 -156t-84.5 -169.5t-36.5 -170q-23 26 -33 72t-10 105q0 66 10.5 142t26 148t34 134t35.5 100q-60 -77 -122.5 -159.5t-119.5 -169.5t-105 -178.5t-79 -187.5
q-33 25 -58.5 61.5t-43 78.5t-26.5 86.5t-9 85.5q0 23 8 56t24 63.5t39.5 52t54.5 21.5q10 0 22 -3q39 53 90.5 92t105.5 74q-20 21 -47 21q-23 0 -42.5 -14.5t-24.5 -38.5q-1 4 -1 12q0 28 21 42t47 14q19 0 35.5 -7.5t25.5 -21.5q30 16 77.5 29.5t93.5 13.5q22 0 41.5 -4
t35.5 -13q-11 -4 -21.5 -21t-19.5 -38.5t-15.5 -43t-9.5 -34.5q-10 -41 -21 -91t-20 -101.5t-14.5 -102.5t-5.5 -94q0 -23 1.5 -43.5t6.5 -37.5q19 72 48.5 143t68 137.5t83.5 128t94 114.5q12 13 33 34.5t46.5 41t52.5 34t52 14.5q22 0 31.5 -11.5t9.5 -28.5q0 -15 -7 -33
t-20 -35.5t-30 -33t-36 -25.5zM137 497q-27 0 -47 -17.5t-33.5 -45t-20 -61t-6.5 -65.5q0 -66 24.5 -133t74.5 -116q9 33 23 69t30.5 72.5t34 73.5t32.5 71q3 7 3 15q0 13 -7 23.5t-18 16.5q23 0 45.5 15t33.5 33q17 27 37 61t41.5 69t43 68t41.5 57q-30 -7 -55.5 -16.5
t-48.5 -21.5q4 -12 4 -28q0 -30 -17.5 -61t-44.5 -58t-58.5 -47t-58.5 -29q3 -17 3 -40q0 -18 -3.5 -39.5t-11.5 -40.5t-21.5 -31.5t-33.5 -12.5q-23 0 -35.5 18.5t-12.5 40.5q0 15 6 28.5t19 21.5q-10 -17 -10 -34t9 -29.5t28 -12.5q15 0 24.5 8t15.5 21t8.5 29.5t2.5 34.5
q0 8 -0.5 16.5t-1.5 16.5q-20 -5 -39 -7.5t-43 -4.5q0 7 5 17t11.5 20.5t14 20t12.5 14.5zM135 451q5 -1 9 -1h9q9 0 20 3q-7 20 -21 34q-12 -17 -17 -36zM160 503q7 -12 15 -21.5t11 -23.5q29 11 58.5 29t53.5 42t39 54t15 66v8q-57 -30 -103.5 -65.5t-88.5 -88.5z" />
    <glyph glyph-name="O" unicode="O" 
d="M435 657q16 3 27 -5q21 -18 25.5 -51.5t0.5 -71t-13.5 -73.5t-16.5 -61q-19 -66 -50.5 -132t-75.5 -123t-100.5 -99.5t-126.5 -59.5q-26 6 -38.5 31.5t-15 61t1.5 76.5t10.5 79t13 68.5t7.5 45.5q-1 15 -3 24t-5.5 14.5t-10.5 9.5t-17 9q12 1 25 6t24.5 12t20.5 15.5
t14 16.5q-14 6 -28 15.5t-17 25.5q-3 13 2 25t13.5 19t18.5 7.5t17 -9.5q-16 2 -23.5 -8.5t-6.5 -23.5t9 -25t23 -13q21 33 53 81.5t70.5 96.5t81 89t83.5 59q12 -9 15.5 -27.5t2.5 -38.5t-5 -38.5t-6 -27.5zM111 0q56 11 105.5 47t90.5 88t73 114t53 124.5t30.5 119.5
t5.5 100q-3 25 -13.5 37t-26.5 8q-11 -53 -43 -92.5t-92 -68.5q-10 -12 -14.5 -31.5t-4.5 -39.5t4.5 -37t13.5 -24t21.5 -1t29.5 33q4 -14 -2.5 -29t-18.5 -25t-26.5 -10t-26.5 17q-8 11 -11 28t-2 35.5t5 37t9 32.5q-17 -9 -32 -13.5t-35 -4.5q-14 -27 -31 -68.5t-33 -88.5
t-29.5 -95t-20 -88t-5 -68t16.5 -35q6 -2 9 -2zM306 600q-26 -32 -48 -69t-45 -71q18 1 35.5 7.5t29.5 14.5q23 54 58.5 98.5t80.5 70.5q4 11 6.5 27.5t0.5 31.5q-36 -19 -64 -48.5t-54 -61.5zM411 631q-17 -11 -33.5 -26t-30.5 -33t-26 -37.5t-21 -38.5q16 9 33 24t33 33
t28 38.5t17 39.5z" />
    <glyph glyph-name="P" unicode="P" horiz-adv-x="635" 
d="M317 271q-15 -23 -40 -67t-58 -90.5t-74 -86t-87 -54.5q-9 -3 -15 -3q-20 0 -28 18t-8 38q0 34 11 61.5t26 46.5t30.5 29.5t23.5 10.5q19 0 28 -10.5t9 -25.5q0 -19 -14 -38.5t-40 -27.5q14 8 24 22.5t10 34.5q0 8 -3 14t-14 6q-20 0 -34.5 -16.5t-24.5 -38t-15 -42
t-5 -29.5q0 -35 26 -35q16 0 36 15t41 39.5t43 55.5t41.5 62t36.5 60t29 49q-29 7 -47.5 32t-18.5 55q0 19 7 34q-13 0 -29 3t-30 10.5t-23.5 20.5t-9.5 33q0 36 27 65.5t62.5 52t70.5 37.5t51 21q-16 23 -44 23q-20 0 -39.5 -12t-29.5 -32q1 26 21 42t49 16q37 0 60 -29
q54 23 131 40q5 5 6.5 12.5t6.5 12.5q13 0 26 5t25 11t24.5 11t25.5 5h8.5t8.5 -2q-14 -8 -20 -16.5t-11 -16.5q36 8 66 15t68 7q17 0 33.5 -4t29 -12t20.5 -21.5t8 -31.5v-6q-4 -52 -28 -98t-61.5 -85.5t-85.5 -72.5t-101 -58t-107.5 -41.5t-104.5 -23.5zM279 286
q5 5 10.5 15t10 21t7 20.5t2.5 14.5q0 36 -34 43q36 9 62 33.5t43 55.5q-24 0 -42 -9q-20 -41 -48.5 -62t-51.5 -24q-6 -7 -10 -17.5t-4 -24.5q0 -23 17.5 -42t37.5 -24zM438 472q-28 -47 -56.5 -92.5t-54.5 -93.5q71 9 137 37t119.5 74t92.5 109.5t56 143.5q1 4 1 12
q0 23 -20 31t-47 8q-29 0 -57.5 -5.5t-39.5 -9.5q-10 -8 -27.5 -35t-36 -59t-35 -61.5t-24.5 -41.5q25 -14 34.5 -34.5t4.5 -41.5t-23.5 -38t-47.5 -22q17 3 30.5 25t13.5 48q0 14 -4.5 26t-15.5 20zM328 492q8 13 12.5 34t4.5 44q0 14 -1.5 26.5t-5.5 22.5
q-15 -2 -45.5 -18t-61 -39.5t-53 -50.5t-22.5 -51q0 -17 15 -31.5t50 -22.5q17 31 45 52t62 34zM319 473q-6 -2 -17 -9t-22.5 -16t-21.5 -19t-14 -18q8 0 19.5 7t23 17t20.5 20.5t12 17.5zM356 628q6 -24 6 -51q0 -42 -11 -75q4 1 10.5 2t12.5 1q9 0 12 -2q46 73 86 162
q-20 -5 -35.5 -9t-28.5 -8.5t-25.5 -9t-26.5 -10.5z" />
    <glyph glyph-name="Q" unicode="Q" horiz-adv-x="451" 
d="M459 657q16 3 27 -5q21 -18 25.5 -51.5t0.5 -71t-13.5 -73.5t-16.5 -61q-14 -47 -34 -95.5t-47 -93.5t-60 -85t-73 -71q27 -19 53 -40t52 -40.5t51.5 -36t51.5 -26.5q23 -9 48 -12t49 3.5t45 25t37 53.5q-8 -47 -29.5 -76t-49 -44t-58 -16t-56.5 8q-29 10 -56.5 31
t-55 46.5t-55 52.5t-55.5 51q-26 -17 -53.5 -29t-57.5 -20q-31 8 -42.5 40t-12.5 76q-13 -2 -26 -7t-27 -13q28 22 53 30q1 34 6 70.5t11 69t11 58t6 38.5q-1 15 -3 24t-5.5 14.5t-10.5 9.5t-17 9q12 1 25 6t24.5 12t20.5 15.5t14 16.5q-14 6 -28 15.5t-17 25.5q-3 13 2 25
t13.5 19t18.5 7.5t17 -9.5q-31 3 -28 -33q0 -6 3 -13t7 -12.5t9 -9t11 -2.5q21 33 53 81.5t70.5 96.5t81 89t83.5 59q12 -9 15.5 -27.5t2.5 -38.5t-5 -38.5t-6 -27.5zM115 114q36 0 71 -15.5t70 -39.5q38 31 71.5 73t61 90t48.5 99t34.5 100t19 93.5t2.5 78.5
q-3 25 -13.5 37t-26.5 8q-20 -54 -52.5 -93.5t-82.5 -67.5q-8 -12 -12 -29.5t-5 -35.5t1.5 -34.5t9.5 -25.5q4 -6 11.5 -9.5t15.5 -1.5t16 10t13 26q4 -14 -2.5 -29t-18.5 -25t-26.5 -10t-26.5 17q-8 11 -11 28t-2 35.5t5 37t9 32.5q-17 -9 -32 -13.5t-35 -4.5
q-14 -26 -30.5 -66t-32.5 -85.5t-29.5 -92.5t-20.5 -87zM330 600q-26 -32 -48 -69t-45 -71q18 1 35.5 7.5t29.5 14.5q20 53 55.5 98t83.5 71q4 11 6.5 27.5t0.5 31.5q-36 -19 -64 -48.5t-54 -61.5zM135 0q25 5 48 15t46 25q-28 23 -57 38.5t-59 19.5q-6 -38 -3.5 -64
t16.5 -32q6 -2 9 -2zM435 631q-17 -11 -33.5 -26t-30.5 -33t-26 -37.5t-21 -38.5q16 9 33 24t33 33t28 38.5t17 39.5z" />
    <glyph glyph-name="R" unicode="R" horiz-adv-x="656" 
d="M901 -30q2 -39 -14 -62.5t-41.5 -33t-56 -7t-57.5 15.5q-43 20 -72 51.5t-50 69.5t-36 81t-29.5 87t-31 86.5t-39.5 79.5q-12 -8 -27 -14.5t-29.5 -8.5t-27 1t-19.5 15q-12 -22 -29.5 -52.5t-39 -64.5t-45.5 -68.5t-50 -64t-52.5 -51.5t-52.5 -32q-44 -6 -74.5 9t-48 42
t-22.5 61.5t1 67.5q6 29 23 53.5t40 42t48.5 25.5t49 4.5t42 -21.5t26.5 -53q6 -31 -6 -62t-33 -50.5t-47 -21t-48 26.5q28 -19 50.5 -16.5t37.5 18t21.5 39t3 46t-17.5 40t-40 20.5q-21 2 -45 -5.5t-44 -24t-34.5 -41t-15.5 -56.5q-1 -25 7 -49t22 -42t33.5 -29t40.5 -11
q19 -4 40.5 11t43.5 42t44.5 63.5t42.5 75t37 76.5t30 70q2 17 -7 30t-20 21q22 0 37.5 9t31.5 19q34 55 66.5 116t61.5 121q-29 -11 -54 -23t-47 -25q-8 -54 -32 -100t-58 -81q-21 -22 -45.5 -40.5t-49.5 -32t-49 -20t-43 -3.5q2 30 24.5 70t57.5 80.5t80.5 77t94.5 59.5
q-3 13 -12 25t-21 18.5t-26 6t-26 -12.5q12 18 28.5 22t32 -2t27 -19.5t12.5 -31.5q26 13 51 25t64 26q6 10 4 34q18 -2 38 5.5t39 15t35.5 12t27.5 -3.5q-16 -2 -23.5 -13t-15.5 -26q12 4 32.5 8.5t45 8t49.5 4.5t45.5 -3.5t33.5 -15t13 -29.5q-7 -42 -30 -80.5t-55 -73
t-68 -63.5t-69.5 -52t-59.5 -38.5t-37 -22.5q35 -29 58 -73.5t41.5 -94t36 -100t41.5 -91t58.5 -66.5t87.5 -27q33 -1 54.5 19t29.5 52zM390 334q24 -6 42 3.5t28 17.5q-5 5 -15.5 5.5t-22 -2.5t-20.5 -9t-12 -15zM142 375q36 5 72.5 24t67 49.5t52 71t27.5 87.5
q-35 -13 -68 -36.5t-61.5 -54t-51.5 -66.5t-38 -75zM578 687q-45 -83 -95 -162t-91 -163q8 5 19.5 8.5t23.5 5t24 -0.5t21 -9q10 9 36 28t58 46t65 60t57 68.5t33.5 71.5t-4.5 70q-14 2 -33 1t-39.5 -4t-40 -8.5t-34.5 -11.5z" />
    <glyph glyph-name="S" unicode="S" horiz-adv-x="427" 
d="M380 467q4 31 19.5 59.5t37 54t47 46.5t48.5 36q2 14 5.5 30.5t2 28.5t-11 16t-32.5 -6q-26 -12 -52.5 -34t-48 -50t-36.5 -60t-18 -64q-2 -23 2 -42t10.5 -35.5t13.5 -32t12 -31.5q5 -18 7.5 -40t2.5 -45.5t-2 -46.5t-6 -44q-9 -47 -37.5 -89t-67 -72.5t-82.5 -46
t-85.5 -9t-75 37t-50.5 93.5q-36 -4 -65 7t-51 27.5t-34.5 34t-15.5 25.5q6 -10 22 -25t38 -28t49 -21t57 -3q8 115 61 196t150 114q16 -47 5.5 -98.5t-38.5 -97.5t-70.5 -80.5t-91.5 -47.5q5 -27 16.5 -50t29.5 -39.5t43 -24t57 -3.5q31 4 59.5 22.5t52 45t39 59t21.5 64.5
q5 35 6.5 72.5t-6.5 75.5q-3 13 -13 23t-23.5 17.5t-27.5 11t-25 2.5q18 5 29.5 18.5t19.5 29.5q-1 49 20.5 106t57.5 105t81.5 78.5t93.5 25.5q14 -2 20.5 -11t7.5 -22.5t-2 -29t-6 -28.5q16 11 43 21t60 0q-18 1 -35 -2.5t-31 -9.5t-25.5 -14t-18.5 -15q-4 -20 -18 -50.5
t-36 -60t-50 -51t-59 -23.5zM0 141q45 12 80.5 38t58 61.5t31 77t-0.5 83.5q-85 -32 -125 -101.5t-44 -158.5zM412 500q44 20 67.5 56t43.5 84q-42 -27 -67.5 -58t-43.5 -82z" />
    <glyph glyph-name="T" unicode="T" horiz-adv-x="434" 
d="M290 -3q-45 20 -85 53t-74 68q-32 -8 -62 -6t-54 11.5t-40 24t-20 31t5.5 33.5t37.5 30q-27 -25 -24 -49t24 -41t54 -23t66 5q-21 21 -39 51t-29.5 64.5t-15 71.5t3.5 72t26.5 65t54.5 52q26 -24 50.5 -55.5t42.5 -67.5t26.5 -73t3.5 -72t-27 -65t-65 -51q24 -32 59 -57
t67 -44q-7 38 -4.5 88.5t8 98t12 84.5t7.5 49q2 24 -13.5 35.5t-34.5 19.5q25 2 49 15.5t43 33.5q23 46 45 91t40 96q-26 13 -60 30.5t-72 32.5t-77 23.5t-74 4.5q-26 -3 -50 -12.5t-42.5 -23t-30.5 -30t-15 -32.5q-3 -19 5 -29.5t20 -13.5t26.5 -0.5t25.5 10.5
q-18 -18 -42 -18.5t-42 11.5t-23.5 35t12.5 52q10 16 27 30.5t38 25.5t44.5 18.5t47.5 9.5q38 4 77 -4.5t77 -23t74 -32t69 -31.5q5 8 6.5 20.5t-0.5 18.5q20 -7 40.5 -2.5t40 11t37 10t31.5 -6.5q-12 -4 -24 -12.5t-22.5 -19.5t-18.5 -23t-13 -22q21 -11 56.5 -14.5t76 0
t82 15t74.5 31t54.5 47t21.5 64.5q11 -42 -5.5 -74.5t-49.5 -56t-78 -38t-91.5 -19.5t-89.5 -1t-73 17q-37 -55 -74.5 -132.5t-67 -162.5t-47.5 -169t-16 -153h-3zM136 142q43 17 63 44.5t24 59t-5.5 65t-25.5 63t-36 52t-37 33.5q-41 -28 -55 -69.5t-8.5 -86.5t27.5 -88
t53 -73z" />
    <glyph glyph-name="U" unicode="U" horiz-adv-x="509" 
d="M318 144q-12 -9 -36.5 -31t-55 -46t-63 -44.5t-59.5 -27.5q-24 -6 -40.5 2.5t-26.5 25t-14.5 38.5t-2.5 44q2 33 11 63t21 59t26.5 58t28.5 60q10 23 -1.5 34.5t-28.5 20.5q26 0 50 15.5t41 32.5q12 11 27.5 33t30.5 47t27 49.5t16 42.5q6 30 0.5 54t-19.5 37.5t-34 14
t-42 -18.5q6 -48 -6.5 -96t-41 -88t-69.5 -66.5t-92 -30.5q1 42 19 84.5t45.5 81t60.5 71t65 55.5q-3 9 -11 16t-17.5 11t-20 2.5t-18.5 -10.5q4 18 16 22t25.5 -0.5t25 -14.5t15.5 -20q16 13 36 17t38.5 0t34 -14t24.5 -26q22 -42 13.5 -91.5t-33.5 -104t-60 -111.5
t-66 -113.5t-50.5 -111t-14.5 -102.5q3 -27 19.5 -31.5t40 5t50.5 28.5t52.5 40t45 40.5t27.5 28.5q4 17 11.5 40.5t14 47t12 45t5.5 34.5q-3 28 -34 55q10 -2 23 2.5t25 11.5t22.5 16t15.5 18q13 25 26 56.5t25.5 65t24.5 67t23 62.5q18 1 41.5 11.5t48 20.5t48 12.5
t41.5 -13.5q-18 -2 -33 -11t-27 -21t-22 -25.5t-19 -26.5q-30 -44 -62 -99.5t-62.5 -115t-56.5 -120.5t-45.5 -116t-30.5 -100t-9 -73q14 4 40 21t49 41t36.5 50t1.5 48q19 -22 8 -51.5t-37 -58t-58.5 -51t-56.5 -29.5q-8 16 -10 36t-0.5 41t5 41t7.5 34zM159 698
q-63 -46 -104 -101.5t-55 -136.5q41 6 73 29t53 55.5t29.5 72.5t3.5 81z" />
    <glyph glyph-name="V" unicode="V" horiz-adv-x="621" 
d="M566 341q-27 -50 -63 -99t-79 -93t-91 -82t-100 -65q21 34 35 76.5t22 88t10.5 91t0.5 86.5q-3 27 -22 38.5t-45 17.5q6 2 17 7t21.5 11.5t19 14.5t11.5 15q1 20 2 55t-1 73.5t-8 75t-18.5 58.5t-31.5 23.5t-47 -28.5q9 -26 14 -62.5t3.5 -76t-9.5 -80t-25.5 -74.5
t-44.5 -59t-65 -34q-23 38 -23 92t15.5 110.5t45 108t67.5 85.5q-10 17 -23 23t-25 5t-22 -6.5t-15 -10.5q6 14 20.5 21t30.5 7t30.5 -7t20.5 -21q7 9 22 19.5t33 19t37 11t33 -5.5q20 -11 30.5 -46t13.5 -85t0 -111t-10.5 -123.5t-18 -123t-21.5 -109t-21 -81.5t-17 -41
q42 21 83 62t75 86t58 87t30 66q-18 51 -19 115t13.5 128t42.5 120.5t67 92.5q17 -33 22 -73t2 -83t-12.5 -86t-21 -82t-23.5 -71.5t-21 -53.5q15 -5 28.5 -1t23.5 14t15.5 23.5t5.5 26.5q4 -18 -1 -35t-16.5 -29t-27.5 -17t-33 1zM88 360q42 13 67.5 50.5t36.5 86.5t8 103
t-17 100q-27 -20 -52 -62t-41 -91.5t-18.5 -99.5t16.5 -87zM596 719q-27 -31 -45 -71t-26.5 -84t-6.5 -90.5t15 -89.5q13 25 26 68.5t22.5 91.5t14 95t0.5 80z" />
    <glyph glyph-name="W" unicode="W" horiz-adv-x="668" 
d="M677 394q-19 -30 -49.5 -59.5t-65 -60.5t-68.5 -64.5t-61.5 -71t-43.5 -79.5t-14 -91q-23 20 -31.5 52.5t-7 68.5t10.5 71.5t20 62.5q8 20 16.5 39t16.5 37q20 38 38 70.5t25 68.5q-23 -45 -57.5 -84.5t-72.5 -76t-76 -71.5t-69 -70.5t-51.5 -72.5t-23.5 -79
q-31 46 -35.5 97.5t4.5 101t26.5 92.5t29.5 70q6 17 -3 30.5t-24 24.5q26 -2 49.5 13.5t41.5 41t30 58t17 65.5t1.5 62t-17 48.5t-37.5 25t-61 -9.5q2 -26 -1 -69.5t-13 -88t-28 -81.5t-46 -51q-19 18 -25.5 44t-4 54t12.5 58t24 56.5t30.5 47.5t32.5 34q0 17 -5 27.5
t-11.5 16.5t-13.5 9t-11 6q16 -5 26 -10.5t15.5 -11t8.5 -12t6 -13.5q52 25 87.5 21.5t57 -26.5t29.5 -61t4 -81t-19 -86t-40 -77q-27 -37 -54.5 -79.5t-49 -87.5t-32.5 -91.5t-4 -91.5q23 46 59 85.5t76.5 76.5t80.5 73t71 76t49 85.5t14 101.5q27 -22 33.5 -48.5t0 -56.5
t-23 -63.5t-36 -69t-39 -73t-32 -75.5t-15 -77t12.5 -78q1 50 18.5 94t45 82t60.5 72t63.5 64t55.5 57t36 52q-24 43 -27.5 93.5t8.5 100.5t38.5 95.5t64.5 78.5q24 -26 35 -59t11.5 -70.5t-7 -76t-19.5 -74t-27.5 -66.5t-29.5 -52q12 -14 30 -14.5t31 7.5t15.5 22t-15.5 28
q26 -14 27 -32.5t-13.5 -31t-38.5 -13.5t-47 20zM53 452q19 13 32.5 39t21.5 59t11 70.5t3 72.5q-20 -15 -41 -47t-34 -68t-13.5 -70.5t20.5 -55.5zM693 742q-23 -23 -38 -58.5t-21.5 -75.5t-3 -80.5t17.5 -71.5q16 30 29 65t19.5 71.5t6.5 74.5t-10 75z" />
    <glyph glyph-name="X" unicode="X" horiz-adv-x="660" 
d="M574 106q19 -19 21.5 -41t-7 -42t-28 -35.5t-41 -22t-46.5 -1t-43 28.5q-22 26 -36.5 53.5t-24 58t-16 63.5t-12.5 70q-10 -20 -28.5 -49t-42 -60t-51.5 -61.5t-58.5 -53.5t-61.5 -35.5t-61 -8.5q-38 6 -58.5 26t-26 45t2 49.5t25.5 39.5q17 14 43 16.5t51 -21.5
q-25 8 -41.5 3.5t-26.5 -15.5t-14 -25t-5 -26q-1 -18 7.5 -35.5t25 -28t41 -10t56.5 18.5q17 9 38.5 28.5t44 45t44.5 54t40.5 56.5t32 52.5t19.5 42.5q-2 14 -4.5 29.5t-5.5 29.5q-3 2 -6.5 9t-9.5 15.5t-17.5 17t-31.5 13.5q23 5 41.5 14.5t30.5 32.5q3 15 6 42t5 59
t0.5 64t-7.5 57q-6 24 -19.5 35t-30.5 11.5t-35 -7.5t-33 -22q13 -21 19 -52t4 -65t-11.5 -67.5t-26.5 -60t-42.5 -42.5t-58.5 -15q-11 37 -7 79t18.5 83t35.5 77t44 61q-10 9 -23.5 12t-27 0.5t-26 -9.5t-19.5 -19q4 19 17 30.5t30 15.5t34.5 -0.5t29.5 -16.5
q10 10 25.5 20.5t34 18.5t38.5 12t39 2q16 -2 28.5 -12.5t18.5 -21.5q16 -32 18.5 -76t-1 -90.5t-8.5 -92t-3 -80.5q23 39 57 88.5t75.5 102.5t88.5 105t96 96q17 15 40 26.5t46 15.5t43.5 -3t32.5 -29q4 -9 4.5 -20.5t-4 -22.5t-13 -19.5t-21.5 -11.5q12 9 17.5 27t-5.5 39
q-15 14 -32 17.5t-34.5 -0.5t-34 -14t-30.5 -22q-47 -42 -93 -92.5t-88.5 -106.5t-81 -115t-69.5 -116q2 -37 4.5 -76.5t8.5 -78.5t15.5 -76t24.5 -69q11 -21 28.5 -28.5t36 -4.5t36 15t28 28t11.5 35.5t-13 38.5zM127 426q37 -2 61 24t33.5 64.5t5.5 82t-22 77.5
q-24 -23 -41 -53t-27 -63t-12.5 -67t2.5 -65z" />
    <glyph glyph-name="Y" unicode="Y" horiz-adv-x="532" 
d="M79 21q4 -6 13 -6q17 0 46.5 17.5t64 46.5t70 65t64 72.5t47 70.5t18.5 58q-2 16 -6.5 25.5t-10 14.5t-11.5 8t-12 7q39 3 55 17t27 31q20 29 37.5 60.5t30.5 63t20.5 61.5t7.5 54q10 -2 15 -2q19 0 39 8.5t40 19t39.5 19.5t39.5 9h6.5t6.5 -1q-43 -35 -82.5 -93.5
t-77 -130.5t-73.5 -153t-71.5 -161.5t-71 -155.5t-71.5 -134q12 -5 26.5 -14.5t31 -19t35.5 -16.5t40 -7q23 0 33.5 7.5t10.5 18.5q0 10 -8.5 18.5t-22.5 8.5q-10 0 -18 -4q17 10 35 10q19 0 32 -10t13 -23q0 -12 -7.5 -20t-18.5 -13.5t-23 -8t-20 -2.5q-24 0 -48.5 8.5
t-46 19.5t-37.5 20.5t-21 11.5q-41 -54 -78 -101.5t-70 -82.5t-62.5 -55t-56.5 -20q-24 0 -42 12t-30.5 31.5t-19 45t-6.5 52.5q0 47 16 82.5t43.5 59t63 35.5t74.5 12q73 0 144 -38q32 53 60.5 128t52.5 152q-10 -15 -29 -36.5t-43.5 -45t-51 -46.5t-52 -41t-46.5 -29.5
t-34 -11.5q-35 0 -50 22t-15 50q0 40 7 74.5t18.5 67t25 64.5t26.5 67q0 18 -11.5 32.5t-28.5 22.5q21 0 48 12.5t41 35.5q31 49 56 107t25 120q0 28 -8.5 38.5t-22.5 10.5t-30 -7.5t-32 -16.5q-1 -3 -2.5 -24t-7 -52.5t-17 -72t-32 -83t-52 -84.5t-76.5 -77q-10 1 -20 26
t-10 54q0 46 18 93t46 89.5t62.5 78.5t67.5 62q0 31 -14.5 46t-40.5 18h10q51 0 63 -46l2 -9q17 8 33 15.5t33 7.5q50 0 70.5 -21.5t20.5 -59.5t-16.5 -87.5t-42 -105.5t-54.5 -115t-54.5 -114t-42 -104t-16.5 -84q0 -18 4 -30zM125 684q-27 -17 -57 -48t-55.5 -68.5
t-42 -78t-16.5 -75.5q0 -33 17 -56q35 27 62.5 65.5t47 82.5t30.5 90t14 88zM231 -85q-35 18 -65 26t-56 8q-42 0 -72.5 -18.5t-50.5 -47t-29.5 -63t-9.5 -66.5q0 -40 14.5 -68.5t41.5 -28.5q19 0 47.5 23.5t60 60.5t63 83t56.5 91z" />
    <glyph glyph-name="Z" unicode="Z" horiz-adv-x="553" 
d="M693 -9q12 -39 3.5 -63t-27 -36.5t-40.5 -16.5t-36 -2q-45 6 -81.5 39t-72 75t-72 83.5t-81.5 64.5q-18 -18 -45.5 -40t-62 -42.5t-75 -38t-84 -26.5t-88.5 -7.5t-88 19.5q26 68 76 109.5t108.5 60.5t118 18t104.5 -19q14 15 33 34.5t38 42.5t35.5 48t25.5 50
q4 23 -9 34.5t-31 21.5q30 0 58.5 13.5t55.5 36.5t54.5 53t51.5 61.5t44 62t33 54.5q-64 -13 -121 -8.5t-107.5 15t-95.5 21t-85 9.5q-22 -1 -44.5 -4.5t-42 -13.5t-33.5 -28.5t-18 -48.5q-3 -21 5.5 -34.5t22 -19.5t28.5 -5t24.5 9t10.5 22t-14 34q22 -7 31 -18.5t10 -23.5
t-4 -22.5t-12 -15.5q-25 -18 -48.5 -18t-41 12t-27.5 33t-9.5 45t14 48t42.5 42q40 24 84.5 26.5t90.5 -5.5t92 -21t89 -19q23 -3 47 -4t50.5 2.5t56.5 11.5t65 22q13 5 29 6.5t31.5 0t29.5 -5.5t23 -11q-21 1 -44 -14t-48.5 -43t-53.5 -66t-58 -81q-66 -94 -139.5 -186
t-168.5 -177q36 -16 68 -49t63.5 -68t64.5 -66t69 -42q19 -6 41 -5t40.5 9t31.5 24.5t15 40.5zM235 157q-31 14 -79.5 16t-98 -12.5t-91 -48t-58.5 -90.5q40 -18 83.5 -13t86 25.5t83 53t74.5 69.5z" />
    <glyph glyph-name="bracketleft" unicode="[" horiz-adv-x="337" 
d="M84 -182q0 1 0.5 3t0.5 10.5t-0.5 27t-1.5 52.5q-3 66 -6.5 141.5t-8 150.5t-10.5 144.5t-13 122.5t-16 85t-19 33q7 24 19.5 34t25.5 17.5t24 19t14 38.5q6 -18 21.5 -26t36 -10.5t44.5 -3t47 -2.5t43.5 -8.5t33.5 -22.5q-31 10 -55.5 4.5t-48 -16t-48.5 -21t-56 -10.5
q9 -80 11.5 -164.5t1 -170t-6.5 -171.5t-11 -168q20 -9 41.5 -4t45.5 7.5t51 -6t58 -44.5q-35 16 -63 9t-53 -20.5t-49.5 -25.5t-52.5 -5z" />
    <glyph glyph-name="backslash" unicode="\" horiz-adv-x="405" 
d="M365 0q-24 56 -56.5 127.5t-67.5 145t-70.5 142t-65.5 120.5t-51.5 81t-28.5 21q-2 21 6.5 36.5t19 30.5t17.5 32t2 41q92 -183 163.5 -378t131.5 -399z" />
    <glyph glyph-name="bracketright" unicode="]" horiz-adv-x="334" 
d="M245 -182q-28 -7 -52.5 5t-49.5 25.5t-53 20.5t-63 -9q31 36 58 44.5t51 6t45.5 -7.5t41.5 4q-6 82 -11 168t-6.5 171.5t1 170t11.5 164.5q-32 0 -56.5 10.5t-48 21t-48 16t-55.5 -4.5q13 16 33.5 22.5t43.5 8.5t47 2.5t44.5 3t36 10.5t21.5 26q3 -27 14 -38.5t24 -19
t25.5 -17.5t19.5 -34q-10 -1 -19 -33t-16 -85t-13 -122.5t-10.5 -144.5t-8 -150.5t-6.5 -141.5q-1 -34 -1.5 -52.5t-0.5 -27t0.5 -10.5t0.5 -3z" />
    <glyph glyph-name="asciicircum" unicode="^" 
d="M434 518q-35 9 -67 26t-60.5 39.5t-53.5 48.5t-46 52q-18 -7 -42.5 -32t-51.5 -52.5t-55.5 -50t-53.5 -24.5q15 10 19 24.5t5 30t3 29.5t12 22q3 -10 15 -9.5t29 7.5t36 20t36 28.5t30 32.5t17 33q9 -23 34.5 -57.5t58 -68t68.5 -61.5t67 -38z" />
    <glyph glyph-name="underscore" unicode="_" horiz-adv-x="654" 
d="M599 -240q-44 -2 -94.5 2.5t-104 11l-107 13t-102.5 9t-92 -1.5t-74 -18q27 25 77 36t111 14t126.5 2t124 0.5t102.5 8t62 25.5q-1 -12 -10 -25t-17.5 -26t-11 -26t9.5 -25z" />
    <glyph glyph-name="grave" unicode="`" horiz-adv-x="172" 
d="M131 594q-11 10 -24.5 22.5t-28 23t-28.5 17.5t-26 6q6 10 5.5 18.5t-3 17t-3.5 17t5 17.5q34 -25 64 -60.5t39 -78.5z" />
    <glyph glyph-name="a" unicode="a" horiz-adv-x="407" 
d="M226 92q-13 -12 -29.5 -27.5t-35 -29.5t-38 -23.5t-37.5 -9.5t-29.5 15.5t-18 38.5t-8.5 49.5t-2 48.5q0 15 0.5 26t1.5 17q0 12 -5 22t-19 21q23 1 35 12.5t18 23.5q11 24 28 54.5t39 61.5t48.5 59t56.5 46q45 -8 76.5 -43.5t31.5 -93.5q14 30 27 51t11 38q12 1 24 6
t23.5 10t23.5 9t24 4q7 0 11 -1t12 -5q-17 -11 -40 -39.5t-48.5 -67.5t-51 -84.5t-46.5 -92t-35.5 -89.5t-18.5 -76q11 -2 29 14.5t34 42.5q-6 -14 -15.5 -28.5t-20 -25.5t-20.5 -18t-17 -7q-8 4 -12.5 15t-6 25t-1 28t0.5 23zM236 126q13 35 25.5 72t29.5 69q-11 -4 -21 -4
q-25 0 -37.5 19t-12.5 42q0 26 14.5 45t43.5 19q-19 -2 -29.5 -22t-10.5 -40q0 -17 8 -30t26 -13q20 0 33 24t13 59q0 15 -3 31t-9 29.5t-16 23t-24 11.5q-10 -1 -25.5 -16.5t-33 -39.5t-35.5 -54.5t-34 -62.5t-28 -64t-17 -58q-8 -38 -8 -77q0 -9 1 -22t3 -25t5 -20.5
t7 -8.5q12 0 33 14.5t42 33.5t38 37.5t22 27.5z" />
    <glyph glyph-name="b" unicode="b" horiz-adv-x="325" 
d="M165 377l24 21t35 28.5t37.5 26t32.5 12.5q18 -9 28 -27t13.5 -39.5t1.5 -44.5t-6 -43q-9 -45 -25.5 -87t-39 -78.5t-49.5 -68t-56 -55.5q-11 -9 -26 -17t-23 -10q-27 -4 -43 7.5t-24.5 31t-12 42.5t-5.5 43q-11 -19 -22.5 -49.5t-12.5 -68.5q-15 44 -8 90.5t23 93.5
q7 20 18 45.5t13 44.5q2 12 -1 20t-11 20q17 0 30 9.5t24 20.5q24 33 49.5 77.5t47 91t35.5 90t16 74.5q21 -2 40 9.5t37.5 25t38.5 23t43 4.5q-13 -5 -27.5 -22t-29.5 -39.5t-29 -47t-25 -45.5q-29 -53 -56 -106.5t-55 -102.5zM224 168q12 27 24 59.5t18.5 66.5t5 67
t-16.5 62q-15 -7 -34.5 -20.5t-38 -30.5t-32.5 -36t-19 -38q-5 -20 1.5 -38t23.5 -18q11 0 21 6.5t18 17.5q12 18 12.5 32t-5.5 20.5t-16 3.5t-19 -21q-2 13 6 22.5t18.5 12t20.5 -2.5t12 -20q2 -12 -3.5 -27t-15.5 -28.5t-22.5 -23t-24.5 -9.5q-19 -1 -34 16.5t-8 50.5
q-19 -24 -34 -53.5t-29 -64.5q-5 -20 -6.5 -49t5 -55t21.5 -42.5t43 -9.5q35 23 61 63t47 87z" />
    <glyph glyph-name="c" unicode="c" horiz-adv-x="260" 
d="M259 153q-17 -33 -39 -59.5t-47 -45t-51.5 -29t-50.5 -11.5q-33 0 -47.5 21t-18 51t-0.5 63.5t4 58.5q0 17 -6.5 25t-17.5 16q17 4 32.5 14t27.5 22q3 3 20.5 29.5t44 59.5t59.5 63.5t67 42.5q17 -6 30 -17.5t22 -27t13.5 -33t4.5 -34.5q1 -26 -13.5 -47.5t-31.5 -26.5
q-12 -3 -21 2t-12.5 13t0 17t18.5 14q-9 -8 -10 -15t2.5 -12t11 -6.5t15.5 3.5q12 7 19 26t6 41t-10 40.5t-28 23.5q-32 -17 -62.5 -54t-56 -83t-43.5 -95t-26 -89.5t-3.5 -66t24.5 -24.5q17 -1 42 12t50.5 32.5t47.5 42.5t34 43z" />
    <glyph glyph-name="d" unicode="d" horiz-adv-x="386" 
d="M333 115q-35 -62 -63.5 -88.5t-43.5 -31.5q-11 3 -16.5 15t-7.5 26t-1.5 28.5t1.5 23.5q-11 -12 -24.5 -27t-29.5 -28t-34.5 -21.5t-37.5 -8.5q-27 1 -41 25t-20 56t-7.5 63.5t-2.5 47.5q-1 10 -6 22t-17 21q21 2 34 11.5t23 24.5q2 5 8 19.5t15.5 34.5t23 42t30 41.5
t35.5 33t41 16.5q15 -6 28.5 -19t24.5 -30t19 -36.5t11 -38.5q15 48 38 103t44.5 103.5t36.5 84t12 44.5q16 -1 33 6t33.5 16t33 17t30.5 8q19 0 32 -17q-23 4 -50.5 -24t-56 -74.5t-56.5 -104.5t-52.5 -114.5t-43 -104.5t-28.5 -73q-17 -45 -32 -91t-21 -96q0 -4 3 -4
q9 0 38 25.5t64 73.5zM79 20q15 0 33.5 10.5t36.5 26t32.5 32.5t22.5 30q10 40 23.5 77.5t26.5 71.5q-15 -17 -32 -23t-32 -2t-24.5 17.5t-9.5 35.5q0 19 5.5 32.5t13.5 22.5t17.5 13.5t17.5 4.5q7 0 13.5 -4.5t8.5 -12t-2 -18t-17 -22.5q11 22 6 31t-15 6.5t-20 -16
t-10 -37.5q0 -18 7 -29t21 -11q13 0 23.5 7t18 18t11.5 24t4 25q0 32 -17 57.5t-34 36.5q-33 -22 -60.5 -61.5t-47.5 -87t-31 -98t-11 -93.5v-20t2 -21t6.5 -16.5t12.5 -6.5z" />
    <glyph glyph-name="e" unicode="e" horiz-adv-x="281" 
d="M234 93q-8 -18 -22 -35.5t-31.5 -30.5t-37 -20.5t-38.5 -6.5q-50 8 -76.5 54t-20.5 140q-3 30 -26 44q6 -1 23.5 5t32.5 27q4 4 14.5 19.5t26.5 37t37 45t45.5 44t52 35t56.5 16.5q20 -11 27 -29t5 -38q-8 -59 -36 -102t-63.5 -72t-71.5 -44t-59 -17q-6 -14 -10.5 -34.5
t-3.5 -36.5q2 -36 16.5 -54t38.5 -22q34 -1 64.5 21.5t56.5 53.5zM79 187q35 2 73.5 25.5t65.5 54.5q22 25 37.5 53t22 53t2 43.5t-20.5 25.5q-25 -5 -51.5 -33t-51 -66.5t-45 -81t-32.5 -74.5z" />
    <glyph glyph-name="f" unicode="f" horiz-adv-x="302" 
d="M-200 -200q-15 19 -15.5 50.5t20 66.5t63.5 68.5t115 56.5q9 26 22.5 50.5t19.5 40.5q-23 -8 -45 -13.5t-52 -5.5q13 2 30 7t33 11.5t28.5 13t16.5 11.5q5 10 10 25.5t8 23.5q-2 10 -6.5 16.5t-9.5 11t-11 7.5t-12 7q24 2 40.5 12t29.5 26q35 58 77.5 126t88 129t92 105
t88.5 53q16 -50 6 -104t-36.5 -107.5t-65.5 -103.5t-80.5 -92.5t-81.5 -75t-69 -49.5q-12 -26 -29.5 -59t-26.5 -61q44 -10 63.5 -43t19 -76.5t-18.5 -92.5t-48.5 -93t-71.5 -77.5t-87 -44.5q-2 16 -3 32t-1 32q0 48 6 91t15 83t20.5 76t23.5 71q-41 -15 -75.5 -37
t-57.5 -48.5t-32.5 -57t-0.5 -62.5zM37 19q-19 -54 -39 -99t-37 -88.5t-28 -88.5t-12 -99q33 13 65 44.5t57.5 71.5t42 83.5t18.5 80.5t-13.5 63t-53.5 32zM258 442q-36 -60 -73 -119.5t-64 -124.5q28 20 62.5 50t70 67t68 78.5t56.5 85.5t36.5 89t8.5 87
q-48 -42 -89.5 -99.5t-75.5 -113.5z" />
    <glyph glyph-name="g" unicode="g" horiz-adv-x="396" 
d="M100 -349q-88 31 -139 85.5t-51 119.5q0 35 23 62.5t60.5 45.5t86 26.5t98.5 6.5q20 36 36.5 70t31.5 59q-8 -10 -29.5 -29.5t-47.5 -39.5t-51.5 -35t-39.5 -15q-34 0 -48 21.5t-14 51.5t5.5 63.5t7.5 52.5q0 23 -11.5 31t-19.5 13q18 4 32.5 13.5t21.5 20.5
q9 13 27.5 43t43.5 63.5t55 63t62 42.5q20 0 36 -12t28.5 -30t20.5 -40.5t11 -43.5q5 20 14.5 42t9.5 40q0 12 -6 20q2 -1 8 -1q12 0 26.5 5t28.5 10.5t28 10.5t25 5q8 0 15 -4q-11 -8 -38.5 -52t-65.5 -113t-82.5 -157t-87.5 -183q34 -6 82.5 -26t100.5 -41t102 -38t86 -17
q28 0 47 9t19 31q0 14 -7.5 19.5t-17.5 5.5q-16 0 -27 -9q6 11 15 16t18 5q16 0 28.5 -10.5t12.5 -27.5t-8.5 -27.5t-21.5 -16.5t-27 -8.5t-26 -2.5q-43 0 -93.5 15.5t-102.5 35.5t-101.5 39t-90.5 27q-20 -34 -37 -68.5t-30.5 -72t-21.5 -79.5t-10 -91zM84 -322
q1 52 6 90.5t15 72t24.5 64.5t35.5 68q-28 5 -65 0.5t-70.5 -19.5t-57.5 -40.5t-26 -61.5q-2 -35 8.5 -61.5t30 -46.5t45 -36t54.5 -30zM258 172q3 4 7.5 14t10 22t11 23.5t8.5 19.5q-18 -15 -41 -15q-20 0 -37.5 13.5t-17.5 37.5q0 27 14 40.5t29 13.5q13 0 21.5 -9
t8.5 -29q-9 22 -24 22q-10 0 -18 -10.5t-8 -26.5q0 -14 7 -25t23 -11q15 0 27.5 9t21 23.5t13 32.5t4.5 37q0 15 -4.5 32.5t-12.5 32.5t-18.5 25t-21.5 10q-21 0 -42 -23.5t-40 -55.5t-33.5 -64.5t-21.5 -50.5q-6 -16 -15.5 -42t-18.5 -54.5t-15.5 -57t-6.5 -48.5
q0 -11 2.5 -19.5t8.5 -11.5q13 0 38 16.5t52.5 40t52 48t36.5 40.5z" />
    <glyph glyph-name="h" unicode="h" horiz-adv-x="387" 
d="M27 -6q-20 31 -20 71q0 30 8 60.5t17 58.5t17 51.5t8 40.5q0 11 -9 23.5t-23 15.5q14 2 28 8t31 23q2 1 14 17.5t29.5 44t37.5 62t38 72t32 74.5t19 69q28 -1 51 9t44.5 22.5t44.5 22t50 7.5q-28 -11 -54 -37t-50 -59t-46.5 -71t-43.5 -73q-38 -65 -73 -134.5t-70 -141.5
q30 34 64.5 76t72.5 78.5t78 61t81 24.5q27 0 27 -30q0 -14 -6.5 -33t-16 -39t-20 -39t-18.5 -33q-6 -11 -19.5 -33t-30 -49t-34 -56.5t-31.5 -56t-23 -47.5t-9 -30q0 -8 5 -6q11 2 26.5 16t32.5 33.5t34 42t31 41.5q-6 -12 -21 -37t-33.5 -50.5t-38.5 -44.5t-35 -19
q-10 0 -15.5 13t-5.5 32q0 30 11 64.5t25 60.5q11 21 26 47.5t31 54.5t31 55.5t27.5 50.5t20 39t7.5 21t-5 5q-23 0 -48.5 -14.5t-50.5 -35.5t-48 -46t-42 -47q-29 -34 -57 -67t-50.5 -69t-37 -77.5t-15.5 -92.5z" />
    <glyph glyph-name="i" unicode="i" horiz-adv-x="210" 
d="M235 559q-12 -1 -19.5 5t-9.5 15.5t2 20.5t15 20q-11 15 -9 32.5t13.5 32.5t28.5 24t36 6q-16 -3 -29 -11t-21 -19.5t-10 -26t5 -29.5q4 6 20 15t35.5 14t38.5 2t30 -21q-1 -16 -18 -26t-39 -14.5t-43 -2.5t-30 10q-5 -3 -9 -10.5t-5 -15.5t3 -14t15 -7zM246 616
q15 -6 32 -6q20 0 31.5 7t20.5 19q-6 8 -16 9.5t-21.5 -2.5t-24 -11t-22.5 -16zM85 74q-16 -36 -37.5 -51t-34.5 -15q-17 19 -17.5 43.5t6 50t14.5 49.5t8 42q0 13 -5 24t-18 20q20 7 35 16.5t27 20.5q17 15 33.5 40t30.5 51t24.5 49t14.5 35q15 -2 32 4t33.5 13t32 11
t27.5 -1q-14 -8 -29 -26t-30.5 -41t-31 -48t-29.5 -46q-21 -31 -49 -73.5t-51 -84t-36.5 -76t-4.5 -48.5q8 -2 22 6.5t33 34.5z" />
    <glyph glyph-name="j" unicode="j" horiz-adv-x="209" 
d="M-40 -9q8 19 20.5 41.5t25 47t23 49t14.5 47.5q5 17 -6 28t-22 14q22 5 36.5 18t19.5 21q34 38 55 91t25 110q13 4 27.5 12.5t31 16t33.5 11.5t35 -1q-15 -7 -34 -42.5t-40.5 -84t-43 -100.5t-40.5 -92q-20 -44 -47 -96.5t-46 -97.5q21 -5 41 -18.5t40.5 -27t42.5 -23.5
t47 -9q15 1 29.5 6.5t25 14.5t16.5 20.5t4 25.5q7 -16 3.5 -30t-12.5 -24.5t-21.5 -17.5t-24.5 -9q-33 -6 -59.5 3.5t-50.5 24.5t-46.5 29.5t-46.5 18.5q-33 -51 -64.5 -104.5t-70 -101t-88 -84.5t-118.5 -56q-11 79 11.5 148.5t65 120t98 77.5t111.5 23zM-307 -356
q42 13 79 51t69 86t59 99.5t48 92.5q-47 -1 -93.5 -26t-83 -69t-58.5 -104t-20 -130zM232 560q-12 -2 -20 3t-11 14.5t0.5 20.5t13.5 21q-12 14 -11 32t10.5 33.5t26 26t35.5 9.5q-15 -4 -27.5 -13.5t-19.5 -21.5t-8 -26.5t7 -28.5q4 6 19 16t34 16.5t38.5 5t31.5 -18.5
q0 -16 -16 -27.5t-37.5 -17.5t-42.5 -5.5t-31 7.5q-5 -4 -8 -11.5t-3 -15.5t4 -13.5t15 -5.5zM238 617q16 -5 33 -3q20 2 38 10.5t26 21.5q-6 8 -18.5 8t-26.5 -5t-28 -14t-24 -18z" />
    <glyph glyph-name="k" unicode="k" horiz-adv-x="344" 
d="M59 274q9 33 -32 41q14 2 29.5 10.5t26.5 20.5q10 19 22.5 41t21.5 39q-17 2 -26 14.5t-9 26.5t9 26.5t26 15.5q-8 -7 -14.5 -17t-4.5 -25q1 -11 8 -19t21 -10q32 49 71 108.5t81.5 112.5t86.5 92.5t86 50.5q7 -47 -16 -103t-62 -109t-87 -97t-92 -67q-5 -6 -8 -12
t-8 -14q19 13 43 29.5t51 30t55.5 21.5t55.5 5q-5 -42 -32.5 -87t-63 -83.5t-70 -65.5t-52.5 -34q14 -17 29.5 -41.5t31.5 -51.5t33.5 -53.5t36 -46.5t39.5 -31.5t44 -8.5q-37 -16 -65.5 -8.5t-51 29t-39.5 51.5t-31.5 60t-26.5 55t-24 36q-11 -8 -29.5 -9t-28.5 3
q-8 -22 -17 -49.5t-15.5 -55.5t-8.5 -52.5t4 -39.5q-16 12 -22 35.5t-6.5 52t3.5 59t9.5 56t10.5 44.5t7 24zM100 215q9 -4 24 -2t20 7q-1 5 -5.5 8t-10.5 4t-12 0.5t-9 -1.5q-2 -5 -3.5 -8t-3.5 -8zM164 229q20 12 47 39t52 60t43 67t21 60q-17 -4 -38 -13.5t-42.5 -22.5
t-41 -28t-33.5 -28q-15 -22 -31 -53.5t-29 -63.5q16 2 30 -3t22 -14zM442 767q-19 -16 -42 -42.5t-46 -58.5t-45 -66t-41 -64.5t-33 -54.5t-21 -35q12 5 34 23t47.5 44.5t52 59.5t47.5 67t34 67t13 60z" />
    <glyph glyph-name="l" unicode="l" horiz-adv-x="205" 
d="M151 100q-17 -37 -42.5 -66t-54.5 -37q-6 3 -10.5 18t-7 33.5t-3.5 36.5t-1 29q-15 -13 -29.5 -22t-32.5 -19q21 17 35.5 29.5t27.5 32.5q0 16 1.5 36.5t3.5 41t4 37t3 24.5q-3 14 -16 25.5t-25 17.5q10 2 26.5 10t24.5 19q17 34 41.5 77t52 87.5t57 88t57.5 79t52 60.5
t42 33q-4 -64 -27.5 -144t-62 -164t-90 -166.5t-111.5 -152.5q-2 -8 -4 -23t-3 -33t-1.5 -37.5t1.5 -35.5q19 8 32.5 17t23.5 19.5t18.5 22.5t17.5 26zM325 668q-37 -55 -74 -110.5t-70 -115t-60.5 -124.5t-46.5 -139q11 12 31 38t44 62.5t50 81.5t50 95.5t44 104t32 107.5z
" />
    <glyph glyph-name="m" unicode="m" horiz-adv-x="594" 
d="M300 223q19 25 51 60.5t71 72.5t83.5 71t88.5 56q15 7 33.5 13t37 10t36 5t30.5 0q-5 -2 -26 -23t-51 -54.5t-64.5 -77t-66.5 -89.5t-58 -92.5t-38.5 -86.5t-8 -70t33.5 -45q-38 9 -54.5 32.5t-16.5 56.5t13.5 72t34.5 80t46.5 81t50.5 74.5t45.5 60t31.5 38.5
q-18 -5 -53 -28t-77 -59.5t-86.5 -82.5t-82 -95.5t-64 -100.5t-31.5 -97q-12 61 5 122t46.5 120t64.5 115t61 107q-33 -19 -62 -42t-56 -48.5t-53.5 -52.5t-55.5 -55q-27 -26 -53.5 -56t-46 -63.5t-28 -72t0.5 -80.5q-13 15 -20 41.5t-8.5 56t1 57.5t8.5 46q-2 16 -15 25
t-30 14q20 0 37 12t28 24q13 13 33 41.5t39 61t33.5 63.5t16.5 49q21 -1 39.5 5.5t36 15t35.5 15t39 5.5q-22 -14 -50.5 -47t-58.5 -76.5t-59.5 -92.5t-53.5 -94q14 12 41 41t62.5 64.5t77 73t83.5 66.5t83 44.5t75 8.5q-9 -5 -24 -22t-33 -41.5t-38 -54.5t-40 -61.5
t-38 -61.5t-32 -55z" />
    <glyph glyph-name="n" unicode="n" horiz-adv-x="428" 
d="M223 -3q-8 2 -9.5 15.5t-1.5 24.5q0 56 21 111.5t52.5 110.5t67 110t65.5 111q-27 -11 -58.5 -34.5t-64.5 -54t-66 -64t-62 -63.5q-27 -31 -53.5 -65t-47.5 -68t-33 -67.5t-10 -63.5q-9 15 -12.5 32t-3.5 35q0 38 10 73t16 55q-9 23 -14 29t-15 13q48 0 79 37
q8 13 21 33.5t25.5 43.5t21.5 46.5t9 41.5q0 14 -7 24q2 0 5 -0.5t5 -0.5q18 0 34 5.5t30.5 11.5t28.5 11.5t29 5.5q9 0 14 -1q-22 -15 -40.5 -41t-35 -56.5t-31.5 -62t-31 -58.5q26 30 63.5 72t81 81t90.5 65.5t92 25.5q11 0 8 -13.5t-12 -30t-19.5 -31.5t-13.5 -20
q-32 -48 -68 -97t-67.5 -99t-54.5 -103t-30 -109q1 -3 4 -3q7 0 21 11t30 27.5t31.5 35t25.5 34.5q-11 -27 -26.5 -50t-32.5 -40t-33.5 -26.5t-27.5 -9.5z" />
    <glyph glyph-name="o" unicode="o" horiz-adv-x="333" 
d="M263 190q-12 -22 -35 -55.5t-51 -65.5t-58.5 -55.5t-57.5 -24.5q-24 2 -36.5 22.5t-16.5 44.5q-2 14 -2.5 32.5t0 36.5t1.5 32.5t2 19.5q1 18 -10.5 26.5t-25.5 12.5q14 2 30.5 14t27.5 29q7 13 22.5 36t35 50.5t42 56.5t45.5 53q13 13 33.5 30.5t41.5 27.5t38.5 7.5
t23.5 -29.5q-14 12 -35 -1t-44 -40.5t-46 -63t-40 -66.5q-27 -51 -48 -102.5t-32 -93.5t-9.5 -71t19.5 -36q17 1 42.5 23.5t50.5 52t46 60t30 47.5q-23 27 -23.5 70.5t14.5 86.5t42 77t57 43q17 -33 12.5 -74t-19 -80t-32 -71t-26.5 -46q3 -2 9.5 -0.5t14 5t15 8.5t11.5 11
q-8 -21 -28 -31t-31 -9zM317 415q-21 -6 -37.5 -31t-26 -57t-10 -63t11.5 -49q9 14 22 39t24 53.5t16.5 57t-0.5 50.5z" />
    <glyph glyph-name="p" unicode="p" horiz-adv-x="432" 
d="M338 512q-16 -9 -30.5 -23.5t-28 -32.5t-25 -37.5t-21.5 -38.5q12 7 35.5 25t49 37.5t49 37.5t35.5 27q5 -29 15 -62t10 -64q0 -45 -14.5 -88.5t-38 -83t-53.5 -73t-61 -57.5t-60.5 -38t-51.5 -14q-20 0 -31 9.5t-17 24.5t-9 33.5t-6 36.5q-22 -42 -42 -80t-40 -85
q49 -20 68 -47t19 -55q0 -30 -19 -60.5t-47.5 -58t-61 -50t-59.5 -34.5q-4 23 -4 52q0 64 16 126t33 113q-4 0 -7.5 0.5t-7.5 0.5q-47 0 -92 -18t-91.5 -39t-96 -39t-106.5 -18q-42 0 -66 18.5t-24 42.5q0 25 20.5 45t49.5 20q28 0 54 -23q-15 6 -34 6q-24 0 -45 -11.5
t-21 -33.5q0 -12 8.5 -20.5t20 -13.5t24 -7.5t20.5 -2.5q42 0 88.5 18t95 39.5t97 39.5t94.5 18q15 0 30 -3q17 50 41 107.5t40 114.5q-1 24 -11.5 32.5t-25.5 13.5q39 10 70 37t55 61t40.5 71t24.5 67q4 -1 11 -1q17 0 32 6t30 13.5t29.5 13.5t29.5 6h6.5t6.5 -1zM-12 -53
q-30 -80 -53.5 -144t-23.5 -109q0 -11 1 -16q21 12 47 31.5t49 43.5t38.5 51.5t15.5 55.5q0 30 -23.5 54t-50.5 33zM144 42q23 2 48 19t49.5 43.5t46.5 60t38.5 68t26.5 68t10 60.5q0 37 -12 78q-34 -18 -67 -42t-56 -60q-8 -15 -12.5 -30.5t-4.5 -28t4.5 -20.5t14.5 -8
q5 0 18.5 6.5t27 18t24 27.5t10.5 34q0 9 -4.5 12.5t-10.5 3.5q-9 0 -19 -6.5t-12 -16.5q-2 6 -2 9q0 12 12.5 20t26.5 6q28 -5 28.5 -25t-14.5 -42.5t-40 -41.5t-48 -20q-21 -2 -29.5 8t-10 23.5t1.5 26.5t6 17q-27 -35 -49.5 -71.5t-45.5 -74.5q0 -1 -0.5 -3t-0.5 -5
q0 -12 2 -31t7.5 -37.5t14 -32t21.5 -13.5z" />
    <glyph glyph-name="q" unicode="q" horiz-adv-x="437" 
d="M124 -357q-14 35 -13 74.5t9 78t21 72.5t24 58q-22 -14 -53.5 -32.5t-67.5 -34.5t-72 -27t-65 -10.5t-48.5 15t-22.5 49.5q-2 26 16 46.5t49 20.5q16 0 38 -8q-9 4 -22 4q-25 0 -45 -17t-20 -42q-1 -29 14 -39.5t40 -12.5q21 -1 47.5 6t54.5 19t55.5 26t50.5 27t39.5 23
t21.5 13q14 38 32.5 77t31.5 66q-10 -8 -32 -23.5t-47 -31t-48 -27.5t-35 -12q-4 0 -5 1q-11 7 -17 14.5t-10 17.5t-5 23.5t-1 33.5q0 26 2 54t4 50q-4 17 -12 27.5t-26 14.5q22 8 33 18.5t18 18.5q13 15 34 45.5t49 64t62.5 66t73.5 52.5q35 -25 56 -62t32 -86q3 5 8.5 19
t11 32t9 37t1.5 33q13 -7 29.5 -0.5t33.5 14t33 9t28 -16.5q-7 0 -13.5 -4.5t-16 -18t-23.5 -38.5t-36 -66q-35 -60 -68.5 -124.5t-60.5 -119t-45.5 -92t-23.5 -44.5q14 5 34 5q19 0 37.5 -6t33 -18t23.5 -29.5t9 -39.5q0 -31 -17 -52t-43 -36.5t-57 -29t-58 -30t-47 -39
t-23 -56.5zM224 -48q-12 -23 -27.5 -53.5t-29.5 -64t-23.5 -67t-10.5 -62.5q19 28 41.5 45.5t45 29t44 19.5t38 18t27 24.5t12.5 37.5q2 33 -20 58t-56 25q-21 0 -41 -10zM252 134q5 5 11.5 16t13 24.5l13 27t10.5 22.5q-12 -6 -28 -6q-23 0 -39 12t-16 35q0 10 5.5 23
t14.5 23.5t20.5 18t23.5 7.5q15 0 22.5 -9t7.5 -23q0 -12 -7 -23.5t-21 -16.5q9 9 12.5 17t3.5 15q0 20 -20 20q-4 0 -12 -3.5t-15.5 -10.5t-13 -16.5t-5.5 -22.5q0 -14 9 -23t25 -9q13 0 26.5 8.5t25 22.5t19.5 32t10 37q-2 41 -18 72.5t-36 51.5q-17 -3 -39 -26.5
t-45.5 -59t-47 -80t-42.5 -91t-31.5 -90.5t-15.5 -78q0 -13 5 -13q12 0 34.5 12t48 30t50.5 38t41 36z" />
    <glyph glyph-name="r" unicode="r" horiz-adv-x="365" 
d="M255 107q-7 -20 -20 -39.5t-28.5 -35.5t-32.5 -26t-32 -11q-13 0 -26 15t-13 50q0 17 4 34t9 34t9.5 33.5t6.5 32.5q0 12 -2.5 21.5t-8.5 21.5q20 -1 40.5 11.5t32.5 25.5q13 15 30.5 34.5t37.5 39.5t41.5 38t43.5 31q-11 1 -27.5 -8.5t-37 -17.5t-44.5 -10t-50 14
q-30 -56 -53.5 -93.5t-47 -67t-49 -57t-60.5 -64.5q54 64 103 140t87 163q-19 29 -22 58.5t6.5 59t29.5 59t48 58.5q17 -23 18 -53.5t-7 -63t-21 -63.5t-25 -55q18 -21 40 -19.5t47.5 12t52.5 24t56 15.5q5 0 13 -1t16 -5.5t13.5 -13.5t4.5 -25q-9 11 -19 11
q-20 0 -49.5 -23.5t-61.5 -60.5t-63.5 -81.5t-56.5 -86.5t-40.5 -76.5t-15.5 -50.5q0 -23 16 -23q15 1 32 12.5t32 26.5t26.5 31t16.5 25zM222 600q-33 -24 -48 -69t4 -97q8 15 18.5 35.5t18 43t10.5 45t-3 42.5z" />
    <glyph glyph-name="s" unicode="s" horiz-adv-x="344" 
d="M368 413q-6 4 -6 11q0 6 3 12.5t6.5 12.5t6.5 12t3 12q0 11 -6 20t-16 5q-19 -8 -29 -38.5t-16.5 -75t-13 -96.5t-18.5 -101q-8 -35 -23.5 -69.5t-36.5 -62.5t-47.5 -45t-57.5 -17q-27 -2 -45.5 8t-31 24t-19 27.5t-9.5 18.5q-6 -7 -15.5 -17.5t-21.5 -20.5t-27 -18.5
t-33 -11.5q9 4 21.5 13t25 21.5t23.5 26t17 26.5q-12 28 -10.5 68t14.5 76.5t37 62.5t57 28q14 1 27 -4.5t22 -19.5q10 10 23.5 29.5t29.5 43t34.5 48t38.5 45t40.5 34.5t41.5 15q23 2 36 -29q8 13 24 28.5t43 20.5q-24 -11 -40 -32t-24 -40q-3 -7 -4.5 -15.5t-3.5 -16
t-6.5 -13t-13.5 -6.5zM208 195q4 7 -4.5 21.5t-23.5 22.5q16 5 31 16t22 22q5 23 9 43.5t8.5 39.5t10.5 38t16 40q-36 -33 -63 -74.5t-56 -80.5q7 -16 7 -43t-9 -51t-27.5 -37.5t-46.5 -2.5q19 -2 32 7.5t21 26t11 38.5t1 46q-8 -11 -23.5 -33.5t-33 -48.5t-35 -51.5
t-30.5 -42.5q1 -3 7 -16t17 -27t26.5 -24.5t36.5 -10.5q19 -1 37.5 19t32 49t21 60.5t5.5 53.5zM139 284q-20 26 -44 24q-27 -2 -46 -25.5t-29.5 -55.5t-11.5 -65.5t8 -54.5q33 42 62 87.5t61 89.5z" />
    <glyph glyph-name="t" unicode="t" horiz-adv-x="199" 
d="M290 539q-45 -61 -85 -122t-71.5 -125.5t-52.5 -134t-28 -147.5q0 -2 5 -2t17.5 4.5t29.5 19t36.5 40.5t38.5 69q-6 -26 -17.5 -51.5t-28.5 -47.5t-39 -37.5t-49 -20.5q-8 15 -11 34t-3 41q0 29 4.5 61t11 61t13.5 53.5t11 39.5q-3 15 -15.5 25.5t-21.5 16.5
q17 0 35.5 11.5t25.5 18.5q23 41 47.5 88t62.5 107q-33 -2 -56 -2h-45h-46t-59 -1q23 2 41 8t31 13.5t21.5 15t12.5 13.5q8 -13 18 -18.5t23 -7t29.5 -0.5t37.5 1q5 6 14.5 23t17.5 35.5t11.5 34.5t-2.5 21q27 -8 54 3.5t55 28t56.5 29.5t57.5 8q-23 -1 -47.5 -22.5
t-48 -50.5t-43 -60t-31.5 -51q40 1 71.5 2t62 0.5t62 -3t71.5 -8.5q-48 0 -81 -1t-63 -3t-62.5 -4.5t-78.5 -5.5z" />
    <glyph glyph-name="u" unicode="u" horiz-adv-x="437" 
d="M520 477q-11 0 -33.5 -24.5t-50 -63t-57 -87t-53 -96.5t-39 -91t-15.5 -71q0 -17 8 -22q9 0 22.5 9.5t27.5 25t27.5 35.5t21.5 42q-19 -54 -48.5 -90.5t-58.5 -38.5q-9 0 -14.5 6t-8.5 16t-4 21t-1 21q0 23 4 49t6 43q-11 -15 -34 -39t-51.5 -48.5t-58.5 -45t-54 -26.5
q-23 0 -31 18t-8 44q0 19 3 40t7.5 39.5t8.5 32t6 18.5q1 3 1.5 5.5t0.5 5.5q0 12 -8 20t-16 12q8 2 26 12t29 25q14 20 33.5 53t32 66.5t11 61.5t-28.5 38q35 0 53.5 -18.5t18.5 -50.5q0 -47 -22 -99t-49 -103.5t-49 -98t-22 -82.5q0 -13 3 -23q10 1 29 12.5t40 27.5t41 34
t34 33q64 69 106.5 154.5t80.5 178.5q2 -1 7 -1q12 0 25.5 5.5t27 12t26 12t23.5 5.5q16 0 26 -15h-2z" />
    <glyph glyph-name="v" unicode="v" horiz-adv-x="358" 
d="M99 -1q-20 1 -32 11.5t-19 27.5t-9.5 37.5t-2.5 41.5q0 24 2.5 45t2.5 33q0 17 -10.5 27t-24.5 17q23 2 40.5 20.5t29 46t17.5 61.5t6.5 67.5t-3.5 62t-12 46.5q37 -37 46.5 -77.5t9.5 -82.5t-10.5 -84.5t-23 -82t-23 -75.5t-10.5 -66q0 -15 5 -32q10 42 29.5 81t43.5 74
t51.5 66.5t54.5 59.5l12.5 12.5l17 17t15 16.5t8.5 13q-2 27 8 55.5t27 55t38.5 49t44.5 36.5q18 -24 12 -59.5t-23 -72.5t-40 -69t-39 -49q6 -18 19.5 -19.5t25.5 5.5t18 20t-2 25q14 -17 8 -33.5t-21 -26.5t-33.5 -8t-30.5 23q-24 -32 -62 -69.5t-75 -76t-63.5 -76.5
t-26.5 -71q0 -14 4 -23zM421 549q-32 -21 -56.5 -59.5t-32.5 -89.5q12 12 28.5 29.5t30.5 38t23 42t7 39.5z" />
    <glyph glyph-name="w" unicode="w" horiz-adv-x="531" 
d="M294 -12q-29 20 -42 48.5t-14.5 61.5t6 68.5t19 68.5t23.5 62t21 49q-28 -43 -63 -84t-70.5 -83t-66 -86t-49.5 -93q-20 24 -26.5 48.5t-6 49.5t6 49.5t11.5 47.5q-3 18 -9 27t-21 15q7 0 16.5 4t18 10t15.5 12t11 11q13 12 25 31t22 40t16.5 43t8.5 40q0 25 -6.5 42.5
t-16.5 27t-22 12.5t-22 -1q21 16 43 15t39.5 -14t29 -34.5t11.5 -47.5q0 -42 -19 -84.5t-43.5 -87t-46.5 -91.5t-28 -97q21 36 51.5 75.5t62.5 79.5t63 80t53.5 77.5t33 71.5t3.5 63q26 -29 34.5 -60t5.5 -62.5t-15 -63.5t-27 -63t-30 -61.5t-24 -58.5t-9.5 -54t14.5 -49
q8 61 29.5 109.5t50 90.5t60.5 80.5t59 80.5q-13 41 -1.5 78.5t33 73.5t46.5 72t38 75q31 -35 33.5 -84t-13 -99.5t-42.5 -97t-54 -76.5q-3 -9 1 -21.5t11 -25t16 -23t18 -14.5q-18 4 -28.5 12.5t-17 18t-11 19.5t-8.5 18q-30 -30 -61 -60t-58 -64t-47.5 -74t-29.5 -89
q-2 -14 -2.5 -28t-8.5 -27zM592 634q-14 -23 -30.5 -44t-30.5 -44.5t-24 -52t-10 -64.5q15 21 32 44.5t31 49t23 53.5t9 58z" />
    <glyph glyph-name="x" unicode="x" horiz-adv-x="368" 
d="M145 195q-3 -27 -20.5 -65.5t-45 -77t-60.5 -71t-66.5 -47.5t-65 -7t-53.5 51q23 -32 53.5 -33t61.5 17.5t60.5 51t51.5 68t33.5 67.5t6.5 51q0 15 -9.5 22t-24.5 14q19 -1 30.5 7t25.5 31q15 42 16.5 83t-7.5 74.5t-27 56.5t-42 29q27 -1 50.5 -19.5t39.5 -50
t22.5 -73.5t-2.5 -91q7 12 18.5 34t28 47t38 49.5t48.5 41.5q33 20 61 22.5t50.5 -9t38 -35.5t23.5 -57q-25 53 -56.5 68.5t-63.5 4.5t-63.5 -43.5t-57 -75.5t-43 -91.5t-21.5 -90.5q-5 -48 -1.5 -73.5t14 -33t26 -0.5t35 23t41.5 37.5t45 43.5l-40 -52t-40 -46.5t-39 -32
t-37 -8.5q-17 3 -26 22.5t-12.5 47t-2 59.5t7.5 60z" />
    <glyph glyph-name="y" unicode="y" horiz-adv-x="395" 
d="M-342 -422q-22 0 -44.5 8t-41 23.5t-30 37t-11.5 48.5q0 32 21.5 62.5t57 53.5t81.5 35.5t95 8.5q60 -5 108 -29t84 -56.5t59 -69.5t34 -68q7 86 23.5 153t40.5 127t54.5 119t66.5 129q-15 -20 -40 -47t-55.5 -52.5t-63 -43t-62.5 -17.5q-17 21 -19.5 49t2 56.5t11 54.5
t6.5 42q0 17 -10.5 28t-24.5 16q17 0 39.5 9.5t36.5 26.5q51 96 58.5 151.5t-8.5 68.5q50 -13 61 -40.5t-0.5 -65t-38 -83t-52 -95t-42 -101t-8.5 -100.5q27 4 64.5 29t77 63.5t76.5 87.5t62.5 100.5t36 102.5t-3.5 95q29 -11 45 -23.5t18 -35.5q2 -25 -7.5 -57.5
t-27.5 -70.5t-41.5 -80t-49.5 -87q-38 -65 -77.5 -136.5t-70.5 -146t-49.5 -150.5t-14.5 -150q-29 62 -60 112.5t-68.5 86.5t-84 55.5t-106.5 19.5q-47 0 -86 -12.5t-67.5 -32.5t-44 -45t-15.5 -50q0 -12 6 -28.5t18.5 -31.5t31.5 -25.5t46 -10.5q14 0 27.5 8.5t24 21
t16.5 27.5t5 29q-1 20 -14 28.5t-29.5 8.5t-32.5 -6.5t-23 -15.5q11 23 31 32t40 6.5t35 -16.5t15 -37q0 -15 -6 -33t-17.5 -33.5t-28.5 -26t-39 -11.5z" />
    <glyph glyph-name="z" unicode="z" horiz-adv-x="383" 
d="M306 -125q-29 -39 -64 -78t-74.5 -70.5t-84 -53.5t-93 -27.5t-100.5 8.5t-108 54q40 51 88.5 93.5t109.5 70t134.5 36t162.5 -7.5q23 38 28.5 72t-1.5 59.5t-25.5 40.5t-44 15.5t-57 -15.5t-64.5 -52q16 40 51 76.5t72.5 76t69.5 85t41 102.5q-64 -8 -124.5 -35
t-104.5 -71t-64.5 -104t-4.5 -133q-20 38 -23 85t5 93q-7 15 -20.5 24t-33.5 20q9 -1 21 1.5t24 7.5t21.5 11.5t14.5 14.5q9 30 24 54.5t31 46t30 41t20.5 39t2.5 40t-23 44.5q13 -2 25 -12.5t22 -24t18 -28t13 -24.5q-5 -23 -19 -42t-29.5 -37t-30 -35.5t-20.5 -35.5
q20 23 45.5 38t52.5 27t53.5 23t49 25t39.5 33.5t25 48.5q22 -48 13.5 -99t-33.5 -100.5t-59 -95t-63 -82.5q35 9 57.5 0.5t34.5 -28t15.5 -47t0 -55.5t-13 -53.5t-22.5 -42.5q23 -2 44.5 3t35.5 18t18.5 34t-5.5 53q18 -21 22 -45.5t-7.5 -44t-40.5 -30.5t-78 -5z
M-175 -287q36 -34 77.5 -44.5t84 -3.5t84 28.5t78.5 51.5t67 65.5t50 70.5q-76 15 -148.5 3t-132.5 -39t-102.5 -63t-57.5 -69z" />
    <glyph glyph-name="braceleft" unicode="{" horiz-adv-x="262" 
d="M111 347q17 -29 23 -56.5t6 -55.5q0 -46 -9.5 -87.5t-9.5 -75.5q0 -33 14.5 -54.5t35.5 -21.5q19 0 37 12.5t27 28.5q-12 -40 -26.5 -58.5t-29 -29t-26 -19.5t-16.5 -29q-18 17 -33 35.5t-26.5 41t-18 49t-6.5 60.5q0 24 5.5 47t12.5 45t12.5 43.5t5.5 43.5
q0 18 -6.5 31.5t-16.5 23.5t-22 16.5t-23 10.5q10 3 22 9.5t22 16.5t16.5 23.5t6.5 31.5q0 22 -5.5 43.5t-12.5 43.5t-12.5 45t-5.5 47q0 34 6.5 60.5t18 49t27 41t32.5 35.5q5 -20 16.5 -29t26 -19.5t29 -29t26.5 -58.5q-9 16 -27 28.5t-37 12.5q-21 0 -35.5 -21.5
t-14.5 -54.5q0 -34 9.5 -75.5t9.5 -87.5q0 -28 -6 -55.5t-23 -56.5z" />
    <glyph glyph-name="bar" unicode="|" horiz-adv-x="179" 
d="M87 -90q-8 106 -17 219t-13.5 226t0 223t24.5 211q3 -27 14 -38.5t24 -19t25.5 -17.5t19.5 -34q-12 0 -21 -40.5t-17 -105.5t-14 -147.5t-11 -168t-8.5 -166.5t-5.5 -142z" />
    <glyph glyph-name="braceright" unicode="}" horiz-adv-x="262" 
d="M146 348q-17 29 -23 56.5t-6 55.5q0 46 9.5 87.5t9.5 75.5q0 33 -14.5 54.5t-35.5 21.5q-19 0 -37 -12.5t-27 -28.5q12 40 26.5 58.5t29 29t26 19.5t16.5 29q17 -17 32.5 -35.5t27 -41t18 -49t6.5 -60.5q0 -24 -5.5 -47t-12.5 -45t-12.5 -43.5t-5.5 -43.5
q0 -18 6.5 -31.5t16.5 -23.5t21.5 -16.5t22.5 -9.5q-11 -4 -23 -10.5t-22 -16.5t-16.5 -23.5t-6.5 -31.5q0 -22 5.5 -43.5t12.5 -43.5t12.5 -45t5.5 -47q0 -34 -6.5 -60.5t-18 -49t-26.5 -41t-33 -35.5q-5 20 -16.5 29t-26 19.5t-29 29t-26.5 58.5q9 -16 27 -28.5t37 -12.5
q21 0 35.5 21.5t14.5 54.5q0 34 -9.5 75.5t-9.5 87.5q0 28 6 55.5t23 56.5z" />
    <glyph glyph-name="asciitilde" unicode="~" horiz-adv-x="394" 
d="M369 235q-9 -9 -24 -19.5t-34 -18.5t-41 -11t-45 3q-26 6 -55 21.5t-57.5 24.5t-54.5 2.5t-45 -43.5q3 22 14 37.5t27.5 24.5t35.5 12.5t37 2.5q26 -2 49 -13t43 -12q18 -1 34 4.5t27 16t15.5 24.5t-0.5 31q17 -7 23.5 -21.5t12 -29t13 -25.5t25.5 -11z" />
    <glyph glyph-name="exclamdown" unicode="&#xa1;" horiz-adv-x="305" 
d="M179 428q1 -73 4 -150.5t1 -155t-12 -152.5t-34 -142q-1 19 -10.5 27.5t-21.5 14.5t-23.5 13.5t-16.5 24.5q11 -1 22 26t21.5 71t20.5 100t19 113.5t16.5 112.5t13.5 97zM142 501q-9 9 -10 22.5t5 26.5t19 22t34 8q15 -28 2 -53t-50 -26z" />
    <glyph glyph-name="cent" unicode="&#xa2;" horiz-adv-x="311" 
d="M118 65q-20 5 -25.5 24t-2.5 41q-23 10 -33.5 27.5t-13.5 37.5t-2 39.5t1 31.5q-7 14 -11 22.5t-21 17.5q15 5 27.5 9.5t21.5 20.5q6 10 19 32t32 44.5t44.5 41t57.5 23.5q13 14 18 34.5t2 36.5q8 -11 10 -21t0.5 -19.5t-5 -18t-6.5 -15.5q24 -1 33 -14t8 -32t-10.5 -41
t-22.5 -40t-27.5 -28.5t-26.5 -6.5t-14 16.5t3.5 27t16.5 26t24 12.5q-15 -5 -23 -23.5t0 -34.5q14 -4 28.5 12.5t23 38.5t9 41t-13.5 21q-28 3 -51.5 -25t-41.5 -67.5t-28.5 -81t-11.5 -65.5q-1 -14 -1 -32t10 -26q14 -6 28.5 3.5t27.5 25t23 32.5t15 27q-7 -32 -19 -54.5
t-25.5 -36t-28.5 -19t-28 -3.5q-8 -18 -1.5 -35.5t11.5 -26.5z" />
    <glyph glyph-name="sterling" unicode="&#xa3;" horiz-adv-x="715" 
d="M178 272q10 10 34 20t51.5 16t54.5 6.5t45 -7.5l10 20t8 18q-1 12 -6.5 20.5t-13 14.5t-16 10t-15.5 8q19 0 39.5 11.5t39 28t34 35.5t23.5 34q34 51 61 89t52 64.5t49.5 42t52.5 20.5q21 4 42 -3.5t38.5 -24t28 -41t9.5 -54.5q-17 31 -39.5 42.5t-46.5 7.5t-48 -20.5
t-44 -40.5q-23 -27 -44.5 -61t-43 -73t-44.5 -82t-49 -88q24 -4 45 -10.5t45 -8.5q15 -2 29.5 4t23 15.5t8.5 21.5t-13 23q25 -2 35 -16.5t7.5 -33t-16.5 -36.5t-36 -25q-25 -8 -61 0t-88 26q-32 -54 -67.5 -102t-76.5 -83q27 -17 65 -25.5t78 -8.5t77.5 9.5t63 29t35.5 49
t-6 69.5q38 -44 49 -78.5t1 -59t-36.5 -40.5t-62.5 -23.5t-78.5 -7t-84 8t-78 22t-61.5 34.5q-13 -11 -35.5 -24t-51 -20t-63 -3t-71.5 28q33 -11 57 -13.5t44.5 2.5t39.5 18.5t41 35.5q-24 13 -42.5 18t-34 4t-29 -6t-26.5 -12q14 12 31.5 22t37.5 15t42.5 3.5t48.5 -13.5
q38 41 65.5 84.5t50.5 89.5q-16 9 -36.5 12.5t-42.5 3t-44 -4t-41 -7.5z" />
    <glyph glyph-name="yen" unicode="&#xa5;" horiz-adv-x="532" 
d="M342 2q-32 -2 -69 3t-75 11q-29 -57 -42.5 -112.5t-1.5 -108.5q-20 61 -14 116.5t28 108.5q-34 5 -66 5t-59 -9q18 18 56.5 25.5t83.5 11.5q7 15 15 30t17 30q-22 -3 -43 -5t-40 0q6 10 5 19.5t-5.5 18.5t-9.5 18.5t-5 19.5q16 -11 50.5 -15.5t76.5 -6.5q23 38 48 78
t47 83q-15 -20 -39 -39t-53.5 -34.5t-61 -25t-61.5 -9.5q-11 51 -8.5 84.5t2.5 65.5q0 17 -10.5 28t-24.5 16q17 0 39.5 9.5t36.5 26.5q51 96 58.5 151.5t-8.5 68.5q50 -13 64 -34.5t7 -51t-28 -65t-42 -77t-34.5 -87t-5.5 -94.5q27 4 61.5 23t69.5 49.5t66.5 69.5t52.5 82
t28.5 88.5t-6.5 89.5q29 -11 45 -23.5t18 -35.5q2 -25 -6 -60t-23.5 -75t-37 -80.5t-46.5 -76.5q-26 -37 -52.5 -73.5t-52.5 -74.5q45 -4 85 -11t59 -26q-37 12 -81 8.5t-90 -11.5q-11 -16 -20.5 -31.5t-19.5 -32.5q45 3 82.5 7t54.5 16q0 -10 -5 -19.5t-9.5 -18.5
t-5.5 -18.5t5 -19.5z" />
    <glyph glyph-name="brokenbar" unicode="&#xa6;" horiz-adv-x="262" 
d="M189 627q0 -34 -9 -72.5t-17.5 -77.5t-12.5 -76.5t4 -70.5q-13 15 -18.5 40.5t-7 56t-1 64t0 64t-3 55t-10.5 37.5q10 -1 19 -6l18 -10t18 -7.5t20 3.5zM188 212q0 -34 -9 -72.5t-17.5 -77.5t-12.5 -76.5t4 -70.5q-13 15 -18.5 40.5t-7 56t-1 64t0 64t-3 55t-10.5 37.5
q10 -1 19 -6l18 -10t18 -7.5t20 3.5z" />
    <glyph glyph-name="dieresis" unicode="&#xa8;" horiz-adv-x="309" 
d="M111 700q6 -11 3.5 -24.5t-11.5 -24t-24 -16t-35 0.5q-4 15 -0.5 29t12.5 23t23 12.5t32 -0.5zM264 700q6 -11 3.5 -24.5t-11.5 -24t-24 -16t-35 0.5q-4 15 -0.5 29t12.5 23t23 12.5t32 -0.5z" />
    <glyph glyph-name="copyright" unicode="&#xa9;" horiz-adv-x="696" 
d="M668 482q8 -52 -3 -105t-36 -103.5t-62 -96t-81 -80.5t-93.5 -58.5t-99.5 -29.5q-35 -5 -71.5 -2.5t-70.5 16t-63.5 40t-50.5 69.5q-30 62 -27 129.5t29 132.5t71 123.5t99 102t112.5 68t112.5 21.5q53 -3 95.5 -26t72.5 -56.5t46.5 -72t19.5 -72.5zM61 189q7 -38 27 -68
t49.5 -49.5t65 -28t73.5 -4.5q71 7 136.5 49t115.5 103.5t79 135.5t27 146q-1 25 -11 61.5t-35 68.5t-66.5 53t-104.5 16q-79 -13 -149.5 -61.5t-121 -116.5t-74.5 -148t-11 -157zM417 272q-33 -66 -83 -106t-99 -42q-33 0 -47.5 21t-18 51t-0.5 63.5t4 58.5q0 17 -6.5 25
t-17.5 16q17 4 32.5 14t27.5 22q3 3 20.5 29.5t44 59.5t59.5 63.5t67 42.5q17 -6 30 -17.5t22 -27t13.5 -33t4.5 -34.5q1 -26 -13.5 -47.5t-31.5 -26.5q-12 -3 -21 2t-12.5 13t0 17t18.5 14q-9 -8 -10 -15t2.5 -12t11 -6.5t15.5 3.5q12 7 19 26t6 41t-10 40.5t-28 23.5
q-32 -17 -62.5 -54t-56 -83t-43.5 -95t-26 -89.5t-3.5 -66t24.5 -24.5q17 -1 41 12.5t48.5 33.5t45.5 43.5t33 43.5z" />
    <glyph glyph-name="ordfeminine" unicode="&#xaa;" horiz-adv-x="407" 
d="M181 461q-10 -8 -22 -18.5t-25.5 -20t-27.5 -16t-27 -6.5q-14 0 -22 10.5t-13 26t-6.5 33.5t-1.5 33q0 10 0.5 17t1.5 12q0 8 -3.5 14.5t-14.5 14.5q17 0 25.5 8t13.5 16q8 16 20.5 36.5t28 41.5t35 40t41.5 31q33 -5 56 -29t23 -63q11 20 20 34.5t7 25.5q18 2 35 10.5
t35 8.5q5 0 8 -0.5t8 -3.5q-18 -11 -46 -47t-55 -81.5t-48 -93t-25 -80.5q8 -2 21 9.5t25 28.5q-5 -10 -12 -19.5t-14.5 -17t-14.5 -12t-13 -4.5q-6 2 -9 9.5t-4 17t-0.5 19t0.5 15.5zM188 484q9 23 18 48t22 47q-9 -3 -15 -3q-18 0 -27.5 13t-9.5 28q0 17 10.5 30.5
t31.5 13.5q-14 -2 -21.5 -15t-7.5 -27q0 -11 6 -20t19 -9q14 0 24 16t10 40q0 20 -9 40.5t-29 23.5q-11 -2 -30 -23t-38.5 -51.5t-35.5 -64t-22 -60.5q-6 -24 -6 -52q0 -6 0.5 -14.5t2 -17t4 -14t5.5 -5.5q9 0 24 9.5t30 22.5t27.5 25.5t16.5 18.5z" />
    <glyph glyph-name="guillemotleft" unicode="&#xab;" horiz-adv-x="454" 
d="M430 138q-14 30 -45.5 62.5t-69 61t-74.5 49.5t-61 27q22 9 45 36.5t38.5 57.5t19.5 54t-11 27q7 11 20.5 14.5t28.5 6.5t29 8.5t22 21.5q1 -26 -18 -56.5t-43 -60.5t-46 -57t-27 -46q28 -18 57 -39.5t54.5 -47t46.5 -55.5t34 -64zM283 136q-14 30 -45.5 62.5t-69 61
t-74.5 49.5t-61 27q22 9 45 36.5t38.5 57.5t19.5 54t-11 27q7 11 20.5 14.5t28.5 6.5t29 8.5t22 21.5q1 -26 -18 -56.5t-43 -60.5t-46 -57t-27 -46q28 -18 57 -39.5t54.5 -47t46.5 -55.5t34 -64z" />
    <glyph glyph-name="registered" unicode="&#xae;" horiz-adv-x="786" 
d="M721 480q7 -52 -3.5 -105t-35.5 -103.5t-62 -96t-81 -80.5t-93.5 -58.5t-99.5 -29.5q-35 -5 -71.5 -2.5t-70.5 16t-63.5 40t-50.5 69.5q-30 62 -27 129.5t29 132.5t71 123.5t99 102t112.5 68t112.5 21.5q53 -3 95.5 -26t72.5 -56.5t46.5 -72t19.5 -72.5zM116 193
q6 -39 25.5 -68.5t48 -49t64 -28t72.5 -4.5q46 5 90.5 25.5t84 52.5t72.5 73.5t56.5 87.5t36 95t11.5 97q-1 25 -11 60.5t-34 68t-64.5 53t-102.5 15.5q-78 -13 -147 -60.5t-118.5 -115t-73 -147t-10.5 -155.5zM451 181q-7 -17 -20 -33t-28.5 -29t-32 -21t-31.5 -9
q-11 0 -23.5 12t-12.5 41q0 14 4 28t8.5 28t9 27.5t6.5 26.5q0 9 -2.5 16.5t-7.5 18.5q20 -1 39.5 8.5t30.5 20.5q13 13 29.5 29t36 32t41 31t42.5 25q-11 1 -27.5 -6.5t-36 -14.5t-42.5 -8.5t-48 11.5q-30 -46 -53.5 -78.5t-46.5 -59t-48 -51.5t-59 -55q52 52 101 121
t86 140q-19 24 -22 48.5t6 48.5t28.5 48t46.5 47q17 -19 18.5 -44t-6.5 -51.5t-21 -52t-24 -44.5q18 -17 39.5 -16t45.5 10t50.5 19.5t54.5 12.5q5 0 13 -1t15.5 -4.5t13 -11t4.5 -20.5q-8 10 -19 10q-20 0 -48 -19t-59 -49t-61.5 -66.5t-55 -71t-39.5 -63t-15 -41.5
q0 -18 16 -18q15 1 31 10.5t30.5 22t26 25t16.5 20.5zM418 582q-16 -9 -28 -23.5t-18 -32.5t-5.5 -38t9.5 -41q7 12 17 28.5t17.5 35t10.5 37t-3 34.5z" />
    <glyph glyph-name="degree" unicode="&#xb0;" horiz-adv-x="449" 
d="M180 545q-15 4 -24 13t-11 20q-7 26 2.5 54t28 51t42.5 37.5t47 13.5q30 -2 47 -23t19 -40q3 -27 -9 -53.5t-33 -46t-49.5 -27.5t-59.5 1zM194 597q21 -11 43.5 -6.5t37 19t17.5 36t-13 42.5q-21 2 -39.5 -4.5t-31 -19.5t-17.5 -30.5t3 -36.5z" />
    <glyph glyph-name="plusminus" unicode="&#xb1;" horiz-adv-x="626" 
d="M420 23q-34 -2 -73 3.5t-78.5 11.5t-77.5 7.5t-70 -8.5q13 13 38.5 20.5t56 11.5t64 6t64 4.5t54.5 6.5t37 13q0 -10 -5 -19.5t-9.5 -18.5t-5.5 -18.5t5 -19.5zM258 113q-14 18 -19.5 44t-5.5 54.5t5.5 56.5t14.5 49q-28 -6 -58.5 -11.5t-55.5 -3.5t-41.5 17t-17.5 51
q7 -23 21 -33t32 -11t38.5 4t40 11.5t37 12.5t29.5 6q6 10 20.5 30.5t29 42.5t26 40.5t13.5 26.5q19 -12 39 -12.5t40.5 4t41 10.5t40.5 5q-17 -8 -37 -22t-41 -32t-40.5 -38.5t-34.5 -41.5q25 3 55.5 1t59 -10t51 -22t31.5 -35q-23 9 -40 4.5t-31 -13t-27.5 -17t-30.5 -8.5
q2 17 -9.5 27.5t-29.5 15t-39 5t-39 -1.5q-17 -19 -33.5 -41.5t-27.5 -48.5t-14 -55.5t7 -60.5z" />
    <glyph glyph-name="acute" unicode="&#xb4;" horiz-adv-x="198" 
d="M43 558q0 30 12.5 61t28.5 57.5t30.5 46t19.5 27.5q8 -8 9 -18.5t2 -22t4 -22t14 -18.5q-10 4 -28 -7t-37 -29t-34.5 -38.5t-20.5 -36.5z" />
    <glyph glyph-name="periodcentered" unicode="&#xb7;" horiz-adv-x="211" 
d="M135 395q6 -11 3.5 -24.5t-11.5 -24t-24 -16t-35 0.5q-4 15 -0.5 29t12.5 23t23 12.5t32 -0.5z" />
    <glyph glyph-name="cedilla" unicode="&#xb8;" horiz-adv-x="217" 
d="M204 -143q-10 -32 -35 -45t-54.5 -12.5t-57.5 11t-44 26.5q34 -15 68 -12.5t54.5 16t19.5 35.5t-36 47q-3 4 -1 16.5t8 25.5t14 23t16 10q0 -16 -3 -35t7 -33q9 -2 18.5 -9t16.5 -17t10 -22.5t-1 -24.5z" />
    <glyph glyph-name="guillemotright" unicode="&#xbb;" horiz-adv-x="443" 
d="M33 138q13 34 34 64t46.5 55.5t54 47t57.5 39.5q-5 19 -27 46t-46 57t-43 60.5t-18 56.5q8 -16 22 -21.5t29 -8.5t28.5 -6.5t20.5 -14.5q-15 -3 -11 -27t19.5 -54t38 -57.5t45.5 -36.5q-24 -6 -61 -27t-74.5 -49.5t-69 -61t-45.5 -62.5zM180 136q13 34 34 64t46.5 55.5
t54 47t57.5 39.5q-5 19 -27 46t-46 57t-43 60.5t-18 56.5q8 -16 22 -21.5t29 -8.5t28.5 -6.5t20.5 -14.5q-15 -3 -11 -27t19.5 -54t38 -57.5t45.5 -36.5q-24 -6 -61 -27t-74.5 -49.5t-69 -61t-45.5 -62.5z" />
    <glyph glyph-name="questiondown" unicode="&#xbf;" horiz-adv-x="443" 
d="M97 447q-8 -28 -11 -54.5t-3 -49.5t2.5 -42.5t5.5 -32.5q44 5 89 -9t83.5 -41.5t67 -66t39.5 -82t1 -90t-47 -90.5q-8 -3 -22 -5.5t-32.5 0.5t-41.5 12t-48 28q0 29 -2.5 63.5t-10 69t-21.5 65.5t-36 53q-17 -28 -15.5 -65t12 -74t27 -68t30.5 -47q1 -11 1 -25t-3 -30
t-10.5 -32.5t-19.5 -31.5q28 23 36 52t8 48q13 -10 31 -21t40 -19.5t47 -13t51 0.5q33 26 55.5 68t29.5 91t-4 99.5t-44 94t-91 75t-145 41.5q-9 7 -16.5 21t-14 32t-11.5 38t-7 38zM112 151q30 -48 43 -100t11 -105q-28 47 -45 101t-9 104zM110 535q-16 -10 -30.5 -10.5
t-25.5 6.5t-18 20t-7 30q18 12 34 10.5t27.5 -10t17 -21.5t2.5 -25z" />
    <glyph glyph-name="Agrave" unicode="&#xc0;" horiz-adv-x="698" 
d="M645 124q-5 -16 -16 -36t-24.5 -37t-28 -29t-27.5 -12q-11 0 -19 11t-12 37q0 30 7 61t17.5 61t22 57.5t21.5 50.5q5 -1 14 -1q22 0 43 8t37.5 23t26.5 36t10 47q0 20 -12 38t-36 29q19 37 44.5 76.5t53.5 75.5t54.5 65.5t46.5 47.5q-11 4 -25 4q-15 0 -29.5 -4
t-28.5 -8.5t-28 -8.5t-27 -4q-2 0 -4 0.5t-4 0.5q-55 -80 -115.5 -144.5t-124.5 -120.5q-26 -26 -48 -37t-49 -10q6 -11 13 -23.5t7 -24.5q0 -5 -1 -8q-12 2 -22.5 4.5t-22.5 4.5q-9 17 -22 28t-42 11q-27 0 -59 -13.5t-64 -36.5t-62 -53.5t-53.5 -65.5t-37.5 -71.5
t-14 -70.5q0 -17 4.5 -33t12.5 -29t20.5 -21t29.5 -8q25 0 56 13t62 32t58.5 40.5t44.5 39.5q60 7 101 39t58 95q-11 -28 -28 -48t-35.5 -33.5t-36.5 -20.5t-31 -8q37 42 72.5 83t69.5 85q25 -5 46.5 -10t55.5 -8q-4 -11 -14.5 -35.5t-22 -56t-20 -66t-8.5 -65.5
q0 -27 9.5 -48.5t33.5 -30.5q17 0 33 13t29.5 33t24 44t15.5 46zM25 77q-2 29 10 62t33.5 66t50 63.5t58.5 53.5t59.5 37t53.5 14q25 0 42 -18q-30 -2 -55.5 -16t-44 -34.5t-28.5 -46t-10 -49.5q0 -26 13.5 -48.5t47.5 -35.5q-14 -14 -35.5 -34t-46 -38t-49.5 -31t-46 -13.5
t-35.5 14.5t-17.5 54zM269 144q-28 5 -42 23.5t-14 42.5q0 22 9.5 44.5t26 40.5t39 29t48.5 11v-8q0 -23 -7.5 -37t-18.5 -23.5t-24 -15.5t-25 -12q42 11 68 32t30 69q12 -1 21 -4.5t21 -5.5q-19 -54 -54 -99t-74 -83q-1 -1 -2 -2.5t-2 -1.5zM474 321q35 45 71 93.5t73.5 94
t76.5 85.5t80 68q-36 -42 -67 -91.5t-58 -101.5q-17 -1 -33 -8.5t-28.5 -20t-20 -28.5t-8.5 -34q11 29 29 48.5t52 24.5q-4 -9 -14.5 -30.5t-22 -45.5t-22 -44t-13.5 -26q-23 0 -48 5t-47 11zM664 453q17 -10 25 -24.5t8 -31.5t-8 -33.5t-20.5 -29t-29.5 -20.5t-35 -8
q-7 0 -10 1q17 37 32 72t38 74zM848 760q-11 10 -24.5 22.5t-28 23t-28.5 17.5t-26 6q6 10 5.5 18.5t-3 17t-3.5 17t5 17.5q34 -25 64 -60.5t39 -78.5z" />
    <glyph glyph-name="Aacute" unicode="&#xc1;" horiz-adv-x="698" 
d="M645 124q-5 -22 -15.5 -46t-24 -44t-29.5 -33t-33 -13q-24 9 -33.5 30.5t-9.5 48.5q0 31 8.5 65.5t20 66t22 56t14.5 35.5q-34 3 -55.5 8t-46.5 10q-34 -44 -69.5 -85t-72.5 -83q13 1 31 8t36.5 20.5t35.5 33.5t28 48q-17 -63 -58 -95t-101 -39q-17 -18 -44.5 -39.5
t-58.5 -40.5t-62 -32t-56 -13q-17 0 -29.5 8t-20.5 21t-12.5 29t-4.5 33q0 34 14 70.5t37.5 71.5t53.5 65.5t62 53.5t64 36.5t59 13.5q29 0 42 -11t22 -28q12 -2 22.5 -4.5t22.5 -4.5q1 3 1 8q0 12 -7 24.5t-13 23.5q27 -1 49 10t48 37q64 56 124.5 120.5t115.5 144.5
q2 0 4 -0.5t4 -0.5q13 0 27 4t28 8.5t28.5 8.5t29.5 4q14 0 25 -4q-20 -18 -46.5 -47.5t-54.5 -65.5t-53.5 -75.5t-44.5 -76.5q24 -11 36 -29t12 -38q0 -26 -10 -47t-26.5 -36t-37.5 -23t-43 -8q-9 0 -14 1q-10 -23 -21.5 -50.5t-22 -57.5t-17.5 -61t-7 -61q4 -26 12 -37
t19 -11q13 0 27.5 12t28 29t24.5 37t16 36zM25 77q3 -39 17.5 -54t35.5 -14.5t46 13.5t49.5 31t46 38t35.5 34q-34 13 -47.5 35.5t-13.5 48.5q0 24 10 49.5t28.5 46t44 34.5t55.5 16q-17 18 -42 18q-24 0 -53.5 -14t-59.5 -37t-58.5 -53.5t-50 -63.5t-33.5 -66t-10 -62z
M269 144q1 0 2 1.5t2 2.5q39 38 74 83t54 99q-12 2 -21 5.5t-21 4.5q-4 -48 -30 -69t-68 -32q12 6 25 12t24 15.5t18.5 23.5t7.5 37v8q-26 0 -48.5 -11t-39 -29t-26 -40.5t-9.5 -44.5q0 -24 14 -42.5t42 -23.5zM474 321q22 -6 47 -11t48 -5q3 6 13.5 26t22 44t22 45.5
t14.5 30.5q-34 -5 -52 -24.5t-29 -48.5q1 18 8.5 34t20 28.5t28.5 20t33 8.5q27 52 58 101.5t67 91.5q-41 -28 -80 -68t-76.5 -85.5t-73.5 -94t-71 -93.5zM664 453q-23 -39 -38 -74t-32 -72q3 -1 10 -1q18 0 35 8t29.5 20.5t20.5 29t8 33.5t-8 31.5t-25 24.5zM763 744
q0 30 12.5 61t28.5 57.5t30.5 46t19.5 27.5q8 -8 9 -18.5t2 -22t4 -22t14 -18.5q-10 4 -28 -7t-37 -29t-34.5 -38.5t-20.5 -36.5z" />
    <glyph glyph-name="Acircumflex" unicode="&#xc2;" horiz-adv-x="698" 
d="M645 124q-5 -16 -16 -36t-24.5 -37t-28 -29t-27.5 -12q-11 0 -19 11t-12 37q0 30 7 61t17.5 61t22 57.5t21.5 50.5q5 -1 14 -1q22 0 43 8t37.5 23t26.5 36t10 47q0 20 -12 38t-36 29q19 37 44.5 76.5t53.5 75.5t54.5 65.5t46.5 47.5q-11 4 -25 4q-15 0 -29.5 -4
t-28.5 -8.5t-28 -8.5t-27 -4q-2 0 -4 0.5t-4 0.5q-55 -80 -115.5 -144.5t-124.5 -120.5q-26 -26 -48 -37t-49 -10q6 -11 13 -23.5t7 -24.5q0 -5 -1 -8q-12 2 -22.5 4.5t-22.5 4.5q-9 17 -22 28t-42 11q-27 0 -59 -13.5t-64 -36.5t-62 -53.5t-53.5 -65.5t-37.5 -71.5
t-14 -70.5q0 -17 4.5 -33t12.5 -29t20.5 -21t29.5 -8q25 0 56 13t62 32t58.5 40.5t44.5 39.5q60 7 101 39t58 95q-11 -28 -28 -48t-35.5 -33.5t-36.5 -20.5t-31 -8q37 42 72.5 83t69.5 85q25 -5 46.5 -10t55.5 -8q-4 -11 -14.5 -35.5t-22 -56t-20 -66t-8.5 -65.5
q0 -27 9.5 -48.5t33.5 -30.5q17 0 33 13t29.5 33t24 44t15.5 46zM25 77q-2 29 10 62t33.5 66t50 63.5t58.5 53.5t59.5 37t53.5 14q25 0 42 -18q-30 -2 -55.5 -16t-44 -34.5t-28.5 -46t-10 -49.5q0 -26 13.5 -48.5t47.5 -35.5q-14 -14 -35.5 -34t-46 -38t-49.5 -31t-46 -13.5
t-35.5 14.5t-17.5 54zM269 144q-28 5 -42 23.5t-14 42.5q0 22 9.5 44.5t26 40.5t39 29t48.5 11v-8q0 -23 -7.5 -37t-18.5 -23.5t-24 -15.5t-25 -12q42 11 68 32t30 69q12 -1 21 -4.5t21 -5.5q-19 -54 -54 -99t-74 -83q-1 -1 -2 -2.5t-2 -1.5zM474 321q35 45 71 93.5t73.5 94
t76.5 85.5t80 68q-36 -42 -67 -91.5t-58 -101.5q-17 -1 -33 -8.5t-28.5 -20t-20 -28.5t-8.5 -34q11 29 29 48.5t52 24.5q-4 -9 -14.5 -30.5t-22 -45.5t-22 -44t-13.5 -26q-23 0 -48 5t-47 11zM664 453q17 -10 25 -24.5t8 -31.5t-8 -33.5t-20.5 -29t-29.5 -20.5t-35 -8
q-7 0 -10 1q17 37 32 72t38 74zM800 862q5 -13 13.5 -29t22 -28.5t33.5 -17t47 5.5q-22 -18 -41 -21.5t-34.5 0.5t-26 13t-16.5 17q-8 -14 -25.5 -23t-37 -11t-37.5 3.5t-27 21.5q15 -11 35 -9.5t38.5 12t34 28t21.5 38.5z" />
    <glyph glyph-name="Atilde" unicode="&#xc3;" horiz-adv-x="698" 
d="M645 124q-5 -22 -15.5 -46t-24 -44t-29.5 -33t-33 -13q-24 9 -33.5 30.5t-9.5 48.5q0 31 8.5 65.5t20 66t22 56t14.5 35.5q-34 3 -55.5 8t-46.5 10q-34 -44 -69.5 -85t-72.5 -83q13 1 31 8t36.5 20.5t35.5 33.5t28 48q-17 -63 -58 -95t-101 -39q-17 -18 -44.5 -39.5
t-58.5 -40.5t-62 -32t-56 -13q-17 0 -29.5 8t-20.5 21t-12.5 29t-4.5 33q0 34 14 70.5t37.5 71.5t53.5 65.5t62 53.5t64 36.5t59 13.5q29 0 42 -11t22 -28q12 -2 22.5 -4.5t22.5 -4.5q1 3 1 8q0 12 -7 24.5t-13 23.5q27 -1 49 10t48 37q64 56 124.5 120.5t115.5 144.5
q2 0 4 -0.5t4 -0.5q13 0 27 4t28 8.5t28.5 8.5t29.5 4q14 0 25 -4q-20 -18 -46.5 -47.5t-54.5 -65.5t-53.5 -75.5t-44.5 -76.5q24 -11 36 -29t12 -38q0 -26 -10 -47t-26.5 -36t-37.5 -23t-43 -8q-9 0 -14 1q-10 -23 -21.5 -50.5t-22 -57.5t-17.5 -61t-7 -61q4 -26 12 -37
t19 -11q13 0 27.5 12t28 29t24.5 37t16 36zM25 77q3 -39 17.5 -54t35.5 -14.5t46 13.5t49.5 31t46 38t35.5 34q-34 13 -47.5 35.5t-13.5 48.5q0 24 10 49.5t28.5 46t44 34.5t55.5 16q-17 18 -42 18q-24 0 -53.5 -14t-59.5 -37t-58.5 -53.5t-50 -63.5t-33.5 -66t-10 -62z
M269 144q1 0 2 1.5t2 2.5q39 38 74 83t54 99q-12 2 -21 5.5t-21 4.5q-4 -48 -30 -69t-68 -32q12 6 25 12t24 15.5t18.5 23.5t7.5 37v8q-26 0 -48.5 -11t-39 -29t-26 -40.5t-9.5 -44.5q0 -24 14 -42.5t42 -23.5zM474 321q22 -6 47 -11t48 -5q3 6 13.5 26t22 44t22 45.5
t14.5 30.5q-34 -5 -52 -24.5t-29 -48.5q1 18 8.5 34t20 28.5t28.5 20t33 8.5q27 52 58 101.5t67 91.5q-41 -28 -80 -68t-76.5 -85.5t-73.5 -94t-71 -93.5zM664 453q-23 -39 -38 -74t-32 -72q3 -1 10 -1q18 0 35 8t29.5 20.5t20.5 29t8 33.5t-8 31.5t-25 24.5zM897 854
q-12 -44 -29 -60.5t-37 -17t-42 8.5t-44 15.5t-42 4t-36 -26.5q13 37 33 50.5t43 13.5t46.5 -7.5t45 -11.5t38 1t24.5 30z" />
    <glyph glyph-name="Adieresis" unicode="&#xc4;" horiz-adv-x="698" 
d="M645 124q-5 -22 -15.5 -46t-24 -44t-29.5 -33t-33 -13q-24 9 -33.5 30.5t-9.5 48.5q0 31 8.5 65.5t20 66t22 56t14.5 35.5q-34 3 -55.5 8t-46.5 10q-34 -44 -69.5 -85t-72.5 -83q13 1 31 8t36.5 20.5t35.5 33.5t28 48q-17 -63 -58 -95t-101 -39q-17 -18 -44.5 -39.5
t-58.5 -40.5t-62 -32t-56 -13q-17 0 -29.5 8t-20.5 21t-12.5 29t-4.5 33q0 34 14 70.5t37.5 71.5t53.5 65.5t62 53.5t64 36.5t59 13.5q29 0 42 -11t22 -28q12 -2 22.5 -4.5t22.5 -4.5q1 3 1 8q0 12 -7 24.5t-13 23.5q27 -1 49 10t48 37q64 56 124.5 120.5t115.5 144.5
q2 0 4 -0.5t4 -0.5q13 0 27 4t28 8.5t28.5 8.5t29.5 4q14 0 25 -4q-20 -18 -46.5 -47.5t-54.5 -65.5t-53.5 -75.5t-44.5 -76.5q24 -11 36 -29t12 -38q0 -26 -10 -47t-26.5 -36t-37.5 -23t-43 -8q-9 0 -14 1q-10 -23 -21.5 -50.5t-22 -57.5t-17.5 -61t-7 -61q4 -26 12 -37
t19 -11q13 0 27.5 12t28 29t24.5 37t16 36zM25 77q3 -39 17.5 -54t35.5 -14.5t46 13.5t49.5 31t46 38t35.5 34q-34 13 -47.5 35.5t-13.5 48.5q0 24 10 49.5t28.5 46t44 34.5t55.5 16q-17 18 -42 18q-24 0 -53.5 -14t-59.5 -37t-58.5 -53.5t-50 -63.5t-33.5 -66t-10 -62z
M269 144q1 0 2 1.5t2 2.5q39 38 74 83t54 99q-12 2 -21 5.5t-21 4.5q-4 -48 -30 -69t-68 -32q12 6 25 12t24 15.5t18.5 23.5t7.5 37v8q-26 0 -48.5 -11t-39 -29t-26 -40.5t-9.5 -44.5q0 -24 14 -42.5t42 -23.5zM474 321q22 -6 47 -11t48 -5q3 6 13.5 26t22 44t22 45.5
t14.5 30.5q-34 -5 -52 -24.5t-29 -48.5q1 18 8.5 34t20 28.5t28.5 20t33 8.5q27 52 58 101.5t67 91.5q-41 -28 -80 -68t-76.5 -85.5t-73.5 -94t-71 -93.5zM664 453q-23 -39 -38 -74t-32 -72q3 -1 10 -1q18 0 35 8t29.5 20.5t20.5 29t8 33.5t-8 31.5t-25 24.5zM757 838
q6 -11 3.5 -24.5t-11.5 -24t-24 -16t-35 0.5q-4 15 -0.5 29t12.5 23t23 12.5t32 -0.5zM910 838q6 -11 3.5 -24.5t-11.5 -24t-24 -16t-35 0.5q-4 15 -0.5 29t12.5 23t23 12.5t32 -0.5z" />
    <glyph glyph-name="Aring" unicode="&#xc5;" horiz-adv-x="698" 
d="M645 124q-5 -22 -15.5 -46t-24 -44t-29.5 -33t-33 -13q-24 9 -33.5 30.5t-9.5 48.5q0 31 8.5 65.5t20 66t22 56t14.5 35.5q-34 3 -55.5 8t-46.5 10q-34 -44 -69.5 -85t-72.5 -83q13 1 31 8t36.5 20.5t35.5 33.5t28 48q-17 -63 -58 -95t-101 -39q-17 -18 -44.5 -39.5
t-58.5 -40.5t-62 -32t-56 -13q-17 0 -29.5 8t-20.5 21t-12.5 29t-4.5 33q0 34 14 70.5t37.5 71.5t53.5 65.5t62 53.5t64 36.5t59 13.5q29 0 42 -11t22 -28q12 -2 22.5 -4.5t22.5 -4.5q1 3 1 8q0 12 -7 24.5t-13 23.5q27 -1 49 10t48 37q64 56 124.5 120.5t115.5 144.5
q2 0 4 -0.5t4 -0.5q13 0 27 4t28 8.5t28.5 8.5t29.5 4q14 0 25 -4q-20 -18 -46.5 -47.5t-54.5 -65.5t-53.5 -75.5t-44.5 -76.5q24 -11 36 -29t12 -38q0 -26 -10 -47t-26.5 -36t-37.5 -23t-43 -8q-9 0 -14 1q-10 -23 -21.5 -50.5t-22 -57.5t-17.5 -61t-7 -61q4 -26 12 -37
t19 -11q13 0 27.5 12t28 29t24.5 37t16 36zM25 77q3 -39 17.5 -54t35.5 -14.5t46 13.5t49.5 31t46 38t35.5 34q-34 13 -47.5 35.5t-13.5 48.5q0 24 10 49.5t28.5 46t44 34.5t55.5 16q-17 18 -42 18q-24 0 -53.5 -14t-59.5 -37t-58.5 -53.5t-50 -63.5t-33.5 -66t-10 -62z
M269 144q1 0 2 1.5t2 2.5q39 38 74 83t54 99q-12 2 -21 5.5t-21 4.5q-4 -48 -30 -69t-68 -32q12 6 25 12t24 15.5t18.5 23.5t7.5 37v8q-26 0 -48.5 -11t-39 -29t-26 -40.5t-9.5 -44.5q0 -24 14 -42.5t42 -23.5zM474 321q22 -6 47 -11t48 -5q3 6 13.5 26t22 44t22 45.5
t14.5 30.5q-34 -5 -52 -24.5t-29 -48.5q1 18 8.5 34t20 28.5t28.5 20t33 8.5q27 52 58 101.5t67 91.5q-41 -28 -80 -68t-76.5 -85.5t-73.5 -94t-71 -93.5zM664 453q-23 -39 -38 -74t-32 -72q3 -1 10 -1q18 0 35 8t29.5 20.5t20.5 29t8 33.5t-8 31.5t-25 24.5zM783 739
q-9 2 -14 8t-7 13q-4 16 1.5 34t17 32.5t26 24t28.5 8.5q18 -1 28.5 -14.5t11.5 -25.5q1 -17 -6 -34t-20 -29t-30 -17.5t-36 0.5zM800 778q8 -5 16 -3t13.5 8t6.5 14.5t-5 17.5q-15 2 -25.5 -9.5t-5.5 -27.5z" />
    <glyph glyph-name="AE" unicode="&#xc6;" horiz-adv-x="1086" 
d="M847 47q-32 -16 -67.5 -30t-73.5 -13q-27 0 -51 13.5t-38 35.5q-15 -27 -34.5 -46t-39.5 -19q-24 9 -33.5 30.5t-9.5 48.5q0 31 8.5 65.5t20 66t22 56t14.5 35.5q-34 3 -55.5 8t-46.5 10q-34 -44 -69.5 -85t-72.5 -83q13 1 31 8t36.5 20.5t35.5 33.5t28 48
q-17 -63 -58 -95t-101 -39q-17 -18 -44.5 -39.5t-58.5 -40.5t-62 -32t-56 -13q-17 0 -29.5 8t-20.5 21t-12.5 29t-4.5 33q0 34 14 70.5t37.5 71.5t53.5 65.5t62 53.5t64 36.5t59 13.5q29 0 42 -11t22 -28q12 -2 22.5 -4.5t22.5 -4.5q1 3 1 8q0 12 -7 24.5t-13 23.5
q27 -1 49 10t48 37q64 56 124.5 120.5t115.5 144.5q2 0 4 -0.5t4 -0.5q13 0 27 4t28 8.5t28.5 8.5t29.5 4q14 0 25 -4q-4 -3 -7 -7q10 -6 15 -15.5t5 -20.5q0 -17 -12.5 -32t-35.5 -17q14 4 23.5 18.5t9.5 29.5q0 19 -15 28q-17 -17 -35.5 -38t-38.5 -47q8 -20 25.5 -34
t40.5 -14q24 24 59 50.5t74 48.5t80 36.5t77 14.5q13 0 29 -1.5t30 -7.5t24 -17t10 -30q-1 -26 -20.5 -55t-49 -55t-64 -45.5t-66 -25.5t-56.5 4.5t-35 45.5h-2q-4 0 -14 2t-19 5q-21 -22 -26 -45t4.5 -42t33.5 -32t62 -15q-42 -11 -81.5 -35.5t-75 -56t-64.5 -66t-50.5 -66
t-34 -56.5t-13.5 -37q-3 -32 5.5 -50t24.5 -26t37 -7t42.5 7t42 15t34.5 18q-13 34 -4.5 67.5t29.5 62.5t51 53t61 41t58.5 25t44.5 5q1 -33 -21 -72t-55 -75t-71.5 -66.5t-70.5 -47.5q9 -15 23.5 -20.5t30.5 -5t30 6t21 13.5q-9 -14 -25.5 -21.5t-35 -7.5t-35.5 7.5
t-25 21.5zM549 10q14 0 31.5 15t32.5 36q-11 22 -11 45q1 27 16.5 61t37.5 68.5t47 66t45 52.5q6 10 6.5 18.5t-2.5 15t-7.5 11.5t-8.5 10q9 -5 22 -6t27 1.5t27.5 7.5t22.5 12q-26 8 -39.5 28.5t-11.5 44.5q0 9 6 20.5t14 22.5t16.5 19.5t11.5 12.5q-21 5 -38 18t-27 31
q-28 -36 -53.5 -75.5t-44.5 -77.5q24 -11 36 -29t12 -38q0 -26 -10 -47t-26.5 -36t-37.5 -23t-43 -8q-9 0 -14 1q-10 -23 -21.5 -50.5t-22 -57.5t-17.5 -61t-7 -61q4 -26 12 -37t19 -11zM25 77q3 -39 17.5 -54t35.5 -14.5t46 13.5t49.5 31t46 38t35.5 34q-34 13 -47.5 35.5
t-13.5 48.5q0 24 10 49.5t28.5 46t44 34.5t55.5 16q-17 18 -42 18q-24 0 -53.5 -14t-59.5 -37t-58.5 -53.5t-50 -63.5t-33.5 -66t-10 -62zM1138 716q-36 0 -67.5 -13t-60 -34t-54 -48.5t-48.5 -56.5q7 -3 14.5 -4.5t12.5 -1.5q6 25 31 46t57.5 33t66.5 14t58 -11
q-6 -25 -28 -43.5t-52 -30.5t-62.5 -17t-58.5 -3q9 -27 31 -35t50 -2t58.5 23t57 39.5t45 48t22.5 48.5q0 25 -20.5 36.5t-52.5 11.5zM1062 298q-19 0 -44.5 -9.5t-51.5 -26.5t-50 -39.5t-40.5 -48t-23 -53t3.5 -54.5q35 19 69 44.5t62 56t49 63.5t30 67h-4zM269 144
q1 0 2 1.5t2 2.5q39 38 74 83t54 99q-12 2 -21 5.5t-21 4.5q-4 -48 -30 -69t-68 -32q12 6 25 12t24 15.5t18.5 23.5t7.5 37v8q-26 0 -48.5 -11t-39 -29t-26 -40.5t-9.5 -44.5q0 -24 14 -42.5t42 -23.5zM474 321q22 -6 47 -11t48 -5q3 6 13.5 26t22 44t22 45.5t14.5 30.5
q-34 -5 -52 -24.5t-29 -48.5q1 18 8.5 34t20 28.5t28.5 20t33 8.5q24 46 51 90t58 83q-1 2 -1 3.5t-1 3.5q-38 -29 -75 -68t-72 -82.5t-69 -89.5t-67 -88zM948 557q22 -2 51 2t56 14t48 25t28 35q-18 10 -47.5 7t-59 -15t-51.5 -30.5t-25 -37.5zM664 453q-23 -39 -38 -74
t-32 -72q3 -1 10 -1q18 0 35 8t29.5 20.5t20.5 29t8 33.5t-8 31.5t-25 24.5z" />
    <glyph glyph-name="Ccedilla" unicode="&#xc7;" horiz-adv-x="406" 
d="M392 300q-8 -53 -44 -105t-83.5 -94t-98.5 -69.5t-90 -31.5q-5 8 -13 0q-7 0 -13 2.5t-11 5.5q-17 12 -22.5 39t-2.5 61.5t12 72t20.5 71t23 59t19.5 35.5q0 18 -5.5 31t-21.5 24q29 0 50 13t42 33q24 20 42 46q-23 2 -45 8.5t-39 17t-28 25.5t-11 34q0 20 13.5 37
t34.5 29.5t46 19.5t49 7q27 0 46 -10.5t21 -34.5q0 -26 -22.5 -39.5t-50.5 -13.5q-26 0 -41 12q10 -6 26.5 -6.5t32.5 4t27 14.5t11 27q0 13 -13 22t-44 9q-19 0 -40 -6t-38 -16t-28.5 -23t-11.5 -27q0 -16 10.5 -29.5t27 -24t36 -16.5t37.5 -6h6q24 27 57 64t70 71t74.5 59
t69.5 28q21 -24 27.5 -56t1.5 -66t-19.5 -67t-35 -59t-46 -42.5t-51.5 -16.5q-13 0 -23 7t-16 17.5t-8 22.5t0 23q-12 -2 -23.5 -4t-25.5 -2q-33 -44 -72 -98t-72 -111t-55 -113.5t-22 -105.5q1 -23 12 -31.5t31 -6.5q46 6 96.5 37t94 73t76 88t43.5 82zM328 497
q-2 -8 -2.5 -18t2.5 -19t9.5 -15.5t18.5 -7.5q36 1 65 27.5t47 63.5t24 76t-5 65q-35 -11 -64 -29.5t-54.5 -41t-48.5 -47.5l-46 -50q11 0 20 2t18 5q3 12 14.5 28.5t29 31.5t38.5 25.5t43 10.5q18 0 33 -8q-8 -21 -26.5 -38t-39.5 -29.5t-42 -20.5t-34 -11zM124 -135
q-10 -32 -35 -45t-54.5 -12.5t-57.5 11t-44 26.5q34 -15 68 -12.5t54.5 16t19.5 35.5t-36 47q-3 4 -2 13t4.5 19.5t9.5 20.5t12 16h13q-1 -15 -3 -32t7 -30q9 -2 18.5 -9t16.5 -17t10 -22.5t-1 -24.5zM445 589q-13 0 -30 -6t-33.5 -16t-29.5 -23.5t-19 -28.5q15 4 32 11
t32.5 16.5t28 21t19.5 25.5z" />
    <glyph glyph-name="Egrave" unicode="&#xc8;" horiz-adv-x="479" 
d="M239 38q8 -14 25 -21.5t35.5 -7.5t35 7.5t25.5 21.5q-7 -8 -21 -13.5t-30 -6t-30.5 5t-23.5 20.5q32 17 70.5 47.5t71.5 66.5t55 75t21 72q-17 3 -44.5 -5t-58.5 -25t-61 -41t-51 -53t-29.5 -62.5t4.5 -67.5q-14 -9 -34.5 -18t-42 -15t-42.5 -7t-37 7t-24.5 26t-5.5 50
q1 12 13.5 37t34 56.5t50.5 66t64.5 66t75 56t81.5 35.5q-38 2 -62 15t-33.5 32t-4.5 42t26 45q9 -3 19 -5t14 -2h2q10 -35 35 -45.5t56.5 -4.5t66 25.5t64 45.5t49 55.5t20.5 54.5q0 19 -10 30t-24 17t-30 7.5t-29 1.5q-36 0 -77 -14.5t-80 -36.5t-74 -48.5t-59 -50.5
q-17 0 -30.5 8t-23.5 20.5t-15 27t-5 28.5q0 8 5 17.5t13.5 17.5t20 13t23.5 5q19 0 27 -9.5t8 -22.5q0 -15 -9.5 -29.5t-23.5 -18.5q23 2 35.5 17t12.5 32t-12 30.5t-37 13.5q-35 0 -55.5 -22t-20.5 -47q0 -32 21.5 -59t54.5 -34q-3 -4 -11.5 -12.5t-16.5 -19.5t-14 -22.5
t-6 -20.5q-2 -24 11.5 -44.5t39.5 -28.5q-9 -7 -22.5 -12t-27.5 -7.5t-27 -1.5t-22 6q4 -5 8.5 -10t7.5 -11.5t2.5 -15t-6.5 -18.5q-20 -21 -45 -52.5t-47 -66t-37.5 -68.5t-16.5 -61q0 -21 8.5 -39.5t23 -32.5t33 -22t39.5 -8q38 -1 73.5 13t67.5 30zM454 289h4
q-9 -34 -30 -67t-49 -63.5t-62 -56t-69 -44.5q-10 27 -3.5 54.5t23 53t40.5 48t50 39.5t51.5 26.5t44.5 9.5zM530 707q32 0 52.5 -11.5t20.5 -36.5q-4 -23 -22.5 -48.5t-45 -48t-57 -39.5t-58.5 -23t-50 2t-31 35q26 -2 58.5 3t62.5 17t52 30.5t28 43.5q-24 13 -58 11
t-66.5 -14t-57.5 -33t-31 -46q-5 0 -12.5 1.5t-14.5 4.5q23 29 48.5 56.5t54 48.5t60 34t67.5 13zM340 548q3 19 25 37.5t51.5 30.5t59 15t47.5 -7q-7 -20 -28 -35t-48 -25t-56 -14t-51 -2zM508 737q-11 10 -24.5 22.5t-28 23t-28.5 17.5t-26 6q6 10 5.5 18.5t-3 17t-3.5 17
t5 17.5q34 -25 64 -60.5t39 -78.5z" />
    <glyph glyph-name="Eacute" unicode="&#xc9;" horiz-adv-x="479" 
d="M239 38q-32 -16 -67.5 -30t-73.5 -13q-21 0 -39.5 8t-33 22t-23 32.5t-8.5 39.5q1 27 16.5 61t37.5 68.5t47 66t45 52.5q6 10 6.5 18.5t-2.5 15t-7.5 11.5t-8.5 10q9 -5 22 -6t27 1.5t27.5 7.5t22.5 12q-26 8 -39.5 28.5t-11.5 44.5q0 9 6 20.5t14 22.5t16.5 19.5
t11.5 12.5q-33 7 -54.5 34t-21.5 59q0 25 20.5 47t55.5 22q25 0 37 -13.5t12 -30.5t-12.5 -32t-35.5 -17q14 4 23.5 18.5t9.5 29.5q0 13 -8 22.5t-27 9.5q-12 0 -23.5 -5t-20 -13t-13.5 -17.5t-5 -17.5q0 -14 5 -28.5t15 -27t23.5 -20.5t30.5 -8q24 24 59 50.5t74 48.5
t80 36.5t77 14.5q13 0 29 -1.5t30 -7.5t24 -17t10 -30q-1 -25 -20.5 -54.5t-49 -55.5t-64 -45.5t-66 -25.5t-56.5 4.5t-35 45.5h-2q-4 0 -14 2t-19 5q-21 -22 -26 -45t4.5 -42t33.5 -32t62 -15q-42 -11 -81.5 -35.5t-75 -56t-64.5 -66t-50.5 -66t-34 -56.5t-13.5 -37
q-3 -32 5.5 -50t24.5 -26t37 -7t42.5 7t42 15t34.5 18q-13 34 -4.5 67.5t29.5 62.5t51 53t61 41t58.5 25t44.5 5q1 -33 -21 -72t-55 -75t-71.5 -66.5t-70.5 -47.5q9 -15 23.5 -20.5t30.5 -5t30 6t21 13.5q-9 -14 -25.5 -21.5t-35 -7.5t-35.5 7.5t-25 21.5zM454 289
q-19 0 -44.5 -9.5t-51.5 -26.5t-50 -39.5t-40.5 -48t-23 -53t3.5 -54.5q35 19 69 44.5t62 56t49 63.5t30 67h-4zM530 707q-36 0 -67.5 -13t-60 -34t-54 -48.5t-48.5 -56.5q7 -3 14.5 -4.5t12.5 -1.5q6 25 31 46t57.5 33t66.5 14t58 -11q-6 -25 -28 -43.5t-52 -30.5
t-62.5 -17t-58.5 -3q9 -27 31 -35t50 -2t58.5 23t57 39.5t45 48t22.5 48.5q0 25 -20.5 36.5t-52.5 11.5zM340 548q22 -2 51 2t56 14t48 25t28 35q-18 10 -47.5 7t-59 -15t-51.5 -30.5t-25 -37.5zM464 735q0 30 12.5 61t28.5 57.5t30.5 46t19.5 27.5q8 -8 9 -18.5t2 -22
t4 -22t14 -18.5q-10 4 -28 -7t-37 -29t-34.5 -38.5t-20.5 -36.5z" />
    <glyph glyph-name="Ecircumflex" unicode="&#xca;" horiz-adv-x="479" 
d="M239 38q8 -14 25 -21.5t35.5 -7.5t35 7.5t25.5 21.5q-7 -8 -21 -13.5t-30 -6t-30.5 5t-23.5 20.5q32 17 70.5 47.5t71.5 66.5t55 75t21 72q-17 3 -44.5 -5t-58.5 -25t-61 -41t-51 -53t-29.5 -62.5t4.5 -67.5q-14 -9 -34.5 -18t-42 -15t-42.5 -7t-37 7t-24.5 26t-5.5 50
q1 12 13.5 37t34 56.5t50.5 66t64.5 66t75 56t81.5 35.5q-38 2 -62 15t-33.5 32t-4.5 42t26 45q9 -3 19 -5t14 -2h2q10 -35 35 -45.5t56.5 -4.5t66 25.5t64 45.5t49 55.5t20.5 54.5q0 19 -10 30t-24 17t-30 7.5t-29 1.5q-36 0 -77 -14.5t-80 -36.5t-74 -48.5t-59 -50.5
q-17 0 -30.5 8t-23.5 20.5t-15 27t-5 28.5q0 8 5 17.5t13.5 17.5t20 13t23.5 5q19 0 27 -9.5t8 -22.5q0 -15 -9.5 -29.5t-23.5 -18.5q23 2 35.5 17t12.5 32t-12 30.5t-37 13.5q-35 0 -55.5 -22t-20.5 -47q0 -32 21.5 -59t54.5 -34q-3 -4 -11.5 -12.5t-16.5 -19.5t-14 -22.5
t-6 -20.5q-2 -24 11.5 -44.5t39.5 -28.5q-9 -7 -22.5 -12t-27.5 -7.5t-27 -1.5t-22 6q4 -5 8.5 -10t7.5 -11.5t2.5 -15t-6.5 -18.5q-20 -21 -45 -52.5t-47 -66t-37.5 -68.5t-16.5 -61q0 -21 8.5 -39.5t23 -32.5t33 -22t39.5 -8q38 -1 73.5 13t67.5 30zM454 289h4
q-9 -34 -30 -67t-49 -63.5t-62 -56t-69 -44.5q-10 27 -3.5 54.5t23 53t40.5 48t50 39.5t51.5 26.5t44.5 9.5zM530 707q32 0 52.5 -11.5t20.5 -36.5q-4 -23 -22.5 -48.5t-45 -48t-57 -39.5t-58.5 -23t-50 2t-31 35q26 -2 58.5 3t62.5 17t52 30.5t28 43.5q-24 13 -58 11
t-66.5 -14t-57.5 -33t-31 -46q-5 0 -12.5 1.5t-14.5 4.5q23 29 48.5 56.5t54 48.5t60 34t67.5 13zM340 548q3 19 25 37.5t51.5 30.5t59 15t47.5 -7q-7 -20 -28 -35t-48 -25t-56 -14t-51 -2zM514 841q5 -13 13.5 -29t22 -28.5t33.5 -17t47 5.5q-22 -18 -41 -21.5t-34.5 0.5
t-26 13t-16.5 17q-8 -14 -25.5 -23t-37 -11t-37.5 3.5t-27 21.5q15 -11 35 -9.5t38.5 12t34 28t21.5 38.5z" />
    <glyph glyph-name="Edieresis" unicode="&#xcb;" horiz-adv-x="479" 
d="M239 38q-32 -16 -67.5 -30t-73.5 -13q-21 0 -39.5 8t-33 22t-23 32.5t-8.5 39.5q1 27 16.5 61t37.5 68.5t47 66t45 52.5q6 10 6.5 18.5t-2.5 15t-7.5 11.5t-8.5 10q9 -5 22 -6t27 1.5t27.5 7.5t22.5 12q-26 8 -39.5 28.5t-11.5 44.5q0 9 6 20.5t14 22.5t16.5 19.5
t11.5 12.5q-33 7 -54.5 34t-21.5 59q0 25 20.5 47t55.5 22q25 0 37 -13.5t12 -30.5t-12.5 -32t-35.5 -17q14 4 23.5 18.5t9.5 29.5q0 13 -8 22.5t-27 9.5q-12 0 -23.5 -5t-20 -13t-13.5 -17.5t-5 -17.5q0 -14 5 -28.5t15 -27t23.5 -20.5t30.5 -8q24 24 59 50.5t74 48.5
t80 36.5t77 14.5q13 0 29 -1.5t30 -7.5t24 -17t10 -30q-1 -25 -20.5 -54.5t-49 -55.5t-64 -45.5t-66 -25.5t-56.5 4.5t-35 45.5h-2q-4 0 -14 2t-19 5q-21 -22 -26 -45t4.5 -42t33.5 -32t62 -15q-42 -11 -81.5 -35.5t-75 -56t-64.5 -66t-50.5 -66t-34 -56.5t-13.5 -37
q-3 -32 5.5 -50t24.5 -26t37 -7t42.5 7t42 15t34.5 18q-13 34 -4.5 67.5t29.5 62.5t51 53t61 41t58.5 25t44.5 5q1 -33 -21 -72t-55 -75t-71.5 -66.5t-70.5 -47.5q9 -15 23.5 -20.5t30.5 -5t30 6t21 13.5q-9 -14 -25.5 -21.5t-35 -7.5t-35.5 7.5t-25 21.5zM454 289
q-19 0 -44.5 -9.5t-51.5 -26.5t-50 -39.5t-40.5 -48t-23 -53t3.5 -54.5q35 19 69 44.5t62 56t49 63.5t30 67h-4zM530 707q-36 0 -67.5 -13t-60 -34t-54 -48.5t-48.5 -56.5q7 -3 14.5 -4.5t12.5 -1.5q6 25 31 46t57.5 33t66.5 14t58 -11q-6 -25 -28 -43.5t-52 -30.5
t-62.5 -17t-58.5 -3q9 -27 31 -35t50 -2t58.5 23t57 39.5t45 48t22.5 48.5q0 25 -20.5 36.5t-52.5 11.5zM340 548q22 -2 51 2t56 14t48 25t28 35q-18 10 -47.5 7t-59 -15t-51.5 -30.5t-25 -37.5zM465 814q6 -11 3.5 -24.5t-11.5 -24t-24 -16t-35 0.5q-4 15 -0.5 29t12.5 23
t23 12.5t32 -0.5zM618 814q6 -11 3.5 -24.5t-11.5 -24t-24 -16t-35 0.5q-4 15 -0.5 29t12.5 23t23 12.5t32 -0.5z" />
    <glyph glyph-name="Igrave" unicode="&#xcc;" horiz-adv-x="385" 
d="M240 239q27 -8 49 -4.5t39 14t27.5 25.5t13.5 32q3 23 -8 34t-25.5 11t-27.5 -10t-14 -29q4 12 15.5 19t22.5 7t19 -7.5t6 -24.5q-2 -13 -11 -26t-23.5 -22t-34 -12t-43.5 5q22 75 50.5 144.5t65.5 131t83 113t102 89.5q-45 5 -97 -3.5t-103.5 -28.5t-98.5 -50.5t-82 -69
t-53.5 -84t-12.5 -96.5q-26 -4 -45.5 -18.5t-30.5 -35.5q-18 -33 -18.5 -67.5t10.5 -69t32 -67t46.5 -61t53.5 -52t53 -39.5q-2 37 2 75.5t10.5 72.5t14 61.5t13.5 42.5zM100 382q7 -26 22.5 -51.5t32.5 -40.5q-4 -7 -12 -12t-17.5 -8.5t-19.5 -5t-18 0.5q20 -8 42 -3.5
t35 19.5q5 -7 16 -14.5t22 -12.5q-8 -51 -15.5 -114t-7.5 -120q-29 18 -58.5 46.5t-52.5 62t-37 71t-12 75.5q2 40 22 69.5t58 37.5zM217 345q-2 -22 -5.5 -37t-5.5 -39q-14 7 -20.5 12t-13.5 13q9 20 8 38t-9.5 31.5t-23 22.5t-32.5 11q-5 62 22 113t71 90t97.5 65
t100.5 38q-44 -58 -84.5 -124.5t-78.5 -133.5q-11 -20 -29.5 -32.5t-34.5 -12.5q12 -6 19 -11t11 -11t5 -14t3 -19zM118 383q15 -1 25.5 -9t16.5 -20t6.5 -25t-5.5 -25q-13 13 -25 33t-18 46zM487 755q-11 10 -24.5 22.5t-28 23t-28.5 17.5t-26 6q6 10 5.5 18.5t-3 17
t-3.5 17t5 17.5q34 -25 64 -60.5t39 -78.5z" />
    <glyph glyph-name="Iacute" unicode="&#xcd;" horiz-adv-x="385" 
d="M240 239q-6 -15 -13.5 -42.5t-14 -61.5t-10.5 -72.5t-2 -75.5q-25 16 -53 39.5t-53.5 52t-46.5 61t-32 67t-10.5 69t18.5 67.5q11 21 30.5 35.5t45.5 18.5q-6 51 12.5 96.5t53.5 84t82 69t98.5 50.5t103.5 28.5t97 3.5q-56 -38 -102 -89.5t-83 -113t-65.5 -131
t-50.5 -144.5q24 -8 43.5 -5t34 12t23.5 22t11 26q2 17 -6 24.5t-19 7.5t-22.5 -7t-15.5 -19q1 19 14 29t27.5 10t25.5 -11t8 -34q-3 -17 -13.5 -32t-27.5 -25.5t-39 -14t-49 4.5zM100 382q-38 -8 -58 -37.5t-22 -69.5q-2 -38 12 -75.5t37 -71t52.5 -62t58.5 -46.5
q0 57 7.5 120t15.5 114q-11 5 -22 12.5t-16 14.5q-13 -15 -35 -19.5t-42 3.5q8 -2 18 -0.5t19.5 5t17.5 8.5t12 12q-17 15 -32.5 40.5t-22.5 51.5zM217 345q-2 11 -3 19t-5 14t-11 11t-19 11q16 0 34.5 12.5t29.5 32.5q38 67 78.5 133.5t84.5 124.5q-47 -12 -100.5 -38
t-97.5 -65t-71 -90t-22 -113q18 -2 32.5 -11t23 -22.5t9.5 -31.5t-8 -38q7 -8 13.5 -13t20.5 -12q2 24 5.5 39t5.5 37zM118 383q6 -26 18 -46t25 -33q6 12 5.5 25t-6.5 25t-16.5 20t-25.5 9zM401 744q0 30 12.5 61t28.5 57.5t30.5 46t19.5 27.5q8 -8 9 -18.5t2 -22t4 -22
t14 -18.5q-10 4 -28 -7t-37 -29t-34.5 -38.5t-20.5 -36.5z" />
    <glyph glyph-name="Icircumflex" unicode="&#xce;" horiz-adv-x="385" 
d="M240 239q27 -8 49 -4.5t39 14t27.5 25.5t13.5 32q3 23 -8 34t-25.5 11t-27.5 -10t-14 -29q4 12 15.5 19t22.5 7t19 -7.5t6 -24.5q-2 -13 -11 -26t-23.5 -22t-34 -12t-43.5 5q22 75 50.5 144.5t65.5 131t83 113t102 89.5q-45 5 -97 -3.5t-103.5 -28.5t-98.5 -50.5t-82 -69
t-53.5 -84t-12.5 -96.5q-26 -4 -45.5 -18.5t-30.5 -35.5q-18 -33 -18.5 -67.5t10.5 -69t32 -67t46.5 -61t53.5 -52t53 -39.5q-2 37 2 75.5t10.5 72.5t14 61.5t13.5 42.5zM100 382q7 -26 22.5 -51.5t32.5 -40.5q-4 -7 -12 -12t-17.5 -8.5t-19.5 -5t-18 0.5q20 -8 42 -3.5
t35 19.5q5 -7 16 -14.5t22 -12.5q-8 -51 -15.5 -114t-7.5 -120q-29 18 -58.5 46.5t-52.5 62t-37 71t-12 75.5q2 40 22 69.5t58 37.5zM217 345q-2 -22 -5.5 -37t-5.5 -39q-14 7 -20.5 12t-13.5 13q9 20 8 38t-9.5 31.5t-23 22.5t-32.5 11q-5 62 22 113t71 90t97.5 65
t100.5 38q-44 -58 -84.5 -124.5t-78.5 -133.5q-11 -20 -29.5 -32.5t-34.5 -12.5q12 -6 19 -11t11 -11t5 -14t3 -19zM118 383q15 -1 25.5 -9t16.5 -20t6.5 -25t-5.5 -25q-13 13 -25 33t-18 46zM448 865q5 -13 13.5 -29t22 -28.5t33.5 -17t47 5.5q-22 -18 -41 -21.5t-34.5 0.5
t-26 13t-16.5 17q-8 -14 -25.5 -23t-37 -11t-37.5 3.5t-27 21.5q15 -11 35 -9.5t38.5 12t34 28t21.5 38.5z" />
    <glyph glyph-name="Idieresis" unicode="&#xcf;" horiz-adv-x="385" 
d="M240 239q-6 -15 -13.5 -42.5t-14 -61.5t-10.5 -72.5t-2 -75.5q-25 16 -53 39.5t-53.5 52t-46.5 61t-32 67t-10.5 69t18.5 67.5q11 21 30.5 35.5t45.5 18.5q-6 51 12.5 96.5t53.5 84t82 69t98.5 50.5t103.5 28.5t97 3.5q-56 -38 -102 -89.5t-83 -113t-65.5 -131
t-50.5 -144.5q24 -8 43.5 -5t34 12t23.5 22t11 26q2 17 -6 24.5t-19 7.5t-22.5 -7t-15.5 -19q1 19 14 29t27.5 10t25.5 -11t8 -34q-3 -17 -13.5 -32t-27.5 -25.5t-39 -14t-49 4.5zM100 382q-38 -8 -58 -37.5t-22 -69.5q-2 -38 12 -75.5t37 -71t52.5 -62t58.5 -46.5
q0 57 7.5 120t15.5 114q-11 5 -22 12.5t-16 14.5q-13 -15 -35 -19.5t-42 3.5q8 -2 18 -0.5t19.5 5t17.5 8.5t12 12q-17 15 -32.5 40.5t-22.5 51.5zM217 345q-2 11 -3 19t-5 14t-11 11t-19 11q16 0 34.5 12.5t29.5 32.5q38 67 78.5 133.5t84.5 124.5q-47 -12 -100.5 -38
t-97.5 -65t-71 -90t-22 -113q18 -2 32.5 -11t23 -22.5t9.5 -31.5t-8 -38q7 -8 13.5 -13t20.5 -12q2 24 5.5 39t5.5 37zM118 383q6 -26 18 -46t25 -33q6 12 5.5 25t-6.5 25t-16.5 20t-25.5 9zM410 836q6 -11 3.5 -24.5t-11.5 -24t-24 -16t-35 0.5q-4 15 -0.5 29t12.5 23
t23 12.5t32 -0.5zM563 836q6 -11 3.5 -24.5t-11.5 -24t-24 -16t-35 0.5q-4 15 -0.5 29t12.5 23t23 12.5t32 -0.5z" />
    <glyph glyph-name="Eth" unicode="&#xd0;" horiz-adv-x="509" 
d="M77 -46q-8 11 -10 22t-2 21q-20 0 -38 7t-32 19t-22.5 28.5t-8.5 35.5q0 27 14 48.5t36 38t48 27t49 15.5q2 9 5.5 16.5t5.5 16.5q-20 11 -32 32t-17 47q-29 2 -55 1.5t-49 -8.5q14 14 41.5 21.5t60.5 11.5q0 43 23 79.5t57.5 67.5t74 55t74.5 42q5 6 8 15.5t4 18.5
t0.5 17t-1.5 12q14 -5 31.5 1.5t36 16.5t38.5 18.5t39 7.5q-13 -8 -26 -24.5t-18 -32.5q47 20 104.5 36.5t115.5 21.5q18 -63 1 -138t-58 -152t-100.5 -150t-127 -131t-137 -96t-129.5 -45q-3 -5 -4.5 -18.5t0.5 -21.5zM268 307q-14 -1 -29 -0.5t-31 2.5q-8 -14 -14.5 -27
t-12.5 -24q69 19 119 59q1 29 11.5 69.5t30.5 81t49.5 74.5t70.5 49q9 3 9 -11q0 -46 -15.5 -85.5t-39 -73t-51 -61t-50.5 -49.5q-2 -28 11.5 -50.5t30.5 -35.5q-29 12 -40 30.5t-15 44.5q-29 -18 -60.5 -34t-69.5 -25q-3 -5 -4.5 -9.5t-4.5 -11.5q46 -3 65.5 -23.5t16 -45
t-29 -45t-68.5 -22.5q31 6 52 23.5t26 37t-9 36.5t-54 22h-5q-4 -4 -14.5 -30.5t-22.5 -59.5t-22 -63t-13 -42q50 6 106.5 39.5t111 86.5t103.5 120.5t85.5 139.5t56 144.5t15.5 136.5q-24 -2 -48.5 -7.5t-46 -13t-39.5 -15.5t-30 -14q-21 -22 -41.5 -52t-41 -63.5t-40 -70
t-37.5 -71.5q29 5 44 15q0 -10 -5 -19.5t-9.5 -18.5t-5.5 -18.5t5 -19.5zM107 200q-18 -3 -39.5 -13t-41 -24.5t-32.5 -34t-13 -41.5q0 -29 23.5 -52.5t61.5 -23.5q4 54 15.5 99.5t25.5 89.5zM287 573q-30 -14 -64.5 -36.5t-64.5 -51t-50.5 -61.5t-22.5 -69q17 2 33.5 3
t33.5 3q-5 12 -14.5 23t-20.5 16q28 2 49 16t38 32q26 27 45 61t38 64zM457 571q-23 -8 -46.5 -31t-43 -56t-33.5 -72.5t-20 -81.5q24 24 47.5 49t43 54t33 63t19.5 75zM126 264q3 5 9.5 21.5t12.5 31.5q-16 2 -31 4.5t-31 4.5q3 -16 11.5 -29.5t28.5 -32.5z" />
    <glyph glyph-name="Ntilde" unicode="&#xd1;" horiz-adv-x="667" 
d="M913 580q36 38 45.5 62.5t-1 31.5t-37.5 -4.5t-63 -44.5q-40 -37 -81.5 -82.5t-80.5 -96.5t-73.5 -106.5t-60.5 -112.5t-42.5 -114.5t-18.5 -112.5q-25 28 -34.5 80.5t-7.5 118t12.5 138.5t26 141.5t33 127t33.5 95.5q-60 -77 -122.5 -159.5t-119.5 -169.5t-105 -178.5
t-79 -187.5q-33 25 -57 63.5t-39.5 82t-22 89.5t-5.5 87q1 27 9.5 62t25.5 64.5t42 46.5t58 7q39 53 90.5 92t105.5 74q-13 15 -31 19t-35 -1t-30.5 -18t-17.5 -32q-5 28 10 44.5t37.5 21.5t46 -2t34.5 -25q22 12 54.5 23t67.5 16.5t68.5 3.5t57.5 -17q-11 -4 -21.5 -21
t-19.5 -38.5t-15.5 -43t-9.5 -34.5q-13 -52 -27 -117.5t-23 -130.5t-11 -124t8 -98q19 72 48.5 143t68 137.5t83.5 128t94 114.5q14 15 38.5 39t53 45.5t58.5 33.5t55 3q19 -11 20 -32t-10.5 -45.5t-33.5 -48t-49 -38.5zM137 497q-21 1 -36.5 -8.5t-27.5 -26.5
q-28 -39 -37.5 -96t-2 -117.5t32 -118t65.5 -97.5q9 33 23 73t30 81.5t33 82.5t32 75q7 17 -0.5 32t-21.5 23q24 0 45.5 15.5t33.5 32.5q16 27 36.5 61t42 69.5t43 68t41.5 56.5q-30 -7 -55.5 -16.5t-48.5 -21.5q11 -32 -3.5 -67.5t-42 -66.5t-63 -55t-66.5 -34
q3 -17 3.5 -41.5t-5.5 -48t-19 -42t-36 -24.5q-22 -4 -36 7.5t-19 29t0 36t22 28.5q-7 -11 -9.5 -26t0 -28.5t11.5 -23t25 -8.5q17 1 27.5 15t16 34.5t6.5 43.5t-1 43q-17 -6 -32 -5.5t-29 5.5q-2 14 7 31.5t15 28.5zM135 451q8 -3 20 -2t18 4q-7 20 -21 34q-7 -5 -11 -16
t-6 -20zM160 503q7 -12 15 -21.5t11 -23.5q30 12 60.5 30.5t54.5 43.5t38.5 56.5t12.5 68.5q-57 -30 -103.5 -65.5t-88.5 -88.5zM826 831q-12 -45 -29 -61t-37 -16.5t-42 8.5t-44 15.5t-42 4t-36 -26.5q13 37 33 50.5t43 13.5t46.5 -7.5t45 -11.5t38 1t24.5 30z" />
    <glyph glyph-name="Ograve" unicode="&#xd2;" 
d="M435 657q2 9 6 27.5t5 38.5t-2.5 38.5t-15.5 27.5q-41 -18 -83.5 -59t-81 -89t-70.5 -96.5t-53 -81.5q-6 -1 -12.5 2t-12 8t-9.5 11t-4 12q-2 17 9.5 28t26.5 9q-7 10 -17 9.5t-18.5 -7.5t-13.5 -19t-2 -25q3 -16 17 -25.5t28 -15.5q-5 -8 -14 -16.5t-20.5 -15.5
t-24.5 -12t-25 -6q10 -5 17 -9t10.5 -9.5t5.5 -14.5t3 -24q-1 -15 -7.5 -45.5t-13 -68.5t-10.5 -79t-1.5 -76.5t15 -61t38.5 -31.5q70 17 126.5 59.5t100.5 99.5t75.5 123t50.5 132q7 25 16.5 61t13.5 73.5t-0.5 71t-25.5 51.5q-11 8 -27 5zM111 0q-3 0 -9 2q-15 7 -16.5 35
t5 68t20 88t29.5 95t33 88.5t31 68.5q20 0 35 4.5t32 13.5q-5 -14 -9 -32.5t-5 -37t2 -35.5t11 -28q12 -17 26.5 -17t26.5 10t18.5 25t2.5 29q-5 -18 -13 -27.5t-16 -13.5t-15.5 -2t-11.5 8q-7 9 -9.5 27t-1.5 38t5 39t12 31q50 28 82.5 67.5t52.5 93.5q16 4 26.5 -8
t13.5 -37q4 -43 -5.5 -100t-30.5 -119.5t-53 -124.5t-73 -114t-90.5 -88t-105.5 -47zM306 600q26 32 54 61.5t64 48.5q2 -15 -0.5 -31.5t-6.5 -27.5q-48 -26 -83.5 -71t-55.5 -98q-12 -8 -29.5 -14.5t-35.5 -7.5q23 34 45 71t48 69zM411 631q-5 -19 -17 -39.5t-28 -38.5
t-33 -33t-33 -24q9 19 21 38.5t26 37.5t30.5 33t33.5 26zM394 788q-11 10 -24.5 22.5t-28 23t-28.5 17.5t-26 6q6 10 5.5 18.5t-3 17t-3.5 17t5 17.5q34 -25 64 -60.5t39 -78.5z" />
    <glyph glyph-name="Oacute" unicode="&#xd3;" 
d="M435 657q16 3 27 -5q21 -18 25.5 -51.5t0.5 -71t-13.5 -73.5t-16.5 -61q-19 -66 -50.5 -132t-75.5 -123t-100.5 -99.5t-126.5 -59.5q-26 6 -38.5 31.5t-15 61t1.5 76.5t10.5 79t13 68.5t7.5 45.5q-1 15 -3 24t-5.5 14.5t-10.5 9.5t-17 9q12 1 25 6t24.5 12t20.5 15.5
t14 16.5q-14 6 -28 15.5t-17 25.5q-3 13 2 25t13.5 19t18.5 7.5t17 -9.5q-15 2 -26.5 -9t-9.5 -28q0 -6 4 -12t9.5 -11t12 -8t12.5 -2q21 33 53 81.5t70.5 96.5t81 89t83.5 59q12 -9 15.5 -27.5t2.5 -38.5t-5 -38.5t-6 -27.5zM111 0q56 11 105.5 47t90.5 88t73 114t53 124.5
t30.5 119.5t5.5 100q-3 25 -13.5 37t-26.5 8q-20 -54 -52.5 -93.5t-82.5 -67.5q-8 -12 -12 -31t-5 -39t1.5 -38t9.5 -27q4 -6 11.5 -8t15.5 2t16 13.5t13 27.5q4 -14 -2.5 -29t-18.5 -25t-26.5 -10t-26.5 17q-8 11 -11 28t-2 35.5t5 37t9 32.5q-17 -9 -32 -13.5t-35 -4.5
q-14 -27 -31 -68.5t-33 -88.5t-29.5 -95t-20 -88t-5 -68t16.5 -35q6 -2 9 -2zM306 600q-26 -32 -48 -69t-45 -71q18 1 35.5 7.5t29.5 14.5q20 53 55.5 98t83.5 71q4 11 6.5 27.5t0.5 31.5q-36 -19 -64 -48.5t-54 -61.5zM411 631q-17 -11 -33.5 -26t-30.5 -33t-26 -37.5
t-21 -38.5q16 9 33 24t33 33t28 38.5t17 39.5zM367 779q0 30 12.5 61t28.5 57.5t30.5 46t19.5 27.5q8 -8 9 -18.5t2 -22t4 -22t14 -18.5q-10 4 -28 -7t-37 -29t-34.5 -38.5t-20.5 -36.5z" />
    <glyph glyph-name="Ocircumflex" unicode="&#xd4;" 
d="M435 657q2 9 6 27.5t5 38.5t-2.5 38.5t-15.5 27.5q-41 -18 -83.5 -59t-81 -89t-70.5 -96.5t-53 -81.5q-6 -1 -12.5 2t-12 8t-9.5 11t-4 12q-2 17 9.5 28t26.5 9q-7 10 -17 9.5t-18.5 -7.5t-13.5 -19t-2 -25q3 -16 17 -25.5t28 -15.5q-5 -8 -14 -16.5t-20.5 -15.5
t-24.5 -12t-25 -6q10 -5 17 -9t10.5 -9.5t5.5 -14.5t3 -24q-1 -15 -7.5 -45.5t-13 -68.5t-10.5 -79t-1.5 -76.5t15 -61t38.5 -31.5q70 17 126.5 59.5t100.5 99.5t75.5 123t50.5 132q7 25 16.5 61t13.5 73.5t-0.5 71t-25.5 51.5q-11 8 -27 5zM111 0q-3 0 -9 2q-15 7 -16.5 35
t5 68t20 88t29.5 95t33 88.5t31 68.5q20 0 35 4.5t32 13.5q-5 -14 -9 -32.5t-5 -37t2 -35.5t11 -28q12 -17 26.5 -17t26.5 10t18.5 25t2.5 29q-5 -18 -13 -27.5t-16 -13.5t-15.5 -2t-11.5 8q-7 9 -9.5 27t-1.5 38t5 39t12 31q50 28 82.5 67.5t52.5 93.5q16 4 26.5 -8
t13.5 -37q4 -43 -5.5 -100t-30.5 -119.5t-53 -124.5t-73 -114t-90.5 -88t-105.5 -47zM306 600q26 32 54 61.5t64 48.5q2 -15 -0.5 -31.5t-6.5 -27.5q-48 -26 -83.5 -71t-55.5 -98q-12 -8 -29.5 -14.5t-35.5 -7.5q23 34 45 71t48 69zM411 631q-5 -19 -17 -39.5t-28 -38.5
t-33 -33t-33 -24q9 19 21 38.5t26 37.5t30.5 33t33.5 26zM429 901q5 -13 13.5 -29t22 -28.5t33.5 -17t47 5.5q-22 -18 -41 -21.5t-34.5 0.5t-26 13t-16.5 17q-8 -14 -25.5 -23t-37 -11t-37.5 3.5t-27 21.5q15 -11 35 -9.5t38.5 12t34 28t21.5 38.5z" />
    <glyph glyph-name="Otilde" unicode="&#xd5;" 
d="M435 657q16 3 27 -5q21 -18 25.5 -51.5t0.5 -71t-13.5 -73.5t-16.5 -61q-19 -66 -50.5 -132t-75.5 -123t-100.5 -99.5t-126.5 -59.5q-26 6 -38.5 31.5t-15 61t1.5 76.5t10.5 79t13 68.5t7.5 45.5q-1 15 -3 24t-5.5 14.5t-10.5 9.5t-17 9q12 1 25 6t24.5 12t20.5 15.5
t14 16.5q-14 6 -28 15.5t-17 25.5q-3 13 2 25t13.5 19t18.5 7.5t17 -9.5q-15 2 -26.5 -9t-9.5 -28q0 -6 4 -12t9.5 -11t12 -8t12.5 -2q21 33 53 81.5t70.5 96.5t81 89t83.5 59q12 -9 15.5 -27.5t2.5 -38.5t-5 -38.5t-6 -27.5zM111 0q56 11 105.5 47t90.5 88t73 114t53 124.5
t30.5 119.5t5.5 100q-3 25 -13.5 37t-26.5 8q-20 -54 -52.5 -93.5t-82.5 -67.5q-8 -12 -12 -31t-5 -39t1.5 -38t9.5 -27q4 -6 11.5 -8t15.5 2t16 13.5t13 27.5q4 -14 -2.5 -29t-18.5 -25t-26.5 -10t-26.5 17q-8 11 -11 28t-2 35.5t5 37t9 32.5q-17 -9 -32 -13.5t-35 -4.5
q-14 -27 -31 -68.5t-33 -88.5t-29.5 -95t-20 -88t-5 -68t16.5 -35q6 -2 9 -2zM306 600q-26 -32 -48 -69t-45 -71q18 1 35.5 7.5t29.5 14.5q20 53 55.5 98t83.5 71q4 11 6.5 27.5t0.5 31.5q-36 -19 -64 -48.5t-54 -61.5zM411 631q-17 -11 -33.5 -26t-30.5 -33t-26 -37.5
t-21 -38.5q16 9 33 24t33 33t28 38.5t17 39.5zM533 881q-12 -44 -29 -60.5t-37 -17t-42 8.5t-44 15.5t-42 4t-36 -26.5q13 37 33 50.5t43 13.5t46.5 -7.5t45 -11.5t38 1t24.5 30z" />
    <glyph glyph-name="Odieresis" unicode="&#xd6;" 
d="M435 657q16 3 27 -5q21 -18 25.5 -51.5t0.5 -71t-13.5 -73.5t-16.5 -61q-19 -66 -50.5 -132t-75.5 -123t-100.5 -99.5t-126.5 -59.5q-26 6 -38.5 31.5t-15 61t1.5 76.5t10.5 79t13 68.5t7.5 45.5q-1 15 -3 24t-5.5 14.5t-10.5 9.5t-17 9q12 1 25 6t24.5 12t20.5 15.5
t14 16.5q-14 6 -28 15.5t-17 25.5q-3 13 2 25t13.5 19t18.5 7.5t17 -9.5q-15 2 -26.5 -9t-9.5 -28q0 -6 4 -12t9.5 -11t12 -8t12.5 -2q21 33 53 81.5t70.5 96.5t81 89t83.5 59q12 -9 15.5 -27.5t2.5 -38.5t-5 -38.5t-6 -27.5zM111 0q56 11 105.5 47t90.5 88t73 114t53 124.5
t30.5 119.5t5.5 100q-3 25 -13.5 37t-26.5 8q-20 -54 -52.5 -93.5t-82.5 -67.5q-8 -12 -12 -31t-5 -39t1.5 -38t9.5 -27q4 -6 11.5 -8t15.5 2t16 13.5t13 27.5q4 -14 -2.5 -29t-18.5 -25t-26.5 -10t-26.5 17q-8 11 -11 28t-2 35.5t5 37t9 32.5q-17 -9 -32 -13.5t-35 -4.5
q-14 -27 -31 -68.5t-33 -88.5t-29.5 -95t-20 -88t-5 -68t16.5 -35q6 -2 9 -2zM306 600q-26 -32 -48 -69t-45 -71q18 1 35.5 7.5t29.5 14.5q20 53 55.5 98t83.5 71q4 11 6.5 27.5t0.5 31.5q-36 -19 -64 -48.5t-54 -61.5zM411 631q-17 -11 -33.5 -26t-30.5 -33t-26 -37.5
t-21 -38.5q16 9 33 24t33 33t28 38.5t17 39.5zM383 865q6 -11 3.5 -24.5t-11.5 -24t-24 -16t-35 0.5q-4 15 -0.5 29t12.5 23t23 12.5t32 -0.5zM536 865q6 -11 3.5 -24.5t-11.5 -24t-24 -16t-35 0.5q-4 15 -0.5 29t12.5 23t23 12.5t32 -0.5z" />
    <glyph glyph-name="multiply" unicode="&#xd7;" horiz-adv-x="579" 
d="M119 567q7 -27 27 -59t46.5 -63t55.5 -58t53 -45q22 13 44 36t37 45.5t19.5 40.5t-7.5 23q9 10 22.5 10.5t29 0.5t30.5 3.5t26 17.5q-4 -26 -28 -52.5t-53.5 -52t-56 -48t-34.5 -39.5q25 -23 49.5 -49.5t45 -56.5t36 -63t21.5 -69q-7 27 -27.5 59.5t-46.5 63.5t-55 58
t-53 44q-23 -13 -44.5 -35.5t-36.5 -45t-19.5 -41t7.5 -22.5q-9 -10 -22.5 -11t-29 -1t-30.5 -3t-25 -17q3 25 27 51.5t53.5 52t56 48t34.5 40.5q-25 23 -49.5 49.5t-45 56.5t-36 62.5t-21.5 68.5z" />
    <glyph glyph-name="Oslash" unicode="&#xd8;" 
d="M136 -144q3 13 6 32.5t6.5 40t6.5 39.5t6 32q-15 -7 -27 -10.5t-29 -8.5q-26 6 -38.5 31.5t-15 61t1.5 76.5t10.5 79t13 68.5t7.5 45.5q-1 15 -3 24t-5.5 14.5t-10.5 9.5t-17 9q12 1 25 6t24.5 12t20.5 15.5t14 16.5q20 33 47.5 74.5t59 84t66.5 81.5t70 66
q12 36 24.5 71t25.5 70q-5 -31 2 -52.5t17 -41t18 -39.5t6 -47q-7 8 -26 -24q-2 -11 -3.5 -21t-3.5 -15q16 3 27 -5q21 -18 25.5 -51.5t0.5 -71t-13.5 -73.5t-16.5 -61q-17 -56 -41 -112t-57.5 -106t-76 -91.5t-95.5 -68.5q-5 -15 -12.5 -37t-15 -45.5t-14 -44.5t-10.5 -34z
M415 637q-30 -66 -60 -143.5t-58.5 -157t-54.5 -157t-48 -143.5q45 26 84 66.5t70.5 90t56 104.5t40 108t22 101.5t2.5 86.5q-3 25 -20.5 36.5t-33.5 7.5zM165 19q34 153 77.5 306t93.5 311q-20 -15 -43.5 -48.5t-48.5 -78t-49.5 -96.5t-45 -105t-36.5 -103.5t-23.5 -92.5
t-5 -71t17.5 -39q3 -2 9 -2q16 3 27.5 7t26.5 12z" />
    <glyph glyph-name="Ugrave" unicode="&#xd9;" horiz-adv-x="509" 
d="M318 144q-4 -14 -7.5 -34t-5 -41t0.5 -41t10 -36q24 7 56.5 29.5t58.5 51t37 58t-8 51.5q12 -22 -1.5 -48t-36.5 -50t-49 -41t-40 -21q-2 28 9 73t30.5 100t45.5 116t56.5 120.5t62.5 115t62 99.5q9 13 19 26.5t22 25.5t27 21t33 11q-18 16 -41.5 13.5t-48 -12.5
t-48 -20.5t-41.5 -11.5q-11 -29 -23 -62.5t-24.5 -67t-25.5 -65t-26 -56.5q-5 -9 -15.5 -18t-22.5 -16t-25 -11.5t-23 -2.5q31 -27 34 -55q0 -13 -5.5 -34.5t-12 -45t-14 -47t-11.5 -40.5q-8 -9 -27.5 -28.5t-45 -40.5t-52.5 -40t-50.5 -28.5t-40 -5t-19.5 31.5
q-5 48 14.5 102.5t50.5 111t66 113.5t60 111.5t33.5 104t-13.5 91.5q-9 16 -24.5 26t-34 14t-38.5 0t-36 -17q-4 10 -15.5 20t-25 14.5t-25.5 0.5t-16 -22q8 9 18.5 10.5t20 -2.5t17.5 -11t11 -16q-32 -23 -65 -55.5t-60.5 -71t-45.5 -81t-19 -84.5q51 4 92 30.5t69.5 66.5
t41 88t6.5 96q22 19 42 18.5t34 -14t19.5 -37.5t-0.5 -54q-4 -18 -16 -42.5t-27 -49.5t-30.5 -47t-27.5 -33q-17 -17 -41 -32.5t-50 -15.5q17 -9 28.5 -20.5t1.5 -34.5q-14 -31 -28.5 -60t-26.5 -58t-21 -59t-11 -63q-2 -22 2.5 -44t14.5 -38.5t26.5 -25t40.5 -2.5
q27 7 59.5 27.5t63 44.5t55 46t36.5 31zM159 698q5 -41 -6.5 -83.5t-36 -78.5t-59 -61.5t-75.5 -31.5q7 40 23.5 76.5t40.5 68.5t53 59.5t60 50.5zM444 750q-11 10 -24.5 22.5t-28 23t-28.5 17.5t-26 6q6 10 5.5 18.5t-3 17t-3.5 17t5 17.5q34 -25 64 -60.5t39 -78.5z" />
    <glyph glyph-name="Uacute" unicode="&#xda;" horiz-adv-x="509" 
d="M318 144q-12 -9 -36.5 -31t-55 -46t-63 -44.5t-59.5 -27.5q-24 -6 -40.5 2.5t-26.5 25t-14.5 38.5t-2.5 44q2 33 11 63t21 59t26.5 58t28.5 60q10 23 -1.5 34.5t-28.5 20.5q26 0 50 15.5t41 32.5q12 11 27.5 33t30.5 47t27 49.5t16 42.5q6 30 0.5 54t-19.5 37.5t-34 14
t-42 -18.5q6 -48 -6.5 -96t-41 -88t-69.5 -66.5t-92 -30.5q1 42 19 84.5t45.5 81t60.5 71t65 55.5q-3 9 -11 16t-17.5 11t-20 2.5t-18.5 -10.5q4 18 16 22t25.5 -0.5t25 -14.5t15.5 -20q16 13 36 17t38.5 0t34 -14t24.5 -26q22 -42 13.5 -91.5t-33.5 -104t-60 -111.5
t-66 -113.5t-50.5 -111t-14.5 -102.5q3 -27 19.5 -31.5t40 5t50.5 28.5t52.5 40t45 40.5t27.5 28.5q4 17 11.5 40.5t14 47t12 45t5.5 34.5q-3 28 -34 55q10 -2 23 2.5t25 11.5t22.5 16t15.5 18q13 25 26 56.5t25.5 65t24.5 67t23 62.5q18 1 41.5 11.5t48 20.5t48 12.5
t41.5 -13.5q-18 -2 -33 -11t-27 -21t-22 -25.5t-19 -26.5q-30 -44 -62 -99.5t-62.5 -115t-56.5 -120.5t-45.5 -116t-30.5 -100t-9 -73q14 4 40 21t49 41t36.5 50t1.5 48q19 -22 8 -51.5t-37 -58t-58.5 -51t-56.5 -29.5q-8 16 -10 36t-0.5 41t5 41t7.5 34zM159 698
q-31 -23 -60 -50.5t-53 -59.5t-40.5 -68.5t-23.5 -76.5q41 6 75.5 31.5t59 61.5t36 78.5t6.5 83.5zM391 726q0 30 12.5 61t28.5 57.5t30.5 46t19.5 27.5q8 -8 9 -18.5t2 -22t4 -22t14 -18.5q-10 4 -28 -7t-37 -29t-34.5 -38.5t-20.5 -36.5z" />
    <glyph glyph-name="Ucircumflex" unicode="&#xdb;" horiz-adv-x="509" 
d="M318 144q-4 -14 -7.5 -34t-5 -41t0.5 -41t10 -36q24 7 56.5 29.5t58.5 51t37 58t-8 51.5q12 -22 -1.5 -48t-36.5 -50t-49 -41t-40 -21q-2 28 9 73t30.5 100t45.5 116t56.5 120.5t62.5 115t62 99.5q9 13 19 26.5t22 25.5t27 21t33 11q-18 16 -41.5 13.5t-48 -12.5
t-48 -20.5t-41.5 -11.5q-11 -29 -23 -62.5t-24.5 -67t-25.5 -65t-26 -56.5q-5 -9 -15.5 -18t-22.5 -16t-25 -11.5t-23 -2.5q31 -27 34 -55q0 -13 -5.5 -34.5t-12 -45t-14 -47t-11.5 -40.5q-8 -9 -27.5 -28.5t-45 -40.5t-52.5 -40t-50.5 -28.5t-40 -5t-19.5 31.5
q-5 48 14.5 102.5t50.5 111t66 113.5t60 111.5t33.5 104t-13.5 91.5q-9 16 -24.5 26t-34 14t-38.5 0t-36 -17q-4 10 -15.5 20t-25 14.5t-25.5 0.5t-16 -22q8 9 18.5 10.5t20 -2.5t17.5 -11t11 -16q-32 -23 -65 -55.5t-60.5 -71t-45.5 -81t-19 -84.5q51 4 92 30.5t69.5 66.5
t41 88t6.5 96q22 19 42 18.5t34 -14t19.5 -37.5t-0.5 -54q-4 -18 -16 -42.5t-27 -49.5t-30.5 -47t-27.5 -33q-17 -17 -41 -32.5t-50 -15.5q17 -9 28.5 -20.5t1.5 -34.5q-14 -31 -28.5 -60t-26.5 -58t-21 -59t-11 -63q-2 -22 2.5 -44t14.5 -38.5t26.5 -25t40.5 -2.5
q27 7 59.5 27.5t63 44.5t55 46t36.5 31zM159 698q5 -41 -6.5 -83.5t-36 -78.5t-59 -61.5t-75.5 -31.5q7 40 23.5 76.5t40.5 68.5t53 59.5t60 50.5zM421 871q5 -13 13.5 -29t22 -28.5t33.5 -17t47 5.5q-22 -18 -41 -21.5t-34.5 0.5t-26 13t-16.5 17q-8 -14 -25.5 -23t-37 -11
t-37.5 3.5t-27 21.5q15 -11 35 -9.5t38.5 12t34 28t21.5 38.5z" />
    <glyph glyph-name="Udieresis" unicode="&#xdc;" horiz-adv-x="509" 
d="M318 144q-12 -9 -36.5 -31t-55 -46t-63 -44.5t-59.5 -27.5q-24 -6 -40.5 2.5t-26.5 25t-14.5 38.5t-2.5 44q2 33 11 63t21 59t26.5 58t28.5 60q10 23 -1.5 34.5t-28.5 20.5q26 0 50 15.5t41 32.5q12 11 27.5 33t30.5 47t27 49.5t16 42.5q6 30 0.5 54t-19.5 37.5t-34 14
t-42 -18.5q6 -48 -6.5 -96t-41 -88t-69.5 -66.5t-92 -30.5q1 42 19 84.5t45.5 81t60.5 71t65 55.5q-3 9 -11 16t-17.5 11t-20 2.5t-18.5 -10.5q4 18 16 22t25.5 -0.5t25 -14.5t15.5 -20q16 13 36 17t38.5 0t34 -14t24.5 -26q22 -42 13.5 -91.5t-33.5 -104t-60 -111.5
t-66 -113.5t-50.5 -111t-14.5 -102.5q3 -27 19.5 -31.5t40 5t50.5 28.5t52.5 40t45 40.5t27.5 28.5q4 17 11.5 40.5t14 47t12 45t5.5 34.5q-3 28 -34 55q10 -2 23 2.5t25 11.5t22.5 16t15.5 18q13 25 26 56.5t25.5 65t24.5 67t23 62.5q18 1 41.5 11.5t48 20.5t48 12.5
t41.5 -13.5q-18 -2 -33 -11t-27 -21t-22 -25.5t-19 -26.5q-30 -44 -62 -99.5t-62.5 -115t-56.5 -120.5t-45.5 -116t-30.5 -100t-9 -73q14 4 40 21t49 41t36.5 50t1.5 48q19 -22 8 -51.5t-37 -58t-58.5 -51t-56.5 -29.5q-8 16 -10 36t-0.5 41t5 41t7.5 34zM159 698
q-31 -23 -60 -50.5t-53 -59.5t-40.5 -68.5t-23.5 -76.5q41 6 75.5 31.5t59 61.5t36 78.5t6.5 83.5zM383 834q6 -11 3.5 -24.5t-11.5 -24t-24 -16t-35 0.5q-4 15 -0.5 29t12.5 23t23 12.5t32 -0.5zM536 834q6 -11 3.5 -24.5t-11.5 -24t-24 -16t-35 0.5q-4 15 -0.5 29t12.5 23
t23 12.5t32 -0.5z" />
    <glyph glyph-name="Yacute" unicode="&#xdd;" horiz-adv-x="532" 
d="M79 21q9 -12 36 0t63 39t75.5 65t72.5 78t54.5 77.5t21.5 64.5q-2 16 -6.5 25.5t-10 14.5t-11.5 8t-12 7q39 3 55 17t27 31q20 28 37.5 60t31 63.5t21 61.5t6.5 54q22 -5 45.5 4t47 21.5t47 22t46.5 5.5q-43 -35 -82.5 -93.5t-77 -130.5t-73.5 -153t-71.5 -161.5
t-71 -155.5t-71.5 -134q13 -6 28.5 -16t33 -20t38 -16t44.5 -4q21 1 28 11.5t3.5 21t-16.5 16.5t-31 -1q18 10 34.5 9.5t28.5 -7t16 -18t-4 -21.5q-15 -20 -35.5 -26t-43 -3t-45.5 12t-42 18.5t-32.5 18t-18.5 10.5q-37 -49 -71.5 -93.5t-66 -79.5t-59.5 -57.5t-53 -26.5
q-30 -6 -53 7t-37.5 37t-20.5 56t-2 64q7 61 40.5 99t82 54t105.5 9t111 -36q32 53 60.5 128t52.5 152q-8 -14 -26 -34t-41 -43t-49 -46t-51 -41.5t-46 -31t-35 -14.5q-20 -2 -33.5 4t-22.5 16t-13 23.5t-4 28.5q0 40 7 74.5t18.5 67t25 64.5t26.5 67q0 18 -11.5 32.5
t-28.5 22.5q21 0 48 12.5t41 35.5q3 5 8.5 14.5t11.5 20.5t11.5 22t8.5 18q17 38 29 73t12 79q0 28 -8.5 38.5t-22 10.5t-30 -7.5t-32.5 -16.5q-1 -3 -2.5 -24t-7 -52.5t-17 -72t-32 -83t-52 -84.5t-76.5 -77q-10 1 -20 26t-10 54q0 46 18 93t46 89.5t62.5 78.5t67.5 62
q1 31 -14.5 46t-40.5 18q60 4 73 -46l2 -9q17 8 33 15.5t33 7.5q53 0 73 -24.5t17.5 -66t-22.5 -96t-48 -114.5t-59 -122t-54.5 -118.5t-35.5 -103t-2 -76.5zM125 684q-22 -13 -47 -38.5t-48 -57t-42 -67t-29.5 -70t-10 -65t16.5 -51.5q35 27 63.5 69.5t49 90.5t32.5 97.5
t15 91.5zM231 -85q-69 32 -121 32.5t-88.5 -19t-58.5 -52.5t-31 -68q-8 -32 -4.5 -62.5t16 -52t32.5 -32t45 -1.5q19 7 46.5 33t57 63t57.5 79t49 80zM397 730q0 30 12.5 61t28.5 57.5t30.5 46t19.5 27.5q8 -8 9 -18.5t2 -22t4 -22t14 -18.5q-10 4 -28 -7t-37 -29
t-34.5 -38.5t-20.5 -36.5z" />
    <glyph glyph-name="agrave" unicode="&#xe0;" horiz-adv-x="407" 
d="M226 92q0 -9 -0.5 -23t1 -28t6 -25t12.5 -15q7 0 17 7t20.5 18t20 25.5t15.5 28.5q-16 -26 -34 -42.5t-29 -14.5q4 33 18.5 76t35.5 89.5t46.5 92t51 84.5t48.5 67.5t40 39.5q-8 4 -12 5t-11 1q-12 0 -24 -4t-23.5 -9t-23.5 -10t-24 -6q2 -17 -11 -38t-27 -51
q0 58 -31.5 93.5t-76.5 43.5q-30 -18 -56.5 -46t-48.5 -59t-39 -61.5t-28 -54.5q-6 -12 -18 -23.5t-35 -12.5q14 -11 19 -21t5 -22q-1 -6 -1.5 -17t-0.5 -26q0 -22 2 -48.5t8.5 -49.5t18 -38.5t29.5 -15.5t37.5 9.5t38 23.5t35 29.5t29.5 27.5zM236 126q-5 -9 -22 -27.5
t-38 -37.5t-42 -33.5t-33 -14.5q-4 0 -7 8.5t-5 20.5t-3 25t-1 22q0 39 8 77q5 26 17 58t28 64t34 62.5t35.5 54.5t33 39.5t25.5 16.5q14 -2 24 -11.5t16 -23t9 -29.5t3 -31q0 -35 -13 -59t-33 -24q-18 0 -26 13t-8 30q0 20 10.5 40t29.5 22q-29 0 -43.5 -19t-14.5 -45
q0 -23 12.5 -42t37.5 -19q10 0 21 4q-17 -32 -29.5 -69t-25.5 -72zM306 533q-11 10 -24.5 22.5t-28 23t-28.5 17.5t-26 6q6 10 5.5 18.5t-3 17t-3.5 17t5 17.5q34 -25 64 -60.5t39 -78.5z" />
    <glyph glyph-name="aacute" unicode="&#xe1;" horiz-adv-x="407" 
d="M226 92q-13 -12 -29.5 -27.5t-35 -29.5t-38 -23.5t-37.5 -9.5t-29.5 15.5t-18 38.5t-8.5 49.5t-2 48.5q0 15 0.5 26t1.5 17q0 12 -5 22t-19 21q23 1 35 12.5t18 23.5q11 24 28 54.5t39 61.5t48.5 59t56.5 46q45 -8 76.5 -43.5t31.5 -93.5q14 30 27 51t11 38q12 1 24 6
t23.5 10t23.5 9t24 4q7 0 11 -1t12 -5q-17 -11 -40 -39.5t-48.5 -67.5t-51 -84.5t-46.5 -92t-35.5 -89.5t-18.5 -76q11 -2 29 14.5t34 42.5q-6 -14 -15.5 -28.5t-20 -25.5t-20.5 -18t-17 -7q-8 4 -12.5 15t-6 25t-1 28t0.5 23zM236 126q13 35 25.5 72t29.5 69q-11 -4 -21 -4
q-25 0 -37.5 19t-12.5 42q0 26 14.5 45t43.5 19q-19 -2 -29.5 -22t-10.5 -40q0 -17 8 -30t26 -13q20 0 33 24t13 59q0 15 -3 31t-9 29.5t-16 23t-24 11.5q-10 -1 -25.5 -16.5t-33 -39.5t-35.5 -54.5t-34 -62.5t-28 -64t-17 -58q-8 -38 -8 -77q0 -9 1 -22t3 -25t5 -20.5
t7 -8.5q12 0 33 14.5t42 33.5t38 37.5t22 27.5zM229 530q0 30 12.5 61t28.5 57.5t30.5 46t19.5 27.5q8 -8 9 -18.5t2 -22t4 -22t14 -18.5q-10 4 -28 -7t-37 -29t-34.5 -38.5t-20.5 -36.5z" />
    <glyph glyph-name="acircumflex" unicode="&#xe2;" horiz-adv-x="407" 
d="M226 92q0 -9 -0.5 -23t1 -28t6 -25t12.5 -15q7 0 17 7t20.5 18t20 25.5t15.5 28.5q-16 -26 -34 -42.5t-29 -14.5q4 33 18.5 76t35.5 89.5t46.5 92t51 84.5t48.5 67.5t40 39.5q-8 4 -12 5t-11 1q-12 0 -24 -4t-23.5 -9t-23.5 -10t-24 -6q2 -17 -11 -38t-27 -51
q0 58 -31.5 93.5t-76.5 43.5q-30 -18 -56.5 -46t-48.5 -59t-39 -61.5t-28 -54.5q-6 -12 -18 -23.5t-35 -12.5q14 -11 19 -21t5 -22q-1 -6 -1.5 -17t-0.5 -26q0 -22 2 -48.5t8.5 -49.5t18 -38.5t29.5 -15.5t37.5 9.5t38 23.5t35 29.5t29.5 27.5zM236 126q-5 -9 -22 -27.5
t-38 -37.5t-42 -33.5t-33 -14.5q-4 0 -7 8.5t-5 20.5t-3 25t-1 22q0 39 8 77q5 26 17 58t28 64t34 62.5t35.5 54.5t33 39.5t25.5 16.5q14 -2 24 -11.5t16 -23t9 -29.5t3 -31q0 -35 -13 -59t-33 -24q-18 0 -26 13t-8 30q0 20 10.5 40t29.5 22q-29 0 -43.5 -19t-14.5 -45
q0 -23 12.5 -42t37.5 -19q10 0 21 4q-17 -32 -29.5 -69t-25.5 -72zM326 662q5 -13 13.5 -29t22 -28.5t33.5 -17t47 5.5q-22 -18 -41 -21.5t-34.5 0.5t-26 13t-16.5 17q-8 -14 -25.5 -23t-37 -11t-37.5 3.5t-27 21.5q15 -11 35 -9.5t38.5 12t34 28t21.5 38.5z" />
    <glyph glyph-name="atilde" unicode="&#xe3;" horiz-adv-x="407" 
d="M226 92q-13 -12 -29.5 -27.5t-35 -29.5t-38 -23.5t-37.5 -9.5t-29.5 15.5t-18 38.5t-8.5 49.5t-2 48.5q0 15 0.5 26t1.5 17q0 12 -5 22t-19 21q23 1 35 12.5t18 23.5q11 24 28 54.5t39 61.5t48.5 59t56.5 46q45 -8 76.5 -43.5t31.5 -93.5q14 30 27 51t11 38q12 1 24 6
t23.5 10t23.5 9t24 4q7 0 11 -1t12 -5q-17 -11 -40 -39.5t-48.5 -67.5t-51 -84.5t-46.5 -92t-35.5 -89.5t-18.5 -76q11 -2 29 14.5t34 42.5q-6 -14 -15.5 -28.5t-20 -25.5t-20.5 -18t-17 -7q-8 4 -12.5 15t-6 25t-1 28t0.5 23zM236 126q13 35 25.5 72t29.5 69q-11 -4 -21 -4
q-25 0 -37.5 19t-12.5 42q0 26 14.5 45t43.5 19q-19 -2 -29.5 -22t-10.5 -40q0 -17 8 -30t26 -13q20 0 33 24t13 59q0 15 -3 31t-9 29.5t-16 23t-24 11.5q-10 -1 -25.5 -16.5t-33 -39.5t-35.5 -54.5t-34 -62.5t-28 -64t-17 -58q-8 -38 -8 -77q0 -9 1 -22t3 -25t5 -20.5
t7 -8.5q12 0 33 14.5t42 33.5t38 37.5t22 27.5zM448 622q-12 -45 -29 -61t-37 -16.5t-42 8.5t-44 15.5t-42 4t-36 -26.5q13 37 33 50.5t43 13.5t46.5 -7.5t45 -11.5t38 1t24.5 30z" />
    <glyph glyph-name="adieresis" unicode="&#xe4;" horiz-adv-x="407" 
d="M226 92q-13 -12 -29.5 -27.5t-35 -29.5t-38 -23.5t-37.5 -9.5t-29.5 15.5t-18 38.5t-8.5 49.5t-2 48.5q0 15 0.5 26t1.5 17q0 12 -5 22t-19 21q23 1 35 12.5t18 23.5q11 24 28 54.5t39 61.5t48.5 59t56.5 46q45 -8 76.5 -43.5t31.5 -93.5q14 30 27 51t11 38q12 1 24 6
t23.5 10t23.5 9t24 4q7 0 11 -1t12 -5q-17 -11 -40 -39.5t-48.5 -67.5t-51 -84.5t-46.5 -92t-35.5 -89.5t-18.5 -76q11 -2 29 14.5t34 42.5q-6 -14 -15.5 -28.5t-20 -25.5t-20.5 -18t-17 -7q-8 4 -12.5 15t-6 25t-1 28t0.5 23zM236 126q13 35 25.5 72t29.5 69q-11 -4 -21 -4
q-25 0 -37.5 19t-12.5 42q0 26 14.5 45t43.5 19q-19 -2 -29.5 -22t-10.5 -40q0 -17 8 -30t26 -13q20 0 33 24t13 59q0 15 -3 31t-9 29.5t-16 23t-24 11.5q-10 -1 -25.5 -16.5t-33 -39.5t-35.5 -54.5t-34 -62.5t-28 -64t-17 -58q-8 -38 -8 -77q0 -9 1 -22t3 -25t5 -20.5
t7 -8.5q12 0 33 14.5t42 33.5t38 37.5t22 27.5zM294 609q6 -11 3.5 -24.5t-11.5 -24t-24 -16t-35 0.5q-4 15 -0.5 29t12.5 23t23 12.5t32 -0.5zM447 609q6 -11 3.5 -24.5t-11.5 -24t-24 -16t-35 0.5q-4 15 -0.5 29t12.5 23t23 12.5t32 -0.5z" />
    <glyph glyph-name="aring" unicode="&#xe5;" horiz-adv-x="407" 
d="M226 92q-13 -12 -29.5 -27.5t-35 -29.5t-38 -23.5t-37.5 -9.5t-29.5 15.5t-18 38.5t-8.5 49.5t-2 48.5q0 15 0.5 26t1.5 17q0 12 -5 22t-19 21q23 1 35 12.5t18 23.5q11 24 28 54.5t39 61.5t48.5 59t56.5 46q45 -8 76.5 -43.5t31.5 -93.5q14 30 27 51t11 38q12 1 24 6
t23.5 10t23.5 9t24 4q7 0 11 -1t12 -5q-17 -11 -40 -39.5t-48.5 -67.5t-51 -84.5t-46.5 -92t-35.5 -89.5t-18.5 -76q11 -2 29 14.5t34 42.5q-6 -14 -15.5 -28.5t-20 -25.5t-20.5 -18t-17 -7q-8 4 -12.5 15t-6 25t-1 28t0.5 23zM236 126q13 35 25.5 72t29.5 69q-11 -4 -21 -4
q-25 0 -37.5 19t-12.5 42q0 26 14.5 45t43.5 19q-19 -2 -29.5 -22t-10.5 -40q0 -17 8 -30t26 -13q20 0 33 24t13 59q0 15 -3 31t-9 29.5t-16 23t-24 11.5q-10 -1 -25.5 -16.5t-33 -39.5t-35.5 -54.5t-34 -62.5t-28 -64t-17 -58q-8 -38 -8 -77q0 -9 1 -22t3 -25t5 -20.5
t7 -8.5q12 0 33 14.5t42 33.5t38 37.5t22 27.5zM314 522q-9 2 -14 8t-7 13q-4 16 1.5 34t17 32.5t26 24t28.5 8.5q18 -1 28.5 -14.5t11.5 -25.5q1 -17 -6 -34t-20 -29t-30 -17.5t-36 0.5zM331 561q8 -5 16 -3t13.5 8t6.5 14.5t-5 17.5q-15 2 -25.5 -9.5t-5.5 -27.5z" />
    <glyph glyph-name="ae" unicode="&#xe6;" horiz-adv-x="592" 
d="M541 95q-8 -18 -22 -35.5t-31.5 -30.5t-37 -20.5t-38.5 -6.5q-50 8 -76.5 54t-20.5 140q0 1 -0.5 1.5t-0.5 2.5q-23 -50 -39 -96t-20 -81q11 -2 29 14.5t34 42.5q-6 -14 -15.5 -28.5t-20 -25.5t-20.5 -18t-17 -7q-8 4 -12.5 15t-6 25t-1 28t0.5 23q-13 -12 -29.5 -27.5
t-35 -29.5t-38 -23.5t-37.5 -9.5t-29.5 15.5t-18 38.5t-8.5 49.5t-2 48.5q0 15 0.5 26t1.5 17q0 12 -5 22t-19 21q23 1 35 12.5t18 23.5q11 24 28 54.5t39 61.5t48.5 59t56.5 46q45 -8 76.5 -43.5t31.5 -93.5q14 30 27 51t11 38q12 1 24 6t23.5 10t23.5 9t24 4q7 0 11 -1
t12 -5q-23 -15 -55.5 -58.5t-65.5 -100.5q15 21 36.5 47t48 49.5t56.5 40t62 19.5q20 -11 27 -29t5 -38q-8 -59 -36 -102t-63.5 -72t-71.5 -44t-59 -17q-6 -14 -10.5 -34.5t-3.5 -36.5q2 -36 16.5 -54t38.5 -22q34 -1 64.5 21.5t56.5 53.5zM236 126q13 35 25.5 72t29.5 69
q-11 -4 -21 -4q-25 0 -37.5 19t-12.5 42q0 26 14.5 45t43.5 19q-19 -2 -29.5 -22t-10.5 -40q0 -17 8 -30t26 -13q20 0 33 24t13 59q0 15 -3 31t-9 29.5t-16 23t-24 11.5q-10 -1 -25.5 -16.5t-33 -39.5t-35.5 -54.5t-34 -62.5t-28 -64t-17 -58q-8 -38 -8 -77q0 -9 1 -22
t3 -25t5 -20.5t7 -8.5q12 0 33 14.5t42 33.5t38 37.5t22 27.5zM386 189q35 2 73.5 25.5t65.5 54.5q22 25 37.5 53t22 53t2 43.5t-20.5 25.5q-25 -5 -51.5 -33t-51 -66.5t-45 -81t-32.5 -74.5z" />
    <glyph glyph-name="ccedilla" unicode="&#xe7;" horiz-adv-x="260" 
d="M253 156q-24 -48 -57.5 -82.5t-69.5 -51.5v1q-6 0 -12 -6q-11 -4 -21.5 -6.5t-21.5 -2.5q-33 0 -47.5 21t-18 51t-0.5 63.5t4 58.5q0 17 -6.5 25t-17.5 16q17 4 32.5 14t27.5 22q3 3 20.5 29.5t44 59.5t59.5 63.5t67 42.5q17 -6 30 -17.5t22 -27t13.5 -33t4.5 -34.5
q1 -26 -13.5 -47.5t-31.5 -26.5q-12 -3 -21 2t-12.5 13t0 17t18.5 14q-9 -8 -10 -15t2.5 -12t11 -6.5t15.5 3.5q12 7 19 26t6 41t-10 40.5t-28 23.5q-32 -17 -62.5 -54t-56 -83t-43.5 -95t-26 -89.5t-3.5 -66t24.5 -24.5q17 -1 41 12.5t48.5 33.5t45.5 43.5t33 43.5z
M174 -118q-10 -32 -35 -45t-54.5 -12.5t-57.5 11t-44 26.5q34 -15 68 -12.5t54.5 16t19.5 35.5t-36 47q-3 4 -2 13t5 19.5t10 20.5t12 16q3 2 6 2.5t6 2.5q0 -16 -3 -34.5t7 -32.5q9 -2 18.5 -9t16.5 -17t10 -22.5t-1 -24.5z" />
    <glyph glyph-name="egrave" unicode="&#xe8;" horiz-adv-x="281" 
d="M234 93q-26 -31 -56.5 -53.5t-64.5 -21.5q-24 4 -38.5 22t-16.5 54q-1 16 3.5 36.5t10.5 34.5q23 2 59 17t71.5 44t63.5 72t36 102q2 20 -5 38t-27 29q-29 -2 -56.5 -16.5t-52 -35t-45.5 -44t-37 -45t-26.5 -37t-14.5 -19.5q-15 -21 -32.5 -27t-23.5 -5q23 -14 26 -44
q-6 -94 20.5 -140t76.5 -54q19 -1 38.5 6.5t37 20.5t31.5 30.5t22 35.5zM79 187q12 32 32.5 74.5t45 81t51 66.5t51.5 33q16 -7 20.5 -25.5t-2 -43.5t-22 -53t-37.5 -53q-27 -31 -65.5 -54.5t-73.5 -25.5zM263 517q-11 10 -24.5 22.5t-28 23t-28.5 17.5t-26 6q6 10 5.5 18.5
t-3 17t-3.5 17t5 17.5q34 -25 64 -60.5t39 -78.5z" />
    <glyph glyph-name="eacute" unicode="&#xe9;" horiz-adv-x="281" 
d="M234 93q-8 -18 -22 -35.5t-31.5 -30.5t-37 -20.5t-38.5 -6.5q-50 8 -76.5 54t-20.5 140q-3 30 -26 44q6 -1 23.5 5t32.5 27q4 4 14.5 19.5t26.5 37t37 45t45.5 44t52 35t56.5 16.5q20 -11 27 -29t5 -38q-8 -59 -36 -102t-63.5 -72t-71.5 -44t-59 -17q-6 -14 -10.5 -34.5
t-3.5 -36.5q2 -36 16.5 -54t38.5 -22q34 -1 64.5 21.5t56.5 53.5zM79 187q35 2 73.5 25.5t65.5 54.5q22 25 37.5 53t22 53t2 43.5t-20.5 25.5q-25 -5 -51.5 -33t-51 -66.5t-45 -81t-32.5 -74.5zM152 481q0 30 12.5 61t28.5 57.5t30.5 46t19.5 27.5q8 -8 9 -18.5t2 -22t4 -22
t14 -18.5q-10 4 -28 -7t-37 -29t-34.5 -38.5t-20.5 -36.5z" />
    <glyph glyph-name="ecircumflex" unicode="&#xea;" horiz-adv-x="281" 
d="M234 93q-26 -31 -56.5 -53.5t-64.5 -21.5q-24 4 -38.5 22t-16.5 54q-1 16 3.5 36.5t10.5 34.5q23 2 59 17t71.5 44t63.5 72t36 102q2 20 -5 38t-27 29q-29 -2 -56.5 -16.5t-52 -35t-45.5 -44t-37 -45t-26.5 -37t-14.5 -19.5q-15 -21 -32.5 -27t-23.5 -5q23 -14 26 -44
q-6 -94 20.5 -140t76.5 -54q19 -1 38.5 6.5t37 20.5t31.5 30.5t22 35.5zM79 187q12 32 32.5 74.5t45 81t51 66.5t51.5 33q16 -7 20.5 -25.5t-2 -43.5t-22 -53t-37.5 -53q-27 -31 -65.5 -54.5t-73.5 -25.5zM245 603q5 -13 13.5 -29t22 -28.5t33.5 -17t47 5.5
q-22 -18 -41 -21.5t-34.5 0.5t-26 13t-16.5 17q-8 -14 -25.5 -23t-37 -11t-37.5 3.5t-27 21.5q15 -11 35 -9.5t38.5 12t34 28t21.5 38.5z" />
    <glyph glyph-name="edieresis" unicode="&#xeb;" horiz-adv-x="281" 
d="M234 93q-8 -18 -22 -35.5t-31.5 -30.5t-37 -20.5t-38.5 -6.5q-50 8 -76.5 54t-20.5 140q-3 30 -26 44q6 -1 23.5 5t32.5 27q4 4 14.5 19.5t26.5 37t37 45t45.5 44t52 35t56.5 16.5q20 -11 27 -29t5 -38q-8 -59 -36 -102t-63.5 -72t-71.5 -44t-59 -17q-6 -14 -10.5 -34.5
t-3.5 -36.5q2 -36 16.5 -54t38.5 -22q34 -1 64.5 21.5t56.5 53.5zM79 187q35 2 73.5 25.5t65.5 54.5q22 25 37.5 53t22 53t2 43.5t-20.5 25.5q-25 -5 -51.5 -33t-51 -66.5t-45 -81t-32.5 -74.5zM200 574q6 -11 3.5 -24.5t-11.5 -24t-24 -16t-35 0.5q-4 15 -0.5 29t12.5 23
t23 12.5t32 -0.5zM353 574q6 -11 3.5 -24.5t-11.5 -24t-24 -16t-35 0.5q-4 15 -0.5 29t12.5 23t23 12.5t32 -0.5z" />
    <glyph glyph-name="igrave" unicode="&#xec;" horiz-adv-x="210" 
d="M85 74q-19 -26 -33 -34.5t-22 -6.5q-9 14 4.5 48.5t36.5 76t51 84t49 73.5q14 21 29.5 46t31 48t30.5 41t29 26q-12 5 -27.5 1t-32 -11t-33.5 -13t-32 -4q-4 -12 -14.5 -35t-24.5 -49t-30.5 -51t-33.5 -40q-12 -11 -27 -20.5t-35 -16.5q13 -9 18 -20t5 -24q0 -18 -8 -42
t-14.5 -49.5t-6 -50t17.5 -43.5q13 0 34.5 15t37.5 51zM319 593q-11 10 -24.5 22.5t-28 23t-28.5 17.5t-26 6q6 10 5.5 18.5t-3 17t-3.5 17t5 17.5q34 -25 64 -60.5t39 -78.5z" />
    <glyph glyph-name="iacute" unicode="&#xed;" horiz-adv-x="210" 
d="M85 74q-16 -36 -37.5 -51t-34.5 -15q-17 19 -17.5 43.5t6 50t14.5 49.5t8 42q0 13 -5 24t-18 20q20 7 35 16.5t27 20.5q17 15 33.5 40t30.5 51t24.5 49t14.5 35q15 -2 32 4t33.5 13t32 11t27.5 -1q-14 -8 -29 -26t-30.5 -41t-31 -48t-29.5 -46q-21 -31 -49 -73.5t-51 -84
t-36.5 -76t-4.5 -48.5q8 -2 22 6.5t33 34.5zM240 544q0 30 12.5 61t28.5 57.5t30.5 46t19.5 27.5q8 -8 9 -18.5t2 -22t4 -22t14 -18.5q-10 4 -28 -7t-37 -29t-34.5 -38.5t-20.5 -36.5z" />
    <glyph glyph-name="icircumflex" unicode="&#xee;" horiz-adv-x="210" 
d="M85 74q-19 -26 -33 -34.5t-22 -6.5q-9 14 4.5 48.5t36.5 76t51 84t49 73.5q14 21 29.5 46t31 48t30.5 41t29 26q-12 5 -27.5 1t-32 -11t-33.5 -13t-32 -4q-4 -12 -14.5 -35t-24.5 -49t-30.5 -51t-33.5 -40q-12 -11 -27 -20.5t-35 -16.5q13 -9 18 -20t5 -24q0 -18 -8 -42
t-14.5 -49.5t-6 -50t17.5 -43.5q13 0 34.5 15t37.5 51zM281 683q5 -13 13.5 -29t22 -28.5t33.5 -17t47 5.5q-22 -18 -41 -21.5t-34.5 0.5t-26 13t-16.5 17q-8 -14 -25.5 -23t-37 -11t-37.5 3.5t-27 21.5q15 -11 35 -9.5t38.5 12t34 28t21.5 38.5z" />
    <glyph glyph-name="idieresis" unicode="&#xef;" horiz-adv-x="210" 
d="M85 74q-16 -36 -37.5 -51t-34.5 -15q-17 19 -17.5 43.5t6 50t14.5 49.5t8 42q0 13 -5 24t-18 20q20 7 35 16.5t27 20.5q17 15 33.5 40t30.5 51t24.5 49t14.5 35q15 -2 32 4t33.5 13t32 11t27.5 -1q-14 -8 -29 -26t-30.5 -41t-31 -48t-29.5 -46q-21 -31 -49 -73.5t-51 -84
t-36.5 -76t-4.5 -48.5q8 -2 22 6.5t33 34.5zM244 629q6 -11 3.5 -24.5t-11.5 -24t-24 -16t-35 0.5q-4 15 -0.5 29t12.5 23t23 12.5t32 -0.5zM397 629q6 -11 3.5 -24.5t-11.5 -24t-24 -16t-35 0.5q-4 15 -0.5 29t12.5 23t23 12.5t32 -0.5z" />
    <glyph glyph-name="ntilde" unicode="&#xf1;" horiz-adv-x="428" 
d="M223 -3q-8 2 -9.5 15.5t-1.5 24.5q0 56 21 111.5t52.5 110.5t67 110t65.5 111q-27 -11 -58.5 -34.5t-64.5 -54t-66 -64t-62 -63.5q-27 -31 -53.5 -65t-47.5 -68t-33 -67.5t-10 -63.5q-9 15 -12.5 32t-3.5 35q0 38 10 73t16 55q-9 23 -14 29t-15 13q48 0 79 37
q8 13 21 33.5t25.5 43.5t21.5 46.5t9 41.5q0 14 -7 24q2 0 5 -0.5t5 -0.5q18 0 34 5.5t30.5 11.5t28.5 11.5t29 5.5q9 0 14 -1q-22 -15 -40.5 -41t-35 -56.5t-31.5 -62t-31 -58.5q26 30 63.5 72t81 81t90.5 65.5t92 25.5q11 0 8 -13.5t-12 -30t-19.5 -31.5t-13.5 -20
q-32 -48 -68 -97t-67.5 -99t-54.5 -103t-30 -109q1 -3 4 -3q7 0 21 11t30 27.5t31.5 35t25.5 34.5q-11 -27 -26.5 -50t-32.5 -40t-33.5 -26.5t-27.5 -9.5zM469 639q-11 -44 -28.5 -60.5t-37.5 -17t-42 8.5t-44 15.5t-42 4t-36 -26.5q13 37 33 50.5t43 13.5t46.5 -7.5
t45 -11.5t38 1t24.5 30z" />
    <glyph glyph-name="ograve" unicode="&#xf2;" horiz-adv-x="333" 
d="M263 190q11 -1 31 9t28 31q-4 -6 -11.5 -11t-15 -8.5t-14 -5t-9.5 0.5q9 14 26.5 46t32 71t19 80t-12.5 74q-30 -9 -57 -43t-42 -77t-14.5 -86.5t23.5 -70.5q-9 -17 -30 -47.5t-46 -60t-50.5 -52t-42.5 -23.5q-18 7 -19.5 36t9.5 71t32 93.5t48 102.5q17 31 40 66.5
t46 63t44 40.5t35 1q-6 27 -23.5 29.5t-38.5 -7.5t-41.5 -27.5t-33.5 -30.5q-23 -24 -45.5 -53t-42 -56.5t-35 -50.5t-22.5 -36q-11 -17 -27.5 -29t-30.5 -14q14 -4 25.5 -12.5t10.5 -26.5q-1 -5 -2 -19.5t-1.5 -32.5t0 -36.5t2.5 -32.5q4 -24 16.5 -44.5t36.5 -22.5
q27 1 57.5 24.5t58.5 55.5t51 65.5t35 55.5zM317 415q6 -22 0.5 -50.5t-16.5 -57t-24 -53.5t-22 -39q-12 18 -11.5 49t10 63t26 57t37.5 31zM351 555q-11 10 -24.5 22.5t-28 23t-28.5 17.5t-26 6q6 10 5.5 18.5t-3 17t-3.5 17t5 17.5q34 -25 64 -60.5t39 -78.5z" />
    <glyph glyph-name="oacute" unicode="&#xf3;" horiz-adv-x="333" 
d="M263 190q-12 -22 -35 -55.5t-51 -65.5t-58.5 -55.5t-57.5 -24.5q-24 2 -36.5 22.5t-16.5 44.5q-2 14 -2.5 32.5t0 36.5t1.5 32.5t2 19.5q1 18 -10.5 26.5t-25.5 12.5q14 2 30.5 14t27.5 29q7 13 22.5 36t35 50.5t42 56.5t45.5 53q13 13 33.5 30.5t41.5 27.5t38.5 7.5
t23.5 -29.5q-14 12 -35 -1t-44 -40.5t-46 -63t-40 -66.5q-27 -51 -48 -102.5t-32 -93.5t-9.5 -71t19.5 -36q17 1 42.5 23.5t50.5 52t46 60t30 47.5q-23 27 -23.5 70.5t14.5 86.5t42 77t57 43q17 -33 12.5 -74t-19 -80t-32 -71t-26.5 -46q3 -2 9.5 -0.5t14 5t15 8.5t11.5 11
q-8 -21 -28 -31t-31 -9zM317 415q-21 -6 -37.5 -31t-26 -57t-10 -63t11.5 -49q9 14 22 39t24 53.5t16.5 57t-0.5 50.5zM256 552q0 30 12.5 61t28.5 57.5t30.5 46t19.5 27.5q8 -8 9 -18.5t2 -22t4 -22t14 -18.5q-10 4 -28 -7t-37 -29t-34.5 -38.5t-20.5 -36.5z" />
    <glyph glyph-name="ocircumflex" unicode="&#xf4;" horiz-adv-x="333" 
d="M263 190q11 -1 31 9t28 31q-4 -6 -11.5 -11t-15 -8.5t-14 -5t-9.5 0.5q9 14 26.5 46t32 71t19 80t-12.5 74q-30 -9 -57 -43t-42 -77t-14.5 -86.5t23.5 -70.5q-9 -17 -30 -47.5t-46 -60t-50.5 -52t-42.5 -23.5q-18 7 -19.5 36t9.5 71t32 93.5t48 102.5q17 31 40 66.5
t46 63t44 40.5t35 1q-6 27 -23.5 29.5t-38.5 -7.5t-41.5 -27.5t-33.5 -30.5q-23 -24 -45.5 -53t-42 -56.5t-35 -50.5t-22.5 -36q-11 -17 -27.5 -29t-30.5 -14q14 -4 25.5 -12.5t10.5 -26.5q-1 -5 -2 -19.5t-1.5 -32.5t0 -36.5t2.5 -32.5q4 -24 16.5 -44.5t36.5 -22.5
q27 1 57.5 24.5t58.5 55.5t51 65.5t35 55.5zM317 415q6 -22 0.5 -50.5t-16.5 -57t-24 -53.5t-22 -39q-12 18 -11.5 49t10 63t26 57t37.5 31zM313 666q5 -13 13.5 -29t22 -28.5t33.5 -17t47 5.5q-22 -18 -41 -21.5t-34.5 0.5t-26 13t-16.5 17q-8 -14 -25.5 -23t-37 -11
t-37.5 3.5t-27 21.5q15 -11 35 -9.5t38.5 12t34 28t21.5 38.5z" />
    <glyph glyph-name="otilde" unicode="&#xf5;" horiz-adv-x="333" 
d="M263 190q-12 -22 -35 -55.5t-51 -65.5t-58.5 -55.5t-57.5 -24.5q-24 2 -36.5 22.5t-16.5 44.5q-2 14 -2.5 32.5t0 36.5t1.5 32.5t2 19.5q1 18 -10.5 26.5t-25.5 12.5q14 2 30.5 14t27.5 29q7 13 22.5 36t35 50.5t42 56.5t45.5 53q13 13 33.5 30.5t41.5 27.5t38.5 7.5
t23.5 -29.5q-14 12 -35 -1t-44 -40.5t-46 -63t-40 -66.5q-27 -51 -48 -102.5t-32 -93.5t-9.5 -71t19.5 -36q17 1 42.5 23.5t50.5 52t46 60t30 47.5q-23 27 -23.5 70.5t14.5 86.5t42 77t57 43q17 -33 12.5 -74t-19 -80t-32 -71t-26.5 -46q3 -2 9.5 -0.5t14 5t15 8.5t11.5 11
q-8 -21 -28 -31t-31 -9zM317 415q-21 -6 -37.5 -31t-26 -57t-10 -63t11.5 -49q9 14 22 39t24 53.5t16.5 57t-0.5 50.5zM436 646q-12 -45 -29 -61t-37 -16.5t-42 8.5t-44 15.5t-42 4t-36 -26.5q13 37 33 50.5t43 13.5t46.5 -7.5t45 -11.5t38 1t24.5 30z" />
    <glyph glyph-name="odieresis" unicode="&#xf6;" horiz-adv-x="333" 
d="M263 190q-12 -22 -35 -55.5t-51 -65.5t-58.5 -55.5t-57.5 -24.5q-24 2 -36.5 22.5t-16.5 44.5q-2 14 -2.5 32.5t0 36.5t1.5 32.5t2 19.5q1 18 -10.5 26.5t-25.5 12.5q14 2 30.5 14t27.5 29q7 13 22.5 36t35 50.5t42 56.5t45.5 53q13 13 33.5 30.5t41.5 27.5t38.5 7.5
t23.5 -29.5q-14 12 -35 -1t-44 -40.5t-46 -63t-40 -66.5q-27 -51 -48 -102.5t-32 -93.5t-9.5 -71t19.5 -36q17 1 42.5 23.5t50.5 52t46 60t30 47.5q-23 27 -23.5 70.5t14.5 86.5t42 77t57 43q17 -33 12.5 -74t-19 -80t-32 -71t-26.5 -46q3 -2 9.5 -0.5t14 5t15 8.5t11.5 11
q-8 -21 -28 -31t-31 -9zM317 415q-21 -6 -37.5 -31t-26 -57t-10 -63t11.5 -49q9 14 22 39t24 53.5t16.5 57t-0.5 50.5zM284 634q6 -11 3.5 -24.5t-11.5 -24t-24 -16t-35 0.5q-4 15 -0.5 29t12.5 23t23 12.5t32 -0.5zM437 634q6 -11 3.5 -24.5t-11.5 -24t-24 -16t-35 0.5
q-4 15 -0.5 29t12.5 23t23 12.5t32 -0.5z" />
    <glyph glyph-name="divide" unicode="&#xf7;" horiz-adv-x="392" 
d="M324 264q-34 -2 -73 3.5t-78.5 11.5t-77.5 7.5t-70 -8.5q14 13 39 20.5t55.5 11.5t64 6t64 4.5t54.5 6.5t37 13q0 -10 -5 -19.5t-9.5 -18.5t-5.5 -18.5t5 -19.5zM212 183q6 -11 3.5 -24.5t-11.5 -24t-24 -16t-35 0.5q-4 15 -0.5 29t12.5 23t23 12.5t32 -0.5zM224 476
q6 -11 3.5 -24.5t-11.5 -24t-24 -16t-35 0.5q-4 15 -0.5 29t12.5 23t23 12.5t32 -0.5z" />
    <glyph glyph-name="oslash" unicode="&#xf8;" horiz-adv-x="333" 
d="M20 -140q9 32 18.5 64.5t20.5 64.5q-23 3 -35 23t-16 44q-2 14 -2.5 32.5t0 36.5t1.5 32.5t2 19.5q1 18 -10.5 26.5t-25.5 12.5q14 2 30.5 14t27.5 29q7 13 22.5 36t35 50.5t42 56.5t45.5 53q14 14 36 32.5t45 27.5q14 31 28.5 61.5t29.5 60.5q-5 -24 2 -41t17.5 -32
t19 -30.5t6.5 -36.5q-7 7 -29 -22q2 1 3 1t3 1q17 -33 12.5 -74t-19 -80t-32 -71t-26.5 -46q3 -2 9.5 -0.5t14 5t15 8.5t11.5 11q-8 -21 -28 -31t-31 -9q-12 -20 -32.5 -50.5t-45.5 -60.5t-53 -54.5t-54 -32.5q-17 -36 -31.5 -69.5t-26.5 -62.5zM247 200q-15 17 -20 41
t-3 52q-32 -63 -66.5 -133.5t-66.5 -138.5q19 8 42.5 31t46 51t41 54.5t26.5 42.5zM148 320q-26 -48 -46 -96t-31.5 -88.5t-12 -71t11.5 -42.5q34 106 71 208.5t80 202.5q-20 -26 -39.5 -56t-33.5 -57zM317 415q-21 -6 -37.5 -31t-26 -57t-10 -63t11.5 -49q9 14 22 39
t24 53.5t16.5 57t-0.5 50.5z" />
    <glyph glyph-name="ugrave" unicode="&#xf9;" horiz-adv-x="437" 
d="M522 477q-10 15 -26 15q-11 0 -23.5 -5.5t-26 -12t-27 -12t-25.5 -5.5q-5 0 -7 1q-38 -93 -80.5 -178.5t-106.5 -154.5q-14 -15 -34 -33t-41 -34t-40 -27.5t-29 -12.5q-3 10 -3 23q0 36 22 82.5t49 98t49 103.5t22 99q0 32 -18.5 50.5t-53.5 18.5q27 -10 28.5 -38
t-11 -61.5t-32 -66.5t-33.5 -53q-11 -15 -29 -25t-26 -12q8 -4 16 -12t8 -20q0 -3 -0.5 -5.5t-1.5 -5.5q-2 -5 -6 -18.5t-8.5 -32t-7.5 -39.5t-3 -40q0 -26 8 -44t31 -18q24 6 54 26.5t58.5 45t51.5 48.5t34 39q-2 -17 -6 -43t-4 -49q0 -10 1 -21t4 -21t8.5 -16t14.5 -6
q29 2 58.5 38.5t48.5 90.5q-8 -22 -21.5 -42t-27.5 -35.5t-27.5 -25t-22.5 -9.5q-8 5 -8 22q0 28 15.5 71t39 91t53 96.5t57 87t50 63t33.5 24.5h2zM382 536q-11 10 -24.5 22.5t-28 23t-28.5 17.5t-26 6q6 10 5.5 18.5t-3 17t-3.5 17t5 17.5q34 -25 64 -60.5t39 -78.5z" />
    <glyph glyph-name="uacute" unicode="&#xfa;" horiz-adv-x="437" 
d="M520 477q-11 0 -33.5 -24.5t-50 -63t-57 -87t-53 -96.5t-39 -91t-15.5 -71q0 -17 8 -22q9 0 22.5 9.5t27.5 25t27.5 35.5t21.5 42q-19 -54 -48.5 -90.5t-58.5 -38.5q-9 0 -14.5 6t-8.5 16t-4 21t-1 21q0 23 4 49t6 43q-11 -15 -34 -39t-51.5 -48.5t-58.5 -45t-54 -26.5
q-23 0 -31 18t-8 44q0 19 3 40t7.5 39.5t8.5 32t6 18.5q1 3 1.5 5.5t0.5 5.5q0 12 -8 20t-16 12q8 2 26 12t29 25q14 20 33.5 53t32 66.5t11 61.5t-28.5 38q35 0 53.5 -18.5t18.5 -50.5q0 -47 -22 -99t-49 -103.5t-49 -98t-22 -82.5q0 -13 3 -23q10 1 29 12.5t40 27.5t41 34
t34 33q64 69 106.5 154.5t80.5 178.5q2 -1 7 -1q12 0 25.5 5.5t27 12t26 12t23.5 5.5q16 0 26 -15h-2zM283 496q0 30 12.5 61t28.5 57.5t30.5 46t19.5 27.5q8 -8 9 -18.5t2 -22t4 -22t14 -18.5q-10 4 -28 -7t-37 -29t-34.5 -38.5t-20.5 -36.5z" />
    <glyph glyph-name="ucircumflex" unicode="&#xfb;" horiz-adv-x="437" 
d="M522 477q-10 15 -26 15q-11 0 -23.5 -5.5t-26 -12t-27 -12t-25.5 -5.5q-5 0 -7 1q-38 -93 -80.5 -178.5t-106.5 -154.5q-14 -15 -34 -33t-41 -34t-40 -27.5t-29 -12.5q-3 10 -3 23q0 36 22 82.5t49 98t49 103.5t22 99q0 32 -18.5 50.5t-53.5 18.5q27 -10 28.5 -38
t-11 -61.5t-32 -66.5t-33.5 -53q-11 -15 -29 -25t-26 -12q8 -4 16 -12t8 -20q0 -3 -0.5 -5.5t-1.5 -5.5q-2 -5 -6 -18.5t-8.5 -32t-7.5 -39.5t-3 -40q0 -26 8 -44t31 -18q24 6 54 26.5t58.5 45t51.5 48.5t34 39q-2 -17 -6 -43t-4 -49q0 -10 1 -21t4 -21t8.5 -16t14.5 -6
q29 2 58.5 38.5t48.5 90.5q-8 -22 -21.5 -42t-27.5 -35.5t-27.5 -25t-22.5 -9.5q-8 5 -8 22q0 28 15.5 71t39 91t53 96.5t57 87t50 63t33.5 24.5h2zM355 658q5 -13 13.5 -29t22 -28.5t33.5 -17t47 5.5q-22 -18 -41 -21.5t-34.5 0.5t-26 13t-16.5 17q-8 -14 -25.5 -23
t-37 -11t-37.5 3.5t-27 21.5q15 -11 35 -9.5t38.5 12t34 28t21.5 38.5z" />
    <glyph glyph-name="udieresis" unicode="&#xfc;" horiz-adv-x="437" 
d="M520 477q-11 0 -33.5 -24.5t-50 -63t-57 -87t-53 -96.5t-39 -91t-15.5 -71q0 -17 8 -22q9 0 22.5 9.5t27.5 25t27.5 35.5t21.5 42q-19 -54 -48.5 -90.5t-58.5 -38.5q-9 0 -14.5 6t-8.5 16t-4 21t-1 21q0 23 4 49t6 43q-11 -15 -34 -39t-51.5 -48.5t-58.5 -45t-54 -26.5
q-23 0 -31 18t-8 44q0 19 3 40t7.5 39.5t8.5 32t6 18.5q1 3 1.5 5.5t0.5 5.5q0 12 -8 20t-16 12q8 2 26 12t29 25q14 20 33.5 53t32 66.5t11 61.5t-28.5 38q35 0 53.5 -18.5t18.5 -50.5q0 -47 -22 -99t-49 -103.5t-49 -98t-22 -82.5q0 -13 3 -23q10 1 29 12.5t40 27.5t41 34
t34 33q64 69 106.5 154.5t80.5 178.5q2 -1 7 -1q12 0 25.5 5.5t27 12t26 12t23.5 5.5q16 0 26 -15h-2zM298 609q6 -11 3.5 -24.5t-11.5 -24t-24 -16t-35 0.5q-4 15 -0.5 29t12.5 23t23 12.5t32 -0.5zM451 609q6 -11 3.5 -24.5t-11.5 -24t-24 -16t-35 0.5q-4 15 -0.5 29
t12.5 23t23 12.5t32 -0.5z" />
    <glyph glyph-name="yacute" unicode="&#xfd;" horiz-adv-x="395" 
d="M-342 -422q-22 0 -44.5 8t-41 23.5t-30 37t-11.5 48.5q0 32 21.5 62.5t57 53.5t81.5 35.5t95 8.5q60 -5 108 -29t84 -56.5t59 -69.5t34 -68q7 86 23.5 153t40.5 127t54.5 119t66.5 129q-15 -20 -40 -47t-55.5 -52.5t-63 -43t-62.5 -17.5q-17 21 -19.5 49t2 56.5t11 54.5
t6.5 42q0 17 -10.5 28t-24.5 16q17 0 39.5 9.5t36.5 26.5q51 96 58.5 151.5t-8.5 68.5q50 -13 61 -40.5t-0.5 -65t-38 -83t-52 -95t-42 -101t-8.5 -100.5q27 4 64.5 29t77 63.5t76.5 87.5t62.5 100.5t36 102.5t-3.5 95q29 -11 45 -23.5t18 -35.5q2 -25 -7.5 -57.5
t-27.5 -70.5t-41.5 -80t-49.5 -87q-38 -65 -77.5 -136.5t-70.5 -146t-49.5 -150.5t-14.5 -150q-29 62 -60 112.5t-68.5 86.5t-84 55.5t-106.5 19.5q-47 0 -86 -12.5t-67.5 -32.5t-44 -45t-15.5 -50q0 -12 6 -28.5t18.5 -31.5t31.5 -25.5t46 -10.5q14 0 27.5 8.5t24 21
t16.5 27.5t5 29q-1 20 -14 28.5t-29.5 8.5t-32.5 -6.5t-23 -15.5q11 23 31 32t40 6.5t35 -16.5t15 -37q0 -15 -6 -33t-17.5 -33.5t-28.5 -26t-39 -11.5zM257 516q0 30 12.5 61t28.5 57.5t30.5 46t19.5 27.5q8 -8 9 -18.5t2 -22t4 -22t14 -18.5q-10 4 -28 -7t-37 -29
t-34.5 -38.5t-20.5 -36.5z" />
    <glyph glyph-name="thorn" unicode="&#xfe;" horiz-adv-x="2534" 
d="M2329 289q-14 -32 -40 -59t-58 -41q29 -30 47.5 -67t18.5 -79q0 -52 -31 -100q-35 -54 -94.5 -93t-130.5 -64t-148 -37t-147 -12q-46 0 -87 7q-29 -22 -62.5 -40t-69.5 -26q-1 0 1 2t5 4.5t6 4.5l3 2q32 8 58.5 22.5t52.5 31.5q-74 12 -144.5 37t-136 60.5t-125.5 78.5
t-113 91q-81 -50 -161.5 -99t-165.5 -91q-47 -24 -96.5 -45t-101.5 -37t-105 -25.5t-108 -9.5q-87 0 -157.5 29t-120.5 78t-77 113t-27 134q0 54 14 106.5t39 100.5q38 74 93.5 134t125 102t150.5 65t170 23q55 0 110.5 -9t106.5 -28q42 15 85.5 27t89.5 17q4 4 6.5 7t4.5 3
q2 3 6 4.5t9 3.5l-4 -7q-6 -6 -8 -10q24 3 50 3q63 0 123.5 -13.5t120.5 -33.5q41 46 88 87.5t104 71.5q61 32 128 47t137 15q50 0 104 -8.5t106.5 -24.5t101 -39t88.5 -53q35 -27 67.5 -60t57.5 -71t40 -79t15 -83q0 -37 -14 -68zM1407 495q-27 13 -54.5 24t-56.5 22
q-29 -33 -54.5 -68t-51.5 -70q43 -14 94.5 -19.5t101.5 -5.5h31q20 17 40 34.5t40 34.5q-23 13 -45 25t-45 23zM1589 408q22 7 47.5 19.5t47.5 27.5t36.5 31.5t14.5 33.5q0 16 -9.5 27.5t-30.5 11.5q-18 0 -41 -10.5t-46.5 -26t-46 -34.5t-41.5 -36q18 -11 35 -22zM1597 383
q-50 -25 -104 -35.5t-110 -11.5q-38 -32 -75.5 -64t-76.5 -63q26 -17 51 -34.5t50 -35.5q90 51 184 93.5t197 65.5q-30 20 -58.5 42t-57.5 43zM1570 401q-16 11 -31.5 20.5t-31.5 20.5q-19 -16 -37.5 -31.5t-36.5 -31.5q34 0 69.5 6.5t67.5 15.5zM1046 589q-11 -1 -21 -1.5
t-20 -1.5q0 -10 3 -23.5t8.5 -27.5t13 -27.5t16.5 -23.5q25 -32 65 -51t78 -30q26 35 53 69.5t54 69.5q-58 19 -117 33t-122 14h-11zM988 585q-40 -5 -78 -14.5t-76 -21.5q5 -3 9.5 -5t9.5 -4q36 -17 69 -41.5t57.5 -55t39 -66t14.5 -75.5q50 -15 96 -37t90 -48
q38 27 75.5 57t72.5 61q-52 0 -105 5t-103 19q-6 -8 -14.5 -19.5t-16.5 -22.5t-15 -19t-8 -8l2 3q25 31 51 66q-34 10 -67.5 26t-60 39t-43 53t-16.5 68q0 14 6 21h-1q0 2 3.5 7t8.5 12zM322 134q-20 -42 -20 -90q0 -35 16 -61.5t42.5 -44t60.5 -26t70 -8.5q42 0 86 9
t88 23.5t87 32t82 34.5q51 22 101 44.5t98 49.5q-16 13 -33 25t-34 23q-52 -54 -119.5 -84t-145.5 -30q-42 0 -83 12t-73.5 35.5t-53 58.5t-20.5 81v7.5t1 8.5q-22 -6 -45 -14.5t-43.5 -21t-36.5 -28.5t-25 -36zM293 45q7 82 56.5 129.5t123.5 69.5q0 2 1 4q-40 -14 -74 -32
t-58.5 -41.5t-38.5 -52t-14 -62.5q0 -6 1 -12.5t3 -12.5v10zM591 248q-28 -1 -56 -3t-55 -9q0 -43 18 -78.5t49.5 -61t73.5 -39.5t90 -14q36 0 72 7t69 20.5t62 32.5t50 43q-77 51 -174.5 76.5t-198.5 25.5zM481 245q29 8 59 11.5t59 3.5q100 0 195 -24.5t181 -77.5
q17 20 28 44.5t16 49.5q-63 20 -128.5 28.5t-132.5 8.5q-10 0 -34.5 -1.5t-55.5 -4t-64 -6t-60.5 -8.5t-45 -11t-17.5 -13zM976 157q19 -12 37 -25t35 -27q31 17 62.5 37t60.5 40q-35 20 -71 37t-75 31q-6 -26 -19 -49t-30 -44zM859 520q-11 5 -23 10l-24 10
q-42 -15 -92 -39t-96.5 -56t-83 -72.5t-51.5 -89.5q70 28 145.5 39t151.5 11q58 0 117 -6.5t116 -20.5l4 -2q-11 72 -53 126.5t-111 89.5zM878 -133q65 35 127 72.5t125 76.5q-20 17 -39.5 34t-40.5 34q-66 -40 -135.5 -72t-140.5 -63q-36 -15 -75 -31t-79.5 -28.5
t-82 -20.5t-81.5 -8q-36 0 -71.5 10.5t-64 30t-46.5 48.5t-18 67q0 36 18.5 75.5t50 75.5t72.5 66t86 47q18 46 51.5 85.5t76 72t92 59t98.5 46.5q-48 17 -99.5 25.5t-103.5 8.5q-81 0 -155 -19t-138 -53t-116 -81t-89 -103t-57 -120t-20 -131q0 -74 28.5 -138.5t79 -112.5
t120.5 -75.5t154 -27.5q62 0 123.5 12.5t121 33.5t117 48t111.5 56zM1144 25q33 21 66.5 41.5t68.5 41.5q-23 17 -46.5 34t-47.5 32q-29 -22 -59.5 -42t-61.5 -40q20 -17 40 -33.5t40 -33.5zM1400 -154q63 -30 130 -55t138 -36q8 6 15 11q6 5 11 9.5t5 8.5q0 5 -4.5 9t-11 7
t-13.5 5t-12 4q11 17 34 29t44 24q-66 0 -126 23.5t-115.5 59.5t-107.5 79t-103 81l-68 -42l-68 -42q59 -51 120 -95.5t132 -79.5zM1737 -94q8 -1 15.5 -1.5t15.5 -0.5h10t10 1q0 11 -10 16.5t-20 6.5q-5 -5 -9.5 -10.5t-11.5 -11.5zM1755 -72l1 1q-16 0 -36 -3t-31 -11
q10 -3 19.5 -4.5t19.5 -3.5q8 4 15 8.5t12 12.5zM2278 -26q9 28 9 55q0 42 -19.5 81t-50.5 71q-36 -16 -76 -24t-80 -8q-50 0 -95.5 11.5t-87 31t-80 44.5t-74.5 52q-104 -20 -200 -61t-188 -93q34 -26 73.5 -58t83 -63t90.5 -56.5t98 -39.5q29 19 63 23q12 2 15.5 4t3.5 14
q0 16 -10 32v-1v1v-1q-3 11 -14 19t-25.5 13.5t-29 8t-25.5 2.5q-31 0 -61.5 -8t-62.5 -8q-10 0 -19.5 1t-19.5 4q7 13 25 21.5t41 13.5t48 7t46 2q10 0 26 -0.5t32 -3.5t30.5 -9.5t22.5 -18.5q24 68 68 127q-11 -13 -27 -29t-29 -16q-7 0 -8 6t-1 11q-7 -8 -18 -22t-23 -14
q-8 0 -10.5 8.5t-2.5 13.5q0 17 15.5 29.5t24.5 20.5q-6 0 -12 -1.5t-12 -1.5h-15q-12 0 -19 -6.5t-12.5 -14.5t-11.5 -16.5t-16 -12.5q-1 0 -2.5 5t-1.5 8q0 10 7.5 20.5t13.5 16.5q-8 -3 -17 -6.5t-18 -3.5q-8 0 -15 5q-14 -12 -25 -24.5t-34 -12.5q-8 0 -8 3t1 5t2 3h-1
l-1 -1l-4 -3t-10 -6t-13.5 -6t-13.5 -3q-3 0 -6 1.5t-3 6.5q0 2 5 11.5t13 20.5t18.5 19.5t22.5 8.5q5 0 12 -4.5t7 -11.5q0 -1 -1.5 -3t-3.5 -4l-5 -5q-2 5 -5.5 10.5t-11.5 5.5q-10 0 -25 -10t-15 -27q0 -7 8 -7q11 0 23.5 10t18.5 10v-1q0 -2 -1 -4.5t-2 -4.5q2 0 4 -0.5
t4 -0.5q18 0 32 9q6 3 8 5.5t3 5.5t3.5 7.5t9.5 11.5q7 -7 18 -7q10 0 20 3.5t18 5.5l-1 -1q1 1 -2.5 -1.5t-8 -7.5t-8 -12t-3.5 -15q0 -1 1 -6.5t3 -5.5t5 2t5 4q4 4 7.5 11t8.5 14.5t12.5 13t18.5 5.5q5 0 11 -0.5t12 -0.5q13 0 23 5q-4 -6 -11.5 -12.5t-15 -12.5t-13 -13
t-5.5 -15q0 -3 2 -11.5t10 -8.5t14 5t10 10q-1 -2 1.5 0.5t6 7t6.5 9t3 6.5v-1v1q0 -5 1 -12t8 -7q9 0 17 5.5t16 14t15 17.5t15 16l1 1q0 -1 -1.5 -2t-1.5 -2q-26 -35 -46 -73.5t-33 -80.5q0 -6 -2 -11.5t-5 -11.5q10 -13 10 -32q0 -8 -2 -14t-6 -14q13 0 23 -7.5t10 -18.5
q0 -6 -3 -10q27 3 53 10q-9 -8 -15.5 -18t-14.5 -19q0 -4 -8 -6.5t-19.5 -4.5t-23.5 -3.5t-19 -1.5q-16 -12 -37.5 -21.5t-38.5 -21.5q4 -2 10.5 -4t12.5 -4.5t10 -6t4 -7.5q0 -9 -13.5 -21.5t-21.5 -20.5q39 -6 79 -6q77 0 154.5 14t148.5 39q34 12 69 27.5t65 36.5t53 48
t35 60zM1759 8q0 2 0.5 2.5t0.5 1.5q0 13 -12 21.5t-29.5 12.5t-36 5.5t-30.5 1.5q-26 0 -52.5 -2.5t-51.5 -7.5q-8 -2 -19 -6.5t-16 -4.5q2 -2 13.5 -3t18.5 -1q32 0 63 8t63 8q23 0 47.5 -9t40.5 -27zM1697 161q1 1 1 1.5t1 1.5q0 1 1 1q-1 0 -2 -1t-1 -3zM1746 293
q33 -26 70 -49.5t77.5 -41.5t84 -28.5t91.5 -10.5q71 0 142 24q-69 63 -155 90t-181 27q-33 0 -65 -3.5t-64 -7.5zM2227 194q55 25 80.5 63t25.5 89q0 32 -9 63t-24.5 60t-36 56t-42.5 50q-43 45 -97 80t-115.5 58.5t-127 36t-130.5 12.5q-71 0 -133 -15t-116.5 -42
t-101.5 -64t-87 -82q-2 -1 -3 -2.5t-3 -2.5q54 -20 104 -44t98 -52q20 17 41 33.5t42 33.5q13 10 28.5 23.5t33.5 25.5t37 20t39 8t30 -12.5t10 -26.5q0 -21 -15.5 -45.5t-39 -48t-51 -44t-51.5 -34.5q31 -22 60 -45t61 -44q73 14 144 14q47 0 94 -6t91 -20t84 -36t73 -54
q4 -4 7 -6z" />
    <glyph glyph-name="ydieresis" unicode="&#xff;" horiz-adv-x="395" 
d="M-342 -422q-22 0 -44.5 8t-41 23.5t-30 37t-11.5 48.5q0 32 21.5 62.5t57 53.5t81.5 35.5t95 8.5q60 -5 108 -29t84 -56.5t59 -69.5t34 -68q7 86 23.5 153t40.5 127t54.5 119t66.5 129q-15 -20 -40 -47t-55.5 -52.5t-63 -43t-62.5 -17.5q-17 21 -19.5 49t2 56.5t11 54.5
t6.5 42q0 17 -10.5 28t-24.5 16q17 0 39.5 9.5t36.5 26.5q51 96 58.5 151.5t-8.5 68.5q50 -13 61 -40.5t-0.5 -65t-38 -83t-52 -95t-42 -101t-8.5 -100.5q27 4 64.5 29t77 63.5t76.5 87.5t62.5 100.5t36 102.5t-3.5 95q29 -11 45 -23.5t18 -35.5q2 -25 -7.5 -57.5
t-27.5 -70.5t-41.5 -80t-49.5 -87q-38 -65 -77.5 -136.5t-70.5 -146t-49.5 -150.5t-14.5 -150q-29 62 -60 112.5t-68.5 86.5t-84 55.5t-106.5 19.5q-47 0 -86 -12.5t-67.5 -32.5t-44 -45t-15.5 -50q0 -12 6 -28.5t18.5 -31.5t31.5 -25.5t46 -10.5q14 0 27.5 8.5t24 21
t16.5 27.5t5 29q-1 20 -14 28.5t-29.5 8.5t-32.5 -6.5t-23 -15.5q11 23 31 32t40 6.5t35 -16.5t15 -37q0 -15 -6 -33t-17.5 -33.5t-28.5 -26t-39 -11.5zM244 617q6 -11 3.5 -24.5t-11.5 -24t-24 -16t-35 0.5q-4 15 -0.5 29t12.5 23t23 12.5t32 -0.5zM397 617
q6 -11 3.5 -24.5t-11.5 -24t-24 -16t-35 0.5q-4 15 -0.5 29t12.5 23t23 12.5t32 -0.5z" />
    <glyph glyph-name="dotlessi" unicode="&#x131;" horiz-adv-x="210" 
d="M85 74q-16 -36 -37.5 -51t-34.5 -15q-17 19 -17.5 43.5t6 50t14.5 49.5t8 42q0 13 -5 24t-18 20q20 7 35 16.5t27 20.5q17 15 33.5 40t30.5 51t24.5 49t14.5 35q15 -2 32 4t33.5 13t32 11t27.5 -1q-14 -8 -29 -26t-30.5 -41t-31 -48t-29.5 -46q-21 -31 -49 -73.5t-51 -84
t-36.5 -76t-4.5 -48.5q8 -2 22 6.5t33 34.5z" />
    <glyph glyph-name="Lslash" unicode="&#x141;" horiz-adv-x="625" 
d="M705 348q-42 -11 -89.5 -18t-97.5 -12q-20 -38 -43.5 -74t-53.5 -78q18 -14 37 -34.5t36 -43.5q42 -59 103 -105.5t132.5 -69t150.5 -15t158 57.5q-77 -55 -155.5 -68.5t-151.5 5.5t-138 66.5t-115 113.5q-17 24 -34.5 45t-36.5 35q-16 -21 -33 -43.5t-36.5 -43
t-42.5 -37.5t-50 -28q-39 -15 -77.5 -15.5t-72 14.5t-60 45t-40.5 75q35 46 81 73t97 36t103 1t99 -31q12 22 29.5 51.5t31.5 58.5q-60 -8 -116.5 -19t-102.5 -31q13 13 37.5 24.5t55 23t66.5 21.5t74 20q-2 11 -7 19t-12.5 13.5t-15.5 9.5t-15 8q19 0 37 8.5t34.5 22
t29.5 29.5t21 31q-41 -6 -83.5 -2t-88.5 12q-20 4 -48 16.5t-51.5 31t-36 42t-1.5 50.5q3 5 10.5 8.5t15.5 4t15 -4t10 -15.5q-14 11 -24 8.5t-14 -12t-1 -24t15 -27.5q10 -12 25 -23t30.5 -19.5t31.5 -13.5t30 -4q-41 24 -52.5 54t-1.5 57.5t36 47.5t60 22q16 1 37 -2
t38.5 -12t28.5 -24.5t8 -37.5q-2 -15 -14 -23.5t-26 -9t-25.5 8t-12.5 27.5q6 -17 19.5 -20.5t24.5 2.5t14 19.5t-11 30.5q-23 20 -49.5 24.5t-50 -2.5t-41 -23t-24 -36.5t2 -43t36.5 -42.5q65 -45 182 -27q19 36 55 74t82 72t98 61.5t103 42t98 13.5t83 -23
q1 -38 -25.5 -70t-69 -59t-94.5 -48.5t-102 -36.5t-91.5 -23.5t-62.5 -9.5q-18 -36 -33.5 -67.5t-30.5 -60.5q57 14 102 28t65 29q1 -10 -4.5 -21t-10.5 -21.5t-5.5 -20.5t12.5 -18zM86 20q51 -28 92 -20.5t74.5 36t61 70t51.5 81.5q-44 21 -96.5 27t-101.5 -3t-88 -32
t-56 -60q-2 -13 4 -28t16 -29t21.5 -25t21.5 -17zM1037 737q-41 19 -94 11.5t-109 -37t-111.5 -79t-101.5 -115.5q19 2 55 10t80.5 22t91.5 33t87 42.5t68 52t34 60.5z" />
    <glyph glyph-name="lslash" unicode="&#x142;" horiz-adv-x="205" 
d="M319 345q-33 -17 -71.5 -32.5t-79.5 -30.5q-46 -73 -102 -138q-2 -8 -4 -23t-3 -33t-1.5 -37.5t1.5 -35.5q19 8 32.5 17t23.5 19.5t18.5 22.5t17.5 26q-17 -37 -42.5 -66t-54.5 -37q-6 3 -10.5 18t-7 33.5t-3.5 36.5t-1 29q-15 -13 -29.5 -22t-32.5 -19q21 17 35.5 29.5
t27.5 32.5q0 20 2.5 47.5t4.5 51.5q-39 -17 -75 -34.5t-65 -38.5q16 23 55 49t89 53q0 8 1 11q-3 14 -16 25.5t-25 17.5q10 2 26.5 10t24.5 19q17 34 41.5 77t52 87.5t57 88t57.5 79t52 60.5t42 33q-3 -43 -14.5 -93t-30.5 -104t-45 -111t-57 -112q35 19 61.5 35.5
t38.5 30.5q4 -9 1 -19.5t-5.5 -20.5t-1 -19t14.5 -13zM325 668q-59 -87 -114.5 -175t-97.5 -192q19 10 37.5 19t35.5 18q42 70 80.5 156t58.5 174zM74 179q11 11 29.5 35.5t41.5 58.5q-12 -5 -24 -8.5t-24 -8.5q-7 -19 -12.5 -38t-10.5 -39z" />
    <glyph glyph-name="OE" unicode="&#x152;" horiz-adv-x="797" 
d="M555 31q-32 -16 -67.5 -30t-73.5 -13q-21 0 -39.5 8t-33 22t-23 32.5t-8.5 39.5q0 6 1 13t3 14q-42 -49 -94 -85t-115 -51q-26 6 -38.5 31.5t-15 61t1.5 76.5t10.5 79t13 68.5t7.5 45.5q-1 15 -3 24t-5.5 14.5t-10.5 9.5t-17 9q12 1 25 6t24.5 12t20.5 15.5t14 16.5
q-14 6 -28 15.5t-17 25.5q-3 13 2 25t13.5 19t18.5 7.5t17 -9.5q-15 2 -26.5 -9t-9.5 -28q0 -6 4 -12t9.5 -11t12 -8t12.5 -2q21 33 53 81.5t70.5 96.5t81 89t83.5 59q12 -9 15.5 -27.5t2.5 -38.5t-5 -38.5t-6 -27.5q16 3 27 -5q0 -2 2 -2q0 24 20.5 46t55.5 22
q25 0 37 -13.5t12 -30.5t-12.5 -32t-35.5 -17q14 4 23.5 18.5t9.5 29.5q0 13 -8 22.5t-27 9.5q-12 0 -23.5 -5t-20 -13t-13.5 -17.5t-5 -17.5q0 -14 5 -28.5t15 -27t23.5 -20.5t30.5 -8q24 24 59 50.5t74 48.5t80 36.5t77 14.5q13 0 29 -1.5t30 -7.5t24 -17t10 -30
q-1 -25 -20.5 -54.5t-49 -55.5t-64 -45.5t-66 -25.5t-56.5 4.5t-35 45.5h-2q-4 0 -14 2t-19 5q-21 -22 -26 -45t4.5 -42t33.5 -32t62 -15q-42 -11 -81.5 -35.5t-75 -56t-64.5 -66t-50.5 -66t-34 -56.5t-13.5 -37q-3 -32 5.5 -50t24.5 -26t37 -7t42.5 7t42 15t34.5 18
q-13 34 -4.5 67.5t29.5 62.5t51 53t61 41t58.5 25t44.5 5q1 -33 -21 -72t-55 -75t-71.5 -66.5t-70.5 -47.5q9 -15 23.5 -20.5t30.5 -5t30 6t21 13.5q-9 -14 -25.5 -21.5t-35 -7.5t-35.5 7.5t-25 21.5zM111 0q69 13 127.5 64.5t104.5 122.5q10 17 20 31q28 48 49 100
t35 101.5t19.5 94t2.5 79.5q-3 25 -13.5 37t-26.5 8q-20 -54 -52.5 -93.5t-82.5 -67.5q-8 -12 -12 -31t-5 -39t1.5 -38t9.5 -27q4 -6 11.5 -8t15.5 2t16 13.5t13 27.5q4 -14 -2.5 -29t-18.5 -25t-26.5 -10t-26.5 17q-8 11 -11 28t-2 35.5t5 37t9 32.5q-17 -9 -32 -13.5
t-35 -4.5q-14 -27 -31 -68.5t-33 -88.5t-29.5 -95t-20 -88t-5 -68t16.5 -35q6 -2 9 -2zM846 700q-36 0 -67.5 -13t-60 -34t-54 -48.5t-48.5 -56.5q7 -3 14.5 -4.5t12.5 -1.5q6 25 31 46t57.5 33t66.5 14t58 -11q-6 -25 -28 -43.5t-52 -30.5t-62.5 -17t-58.5 -3q9 -27 31 -35
t50 -2t58.5 23t57 39.5t45 48t22.5 48.5q0 25 -20.5 36.5t-52.5 11.5zM770 282q-19 0 -44.5 -9.5t-51.5 -26.5t-50 -39.5t-40.5 -48t-23 -53t3.5 -54.5q35 19 69 44.5t62 56t49 63.5t30 67h-4zM306 600q-26 -32 -48 -69t-45 -71q18 1 35.5 7.5t29.5 14.5q20 53 55.5 98
t83.5 71q4 11 6.5 27.5t0.5 31.5q-36 -19 -64 -48.5t-54 -61.5zM656 541q22 -2 51 2t56 14t48 25t28 35q-18 10 -47.5 7t-59 -15t-51.5 -30.5t-25 -37.5zM458 395q-2 -4 -2 -7q20 -5 45 1.5t42 18.5q-26 8 -39.5 28.5t-11.5 44.5q0 9 6 20.5t14 22.5t16.5 19.5t11.5 12.5
q-30 6 -51 29q2 -23 -1 -49.5t-8 -52t-11 -48.5t-11 -40zM411 631q-17 -11 -33.5 -26t-30.5 -33t-26 -37.5t-21 -38.5q16 9 33 24t33 33t28 38.5t17 39.5zM454 382q-12 -38 -29 -79q8 10 16 18.5t15 16.5q8 15 6 25.5t-8 18.5z" />
    <glyph glyph-name="oe" unicode="&#x153;" horiz-adv-x="530" 
d="M263 190q-12 -22 -35 -55.5t-51 -65.5t-58.5 -55.5t-57.5 -24.5q-24 2 -36.5 22.5t-16.5 44.5q-2 14 -2.5 32.5t0 36.5t1.5 32.5t2 19.5q1 18 -10.5 26.5t-25.5 12.5q14 2 30.5 14t27.5 29q7 13 22.5 36t35 50.5t42 56.5t45.5 53q13 13 33.5 30.5t41.5 27.5t38.5 7.5
t23.5 -29.5q-14 12 -35 -1t-44 -40.5t-46 -63t-40 -66.5q-27 -51 -48 -102.5t-32 -93.5t-9.5 -71t19.5 -36q17 1 42.5 23.5t50.5 52t46 60t30 47.5q-23 27 -23.5 70.5t14.5 86.5t42 77t57 43q10 -19 12 -41.5t-1 -45.5t-10.5 -46.5t-16.5 -45.5q15 21 36.5 48t48.5 51
t57.5 41.5t63.5 20.5q20 -11 27 -29t5 -38q-8 -59 -36 -102t-63.5 -72t-71.5 -44t-59 -17q-6 -14 -10.5 -34.5t-3.5 -36.5q2 -36 16.5 -54t38.5 -22q34 -1 64.5 21.5t56.5 53.5q-8 -18 -22 -35.5t-31.5 -30.5t-37 -20.5t-38.5 -6.5q-50 8 -76.5 54t-20.5 140q0 1 -0.5 1.5
t-0.5 2.5h-1zM336 179q35 2 73.5 25.5t65.5 54.5q22 25 37.5 53t22 53t2 43.5t-20.5 25.5q-25 -5 -51.5 -33t-51 -66.5t-45 -81t-32.5 -74.5zM317 415q-18 -5 -36.5 -31.5t-28.5 -59.5t-7.5 -63.5t26.5 -41.5q7 20 17 46.5t18 53.5t12 52.5t-1 43.5z" />
    <glyph glyph-name="Scaron" unicode="&#x160;" horiz-adv-x="522" 
d="M475 467q4 31 19.5 59.5t37 54t47 46.5t48.5 36q2 14 5.5 30.5t2 28.5t-11 16t-32.5 -6q-26 -12 -52.5 -34t-48 -50t-36.5 -60t-18 -64q-2 -23 2 -42t10.5 -35.5t13.5 -32t12 -31.5q5 -18 7.5 -40t2.5 -45.5t-2 -46.5t-6 -44q-9 -47 -37.5 -89t-67 -72.5t-82.5 -46
t-85.5 -9t-75 37t-50.5 93.5q-26 -1 -47.5 11.5t-32 30.5t-5 36.5t33.5 29.5q-18 -15 -19 -31.5t8.5 -30t26.5 -22.5t35 -7q8 115 61 196t150 114q16 -47 5.5 -98.5t-38.5 -97.5t-70.5 -80.5t-91.5 -47.5q5 -27 16.5 -50t29.5 -39.5t43 -24t57 -3.5q31 4 59.5 22.5t52 45
t39 59t21.5 64.5q5 35 6.5 72.5t-6.5 75.5q-3 13 -13 23t-23.5 17.5t-27.5 11t-25 2.5q18 5 29.5 18.5t19.5 29.5q-1 49 20.5 106t57.5 105t81.5 78.5t93.5 25.5q14 -2 20.5 -11t7.5 -22.5t-2 -29t-6 -28.5q16 11 43 21t60 0q-18 1 -35 -2.5t-31 -9.5t-25.5 -14t-18.5 -15
q-4 -20 -18 -50.5t-36 -60t-50 -51t-59 -23.5zM95 141q45 12 82 42t62 70t35 85.5t1 87.5q-42 -16 -75 -46t-55.5 -68t-35 -82t-14.5 -89zM492 482q22 10 40.5 27t34.5 38t28.5 45t22.5 48q-42 -27 -75 -67t-51 -91zM575 787q-2 10 -6.5 21t-12.5 21t-18 17.5t-22 10.5
q-19 5 -31.5 -2.5t-29.5 -16.5q5 18 20.5 27.5t35 11.5t38.5 -3t31 -17q7 7 25.5 14.5t38.5 11.5t37.5 2t22.5 -15q-25 4 -42 -4.5t-31.5 -22.5t-27 -30t-28.5 -26z" />
    <glyph glyph-name="scaron" unicode="&#x161;" horiz-adv-x="344" 
d="M368 413q-6 4 -6 11q0 6 3 12.5t6.5 12.5t6.5 12t3 12q0 11 -6 20t-16 5q-19 -8 -29 -38.5t-16.5 -75t-13 -96.5t-18.5 -101q-8 -35 -23.5 -69.5t-36.5 -62.5t-47.5 -45t-57.5 -17q-27 -2 -45.5 8t-31 24t-19 27.5t-9.5 18.5q-6 -7 -15.5 -17.5t-21.5 -20.5t-27 -18.5
t-33 -11.5q9 4 21.5 13t25 21.5t23.5 26t17 26.5q-12 28 -10.5 68t14.5 76.5t37 62.5t57 28q14 1 27 -4.5t22 -19.5q10 10 23.5 29.5t29.5 43t34.5 48t38.5 45t40.5 34.5t41.5 15q23 2 36 -29q8 13 24 28.5t43 20.5q-24 -11 -40 -32t-24 -40q-3 -7 -4.5 -15.5t-3.5 -16
t-6.5 -13t-13.5 -6.5zM208 195q4 7 -4.5 21.5t-23.5 22.5q16 5 31 16t22 22q5 23 9 43.5t8.5 39.5t10.5 38t16 40q-36 -33 -63 -74.5t-56 -80.5q7 -16 7 -43t-9 -51t-27.5 -37.5t-46.5 -2.5q19 -2 32 7.5t21 26t11 38.5t1 46q-8 -11 -23.5 -33.5t-33 -48.5t-35 -51.5
t-30.5 -42.5q1 -3 7 -16t17 -27t26.5 -24.5t36.5 -10.5q19 -1 37.5 19t32 49t21 60.5t5.5 53.5zM139 284q-20 26 -44 24q-27 -2 -46 -25.5t-29.5 -55.5t-11.5 -65.5t8 -54.5q33 42 62 87.5t61 89.5zM308 553q-2 10 -6.5 21t-12.5 21t-18 17.5t-22 10.5q-19 5 -31.5 -2.5
t-29.5 -16.5q5 18 20.5 27.5t35 11.5t38.5 -3t31 -17q7 7 25.5 14.5t38.5 11.5t37.5 2t22.5 -15q-25 4 -42 -4.5t-31.5 -22.5t-27 -30t-28.5 -26z" />
    <glyph glyph-name="Ydieresis" unicode="&#x178;" horiz-adv-x="532" 
d="M79 21q9 -12 36 0t63 39t75.5 65t72.5 78t54.5 77.5t21.5 64.5q-2 16 -6.5 25.5t-10 14.5t-11.5 8t-12 7q39 3 55 17t27 31q20 28 37.5 60t31 63.5t21 61.5t6.5 54q22 -5 45.5 4t47 21.5t47 22t46.5 5.5q-43 -35 -82.5 -93.5t-77 -130.5t-73.5 -153t-71.5 -161.5
t-71 -155.5t-71.5 -134q13 -6 28.5 -16t33 -20t38 -16t44.5 -4q21 1 28 11.5t3.5 21t-16.5 16.5t-31 -1q18 10 34.5 9.5t28.5 -7t16 -18t-4 -21.5q-15 -20 -35.5 -26t-43 -3t-45.5 12t-42 18.5t-32.5 18t-18.5 10.5q-37 -49 -71.5 -93.5t-66 -79.5t-59.5 -57.5t-53 -26.5
q-30 -6 -53 7t-37.5 37t-20.5 56t-2 64q7 61 40.5 99t82 54t105.5 9t111 -36q32 53 60.5 128t52.5 152q-8 -14 -26 -34t-41 -43t-49 -46t-51 -41.5t-46 -31t-35 -14.5q-20 -2 -33.5 4t-22.5 16t-13 23.5t-4 28.5q0 40 7 74.5t18.5 67t25 64.5t26.5 67q0 18 -11.5 32.5
t-28.5 22.5q21 0 48 12.5t41 35.5q3 5 8.5 14.5t11.5 20.5t11.5 22t8.5 18q17 38 29 73t12 79q0 28 -8.5 38.5t-22 10.5t-30 -7.5t-32.5 -16.5q-1 -3 -2.5 -24t-7 -52.5t-17 -72t-32 -83t-52 -84.5t-76.5 -77q-10 1 -20 26t-10 54q0 46 18 93t46 89.5t62.5 78.5t67.5 62
q1 31 -14.5 46t-40.5 18q60 4 73 -46l2 -9q17 8 33 15.5t33 7.5q53 0 73 -24.5t17.5 -66t-22.5 -96t-48 -114.5t-59 -122t-54.5 -118.5t-35.5 -103t-2 -76.5zM125 684q-22 -13 -47 -38.5t-48 -57t-42 -67t-29.5 -70t-10 -65t16.5 -51.5q35 27 63.5 69.5t49 90.5t32.5 97.5
t15 91.5zM231 -85q-69 32 -121 32.5t-88.5 -19t-58.5 -52.5t-31 -68q-8 -32 -4.5 -62.5t16 -52t32.5 -32t45 -1.5q19 7 46.5 33t57 63t57.5 79t49 80zM382 800q6 -11 3.5 -24.5t-11.5 -24t-24 -16t-35 0.5q-4 15 -0.5 29t12.5 23t23 12.5t32 -0.5zM535 800q6 -11 3.5 -24.5
t-11.5 -24t-24 -16t-35 0.5q-4 15 -0.5 29t12.5 23t23 12.5t32 -0.5z" />
    <glyph glyph-name="Zcaron" unicode="&#x17d;" horiz-adv-x="553" 
d="M693 -9q15 -27 7 -46t-27.5 -30.5t-45.5 -16.5t-47 -4q-45 2 -80 31.5t-67.5 68.5t-67 78.5t-79.5 62.5q-18 -18 -45.5 -40t-62 -42.5t-75 -38t-84 -26.5t-88.5 -7.5t-88 19.5q26 68 76 109.5t108.5 60.5t118 18t104.5 -19q14 15 33 34.5t38 42.5t35.5 48t25.5 50
q4 23 -9 34.5t-31 21.5q30 0 58.5 13.5t55.5 36.5t54.5 53t51.5 61.5t44 62t33 54.5q-64 -13 -121 -8.5t-107.5 15t-95.5 21t-85 9.5q-22 -1 -45 -4.5t-42.5 -13.5t-33 -28.5t-17.5 -48.5q-3 -23 6 -38t23 -22.5t29 -6.5t24.5 9.5t9.5 24.5t-15 39q22 -7 31 -18.5t10 -23.5
t-4 -22.5t-12 -15.5q-25 -18 -48.5 -18t-41 12t-27.5 33t-9.5 45t14 48t42.5 42q40 24 84.5 26.5t90.5 -5.5t92 -21t89 -19q23 -3 47 -4t50.5 2.5t56.5 11.5t65 22q13 5 29 6.5t31.5 0t29.5 -5.5t23 -11q-21 1 -44 -14t-48.5 -43t-53.5 -66t-58 -81q-66 -94 -139.5 -186
t-168.5 -177q36 -16 68 -49t63.5 -68t64.5 -66t69 -42q19 -6 41 -5t40.5 9t31.5 24.5t15 40.5zM235 157q-20 9 -51 13.5t-66.5 1.5t-72.5 -13t-69.5 -29.5t-57.5 -49.5t-36 -71q40 -18 87.5 -11t95 30t92 57.5t78.5 71.5zM490 734q-2 10 -6.5 21t-12.5 21t-18 17.5t-22 10.5
q-19 5 -31.5 -2.5t-29.5 -16.5q5 18 20.5 27.5t35 11.5t38.5 -3t31 -17q7 7 25.5 14.5t38.5 11.5t37.5 2t22.5 -15q-25 4 -42 -4.5t-31.5 -22.5t-27 -30t-28.5 -26z" />
    <glyph glyph-name="zcaron" unicode="&#x17e;" horiz-adv-x="383" 
d="M306 -125q-29 -39 -64 -78t-74.5 -70.5t-84 -53.5t-93 -27.5t-100.5 8.5t-108 54q40 51 88.5 93.5t109.5 70t134.5 36t162.5 -7.5q23 38 28.5 72t-1.5 59.5t-25.5 40.5t-44 15.5t-57 -15.5t-64.5 -52q16 40 51 76.5t72.5 76t69.5 85t41 102.5q-64 -8 -124.5 -35
t-104.5 -71t-64.5 -104t-4.5 -133q-20 38 -23 85t5 93q-7 15 -20.5 24t-33.5 20q9 -1 21 1.5t24 7.5t21.5 11.5t14.5 14.5q9 30 24 54.5t31 46t30 41t20.5 39t2.5 40t-23 44.5q13 -2 25 -12.5t22 -24t18 -28t13 -24.5q-5 -23 -19 -42t-29.5 -37t-30 -35.5t-20.5 -35.5
q20 23 45.5 38t52.5 27t53.5 23t49 25t39.5 33.5t25 48.5q22 -48 13.5 -99t-33.5 -100.5t-59 -95t-63 -82.5q35 9 57.5 0.5t34.5 -28t15.5 -47t0 -55.5t-13 -53.5t-22.5 -42.5q23 -2 44.5 3t35.5 18t18.5 34t-5.5 53q18 -21 22 -45.5t-7.5 -44t-40.5 -30.5t-78 -5z
M-175 -287q36 -34 77.5 -44.5t84 -3.5t84 28.5t78.5 51.5t67 65.5t50 70.5q-76 15 -148.5 3t-132.5 -39t-102.5 -63t-57.5 -69zM295 566q-2 10 -6.5 21t-12.5 21t-18 17.5t-22 10.5q-19 5 -31.5 -2.5t-29.5 -16.5q5 18 20.5 27.5t35 11.5t38.5 -3t31 -17q7 7 25.5 14.5
t38.5 11.5t37.5 2t22.5 -15q-25 4 -42 -4.5t-31.5 -22.5t-27 -30t-28.5 -26z" />
    <glyph glyph-name="florin" unicode="&#x192;" horiz-adv-x="581" 
d="M276 515q-1 -73 -3.5 -156.5t-11 -162t-25.5 -145t-46 -106.5q-18 -24 -45.5 -43.5t-59.5 -23.5t-65.5 13.5t-63.5 68.5q54 -51 101 -50.5t80 44t48.5 125t6.5 191.5q-2 7 -9.5 14t-17 12.5t-19 10t-13.5 7.5q8 0 18.5 6t20 14.5t17.5 16.5l11 11q8 59 7.5 98t0.5 57
q-33 -2 -58.5 -2h-50.5h-51.5t-61.5 -1q23 2 44.5 15t39 29t29.5 31t16 21q8 -13 14.5 -21.5t15.5 -13.5t21.5 -7t33.5 -2q4 61 27.5 105.5t58.5 70.5t75.5 33t78.5 -7.5t67.5 -52t42.5 -99.5q-21 53 -50.5 78.5t-60.5 30t-60.5 -8.5t-53 -36.5t-37.5 -55t-12 -63.5
q39 -5 75 -7.5t71 -4.5t70.5 -5t75.5 -9q-48 0 -82 -2t-65 -5t-65 -6.5t-80 -6.5z" />
    <glyph glyph-name="circumflex" unicode="&#x2c6;" horiz-adv-x="302" 
d="M143 734q5 -13 13.5 -29t22 -28.5t33.5 -17t47 5.5q-22 -18 -41 -21.5t-34.5 0.5t-26 13t-16.5 17q-8 -14 -25.5 -23t-37 -11t-37.5 3.5t-27 21.5q15 -11 35 -9.5t38.5 12t34 28t21.5 38.5z" />
    <glyph glyph-name="caron" unicode="&#x2c7;" horiz-adv-x="302" 
d="M134 634q-2 10 -6.5 21t-12.5 21t-18 17.5t-22 10.5q-19 5 -31.5 -2.5t-29.5 -16.5q5 18 20.5 27.5t35 11.5t38.5 -3t31 -17q7 7 25.5 14.5t38.5 11.5t37.5 2t22.5 -15q-25 4 -42 -4.5t-31.5 -22.5t-27 -30t-28.5 -26z" />
    <glyph glyph-name="breve" unicode="&#x2d8;" horiz-adv-x="271" 
d="M136 631q-21 0 -39 8.5t-31.5 23t-22.5 34t-12 41.5q27 -39 54 -56t53 -15.5t51 20t48 51.5q-5 -18 -12.5 -36t-19 -33t-28.5 -25.5t-41 -12.5z" />
    <glyph glyph-name="dotaccent" unicode="&#x2d9;" horiz-adv-x="190" 
d="M130 743q6 -11 3.5 -24.5t-11.5 -24t-24 -16t-35 0.5q-4 15 -0.5 29t12.5 23t23 12.5t32 -0.5z" />
    <glyph glyph-name="ring" unicode="&#x2da;" horiz-adv-x="183" 
d="M62 613q-9 2 -14 8t-7 13q-4 16 1.5 34t17 32.5t26 24t28.5 8.5q18 -1 28.5 -14.5t11.5 -25.5q1 -17 -6 -34t-20 -29t-30 -17.5t-36 0.5zM79 652q8 -5 16 -3t13.5 8t6.5 14.5t-5 17.5q-15 2 -25.5 -9.5t-5.5 -27.5z" />
    <glyph glyph-name="ogonek" unicode="&#x2db;" horiz-adv-x="833" 
d="M282 -133q-7 19 -4.5 39t12 38t25 33t35.5 24q-28 -38 -27 -69t21.5 -51t55 -26.5t73.5 6.5q-16 -16 -44 -25t-57.5 -9.5t-54.5 9t-35 31.5z" />
    <glyph glyph-name="tilde" unicode="&#x2dc;" horiz-adv-x="281" 
d="M246 733q-11 -45 -28.5 -61t-37.5 -16.5t-42 8.5t-44 15.5t-42 4t-36 -26.5q13 37 33 50.5t43 13.5t46.5 -7.5t45 -11.5t38 1t24.5 30z" />
    <glyph glyph-name="hungarumlaut" unicode="&#x2dd;" horiz-adv-x="243" 
d="M52 558q-15 19 -13.5 44t8.5 50.5t15 50t7 44.5q12 -3 18.5 -10.5t11.5 -16.5t10.5 -16.5t14.5 -10.5q-7 -15 -18.5 -30t-23 -31.5t-20.5 -34.5t-10 -39zM144 556q-15 19 -13.5 44t8.5 50.5t15 50t7 44.5q12 -3 18.5 -10.5t11.5 -16.5t10.5 -16.5t14.5 -10.5
q-7 -15 -18.5 -30t-23 -31.5t-20.5 -34.5t-10 -39z" />
    <glyph glyph-name="endash" unicode="&#x2013;" horiz-adv-x="377" 
d="M324 264q-34 -2 -73 3.5t-78.5 11.5t-77.5 7.5t-70 -8.5q14 13 39 20.5t55.5 11.5t64 6t64 4.5t54.5 6.5t37 13q0 -10 -5 -19.5t-9.5 -18.5t-5.5 -18.5t5 -19.5z" />
    <glyph glyph-name="emdash" unicode="&#x2014;" horiz-adv-x="684" 
d="M609 248q-44 -2 -94.5 2.5t-104 11l-107 13t-102.5 9t-92 -1.5t-74 -18q27 25 77 36t111 14t126.5 2t124 0.5t102.5 8t62 25.5q-1 -12 -10 -25t-17.5 -26t-11 -26t9.5 -25z" />
    <glyph glyph-name="quoteleft" unicode="&#x2018;" horiz-adv-x="155" 
d="M109 753q14 -27 16.5 -60.5t0 -64t-7 -55t-5.5 -33.5q-11 4 -16.5 12.5t-11 18.5t-13 18t-21.5 11q11 1 22 19t20 42t13.5 49.5t2.5 42.5z" />
    <glyph glyph-name="quoteright" unicode="&#x2019;" horiz-adv-x="240" 
d="M203 540q-14 27 -16.5 60.5t0 64t7 55t5.5 33.5q10 -4 16 -12.5t11.5 -18.5t13 -18t21.5 -11q-11 -1 -22 -19t-20 -42t-13.5 -50t-2.5 -42z" />
    <glyph glyph-name="quotesinglbase" unicode="&#x201a;" horiz-adv-x="196" 
d="M82 -77q-15 19 -13.5 44t8.5 50.5t15 50t7 44.5q12 -3 18.5 -10.5t11.5 -16.5t10.5 -16.5t14.5 -10.5q-7 -15 -18.5 -30t-23 -31.5t-20.5 -34.5t-10 -39z" />
    <glyph glyph-name="quotedblleft" unicode="&#x201c;" horiz-adv-x="243" 
d="M52 745q1 -21 10 -39t20.5 -34.5t23 -31.5t18.5 -30q-9 -3 -14.5 -10.5t-10.5 -16.5t-11.5 -16.5t-18.5 -10.5q1 19 -7 44t-15 50.5t-8.5 50t13.5 44.5zM144 747q1 -21 10 -39t20.5 -34.5t23 -31.5t18.5 -30q-9 -3 -14.5 -10.5t-10.5 -16.5t-11.5 -16.5t-18.5 -10.5
q1 19 -7 44t-15 50.5t-8.5 50t13.5 44.5z" />
    <glyph glyph-name="quotedblright" unicode="&#x201d;" horiz-adv-x="243" 
d="M52 558q-15 19 -13.5 44t8.5 50.5t15 50t7 44.5q12 -3 18.5 -10.5t11.5 -16.5t10.5 -16.5t14.5 -10.5q-7 -15 -18.5 -30t-23 -31.5t-20.5 -34.5t-10 -39zM144 556q-15 19 -13.5 44t8.5 50.5t15 50t7 44.5q12 -3 18.5 -10.5t11.5 -16.5t10.5 -16.5t14.5 -10.5
q-7 -15 -18.5 -30t-23 -31.5t-20.5 -34.5t-10 -39z" />
    <glyph glyph-name="quotedblbase" unicode="&#x201e;" horiz-adv-x="300" 
d="M82 -77q-15 19 -13.5 44t8.5 50.5t15 50t7 44.5q12 -3 18.5 -10.5t11.5 -16.5t10.5 -16.5t14.5 -10.5q-7 -15 -18.5 -30t-23 -31.5t-20.5 -34.5t-10 -39zM174 -79q-15 19 -13.5 44t8.5 50.5t15 50t7 44.5q12 -3 18.5 -10.5t11.5 -16.5t10.5 -16.5t14.5 -10.5
q-7 -15 -18.5 -30t-23 -31.5t-20.5 -34.5t-10 -39z" />
    <glyph glyph-name="dagger" unicode="&#x2020;" horiz-adv-x="330" 
d="M308 488q-23 -2 -47.5 0.5t-50.5 6.5q-7 -66 -12 -144t-9.5 -157t-7.5 -153t-5 -131q-11 142 -23 294t-10 301q-36 5 -70.5 6t-63.5 -9q18 17 54.5 25t79.5 11q2 66 8.5 128.5t18.5 122.5q3 -27 14 -38.5t24 -19t25.5 -17.5t19.5 -34q-11 -1 -20 -38t-17 -99q35 2 64 6.5
t43 14.5q0 -10 -5 -19.5t-9.5 -18.5t-5.5 -18.5t5 -19.5z" />
    <glyph glyph-name="daggerdbl" unicode="&#x2021;" horiz-adv-x="330" 
d="M304 474q-23 -2 -49 0.5t-52 6.5q-6 -57 -10.5 -123t-8.5 -134q45 3 84 7t56 16q0 -10 -5 -19.5t-9.5 -18.5t-5.5 -18.5t5 -19.5q-29 -2 -61.5 2t-65.5 9q-5 -76 -7.5 -146l-4.5 -126q-5 67 -11 136t-11 141q-37 5 -72.5 6.5t-65.5 -8.5q18 18 55 25.5t81 10.5
q-5 68 -8 135.5t-2 134.5q-35 5 -68.5 5.5t-62.5 -8.5q18 17 54 24.5t78 11.5q2 69 8 135.5t19 129.5q3 -27 14 -38.5t24 -19t25.5 -17.5t19.5 -34q-12 -1 -21.5 -42.5t-17.5 -108.5q36 2 66 6t45 15q0 -10 -5 -19.5t-9.5 -18.5t-5.5 -18.5t5 -19.5z" />
    <glyph glyph-name="bullet" unicode="&#x2022;" horiz-adv-x="279" 
d="M62 262q-16 5 -25.5 15t-11.5 21q-8 28 2.5 58t30.5 55t46 40.5t50 14.5q16 -1 29 -8t22.5 -17t15 -21.5t5.5 -21.5q3 -29 -10 -58t-36 -49.5t-54 -29.5t-64 1zM75 308q22 -15 45 -10t38 22.5t18 43t-13 51.5q-21 3 -40.5 -4.5t-32 -23t-17.5 -36.5t2 -43z" />
    <glyph glyph-name="ellipsis" unicode="&#x2026;" horiz-adv-x="459" 
d="M93 75q6 -11 3.5 -24.5t-11.5 -24t-24 -16t-35 0.5q-4 15 -0.5 29t12.5 23t23 12.5t32 -0.5zM246 75q6 -11 3.5 -24.5t-11.5 -24t-24 -16t-35 0.5q-4 15 -0.5 29t12.5 23t23 12.5t32 -0.5zM399 75q6 -11 3.5 -24.5t-11.5 -24t-24 -16t-35 0.5q-4 15 -0.5 29t12.5 23
t23 12.5t32 -0.5z" />
    <glyph glyph-name="perthousand" unicode="&#x2030;" horiz-adv-x="641" 
d="M47 441q-16 5 -25.5 15t-11.5 21q-8 28 2.5 58t30.5 55t46 40.5t50 14.5q16 -1 29 -8t22.5 -17t15 -21.5t5.5 -21.5q3 -29 -10 -58t-36 -49.5t-54 -29.5t-64 1zM60 487q22 -15 45 -10t38 22.5t18 43t-13 51.5q-21 3 -40.5 -4.5t-32 -23t-17.5 -36.5t2 -43zM238 67
q-16 5 -25.5 15t-11.5 21q-8 28 2.5 58t30.5 55t46 40.5t50 14.5q16 -1 29 -8t22.5 -17t15 -21.5t5.5 -21.5q3 -29 -10 -58t-36 -49.5t-54 -29.5t-64 1zM251 113q22 -15 45 -10t38 22.5t18 43t-13 51.5q-21 3 -40.5 -4.5t-32 -23t-17.5 -36.5t2 -43zM463 71q-16 5 -25.5 15
t-11.5 21q-8 28 2.5 58t30.5 55t46 40.5t50 14.5q16 -1 29 -8t22.5 -17t15 -21.5t5.5 -21.5q3 -29 -10 -58t-36 -49.5t-54 -29.5t-64 1zM476 117q22 -15 45 -10t38 22.5t18 43t-13 51.5q-21 3 -40.5 -4.5t-32 -23t-17.5 -36.5t2 -43zM31 29q95 190 200 369t228 343
q-9 -23 -5 -40.5t11 -34t13 -33.5t0 -38q-6 9 -32 -15.5t-64.5 -70t-85.5 -107.5t-94.5 -127.5t-92 -130t-78.5 -115.5z" />
    <glyph glyph-name="guilsinglleft" unicode="&#x2039;" horiz-adv-x="373" 
d="M283 138q-14 30 -45.5 62.5t-69 61t-74.5 49.5t-61 27q22 9 45 36.5t38.5 57.5t19.5 54t-11 27q7 11 20.5 14.5t28.5 6.5t29 8.5t22 21.5q1 -26 -18 -56.5t-43 -60.5t-46 -57t-27 -46q28 -18 57 -39.5t54.5 -47t46.5 -55.5t34 -64z" />
    <glyph glyph-name="guilsinglright" unicode="&#x203a;" horiz-adv-x="373" 
d="M33 138q13 34 34 64t46.5 55.5t54 47t57.5 39.5q-5 19 -27 46t-46 57t-43 60.5t-18 56.5q8 -16 22 -21.5t29 -8.5t28.5 -6.5t20.5 -14.5q-15 -3 -11 -27t19.5 -54t38 -57.5t45.5 -36.5q-24 -6 -61 -27t-74.5 -49.5t-69 -61t-45.5 -62.5z" />
    <glyph glyph-name="fraction" unicode="&#x2044;" horiz-adv-x="405" 
d="M24 0q60 204 131.5 399t163.5 378q-5 -24 2 -41t17.5 -32t19 -30.5t6.5 -36.5q-7 8 -28.5 -21t-51.5 -81t-65.5 -120.5t-70.5 -142t-67.5 -145t-56.5 -127.5z" />
    <glyph glyph-name="Euro" unicode="&#x20ac;" horiz-adv-x="505" 
d="M492 100q-52 -55 -96.5 -74.5t-81 -13t-65.5 33.5t-51 66t-36 84t-21 87q-32 4 -61 3.5t-55 -8.5q15 15 45 22.5t67 11.5q-3 21 -3 40q-1 11 -0.5 23t1.5 23q-21 -3 -41 -4.5t-39 0.5q6 10 5 19.5t-5.5 18.5t-9.5 18.5t-5 19.5q14 -10 41 -14.5t62 -6.5q10 48 31.5 91.5
t54 76.5t76.5 52.5t99 19.5q15 -8 32 -26.5t31 -40.5t23.5 -43t9.5 -34q-50 45 -96.5 49.5t-84 -15.5t-64 -58t-36.5 -77q43 -3 80 -11t55 -25q-31 10 -67.5 8.5t-74.5 -6.5q-3 -23 -3 -46q-1 -11 -0.5 -23t1.5 -23q42 2 77 6.5t52 15.5q0 -10 -5 -19.5t-9.5 -18.5
t-5.5 -18.5t5 -19.5q-26 -2 -53.5 0.5t-56.5 7.5q7 -55 26.5 -104.5t52.5 -78.5t82 -30t117 41z" />
    <glyph glyph-name="trademark" unicode="&#x2122;" horiz-adv-x="818" 
d="M513 431q-6 34 -5 73t7 76.5t16 71.5t22 59q-26 -31 -45.5 -70t-36.5 -78.5t-32 -77.5t-30.5 -68t-33.5 -49t-40 -21q-18 2 -29 18t-15 39t0 51.5t17 56.5q-7 28 -1 52.5t20 45t32.5 37.5t36.5 30q-25 -4 -48 -1.5t-39 10.5q-19 -31 -37.5 -74t-33.5 -90t-24 -93.5
t-8 -84.5h-2q-23 11 -43 29t-37 38q-24 -7 -45 -1.5t-33 17.5t-11 26.5t22 25.5q-14 -14 -12 -27.5t12.5 -22.5t27 -12t33.5 3q-16 17 -28 45t-14.5 58t7 58.5t35.5 46.5q20 -20 37 -49t23.5 -59.5t-2.5 -58.5t-42 -46q12 -18 29.5 -31.5t33.5 -24.5q-3 21 -2 49t4 54.5
t6 47t4 26.5q1 14 -7 20t-17 11q12 2 24 9t22 18q11 26 22.5 51t20.5 53q-13 7 -30.5 16.5t-36.5 18t-38.5 13t-37.5 2.5q-26 -3 -46.5 -19.5t-22.5 -34.5q-2 -11 2 -16.5t10.5 -7t13.5 0t13 5.5q-9 -10 -21.5 -10.5t-21.5 6t-11.5 19.5t6.5 29q11 17 33 31t46 16
q19 2 38.5 -3t38.5 -13t37 -17.5t35 -17.5q2 5 3 11.5t0 10.5q10 -4 20.5 -1.5t20 6t18.5 5.5t16 -4q-12 -4 -23 -17.5t-16 -24.5q17 -10 48.5 -10t63.5 11q-1 17 -8 24t-14 12q13 -5 20.5 -14t9.5 -19q26 11 44.5 29t19.5 46q6 -27 -7 -49q14 5 28.5 8t28.5 3q8 0 16 -2
t13 -7q-19 -18 -32.5 -51.5t-21 -71t-9 -73.5t1.5 -58q5 16 18 41.5t32 55t42.5 60t50 55t54.5 41.5t56 19q18 1 25 -7.5t5.5 -20.5t-10.5 -24.5t-24 -20.5q3 2 8.5 9t10 16t4.5 18.5t-8 17.5q-14 -12 -32 -37t-36.5 -58t-37 -71t-32.5 -74.5t-22.5 -69t-8.5 -54.5
q0 -29 9 -29q5 0 15.5 14t18.5 30q-15 -49 -37 -54q-13 6 -16.5 21.5t-3.5 34.5q0 34 13 81t32 94t40 89t37 67q-32 -20 -64 -52.5t-60.5 -72t-51.5 -83t-36 -85.5zM482 714q-8 -8 -19 -14.5t-23 -11.5q0 -27 -8.5 -53.5t-19 -47.5t-20 -35.5t-12.5 -18.5q3 -17 0 -34
t-10.5 -31.5t-18.5 -24t-24 -10.5q5 2 12.5 8.5t15 17t12.5 25.5t4 35q-4 -5 -10.5 -11.5t-14 -10.5t-16 -4t-16.5 8q-7 -11 -11 -31.5t-3 -43t9 -42.5t26 -28q11 0 22 15t20.5 36.5t18 44.5t14.5 40q5 12 8.5 22.5t6.5 21.5q1 8 1.5 16.5t-9.5 14.5q14 4 23 14t16 22.5
t12.5 26t12.5 26.5q22 36 35 71q-9 -3 -17.5 -6t-16.5 -7zM127 424q32 15 39.5 42t1.5 56t-21 53.5t-28 33.5q-23 -17 -30.5 -41.5t-4 -51t15 -51t27.5 -41.5zM376 544q17 22 34 59.5t22 82.5h-1q-20 -11 -43 -28t-41.5 -39t-28.5 -47.5t-3 -52.5q4 7 12 17t17 16t17.5 5.5
t14.5 -13.5zM319 510q5 -8 12 -7.5t14 5.5t13 11.5t9 11.5q-4 15 -10.5 15.5t-14 -6t-14 -16.5t-9.5 -14z" />
    <glyph glyph-name="minus" unicode="&#x2212;" horiz-adv-x="377" 
d="M324 264q-34 -2 -73 3.5t-78.5 11.5t-77.5 7.5t-70 -8.5q14 13 39 20.5t55.5 11.5t64 6t64 4.5t54.5 6.5t37 13q0 -10 -5 -19.5t-9.5 -18.5t-5.5 -18.5t5 -19.5z" />
    <glyph glyph-name="fi" unicode="&#xfb01;" horiz-adv-x="499" 
d="M-200 -200q-15 19 -15.5 50.5t20 66.5t63.5 68.5t115 56.5q9 26 22.5 50.5t19.5 40.5q-23 -8 -45 -13.5t-52 -5.5q13 2 30 7t33 11.5t28.5 13t16.5 11.5q5 10 10 25.5t8 23.5q-2 10 -6.5 16.5t-9.5 11t-11 7.5t-12 7q24 2 40.5 12t29.5 26q35 58 77.5 126t88 129t92 105
t88.5 53q16 -50 6 -104t-36.5 -107.5t-65.5 -103.5t-80.5 -92.5t-81.5 -75t-69 -49.5q-12 -26 -29.5 -59t-26.5 -61q44 -10 63.5 -43t19 -76.5t-18.5 -92.5t-48.5 -93t-71.5 -77.5t-87 -44.5q-2 16 -3 32t-1 32q0 48 6 91t15 83t20.5 76t23.5 71q-41 -15 -75.5 -37
t-57.5 -48.5t-32.5 -57t-0.5 -62.5zM37 19q-19 -54 -39 -99t-37 -88.5t-28 -88.5t-12 -99q33 13 65 44.5t57.5 71.5t42 83.5t18.5 80.5t-13.5 63t-53.5 32zM258 442q-36 -60 -73 -119.5t-64 -124.5q28 20 62.5 50t70 67t68 78.5t56.5 85.5t36.5 89t8.5 87
q-48 -42 -89.5 -99.5t-75.5 -113.5zM504 559q-12 -1 -19.5 5t-9.5 15.5t2 20.5t15 20q-11 15 -9 32.5t13.5 32.5t28.5 24t36 6q-16 -3 -29 -11t-21 -19.5t-10 -26t5 -29.5q4 6 20 15t35.5 14t38.5 2t30 -21q-1 -16 -18 -26t-39 -14.5t-43 -2.5t-30 10q-5 -3 -9 -10.5
t-5 -15.5t3 -14t15 -7zM515 616q15 -6 32 -6q20 0 39 7.5t28 19.5q-6 8 -18.5 9t-26.5 -2.5t-29 -11t-25 -16.5zM354 74q-16 -36 -37.5 -51t-34.5 -15q-17 19 -17.5 43.5t6 50t14.5 49.5t8 42q0 13 -5 24t-18 20q20 7 35 16.5t27 20.5q17 15 33.5 40t30.5 51t24.5 49
t14.5 35q15 -2 32 4t33.5 13t32 11t27.5 -1q-14 -8 -29 -26t-30.5 -41t-31 -48t-29.5 -46q-21 -31 -49 -73.5t-51 -84t-36.5 -76t-4.5 -48.5q8 -2 22 6.5t33 34.5z" />
    <glyph glyph-name="fl" unicode="&#xfb02;" horiz-adv-x="507" 
d="M404 102q-17 -37 -42.5 -66t-54.5 -37q-6 3 -10.5 18t-7 33.5t-3.5 36.5t-1 29q-15 -13 -29.5 -22t-32.5 -19q21 17 35.5 29.5t27.5 32.5q0 16 1.5 36.5t3.5 41t4 37t3 24.5q-2 10 -9.5 18.5t-16.5 15.5q-46 -49 -91 -86t-77 -57q-12 -26 -29.5 -59t-26.5 -61
q44 -10 63.5 -43t19 -76.5t-18.5 -92.5t-48.5 -93t-71.5 -77.5t-87 -44.5q-2 16 -3 32t-1 32q0 48 6 91t15 83t20.5 76t23.5 71q-41 -15 -75.5 -37t-57.5 -48.5t-32.5 -57t-0.5 -62.5q-15 19 -15.5 50.5t20 66.5t63.5 68.5t115 56.5q9 26 22.5 50.5t19.5 40.5
q-23 -8 -45 -13.5t-52 -5.5q13 2 30 7t33 11.5t28.5 13t16.5 11.5q5 10 10 25.5t8 23.5q-2 10 -6.5 16.5t-9.5 11t-11 7.5t-12 7q24 2 40.5 12t29.5 26q35 58 77.5 126t88 129t92 105t88.5 53q11 -35 9 -72.5t-14 -75.5q25 39 51.5 76t50.5 67t45 51t37 28
q-4 -64 -27.5 -144t-62 -164t-90 -166.5t-111.5 -152.5q-2 -8 -4 -23t-3 -33t-1.5 -37.5t1.5 -35.5q19 8 32.5 17t23.5 19.5t18.5 22.5t17.5 26zM37 19q-19 -54 -39 -99t-37 -88.5t-28 -88.5t-12 -99q33 13 65 44.5t57.5 71.5t42 83.5t18.5 80.5t-13.5 63t-53.5 32zM258 442
q-36 -60 -73 -119.5t-64 -124.5q28 20 62.5 50t70 67t68 78.5t56.5 85.5t36.5 89t8.5 87q-48 -42 -89.5 -99.5t-75.5 -113.5zM578 670q-37 -55 -74 -110.5t-70 -115t-60.5 -124.5t-46.5 -139q12 12 31.5 38t43.5 62.5t50 81.5t50 95.5t44 104t32 107.5z" />
    <glyph glyph-name="glyph216" horiz-adv-x="0" 
 />
    <glyph glyph-name="glyph217" horiz-adv-x="2534" 
d="M2348 240q-14 -29 -40 -54t-59 -38q29 -29 47.5 -62.5t18.5 -71.5q0 -51 -31 -92q-36 -50 -95.5 -86t-131 -59t-149 -34t-148.5 -11q-44 0 -87 6q-30 -20 -63.5 -36.5t-70.5 -23.5q-1 0 1 2t5 4l6 4l3 2q32 8 59 21t53 28q-75 11 -146 34.5t-137 56t-126 72t-114 83.5
q-81 -46 -162 -91t-168 -84q-95 -44 -199 -75.5t-215 -31.5q-88 0 -159 26.5t-121.5 71.5t-77.5 104t-27 123q0 49 14 97.5t39 93.5q38 68 94.5 123t126.5 93.5t152 59.5t171 21q56 0 111.5 -8.5t106.5 -25.5q43 14 87 25t91 16q8 8 10 8q2 3 6 4.5t9 3.5l-4 -6q-6 -6 -7 -9
q12 1 24 1.5t25 0.5q64 0 124.5 -12.5t122.5 -30.5q41 42 88 80t105 66q62 29 129.5 43t138.5 14q51 0 105 -8t106.5 -22.5t101 -36t89.5 -48.5q36 -24 68.5 -55t58 -65.5t40.5 -72.5t15 -76q0 -34 -14 -62zM1418 429q-54 24 -111 42q-29 -30 -55 -62.5t-52 -64.5
q43 -13 95 -18t102 -5h16t16 1q20 16 40 31t40 32q-23 12 -45.5 22.5t-45.5 21.5zM1602 349q22 7 48 18t48 25t36.5 29.5t14.5 30.5q0 14 -9.5 25t-31.5 11q-18 0 -41 -9.5t-46.5 -24t-46.5 -32t-42 -33.5q18 -9 35.5 -19.5t34.5 -20.5zM1610 326q-51 -23 -105 -32.5
t-111 -11.5q-38 -29 -75.5 -58.5t-77.5 -57.5q26 -16 51.5 -32t49.5 -33q91 48 186.5 87t198.5 59q-30 19 -59 39zM1583 343q-16 10 -32 18.5t-32 18.5q-19 -15 -37.5 -29t-36.5 -29q34 0 69.5 6t68.5 15zM1054 515q-11 -1 -21 -1.5t-20 -0.5q0 -20 12 -47.5t29 -47.5
q26 -29 66 -46.5t79 -27.5q26 32 53 64t55 64q-59 17 -118.5 30t-122.5 13h-12zM996 511q-40 -4 -79 -13t-77 -20l10 -4l10 -4q37 -16 69.5 -38.5t57.5 -50t39.5 -60.5t14.5 -70q51 -14 97.5 -33.5t90.5 -44.5q38 25 76 52.5t73 55.5q-52 0 -106 4.5t-104 18.5
q-6 -7 -14.5 -18t-16.5 -21t-15 -17.5t-8 -7.5l2 3q13 15 25.5 30t25.5 31q-34 9 -68 24t-61 36t-43.5 48.5t-16.5 62.5q0 12 7 19h-1q0 2 3.5 6.5t8.5 10.5zM325 97q-11 -19 -15.5 -40.5t-4.5 -41.5q0 -33 16.5 -57t43 -40.5t60.5 -24.5t70 -8q42 0 86.5 8.5t88.5 22
t87 29.5t83 32q52 20 102.5 40.5t98.5 45.5q-16 12 -33 22.5t-34 21.5q-53 -49 -121 -77t-147 -28q-42 0 -83 11t-74 33t-53.5 54t-20.5 74v7t1 8q-23 -5 -46 -13.5t-43.5 -19.5t-36.5 -26t-25 -33zM295 15q7 75 57 119t124 64q0 2 1 4q-40 -13 -74 -29.5t-58.5 -38
t-38.5 -47.5t-14 -58q0 -6 1 -11.5t2 -11.5v9zM596 202q-29 -1 -56.5 -3t-55.5 -8q0 -39 18 -72t49.5 -56.5t74 -36.5t91.5 -13q36 0 72 6.5t70 19t63 30t50 39.5q-78 46 -176 70t-200 24zM485 199q29 8 59.5 11t59.5 3q101 0 196.5 -23t182.5 -71q36 39 44 87
q-63 18 -129 26t-134 8q-11 0 -35.5 -1t-55.5 -3.5t-64 -6t-60.5 -8t-45.5 -10.5t-18 -12zM984 118q37 -23 72 -48q32 16 63.5 34t60.5 37q-35 18 -71.5 34t-74.5 28q-7 -23 -20 -44t-30 -41zM866 452q-21 10 -47 18q-42 -14 -93 -36t-97.5 -51.5t-84 -66.5t-52.5 -82
q71 25 147 35.5t154 10.5q58 0 117.5 -5.5t116.5 -19.5q1 -1 4 -1q-11 65 -53.5 115t-111.5 83zM885 -149q66 32 128.5 67t125.5 71q-20 16 -40 31.5t-41 30.5q-66 -37 -136 -66.5t-142 -57.5q-36 -14 -75 -28.5t-80 -26t-83 -19t-82 -7.5q-36 0 -72 9.5t-65 28t-47 45
t-18 61.5q0 33 19 69t50.5 69t73 60.5t86.5 43.5q18 43 51.5 79t77 66t93 54.5t99.5 42.5q-49 16 -100.5 23.5t-104.5 7.5q-122 0 -228 -38t-184 -102.5t-123 -148.5t-45 -177q0 -68 28.5 -127t80 -103t122 -69.5t154.5 -25.5q63 0 125 11.5t122 30.5t118 43.5t112 51.5z
M1153 -3l68 38t69 38q-23 16 -47 31.5t-49 29.5q-29 -20 -59.5 -38.5t-62.5 -36.5q20 -16 40.5 -31t40.5 -31zM1411 -167q63 -28 131 -51t140 -33q8 5 15 10q6 4 11 8.5t5 7.5q0 5 -4.5 8.5t-11 6.5t-13.5 5t-12 4q11 16 33.5 26.5t44.5 21.5q-67 0 -127 22t-116 55
t-108.5 72t-103.5 74q-35 -19 -69 -38l-68 -38q58 -48 119.5 -88.5t133.5 -72.5zM1751 -112q8 -1 15.5 -1.5t15.5 -0.5h10t10 1q0 10 -10 15t-20 6q-5 -5 -9.5 -10t-11.5 -10zM1769 -92l1 1q-16 0 -36 -3t-31 -11q10 -2 19.5 -3.5t19.5 -3.5q8 4 15.5 8t11.5 12zM2296 -50
q10 24 10 51q0 38 -20 74t-52 66q-35 -15 -75.5 -22.5t-80.5 -7.5q-51 0 -96.5 10.5t-87.5 28.5t-81 41t-75 48q-106 -18 -202 -56t-189 -86q35 -24 74.5 -53.5t83 -57.5t91 -51.5t98.5 -36.5q30 17 64 21q12 1 16 3t4 13q0 15 -11 29v-1v1v-1q-3 10 -14 18t-25.5 12.5
t-29 7t-25.5 2.5q-32 0 -62.5 -7.5t-62.5 -7.5q-19 0 -40 6q7 12 25 19.5t41.5 12t48.5 6.5t47 2q10 0 26 -0.5t32 -3.5t30.5 -9t22.5 -17q24 61 69 117q-11 -12 -27.5 -27t-28.5 -15q-8 0 -9 5.5t-1 10.5q-6 -8 -17.5 -20.5t-23.5 -12.5q-8 0 -10.5 8t-2.5 13q0 7 4.5 14
t11 12.5t13 10t11.5 8.5q-5 0 -11.5 -1t-12.5 -1h-15q-12 0 -19 -6t-12.5 -13.5t-11.5 -15.5t-16 -12q-1 0 -3 5t-2 7q0 9 7.5 19t14.5 15q-9 -2 -18 -5t-18 -3q-8 0 -15 4q-14 -11 -25 -22.5t-34 -11.5q-3 0 -6 0.5t-3 2.5v1q0 2 1 3q1 2 2 3h-1h-1l-3.5 -3t-9.5 -6
t-13.5 -6t-14.5 -3q-8 0 -8 7q0 2 5 11t13 19t18.5 18t22.5 8q5 0 11.5 -4t6.5 -11l-5 -5q-2 -2 -4 -5q-2 4 -6 9t-12 5q-9 0 -24.5 -9t-15.5 -25q0 -7 8 -7q11 0 24 9.5t19 9.5v-1q0 -1 -1 -3.5t-2 -4.5q2 0 4 -0.5t4 -0.5q18 0 32 8q6 3 8 5t3 5t3.5 7t9.5 10q7 -6 18 -6
q10 0 20 3.5t19 5.5l-1 -2q1 1 -2.5 -1t-8 -6.5t-8.5 -11t-4 -13.5q0 -2 1 -7t4 -5q2 0 4.5 2t4.5 4q4 4 8 10.5t9 13.5t12 12t19 5q5 0 11 -0.5t12 -0.5q14 0 23 4q-4 -6 -11.5 -11.5l-15 -11t-13 -12t-5.5 -13.5q0 -3 2 -11t10 -8t14 4.5t11 9.5q-1 -2 1.5 0.5l6 6t6.5 8
t3 6.5v-1v1q0 -5 1 -11.5t7 -6.5q9 0 17.5 5.5t16 13t15 16t15.5 14.5l1 1l-3 -3q-55 -67 -80 -142q0 -5 -2 -10.5t-4 -10.5q9 -12 9 -29q0 -8 -2 -13.5t-5 -13.5q12 0 22 -6.5t10 -16.5q0 -5 -2 -9q12 1 25.5 3.5t27.5 5.5q-9 -8 -15.5 -17t-14.5 -17q0 -3 -8.5 -6
t-19.5 -4.5t-23 -3t-19 -1.5q-17 -11 -39 -19.5t-38 -19.5q4 -2 10.5 -3.5t12.5 -4t10 -6t4 -7.5q0 -8 -13.5 -19.5t-21.5 -19.5q20 -2 39.5 -3.5t39.5 -1.5q78 0 156 13t150 36q34 10 69 24.5t65.5 34t53.5 44t35 55.5zM1773 -19q0 2 0.5 2.5t0.5 1.5q0 12 -12.5 19.5
t-29.5 11.5t-35.5 5t-31.5 1q-26 0 -52.5 -2t-51.5 -7q-8 -2 -19.5 -6t-16.5 -4q2 -2 14 -2.5t18 -0.5q32 0 64 7.5t64 7.5q23 0 47.5 -8.5t40.5 -25.5zM1714 125q-1 -1 -2 -1q-1 -1 -1 -2zM1760 243q34 -24 71 -45.5t77.5 -38t84.5 -26t92 -9.5q75 0 144 22
q-70 58 -156.5 83t-182.5 25q-33 0 -65.5 -3.5t-64.5 -7.5zM2245 152q56 23 81.5 58t25.5 81q0 30 -9 58.5t-25 55.5t-36.5 51.5t-42.5 46.5q-43 41 -98 73t-116.5 53.5t-127.5 33t-132 11.5q-71 0 -133.5 -13.5t-117.5 -38.5t-102.5 -59t-87.5 -75q-4 -4 -6 -5
q108 -37 204 -89q20 17 41 32l42 30q13 9 28.5 21.5t33.5 23.5t37.5 18.5t39.5 7.5t30 -11.5t10 -24.5q0 -20 -15.5 -42t-39.5 -43.5t-51.5 -40.5t-51.5 -32q32 -20 61 -41t61 -41q35 7 71.5 10t73.5 3q48 0 95 -5.5t91.5 -18t85 -33t73.5 -49.5q4 -4 7 -6z" />
    </font>
</defs>
</svg>
