<svg xmlns="http://www.w3.org/2000/svg">
<defs>
<font id="AlbertsthalTypewriter" horiz-adv-x="1328" >
  <font-face 
    font-family="Albertsthal Typewriter"
    font-weight="400"
    font-stretch="normal"
    units-per-em="2048"
    panose-1="2 0 5 0 0 0 0 0 0 0"
    ascent="1638"
    descent="-410"
    x-height="962"
    cap-height="1348"
    bbox="-160 -433 2689 1852"
    underline-thickness="150"
    underline-position="-292"
    unicode-range="U+001D-263A"
  />
<missing-glyph horiz-adv-x="2452" 
d="M276 1064l4 -24h24l16 12h4q31 0 40 -48l-4 -4v-4l4 -16l-8 -24q0 -16 28 -60q92 30 92 60q32 16 68 20q0 19 60 32l12 -4l56 28q0 12 52 20h12q0 -10 16 -12l16 4l32 -12l24 20q0 -16 24 -36q0 -15 36 -44q6 -32 32 -32v-24q0 -7 36 -28q0 -20 20 -20q24 -7 24 -24
l8 -28l-12 -16l8 -16q0 -21 -32 -48l-4 -24l8 -8q16 0 20 -32l-8 -20l16 -16l-4 -4v-4q0 -24 60 -60l4 4h4l36 -12l4 4h4q12 -14 12 -32q36 -9 36 -28q65 -52 84 -52l8 16h8q0 -24 28 -24q0 24 -16 24q-8 0 -8 12q0 19 36 36l4 -4q46 0 104 40q34 0 52 8l16 -4h8
q21 18 92 28l12 20l24 -8l8 8q64 -9 64 -16l4 4l60 -12q47 40 60 40l32 12q22 -12 44 -12q0 12 24 12l32 16l12 12l-4 4v4q0 12 16 12l4 4v8q0 8 -12 8v16l28 8v48l8 12l-4 4v4l8 32q-21 0 -36 44h-20q-8 0 -8 16l-12 4v-4l-4 4h-8q-12 0 -32 -16l-4 4q0 28 -68 40l-24 -12
l-64 16l-20 -20l-20 8q0 -16 -44 -28q-25 0 -48 20l-16 -12l4 -4v-8q0 -12 -36 -20v-4l4 -16q-12 0 -32 -128l-4 -4q0 -8 -20 -8q0 -26 -32 -28l-4 4h-4q-19 -12 -44 -12q-36 12 -36 40q-14 0 -20 24q-24 4 -24 12v8h4l4 -4h4l8 36l-12 16v36q15 0 28 32l-4 4q9 0 16 28h8
q0 12 8 12l-4 12q1 20 80 52q8 16 60 28q0 7 48 20l16 32l48 -8l32 12l12 -12l32 16q24 -9 24 -16q35 4 44 12v-4l12 4l32 -20l44 16q30 0 40 -24l48 -16l16 4q0 -10 48 -20v-4l4 4h12l-4 -20l4 -4h4l36 8q40 -7 40 -36q-24 -29 -24 -60q9 0 16 -40q12 -4 12 -24v-4l-16 -52
l4 -4h4l-4 -20q4 -69 12 -84l-4 -12l4 -20l-4 -60v-8q-11 -20 -20 -20l32 -80q12 0 12 -16q-28 -7 -28 -16l4 -4l-4 -16l4 -20l-8 -52l4 -4h4q-13 -28 -24 -28v-12q12 -64 28 -64l20 4h4l24 -16l44 4v-4q0 -16 24 -32l28 -52v-8q-20 0 -20 -24v-12q12 0 12 -20

<glyph glyph-name=".notdef" horiz-adv-x="2452" 
d="M276 1064l4 -24h24l16 12h4q31 0 40 -48l-4 -4v-4l4 -16l-8 -24q0 -16 28 -60q92 30 92 60q32 16 68 20q0 19 60 32l12 -4l56 28q0 12 52 20h12q0 -10 16 -12l16 4l32 -12l24 20q0 -16 24 -36q0 -15 36 -44q6 -32 32 -32v-24q0 -7 36 -28q0 -20 20 -20q24 -7 24 -24
l8 -28l-12 -16l8 -16q0 -21 -32 -48l-4 -24l8 -8q16 0 20 -32l-8 -20l16 -16l-4 -4v-4q0 -24 60 -60l4 4h4l36 -12l4 4h4q12 -14 12 -32q36 -9 36 -28q65 -52 84 -52l8 16h8q0 -24 28 -24q0 24 -16 24q-8 0 -8 12q0 19 36 36l4 -4q46 0 104 40q34 0 52 8l16 -4h8
q21 18 92 28l12 20l24 -8l8 8q64 -9 64 -16l4 4l60 -12q47 40 60 40l32 12q22 -12 44 -12q0 12 24 12l32 16l12 12l-4 4v4q0 12 16 12l4 4v8q0 8 -12 8v16l28 8v48l8 12l-4 4v4l8 32q-21 0 -36 44h-20q-8 0 -8 16l-12 4v-4l-4 4h-8q-12 0 -32 -16l-4 4q0 28 -68 40l-24 -12
l-64 16l-20 -20l-20 8q0 -16 -44 -28q-25 0 -48 20l-16 -12l4 -4v-8q0 -12 -36 -20v-4l4 -16q-12 0 -32 -128l-4 -4q0 -8 -20 -8q0 -26 -32 -28l-4 4h-4q-19 -12 -44 -12q-36 12 -36 40q-14 0 -20 24q-24 4 -24 12v8h4l4 -4h4l8 36l-12 16v36q15 0 28 32l-4 4q9 0 16 28h8
q0 12 8 12l-4 12q1 20 80 52q8 16 60 28q0 7 48 20l16 32l48 -8l32 12l12 -12l32 16q24 -9 24 -16q35 4 44 12v-4l12 4l32 -20l44 16q30 0 40 -24l48 -16l16 4q0 -10 48 -20v-4l4 4h12l-4 -20l4 -4h4l36 8q40 -7 40 -36q-24 -29 -24 -60q9 0 16 -40q12 -4 12 -24v-4l-16 -52
l4 -4h4l-4 -20q4 -69 12 -84l-4 -12l4 -20l-4 -60v-8q-11 -20 -20 -20l32 -80q12 0 12 -16q-28 -7 -28 -16l4 -4l-4 -16l4 -20l-8 -52l4 -4h4q-13 -28 -24 -28v-12q12 -64 28 -64l20 4h4l24 -16l44 4v-4q0 -16 24 -32l28 -52v-8q-20 0 -20 -24v-12q12 0 12 -20
q-13 -36 -36 -48q0 -20 -28 -20l-4 4q0 -8 -12 -8q-31 7 -32 16l-4 -4h-8q-47 36 -56 36l-52 24l-12 4l-28 -4l-4 4l-68 -36q0 -9 -16 -16h-12l-44 8q-6 0 -20 -40q-8 0 -8 -12l-28 8q-29 0 -32 -40q-21 -16 -28 -40l-44 -24h-36l-8 -8l4 -44l-4 -4h-4l-12 8l-40 -24l-32 -8
h-16l-20 20q-12 0 -12 8v20q-10 0 -24 24v8q8 16 20 16v12l-4 4v4q-48 -15 -48 -32l-4 -12l12 -20l-4 -20v-4l4 -20q-36 -16 -36 -40h-8q-9 2 -20 32l-24 4l-16 -4q-30 24 -44 24l-24 4l-4 -4h-4l-16 4v-4l-40 24l-12 -4l-8 12l4 12l-4 4l4 20v12l-8 8h-4l-20 -4l-20 20v12
l60 48v8q-24 20 -72 20h-8q-17 -20 -36 -28l-4 -4v-4l-20 4h-12l-4 -4h-4v4l-24 -20h-36l-20 -28h-24l-20 -4v4q-28 -7 -28 -16v-24q9 -20 36 -20v-8q0 -12 -24 -12q0 -16 -12 -16q-32 17 -32 44h-16l-16 4q-40 -21 -40 -36h4q14 -28 36 -28v-12q-11 0 -24 -12l-12 4v-16
h-16l-16 8v16l4 20l-12 8q-24 -13 -24 -44h-8q0 8 -12 8l-32 72q-38 0 -56 48q-48 9 -48 20v4l8 12q-16 0 -16 8v36q-8 0 -8 12h-4l-16 -12l-28 4q0 -16 -24 -16l-8 -8h-12v8l-52 -16q-6 32 -16 32q-24 -9 -24 -16v-20h-8q0 -16 -16 -16l-12 4v-4q0 -16 -8 -16l-20 -4
q-16 0 -16 20q-28 14 -28 20l36 72q-28 0 -28 12l-68 -20l-72 12h-12l-4 -4l-4 4h-4l-32 -16l-32 4q-6 -16 -12 -16h-16l-8 8l44 112l48 40h20l16 -4l4 4h4l24 -4q42 14 64 60l4 12l-8 12l4 20v8l-8 8q13 71 28 72v40q-16 0 -16 12l16 56l-4 12l4 32l-16 68l12 4l-4 4v4
l4 12l-4 40v12l4 56l-8 16q23 34 24 68q-8 0 -8 20l-12 12l4 4v4q-5 32 -28 32l-24 -4q-7 18 -24 28q-9 -9 -44 -12q-16 4 -16 16h-40q-20 0 -20 8l-12 -4l-12 4l-4 -4l-8 40q-17 28 -17 34q0 2 1 2l24 16l4 -4h8l8 8l-4 12q0 32 44 32l8 -8h4l12 8h20l16 -12l60 24h4l48 -8
q8 0 8 12l4 4h12zM8 1024h8l-8 -8v8zM1540 932l-4 -4v-4l8 -8l16 12l-4 4l-4 -4h-4l-4 4h-4zM628 844l4 -4v-8h-12l-24 20q0 -6 -32 -16l-4 4h-4q-25 0 -28 -20l-28 -20v4q-25 -24 -52 -24h-8l-4 4h-4q0 -26 -56 -72q-12 -16 -12 -60l8 -32q0 -20 -48 -20q8 -16 28 -28
l8 -24v-20l16 -4l-16 -32q0 -21 20 -32l-20 -40l4 -12l-4 -28q0 -25 24 -60q0 -8 -28 -32q29 -23 36 -68l-8 -12v-4l8 -24h8v-4l52 8l16 -4l24 12l12 -8l56 28l28 -4v4q36 -11 36 -20q52 39 52 56l12 -8h20l20 16l24 -64h4q0 8 12 8l8 16l-4 12l24 36l4 -4h16v8l-24 44
q0 11 36 44h4v12l-8 12v8l28 40l-16 24v4h8v4l4 -4h8l8 48v12l-8 48l4 12q0 18 -24 72l12 4v16l-4 16l4 16q-7 0 -20 68q-12 0 -36 32q-32 19 -32 32v8h-4q8 48 24 48v4l-16 4l-4 -4h-4l-16 4q-24 0 -24 -24zM1288 760l12 -4v-8l-8 -8l-8 16zM1040 724l12 -4v-12l-20 -4
l-4 4v4zM1972 588l4 -4h4v12zM1796 540l-28 16h-4l-4 -16l12 -8l4 4l4 -4v-4l-24 -8q0 16 -40 16l-8 -8l-12 4l-24 -4l-24 12q-8 0 -40 -48l-12 8l-12 -4l-4 4q0 -12 -12 -12q0 -24 -36 -24h-8l-36 12q-1 -8 -40 -24l-4 -16l4 -4v-4q-36 -52 -60 -52l12 -40l-8 -8
q0 -25 12 -56l-4 -4h-4l20 -28l-4 -24q17 -16 32 -16l12 4l16 -4q0 28 24 28q0 16 28 16l8 28h32q26 18 40 68q8 0 16 36l28 8l4 -12h4q24 10 24 48l4 4h4q8 0 20 -24h4l-4 -4v-4l8 -8l12 4l8 -12v-4l-4 4h-4q-40 -17 -40 -36l4 -4l-4 -4h-4l-8 8h-4l-8 -8v-8q0 -8 16 -8
q3 -36 12 -36h4v4l-4 4v4l4 4h12l28 -32v-8l4 -12h-4l-48 -32l-16 4l-32 -20v-8q0 -8 44 -16l4 20h4l8 -8l20 4h12l4 -4h4q0 -9 -32 -20l-4 -12l4 -28h4l16 12h16q8 0 12 -24l-16 -12l4 -4v-4l-12 -12l-12 8h-4l-8 -8q1 -20 8 -20l-8 -36l4 -4h4l24 8l32 -4q0 8 24 12
q3 44 12 44l20 -4l16 28v4l-28 28l4 20q-21 4 -40 28l-24 8l4 20l-16 68q0 12 16 12l16 40q-16 17 -32 20v8l12 16h8q36 -13 36 -44v-36q3 -13 76 -28l4 -4h4l52 24l44 20q12 0 12 64h-8v4q0 30 20 36l4 28l-4 4v4l4 20q-3 50 -36 96l-4 28h-8q-41 0 -84 -32zM1636 320
l-4 -12h4l4 4v8h-4zM1616 272v-4l4 -20h12l4 4h4l-4 4v4l4 20h-16zM872 268v-4l24 -16h4l16 16l-20 12h-4zM1676 260l-8 -32l4 -4h4q20 5 20 12l-16 24h-4zM760 244h4v-8h-12zM1764 228v-8h4v8h-4zM660 168v-8l8 8h-8zM1584 100v-4h12v12h-4zM1068 -40h12l12 -12v-8
q0 -8 -16 -8q0 -19 -20 -40h-4l-12 12q0 13 28 16v12q-16 0 -16 8q8 18 16 20zM400 -56h12v-8l-8 -8h-4v16zM960 -92h8q15 -12 28 -12h4l4 4h4l20 -72v-4l-12 8l-4 -4h-28q0 -19 -24 -28h-12v8q-13 0 -20 20q0 8 36 8l8 12v8l-8 8v-12h-4v8l4 36zM280 -96h4q2 -16 12 -16h52
l4 4q36 -13 36 -20l-40 -24l-4 4q0 -12 -12 -12l-4 -4h-4q-32 0 -32 32l-8 8h-8l-12 -4v4q6 28 16 28zM1744 -132h12v-8h-12v8z" />
    <glyph glyph-name=".null" horiz-adv-x="895" 
 />
    <glyph glyph-name=".null" horiz-adv-x="895" 
 />
    <glyph glyph-name="nonmarkingreturn" horiz-adv-x="899" 
 />
    <glyph glyph-name="space" unicode=" " horiz-adv-x="851" 
 />
    <glyph glyph-name="space" unicode="&#xa0;" horiz-adv-x="851" 
 />
    <glyph glyph-name="exclam" unicode="!" horiz-adv-x="581" 
d="M71 1427q12 9 12 22l11 3v4l-8 25l12 6l-15 54l64 45q8 0 8 32l76 19h11q49 -21 49 -41v-4l4 4l4 -4h34q0 -10 23 -25q1 -9 30 -41l4 -32q-12 -85 -27 -89q-18 0 -37 -32q13 -36 26 -38h4l19 12h7q23 0 23 -28l4 -4l-34 -63l-27 -13l8 -19l4 3h3l8 -6q-22 -17 -27 -32
l4 -13v-3q-11 0 -11 -6v-4l7 -25q0 -34 -22 -80l-4 -22q0 -13 30 -25l4 -4v-3l-23 -25q16 0 27 -26l-4 -35l-15 -13l7 -19h-3q-19 0 -19 -19q-15 0 -15 -9l7 -10l-11 -13l11 -22l-4 -9q17 0 27 -42q-15 -19 -15 -28v-13q19 0 19 -7v-3q-8 -13 -38 -22q4 -28 15 -45h-11l3 -3
v-3q-19 -64 -38 -64q-5 -25 -11 -25l4 -10l-4 -25l4 -13q-4 -24 -15 -35l-7 -19q-20 -15 -20 -22l-3 -19h-12l-8 -10l-14 -10l-14 2l-4 14l-11 2l2 12q-1 15 -16 31q-2 16 -2 29h-4l11 31q-11 0 -11 42q-8 0 -8 13l-1 57l-7 51h3l-15 29l4 19l-11 16h3l-7 22q6 0 11 16l-4 9
l16 13v6h-4l4 23l-4 79l11 29l-11 19v3l7 10l-3 19q11 16 11 32q-9 0 -15 32q-10 0 -15 57q5 13 11 13l-4 16v3l8 9v7q-8 6 -19 54l4 9l-4 10h4l-4 3v10l4 3l-4 3l4 48v6l-8 19l19 73l-4 4v3l4 9q-18 26 -42 26zM167 282q44 0 90 -18l28 4q9 0 18 -30q32 -9 32 -28
q0 -22 36 -50l4 -28h-4l4 -4v-4l-18 -64l4 -22q0 -69 -36 -86q-11 -11 -32 -11l-11 3q0 -18 -21 -18l-4 4l-8 -6l-14 2q-2 -18 -22 -36l-18 12q-6 0 -14 -22h-3q-24 22 -51 22q0 10 -14 10l-4 14l4 12h-4q-17 0 -24 18q0 10 -18 10h-26q0 -14 -6 -14q-13 40 -36 40v2l18 30
q-22 36 -22 54v6l14 40q-2 36 -6 36l2 4v6h-6q17 26 36 30q13 32 36 32q39 36 60 36z" />
    <glyph glyph-name="quotedbl" unicode="&#x22;" horiz-adv-x="1090" 
d="M584 1433h4l56 -12v4l8 8h4q14 0 32 -36h4l12 8l24 -8h8l4 4h4v-4l28 8l36 -44l-4 -16q18 -12 36 -12l16 4l56 -40v-8q-25 0 -40 -16l-4 4h-4q-38 -23 -48 -48l4 -4v-16q-32 -25 -32 -64h-8v-4l-4 4h-8l-8 -32q0 -30 56 -40l24 8l4 -12q-5 -28 -16 -28l-20 12l-60 -24
l4 -20v-8q-16 0 -16 -28l16 -12h4v8l32 -20l12 -20q21 20 36 20l12 -12q0 -17 -36 -24l-12 12q0 -28 -16 -28h-24l-8 -28h4q27 -11 32 -24v-8q-18 -24 -40 -24l-4 -4v-4q3 -24 12 -24l12 8h8l4 -20h-24q-21 0 -36 -12h-4l-4 4h-4l-48 -48q-4 -32 -12 -32h-4l-12 8h-20
q0 39 -48 48v8h-4l4 28v24q12 12 28 64l-12 28l8 56h-4l4 12q0 25 -20 40v8l4 24q0 27 -36 48v4l4 12l-16 16v32q28 28 28 40q0 14 -44 24l-4 4l-15 56l-12 41v32l17 -3l-7 33q29 37 37 37l16 4l21 -2l23 22v4zM268 1444q44 -26 44 -44q0 -32 36 -64l4 -12q-20 -39 -32 -84
v-4l16 -24l-4 -24l8 -24q-28 -15 -48 -72l-8 -12l8 -32v-4l-8 -12l4 -20q-11 0 -16 -52l8 -8v-12q0 -20 -8 -20l8 -60l-8 -28l8 -24l-4 -36v-4l4 -20q-40 -13 -40 -40v-8h-16l-20 16l-16 -8q-24 9 -24 24l-52 -4l-12 8q0 27 16 56v12l-4 20q3 32 8 32l-4 12q0 22 12 44
q-19 84 -40 84l-20 44v4l8 24q-24 20 -24 64q-15 0 -20 28l4 32q-7 27 -28 36h-4v6l-4 16l35 87l45 27q0 13 56 28q14 40 44 40l44 -16q0 6 44 28z" />
    <glyph glyph-name="numbersign" unicode="#" horiz-adv-x="1304" 
d="M952 1658q0 -20 24 -60q-16 -27 -16 -56q20 -36 24 -64l-4 -4v-28l12 -16l-44 -112h4l-4 -4v-8l8 -12v-4l-4 4h-4v-4l4 -28h-4q-18 0 -40 -28l12 -16v-4l-4 -4l4 -4v-16q-13 -26 -24 -32l4 -4v-8q0 -19 -20 -40l8 -16q-13 -96 -32 -96l-20 -16l4 -4v-4l-8 -8v-4h4l4 4h4
q1 -16 16 -16l44 12h8l20 -16h8q0 12 32 40l28 -16q0 12 8 12h12l12 -8l4 4h4l4 -4l8 8h12q27 0 32 -44l12 -12l-8 -16l20 -8h4v12h20v-4l-12 -12l4 -12h-4l-20 4q0 -11 -20 -32q0 -14 -24 -48l-32 -20q0 -11 -28 -16q0 8 -12 8q-2 25 -16 40l4 4v4l-4 4h-4v-8l-12 -4l-4 4
h-16l-8 -8v-4l4 4h8v-12q-22 0 -24 -28h-12q-8 0 -8 16l-32 16h-24q-35 0 -52 -28l4 -28q-8 0 -32 -36q-12 0 -12 -12l-12 -12l4 -4v-4l-4 -16l4 -4l-4 -4h-20q-20 9 -28 24l4 4v24q-16 18 -16 36q0 16 16 16v8l-24 28l-24 -12l-12 4q-4 -20 -20 -20l-4 4l-8 -8
q-31 11 -36 24l4 4h-4l-24 -20h-20q-28 0 -28 24h-4q-20 -9 -20 -20q-15 12 -28 12h-16q0 -32 -44 -32q0 -13 -36 -36l-8 -12h4q-8 -24 -32 -24l-8 -16v-8q0 -17 16 -28v-8h4l-4 -4v-28l4 -24l-16 -28l20 -24l28 16l60 -24l56 12l36 -8v4l4 -4h4q48 15 48 32q10 20 32 20
q0 -8 24 -16q15 3 28 32l24 4l8 -8l4 4h4q5 -15 20 -24l4 4q51 0 64 -24q0 -8 12 -8l28 20l28 -12v8l-4 12q24 5 24 16h4l40 -12q0 13 40 16q0 8 28 8v-8h28q22 0 32 -20v-32l8 -24q0 -28 -56 -28q-19 -20 -32 -20l-32 12v-4q0 -10 -36 -12l-8 12l-4 -4h-8q-13 0 -28 12v-4
l-20 8l-16 -20l-20 4q-68 -3 -68 -8l-36 -28q0 -21 -24 -40l-8 8h-4v-8h-4l-28 12l-12 4l-24 -4q-15 24 -40 24l-4 4v-4l-24 8l-36 -12l-32 8l-4 -4h-4l-12 4v-8l-64 12h-32l-24 -16l-12 4q-34 -30 -60 -40l8 -32q0 -20 -28 -28l-12 -36l44 -44q16 -2 16 -12l-8 -28h-20
l-12 8q-6 0 -24 -44l4 -20v-4q0 -76 -36 -76l-8 -80v-4q-24 0 -24 -48l4 -16l-8 -24v-8l4 -24q-7 -44 -28 -44q0 -8 -20 -8l-28 -32v8h-4l-12 -4v16h-4l-4 -4h-4l-20 88q32 95 32 132q20 12 20 32q16 0 16 12l-4 12l16 56l-4 4v4l24 64q-16 24 -16 36q24 16 36 16l4 -4
q12 0 28 52q17 0 24 28l-4 16l8 24l-12 32h-16l-16 4q-9 0 -28 -24h-4q-12 0 -16 28l-40 -4q0 -8 -16 -8q0 -12 -8 -12l-12 4l-4 -4l-4 4v4l4 4q-4 40 -20 40q0 10 -36 52q24 56 72 56q0 7 28 8h12l8 -8l4 4h8q0 -20 32 -20q24 -1 24 -8q21 17 56 24q17 24 36 28l16 72
q0 41 24 68v8h-8v4h8v4q-13 40 -44 40q0 -8 -12 -8q-8 -24 -20 -24l-12 8l-4 -4h-8q-17 24 -32 24l-44 8l-8 8q-4 -12 -24 -12h-8q-44 0 -56 44l12 12l-4 4v4h4l-8 20q8 0 8 16l4 4h4l12 -8q13 36 20 36l4 -4q0 17 20 24h12l32 -28l88 -8q15 0 40 16l12 -8h4l44 36l12 -4
l-4 4q20 52 28 108q8 0 20 76q8 0 12 40l24 12q0 8 -12 8v12q16 10 24 64q24 16 24 128l8 36l4 4v4q0 20 -24 36v8q64 28 64 52q15 58 64 88q0 7 24 12l4 -4l4 4q0 -8 20 -8l8 -16l-4 -4l4 -12q0 -30 -16 -48v-8l4 -40l-4 -24l4 -12q0 -27 -20 -40q0 -11 -40 -56
q-16 0 -16 -32l4 -24q-14 -28 -32 -40l4 -12l-12 -12v-12l4 -4q0 -8 -32 -32l12 -4q-7 -132 -36 -144q-16 -18 -16 -36v-4q12 0 12 -28q11 -4 32 -52l16 -8l4 4h16l4 -4h4l4 4v4l76 -12l8 8l12 -8l12 8h4q28 -20 28 -40l4 4h4l12 -4l16 24q8 -16 24 -16l20 36l-4 24v4
q12 36 36 36l20 52l-4 64l8 8l-28 16v12l44 36v40q32 0 36 40v16l-12 32q0 12 12 12l-4 4v20q0 29 24 44l4 32q0 10 -32 36l-4 28l8 8v16l-12 24q0 33 32 88l12 32l20 -4h4q0 14 28 20l4 4v4l4 -4h8q0 12 8 12zM844 1198l-4 -12v-4h4l4 12v4h-4zM1036 954v-8h4v8h-4zM28 818
v-8h8v8h-8zM1036 802v-8h4v8h-4zM168 466v-4l12 -4v4l-4 4h-8zM568 326h36q28 -17 28 -24l-8 -80h4l8 -8q0 -30 -20 -32q0 -18 -40 -48h-4q0 18 -32 40q-12 18 -12 36l12 12v4q-12 0 -12 24q11 0 16 24l-4 24zM548 130l4 -4q12 0 12 -20q12 0 12 -8h-4l8 -20l12 4v-4l-4 -36
v-4l4 -4l-52 -92l4 -20q0 -25 -20 -88h-8l-4 4h-4q-38 -64 -44 -64l-4 4l-4 -12h-8v8l-16 -8l-40 20l4 20l-12 56h4l-4 4v12q15 0 32 72q11 15 32 20l8 -16h4q9 32 20 32v8q-24 0 -24 36q16 42 40 48l8 8h16l12 -8h16v8l4 -4h4l4 4v4l-4 4h-4l-4 -4l-12 16v16q0 8 12 8z
M64 -198v-4l8 -8v12h-8z" />
    <glyph glyph-name="dollar" unicode="$" horiz-adv-x="1183" 
d="M796 1764q36 -4 36 -16l4 4h4q0 -15 36 -68l4 -12q-6 -42 -40 -80l4 -20v-4q0 -12 -32 -16l-4 4l-8 -32l4 -16q-4 -33 -32 -92v-4q20 -10 20 -28h4q44 23 44 68q12 12 28 12q0 20 8 20l20 -20v-16q0 -26 -20 -40q0 -16 -12 -16q0 -24 20 -24l8 -8l4 -16l-4 -4v-20l8 -24
l-4 -36q24 -28 24 -68l8 -48l-4 -36l4 -4v-4q0 -28 -24 -28l-20 -20q-52 0 -52 36q-15 0 -28 40l4 72l-12 52v8l8 24q-16 3 -32 44l-32 24h-4q-16 -7 -60 -100l-44 -96q-13 -4 -16 -16l4 -20l-4 -4h-8v8l-12 -16l-4 -4h-4l-28 4v-8h-4l16 -40q-7 -40 -20 -40l-20 32l-4 4h-4
l-8 -12l4 -44l-4 -4v-4l20 -24q-24 -53 -24 -68q8 -32 36 -32q8 32 16 32q11 -20 32 -20v-12q0 -8 -24 -8l-12 -28h-8q0 20 -8 20h-4q0 -11 -20 -20q-16 4 -16 28h-8l8 -20l-4 -4h-4l-4 4l-8 -20l8 -16q-8 -19 -36 -44q-16 -60 -32 -60l-20 -44h4l-44 -64q0 -33 -16 -72
q0 -41 -40 -72q0 -11 -20 -32l4 -36l-8 -32v-12q26 -83 36 -88l48 -12l24 4q32 -10 32 -32h28l-4 16q4 16 24 16l20 -16l88 8q0 20 80 20v-4q49 27 60 60q0 14 48 20l16 -4q15 0 32 44l36 40q12 0 12 16l-4 20q8 0 8 24q17 6 24 20q-20 29 -20 80h4l-28 52l12 20
q-37 29 -52 80q-27 11 -32 24q-25 -2 -40 -16l-8 16l-32 -12v44l-4 4v4l-4 -4h-4l-12 4l-4 -4l-20 28h-12l-4 -4h-4l-24 56h32q0 12 20 12q0 31 72 36h20l44 -44q0 -16 32 -40l8 -8q34 0 44 -60q20 -8 32 -52q48 -46 56 -128l16 -40l-4 -56v-8l4 -20q-24 0 -56 -108
q-1 -29 -28 -52q0 -15 -52 -84q0 -15 -32 -48l-24 16q-33 -4 -60 -20q-20 12 -40 12q-2 -8 -60 -32l-24 4h-4q-34 -28 -44 -28l-8 16l-32 -4l-44 16l-4 -4v-4l-4 4h-16l-4 -4q-27 6 -44 20l-20 -4h-8l-40 32h-4l-16 -4q-45 32 -72 32q-32 -15 -48 -84q0 -10 -36 -36l-4 -16
l4 -12q-9 -3 -24 -52q-36 -39 -36 -60l4 -16q-1 -37 -40 -76l-20 -68l-8 -24v-28l12 -24l-4 -4v-4l4 -24q-2 -9 -32 -20l-8 -24v-20l-32 -16h-12q0 30 -72 60q-25 16 -44 112l-4 52l24 8v-4l12 4v8q0 52 36 52q3 20 20 20q12 14 12 32q6 0 28 44q40 39 40 56q40 92 40 136
v12h-4l8 44l-8 16l4 4v4l-8 24l20 48h4q0 31 -24 56v8l12 20q0 25 -48 132v4q9 34 32 44q8 0 16 24h4q56 0 80 -88l4 -16l-12 -48q0 -10 36 -40v-4h4q24 14 24 44l20 8v4l-4 20q16 7 16 28l-4 4v4q20 28 52 116q64 114 64 140q0 22 20 44v4q0 6 -60 36q0 18 -16 44
q0 32 44 40l48 -44h16q7 0 20 40q7 0 20 52q40 20 40 40q0 15 24 28l4 24l-4 4h-4l-4 -4l-4 4v12q24 0 24 28v8l-4 48q10 0 12 36q44 25 44 32v12l-4 4l20 36v28l-8 12v16l4 16q0 13 -40 28l-12 8q-10 0 -44 -32q-36 0 -36 -24v-12l-36 -4l-12 4q-27 -16 -60 -20
q-16 -9 -28 -36q-52 -19 -52 -48l-12 -12l4 -48v-16q0 -21 -20 -52v-8q9 -11 12 -60q15 -28 24 -28q16 -17 16 -64q-4 -24 -12 -24l-4 4h-4l-44 -16l-20 12l4 4v12q-9 17 -52 40l-20 64l-4 20l12 12q0 45 -20 76l-8 48q60 102 60 128q0 20 68 36q0 11 28 28q4 12 24 12l4 -4
l48 56l44 -12q24 16 36 16h20l28 32q21 -12 56 -16v-8h12q15 12 36 12h24q14 0 32 -16l28 20v4l-4 24q26 52 56 52q0 10 36 40l4 24l-8 20l4 16v8l-12 4l4 20v4l-4 4v4l24 28l16 4l4 -4h4q20 0 20 8zM848 1376v-4h8v4h-8zM600 1144v-16h4v16h-4z" />
    <glyph glyph-name="percent" unicode="%" horiz-adv-x="1179" 
d="M914 1540q13 0 52 -29l-32 -92q-19 0 -36 -55q-6 0 -16 -26q-14 -24 -40 -46l-8 -55q20 -4 20 -36l-12 -3l-12 3q-31 -23 -52 -72q-15 -54 -40 -68q0 -11 -24 -36q0 -51 -80 -101q-12 -19 -12 -42q-33 -36 -48 -72q-24 -17 -24 -52q-17 -7 -32 -52q0 -13 -40 -39l-4 -17
l4 -3v-3q-8 -15 -8 -42v-23q-23 -50 -40 -69q-25 -49 -60 -81q0 -23 -16 -62v-7q-12 -8 -12 -21q17 -9 17 -18q0 -1 -1 -3l-12 -3l-18 -18l-30 -11q-22 -12 -44 -46l4 -36v-3q-23 -23 -44 -23q0 -20 -56 -114q-12 -11 -16 -49q-38 -18 -44 -32l12 -36q-4 -35 -24 -59
l-56 -13h-8q-22 8 -32 20l4 3l-8 36l4 3v3l-8 20q16 5 44 78q12 0 16 26l-4 3q15 0 20 46l4 3h4l-4 16q0 6 32 23q1 8 32 30l-4 9q0 17 36 65v20l-4 13q4 20 36 39q0 14 28 59l-4 3v3l52 85l8 10l-4 13q21 0 32 55h-4q16 20 20 56l52 45q15 0 24 39q11 0 16 39q21 0 28 62
v23q48 14 48 46q0 9 44 42v3l-8 43q4 15 24 29q5 49 28 49q20 0 20 52v26q0 7 32 13q0 15 56 75l24 42v4l-4 45q0 17 28 23q80 86 80 121q11 10 44 81zM278 1444h4q28 -44 28 -60l32 -24h20l4 4h4v-4q12 0 12 24h20l4 -12q-16 -24 -16 -40h4l4 4h4l4 -4v-4l-8 -12l4 -20
l-4 -24l4 -16q0 -40 -36 -104q-5 -56 -36 -56q0 -22 -44 -44l-4 4h-8q0 -12 -8 -12h-4q-7 0 -12 20q0 29 32 36v8q29 0 56 56l4 16v12q-21 72 -48 72l-36 -8l-12 12l-4 -4q-5 20 -12 20l-16 -28l-36 24h-24q-7 0 -12 -20l-24 -8v8h-4q0 -48 -20 -48v-20q24 -37 24 -56
q24 -8 24 -16v-20h-12v-8q16 -17 16 -32q-18 -16 -28 -16l-4 4v4l12 20l-8 8l-24 -8q-10 0 -20 12q-10 0 -32 28q-36 30 -36 52l12 36l-16 72q8 0 16 28h-4q9 24 40 52q0 32 8 32q4 -12 24 -12l4 4l20 24q112 5 112 32l20 8l24 -4zM66 1100q8 0 8 -12l4 4h4l-4 16h-4z
M202 1072h8v-4l-8 -12h8v-16l-36 -4l-8 20l4 4h4l4 -4q24 3 24 16zM746 401h8q33 -36 44 -36l16 12l8 -8h4q2 16 12 16h8q0 -19 20 -44l4 4h8q0 -52 28 -52q20 -35 20 -64q16 -9 16 -40l32 -32v-4q0 -8 -12 -8l-4 -4v-4l8 -24q-56 -19 -56 -76l-12 -4l-12 4q0 -8 -44 -32
q-4 -32 -16 -32h-20l-40 -4q-25 0 -56 20q-76 14 -76 20q-80 64 -80 92l-4 20l8 16l-20 64l16 20l4 -4h8l-8 60q8 0 28 32q30 0 88 36q0 8 20 8q0 12 20 20q3 20 12 20l12 -4v4zM742 217l-4 4q0 -12 -24 -28h-12v8h-4q-11 -8 -28 -60l-8 -8v-12l28 -4v-24l8 -8l4 4h4
q0 -26 48 -44q54 5 68 24l4 -4l20 12l-4 4l28 108q-8 0 -28 44h-8l-12 -4l-36 8z" />
    <glyph glyph-name="ampersand" unicode="&#x26;" horiz-adv-x="1314" 
d="M74 528h22q50 -29 50 -64q-54 -32 -54 -50q-13 -45 -55 -45q-49 24 -54 36v5l45 40l-4 46v4q0 14 50 28zM593 862h5q4 4 8 15zM309 -68q-2 -12 -26 -15l-4 3l-9 4l-76 20q-10 13 -17 24q-60 4 -74 73q-85 0 -96 58v23l5 18l-36 86l13 32l-4 59q0 24 27 36h4
q46 -36 46 -59q0 -14 -14 -31v-5q24 -21 30 -51l11 -11l15 -58l43 -17l38 -38l19 -1l10 -19l12 -1l10 -9q-2 -3 -2 -6q0 -10 25 -20l50 18l50 -14q58 38 75 103q55 80 69 91l18 15q3 8 3 18q0 44 -62 110q0 14 -56 41l-20 83l-62 38l11 40l-30 12l-35 -38h-31l-5 4l-54 -9
q-26 18 -50 23l-9 13v27q3 28 13 28l41 -5q57 0 77 64l41 36q-22 26 -23 77q-17 11 -36 68l14 86l-28 27v9q0 22 32 46l-4 27q28 39 54 59q54 -16 54 -55q0 -17 -31 -54l4 -27l-13 -46q0 -29 22 -63l13 -23l6 -25l36 -76l27 -1l60 35l4 -4l4 4l2 4l29 28l-1 11l2 3l28 8
l17 27l16 13l-1 17l36 18l11 86l-37 77q-14 11 -14 23q0 6 4 13q-91 23 -110 25l-14 4l-68 -9q-59 25 -59 55q58 14 86 49l18 5h10q17 0 40 -23q67 23 96 23h9q11 0 22 -41q21 -24 59 -36q14 -76 50 -150l5 -31q-3 -41 -9 -41l4 -5q0 -57 -45 -68q0 -18 -9 -18l9 -27v-32
l-95 -59q-11 0 -23 -27q-85 -22 -100 -54l-9 -73l25 -31l5 -39q5 0 10 1l20 -13q-1 -1 -1 -4q0 -12 22 -50l46 -31l8 -23l13 1l10 -9q49 56 81 76v18l-4 18q51 41 70 79q0 58 72 79l41 6l59 5l53 -28q42 -30 50 -50q0 -68 -27 -68l-53 15l-68 14l-56 -47q-42 -78 -61 -112
q-70 -19 -104 -114l9 -19q8 -19 67 -85l16 -22l20 5l21 -12l16 -37l33 -14l6 -39l11 -8l58 -7q51 19 71 79l24 57q26 15 46 15q48 0 62 -86v-23q0 -18 -45 -77q-23 -31 -23 -50q-14 -37 -36 -49h-59l-46 -14h-4q-40 0 -159 54q-46 0 -53 101l-70 21l-26 85h-24
q-24 -76 -74 -131q-30 -48 -75 -80l-68 -9l-18 4z" />
    <glyph glyph-name="quotesingle" unicode="'" horiz-adv-x="585" 
d="M104 1443h4l56 -12v4l8 8h4q14 0 32 -36h4l12 8l24 -8h8l4 4h4v-4l28 8l36 -44l-4 -16q18 -12 36 -12l16 4l56 -40v-8q-25 0 -40 -16l-4 4h-4q-38 -23 -48 -48l4 -4v-16q-32 -25 -32 -64h-8v-4l-4 4h-8l-8 -32q0 -30 56 -40l24 8l4 -12q-5 -28 -16 -28l-20 12l-60 -24
l4 -20v-8q-16 0 -16 -28l16 -12h4v8l32 -20l12 -20q21 20 36 20l12 -12q0 -17 -36 -24l-12 12q0 -28 -16 -28h-24l-8 -28h4q27 -11 32 -24v-8q-18 -24 -40 -24l-4 -4v-4q3 -24 12 -24l12 8h8l4 -20h-24q-21 0 -36 -12h-4l-4 4h-4l-48 -48q-4 -32 -12 -32h-4l-12 8h-20
q0 39 -48 48v8h-4l4 28v24q12 12 28 64l-12 28l8 56h-4l4 12q0 25 -20 40v8l4 24q0 27 -36 48v4l4 12l-16 16v32q28 28 28 40q0 14 -44 24l-4 4l-15 56l-12 41v32l17 -3l-7 33q29 37 37 37l16 4l21 -2l23 22v4z" />
    <glyph glyph-name="parenleft" unicode="(" horiz-adv-x="581" 
d="M360 1600q6 -40 20 -40v-20q0 -48 -32 -48l-4 -4v-16q12 -17 12 -32q0 -32 -92 -92l-8 -16l4 -20v-12q16 -2 16 -12v-4q0 -29 -12 -32l-28 20q-24 -10 -56 -88q-8 0 -16 -32h4l-12 -24l4 -16l-12 -28l4 -4v-20l-8 -28l8 -28l-24 -68l8 -16l-8 -60l8 -16q-8 -8 -16 -84
l-8 -8l4 -12l-4 -40q12 -4 12 -24l-8 -28l-4 -104l4 -16l-8 -8l24 -144l4 -4v-32q10 -48 44 -104q0 -19 36 -72q0 -20 28 -60l-4 -20q21 0 28 -36q25 -18 32 -68q9 0 20 -36q18 -2 64 -112q0 -9 -48 -44q0 -16 -32 -48v-36l-20 -4l-36 4v4q7 44 28 44q16 6 16 12
q0 49 -40 68q-2 21 -64 76l-20 56l-20 84q-52 108 -52 148v48l-36 68l-12 36v12l4 24q-6 31 -48 68l-4 20l12 28l-4 4v4l12 20l-4 56l8 32v4h-8l-8 12l4 4l-4 48v36l4 16l-4 16v20l32 112l-4 24h4l-4 4v24l4 4l-4 4v4l4 16l-4 24q8 0 28 84q16 7 16 28v28q29 0 36 56
q0 28 8 28l-12 20v4q32 28 32 84q20 19 40 96q32 43 32 80q48 57 116 92q1 8 28 12z" />
    <glyph glyph-name="parenright" unicode=")" horiz-adv-x="578" 
d="M16 1602q84 0 124 -28h12q17 16 32 16l12 -20q-7 -20 -52 -36v-24q33 -29 72 -116l28 -20v-28q-12 0 -12 -8v-8q13 0 36 -148q15 -2 36 -72q9 0 28 -148q18 0 28 -100l28 -12v-12q-24 -15 -24 -64l-4 -16q10 0 20 -40l4 -88l-8 -8v-12l8 -12l-8 -36l4 -4l-4 -4v-4l4 -32
l-4 -32q8 0 16 -44q-10 0 -20 -40l4 -4v-4q-10 0 -16 -32v-16q-12 0 -12 -16l4 -4l-20 -12v-8l8 -32v-4q-16 -19 -24 -68q-9 0 -20 -32l4 -4v-4l-8 -32v-24l-4 -4l4 -4v-4l-64 -152l-4 -4q-28 -56 -28 -100l-24 -12v-12l-12 -40v-12l-40 4l-4 -4q-18 8 -20 16v16
q17 24 28 60q13 0 32 60q21 28 32 128q25 25 28 52v28q0 8 36 36q0 48 20 56l4 24v8l-12 40v76q26 27 36 60l-4 4v4l8 76v32l-20 60l12 36l-4 4v16l8 16l-4 60l4 20q-19 29 -32 80l8 32q-10 40 -24 52q0 28 8 28l-4 20v28l-16 28l4 24q0 17 -40 100q0 14 -40 100
q-7 17 -28 36v24q0 29 -40 64q-12 32 -36 48q0 7 -28 28q-24 46 -32 84q24 0 24 16l4 12l-28 40z" />
    <glyph glyph-name="asterisk" unicode="*" horiz-adv-x="972" 
d="M428 1010l20 -20q8 -39 28 -48q12 -48 20 -48q-21 -21 -32 -100h-8v12h-8q0 -40 20 -56l-12 -28l4 -16l-4 -32q8 0 8 -12l4 -4h4q14 0 60 32q29 16 44 16q0 15 28 20q32 20 32 40q0 41 24 56l-4 4v4q2 10 28 20l28 -16h24q36 0 36 -28h12l16 12h4l28 -4q0 -25 -56 -68
q0 -41 12 -56v-8q0 -9 -40 -12l-16 -16l-32 -40l-12 -28h-4l-4 4h-4q-17 -23 -36 -32h-4q0 12 -8 12h-8q-40 -44 -52 -44v-12q0 -10 36 -12l12 16h8q0 -28 32 -40h4l24 8q0 -32 40 -32l32 -4h12l4 4h4l52 -24q0 -15 -52 -28q-41 -112 -60 -112l-36 12q0 -7 -28 -20l-4 4h-12
q0 -20 -8 -20l-16 40h-8v-8h-4l-20 4l4 16q0 23 -40 36q0 31 -28 56q0 8 -48 56q0 20 -20 20h-8l-24 -24v-16l24 -32v-36l-4 -4v-4l4 -4h4l4 4h4v-20l-8 -8l16 -48l-8 -24l12 -52l-8 -8v-8l4 -24q-7 -25 -32 -40q-9 -28 -20 -28v4l-4 -4h-4q-24 7 -24 12l-4 -4h-12
q-12 1 -24 40q-10 0 -12 20l8 36l-12 4v20l24 72l-12 12q17 16 24 56l-4 4q16 0 16 24l16 32q0 18 -32 28l-16 -4v4q-13 0 -32 -36q-9 -2 -20 -32q-33 -5 -60 -28q0 -7 -24 -20q-22 -60 -48 -60l-12 4l-12 -20l4 -12q-10 -26 -20 -28q-6 0 -12 16l4 4v4q0 48 -36 48
q-52 17 -56 28l-8 40l4 4v52q8 0 24 28q16 24 44 24v8l40 20l16 -8l40 8l12 -4q18 8 20 16l4 -4h8q38 0 52 20l4 -4h4q-4 36 -12 36h-4v-12h-4q0 8 -40 40q-20 -1 -20 -8q-30 4 -44 16l-16 -8q-9 0 -60 48l-32 -8q-28 41 -28 52l4 16h-4l4 12l4 72l-4 24l40 28h8
q45 0 68 -56l32 -12v-8l-4 -4v-4l28 -4l12 24l4 -4h8l16 8q12 0 12 -20q28 0 32 -60l4 -4l4 4h4q42 -38 48 -72h8q0 13 56 60l8 44l-4 4h-4l-20 -8q-11 60 -20 60t-20 32q-16 2 -16 32l8 24l-4 56q15 0 44 48q32 0 44 24zM544 538v-12h20v8zM512 526v-4h8v4h-8zM0 346h8
l-8 -8v8zM552 294h12l8 -8v-12h-12l-8 8v12z" />
    <glyph glyph-name="plus" unicode="+" horiz-adv-x="1518" 
d="M559 722q-4 19 -13 23h-6v4q16 0 24 20v32q-12 15 -12 68q-5 0 -6 28l3 4l-3 4h-3l6 76l-6 24v32l18 36l-18 72l-6 56l15 36l-6 24q0 22 29 52h15q17 -20 71 -20q0 -6 44 -32l12 -32l-3 -4v-4q4 -29 38 -68l-15 -48l6 -20l-6 -32v-12l3 -16l-3 -12l6 -20l-3 -68
q0 -12 15 -20v-4q0 -41 -24 -72l-11 -48v-4l3 -24l-3 -12q2 -11 4 -21h14l16 -2q13 1 36 19l76 17h8l8 -6l36 20q16 0 36 -25q11 0 32 -23l148 23h52l16 11q54 0 84 -25q13 0 28 -20l-4 -22l12 -28v-14q-16 0 -24 -25q3 -22 8 -22q-8 -14 -28 -25q-4 -11 -36 -28l-32 14
q-128 -16 -128 -33l-4 -3q-36 4 -64 17l-12 2l-4 -2l-12 2l-164 -11q-5 12 -20 17h-44l-22 3q-2 -3 -5 -6l-8 -12l-6 -16l12 -52v-4l-6 -8v-8l6 -12v-4l-6 -8q6 -18 6 -52v-4q0 -16 -21 -56l12 -20q11 0 11 -48q21 -32 21 -44q-9 -4 -9 -24v-32l6 -24l-3 -12l12 -16
q-8 -17 -12 -68l-15 -36l3 -20l-17 -8h-6q-17 0 -44 24l-68 36q-41 59 -41 112l-18 80l18 64l-6 24v28l9 60l-3 48l3 28l-3 28l3 32l-1 21q-16 -3 -54 -5l-12 3l-28 -9q-12 6 -80 11q0 -8 -16 -8l-20 3l-8 -6q-18 0 -40 11q-24 0 -40 -38l-28 -6q-42 31 -64 31h-4
q0 -12 -16 -12l-48 17h-28l-16 -8q-72 8 -72 19v3q0 24 8 36l-12 67q37 16 48 36l-4 3v3q0 30 36 30l4 3v-3q16 4 16 9l4 -3h24q34 0 76 39l4 3h4l-4 2v3l4 3l-8 22q56 13 56 42q0 5 12 5v14q3 17 12 17h4q13 0 24 -44q0 -24 -32 -31q-6 0 -12 -28l20 -19q0 -18 -40 -28
q1 -6 24 -17h24l184 22l32 -5l8 5z" />
    <glyph glyph-name="comma" unicode="," horiz-adv-x="619" 
d="M236 406q14 0 48 -20q33 -28 48 -32l24 -68q29 -34 52 -112h4l-4 -4v-8l8 -28q-15 -50 -28 -56q7 -27 28 -44l4 -24v-36q-30 -47 -48 -56l-4 -16l8 -8v-12q-28 -22 -28 -32l-4 -52l4 -4v-4q0 -14 -44 -24q0 -25 -48 -48q0 -14 -16 -40l-16 -48q-44 -11 -44 -20
q0 -10 -20 -28v-12h-16l-8 8l-28 -8q-37 0 -56 48l-44 72h4l-8 24q14 108 68 108l40 24q0 24 56 48q0 16 80 32v12l20 72l-8 8l-12 -12q-30 0 -48 28l-4 -4h-12l-52 16q-12 0 -60 40q0 36 -36 36l-4 28q12 16 12 36l8 12q-24 53 -24 72v12l20 -4q35 48 52 48l-4 4v4l4 4
l-4 4v12q9 24 32 24q80 12 84 24l4 -4h8z" />
    <glyph glyph-name="hyphen" unicode="-" horiz-adv-x="1501" 
d="M800 837q15 0 23 -45l15 -7q15 0 15 18h3l8 -7l22 7l-4 -3v-4q0 -10 42 -26v-8h3l53 23l18 -4q0 11 79 15q11 -19 26 -19v4l7 7l49 -18h3v7l19 -11q26 23 45 30l26 -11l22 11l4 -4q11 0 11 -11q12 0 19 -7l-11 -30l4 -15l-8 -8v-18q0 -8 11 -8v-15l4 -15q-27 -71 -60 -71
l-18 -15h-4l-34 4l-3 -4h-4l-19 4l-15 -11h4q0 -26 -37 -26l-15 4l-4 -4h-4q-31 7 -33 15l-15 -8l-19 4l-22 -7h-23l-45 7l-26 -7l-15 22q-37 -6 -37 -30l11 -11v-4q0 -7 -22 -7v-4l-41 11v8l4 11h-4q-51 4 -64 15h-3v-8l-23 8l-11 -11l-4 3v4l-18 -4h-19l-41 4l-11 -4
l-53 12h-14v-12h-15l-12 12l-11 -8l-33 11l-15 -3l-15 3v-3l-4 3h-4l-18 -3l-4 3q0 -11 -11 -18l-4 -19h-8l-3 4q-12 26 -19 26h-11l-11 -8l-12 8l-3 -4h-4l-7 8l-4 -4l-19 7l-7 -11l-12 4l-18 -4l-26 8q-37 -8 -45 -27l-45 19l-22 -7l-26 7l-27 -19h-3l-26 38l-19 -4h-11v4
l3 3v4l-3 4h-4q13 54 22 63v12l-3 15l7 48l-7 7q0 9 37 19h7l15 -4q36 22 71 27q0 6 19 7l4 11q14 0 30 -18l22 -4h4q7 0 7 11h4l4 -4l3 4h4l11 -4l53 8l18 -19h34q0 11 15 19h15l3 -15h8v4l26 -4h4l48 15h4l41 -15h8q1 15 11 15q0 -8 22 -8v-3l19 7q15 -11 56 -19l26 8
l26 -8q21 2 90 75h3z" />
    <glyph glyph-name="hyphen" unicode="&#xad;" horiz-adv-x="1501" 
d="M800 837q15 0 23 -45l15 -7q15 0 15 18h3l8 -7l22 7l-4 -3v-4q0 -10 42 -26v-8h3l53 23l18 -4q0 11 79 15q11 -19 26 -19v4l7 7l49 -18h3v7l19 -11q26 23 45 30l26 -11l22 11l4 -4q11 0 11 -11q12 0 19 -7l-11 -30l4 -15l-8 -8v-18q0 -8 11 -8v-15l4 -15q-27 -71 -60 -71
l-18 -15h-4l-34 4l-3 -4h-4l-19 4l-15 -11h4q0 -26 -37 -26l-15 4l-4 -4h-4q-31 7 -33 15l-15 -8l-19 4l-22 -7h-23l-45 7l-26 -7l-15 22q-37 -6 -37 -30l11 -11v-4q0 -7 -22 -7v-4l-41 11v8l4 11h-4q-51 4 -64 15h-3v-8l-23 8l-11 -11l-4 3v4l-18 -4h-19l-41 4l-11 -4
l-53 12h-14v-12h-15l-12 12l-11 -8l-33 11l-15 -3l-15 3v-3l-4 3h-4l-18 -3l-4 3q0 -11 -11 -18l-4 -19h-8l-3 4q-12 26 -19 26h-11l-11 -8l-12 8l-3 -4h-4l-7 8l-4 -4l-19 7l-7 -11l-12 4l-18 -4l-26 8q-37 -8 -45 -27l-45 19l-22 -7l-26 7l-27 -19h-3l-26 38l-19 -4h-11v4
l3 3v4l-3 4h-4q13 54 22 63v12l-3 15l7 48l-7 7q0 9 37 19h7l15 -4q36 22 71 27q0 6 19 7l4 11q14 0 30 -18l22 -4h4q7 0 7 11h4l4 -4l3 4h4l11 -4l53 8l18 -19h34q0 11 15 19h15l3 -15h8v4l26 -4h4l48 15h4l41 -15h8q1 15 11 15q0 -8 22 -8v-3l19 7q15 -11 56 -19l26 8
l26 -8q21 2 90 75h3z" />
    <glyph glyph-name="period" unicode="." horiz-adv-x="612" 
d="M188 364l40 -24l40 4v-4l56 20v-4q0 -20 -8 -20q0 -50 56 -100l24 -44q28 -34 28 -64v-12q0 -7 -40 -40q0 -22 -20 -28l4 -20v-12h-4l-4 4h-4q-21 -64 -40 -64l-60 -32l-20 -4l-4 4h-4l-28 -4l-20 16l-4 -4q-13 0 -36 16q-18 0 -104 100q-12 0 -20 20h-4l-4 68v20l-8 12
v16q24 0 24 60q16 7 16 28l-4 4v4q11 31 56 44l4 28h8l4 -4h4v4l4 -4h12z" />
    <glyph glyph-name="slash" unicode="/" horiz-adv-x="1176" 
d="M925 1754q13 0 52 -36l-32 -112q-19 0 -36 -68q-6 0 -16 -32q-14 -30 -40 -56l-8 -68q20 -5 20 -44l-12 -4l-12 4q-31 -29 -52 -88q-15 -67 -40 -84q0 -13 -24 -44q0 -63 -80 -124q-12 -23 -12 -52q-33 -44 -48 -88q-24 -21 -24 -64q-17 -8 -32 -64q0 -16 -40 -48l-4 -20
l4 -4v-4q-8 -18 -8 -52v-28q-23 -61 -40 -84q-25 -60 -60 -100q0 -28 -16 -76v-8q-12 -10 -12 -26q17 -12 17 -22q0 -2 -1 -4l-12 -4l-18 -22l-30 -14q-22 -14 -44 -56l4 -44v-4q-23 -28 -44 -28q0 -24 -56 -140q-12 -13 -16 -60q-38 -22 -44 -40l12 -44q-4 -43 -24 -72
l-56 -16h-8q-22 10 -32 24l4 4l-8 44l4 4v4l-8 24q16 7 44 96q12 0 16 32l-4 4q15 0 20 56l4 4h4l-4 20q0 7 32 28q1 10 32 36l-4 12q0 21 36 80v24l-4 16q4 24 36 48q0 17 28 72l-4 4v4l52 104l8 12l-4 16q21 0 32 68h-4q16 24 20 68l52 56q15 0 24 48q11 0 16 48
q21 0 28 76v28q48 17 48 56q0 11 44 52v4l-8 52q4 19 24 36q5 60 28 60q20 0 20 64v32q0 8 32 16q0 18 56 92l24 52v4l-4 56q0 20 28 28q80 105 80 148q11 12 44 100z" />
    <glyph glyph-name="zero" unicode="0" horiz-adv-x="1117" 
d="M400 1318v-4l4 4h16l16 -16l16 8l24 -12l20 4l56 -24q0 -16 48 -16l56 -24l-4 -4v-8q27 -44 48 -44l20 4q16 -17 16 -32v-16l-4 -16l12 -36l16 -4l8 8q34 -52 44 -52v-8h4l-4 -20v-8l12 -16l-4 -28v-28h-8l-4 24l8 20q-1 15 -36 28q-101 106 -104 132q-12 0 -12 12
q-15 16 -32 16l-20 -16h-8l4 4v32l-24 4l-8 -8q-8 0 -40 36l-4 -4h-4l-36 12l-8 -8q-29 26 -64 28q0 -23 -28 -32l-12 -12q-16 6 -24 20q-60 -31 -60 -68l-12 -8l-12 4v-4l-28 -16l32 -56q0 -29 -12 -32h-4q-8 0 -12 44h-12l-4 -4h-4q-5 20 -12 20q-8 0 -32 -28h-8
q0 -13 -24 -28q-18 -44 -28 -44l4 -4v-8l-8 -8h-4l4 -4v-24l-28 -80l-4 -36l56 -12l8 16l-4 4v4l4 4v4l-4 12l4 24l4 -4h4v28l-4 4q4 32 20 44q1 20 12 20h4q36 -22 36 -28v-24q0 -33 -32 -68l4 -4v-24l-12 -20l4 -16l-20 -8l4 -24l-4 -4v-4l16 -56q-11 -3 -20 -20v-20
q20 -21 20 -40h-12v-8q12 0 12 -8v-8q0 -20 -20 -20q-4 -44 -12 -44l-20 16h-4q0 -16 -12 -28l4 -16l-4 -4h4l12 4v-4l4 -4v-4q-8 0 -16 -24h4l-4 -4v-4q0 -9 20 -12l8 12v4q0 8 -12 8v12q0 10 32 12l8 -16l-8 -20q0 -32 28 -32v-28l-4 -4q11 -38 24 -40l4 -4h4v-20
q12 -9 12 -40q16 -11 40 -52q28 -20 28 -44q24 0 24 -24l68 -40q15 -14 64 -32l12 -12h20l24 8l12 -8q11 0 20 20l4 -4q72 17 72 36l4 -4h8q0 10 76 60v4l-4 20l4 24v8q12 0 12 8l4 -4h8q0 22 32 44q14 76 20 76q16 8 16 24l-4 16l32 80q0 8 12 8l12 12l-4 16l-4 -4h-4
l-8 24l16 44l-24 88l4 4l-8 88l8 8v4q0 17 -20 40v8q7 64 44 64l12 -4l-8 -76l4 -12q-12 0 -12 -8l24 -76l-4 -28q11 0 36 -64q12 -9 12 -28v-4l-20 -20l-4 4l-12 -12l4 -20q-8 0 -16 -40l8 -44l-16 -32l24 -120l32 24h8q7 0 12 -20q-19 -40 -40 -64v-4l4 -28q-8 0 -8 -16
q-21 0 -48 -52h-36l-8 8v4l4 28l-4 4h-24l-8 -16q0 -26 16 -32l4 -4q-4 -24 -16 -32v-4h-16v12h-16q-12 0 -12 -44l-4 -4h-24v-24q0 -8 -24 -8q0 -16 -36 -16q-15 -35 -24 -36l-28 20l-40 -24l-12 8l-4 -4h-4l-28 12h-12l-32 -8h-8l-24 4l-24 -8q-1 13 -84 40q-34 25 -36 40
l-4 -4h-4l-32 12l-20 -4q0 10 -64 68q0 33 -56 60l-4 12l4 16q-16 17 -20 36q-36 28 -36 40v4l8 8l-4 4l4 16l-4 20l-4 -4h-16l-4 16l4 44q-12 4 -12 24l4 32l-4 28l4 20q-3 29 -20 40l4 20v8q0 8 -12 8v4q23 31 28 52h4v8h-8v16l-12 48v20q0 10 16 12q-4 56 -12 76l4 4v4
l-4 16v4q12 0 12 36q20 8 20 48l8 24l-4 24q16 0 16 48h4l-4 4v16q28 0 60 60q8 0 8 28q26 0 40 36l32 36h4l4 -4h4q0 8 36 40v4l-8 12l4 4h4q13 0 28 -12h12q32 0 48 24q38 28 56 28zM572 1170h4l8 -8l-8 -8l-4 4v12zM116 754v-12h-12v8h-12q-13 0 -24 -56q-10 0 -20 -32
h24q0 10 16 12q0 20 28 20v24l8 12v8h-8l4 4v12h-4zM112 598v-4l4 -4v-4l16 4v4l-8 8zM968 514l8 -8h-8v8z" />
    <glyph glyph-name="one" unicode="1" horiz-adv-x="1166" 
d="M120 1448l96 -28v-4l16 4l20 -4v4l4 -4h8q17 14 48 16l44 -4l20 4l8 -8l4 4l4 -4h8l8 8l28 -4l24 4l24 -8l40 16q28 -31 28 -52l-8 -36h8v-4l-4 -4l20 -24v-28l8 -32v-64l-8 -32l8 -52q0 -8 -28 -12v4l-12 -4v-8l4 4h4v-8l-4 -4v-4q16 -4 16 -20l-12 -72l8 -8
q-13 -30 -32 -36l-4 -24q0 -22 28 -36l4 4l12 -28h-4l4 -4v-20l-8 -12l4 -16l-4 -44v-4l4 -4l-4 -4v-8q0 -16 20 -32l4 -16v-12q-14 -64 -28 -64l-12 -40l4 -12q0 -33 -44 -52q-20 -18 -20 -28q0 -15 36 -20l8 -8l4 4h4l4 -4l-4 -4v-4q22 -39 32 -40v-4l-16 -32l24 -64
l-16 -48h4q0 -12 -12 -12v-8l4 4h4q0 -28 36 -56h24l4 4q32 -21 32 -36h8v8q12 0 12 8q24 -3 24 -8q23 3 44 24h8q27 0 44 -36l24 -4h16l84 24l12 4h4l44 -28l4 -12l-4 -4v-12l4 -16q-15 -88 -36 -88l-28 -4l-8 8l-28 -20l-4 4h-12l-4 -4l-12 4l-16 -8l-4 4q-8 -20 -44 -20
l-48 32l-16 -4q-26 12 -56 12h-8l-68 -16l-12 4l-8 -8l-36 4l-12 -8l4 -12l-4 -12h-32q-8 0 -12 32h-4q-20 0 -20 -20l-16 -12h-16l-32 44h-4l-12 -8l-20 12h-4l-12 -8l-12 4v-8q-14 0 -48 28q-14 0 -44 -28h-8l-28 8l-8 -8h-12l-32 8l-32 -12l-16 4l-28 -4l-4 4h-4l-40 -8
l-16 28l4 4l-4 4v20l44 96h12l16 4l12 -4l60 12l4 -4h12l28 8l32 -8l8 8h28l4 -4h4l4 4v4l4 -4h4l24 4l20 -8l24 4l24 -8h12q0 12 8 12h12l4 -4q28 12 28 32v8l-8 12l4 12q-8 0 -8 12l-4 68l16 48l-4 68l8 8q0 28 -8 44l4 28l-4 4v4l4 4v4l-4 64v12q-20 21 -20 32l12 32
l4 80h-12v4q14 0 20 28l-12 44l8 40l-24 24q20 37 20 76l-8 8v16l12 20l-4 44l12 32v32l-12 16l8 64q-4 20 -32 20l8 32l-4 16l-4 -4h-4l-4 4h-4q0 -10 -40 -16v8l-12 -8l-8 8l-8 -8q-32 0 -32 16l4 4v4q0 11 -20 20q-16 0 -56 -24h-12l-20 4l-8 -16l-32 4l-16 -8
q-29 0 -44 28q-17 0 -56 32l4 4v8q-20 28 -20 52l44 24q0 14 24 28l12 -4q4 15 28 24zM324 -148h4v-12h-4v12z" />
    <glyph glyph-name="two" unicode="2" horiz-adv-x="1169" 
d="M420 1334l12 -4l24 4l52 -20l24 8l12 -12l52 4l24 -20v-4h20l4 4l64 -40q0 -48 12 -48l52 16l4 -24l12 4q40 0 56 -64q0 -27 28 -44q0 -32 20 -32q20 -42 36 -56q-12 -19 -12 -44l4 -12q0 -27 -48 -108l-40 -44h-4l-20 4l8 -16q0 -19 -56 -28l-4 4q-24 -13 -24 -32v-16
q-9 0 -36 -24l-20 -12l-32 12q0 -41 -56 -60q-27 -2 -52 -36l-20 -8v4q0 7 -24 16q0 -20 -64 -32v-8q-40 -14 -40 -32q-9 0 -28 -24l-8 8h-4q-52 -4 -52 -20q0 -8 -28 -24h-32l-4 -40l4 -4v-4l-20 -36l-4 4q-41 0 -56 -88q0 -23 -20 -68q0 -15 -20 -28v-4l4 -4v-4l-4 -16
l12 -12h4l72 32q14 0 28 20l16 4l32 -8h8q25 32 36 32q0 20 32 20h4q0 -22 44 -28q0 -16 24 -16l12 -32l16 -4l28 8l48 -8l4 4h4q14 -21 32 -28v4l40 -16l16 4l32 -12l12 8l28 -20l56 28l4 4q16 0 16 28q15 0 32 40q44 17 44 88v4l-4 12q13 10 36 52h4l-4 4v16l16 12l4 4v4
q48 0 64 -68l-12 -40l4 -32l-16 -44l4 -4v-4q-23 -37 -28 -72l-16 -24l4 -4v-4l-24 -64l-20 -8h-16q0 12 -8 12q0 -44 -60 -44q0 -17 -44 -28h-8l-8 24q-32 -5 -60 -24v-4h-4q0 16 -24 16l-4 -4h-4l-4 4l-20 -4l-24 4q0 -9 -20 -12l-4 4l-4 -4q-57 48 -92 48h-20
q0 16 -20 16q-3 29 -12 40l-48 -12q0 10 -28 28h-24q0 -8 -20 -8l-8 -8h-12l-4 4q-61 -11 -80 -44q-32 -34 -36 -56h-8l-12 4v-4l-4 -4v-4l4 -4l-4 -4l-20 4h-8q-28 -1 -28 -8q-18 8 -20 16v4l4 4q-16 26 -16 48q-28 10 -28 36l-4 24l4 4h4l-4 4v28l16 40h-4l-16 16l16 96
q20 24 28 52q23 17 76 124l112 88l16 -4l20 8l4 -4v4l4 -4h8q8 0 8 36l28 8l4 -4q0 24 28 24l64 40h32q0 12 8 12v-4q56 28 92 36v8l16 -4q41 4 76 44q39 0 52 36q13 0 44 44v24h-12v4q13 0 20 68l4 4v4q0 60 -24 116q0 25 -44 32q-27 25 -32 44l-4 -4h-8l-12 8l-24 -4
q0 16 -24 16q-2 -8 -20 -16q0 22 -60 32l-44 -24q0 9 -36 36h-24q-47 -7 -56 -16l-4 12h-20q-15 -55 -80 -96v-4l4 -12l4 4h12q11 0 16 -32q14 0 24 -24q18 -8 20 -16v-12q0 -71 -56 -96q0 -5 -40 -16l-16 -16h-8l-28 16q-25 0 -28 -20l-4 -4h-12q-20 16 -20 24h-24
q-17 16 -32 16v20l-28 20l-4 12l24 32v36l-20 28v4l8 12l-4 20l16 24q10 0 36 44q29 48 44 48v24h4l4 -4h4q8 0 44 36q15 0 28 16l32 24l4 -4l20 12q8 0 8 -20h8v-4q32 8 32 20h20l24 8v-4zM596 1138h4v-12h-4v12zM308 110h12q10 -12 20 -12q-6 -20 -28 -20h-4l-4 12z" />
    <glyph glyph-name="three" unicode="3" horiz-adv-x="1176" 
d="M176 1304l44 -12l16 4h4l4 -4l4 4h4l16 -4l4 4h4l40 -12h4l4 4l28 -16q31 0 64 16q37 0 112 -20q38 8 40 16l48 -12l44 16h36q28 0 44 8v-4l32 12l32 -12l24 8h8l24 -12l32 8v-4l4 4h4q7 0 12 -20q24 0 24 -16l16 -20q0 -11 -40 -16q-18 -45 -56 -64v4l-4 -4h-4l-20 8
l-16 -28l8 -24q-30 -46 -76 -72q0 -22 -32 -44q0 -12 -28 -36l-12 -56q-52 -24 -52 -40v-4l4 -4l-4 -12q10 -24 36 -24v-4q36 8 96 8l16 12q76 -7 76 -28l60 -84l60 -76l-12 -36l52 -52l-8 -24l12 -40q0 -16 -36 -80l-4 -92q-24 -16 -24 -36q-12 0 -12 -28h4l-52 -72l-4 -4
v-4l-4 4h-8l-12 -12v-8l4 -4q0 -16 -24 -16q0 -8 -28 -8q0 -12 -36 -48q-13 -16 -36 -24l-8 -8l-28 -16q-22 0 -48 -40l-4 4h-4l-12 -4l-4 16h-16v-16h-4l-16 4l-36 -12l-20 8q-35 -8 -56 -28l-40 24l-28 -40q-5 29 -20 52h-8v4l-60 -8q-14 0 -44 20l-4 -4v-4l4 -4l-4 -4h-4
l-20 4v-4l-12 8l-4 -4h-12q-18 0 -36 32q-25 0 -80 48l-32 24q0 12 -28 12l-4 -4l-4 4h-8v-8h-28l-8 8v12l40 40q-16 17 -32 136q28 17 28 76v4l-8 28l12 4q34 -10 48 -24h4q75 41 80 52q59 -24 60 -44l4 -4l-4 -4q0 -32 32 -68l8 -28q0 -24 -48 -48q0 -24 -8 -32l8 -12
l-20 -32q0 -36 36 -36l4 4h4q52 -18 52 -40l-4 -4l4 -4h8q21 20 32 20q0 -6 28 -16l4 4l48 -12l40 4l4 -4h4l16 8l24 -8h32q20 15 68 24q6 9 64 24l72 48q4 56 36 56l8 -8h8q21 0 44 64l4 16h-4q20 30 20 44v12q-12 0 -12 8v12l24 28l-8 44h4l-16 32q16 18 16 56
q-12 50 -32 56q0 17 -36 40v8h-8q0 -16 -12 -16q0 12 -16 12q-6 24 -12 24l4 4v16q-38 40 -100 40v4l-28 -8l-12 4q-12 -15 -48 -28v-8l-8 -8l-64 8q0 -12 -48 -16l-16 -16l-4 4h-4q-20 -12 -40 -12q-32 10 -32 16v8q22 68 44 92q20 16 20 32l-8 12v12h8v-8h12q83 47 88 56
v8l-8 24h8v-8q6 0 20 32q19 17 24 40l52 40q58 25 60 36l4 -4h8v24q3 13 60 48l12 24q-5 16 -20 24v4l-52 -12q-2 8 -20 16l-36 -4l-12 8l-16 -4v4l-24 -8h-4l-12 8l-20 -12q-32 12 -60 12l-16 -4q0 10 -16 12q-72 -14 -72 -28h-20l-68 20l-4 -4h-8l-4 4h-4q-6 -20 -28 -20
l-12 -12l-12 4q-44 -10 -44 -28q-7 0 -12 -68l8 -8v-12q0 -31 -28 -100l4 -20l-16 -44l4 -16q-4 -16 -16 -16q-32 0 -32 16q-12 14 -28 72v24l4 20l-20 12l12 28l-4 40l4 32q-16 23 -24 60l4 4v4q-13 52 -28 52l-20 -8v4q0 15 12 24l4 -4h4l16 8l12 -4l28 16h4l4 -4
q30 16 72 24zM500 1208l-4 -12h4l8 8v4h-8zM696 1020v-8h12v4zM968 996h12l8 -8v-8l-20 -4h-8v12zM792 320h8l-8 -8v8z" />
    <glyph glyph-name="four" unicode="4" horiz-adv-x="1304" 
d="M644 1340q52 -19 52 -52q7 -11 48 -28q0 -44 -28 -44l16 -40l-8 -108l16 -44l-4 -32l4 -28l-4 -20l4 -4v-4l-8 -16l4 -16l-4 -12q8 0 12 -40q-7 0 -16 -48l8 -8v-4l-20 -24l4 -12l-4 -4v-4l12 -28l-16 -64q7 0 20 -52l-8 -20l8 -8v-8q-20 -28 -20 -48h4l68 -28l28 -4h4v4
h-8l12 16h8l-4 -20l4 -4h4q20 0 24 20h20q15 -16 40 -16v-4l76 20l60 -20l16 -4l28 8q24 -9 24 -16q0 -12 -12 -12q-16 -14 -32 -76l-20 -4l-4 4h-4l-32 -8l-36 12l-28 -16q-16 7 -16 16l-4 -4h-8l-16 12h-4l-8 -8l-12 4l-60 -16q-27 -24 -40 -24l-16 4v-4l-4 4h-4l-28 -4
v-36q0 -28 -28 -60q32 0 32 -32l-4 -4v-4q0 -72 48 -72q0 -8 12 -8l4 -4v-4l20 4h4l12 -4l96 12q124 -17 124 -28q0 -14 -24 -48l-4 -20v-24q-21 0 -48 -20l-28 4h-28l-32 -8l-4 4h-4l-16 -4q0 12 -8 12l-16 -8l-4 4h-40l-20 4q0 -12 -40 -12l-36 4l-8 -8h-12l-100 16l-4 4
l-16 8l-36 -12l-12 4l4 -4v-4l-32 -12h-12l-24 4q-20 -6 -20 -52l-4 -4h-4q-37 60 -72 60q-32 13 -32 20l4 24l-4 12q0 18 36 32q0 32 40 32l68 -24h4l12 4l20 -20l4 4h4l32 -12q11 0 20 20l4 -4h8q0 11 48 20l8 20h-4l4 12l-8 20q6 0 12 16l-4 16q12 14 16 36l16 16
q0 8 -28 20v12q20 16 20 40q-8 0 -8 28l-28 16l-4 -4h-4q-35 12 -80 12h-4l-4 4l-4 -4h-4l-64 16l-36 -8l-60 8l-32 -12h-8l-52 16q-10 -20 -32 -20h-52q-20 0 -20 8l-4 -4l-20 4h-24q-17 -16 -32 -16h-28l-12 -8h-4l-28 40v4q0 14 16 28l12 52v4l-4 4q0 10 40 36l32 44
q0 12 36 44l-4 4v4l36 28q24 64 60 112v4l-4 4v4q33 28 72 84l16 16l-4 4q8 1 24 36q32 0 40 24l-4 4q24 5 48 64l12 24v12l-4 4v4l12 8h20q0 35 40 48q14 0 24 48q20 7 56 84l24 28l-4 20q0 15 52 60zM504 1000v-28q-36 0 -40 -56q0 -22 -36 -52q-9 -30 -68 -76l-40 -84
q0 -28 -24 -28q-2 -20 -12 -20q-19 0 -56 -92q-34 0 -64 -60v-20q17 0 24 -20l4 4h4l20 -12l24 4q11 -8 36 -8v-4l4 4h4l32 -8l44 8v-4q44 20 60 20q42 -16 88 -20l28 8l16 -4q2 13 68 20v8h4l-4 12l20 36l-4 28l8 20h-4l4 4v4l-8 24l8 12l-16 56l28 44h-4l4 4v4q0 8 -12 8
l4 40l-4 4v4l4 16q0 52 -44 88v4q0 40 36 100l4 48v4l-20 20v8l8 12v20q-76 -17 -76 -52l-24 -32z" />
    <glyph glyph-name="five" unicode="5" horiz-adv-x="1090" 
d="M210 1338h4l28 -36h52l24 4l60 -16l136 -8q44 20 104 20h12l16 -12v4l12 -4l56 32h16l4 -4l40 16h12q38 0 60 -16l12 4q25 0 44 -48l-8 -20l4 -16v-4l-12 -20l4 -12l-64 -28q-20 0 -20 -8l4 -12l-36 -8q0 8 -48 12l-64 36l-44 -20q-28 0 -28 8l-12 -4l-72 4l-56 -24
q-36 0 -60 20h-84q-54 0 -88 -8v-28q-17 -28 -24 -28l4 -20q0 -23 -16 -44v-24q16 0 20 -44v-24l-28 -44h-4v-12l8 -12l-4 -4v-4q12 -17 12 -32l40 -4q0 8 32 12q0 8 32 12l4 12h20l40 36l24 16l36 -4h8l12 8h44l60 -8l4 4h4l56 -8h8l16 4l16 -4h36l92 -80q11 0 32 -32
q9 0 44 -48h4l-4 -4v-4q0 -12 12 -12q21 -21 24 -56q32 -24 32 -52q24 -47 24 -128l-12 -40l8 -36q0 -81 -36 -120l8 -24v-8q-19 0 -64 -60q-12 0 -28 -56q-49 -60 -104 -72q0 -6 -40 -28q0 -31 -48 -36l-8 -8l-20 4h-8l-60 -36h-16q-33 28 -56 28q-8 -16 -24 -16
q0 11 -28 24h-4q-26 0 -48 -20q-34 11 -44 24l-12 -4l-4 4h-4q-24 -6 -24 -12l-84 52q-23 0 -48 36l4 4q-11 12 -72 20q-12 20 -48 36l-12 24l4 36v4q0 8 -12 8l-4 4v4q6 56 64 136q15 6 24 44l28 8q84 -11 84 -36q0 -15 20 -52v-12q0 -43 -36 -108q0 -48 36 -48
q18 -9 56 -56l40 -8q34 0 68 12l4 -4l48 8l8 -12l4 4h8l16 -12l44 32q36 15 36 24v20h12q14 0 64 -28l20 4l8 -8q0 36 52 36q0 12 24 20q0 21 32 52q20 24 20 40l-4 4l4 20l-4 24q24 0 32 76l8 8h4v24h4v-8h4v8l-8 8v8l4 4v4l-4 4h4q-23 62 -36 68h-4v8l8 32v4q-4 37 -48 76
q-25 68 -108 112l-16 -4q-15 22 -68 40l-36 -8v4q-2 12 -32 12l-24 -8l-36 4q-8 0 -8 -20l-24 -8l-44 4q-72 -12 -72 -32q-44 -5 -44 -40q-9 -14 -56 -44l-4 -16h-28q-14 0 -28 16l-12 4l-12 -4l-8 12v20l4 20q-40 37 -40 80q20 55 28 112l4 16v4q-32 106 -32 144
q16 28 20 56l4 4l-8 12l8 32l-4 12q20 16 20 44q11 0 40 36q64 7 64 20zM814 1106l4 -4v-8l-8 -8h-4l-8 8v8z" />
    <glyph glyph-name="six" unicode="6" horiz-adv-x="1072" 
d="M540 1306l60 -16q28 -28 44 -28q28 -1 28 -24l52 -32l4 -32l-4 -44v-28l-28 -60q0 -20 -40 -40h-20l-4 4h-4l-16 -16l-76 16l-4 -24h-8v16l-20 68v4l4 4q-12 29 -12 68q20 0 20 32v4l-8 8h-44l-12 8q0 -17 -32 -24q0 -16 -8 -16l-24 8h-4q-15 -16 -32 -16
q-27 -48 -60 -48q0 -12 -28 -36q-11 -44 -20 -44l-12 4q-7 -20 -20 -20v-16l8 -12v-4q-26 -21 -52 -88l8 -24l-24 -28v-12l20 -20q0 -35 -36 -44l-4 -4v-4q9 -40 16 -40v4l-4 4l44 -12q18 0 48 44q15 36 40 36l24 -8q64 15 104 44h8l24 -4q33 24 48 24l12 -4l20 12h12
l48 -60l40 4q0 -33 60 -40q40 -24 40 -40l52 -52q18 -2 56 -60q0 -37 44 -144l-4 -36l4 -20l-12 -12v-36l-16 -44l4 -4v-4q-3 -23 -20 -36q0 -66 -24 -76l-44 -40l4 -4v-16q0 -15 -60 -20q0 -27 -44 -48l-4 -4v-4l-4 4h-4q-39 -23 -128 -36q-9 -15 -32 -28q-55 28 -76 28
l-8 8h-48q-40 0 -68 16v-4l-4 4h-4l-4 -4h-4q-52 20 -52 48l-28 -4q-12 44 -44 44q-26 9 -48 52l-16 4v-4q-28 3 -28 28v4l8 32v4l-16 20l4 4v4q0 8 -20 8v12q12 15 12 28l-12 20v12h8v28q-14 0 -16 36l-8 8l8 60l-12 12l8 32q-12 22 -12 44l12 28v16l-16 16l4 28v24l28 44
l-4 16l8 24v24q0 88 44 180q0 39 68 96q0 57 104 108q48 73 48 84l48 -4q15 0 40 16v-8h8l76 12l8 -8h4v8h4v-8q49 19 52 36zM392 718l-12 4q-19 -36 -60 -52l-32 -16q-55 0 -72 -32q-34 -19 -48 -44v-4l8 -12l-8 -24v-20l12 -16v-20q-28 -17 -28 -36l12 -16
q-22 -35 -28 -64l-4 -4v-8q16 0 16 -24q0 -22 16 -32q0 -18 32 -32l4 -20l-8 -8q24 -43 48 -64q0 -15 36 -44q16 -15 16 -24q13 0 28 12q24 0 48 -40l40 -8q120 12 120 36l72 24v-4q72 14 72 48q32 34 32 80q52 27 52 48l28 88l-20 36l4 24l-8 32v8q-20 0 -20 20
q-32 28 -32 52l-4 4v12l12 16v8q-57 68 -64 68l-72 32l-4 -4q-6 16 -28 16h-12q0 12 -28 12l-36 -28h-4l-4 12h4l-12 16l-36 -8h-4l-8 8z" />
    <glyph glyph-name="seven" unicode="7" horiz-adv-x="1083" 
d="M848 1382h12q0 -10 24 -32q-7 -40 -24 -40v-12q16 -19 20 -48q-13 -1 -32 -60l4 -12q0 -37 -20 -56v-8l4 -24l-32 -60l4 -52q-28 -28 -28 -40l4 -4v-4l-24 -52l8 -12l-24 -20l8 -12q-10 -60 -72 -104q-32 -10 -32 -40q0 -37 -60 -56v-8h8v-28q-60 -55 -60 -68
q-16 -18 -16 -56l-40 -48q-12 0 -20 -60q-6 0 -12 -52q-6 0 -28 -40l12 -32l-4 -4v-4q0 -20 8 -20l-16 -64l4 -32h-4l-16 -28l4 -4v-4l-8 -24v-28q-6 -20 -24 -20q-21 -20 -36 -20l-76 28l-16 48l4 4l-20 56q0 20 8 20l-4 12l12 16l4 -4q0 21 12 36l-8 20q0 15 24 48
q20 34 40 108q15 9 52 92h-4q2 18 40 48q14 56 44 56l32 60v4l-4 4q41 45 52 76h-4l16 44l-4 20q8 0 8 24q11 12 24 12l24 20l4 -4q20 42 20 72l-20 20v8l60 12l-4 12l32 112v4l-16 32l-44 8v-4q-87 36 -144 36l-16 -4l-20 12h-4l-24 -8l-60 36v8h-4l-44 -24q-13 0 -28 -12
l-16 4q-25 -8 -28 -20v-8l4 -4q0 -24 -40 -28q-32 -19 -32 -36l12 -28l-8 -28q4 -32 12 -32l-24 -60l8 -24q-23 -9 -48 -80l-40 -44h-36q-28 0 -28 44q-10 8 -12 52v4q12 17 28 112l4 4v32q0 15 -20 44v24l4 4l-4 4v4l12 40v12q-24 24 -24 68l4 28q-9 0 -12 20q9 1 24 52
q22 28 36 28v20l-4 4v4l4 4h4q51 -14 64 -40l8 -8q84 3 84 8l12 16h4q15 0 64 -24q22 0 36 28q78 0 140 -20v-12l4 4h12q0 -11 64 -32l32 12q0 -8 32 -12l92 28l4 -4l68 28q46 32 64 32z" />
    <glyph glyph-name="eight" unicode="8" horiz-adv-x="1387" 
d="M710 1342l24 -12l12 4q72 -11 72 -16l56 8q35 -8 64 -28q40 0 60 -56l68 -68q17 -8 36 -40l32 -8v-8q0 -8 -12 -8l-4 -12q12 -30 12 -52l-12 -64l16 -16v-4l-4 -16l12 -28l-40 -40l-8 -40l4 -24q-15 0 -48 -72l-16 -8l4 -4v-4l-4 -16q16 -26 20 -52q8 0 32 -32l68 -48
q8 -39 28 -72l-4 -44q20 -64 32 -64q-8 -11 -12 -60q-73 -175 -112 -200l-4 4l-12 -36l-16 4q-57 -24 -68 -36q-24 -28 -36 -28l-4 -12l-32 8q0 -12 -36 -12q-32 -20 -52 -20q-8 -20 -32 -20l-52 16l-28 -8l-48 8h-16l-4 -4l-4 4h-4l-4 -4l-60 20q-57 -12 -80 -32h-8l-48 28
l-20 -4h-20l-8 8v4l16 16l-16 32q-31 0 -56 16l-4 -4h-4q-36 17 -36 56q-9 0 -24 44q-11 3 -36 44l-28 12l4 24l-8 28h4l-4 4v4l4 12q-8 0 -36 44l-4 4h-4l16 32v4l-8 12v16l4 16l-4 12l8 20l-4 16q12 48 20 52l-16 24l4 24v4l-20 -4v-12l8 -12q-33 0 -48 -100q-7 0 -20 -36
l-28 -44l4 -4v-12l-8 -48q18 -48 28 -56q0 -27 20 -40q0 -33 36 -48q37 0 56 -48l44 -40q36 -8 36 -24l28 -4l12 4l4 -4v-4l-20 -32l-48 12h-4l-28 -4q-15 44 -36 44q-96 31 -96 56q0 21 -44 40l-28 40q0 16 -8 16q-19 0 -28 48q17 0 20 36l-8 48l4 4v4l-4 4v4q0 20 36 48
l16 92q18 28 32 28q24 40 44 40h12l8 28l32 -12h4l8 8v4l4 -4h12q16 0 48 52v16q-14 0 -48 24v8h-4l12 24l44 -8v4l24 -8h4l20 36q0 16 -20 16q-11 31 -20 104q-8 0 -8 12q-44 12 -44 72v28l8 12l-8 8l4 4l-4 20v4l16 24v12h-4q-11 0 -68 -64l-20 -68l4 -12l-12 -16
q0 -40 24 -72q-5 -36 -16 -36q-32 3 -32 12v12l4 4q-3 22 -32 36q0 17 -20 36l-4 12l8 96l-4 4v4q0 22 48 84q22 44 84 44q12 9 16 40q29 16 64 16l8 24q33 11 80 52h4l12 -12h16q38 36 88 36q0 11 116 20q0 8 40 12l32 -8h8q17 0 32 12zM770 1238q-30 -24 -84 -24h-8v8
l-20 -12h-8l-16 4l-36 -20l-16 8l-44 -8l-16 4h-4l-36 -16q-7 -7 -48 -12q-20 -18 -20 -40l-8 -60h-4l-24 4q-24 0 -32 -76v-8l20 -40q-8 -28 -28 -28v-16l28 -40h-4q0 -12 16 -12q0 -26 68 -52h4l44 8q49 -40 108 -40l24 -12l28 12l76 4q0 -14 84 -24l4 -4l12 -4v-4l48 24
l28 -4q20 7 36 44q32 4 32 12v28l8 32l-4 12l4 16l-4 12l8 76l-4 52l4 12q-15 0 -36 60v8l12 12h-8v4l-4 -4h-28q-48 13 -48 28l-32 -4v4l-4 4q-19 16 -28 52q-26 20 -40 20zM698 1206h8q36 -17 36 -52l4 -4l-4 -4h-12q-32 23 -32 52v8zM174 774q26 -12 28 -24l-4 -4h-8
q-21 0 -28 16zM686 678l-72 20h-28q0 -14 -28 -24v-4q-33 4 -68 20l-4 -4v-4l-20 4h-8q-22 0 -32 -20q-32 -10 -32 -36q-36 -12 -36 -44q-31 -11 -44 -44l-40 -28l-4 4l-4 -20q5 -16 28 -40l8 -36h-12l16 -20q-24 -27 -24 -60l36 -48q25 -48 40 -48q10 0 52 -40h28
q36 0 56 -28q61 0 104 -32l80 4l12 -4l100 16q31 -6 44 -16q9 0 36 24h40l32 44q16 -16 28 -48l12 -4q26 0 60 52q12 2 28 20q0 49 -16 68v4l44 32l8 16q-3 37 -28 100l-12 76l4 20q-12 0 -36 40l-36 36l-24 4l-24 -4q-70 25 -84 56q-23 5 -24 28h-72l-16 -4l-16 4h-8
q-26 -32 -44 -32zM406 622h12q6 0 16 -44l-4 -4h-12q-16 5 -16 36zM90 318h12q16 -8 16 -24l-4 -4h-16l-8 8v20z" />
    <glyph glyph-name="nine" unicode="9" horiz-adv-x="1086" 
d="M596 1320q17 0 28 -24v-12l-4 -4q8 -24 32 -24l12 8h12l8 -8l-4 -12q14 -45 64 -72q0 -14 28 -36q9 -20 64 -64q0 -64 28 -72q0 -11 12 -20l-4 -20v-8l8 -12v-36l28 -48q-24 -25 -24 -64q0 -30 -24 -60l-4 -24q6 0 12 -16l-24 -84l4 -24l-8 -60l4 -12l-16 -44l4 -36
q-24 -43 -24 -84h8v-12h-36l-40 -24h-4l-28 16l-4 -4l-4 12l24 104q8 0 8 44q9 0 12 20l-4 20q20 10 20 32q-17 28 -40 28l-4 -4h-4l-4 4h-4l-104 -60q-136 -8 -136 -44q-8 0 -8 -16l-4 -4h-4q-13 24 -32 24q-18 -28 -48 -28q-20 0 -24 44q-23 0 -48 36l-12 16l-4 4h-44
q-11 0 -44 24q-12 0 -20 24q-20 0 -32 32q-56 17 -80 68q0 10 -24 40l-16 48v12l4 40l-8 44l4 4v8l-16 68h-4q22 48 68 48v8l-4 40l4 20l-4 24q0 12 36 20q68 76 80 76l16 4l-4 4v4q0 27 76 56l12 12v-4q13 0 16 32h8l20 -20q13 0 32 16l60 -4v4l4 -4h4q20 12 52 12h24
l24 -8zM336 1216q0 -9 -52 -16q-7 -28 -40 -52h-4q0 16 -8 16h-4q-7 0 -20 -44q-20 0 -20 -20q-29 -42 -44 -104h-8v-16l8 -12v-4l-16 -28q3 -52 8 -52l-4 -4v-8q0 -17 16 -28l4 -16l-4 -16q20 -88 28 -92q27 0 60 -20q0 -12 12 -12q0 -27 44 -36q11 0 40 -48h4l48 8
q0 -7 48 -24l12 -12h4l4 4h4q0 -6 16 -12l32 8l12 -4q33 31 80 36q4 24 20 24q19 19 92 56l4 4v16q-12 17 -12 32h4q28 24 36 56q28 14 28 36q0 15 -28 44q13 16 28 16v8l-12 16v16q0 39 16 40v12q-36 11 -36 44q-20 24 -20 52q-18 0 -32 40q-11 25 -44 40h-44l-16 -4
q-21 7 -52 44h-4l-16 -4l-4 4h-4l-12 -4q-56 9 -56 20l-52 -12l-4 4h-4l-16 -4zM332 320l36 -44v-4l-8 -44h4l-4 -4v-8l12 -32l-4 -16l52 -16l32 24q28 0 28 -24q34 16 60 16l16 -4q19 0 44 72h12l28 -4q27 25 44 80l4 4h16q0 -16 40 -28l12 -36q0 -32 -32 -32l-24 -8l4 -20
v-4q0 -43 -32 -64q-28 -12 -28 -44q-9 0 -60 -48v-4h-12l-12 8h-4l-16 -12l-28 4l-4 -4v-4l-32 4l-28 -16l-12 8h-12l-52 -16q-73 9 -116 36v-4q-33 8 -56 48l-40 76l8 16l-8 44q24 52 44 60q16 32 52 32l24 -4z" />
    <glyph glyph-name="colon" unicode=":" horiz-adv-x="595" 
d="M188 1008q64 -9 64 -20q71 -18 88 -44l56 -60q16 0 16 -24v-20l-16 -8l4 -4l-4 -12l4 -32l-8 -28q12 -2 12 -32v-4q-19 -31 -52 -44q-30 -42 -44 -48q-18 -32 -40 -32h-16q0 -42 -72 -48l-4 -4h-4q0 12 -40 20q-17 -16 -32 -16l-16 8v4l20 28q0 15 -48 28l-48 80h4
q-13 44 -28 44l-4 24l32 84l-4 20l20 28v20l12 4l4 -12h4l8 8l-4 4h-4q0 12 20 12q40 29 64 64l20 4l4 -4h4zM216 382h4q12 -12 28 -12l32 -48l28 4q15 0 28 -44q24 0 32 36h8v4l12 -4v-4l-4 -16l4 -12l-16 -56q9 -64 16 -64q0 -12 -16 -12l-4 -4v-40q0 -38 -52 -76
q-32 0 -32 -24q0 -30 -136 -60l-16 16l-4 -4h-4l-4 4l-4 -4h-8q-9 0 -32 72l-56 52l-12 8q0 44 16 44v16l-8 32q12 92 36 92l20 40q13 0 40 20l72 16h8q0 12 16 12z" />
    <glyph glyph-name="semicolon" unicode=";" horiz-adv-x="616" 
d="M104 991q30 -36 64 -36l76 24q32 0 72 -24q22 0 28 -36l36 -80q23 -5 36 -56l-4 -12l4 -24v-4q0 -11 -20 -40l8 -24q0 -24 -8 -24l4 -28v-24q-44 -27 -44 -40l-36 -12l-4 4h-16q-52 -32 -52 -40h-24l-12 8h-4l-4 -4q-31 3 -52 24q-12 0 -12 16l-12 -4q-36 19 -56 48
q-20 0 -20 8l-4 -4h-4q-5 0 -16 40q-8 0 -8 32q-16 0 -24 56v8q12 15 12 28v8l-4 4l8 28l-4 4v4q3 36 28 56l-4 4v12l4 28h4l12 -8q30 11 32 20l-4 4l8 28l-4 16zM192 647v-4l8 -8l-4 -4v-8l8 -8q48 11 48 20v8q0 8 -16 8l-4 36q-28 0 -28 -16zM140 563l4 -4h12v4l-8 8z
M244 382q40 -16 40 -28l4 4h12l44 -44q14 12 40 12l12 -4l-8 -40q12 -2 12 -32l-4 -36q0 -12 32 -32l4 4v-4l-16 -28l4 -16l-4 -16v-4h8l-4 -20l8 -36q-12 -17 -20 -84l-4 -4l8 -32h-4l4 -4v-8q0 -50 -28 -68v-4l8 -20l-16 -24q-12 0 -12 -12q-13 0 -24 -64q-6 0 -44 -60
l-20 -4l-12 4q-64 -36 -64 -72q-23 -6 -60 -32h-8l-20 4v-4l-4 4h-8l-4 -4h-4q0 7 -24 12v24l-12 -8l-4 4h-4l-4 -4h-4q0 15 -24 32l-12 20l12 52l-4 12q29 40 76 40q20 24 48 24l32 52l-4 4v4q0 19 56 28q0 10 28 20v8q0 40 12 40v4h-16l-8 -8l-24 24l-20 12v12l8 28v4h-4
v-8h-4q-62 9 -84 28q-13 10 -48 16l-4 4v4l12 28q0 35 -28 56v24q0 25 28 60q0 30 24 72q0 28 12 28l16 -4l4 4h4l4 -4h4q36 28 56 28q20 24 52 32zM244 -86v-8h-8z" />
    <glyph glyph-name="semicolon" unicode="&#x37e;" horiz-adv-x="616" 
d="M104 991q30 -36 64 -36l76 24q32 0 72 -24q22 0 28 -36l36 -80q23 -5 36 -56l-4 -12l4 -24v-4q0 -11 -20 -40l8 -24q0 -24 -8 -24l4 -28v-24q-44 -27 -44 -40l-36 -12l-4 4h-16q-52 -32 -52 -40h-24l-12 8h-4l-4 -4q-31 3 -52 24q-12 0 -12 16l-12 -4q-36 19 -56 48
q-20 0 -20 8l-4 -4h-4q-5 0 -16 40q-8 0 -8 32q-16 0 -24 56v8q12 15 12 28v8l-4 4l8 28l-4 4v4q3 36 28 56l-4 4v12l4 28h4l12 -8q30 11 32 20l-4 4l8 28l-4 16zM192 647v-4l8 -8l-4 -4v-8l8 -8q48 11 48 20v8q0 8 -16 8l-4 36q-28 0 -28 -16zM140 563l4 -4h12v4l-8 8z
M244 382q40 -16 40 -28l4 4h12l44 -44q14 12 40 12l12 -4l-8 -40q12 -2 12 -32l-4 -36q0 -12 32 -32l4 4v-4l-16 -28l4 -16l-4 -16v-4h8l-4 -20l8 -36q-12 -17 -20 -84l-4 -4l8 -32h-4l4 -4v-8q0 -50 -28 -68v-4l8 -20l-16 -24q-12 0 -12 -12q-13 0 -24 -64q-6 0 -44 -60
l-20 -4l-12 4q-64 -36 -64 -72q-23 -6 -60 -32h-8l-20 4v-4l-4 4h-8l-4 -4h-4q0 7 -24 12v24l-12 -8l-4 4h-4l-4 -4h-4q0 15 -24 32l-12 20l12 52l-4 12q29 40 76 40q20 24 48 24l32 52l-4 4v4q0 19 56 28q0 10 28 20v8q0 40 12 40v4h-16l-8 -8l-24 24l-20 12v12l8 28v4h-4
v-8h-4q-62 9 -84 28q-13 10 -48 16l-4 4v4l12 28q0 35 -28 56v24q0 25 28 60q0 30 24 72q0 28 12 28l16 -4l4 4h4l4 -4h4q36 28 56 28q20 24 52 32zM244 -86v-8h-8z" />
    <glyph glyph-name="less" unicode="&#x3c;" horiz-adv-x="1550" 
d="M1330 966q24 -27 24 -64l-16 -24l-28 -28l-64 -6l-39 7l-2 -3l-5 -3l-4 3l-2 2q-26 -16 -80 -32q0 -5 -88 -28l-4 -4l-16 -12l-48 24q0 -30 -176 -56q0 -9 -52 -12l-28 4q0 -6 -52 -20l-28 -16l-20 8q-30 -24 -52 -24v4l-4 -4h-4l-4 4h-4q-58 -32 -108 -32l-56 -20h-40
q-15 12 -28 12q-28 0 -28 -16q0 -11 -40 -24v-12q0 -8 40 -16q0 -11 52 -16v4q67 -36 92 -36l4 4h4q52 0 100 -56h28q0 -10 28 -28l28 4q83 -10 96 -24h4l24 4q44 -24 120 -40l16 4q56 0 56 -24l4 -4h4l80 8q0 -12 24 -12q41 -48 64 -48l60 -12l24 16h4q13 0 28 -12h16l16 8
l16 -26l29 4l9 -4l2 -6v-8l12 -28v-8q-12 0 -12 -24l-40 -24q-61 14 -80 24l-40 20h-28l-24 -4q-32 16 -88 20l-12 8l-12 -4l-48 20l-28 4l-24 -8h-4l-52 36l4 4v4l-12 8l-40 -4h-16q-124 27 -124 44l-20 -4l-40 4l-24 -8l-12 12l-32 -4l-40 36q-30 0 -104 28q-54 0 -72 20
l-136 32l-4 4l-12 4v4l-4 -4h-24q-64 23 -88 76q-24 23 -24 52q29 72 72 72q51 32 80 32q0 9 28 16l20 -8l24 12l16 -8q46 24 72 28l24 -4h4l16 4l4 -4h4q53 0 144 52h16l16 -4l60 20h28q15 20 24 20l44 -4l24 8l20 -4l32 12l32 -12q0 6 16 12l24 -4l40 32q42 0 60 -32
q23 24 28 48q20 0 40 28l20 -4h40q68 13 84 24h4l20 -4q46 6 48 24l49 15z" />
    <glyph glyph-name="equal" unicode="=" horiz-adv-x="1560" 
d="M232 951q16 -20 36 -20h20q2 16 12 16l28 -20q32 3 32 8l20 -8l12 4l64 -8l100 12l12 -12h4l40 12l40 -12q21 0 52 24l20 4q11 -20 32 -20v4l84 -12l4 -4q49 4 84 20q0 -12 8 -12l128 12l4 -4h4q28 16 52 16q0 -6 48 -24l16 8l76 -12l28 8h28q8 -44 44 -44v-16
q-24 -30 -24 -60v-12l4 -4q0 -51 -44 -64l-16 -8l-20 4h-8l-24 -8l-16 12q-36 -11 -36 -44v-12l-16 4l-32 -12h-4l4 48v12l4 4v4l-4 4l-44 -8l-4 4l-4 -12h-4l-16 12l-20 -4q-2 12 -32 12q-20 -12 -40 -12q-25 0 -72 40l-44 12h-8q-30 -17 -48 -60q-47 -24 -64 -24h-8l-4 4
l-24 -12l-40 12l-40 -12h-4v4l4 36h-4q-19 0 -36 16l-68 -12l-40 4l-12 -4q0 8 -28 8l-8 8h-36l-16 -12h-8q0 16 -12 16h-4l-16 -16v-4l4 -4v-4l-4 -4h-28q-24 0 -64 -16l-52 24h-8q-8 0 -16 -24q-44 0 -44 -44h-20q-18 32 -40 32q-14 0 -20 28q-21 0 -52 60v8
q32 116 96 116q0 8 12 8l4 -4l16 4l60 -4q5 15 60 40zM1120 639h8v-12l-8 -8l-8 8v4zM927 524h36q10 0 20 -28h24q15 -12 28 -12l36 12l20 -4l24 8l16 -4l24 4h20q18 0 32 -16l4 4h28l32 -8q20 0 56 24q32 -9 40 -84v-20l-20 -20h-4v-8l12 -20l-4 -16l4 -16q-32 -19 -32 -36
l4 -24l-4 -4h-20q-11 0 -28 44q-49 40 -60 40l-20 -8l-16 4q-50 -4 -84 -16l-44 12l-4 -4l-4 4h-12q-23 0 -40 -16h-8q-13 12 -60 20q0 -15 -52 -20q0 -24 -24 -36q-27 56 -60 56l-100 -20l-56 12q-56 -24 -80 -24h-4l-24 20q0 -8 -56 -24l-40 4l-28 -12h-8l-4 4h-4l-4 -4
v-4q-40 4 -60 16l-32 -8l-104 20q-24 0 -52 -24q-132 5 -132 32l-16 32l12 8l20 -16l8 8q-12 4 -12 24l32 28v16q-26 0 -36 20l96 28q0 20 188 36q28 0 44 -8l16 4q0 -12 36 -16l48 4l72 -8q10 8 40 8l8 12q38 0 56 -20l32 8l36 -4l16 4l8 -8l20 4l12 -4l72 12l24 -4
q22 12 44 12l4 -4h4q44 11 44 24z" />
    <glyph glyph-name="greater" unicode="&#x3e;" horiz-adv-x="1581" 
d="M9 261q6 17 17 45h-4q16 24 16 36l23 2q41 17 80 35l37 -13l16 -4l52 20q0 20 20 20q4 -12 24 -12h20q8 0 8 12l12 4l20 -8l56 28l28 4l4 -4h4q58 8 88 28q60 31 124 40l4 -4h4q68 22 68 56h8q9 0 32 -32h8l32 8l32 -8q0 15 60 40q3 9 36 16l4 -4v-4l68 36l120 -4
q0 8 12 8v16q0 28 -28 28v-4l-4 4h-24l-4 -4l-44 36q-36 8 -88 32l-56 -4l-32 20l-12 -4q-87 32 -172 44l-16 -4q-85 40 -108 40l-12 8l-52 -8l-56 32l-88 -12q-48 42 -84 48l-36 -4l-48 12h-4q-6 0 -31 -1q-7 -1 -14 -1q-30 0 -72 19l-35 13l-24 38l12 16q-8 16 -8 44
l47 35l51 -15l43 -1l31 -11q10 -24 24 -24l28 12q0 -7 60 -24v4q41 -7 60 -28l60 4q0 -12 64 -24q0 9 40 16l28 -24l16 -4l8 8h8l52 -20l36 4q31 -32 48 -32l16 4l4 -4h4l36 8h4q9 -9 44 -12q29 -36 60 -36l32 8l20 -4v4q27 -20 64 -20l12 -12l16 4l12 -8l28 4h8
q13 0 28 -12h24l28 4q13 -24 32 -24h32l24 8q0 -22 60 -48q64 -8 64 -44q11 0 20 -24h-4q16 -38 16 -64q0 -49 -44 -72q0 -9 -40 -20l-40 12l-28 -4v4q-15 -1 -48 -32l-68 -16q0 -30 -24 -40h-8l-4 4h-4q0 -10 -48 -16l-4 -4h-4q0 12 -12 12l-28 -4l-4 4l-56 -8l-4 4h-4
q-57 -24 -100 -32q-19 -20 -56 -20l-8 -16h-16l-36 12q-26 -20 -120 -40q0 -9 -56 -20l-12 8h-4l-32 -8q-20 0 -20 8q-76 -9 -88 -28q-59 0 -92 -36q-21 -27 -72 -36l-12 -16l-24 8l-48 -17l-76 -3q-26 32 -37 59z" />
    <glyph glyph-name="question" unicode="?" horiz-adv-x="1363" 
d="M1039 1662h15v-25q0 -29 -20 -29l-15 15h-5q14 37 25 39zM699 1534h5q63 -26 74 -54v-5h39q27 -30 49 -35l30 -19q0 -14 44 -30q0 -8 35 -29q29 -54 49 -54l15 -15h10l19 5l25 -10q0 -20 -25 -40q10 -35 35 -54q0 -54 34 -54l15 -39q0 -10 -15 -10l-15 -25l5 -5
q0 -22 -19 -44l10 -54l-35 -64q-54 -46 -64 -89l-5 -5h-5l-10 10l-83 -69l-5 5h-5l-25 -5l-19 5q-42 -24 -60 -24l-14 4l-15 -4v9h-5q-38 -34 -89 -34q-29 -46 -29 -59v-25q0 -43 15 -69l-5 -14l5 -5l-10 -84q-30 -1 -30 -30q0 -43 49 -64v-9l-19 -25v-25q19 0 19 -15h30
l25 -4v-20l-10 -20q19 -60 59 -79l20 -34q-46 -80 -50 -143q-27 0 -74 -64h-9v-5l-15 5l-54 -24l-45 14h-5q-35 -44 -59 -44q-37 25 -64 25h-5l-54 -20l-10 15q30 22 30 44v20l-25 59l5 24l-39 20l-5 -5v-5q-30 10 -30 25l5 5v5l-24 44v15q2 12 49 44q0 55 182 99h20v9
q15 0 44 45h-5l15 29q-15 0 -89 64h-5l5 5v5q-14 0 -14 10l9 30l-4 14q14 0 19 79q9 0 20 35l-5 4v5q4 48 54 133l64 54q108 4 108 35q9 9 60 15l64 44h4l-4 34q9 25 49 50q17 49 29 49l-5 25l5 29l-10 54l15 40v5l-19 4l4 5v5q-41 69 -59 69q0 36 -59 50q-37 30 -78 44
l-20 -15h-10q0 35 -30 35l-14 -5q-15 0 -15 14l-5 5h-5l-5 -5l-44 10q-31 0 -89 -24l-24 5q-3 -10 -25 -20l-20 5l-14 -15l-20 10l-20 -5l-5 15h-5l-14 -20q-35 0 -35 -25h-5l-20 15h-4l-35 -74l5 -5h5l-5 -5v-9q21 -7 59 -89l-5 -20q3 -17 30 -39q-13 0 -35 -35l10 -29
l-5 -5v-5l25 -34q0 -8 -49 -45q-4 -29 -30 -29l-30 5v-10h-9l-15 10l-20 -10l-49 59q0 22 -74 88q0 13 -39 45v5l10 29h-15v5q24 28 24 59q10 0 10 25h10q0 28 -54 54l-5 30q10 34 69 39q0 14 29 25q0 18 40 29l34 30h54l15 10l15 -5v5q58 49 123 49l25 -5q14 0 14 15l5 5h5
l5 -5h5l20 5l24 -10l64 19h40l5 -5l54 10l10 -10h10zM15 1470q59 0 59 -49l-15 -10h-20q-29 25 -29 54zM335 -91q19 -7 19 -15v-4l-49 -5v5q0 8 30 19z" />
    <glyph glyph-name="at" unicode="@" horiz-adv-x="1723" 
d="M1166 196q5 -2 30 -6q5 -5 10 -11h4q18 0 32 8l8 -8q20 -8 50 -11q39 38 68 38h4l-6 6l39 65v5l-17 56l22 12l-6 6l8 26l-4 36l9 28l-5 32h1q13 0 39 43l8 5l-19 34h-3q-22 6 -28 73q-11 27 -12 64q-11 1 -25 38l8 4q-21 13 -61 19l23 25l-5 33l7 3l1 5q-38 35 -38 52v1
l-27 56l-32 44q-22 1 -25 48q-33 3 -46 27l-121 40l-54 4l-46 40l-98 14l-59 17l-21 1l-47 -22l-27 12l-64 8l-34 -33q-138 -3 -138 -30q0 -3 2 -6q-106 -8 -106 -50q0 -3 1 -6l-20 -40q-38 -3 -68 -12q-71 -14 -89 -81h-7l-7 5h-1q-23 0 -71 -90l4 -22q-10 0 -46 -98
l24 -43l-16 -41l4 -27l-14 -13v-4l11 -28l-8 -22l38 -49q-18 -60 -40 -75l4 -37l9 -42h7l6 -5l-22 -18q64 -12 64 -46v-13q-2 -21 -14 -21h-1q32 -80 61 -106l7 5l7 -1q18 -17 18 -36v-2l-10 -36l95 -89q0 -9 53 -13q40 -16 40 -38q0 -5 -2 -11q16 -1 42 -24q59 -4 115 -27
l12 7l16 1v-10l34 3l7 -1v-1q0 -13 19 -14h62l20 -6v5q30 -11 88 -15q10 -1 18 -1q36 0 44 14l7 -5l7 -1q9 0 29 36q36 -3 49 -3h5q35 0 99 14l-8 15l74 10l72 -15l-1 -35l-6 -19l-28 -15q-1 -10 -69 -39q-1 -7 -103 -20l-5 5l-20 1l-29 -17h-3q-33 0 -112 -45l-43 14l-31 6
l-20 2l-25 14l-43 -13q-76 18 -123 36h-63l-17 7l-37 39l-34 -2l-13 1q-7 -1 -14 -1q-47 0 -47 43v5l-32 12l-20 -4q0 10 -20 11q-7 23 -99 88l-5 20l-21 -9q0 8 -36 17l-10 10q-1 34 -29 51l-1 76q-32 19 -48 84v4q0 27 -28 85q0 43 -24 79l19 70l-13 11v10l15 8l-7 5l1 5
l8 24l-25 121h1q11 0 21 27l-5 20l7 14l-6 -4h-7l-20 7l1 9q49 30 50 44l-14 1l1 14q4 59 59 76l-3 67l27 3v5l-13 10l15 19l-6 5v5q16 25 83 63q31 20 45 59l15 8l-7 6v5l4 6q30 45 73 45h7q39 44 92 71q6 23 40 24h9q33 0 83 20l46 32q12 -16 67 -16q16 0 35 1v-5l84 25
l44 -21q8 18 149 18l12 -15l32 -11l33 3h3q33 0 99 -43l60 -11l25 -37q65 -21 74 -44q-1 -9 -1 -16q0 -24 10 -24h2l13 -1l56 -46l-8 -14q52 -10 52 -35v-2q8 -1 16 -54q85 -52 85 -80v-1l-7 1q15 -58 32 -96q12 -29 25 -47l-25 -33l36 -49l-9 -33l2 -4q14 -42 14 -69
q0 -15 -4 -25q11 -1 11 -19v-6l-1 -9h-7l5 -34l-3 -38q-1 -16 -23 -51q-30 -38 -33 -74l6 -16l-15 -28l-2 -28l5 -19l-68 -68l6 -16l-49 -28q-1 -15 -78 -19l-58 -9l-10 1l-13 -8q-33 15 -109 15h-10q-10 2 -11 12v5q-13 1 -31 6l-14 4l-1 1h-2q-1 0 -2 1q-2 1 -3 1
q-1 1 -2 1l-1 -1l-8 -7h-5l-7 -1l-6 -1h-6l-12 11l-7 7h-8q-65 -13 -66 -31q-24 -5 -26 -31l-12 -3l-4 4v4q-10 1 -19 1q-64 0 -88 -37h-4l-27 6l-4 -4l-1 -8l-48 8h-29q-27 0 -27 4l-12 -4q-11 9 -47 16q-10 -17 -21 -19q-18 38 -50 40l-4 -4l-16 1l-58 32l1 16v2
q0 11 -9 29q-11 19 -33 48q-3 61 -36 63q-15 1 -26 86q-20 7 -29 38l5 24l-3 4q22 7 40 65l1 4l-3 17q11 30 47 41q0 10 37 13q1 19 42 25l4 4v4l4 -4l4 -1l4 4l4 -4l8 -1l34 34l56 -12q2 19 8 19h1l47 -11l32 2l4 -4l29 10l4 -5l20 3l16 -5q1 1 2 1q23 11 50 11h8l4 -1
q29 -17 34 -34l-1 -16h-1q-11 0 -40 -15q-11 -5 -25 -13l-23 10q-10 -29 -43 -29h-4l-57 -24l-8 1q0 9 -47 23l-4 4l-12 1q-23 -20 -66 -31q-1 -10 -63 -36q-25 -22 -29 -74v-4l4 -4l-5 -4v-4q14 -37 18 -86q42 -71 95 -74q0 -5 11 -11q13 -8 43 -17l8 -9l20 -1q49 30 78 30
h4v4l27 -26l31 -6l22 23l16 -2l4 -4q44 9 46 33l13 7l90 -26q10 34 39 45q21 2 43 45l-5 33q1 0 1 1q17 15 33 93q1 2 1 4l-4 4v4l13 19l1 8q-24 17 -24 55q0 5 1 11l-34 34l-20 6l-57 -21q-35 3 -58 37l6 23l-7 25l1 4q4 8 77 18q62 12 87 42l-3 13l6 19l-2 37l11 35
q0 12 -51 23q-2 23 -24 58q0 9 -43 19v1q0 20 -50 27l-4 4l-11 5l-29 -6v3q0 21 -26 23l-97 -9q-1 -21 -30 -34h-8q-14 13 -27 14h-1q-12 0 -50 -32h-4v-4l2 -24l-9 -16l6 -36l-6 -20l2 -28q-8 -23 -30 -38l2 -28q-30 -33 -54 -33h-1q-27 5 -27 10l-33 -9h-4q-32 2 -37 39
l-15 77l10 35l-3 4l1 12h4l-2 28l1 24q18 16 44 26q14 5 31 9q2 31 46 33l38 25l-1 37l20 10l32 -10l16 3l12 -5l53 16h4l20 -5q13 26 34 33h4q7 -1 7 -10v-2l3 -17q11 -1 11 -11v-2l16 -5l11 -12l12 -1q7 0 18 27h6q17 0 31 9h4q81 -19 81 -45v-1h4v4q110 -20 110 -36
q44 -24 44 -49v-2q33 -36 36 -67q11 -1 18 -89q8 -1 17 -42q-1 -7 -11 -7h-2l-10 -23v-8l6 -25l-4 -3v-4l3 -5v-4l-4 -3v-5q0 -10 34 -30l3 -4v-4q-13 0 -34 -78l4 -4v-4l-13 -32l-12 -31q12 0 20 -61h4l-6 -28l-2 -32q1 0 2 -2q3 -3 5 -13q2 -7 3 -17q1 -7 1 -15v-2
q1 -3 1 -7v-9l-5 -4h1q13 0 15 -1q3 0 5 -1q4 -1 8 -3z" />
    <glyph glyph-name="A" unicode="A" horiz-adv-x="1567" 
d="M676 1351q61 -17 61 -83v-8h4l-4 -5v-4l9 -13v-4l-13 -13h-9l-52 13l-26 -22h-13q-19 6 -35 48h-4v21q1 9 43 27q0 17 39 39v4zM611 1190h18l8 -8v-18q-12 -11 -17 -56q-24 -7 -31 -31h-26l-13 52v5q29 48 52 48zM750 1156l22 -53v-34h-4q-34 10 -40 82zM772 1056
q0 -9 13 -9l4 -4v-9l-8 -26h8v-5l5 5h21q0 -40 31 -52v-9l8 -39l-4 -22l44 -104l21 -22l-4 -22l9 -34l-9 -9q0 -13 30 -56l5 -18l-5 -4l5 -22l-5 -22q23 -2 52 -100q26 -25 26 -56v-9l-8 -34q13 -5 13 -27l-13 -4v-4q36 -51 39 -70q21 -51 52 -82l-4 -5v-8q12 -18 30 -26
l22 4l48 -9l39 13q0 18 17 18l26 -9q17 0 17 9q61 -8 61 -61q9 0 9 -26l-9 -39l9 -35q-21 -74 -43 -74h-18l-65 -4l-9 8h-39q-28 -3 -56 -26h-9q-19 22 -39 22q-13 0 -13 -13l-4 -4h-5l-4 4l-4 -4h-9q-40 0 -83 21q-33 -2 -52 -21h-8l-44 13q-13 -11 -82 -18q-31 0 -35 74
q0 33 43 61q96 13 96 39q61 4 61 18q13 23 17 60l-30 57l4 4v26l-13 31l4 17q-12 0 -43 74h-5q0 -24 -34 -39h-13l-31 17q-47 -11 -47 -17l-53 8l-39 -26q-29 18 -52 18h-39l-35 -31l-30 5h-26q-9 0 -9 -13l9 -22l-9 -13l-17 4q-19 0 -39 -82l13 -57l-9 -26h-4l-5 5h-4v-14
l4 -4l-4 -4v-26l22 -26h4l22 4l26 -4h4q13 13 48 17l4 4h5q60 0 74 -34l21 -26v-9q-23 -44 -35 -44l-17 5q-26 -22 -39 -22q-22 0 -52 17l-57 -17l-17 4l-35 -8l-17 4q-20 -9 -57 -9h-21q0 -17 -22 -17q0 35 -39 35h-9l-43 -13h-9l-17 13l-57 -13q-87 27 -87 48l-4 43l4 4v5
l-4 17v13h-9v4l5 5v4l4 -4h9q13 0 56 26l109 4l48 -13q31 12 65 91q27 33 61 135l39 91l4 22l-4 39v39l34 96l26 35l-4 52l26 73l-4 27l35 8q25 -4 34 -30l-17 -31l9 -13l-26 -26l8 -74l-8 -8v-5l4 -34l-13 -52l4 -13l-13 -44v-9l13 -13h35l39 -8l65 26l78 -31h13l13 9h9
l26 -9q0 10 52 18q0 14 57 30l9 17q-40 59 -40 87q13 0 13 9v4q-34 30 -34 53l4 13l-9 39l5 21q-9 0 -39 48l8 39l-4 13h4l-39 105v4l5 48q-9 12 -9 39q-20 8 -22 17v13q0 13 35 18zM572 1051l26 -30v-5q-14 -73 -22 -73l-39 -18h-4q-17 8 -17 31v30q31 27 39 48zM529 899
q18 0 21 -48l-21 -13q-8 0 -26 22q4 19 26 39zM867 391v-9h5v9h-5zM-10 82h4v-8h-4v8z" />
    <glyph glyph-name="B" unicode="B" 
d="M790 1332v-28q28 -28 60 -28q0 -19 76 -44q6 -24 24 -24l32 -40h-4q6 -20 48 -56q16 -24 16 -36l-4 -4v-4l12 -20v-24l-8 -32q12 -60 20 -68q0 -60 -20 -84l4 -24q-4 -16 -16 -16v-4q16 0 28 -20v-4l-16 -16l-4 4h-4l-4 -4h-4l-4 4h-4q-24 0 -32 -56q-28 0 -28 -24v-8h-4
q34 -50 68 -84l4 4h8q0 -30 68 -108q0 -16 20 -36l-4 -60l4 -36l-8 -8v-4l4 -4l-8 -24l4 -24q-14 -72 -28 -72q-12 0 -12 -20q0 -33 -60 -92q0 -31 -20 -40q-16 -36 -44 -36l-32 8l-36 -40q-32 -34 -84 -48q-10 0 -20 -12l-8 20l-4 -4l-44 8l-4 -4h-4l-12 4v-4l-44 8v-8h-8
v8h-32q0 -16 -8 -16l-4 24q-40 -11 -40 -24q-35 28 -52 28l-8 -8h-40q-8 0 -8 -12l-4 -4h-4l-12 12l-16 -4l-20 8q-37 0 -72 -48h-4l-12 16q-32 3 -32 24l-12 -8l-28 12l-32 -16h-60l-16 4l-16 -8l-12 4l-24 -8q-7 20 -76 48l-4 12q18 64 32 64l24 24h16l20 -4q0 12 60 12
q0 -12 16 -12q53 14 64 28h8l4 -20h4q0 18 16 28l-8 56l4 12h-4l4 4v32l-4 16l4 4v4l-16 32l4 20l-4 12l20 84l-8 24l8 8q-20 9 -40 40l4 24q-5 20 -16 20v12q25 27 32 84v56l4 4l-12 60l8 24l-16 48q9 0 12 36l4 4l8 20l-4 28v36l4 28l-4 4h8q0 23 -16 40v16q0 8 12 8
l-4 12l4 36q0 40 -28 68l-52 -8v20q-8 13 -52 36h-12q-21 0 -36 -12h-8q-21 25 -68 40l-8 12q0 27 40 56q0 8 64 44l36 -16l32 4q4 -16 16 -16l20 12q20 0 40 -24l36 8q0 -9 72 -16q12 -20 24 -20q72 0 72 8l4 -4h4l76 12l16 -4l20 16l4 -4h16l24 4l16 -8q64 0 64 16h12
l16 -4l16 4h4l24 -4q20 0 20 40l4 4h8zM522 1160h-32q-24 16 -48 16h-40v-12h-8v8h-4l-36 -32q28 -80 28 -108l-16 -48l4 -16v-4h-8v-4q19 0 24 -32l-24 -68l4 -28l-4 -20q0 -16 20 -24l4 16h12l16 -44h8l24 4l32 -20l16 -4l36 8l36 -12l16 4q21 -12 40 -12h24
q35 -24 48 -24l8 20l20 -4h4q10 11 52 16v-4q33 8 48 28q0 44 28 44q0 13 44 20l4 4l-4 4v12l48 64q0 40 -24 40v4l4 44q-31 17 -48 72h4q-6 16 -12 16l4 28v4q0 8 -12 8l-12 -4q-11 31 -44 44l-16 4h-8l-12 -8l-12 12l-20 -12q-20 2 -20 12h-20l-16 -16l-32 12l-20 -8
q0 7 -56 20zM550 620l-24 4q-40 -4 -40 -36l-12 16h-8v8l8 12v4l-8 8h-16l-16 -12l-16 4q-40 -11 -40 -48l-16 4q-24 -10 -24 -28q0 -17 28 -28l4 -4q-16 -27 -16 -56h4l-4 -4v-4l16 -24q-3 -23 -20 -36v-4l4 -12q-12 -2 -12 -32q12 0 16 -76l-16 -84q9 -36 20 -36l-4 -28
v-8q0 -24 104 -36l36 16q27 -24 44 -24h32l44 12l48 -24l24 12l8 -16h8q68 24 68 44q20 -8 60 -8l8 24h24v-8l60 28l4 24l-4 4v8q0 8 20 8q0 16 24 16q16 11 20 28h-4q8 24 16 24l-4 16l4 52q-16 4 -16 16l4 32l-32 28h-4l-12 -8q0 36 -12 36q4 31 24 68q0 43 -48 52l-20 4
q0 27 -52 40l-12 -4q0 16 -56 24q0 18 -48 20q-21 0 -32 -20q-55 40 -76 40q-27 -20 -56 -24zM242 80h8v8z" />
    <glyph glyph-name="C" unicode="C" horiz-adv-x="1175" 
d="M531 1339l12 -9l5 5h4l17 -5l4 5l5 -13l38 13l21 -9l13 4q9 -9 9 -29q17 0 17 -18q30 0 85 -34l5 5v-9q12 0 12 -8v-9h-8v-13l17 -4l17 4l4 -4h4q8 35 69 85q0 13 25 26l17 -9l35 9l12 -17v-26q-21 -22 -21 -64q-8 0 -8 -21l4 -4v-5l-13 -59l4 -60v-5l-4 -4l21 -51v-30
l-4 -17l4 -17l-4 -4v-5l-4 5h-9v-13l17 -26q-5 -94 -21 -94h-4q-56 29 -56 39q0 25 -17 42q0 41 -38 60l4 22v4q-30 48 -38 124q-39 24 -39 51l4 4q-9 9 -47 13q-29 55 -51 55l-4 -4h-4l-26 13l4 4v9q-17 0 -30 13h-4q0 -25 -38 -35h-9q-8 0 -13 35h-8l-4 -17h-17l-5 4
l-4 -4h-13v12q-32 0 -55 -51q-43 -21 -107 -34l-34 -64q-26 -21 -26 -43l-25 -4l4 -21v-17q-43 -6 -43 -39v-17q-13 0 -13 -38q-11 0 -21 -56q-10 -34 -30 -55l4 -22v-47l9 -8h8v8h9l-34 -81l-9 -8l22 -47l-22 -86q0 -16 34 -68l-8 -13v-13l8 -8h5l-5 -4v-13q12 -13 22 -60
l-9 -26q9 -28 34 -47q0 -20 30 -42q0 -10 30 -17l4 -30v-22q22 -3 22 -12l13 4q55 -39 55 -60l17 13h4l56 -34l47 4l4 -4h4v4l35 -13q34 0 89 30q13 0 13 13q13 21 30 25q0 -12 30 -12q55 9 55 42q13 7 52 56q12 0 12 8l-4 43l34 51q8 0 22 30l-9 30q0 11 51 56v4l-8 25h4
l9 9l12 4v5l5 -5h4q8 0 8 13h22l25 -4l18 4l4 -4v-4q-13 -10 -17 -77l4 -5v-4l-4 -13q0 -12 13 -12v-9l-22 -47q-8 0 -8 -34q-43 -35 -43 -47l13 -13q-43 -18 -43 -51l-43 17v-4l-4 4h-13v-21l22 4l17 -30q-8 -34 -52 -60q-37 0 -46 -55q-59 0 -94 -43q-43 0 -43 -30
q-10 0 -17 -30h-4l-5 5v4l9 8q-17 0 -17 17h-9q-47 -16 -55 -38h-5q0 10 -51 34l-4 -4v-4l-17 4l-34 -4l-39 30h-13q-7 0 -17 -26h-8q-9 0 -17 26q-39 0 -39 38l-4 4h-4l-4 -4h-5l-4 4l-17 -17q-9 0 -13 34q-35 18 -98 90l-21 38l8 22l-4 4h4q-22 34 -51 107q-21 0 -21 34
q-26 34 -47 175q-8 0 -9 21q13 23 13 43l-4 90l8 17l-4 25l4 22l-4 21q0 95 34 124l21 81v30l-4 4q0 30 26 30l12 47q20 4 47 73q11 0 30 29q43 19 43 43q10 27 64 60q0 21 77 51q21 0 21 21h9q8 0 8 -17h9l47 17l25 -4q37 0 52 13z" />
    <glyph glyph-name="D" unicode="D" horiz-adv-x="1238" 
d="M496 1344l4 -16h-12v-4q0 -12 48 -16q0 16 8 16q57 -4 72 -12l28 16q59 -50 124 -60q26 -16 68 -20q0 -25 44 -60q52 -43 52 -64l-4 -20q14 0 20 -44l-4 -16q16 -32 20 -72q20 -9 20 -28l4 4h4q3 -20 12 -20l-4 -4v-4l28 -44q-12 -37 -12 -92q0 -14 16 -32l-8 -32l4 -36
l-8 -24l20 -64q-21 -24 -32 -56l20 -56v-24l-8 -8l12 -40l-4 -12h4l-8 -24l4 -4q0 -16 -24 -16q-24 -57 -24 -76v-4l24 -20l-12 -36v-12q-21 0 -32 -48l-8 -20h-8l8 -24l-8 -8l-24 16l-44 -72l-24 -20l-12 4v-4q0 -17 -48 -40q-9 -32 -24 -32l-24 8q0 -14 -16 -20h-20l-4 4
l-16 -8l-40 8l-28 -20l-16 24q-15 0 -44 16l-32 4q-8 -18 -16 -20h-8l-12 4v-4l-12 -12q-9 0 -28 24l-24 8l-24 -24l8 -8v-8l-12 -12h-4q-9 0 -12 20l-20 -16h-8q0 24 -36 24q0 8 -32 8v4q-9 0 -24 -24l-16 -8l-24 4q-32 -24 -56 -24q0 8 -56 20l-4 4l-16 -4q-16 24 -32 24
l-32 -4v4l-28 32q12 15 12 40q40 32 76 48l8 -8l24 4l40 -4q0 7 28 24q12 14 12 48v16h-8v16h8l-8 60l4 56v4l4 4l-4 4v4l8 76l-4 12l4 4v4q-6 30 -40 64v8q0 8 24 8l8 16l-12 36l4 32q-8 0 -20 56l4 4v4l-8 32q36 145 36 232l-8 48q0 56 16 56l44 8v16h-32q0 19 -28 28
l-36 132l-4 -4h-4q-12 0 -12 16l-4 4h-4q0 -15 -24 -28h-4q-14 20 -36 20q-60 25 -60 48q0 59 36 68l28 -12l92 20l24 -8h12l40 8l64 -16h12v-8h20q10 20 56 20l24 12q0 16 44 16q0 12 40 12v-4zM84 1292v-4h8v4h-8zM528 1204l-4 -16l-28 4h-28q-8 0 -8 -12l-4 -4h-4l-12 12
l-28 -4l-24 4q-31 -11 -36 -24l4 -12q-28 0 -40 -68q24 -31 24 -44v-4h-8l-12 8q-20 0 -28 -24q-27 -11 -36 -32v-12l12 -12l16 4q16 -17 16 -32h-4l4 -4v-4l-4 -16l8 -8v-8l-4 -68l-44 -12l-12 12h-4l-8 -8v-4q8 0 16 -20q17 -20 44 -28l16 -40l-8 -12v-4l8 -32v-24
q-6 -77 -24 -108v-4l4 -4h4l-8 -60q12 -22 12 -44l-8 -12l16 -72l4 4h4v-12q-12 0 -12 -32l4 -24l-16 -112q18 -68 28 -68t12 -16l28 -24h12q15 12 28 12h8l32 -16l24 4l64 -20l12 8l24 -8q0 15 60 24q0 12 20 12h68q0 13 28 24q39 52 52 52q9 1 20 36q21 0 48 92
q6 68 32 68v20q16 24 16 48q-8 0 -16 32q12 18 12 48h4l-12 44q12 21 16 68l-48 76v28q16 17 16 32v12q12 0 12 16h8v8q0 26 -24 48v8l4 4v4q-13 6 -44 60v4q0 8 16 8q0 25 -40 64v8l16 16v-4l16 4l-4 4v4h8v8l-32 4l-4 -4h-4q-20 5 -20 12l8 24q-20 30 -20 44v12
q-14 0 -28 20q-20 0 -20 8q-29 -5 -40 -16q-44 0 -44 28l-20 8l-12 -4q0 18 -80 40zM212 388v-4l8 -8l4 4v8h-12zM524 -56h8v-4h-8v4z" />
    <glyph glyph-name="E" unicode="E" 
d="M858 1332q21 -32 40 -36q20 0 20 20l40 12q0 -10 40 -20v-4l28 4h20q31 -37 48 -80l-4 -64l4 -16l-4 -4v-4l4 -20l-12 -32l12 -24l-4 -20q4 -33 20 -64v-4l-4 4h-4q-9 0 -16 -64l4 -20l-12 -28l4 -4v-4q-7 -36 -20 -36l-8 -16l-52 24q-4 31 -28 76l4 32l-12 8l4 32l-4 4
v4l4 16l-12 40l4 12l-8 12l4 4v4l-4 24q9 0 12 20l-4 -4h-4q0 49 -44 56l-24 -8l-8 8h-36l-16 12l-20 -4q0 7 -28 12l-48 -28l-64 8l-8 -8h-12q-17 16 -32 16h-32l-32 -8l-4 4h-4l-16 -4h-4l-16 12h-16l-28 -20l-12 4l-4 -4h-4l-20 8q-32 -7 -32 -36l-12 -12l4 -4v-4l-4 -16
q12 -15 12 -28h-4l4 -4v-4l-8 -24l12 -56q-16 -28 -24 -68v-16q6 -40 20 -40v-12q-16 -21 -16 -44q0 -60 28 -60h4l60 4l8 -8l4 4h4q10 -24 36 -24l32 8h4q16 -11 16 -20h4l12 8h32l12 -8q44 44 44 72v20l-24 32q3 36 8 36l-4 4v4l8 16l-4 20q18 83 44 116h4q56 -26 56 -88
q6 0 12 -48q8 0 8 -12l4 4h8v-12q-16 0 -28 -32q12 -19 12 -100l-4 -16q2 -40 16 -40q20 0 20 -36l4 4h4q16 -6 16 -28l-40 -36l-4 -20l8 -8v-12l-8 -12v-8l8 -28q0 -15 -20 -52q12 -20 12 -40q-29 -72 -40 -72h-8l-4 4h-4l-8 -8v4l-4 -4h-4q-24 9 -24 16v24l12 68v28
q0 60 -8 60l4 4v4l-4 12l4 24v12q-19 0 -36 24q-42 28 -56 28l-16 -4l-20 8q-16 -4 -16 -16h-4l-8 8l-4 -4h-4l-4 4q-15 -12 -56 -16l-8 -16h-4l-36 24h-20q-28 -20 -28 -32l-4 -20q8 -2 16 -20l-8 -24v-8q12 -74 28 -88v-24l-28 -72l8 -24l-4 -4l4 -40v-28l-12 -12l4 -20
v-20q0 -38 -16 -56v-8h8q0 -16 28 -16l16 -20l4 4h8q0 -8 12 -8l4 -12l4 4h4l68 -20l80 20l60 -8q57 4 100 16q0 -16 20 -16v-4l4 4l28 -4h8q0 20 24 28l32 -8q0 8 12 8l-4 4v16q0 22 16 28h4l-4 -20q8 0 8 -20h8q0 12 8 12v-4q27 12 52 44q-8 32 -24 52q8 59 24 72l4 20
l-4 48q5 20 12 20l-8 44q13 48 32 48h8v4l4 -4h8q0 17 28 20h4q13 -2 28 -76q12 0 12 -8l-8 -16l4 -4l-12 -76l4 -12l-8 -8l12 -44l-4 -16q15 -56 24 -56v-8q0 -14 -24 -60l4 -20q0 -25 -24 -40l-4 -12h4l-4 -4v-32q-14 0 -36 -24l-4 4h-4q-12 -36 -28 -36h-4l-24 8l4 4
q-8 18 -16 20l-4 -4h-4l-4 12h-16q-8 0 -8 -12q-20 -5 -20 -12l-20 8q0 -24 -20 -32l-12 12h-36l-4 -4h-4q0 16 -8 16v-8h-8v4l4 4v8h-4v-8h-4l-36 24h-4q-23 0 -44 -16h-4l-28 4l-12 -12q-18 8 -20 16l-28 -4l-20 4l-8 -8h-4q0 16 -20 16l-36 -16l-24 16q-41 -8 -60 -24
h-16l-4 4h-4q0 -8 -12 -8l-36 28l-28 4q-47 -43 -76 -48q-36 2 -36 24l-16 8l-8 -20l-20 4l-4 -4h-4l-8 12l4 20l-4 4h-4l-20 -16l-8 8q-42 -5 -68 -28h-4l-36 20q-24 16 -24 52l-16 20v4q16 0 16 32q-9 0 -20 28v20h4q80 0 80 -20l20 4h20l32 -8q0 9 52 12q10 -20 32 -20
q10 33 32 40h4q20 0 20 -12h8q8 0 8 12l4 4h4l-4 4l4 20v12q-12 12 -12 28q-12 20 -32 20v4h8l-8 16l8 20l-4 24q12 0 16 52l-8 60l8 20l-4 32l12 20l-4 28q12 0 12 8v4l-12 48v8l4 16q-8 18 -8 56l8 24l-8 28v8l8 36l-4 12l4 24l-8 72h4l-4 4l4 20l-4 20l4 20l-12 8
q0 36 16 56l-4 20v16l4 44l-16 36l4 16q-15 40 -64 56l-36 24q-9 -9 -56 -20q0 -12 -16 -20h-12l-16 12l-24 -4q-38 19 -52 64h-4l-4 -4h-4l-4 44q44 17 52 36q10 0 24 20l12 8l20 -4h8q0 12 8 12h4l4 -4l4 4h4l96 -16l12 12l20 -8l24 4l12 -4v4l4 -4h64l4 -4h4l12 12
l44 -20q0 10 32 16l4 -4q3 24 12 24l16 -16q0 -28 28 -28l8 -8l48 28l36 -20l28 -4l36 12l36 -8q0 14 28 24v8h24l12 -8l16 4l24 -12l24 4v4h-8v12z" />
    <glyph glyph-name="F" unicode="F" horiz-adv-x="1307" 
d="M960 1332l4 -12h4l12 8l4 -4q12 0 12 -16l16 -4l40 8q36 -18 36 -136l-4 -16l28 -124l-20 -48l4 -4v-4l-4 -24v-8q16 -15 16 -88q-32 -52 -52 -52h-4q0 7 -32 20q0 12 -16 12l-8 16l4 4q-8 0 -12 36q6 0 20 44l-20 96q-39 51 -40 68l-8 8h-4q-8 0 -8 -12l-4 -4h-4
q-14 15 -80 32l-4 16l8 8v4l-12 12v-4l-12 4l-24 -4q-36 5 -36 12l-44 -8l-32 4l-24 -24l-20 8q-17 -32 -28 -32l-24 8l-36 -12q-29 1 -64 36l-28 4l-12 -4l-12 4q-28 -10 -28 -40l20 -64h-4l12 -40q-24 -40 -24 -64v-28l-16 -24l4 -20l-8 -68l4 -12q-16 -24 -16 -36
q0 -30 72 -52l28 16h12q0 -12 20 -24q44 9 44 16l-4 12l12 8q23 -13 52 -16q15 2 24 24h4l4 -16h8q13 0 20 56q19 0 28 116q-11 64 -20 64q8 48 44 48h8q16 0 40 -80v-20l-4 -16l4 -12h-4l8 -40l-4 -16v-12l16 -60q0 -28 -8 -28l4 -4v-4l-4 -4v-4l4 -12l-4 -24l16 -68
l-8 -24l20 -44l4 -20l-20 -48l16 -64q-7 -41 -52 -108l-4 -4h-4q-15 0 -40 40l-28 28v20l4 4v4h-4l4 4q0 21 -52 88q32 0 36 32v12h8l-4 16l4 28q-4 21 -108 60q-12 0 -12 -12h-16l-24 12q-42 -14 -56 -40l-40 12l-16 -20l4 -48v-12l-4 -36l4 -16l-20 -32l4 -36l-4 -36
l40 -48l-36 -76l-4 -28l12 -4l-4 -28q0 -84 36 -84q7 -18 28 -32h20l16 12l28 -16l44 8q31 -7 32 -16l4 4h16l4 -4l4 4h4q39 0 60 -68v-4q-23 -24 -28 -48l-20 -4q0 24 -40 24q-140 -3 -140 -20l-20 4v-4l-24 12l-36 -4l-52 12v-4l-4 4h-4l-32 -8h-16l-32 12l-36 -12l-40 4
l-16 -4v4l-64 -16q-26 14 -76 24q-16 11 -16 20l4 20l-4 24l24 28q18 0 24 20h16l8 -8l20 4h20l4 -4h4q3 24 12 24l52 -24q0 -9 36 -12q31 16 40 32l20 -4h12v4l-8 40q2 11 24 28l-4 28l12 52l-4 36l4 80l-4 4v4l4 4v4l-24 88q12 11 16 48h-4l16 64l-16 48l20 64l-8 32
q0 16 16 40l-8 40l4 4v4l-8 44l8 80q-6 44 -12 44l4 4v24l-4 48h4q-5 46 -16 56v36l-8 8l-12 -4q-17 20 -48 20h-8l-20 -16l-68 12l-20 -8q-66 0 -76 28q-20 0 -32 56q14 32 20 32l16 -8l40 16l36 -12h4q0 13 20 24q33 -16 64 -16l12 8l32 -4l36 8h4l28 -4q0 7 60 20l12 -32
l28 4h28l4 -4l44 16l68 -8v4q5 20 12 20h4l4 -4l4 4h4l20 -4q3 12 16 16l36 -36h4l12 12q41 -28 52 -28h28l4 -4h4q23 40 80 40h28q14 12 36 16v-4q16 0 16 20z" />
    <glyph glyph-name="G" unicode="G" horiz-adv-x="1342" 
d="M874 1333l13 -8l20 4h4l28 -29l-8 -61l12 -12q-2 -53 -8 -53q-36 -21 -36 -36l4 -45q-2 -37 -8 -37q12 -43 28 -61l-4 -16l8 -24l-4 -33l8 -61q-10 -57 -36 -57l-21 -8q0 10 -32 33l-25 53q-8 0 -8 16h-8v16l8 12v13q-23 13 -49 77q-22 17 -48 81q-28 41 -53 41l-12 -4v4
l-4 -4h-9l-4 4h-4v-4l-16 8h-8l-12 -4v4q0 11 -21 20l-4 -4h-4l-32 8l-29 -8l-12 12l-12 -8q-27 12 -57 12q0 -9 -16 -16l-13 8q0 -9 -44 -20q0 -21 -37 -45l-8 -16l-4 4h-4q-8 0 -8 -16l-33 -29l-4 4q0 -9 -20 -20h-21l9 -28q-15 -33 -29 -33v-12l12 -41q-20 -41 -36 -110
v-4q0 -20 12 -20q-8 -24 -25 -24l5 -29v-16l-13 -21l13 -52l-5 -13q17 -6 17 -12q0 -12 -17 -12v-4q25 -35 49 -37v-16l-20 4v-12q0 -14 -16 -33l8 -28l-4 -12q12 -4 12 -25v-20l-8 -12q23 -130 53 -130q0 -41 16 -41l4 4h4q25 -22 45 -65l24 -12h4l4 4h4q0 -12 9 -12
q0 16 8 16l16 -8l-4 -4v-4q0 -21 32 -21q17 -20 41 -24l8 12q26 -2 41 -16l4 4h4l61 -20q112 84 130 105q35 12 37 25l-8 24q22 0 36 20q33 0 33 66l4 4h8l4 -4h4l8 36q-11 73 -20 73q-10 13 -25 13h-12v-9h-4l-36 25l-4 -4l-5 4q0 8 -24 8l-4 4l-4 -4v-8h-8q0 8 -41 20
q-16 14 -16 29v44l8 8h12l12 -8h13v4l-4 4v5l32 12h57v-12h8l20 16l5 -4h56l17 -4l32 8l29 -4l53 20q17 0 44 16l8 -8l57 4v-8h9l16 4q59 -12 73 -24l-12 -33v-36q0 -19 -29 -49l-69 -8l-57 4q-26 -9 -36 -33v-4l4 -4v-4q-21 -14 -21 -45l25 -93l-12 -25l16 -44v-45h4l12 4
l4 -4v-4l-4 -4v-4l4 -25v-4l-12 -16l4 -4v-16l-12 -61l4 -13h-4q-12 -8 -49 -12l-24 12l-17 -4l-20 25h-8l-12 -4v4l-21 49q8 32 17 32l-4 12h-9q-15 -22 -48 -40q0 -28 -29 -37q-34 -13 -40 -32q-13 0 -25 -29q-36 -13 -36 -20l-17 4q-28 0 -28 -25h-25l-4 4h-4
q-10 -24 -32 -24l-17 4l-4 -4h-4q-27 16 -48 16l-13 -4l-8 8h-8q-14 0 -32 -16h-13l-44 25h-13q0 -31 -16 -33l-12 65l4 12q-8 0 -8 17q-20 0 -41 32l-12 8l-4 -4h-20q0 11 -13 25v8l4 20q-48 20 -69 49h-4l4 36q-27 47 -32 70q-16 0 -21 52q-14 3 -28 45l4 12q-15 9 -28 33
l4 28l-29 143l4 57l-8 20q0 13 16 32q0 17 -20 17v40q0 29 8 45q-12 20 -12 53v33q11 0 24 24l-4 4v4q0 15 25 53l4 45q-3 32 -8 32q13 33 48 33q13 8 49 85l61 25q0 24 25 24q27 27 32 73l12 -4l21 4v-4q21 5 49 37l24 -8l12 4l8 -9h4q21 13 21 25h44l33 -8l114 12
q0 -7 53 -16q13 -33 36 -33q0 -8 57 -32q0 -17 25 -17q12 22 16 57q47 33 89 45zM817 922v-4l9 8v4z" />
    <glyph glyph-name="H" unicode="H" horiz-adv-x="1442" 
d="M40 1404v-8l-4 -4v-4q76 -7 76 -36v-16l-40 -44q-12 0 -12 -12l-12 -4q-22 0 -60 72v4q39 31 52 52zM1180 1388h28q7 0 36 -48v-16l-20 -36h-8l-4 4h-4l-8 -12q0 -13 44 -40l8 -8l8 -12q0 -29 -40 -36l-12 -40h-4l-36 8l-52 -16h-4l-12 8l-24 -4l-4 4l-4 -12l-32 12
l-24 -16h-32v-8l4 -4l-4 -4v-4l8 -8l-4 -4v-4q24 -72 24 -124h-8v-8l-12 -48v-24q0 -34 8 -52l-8 -20l4 -12q-3 -52 -8 -52l4 -12l-4 -40l24 -80l-4 -4v-4q2 -44 8 -44l-16 -40q12 -15 12 -36v-8l-4 -4l4 -4v-16l-4 -20l4 -24v-8l-8 -96l4 -4l-4 -12l4 -16l-8 -68
q40 -25 40 -72l4 -4v-4l-8 -12v-4q12 0 12 -12q16 0 24 -24h16l16 8q-4 19 -24 36l4 4h4l4 -4l8 12v16l-8 12v8l16 16l28 -12l12 12h16q33 0 44 -44q0 -24 -32 -40l-12 -16q15 0 44 -32l32 -8v-4q0 -13 -12 -28v-68q-14 -24 -40 -24l-60 8l-8 -8h-4q-17 18 -48 20l-4 -12
h-16l-32 8l-12 -8h-4l-28 8v-4l-4 4h-4l-16 -4l-12 12h-16q-30 -24 -72 -24l-52 16q0 -8 -28 -12q-21 16 -68 24q0 23 -12 36v20q38 52 68 52l32 20h4q15 -16 36 -16q0 8 12 8l4 4v4q-5 28 -28 28h-4l-12 -8h-4l-12 8h-8q-15 -12 -36 -12q-40 8 -40 20v24q0 24 88 44h16
l52 -12l16 16l-4 12q0 37 28 72l4 12l-4 40l16 32q-10 17 -20 84q-5 0 -12 28l-8 8l20 96l-4 4h-4l-20 -4q0 14 -28 32h-4l-16 -4l-4 4l-20 -4h-4q-8 8 -32 8l-8 12l-4 -4h-12v4l4 24q-12 21 -12 48q25 5 40 28h8q0 8 -16 8l-4 16l4 16l-12 36q17 0 48 40h4q8 0 8 -12l4 -4
h8l12 8l12 -8h4q64 4 64 40q44 12 44 40h4l4 -4h4l12 16l-8 8h-4q-15 -12 -28 -12h-4q-20 32 -20 44v8l4 4q-16 30 -24 108l4 4v4l-4 4l4 12q0 52 -24 52l-16 4v-4l-4 4h-4l-32 -4l-4 4h-4l-16 -8l-44 12l-12 -4l-4 4q-40 11 -40 72q0 25 56 28v-4l24 16h8l16 -12l8 8l4 -4
l28 4h8l4 -4q40 7 40 16v4q0 8 -32 16v-4l-28 8l-36 -4l-8 8h-4l-32 -20h-8l-20 12l-4 -4h-20l-16 20v32q12 24 48 24l28 8l48 -8l40 4l80 -20q28 7 28 24h16l16 -12l44 12q67 -24 88 -24q35 10 40 32zM272 1372q24 -3 24 -8l4 4h4l32 -8h4l28 8q32 -2 32 -12v-4
q-17 -40 -40 -40l-16 4v-4l-4 4h-4l-16 -20l-8 -8q0 -26 32 -36l4 4l28 -4l36 4l52 -12q13 28 36 28h4q36 -33 36 -52v-20q-17 -34 -72 -48l-12 8l-4 -4h-8l-4 4l-68 -28q0 -16 -40 -40l4 -20l-16 -24v-24l12 -72l-4 -24h4l-40 -60q-11 -3 -20 -20q16 0 40 -48h8v-4l8 -76
l-8 -8l12 -32l4 4h4l8 -8l4 4q24 0 56 -24v-16l-8 -8l-12 12q-15 -12 -28 -12v4q-25 0 -36 -48q-12 -21 -36 -40v-16q0 -53 24 -72l-4 -20v-28l4 -4l-8 -48l8 -24l-8 -48l8 -36l-16 -48q12 -48 20 -48h4l24 20l48 -4l4 12h4l28 -20h4l16 4l16 -4l16 16q0 -21 40 -24h8l8 -32
q0 -12 -20 -28q0 -34 -20 -36v-8l32 -72q-4 -16 -28 -16q0 -11 -32 -20l-4 -4h-40l-4 4l-24 -12h-24l-20 12l-44 -4q0 14 -44 20l-24 -16l-16 4l-4 -4h-4l-24 4l-24 -8h-4q-13 0 -44 20l-4 -4h-4l-8 12q-24 -16 -36 -16h-28l-52 16q0 38 40 96q0 9 -28 32l-8 44q11 40 24 40
h8q82 -13 92 -20l4 4q0 -8 12 -8q0 -39 -48 -72l-4 -16h4q21 0 52 16l32 -8l8 8l16 -12q24 0 40 40q-10 26 -20 28h-8l-32 -8q-16 0 -16 20h-4q0 15 52 56h20l4 20v8l-16 20l12 104v4l-20 44q9 112 24 136l-4 24v8q16 13 16 36q-28 59 -28 152v28l28 36q-15 32 -40 32v4
q32 31 32 40q-7 23 -28 48l12 20q0 18 -12 36v16l32 40v4l-40 52q0 12 24 20v4l-12 12l-16 -4l-24 8l-28 -36h-4l-32 16l-24 -8h-4q-60 12 -60 68l-4 12q11 36 20 36q0 -9 28 -12q0 23 88 36l4 -4q0 11 44 16l4 16l-20 16l4 4v8q0 8 -12 8v8q0 11 40 24l20 -4zM488 1360h8
q25 0 32 -20q-8 -28 -24 -28q-40 11 -40 24v12zM1036 1308l-4 -4v-8l12 -12v-4l12 12h4v4q-11 0 -24 12zM1144 1292v-8h8v8h-8zM1172 1292l-8 -12v-4l4 -4v-4q28 5 28 12v4zM780 752l8 -20l24 16l4 -16l-12 -12l-20 8l-12 -4v-4q4 -12 24 -12h20v16h8l4 -4h4l4 4v8
q-15 0 -24 28h-4l-16 -4v8h-4q-8 0 -8 -12zM572 720l20 -12l4 4h4l24 -8l24 4q15 -12 28 -12h12l4 -16q0 -54 -44 -76l-44 -4q-52 0 -52 24h-4q-12 -15 -12 -36l8 -8v-24l-20 -4l-16 4l-12 -4l-44 24v12q0 41 -16 72l-4 -4h-20v20q0 29 20 32q36 0 64 -12l12 4l28 -4l20 20
h4l4 -4h4l4 4v4zM320 120q0 -48 -28 -48q0 -6 16 -12l4 4h4l44 -12l4 4l8 -8q14 0 32 40h4v8q-8 0 -8 16l-4 4h-4l-8 -24h-12q0 12 -16 20l-20 -4q0 6 -16 12zM68 76v-4h8v4h-8z" />
    <glyph glyph-name="I" unicode="I" horiz-adv-x="1121" 
d="M84 1348q19 -16 48 -16l24 8q0 -7 24 -16v-4l4 4h4l12 -8h20q0 12 12 12l52 -16l8 8l16 -8l12 4q8 0 36 -28h4q17 20 56 20l12 -8h8v8h16l12 -8h4l4 4l4 -4h20l28 4l4 -4q4 12 24 12h8q8 0 8 -16l4 -4h4l24 16q24 -16 36 -16q19 16 40 16q17 -24 36 -24l24 4v-4
q42 13 60 36l12 4q0 -12 28 -12q38 -30 88 -56v-8l-8 -12l4 -48l-12 -8l-24 8l-28 -8l-12 8l-40 -16q-11 36 -32 36l-36 20v-4h4l-4 -12h-4l-4 4q-20 -5 -28 -16q-37 4 -48 16l-12 -8h-4l12 16v4h-4q-29 -2 -40 -12l-20 12h-4q0 -14 -52 -32l-8 -20l-16 8l-12 -36h4
q18 0 28 -28l-4 -4v-4l12 -32l-16 -68l4 -16q-8 -18 -16 -20q16 -18 24 -48l-16 -20v-12q16 -18 16 -36q-20 -6 -20 -28l8 -12v-28l12 -84l-12 -20l12 -40q0 -44 -20 -44l-16 -4l-12 4v-4l-4 -4v-4l4 -4h-8l-4 4h-4q0 -8 28 -20v-12q-7 -12 -48 -28l-4 -4l-8 -12
q15 -15 44 -20l16 -12l4 4q16 0 16 -24l20 -32l-20 -60l4 -52q0 -21 -20 -32l-12 4v-4l20 -32v-12q-32 -2 -32 -12q16 0 16 -16h4l12 4v-4l12 -8l-28 -32q10 -27 28 -40l8 -44l20 4l12 -36h4v8h4q8 0 36 -84l-4 4h-4l-4 -12l4 -16q0 -18 -84 -24q0 14 -48 16q-32 -3 -32 -8
l-56 12l-64 -20v12h-4l-32 -8l-16 8l-12 -12h-4q-15 12 -28 12l-12 -12h-12l-4 4l-40 -24h-8l-12 4v-4q0 -7 -44 -12l-4 -4l-32 28q-25 0 -32 56l-12 16v12q16 0 16 28l4 4q0 11 44 32q17 0 36 16h8q0 -18 28 -24v-4l60 12l16 -20h16l4 4l12 -4l44 12q17 -36 24 -36l4 -4h4
q44 0 44 32q48 0 48 28q-12 0 -12 68l48 60v4l-12 28l-12 -8h-4q0 12 -16 20l4 20v12l-4 36l8 12l-12 44l4 4v12l-4 4l12 16l-4 4v20l4 4l-20 48l8 16l-4 56v4l12 16l12 -4v8q-12 0 -24 16q-16 0 -16 8v4l16 16l4 -4v4l-28 80v8q20 32 20 48h-4l4 4v20l-4 44l4 4l-8 44l4 16
l-4 4l4 4l-4 20q0 13 16 32l-4 28l4 4v4l-4 16v8q12 11 12 24h4l-8 32l12 32l-4 4v4q12 21 12 40l-20 16l-4 -4h-4q-22 28 -48 28h-8l4 -4v-4h-32l-12 8l-44 -16q-10 3 -24 20q-34 -5 -64 -36l-40 -8l-12 4l-28 -12q-8 32 -16 32h-8l-16 -12h-16v8q-48 25 -48 56q0 35 56 76
q0 36 44 36zM440 596v-4h12v4h-12zM432 496v-8h4v8h-4zM784 92h8q8 0 8 -20q60 -28 100 -36q8 -8 8 -32l4 -20l12 -12l-12 -8l-20 12h-8q0 -11 -28 -28q0 -13 -36 -20v-4l-44 32q0 -7 -36 -20q-44 3 -44 12l-4 -4h-4l-24 4l-32 -8l-16 36l-4 -4h-4l-4 20l20 20l-4 4v16
l24 36l20 -40q8 0 8 -12h8l4 -4l4 4q0 44 52 44l20 4q0 28 24 28z" />
    <glyph glyph-name="J" unicode="J" horiz-adv-x="1276" 
d="M992 1312l20 -8l36 4q25 -24 25 -49h7q9 -4 9 -16l-5 -23q-7 -10 -7 -22l-4 -4q0 -12 -8 -12v4l-4 -4h-4l-4 4h-5v-4l-24 12l-24 -8l-25 4l-4 -16h-16l-16 -4l-17 8l-4 -4h-12q-8 0 -8 16h-4q-51 0 -69 29q-41 -12 -41 -17v-12h-8l-24 4q-45 -14 -45 -57l4 -12
q-4 -57 -12 -57q0 -78 32 -93q25 -24 25 -41l-4 -4l12 -4l-20 -37q11 0 16 -61l-37 -28l4 -4v-4l-4 -4l4 -4q-1 -53 -28 -53v-8h16l12 8l4 -4v-12q-12 -15 -12 -33l4 -49l-8 -32l8 -12v-29l-8 -69q8 0 16 -41v-4l-24 -56q4 -61 12 -70q-16 -85 -24 -85l-29 -20l25 -37
q0 -28 -41 -53q-9 -27 -77 -113l-37 -25l-4 -4h-24q0 -12 -24 -24l-25 12l-69 -12l-12 4v-4l-4 -4v-4l-29 4l-20 -4l-24 4l-25 -8l-16 16h-24q-14 -53 -21 -53q-4 29 -16 37v8h-8v-8l4 -4v-5l-4 -4h-8q0 21 -37 29q-6 57 -36 57l-12 36h-5l-32 -12q0 10 -33 57l-24 73l8 20
l-8 37v41l-4 20q10 0 41 65q0 20 -8 20q15 53 56 53l17 -4q33 0 89 37l8 -21l25 8h4q24 -24 52 -28v-4l-4 -49l13 -40l-9 -21l5 -20q-7 -24 -33 -41q-9 -24 -16 -24l-12 4v-4l-4 4h-5l-28 -28l-4 4h-20q-25 -8 -25 -29l-4 -28q0 -45 41 -45q0 -27 49 -37l4 -4l16 -8l12 8
l29 -8l20 8q0 -6 16 -12l12 4l21 -16v-4h8q13 16 49 16l4 4q0 8 24 8q0 25 16 25q0 14 29 16q1 13 69 61q0 12 36 49l21 93l8 25l4 4l-8 16l4 20l-8 8l4 57l-4 4h4l-12 25l12 40l-4 37l8 16l-8 81l20 41q0 12 -24 41v20l4 16l-4 4v4l12 41v28l-4 5l12 28q0 24 -12 24l8 25
l-4 16l8 16q-16 23 -16 49q12 22 12 45l-4 4v4l12 28l-16 69l8 25q-16 20 -45 20l-28 -8l-29 4l-16 -4l-20 4l-4 -4l-13 12l-12 -4l-28 8q-54 -12 -94 -12h-16l-16 -4l-65 32v5l8 32v12l-8 29l16 8q32 -3 45 -16h12l45 12l4 4h20q15 -12 28 -12h13q15 12 57 12h20
q24 0 24 -16l4 4l33 -4l69 4l69 -21l61 12l4 -4h4l45 13l12 -4q28 5 28 12l4 -4l53 8l29 -4z" />
    <glyph glyph-name="K" unicode="K" horiz-adv-x="1550" 
d="M1194 1312q32 -6 32 -32l12 -4l8 8q17 0 28 -96q0 -11 -68 -32q0 -15 -28 -20q-11 24 -32 24q-47 -28 -60 -28l-40 36q-87 -27 -88 -36q0 -17 -32 -40l-4 4h-4q-25 0 -32 -56q-10 0 -16 -36q-40 -31 -52 -60q-36 -6 -36 -36q-25 0 -64 -64v-12l4 -4v-4q-33 -40 -80 -56
l-4 -20q28 -18 28 -32l-4 -36q40 -58 40 -72l-24 -24l4 -4v-4l4 4h4l60 -28l20 4l4 -4l-4 -4v-24q12 0 20 -32q9 0 12 -44l-4 -16q7 -32 44 -52h12v-4l-4 -16q0 -9 24 -24l28 -48q0 -16 36 -48q0 -44 28 -44l28 4q20 -7 20 -20l-4 -16q0 -12 16 -12q0 -28 36 -28
q14 12 60 16q0 -10 36 -12l4 4q16 -10 16 -28q10 -12 24 -12q0 15 56 24l4 -4q0 -8 28 -8q0 -11 28 -24q0 -10 20 -12l4 -16l-4 -20l8 -8v-8q-29 -35 -92 -68q0 -11 -44 -16l-4 -4l-12 12v8h8v4q-2 12 -32 12l-8 12l-12 -8l-4 4h-4l-4 -4h-4l-12 4l-48 -8l-24 4
q-1 -14 -52 -40l-32 -48l-8 32v24q-2 16 -52 32l-20 -4l-28 4q0 -11 -36 -20l-24 8v-4q-68 24 -68 60l-8 8q17 52 40 52v4l4 -4h12q24 0 24 16h8l16 -4q28 5 28 28q0 12 12 12v36l-20 -4l-20 56h-4l-4 -4h-4q-16 32 -36 48v20q-12 0 -12 20q-14 0 -24 20l4 20q-16 0 -16 20
l-32 -12l-16 12v20q12 15 12 28v24q0 15 -32 40q0 24 -16 24h-4l4 20h-4l4 4v8l-4 -4h-4l-24 16l-24 -4l-4 4v20q16 14 16 24l-20 12l4 12q-7 0 -20 36h-8q-55 -19 -64 -40l-32 -36l4 -20q-64 -46 -72 -60l4 -44q-11 -36 -32 -48v-40l12 -40v-32l4 -4l-8 -16l12 -40l-16 -32
q32 -6 32 -16v-4q0 -28 -24 -28l16 -44l12 4q19 -18 100 -24l8 8l4 -4h4l24 4q40 -14 40 -52q29 0 32 -36l-8 -20h-4l-12 8h-4l-68 -48l-16 4l-8 -8l-20 4l-20 -4l-24 12h-8l-20 -16h-4q-8 0 -8 16l-16 8q-44 -11 -44 -20l-100 24l-72 -12l-28 8l-20 -4q-29 3 -40 12h-16
l-4 -4q-28 0 -40 64l-4 4q9 40 60 40q0 12 76 32h28l44 -16h8l24 28q14 0 28 20v16l-8 8l4 16q0 39 -12 68l4 12h-4q-6 0 -16 56q-8 0 -8 16q8 24 20 24v8h-8v4l12 16v28l8 32v4q-12 89 -32 124l4 4l-8 44q8 0 8 16l12 12l-8 20l24 88l-8 16l-4 -4h-4q-6 0 -16 40
q-12 4 -12 24v8q0 11 20 12v12q-7 35 -28 76q3 37 20 52l-16 64l24 56l-4 4h-16l-4 -4q-18 4 -48 44l-36 12v-4l-12 4l-24 -4l-20 4l-16 -4l-12 4l-12 -12q-16 3 -16 28q-18 8 -20 16l4 4l-20 36q0 23 44 36q0 20 8 20l28 -4q0 10 36 16l28 -20h32q3 20 12 20l52 -16h52
q28 0 44 8l48 -12l20 16h4l28 -12q0 9 56 12l64 -16q10 -8 20 -56l4 -4q0 -26 -48 -52v-4l-8 8q-12 0 -96 -48q-4 32 -12 32l-4 -4v4l4 4v4h-12q0 -29 -32 -68v-4l8 -20l-4 -44l12 -32v-4l-16 -36q0 -33 -16 -56l4 -12q-20 -5 -20 -12v-8h8v-4l-4 -4l8 -24q-3 -16 -32 -40
v-12l36 -20l20 -20l-28 -28q0 -14 32 -24q0 -16 20 -16l8 -32h12l20 40l32 16v-8h4q28 0 28 48l4 4h4l-8 24l20 16h16l16 -12h4l16 52h12l12 -8v12l20 -4v8q-16 0 -28 28q14 40 20 40h4l4 -4h4l8 12v8h-16v16q17 0 40 28l32 8l12 -4l12 4l4 -4h4q28 5 28 12v4l-12 20l32 72
l-4 4q10 0 32 24v4l-4 16l4 4v4q0 38 -68 52h-24q-6 0 -24 32v44q20 28 92 28q0 8 16 8q36 -2 36 -16l-4 -24q32 0 32 24l68 20h8l36 -16q0 24 56 24h36v8l88 -12zM1042 1120v-8q-9 -40 -40 -40l-12 28h4zM594 800l4 -4h8v12h-4zM598 752l4 -4h8l8 8l-4 4h-8zM410 108h8v-8
h-8v8z" />
    <glyph glyph-name="L" unicode="L" horiz-adv-x="1276" 
d="M72 1372h8l12 -8h8l20 4q42 -44 88 -44q0 10 108 16l20 4l48 -4l20 8q17 -4 32 -20l40 12l16 -8q21 12 40 12h12q0 12 12 12l84 -32q31 -28 40 -68l4 -12q-12 -19 -96 -56l-4 -4h-8l-12 4v-4q0 -8 -20 -8l4 20q-56 4 -92 16l-36 -28l4 -16l-4 -16l4 -28q-8 0 -8 -12
l8 -12l-12 -20l12 -56l-8 -40l4 -24v-4l-4 -4l4 -4v-36l-8 -32l4 -4v-4l-4 -12h4l-4 -12l16 -44l-4 -4l8 -44q-12 -24 -12 -84v-16q0 -15 28 -68v-8q-9 -20 -28 -20l-4 -4v-4q7 -24 12 -24l-24 -60l-16 -48l8 -24h-8v-12q18 -32 24 -32l4 4v-8l-8 -12l8 -24h-4l4 -4v-4
l-4 -4v-4l4 -24v-4q0 -12 -16 -12l8 -24v-4l-4 -16l4 -4v-4l-4 -44v-4q16 -26 36 -40q29 -36 48 -36l24 -4q27 0 48 28l28 -16l4 4h4l4 -4h4l60 20h4q41 0 88 -16l24 -4q56 4 56 28l20 8l8 -12v-20l36 -8l4 4h4l12 -4v4q0 8 16 8l12 44q-2 17 -24 36l-8 28l4 4h4l24 -4
q17 8 28 80l-4 12l8 24l-12 40l12 40l-4 32q18 24 72 24q32 -13 32 -36q0 -19 -32 -76v-4l12 -32l-8 -28q10 0 20 -36l-4 -4v-4q12 -14 12 -32l-4 -32l8 -36q-14 -4 -24 -48q9 0 16 -16v-4l-8 -16l8 -20l-12 -8l-20 4q-24 -16 -24 -32h4q-2 -28 -16 -28l-4 4h-4l-16 -4
l-24 12h-4q-17 -16 -32 -16h-24q0 -16 -20 -16l-4 4h-4q-40 -2 -40 -8l-12 -28v-12h-16q-8 53 -16 64l-16 -4l-28 4l-4 -4l4 -4v-12l-8 -8h-4q-12 0 -12 24h-4q-10 0 -12 -16q-30 32 -40 32l-24 4q-12 0 -36 -20v4l-4 -4h-4q-22 0 -44 16h-12l-44 -8l-40 4l-8 -8h-4l-24 16
l-32 -4l-20 4l-12 -12l-44 20q-60 -24 -100 -24l-24 8v-4l-24 8h-8q-13 0 -16 -56l-4 -4h-4l-12 12l-4 -4h-12v8h-4l4 4v8l-76 20q-28 36 -28 60v4q0 52 32 52q0 12 28 12l12 36h20l12 -20l16 8l32 -4l12 12h8q0 -12 16 -12q0 -16 24 -24l20 4h28l4 -4h4q0 36 12 36v8h-4
l-4 -4h-4l-4 20v16h8v16l16 52l-4 4v4q8 0 12 28l-8 48v8q17 0 40 44q12 3 12 32l-16 16h-4v-16q-24 15 -24 24l-20 -4l-4 12l8 28l-4 24l8 8l-16 52l-20 32v8q1 20 8 20l-4 4v4l20 28l-4 20q12 19 12 60q0 16 -32 52v12q10 0 16 44q8 0 8 12l-4 28q12 55 20 60v40l-4 24
q3 44 20 44v8l-20 48q12 3 12 32v28q0 10 -32 12l-8 24l4 4q-4 16 -16 16l4 20l-4 4h-4q-8 -25 -20 -28l-48 4v-4l-28 -36v-12h-16q0 11 -32 32q0 10 -20 24v-4l-4 4h-8q-8 0 -8 -12h-8q-8 0 -8 20h-4l4 4l-4 20v24q16 0 20 32l-4 4v4zM320 224v-4l4 -12h4v4l-4 12h-4z" />
    <glyph glyph-name="M" unicode="M" horiz-adv-x="1491" 
d="M236 1302h4q29 0 64 -24h4q8 0 16 24h8q20 -11 20 -24h16l4 4q21 0 32 -68l4 -16q19 0 28 -52l-8 -64l20 -28l-4 -12l4 -40l-4 -4v-4q0 -40 28 -64l4 -12q-4 -45 -12 -56l8 -36q0 -8 -16 -8v-4l12 -20l-4 -4v-4l4 -12h-4l4 -4v-12l-4 -20l4 -4h12l28 4v-8l12 -116l-24 -8
h-16q0 8 -48 48q-8 20 -24 20v20q19 0 32 28h-4l4 4v4l-28 32l4 20q-28 54 -44 152l4 36q0 12 -48 48q0 12 -16 36l12 24h-16q0 -10 -28 -40l-12 -48l4 -32q-9 0 -12 -20q16 -29 16 -44l-4 -4l28 -28v-4q0 -7 -24 -20v-8h-4l4 -48v-28l-4 -40l12 -16l-16 -40l4 -4v-28
l-12 -56v-4l28 -40v-4l-4 -20q5 -62 20 -88l-12 -24q3 -72 8 -72l12 -28l-4 -4v-4q8 -10 8 -36h4l-12 -44l8 -8v-32l-8 -32v-4q28 -22 28 -32q0 -6 32 -16l4 4l20 -4h16l16 4q21 -3 68 -36h12l24 4q9 -28 28 -28l4 -4v-4l-8 -8h-4l-16 4l-16 -4h-12l-4 -12l4 -16
q0 -13 -72 -20h-20q0 -12 -20 -24q-32 20 -56 24l-28 -24l-4 4l-12 -4v-4l4 -4q-12 -36 -20 -36q-16 0 -16 36q-55 24 -76 24l-36 -12v-4q15 0 20 -16v-8h-4l-28 12l-8 -16q-8 0 -32 28h-4l-4 -4h-4q-54 12 -60 28q-7 0 -12 20l4 12l-8 36q0 17 88 48l32 -8l8 8h16v-8h8
q0 8 12 8v12l4 -4h4l-4 4v20q15 0 20 20q-2 36 -8 36l20 36v16l-24 48l12 44q-16 34 -16 72v40l8 24l-4 4v4l4 4v4l-16 36l12 72l12 4v4q-12 0 -12 8v20l4 4l-4 4v8l4 4q0 16 -20 24l4 28v12l-16 36l16 48l-16 92l4 36v24q8 9 20 68l-12 20v28l4 16q-28 38 -28 72
q-13 0 -40 32l-20 8l-56 -12l-40 28v28q0 22 52 72h12l4 -4l36 12q31 0 56 -16l40 24l24 -8zM1248 -34v-4q11 0 16 -28l-4 -4h-12q0 16 -12 16h-8q-7 0 -20 -32h-4q-25 0 -44 28l-28 20l4 4v8l-24 8l-76 -12l-24 -32h-4q-22 20 -84 32l-48 16v8q3 68 16 68l12 -8
q104 12 104 52l24 72l4 40l-8 24q2 26 24 48l-8 12q13 0 20 68q-52 29 -52 92l8 8l-4 16l4 4h-4q11 44 24 64l4 4q-20 9 -20 36l12 68l-16 104l8 24l-8 20l4 44v8l-4 16q8 56 24 56q0 11 -36 36l4 4l-4 12l12 100q0 22 -60 36q-20 -23 -20 -36v-40l-16 -92v-8l8 -44v-4h-20
q-12 0 -16 -56q-8 0 -8 -16l-40 -12l20 -64l-8 -36v-64l4 -28q-43 -32 -56 -32l-36 120q24 33 24 48l-8 8l8 28l-4 16q28 14 28 20l-4 48q4 28 40 72q-7 27 -20 36l24 60v4q0 17 -16 44q32 61 48 148q31 36 56 36l4 -4h4l20 4l36 -8l32 20q26 12 52 12q23 -16 44 -20l4 4h4
l20 -4l56 8l12 -4v4q30 -15 32 -24q0 -32 -28 -48v-8l8 -12v-16h-12l-4 4l-4 -4l-28 4h-12q-64 -11 -64 -24v-28l-16 -52q12 -4 12 -24v-40l-16 -60q16 -22 16 -88q-5 -28 -12 -28l4 -4v-4l-12 -32h4q16 -1 16 -28v-4l-4 -24l16 -68l-16 -32l8 -20l-8 -60l4 -4v-4l-4 -24v-4
q12 -15 12 -28l-8 -32l12 -60l-8 -88q7 0 12 -20l-4 -4v-4l28 -76l-24 -64h-4l4 -20l-4 -20l36 -28h28q14 12 48 12h20q30 -5 32 -16v-8l-8 -12v-4l12 -16l-8 -8q9 -24 24 -28v-15q-57 -16 -68 -25zM1032 938h4v-8h-4v8zM532 562l36 -40q0 -13 -12 -28v-4l8 -44l-8 -24
q0 -15 36 -24l-4 -20q14 -12 20 -80l4 -4l24 -16v-44q0 -8 12 -8v-24l-4 -4v-4q8 0 8 -12q20 -1 20 -12h-12v-4h16l8 8h40q12 0 12 -16l-8 -44l20 -84l-28 -28l-8 -20h-16l-12 4l-20 -4h-28q0 24 -24 40q0 19 -24 52l-4 20l12 16l-12 24v8l8 44v4l-24 20q0 9 -24 36v8
q-12 0 -12 20l4 24l-8 24l4 4l-16 64l-8 8h-4l4 4v16l-24 36v20l8 12v8q-12 15 -12 28v20q6 20 52 20zM804 562l4 -4v-4l-4 -20l-16 20v4zM800 534l8 -40v-4l-8 -8l-32 4l-16 -4l-8 44l12 4l28 -4zM772 458h8l4 -4h4l-8 -40q-12 3 -16 16zM756 366h8v-4l-4 -32q7 0 16 -48
l-20 -72q0 -21 -36 -32l-8 12l8 28l-16 24l4 4l-4 4v24q0 48 40 76zM1040 294h4v-8h-4v8zM140 -66v-8h4v8h-4z" />
    <glyph glyph-name="N" unicode="N" horiz-adv-x="1491" 
d="M1032 1302q27 -8 48 -28h4q33 12 80 16q48 0 48 -40v-4l-4 -4l32 -8q5 28 20 28t28 -60q-29 -32 -48 -32l-8 8h-44l-16 12l-12 -8l-4 4h-40l-12 -12l-12 -8l-4 4h-8q-40 0 -40 -68l4 -28q-8 -18 -16 -20l-20 52h4q-12 18 -12 32h-4q-8 0 -12 -32l-4 -4h-4l-12 36
q12 4 12 24l-12 16h-16l-8 -32q15 -88 36 -88v-28q-28 -44 -28 -60v-12q28 -21 28 -64l12 -12q0 -20 -8 -20l8 -32l-4 -16l12 -32l-12 -40h8l-24 -48h-4q-10 0 -12 16l4 4v4q-24 67 -24 92v32l-16 72l16 40q-7 0 -20 36l4 24l-16 60v8h8l-8 36l8 24v4q-5 44 -24 44l-20 -4
q0 9 -36 16l-20 -12l-36 20l-16 -4l-12 4l-20 -8q-6 24 -20 28q0 18 68 28v-4l24 12l16 -4l56 20l44 -4l12 4q32 -3 32 -8l20 4h32q0 24 24 24zM256 1266l44 -12l56 12v-4q16 -17 16 -32v-20l40 -16l24 -32l-4 -28q18 -8 20 -16l-8 -12h8v8h4v-8l4 -4l-4 -4l-4 4h-4l-12 -4
q-4 16 -20 16l-32 -20h-4l-12 8h-4l-4 -36q0 -12 16 -12v-20q24 -27 24 -44l-4 -52l8 -24v-52q0 -34 -36 -72q8 -32 20 -32l16 -8l-4 -4v-4q1 -20 8 -20q-9 -33 -24 -44l-4 -4v-4l12 -28l-4 -20h-4v8h-12l-4 -16h4l4 4h4q4 -47 20 -64l8 -24l-4 -20l4 -24q-8 0 -16 -60
q-17 0 -32 -48h-12q-10 0 -12 40q16 5 16 36q-7 1 -28 36l4 16l-4 32l8 20q-17 28 -40 28h-4v-8h-20l-12 -8l4 -4v-16l-4 -28q20 0 32 -92v-12l-24 -36l-4 4l-8 -12l-16 12l4 40l-12 44l4 4v4l-4 32q1 16 8 16l-4 20v28l4 4v4q-28 24 -28 88l4 28l-12 8l8 48q-7 40 -12 40
l12 44q-17 9 -20 20l4 4v4l-8 40h4l-4 4v8q0 8 12 8v8l4 76l-8 68q4 40 12 40q-14 28 -20 28h-4v-8h-8v8h-20l-4 4l-20 -12h-4q0 20 -16 20l-4 -4l-72 8q-22 -24 -32 -24q-29 24 -44 24l-56 20l-3 15l-4 21q7 8 35 28h40q18 16 36 16l64 -16l12 4l4 -4q4 12 24 12
q0 -8 12 -8l4 -4v-4l104 20l4 -4h4zM1176 1242l-4 -4v-8h4l4 12h-4zM868 1206v-8h4v8h-4zM384 1170l-4 -16q28 -6 28 -20h12v12l-8 8l-16 12l-4 -4v8h-8zM312 1114q0 -8 -12 -8q0 -9 -24 -24q0 -16 -8 -16l12 -28l-8 -76h8l-8 -72l4 -4h-4l4 -4l-20 -104q8 0 8 -32l16 -4
v-28q-20 -21 -20 -36l8 -28l-4 -28q12 0 12 -16l4 -4h4q40 5 40 16l4 28q-9 0 -12 32l8 8l-12 20l8 76l-4 24l4 12l-8 16q7 28 12 28l-8 60l4 4l-8 36q3 32 8 32l-4 24l4 76l-4 4v4l4 12h-8zM492 1046h4q44 -19 44 -92q0 -28 40 -52q33 0 44 -88q-13 -10 -36 -12l-8 16l4 12
q-17 0 -48 76l-20 60q0 10 -32 28l-8 24q10 28 16 28zM1036 1010h8v-4l-12 -32h-8v4q0 30 12 32zM448 1006l4 -4h4l4 4v-12l-12 -12q0 -12 -8 -12v28zM1024 962h4l44 -60l-28 -60h-8l-8 8v4l12 44q-12 16 -16 64zM468 918q4 -21 20 -44v-20q-23 0 -36 36v12zM1044 794h12
l-4 -12h-8v12zM608 778h4v-12h-4v12zM628 762h4q11 0 24 -28q20 0 28 -48q24 -7 24 -56q32 -24 32 -44v-12q16 0 16 -36q32 -14 32 -60q20 -5 20 -12v-4l-20 -16h-4l-20 20h-8l-12 -32l36 -88q15 -34 52 -48l16 -16l8 16q-68 51 -68 88l4 12l-4 32l12 8q36 0 60 -52l24 -24
l-4 -4l24 -60l-8 -24l12 -12l32 8q17 -48 28 -48l36 -12l12 -48l-24 -72l8 -20l-28 -52q0 -28 -20 -44h-32q-14 10 -32 56q-25 0 -44 72q-24 0 -24 52q0 34 -32 68l4 16q-5 17 -28 36q0 15 -24 48l-32 108l-16 16l4 4l-12 24l8 24q-20 -16 -32 -16h-4l-4 20h8v8l-4 4v4h4
q-24 44 -24 56q-36 24 -36 48q-36 0 -56 88l28 24q0 18 24 24q18 -70 48 -144q19 0 48 -56q0 -48 16 -48l4 -20h4q10 0 20 28l-24 32q0 30 -16 52q-44 51 -44 100q-24 27 -24 60zM976 586l12 -8l-4 -12h-20v4zM1068 542h4q9 0 20 -36q-8 0 -8 -16l-4 -4h-4q-7 0 -24 20
q5 36 16 36zM952 530h4q9 0 28 -56q0 -44 -12 -48l-36 4v16l-8 44q24 12 24 40zM1072 466q8 0 16 -24l-8 -20l12 -32v-4l-8 -12v-12q0 -13 20 -44v-24l-4 -40l12 -8h4l8 36h4l4 -4h4l-16 -48q0 -15 16 -28l12 -44v-12q12 0 12 -12q0 -25 -32 -56v-4q12 -9 32 -56
q0 -24 -28 -24q-11 0 -56 -36l-20 -4q-28 8 -28 32l40 104v4l-8 24l8 32l-8 12q0 23 16 40q0 11 -20 12v16l8 12v16l-8 24l12 36l-20 60l4 12l-4 4v4l16 64l4 4h4zM364 378q10 -3 24 -52q15 -5 28 -56q16 0 16 -36h4l-4 -12l4 -28l-8 -44l24 -56l-12 -20l-24 8l-12 -12
l36 -36l24 4l12 -4v4l-4 4v4l4 4l-4 20v4q0 9 28 12v4l104 -44h4l20 4q13 -2 32 -36q-9 -24 -28 -24l-16 -8l-32 12l-12 -8l-12 4l-48 -16l-4 4h-4l-4 -4l-48 8q-10 -32 -16 -32q-28 0 -28 8l-4 -4h-4l-52 16l-16 -12l-32 12q0 12 -12 12q-22 0 -40 -28q0 12 -40 12l-28 -16
h-4l-12 8l-12 -4l-32 12l-24 -4v4l-36 -16q-27 0 -60 60q0 9 32 20v8q9 0 40 36l36 12l24 -4l8 8q28 -5 28 -16q41 0 76 36v32l-8 36h4l-12 28q12 15 12 32l-4 52l4 4h-8v24q0 30 56 40q35 0 40 -72l4 -4h4l20 52l-8 24q8 0 8 16l4 4h4zM840 270v-16l16 -8h12l4 20h-4l-12 4
l-12 -4zM328 138l8 -8v8h-8zM320 86v-8l16 -20l-4 -4v-4l28 20l-16 44l-4 4l4 12q-12 0 -16 -44h-8zM980 102v-8h4v8h-4z" />
    <glyph glyph-name="O" unicode="O" horiz-adv-x="1221" 
d="M456 1342l32 -8l12 4l84 -16l16 12h12l48 -20q9 -24 32 -24l56 -12v4l68 -44h16l4 4h4q16 -13 36 -96l60 -112q44 -48 44 -72l-8 -24q12 -8 16 -64l-4 -20q24 -52 48 -152q8 0 8 -20l-8 -8q0 -26 24 -48q-15 -12 -28 -12l-4 -40l4 -116v-4l-44 -44l4 -48v-24
q0 -14 -16 -32v-16l8 -36q-26 -58 -76 -84q0 -10 -28 -28q0 -10 -28 -32q0 -35 -40 -52l-76 -60h-12l-24 16l-8 -8h4q-8 -44 -28 -44v-4l-20 4h-12l-52 -16l-20 4l-60 -20l-132 20l-8 -8h-4q0 16 -40 48h-4l-4 -4l-56 24l-4 -4l-40 44q-18 28 -36 28q-12 28 -28 28l4 20
q0 28 -40 60q-12 18 -16 48q-16 0 -16 36q-20 0 -28 44l-12 12l4 16l-16 64l4 32l-12 40l4 16l-8 20l4 12l-4 60h4l8 8v24l-16 68l4 16l-12 28q0 30 20 96l-4 32l60 108l-4 28v12l20 44l-4 20q4 16 40 52q0 10 20 28q0 19 40 48l16 -4q0 14 32 24l4 12l-4 12l4 4h16l4 -4
q44 17 44 48q84 12 84 36q48 0 68 16zM156 922l4 -4v-4l-32 -52l4 -4v-4l-12 -20l20 -84l-8 -60v-4q-16 -2 -16 -12q16 -26 16 -40l-8 -28h4l-4 -4v-4q3 -43 12 -52v-4l-8 -44q32 -17 36 -44q8 0 8 -20l-12 -68h4l-4 -4v-4q11 -43 24 -60v-12q-16 0 -16 -8v-12q0 -40 48 -40
q11 -48 60 -48l48 -60q53 -4 80 -28l4 4h4l68 -36l16 -4q58 0 72 24l32 20l4 -4h4l16 4q8 -20 28 -20q31 11 36 32l12 -4q8 0 56 48q8 25 60 68q8 36 24 48v8l-4 4q16 51 36 72l16 72l-8 36q26 31 28 48l-4 24v4l8 32l-12 32l8 24v48l8 16l-24 56q12 18 16 56q-16 20 -16 36
l-28 32l4 52q0 93 -40 116l-48 56q-19 13 -44 64q-28 0 -68 44h-12l-64 -4q-33 6 -68 48h-12l-4 -16h-16l-28 20q-18 -5 -52 -40q-73 -7 -96 -28q-34 0 -84 -96q-32 0 -40 -72q-12 0 -24 -76q-10 0 -12 -16z" />
    <glyph glyph-name="P" unicode="P" horiz-adv-x="1380" 
d="M396 1338v-4l-8 -32v-12h12v-4h-8v-8h4l12 8h8q64 -22 64 -36l76 8q15 0 40 -20h8q13 13 44 16l60 -4q9 0 16 32h4q0 -11 28 -28q0 -12 20 -12q0 16 20 28h8l28 -16l4 4h4l12 -4l20 12q20 0 68 -32l12 -4l4 4l48 -40h8l4 4l12 -4l20 4q0 -36 36 -36l28 -24l16 4v-24
l20 -52l-4 -4v-4l8 -24l-4 -20q11 0 32 -36v-8l-4 -4v-4l12 -12q-16 -27 -16 -80l4 -12h-4l8 -20q-7 -91 -24 -104l4 -16l-8 -8l4 -16q-31 0 -60 -72l-4 -4q0 -20 -20 -20l-4 -4h-4l-16 4q-16 -16 -40 -16l4 -4v-4q-19 -32 -44 -32q-16 8 -16 20l-20 -4l4 -20v-4l-44 -12
l-28 8v-4l-4 4h-4l-20 -4l-4 4h-4l-52 -20q-21 12 -72 16q-4 -12 -24 -12q-11 0 -36 24q-18 0 -28 20l-4 -4h-12l-4 4l-4 -4h-4l-20 4l-4 -12h-12v8l-20 -4l-8 8q0 -14 -56 -20l-20 -24l4 -4v-4l-4 -20h4l-8 -32l4 -4h4l-4 -40v-28h8v-4l-8 -40l20 -40l8 -12l-4 -4v-4l4 -12
l-12 -12h-4l4 -20q0 -18 -12 -36l12 -12v-24l-4 -4l4 -4v-28l-4 -4v-4l4 -4l-4 -4h-4l-8 8v-8q8 -18 16 -20q5 20 12 20l24 -24l8 24l36 -12l16 4q52 0 52 -16l40 4q40 -31 40 -56l4 -4l4 4h12v-4l-8 -16l-4 4h-8l-12 -32q-9 -12 -80 -36h-4q-15 12 -28 12q0 -12 -16 -12
l-4 4h-4l-44 -20l-12 12l-52 -12l-28 20q-52 -5 -52 -16l8 -16h-20v8l4 4v4l-4 4l-24 -4l-24 4l-12 -8l-12 4l-36 -8l-4 4l-4 -4l-8 8q-43 -28 -68 -28h-8q0 20 -20 20v4l-4 -4h-4l-12 8l-4 -12h-12v12l8 12l-4 4l-4 -4h-8q-5 32 -32 32v16l8 8l4 -4q4 40 16 56l-4 16l20 20
l4 -4h4l44 16q0 12 8 12h8q0 -21 44 -24v4l16 -8l16 4l4 -4h4q13 2 36 28h4l20 -24l16 -4v8l4 -4h8v24h8l4 -4h4l8 56q-12 4 -12 24v4l8 12q-8 0 -8 12l8 16l-8 8l8 44l-20 44l20 44l-16 52q2 48 8 48l-4 4v12q12 0 12 8v24q16 0 16 28l-4 4v4q3 32 8 32l-20 60l8 24
q-20 6 -20 28l4 4v4l-12 20q13 20 24 64l-4 4v4q6 24 20 24v12l-24 8v16q12 0 20 12q-33 75 -52 88l28 12q0 28 -8 28l20 44v16q-12 15 -20 52l-28 20l-40 -16q-21 0 -36 12l-12 -12h-4l-4 4h-4l-8 -12q-12 0 -12 12q-49 -3 -60 -12l-28 8l-24 -8q-76 28 -76 60q16 24 20 72
q8 36 32 36q21 0 40 12l20 -12h48l24 4l56 -8q0 16 44 32l20 -8v20h8q20 0 40 12l8 -8h8v8h20l4 4h4zM596 1142h-12v-8l-20 4q0 -17 -44 -20q0 8 -16 8q0 12 -8 12q-21 0 -28 -24l4 -16q-10 -11 -16 -52l16 -20v-8l-8 -8l8 -16l-4 -16l8 -16l-4 -16l4 -4q-16 -31 -16 -60v-8
q16 0 16 -20v-8l-4 -4l4 -4v-12q0 -15 -32 -72l4 -16l-4 -24l4 -28l-4 -24h4q-12 -20 -12 -40v-12h8l4 4l40 -12h16q8 0 8 12l4 4h4q14 -16 36 -16l44 -20q0 9 56 16l8 -8l48 28h4q8 0 8 -12h20q0 8 20 8l8 8l36 -12h4l12 8h4v-8q13 0 28 12h4l12 -8h4q0 12 12 12l12 -4
q10 36 56 36q60 0 60 40q16 6 16 44q36 12 36 44l16 80l-20 24v8l20 4l-12 44l8 8q-22 44 -52 52q0 14 -48 44l-16 -4q-12 17 -12 40q-16 0 -16 20h-12l-28 -4l-8 16h-12l-12 -8l-24 20q-16 0 -16 16h-4l-4 -4h-4l-12 4v-4l-8 -8h-8l-28 16h-4l-32 -12l-16 4l-16 -4
q-4 12 -24 12h-36zM92 86v-16h8v16h-8z" />
    <glyph glyph-name="Q" unicode="Q" horiz-adv-x="1228" 
d="M442 354l8 -9h9l38 4l4 -4h5l42 9l85 -38q0 -17 17 -17l38 -51v-5q0 -67 -17 -67q-39 0 -76 34q-30 38 -51 38v4l4 4v4l-13 9h-4l-13 -17l-97 34q0 10 -13 21q-17 13 -17 25q0 16 51 22zM349 328l46 -34v-25q-17 0 -17 -21h-25l-17 -13h-8l-17 47q15 0 38 46zM534 1254
q-19 8 -55 8h-17q-19 0 -47 -21l-12 4q0 -11 -34 -17l-4 4h-5q-5 -22 -72 -55q0 -10 -46 -17l-9 13l-17 -9l-4 5v-5q0 -8 17 -8v-8h13l4 4h4l4 -4v-5q-18 -32 -42 -51q0 -17 -25 -21q-22 -51 -22 -80q-21 0 -21 -34l-21 -47l8 -34v-8q0 -14 -12 -30v-25l-9 -34l4 -22
q-29 -63 -29 -93q17 -46 21 -102l-4 -4v-4l25 -85q0 -42 9 -42q-2 -17 -13 -17v-4q26 -24 59 -132q10 0 34 -68l4 -4h9l42 4q55 -68 55 -97q12 -14 73 -26l33 -25l77 25q25 -4 25 -21h17q60 55 68 55q76 14 76 34q0 9 55 43l5 38v8q18 0 46 68q19 0 34 85l4 -4h17l5 4h4
l-4 4v9q0 22 29 46v38l5 5l-5 4v4q16 127 30 127q-12 65 -30 111l-25 131q0 69 -43 123h-4v21q-12 76 -38 102q-36 46 -64 46l-8 -8h-4v34q-2 8 -21 17l-22 -4q0 8 -17 8l-29 26q-38 9 -38 33h-5zM778 94q6 -23 25 -54v-34q0 -15 47 -21q10 -10 21 -60l13 -4l4 4h4
q16 0 22 -63l-5 -38h13l38 21l34 -21l38 8h5l4 -4h4q0 8 17 8v22q17 14 21 51l4 4v4l-4 4q0 21 68 30q23 0 34 -26v-25q-34 -37 -34 -51l-17 -17l-4 4l-4 -4v-4l4 -4h4l4 4l9 -17l-13 -17l-13 4q-22 -62 -46 -93l-110 21q-6 18 -22 26l-38 -5q0 13 -25 13q0 9 -34 9
q-27 44 -64 72v8l4 17l-33 38q0 30 -22 30l5 21v4l-9 13l4 21l-17 26h-21l-6 -1q-14 -13 -30 -24l-8 -8h-5q-8 0 -8 13h-4l-34 -26l-4 4h-13q0 -17 -76 -17q0 -11 -47 -17q0 14 -81 22l-34 -17l-55 46v5l-4 -5h-4l-17 5v-9h-4q-9 0 -9 13q-20 5 -30 25q-38 12 -38 38v9h-4
q-8 0 -8 -13h-5l-8 9v25l4 21l-8 9l-5 21q-12 0 -12 21l-47 68v47q-21 55 -30 55q-21 0 -21 42l-21 43v4l4 42q-17 0 -17 17l4 30l-8 25v38q13 16 13 30l-9 9l4 21v4l-4 4l17 77l-13 72v4l17 30l-8 17q0 12 38 76q0 23 26 68l-5 34q17 0 17 38l30 34v21q9 0 47 59
q52 18 55 30q0 13 34 13q0 50 38 50q0 22 76 43q8 -17 30 -17q50 9 68 34h4l59 -26l17 5q26 -8 26 -26q38 34 55 34h4q30 0 72 -42l64 -47q0 -19 59 -38l4 -21l-4 -5v-29q13 -11 13 -26q25 0 25 -38l21 -38h-4l30 -64q10 -80 17 -80q33 -26 38 -47l-9 -51l13 -34v-12
l-21 -34l4 -13l-4 -25v-13l25 -64l-34 -89q0 -42 -25 -101q-38 -136 -38 -162q-89 -93 -89 -114l-13 -4l4 -4v-22q0 -2 -6 -6z" />
    <glyph glyph-name="R" unicode="R" horiz-adv-x="1349" 
d="M103 1281l20 -12l17 4l16 -17h21l16 17l58 -17l8 21l45 -21h29q15 13 29 13h8q66 -27 66 -37q0 -14 -21 -46l-41 -4l-4 4v-8q-12 0 -12 -8v-29l12 -70h-4l4 -4v-4q0 -28 -25 -49l4 -29v-8l-8 -25l17 -78l-9 -29l4 -20l-12 -13l4 -4v-8l-12 -25q11 0 16 -28h4l-4 -41v-33
q8 -50 29 -50q15 0 54 -20q0 7 49 37l33 -13l-4 -4v-12q20 0 20 -29l-24 -20l-42 -4q-28 5 -28 12q-17 -5 -25 -21l-21 4h-4q-13 0 -16 -28h-4l-4 4h-4v-4l8 -9l-8 -12l4 -4v-4l-17 -21l8 -24l-8 -29h4q9 0 9 -17l-9 -41q6 -28 13 -28l-13 -21v-8l4 -4v-4l-4 -5l-4 -12h-4
l8 -12l-8 -62q11 -22 25 -25l4 -49q-25 -5 -25 -12v-17q0 -8 17 -8v-4q0 -27 12 -53h8v16h4l9 -8v-4l-5 -4v-4l21 -9l8 9l4 -5l29 5h8l37 -13l33 8q50 -13 50 -49v-4l-17 -21h-12l-13 5l-12 -5l-25 5l-53 -21l-8 8q-20 0 -37 -29h-4q0 37 -78 37l-21 -12h-4l-12 8h-9l-24 -4
l-21 4l-37 -12l-12 4l-29 -12q-4 16 -25 16q0 -8 -37 -33l-37 -49q-16 0 -16 -37h-8v37l16 21l-4 4v4l4 4v4h-8v-8q-14 0 -21 45v8q-16 0 -16 8q0 56 41 79q0 23 91 53q12 21 28 21l25 -17h12q9 0 25 33h4l-4 49q11 0 16 29q17 0 17 29l-8 29l4 41l-4 12l12 25q-6 37 -12 37
q8 140 28 164v4l-20 58l8 49l-8 12q6 84 16 87l-4 12l4 21l-8 37l12 37l-4 28l9 13l-5 20v21l13 33l-8 20q0 21 8 21q-4 20 -21 29l-4 4v4l8 8v16q-8 10 -8 29q-9 0 -16 54l-83 20l-12 13q-8 0 -8 -13l-4 -4h-37q0 -11 -21 -20h-16q0 15 -25 24l-29 25v45l29 25l29 -8
q12 0 12 12l4 4h17zM563 1269l25 -4l33 4l12 -9l21 5l16 -5l16 9l33 -17l13 4l41 -12l8 8h8l17 -12l4 4h8l49 -45l29 4q15 -24 70 -45l62 -70q0 -47 32 -70v-4l-16 -4l-12 4v-4q0 -13 -21 -13v-4l-4 4h-4l-17 -4q-14 33 -36 33q0 37 -9 37l-8 -8h-8q-8 0 -17 57l-12 -8h-8
v21q-21 35 -66 45q0 10 -57 21q-29 0 -99 -21l-45 12l-9 -8l-32 29l-9 -8l-12 12q-23 0 -74 -25l-16 9l-9 -9h-4l-8 9v20l4 4v4l-4 -4h-8v8q9 0 16 25l17 12h4l37 -8l8 8h4q16 -12 29 -12zM1023 981h13l20 -12v4l13 -13h4l-4 -4q0 -25 20 -49v-8q-20 -12 -20 -58
q-29 0 -33 -74q0 -26 -50 -86q0 -21 -20 -21l-8 9h-4q-14 -10 -25 -42l-12 -4l4 -12h-4q-25 0 -46 -29q2 -31 50 -70l24 -53l46 -41v-17q-13 0 -13 -20q13 -54 33 -78l-4 -25q29 -26 33 -58q-14 -4 -21 -28l13 -115l-4 -4v-5l4 -12h4l33 4l86 -20q9 0 12 -29
q-12 -58 -24 -58l-29 -8q0 12 -29 17q-5 -42 -37 -42q-8 -28 -16 -28q-14 41 -29 41h-4v-17h-4q-5 46 -17 46l-12 -5q-5 21 -12 21l-33 -4v4q-2 25 -25 25v4q1 20 8 20l-4 4v5l4 41l-8 86l8 8v12l-8 13v4q12 15 12 29q-20 18 -24 33l8 32v9q0 20 -12 20v13l4 16q-8 10 -8 53
q-25 0 -25 66q-5 21 -12 21l-5 -4v-4l-20 12h-4v-8q-16 4 -25 33q-12 0 -12 12l-17 8l-4 -4h-4l-12 4l-4 -4v4l-21 -8l-4 4h-4l-12 -4q-10 29 -17 29h-4l-16 -9l-29 13l-4 -13h-9q-10 13 -37 13l-4 4v16q7 29 50 29h12l4 -4l12 12l21 -12l70 21l12 -9h17l20 17h4l4 -13l29 5
h8l9 24l-13 4l-20 -8v8q0 7 41 21l4 -4h8q29 0 29 20h4l21 -4v4l-4 25q19 37 28 37q28 0 37 16v13q-12 15 -12 37v8q12 0 20 16l-4 21l21 12q-6 25 -12 25q7 20 20 20l-4 25z" />
    <glyph glyph-name="S" unicode="S" horiz-adv-x="1231" 
d="M508 1302q21 -20 73 -20l12 -4l4 4h5q10 -21 24 -21l-4 -4v-4l24 -4l4 12h4v-8h4l13 4v-4q0 -8 32 -8q0 -7 37 -20l4 -4h4l40 4q0 -10 33 -16l8 8h8q0 -17 21 -17l4 -12h4v4l-4 4v4l40 61q16 0 16 8q8 20 37 25q36 0 49 -77q-29 -61 -29 -86l21 -28l-25 -65l-8 -37l8 -32
l-4 -25l25 -61v-4l-9 -16l5 -16l-25 -41q-69 15 -69 37l-24 36l4 57q-21 107 -33 122q-13 32 -73 53q0 9 -36 12h-29l-16 12q0 -8 -25 -12q-15 0 -36 41l-4 4h-4l-12 -12l-21 4v-4l-40 12l-37 -8l-24 16h-4q-26 -28 -37 -28q-6 32 -16 32l-49 -20l-33 4l-56 -29l-17 -4
l-24 4q-49 -31 -49 -73h-8v-16l4 -24q0 -21 -53 -65v-4q7 0 25 -41q16 -4 69 -130h4l4 4l20 -8l33 4q27 0 57 -33q49 0 73 -28l24 -12h8l57 20q26 -49 77 -49q0 -7 29 -12l16 4q46 -4 57 -16h12l4 4l4 -4h21q8 0 8 16l12 4l24 -28l37 8q56 -49 85 -49l4 4q8 -22 29 -32l4 4
h4q14 0 45 -21q20 0 20 -44l-8 -37q16 -17 32 -93q7 0 25 -29v-20q-13 -14 -13 -33h-4l13 -36q-34 -58 -41 -114q-48 -44 -77 -102q-45 -18 -45 -48q-20 0 -20 -37h-4l4 -4v-4l-8 -8q0 6 -17 12v8h-4l-4 -4q-8 -1 -12 -24l-53 -8l-16 8l-16 -8l-4 4h-37q0 -21 -8 -21h-4
l-16 13h-4l-29 -21q-8 8 -32 8q0 13 -25 25l-16 -4l-24 4l-13 -12l-16 28q-25 0 -49 -49l-12 -12q-8 28 -16 28l-12 -4q-17 4 -17 29l-32 16l-20 -16l-29 16l-4 -12h-4l-8 16v4l-12 -8q-17 3 -21 20l-20 -8q0 7 -24 17l-4 -5h-4l-29 17l-28 -8q-18 0 -21 40l-4 4h-4
q-8 -21 -20 -24v8h-12l-8 -16v-12l20 -29v-12q-33 0 -49 -37q-16 9 -45 9q0 18 -16 36l4 53h-4q-12 3 -12 32v13l8 8l-4 16q0 20 8 20l-4 4v4l16 53l-4 4v4l4 13q-7 0 -16 24l20 61v16l-20 45l4 4v4l-4 16l4 4l-12 61q0 36 57 65q16 -4 16 -20l-4 -4v-4l29 -53l-5 -12
q7 -77 25 -77v-8h4l-4 -5v-12l24 -24l-4 -20q0 -24 33 -53q0 -20 32 -29q0 -7 37 -16l57 -41q0 -12 12 -12v-4l4 4h8q18 -18 69 -40l37 8l24 -13l16 17h4l37 -90l12 -8h4l12 8h4l13 -8q8 0 8 25q14 0 20 52h4l8 -8l17 8l16 -4l12 8l33 -8h16q0 11 65 49q36 0 36 33
q7 14 53 24q73 66 73 93l33 53v8q0 34 -20 61q0 13 -17 13l-4 4v4l8 12l-16 53q-10 0 -12 20q-22 0 -41 24l-20 13h-8l-12 -8l-21 16q-12 0 -12 12q-29 11 -73 53q-27 0 -37 16l-4 4l-12 -12l-4 4h-4l-20 -4l-8 12l-37 -8l-33 8h-16l-4 -4h-4q0 10 -20 12l-4 4l-45 -36
q0 -17 -8 -17l-16 5l-17 -9l-16 4v9l8 8l-4 4v4l4 4v4q0 28 -57 41q-12 0 -12 20q-20 0 -20 -20l-16 -13h-9q0 13 -20 13q0 35 -53 56q0 9 -48 29l-61 73l-17 -4q-16 34 -16 65l4 16l-20 53q0 18 24 57q9 65 33 65v8q8 140 65 163q0 -8 12 -8q48 36 85 36h61l25 33
q0 12 8 12q0 -15 44 -33l5 -4h8q0 29 69 29zM971 1103v-20h4l4 16l-4 4h-4zM959 1083v-9h8z" />
    <glyph glyph-name="T" unicode="T" horiz-adv-x="1249" 
d="M834 1280q66 0 96 -12v4q80 -21 80 -48l16 -32q-12 -21 -12 -48l8 -32l-4 -4v-4l8 -132l-4 -24q13 0 24 -60l4 -4q-12 -51 -24 -64v-8l12 -80q0 -48 -56 -48l-24 -16h-12q-8 0 -12 40q-7 0 -8 56l12 52v40q1 20 8 20q-4 69 -12 80l4 24q-8 0 -8 20h-4l8 24l-12 36l4 24v4
l-8 8h-4l-16 -20q-29 0 -32 -20h-12v8q24 14 24 44q-36 0 -36 32l-12 8h-36l-32 -8l-36 4l-12 -4l-76 20l-40 -4l-16 8q-40 -5 -40 -40l4 -16l-12 -44q19 -23 20 -64l4 -4l-16 -52q17 0 20 -60l-8 -44q12 -4 12 -24v-8l-4 -4q8 -22 8 -56l-4 -32q36 -14 36 -68l-4 4h-4
q0 -8 -12 -8v-28q-35 -31 -44 -52l32 -32l-4 -4v-8l8 -32l-8 -28v-4l8 -28l-4 -32l16 -60l-4 -24l4 -48q-9 0 -12 -48l4 -32l-4 -12l8 -24l-4 -4q20 -22 20 -36h44l4 4l32 -12l4 4q0 -11 56 -16q0 -8 12 -8l88 -4l28 8l24 -12q4 16 16 16l20 -16l-4 -16l-16 4l-24 -4v-16h8
v-16l-24 -24v-4l4 -4v-4l-24 -20q-36 5 -36 12q-50 -24 -60 -36l-4 4h-4q-21 -7 -36 -32q-11 0 -24 -12q-8 7 -8 40l-80 20l-8 -8l-8 8q-8 -18 -16 -20h-8l-16 12h-28v8h-4q-14 0 -24 -40h-8q-19 7 -44 32l-20 -4h-4q-15 12 -28 12v-8l-12 -8l-4 4h-16l-48 -16
q0 -15 -32 -36h-12q-32 4 -32 28l-20 4l-8 -8q-91 76 -112 76l-4 -4l-4 4v20q37 0 56 40l32 16q33 -6 44 -16l44 16l4 -4h4l36 12l60 -24h4l4 24h8l24 -16h28l24 8l4 -4v20q-16 0 -16 8l4 4h4l4 -4l4 32l-4 52q10 29 24 44v4l-8 32v36l-4 4l12 28q-12 15 -12 56l4 32l-4 4v4
l20 40l-16 56l8 8v12q-8 0 -8 12q-16 0 -16 8v28q0 6 36 28v4q0 16 -24 16l-12 24q6 52 20 52l28 -4v4l-16 112q16 5 16 36v8l-8 24l8 64q-12 4 -12 24v8q0 63 20 88q-11 60 -24 60q0 17 -44 32q-6 -16 -12 -16l-36 4v8h-4l-4 -4h-4v12q-20 -9 -20 -28q-24 -4 -40 -20
q-4 17 -40 28q0 -9 -28 -12l-12 12h-4l-16 -12l-32 20h-4l-16 -4l-28 8v-20q-36 -48 -36 -84v-16l8 -12l-12 -40v-8q20 -23 20 -40v-12q0 -19 -12 -40q12 -4 12 -24v-8l-4 -4l4 -4v-12l-24 -36v-4l8 -32q0 -84 -32 -84l-8 -8l-56 12l-8 12v4l8 44q-12 0 -12 28v4
q15 15 32 68q-6 80 -16 92q8 16 8 44l-8 64v32l16 56l-4 4v4l8 52l-8 32h4l24 -4q9 24 16 24l16 -4l12 4l20 -4l24 8l64 -16h16q0 16 48 16l4 4l32 -16l32 8l12 -4l32 8q28 0 28 -8l4 4h12l16 -12h12l12 8h20l4 -4q20 12 52 12l40 -4l40 12l16 -24q42 12 52 32v4h16l16 -12
l16 4l12 -4q36 5 36 12l28 -4h12zM514 732l-4 -4v-16l8 -8q26 10 28 20l-24 8l-4 -4z" />
    <glyph glyph-name="U" unicode="U" horiz-adv-x="1477" 
d="M154 1272q23 -20 52 -20l20 16q6 0 12 -16q20 -1 20 -8l4 4h12l64 -20h8q48 0 48 8l4 -4l32 8l4 -4h4l36 12q108 -17 108 -36l4 -24l-16 -12h-12v8h-8q0 -12 -20 -16l-4 4h-4l-28 -4l-24 8l-16 -4l-12 4q-15 -24 -36 -24l-12 4q-10 -1 -32 -36v-24l-4 -24l28 -48v-20
l-28 -72l-4 -24l8 -100l20 -16q-14 -32 -20 -32l12 -48l-8 -40l4 -12l-28 -60l8 -32l-4 -16l4 -56v-32q-8 -6 -8 -44h-4l20 -48v-20q-12 -12 -20 -44q15 -82 112 -180q20 -7 44 -28l52 -12l12 -32l80 -12l36 24q21 -4 44 -20h40q28 0 92 56l4 -4h4q11 36 56 52l16 36l-4 4
q0 47 24 88q0 47 -24 60v36l-4 16q8 13 16 120l-4 32l16 44q-24 16 -24 32v12l16 16h12v-12l24 -64v-20l-12 -40l12 -52q20 0 20 -24l-8 -8v-16h8v-12q0 -32 24 -52h4v4l-4 4v4l8 8l-8 36l-4 -4h-4v8q8 8 8 32h4q-8 16 -8 44l4 12l-8 20l8 20l-4 20l4 64v12l-4 36
q2 16 12 16v28q-8 27 -12 152l-4 4l-4 -4h-8l-8 8v4l24 48h-4l4 4v4l-4 28h4l-4 4v4q12 27 12 60q-8 9 -12 72l20 36v4l-28 20l-4 -4h-4q-44 6 -56 16h-4q-32 0 -32 -24h-4q-7 0 -12 24l-20 4h-4l-24 -4l-4 4h-4l-16 -4l-24 12l-12 -4v8q0 30 12 32l8 -8l24 20q17 16 40 16
h20q12 -12 64 -32l12 4l16 -4l4 4h4l16 -4q45 0 88 32l48 -8l8 8h44q12 -16 72 -16l20 12q13 -4 16 -16q-4 -16 -20 -16l4 -28l-44 -40l-36 8q0 -9 -20 -12l-40 4q0 -7 -24 -12q0 -19 -16 -28q-2 -36 -16 -36l-8 -24l20 -24v-16q0 -14 -16 -40l4 -4v-4l-16 -72l28 -108
q0 -18 24 -60v-4q-20 -23 -20 -44l4 -100q0 -32 -12 -48v-8l4 -4q-36 -89 -36 -148h-4l4 -4v-4l-4 -4v-4q12 -14 16 -88q-26 0 -32 -96q-14 -22 -24 -76q-10 0 -40 -48q-17 -12 -32 -12l-28 12l-40 -12v-8l4 -4q-8 -18 -16 -20h-16v8h-8l-12 -8h-4l-12 8q0 -18 -36 -36
l-12 -16h-8v8h-12l-28 -16l-4 4h-4q-20 0 -40 -24h-8l-16 20l-40 -8q0 8 -12 8l-36 -4l-24 12v-4q-11 8 -52 12v-4q-23 5 -40 20h-20l-32 -32q-20 0 -56 32l4 24q0 21 -28 36q0 29 -32 32q0 14 -28 36v40l-20 48l4 4v4q-27 45 -36 92l16 28l-12 4v40l-8 24l4 44h8v4
q-16 50 -16 88l12 32v20l-8 36l4 20l-4 56l4 64q-4 20 -16 20v8q0 8 16 8l4 4v44q0 20 -8 20q5 40 20 64v12l-16 52v28l24 36l-8 28l8 24v32l8 12l-4 12h-4q-34 0 -48 12h-12l-24 -16h-4l-4 4q-28 -16 -52 -16l-8 8h-4l-20 -4q0 8 -12 8l-12 -4v4l-4 -4h-4q-24 4 -24 12
q21 64 60 64q15 0 68 48zM342 -16v-4l8 -8v4z" />
    <glyph glyph-name="V" unicode="V" horiz-adv-x="1505" 
d="M1252 1340q52 -27 52 -56l-12 -28q20 -8 20 -24q0 -27 -52 -40h-12l-20 4l-24 -20v-4h-8l-8 8q-64 0 -64 -24l-4 -40h4q0 -16 -20 -16v-44h-8q0 16 -8 16l-20 -16h-4l4 -20h-8l-20 24q16 21 16 40l16 52v24l-12 12q-44 0 -52 -60l-4 -12l4 -40q-7 -84 -24 -84
q-14 -7 -36 -68q-12 0 -16 -56q-7 0 -12 -20l4 -12l-4 -16l4 -24l-20 -16l4 -36q-10 0 -12 -52l-32 -56q-9 0 -16 -48l24 -60v-8q0 -8 -20 -8l-4 -4v-16q14 0 32 -36h8q0 16 8 16l8 -8v-8q0 -21 -12 -24h-20q0 -9 -16 -16l8 -44l-4 -12l16 -16q-4 -16 -16 -16v-12l4 -28
l-12 -12h-4v-20q0 -56 -16 -56l4 -4v-20q0 -20 -28 -68l4 -48q0 -45 -56 -68l-16 4q-51 -15 -80 -48v-8h-20q-18 30 -56 68q-7 0 -8 20h4l-28 68v12l4 4l-24 32v8h12v16q-8 0 -24 28v8l4 16l-28 52l8 20q-7 70 -40 112l-12 28v28l8 12v4q0 33 -40 76q-12 28 -20 92
q-10 9 -36 84q0 13 12 28l-12 20l4 16l-12 20v8q0 10 36 20l16 24v4q-39 8 -76 36l4 48v4l-32 48l8 52q-4 24 -12 24h-8l-20 -4q-20 25 -20 60l8 8l-8 8h8v8l-40 8l-4 -4l-20 4h-16v8h-4l-40 -12l-4 4l-20 -4q-13 0 -28 12l-24 -20l-12 4v8l4 20q-30 16 -72 20v20
q31 26 36 64l32 20h4q13 -11 44 -16l24 4l44 -16q2 16 32 16q0 -8 16 -8q0 -6 32 -16v-4l108 20q0 -12 44 -16q0 10 16 12l44 -16h8l20 16l32 -44l4 4v4l-4 24l16 12h8q0 -8 24 -28v-4q0 -24 -24 -32l-20 12q0 -24 -24 -24q0 -19 -40 -32v4l-4 -4h-4l-24 4q-44 -21 -44 -60
l4 -20l-8 -24l60 -108v-24q-24 -38 -24 -84q12 -4 44 -52h4v-24q23 0 32 -88v-24l40 -76l-16 -40l44 -72l24 -12l16 4h4q9 -36 24 -56v-24l-8 -12q36 -31 36 -112l16 -4l8 8h8q0 -20 8 -20h16q17 16 32 16h4l16 -12h8v12q0 11 -20 12v8q11 13 20 48l-16 52q-9 0 -12 28
q8 24 20 24v32l8 12v16q-16 15 -20 56q2 14 36 64v12q-20 28 -20 52q7 68 40 68q24 0 24 12v44q0 16 24 72q0 43 28 76q0 17 -12 32l20 52l-4 4l24 8v12l4 16l-4 16q1 16 8 16q0 76 -44 76l-28 4l-16 -4l-4 4v4q-38 -8 -40 -16l-20 8l-8 -8q-40 0 -40 48v8q0 48 28 48
q0 8 20 8l36 -4q0 13 40 16q0 -16 88 -36l24 16l52 20v-4q8 7 100 12q0 10 36 16l44 -16zM1016 932h4q12 0 12 -16h4l-12 -48v-28q-23 0 -44 -132q-12 0 -12 -8l4 -52q-18 -32 -52 -44l16 -48v-16l-20 -32h-8l-8 16l4 4v4l-8 56l20 16l-4 12l12 24l-4 16q8 9 8 44
q24 0 24 92q6 0 12 36q5 0 16 48q12 0 12 12l-4 16zM824 436v-8l4 -12h4l4 12zM832 396v-8h12v8h-12zM800 336l8 -12q16 4 16 24q-14 0 -24 -12zM768 252v-16h12v16h-12zM752 220h16v8h-8zM764 212v-8h4v8h-4zM748 200l-4 -24l12 -12l12 4q-7 32 -16 32h-4z" />
    <glyph glyph-name="W" unicode="W" horiz-adv-x="1581" 
d="M1242 1367h12q0 -20 27 -28q0 -22 79 -27l16 -59l-4 -24q18 0 27 -24l-31 -11q0 -44 -51 -44l-4 -16h-4q-28 0 -44 8l-4 -4l-47 8l-8 -12v-4l8 -23q-3 -44 -12 -44l-27 4l-4 -4v-4l8 -23l-4 -4v-4l8 -40q-13 0 -24 -59q5 -19 12 -19l-12 -20l4 -4v-4l-16 -55v-24
q-20 -31 -20 -67q-15 0 -15 -55l-12 -36l16 -55l-4 -4v-4l4 -4v-3q0 -16 -36 -48v-63q-10 0 -12 -16l4 -35q0 -24 -20 -44v-27l8 -16l-4 -27l4 -4v-4l-35 -63q15 -60 20 -60v-4l-4 -15l4 -4q-36 -36 -36 -63v-16q0 -15 16 -36l-4 -4v-3l20 -28q-25 -40 -40 -40l-27 -3l-12 3
q0 -8 -28 -19q-6 -16 -27 -16q-9 23 -48 63l-19 36l-4 23l7 87l-19 75l-8 8h-4l8 19l-12 40l8 8v8q-12 0 -12 8v4l12 27l-8 47v4q12 0 12 8v8l-32 47l12 32h-4l4 4v8l-24 31v12l4 4q0 12 -11 12l-4 4v12l7 8l-7 27l4 16q-20 20 -20 67l8 12l-24 27v8l12 16v4l-4 4l8 24
q-15 0 -28 71h-4l-19 -4l-24 4h-4q-15 0 -24 -48l-4 -4q-16 -36 -47 -71v-4l4 -4v-3l-4 -4l4 -20l-4 -28h4l-4 -12l4 -11q-9 -52 -20 -52l16 -59q-28 -21 -28 -67h4q-15 -34 -15 -51v-8l4 -4l-44 -87h-4l-4 4h-4l4 -4v-11q-4 -12 -23 -12q-8 2 -16 19q5 0 16 36l-4 43v8
q7 39 19 51v8l-7 32v39l23 36l-4 31l12 20l-16 39q28 62 28 91l-8 8v24l8 43v43l8 8l-4 4v12l4 16l-4 16v4q12 0 12 11l-4 52q17 26 19 86q5 0 12 56l4 4q-4 16 -23 35l-4 20h4l-4 4v8q0 102 39 102l24 16l19 -4l32 16h4l12 -32h-4q13 -37 67 -83l8 -35v-8q0 -20 -8 -20
l8 -51l-4 -12l12 -16l-12 -31q22 -65 31 -71l-4 -4v-20l4 -23l-4 -4q0 -34 20 -63l-8 -36q30 -75 51 -99l-3 -19q15 -13 23 -59l8 -8l-4 -40v-23q11 0 16 -20l-4 -12l20 -16l-4 -27l4 -20h-4q15 -42 15 -67v-12h-7l11 -20l-4 -19v-12l16 -4l8 20l-4 19q20 63 63 83l12 51
q-7 23 -24 40l8 12l-19 31q21 26 35 63l16 36l4 4v8l-4 19q10 0 16 79q-3 28 -8 28l12 35q-32 53 -32 79l12 36l-8 43q24 0 24 36q0 27 11 39l-3 12h3l-3 4v27l3 20q-38 24 -106 39q0 24 -12 24l-4 -4q-23 23 -23 36h-4l4 4v11l-4 16q0 32 27 32h4l44 -8h23l4 -4l24 8l23 -8
h8q28 0 28 8l4 -4h8q0 10 39 31l40 16l31 -23q8 19 24 19l12 12v4zM146 1324l43 -4l4 4h4q15 -8 130 -24q43 -16 43 -75l4 -12q-46 -15 -83 -63l4 -20l-7 -31h-4l-4 4h-4l-4 -4v-16l4 -4l-4 -4v-4l27 -47h8l-4 -4l16 -28l-31 -35l-8 -20q11 0 11 -23q16 -6 16 -12l-12 -32
l20 -39l-4 -12l8 -8l-4 -4v-4q10 -27 16 -27l-8 -87q9 0 12 -47l4 -4h4l-8 -63l8 -24l-4 -4v-16l20 -55l-4 -4l4 -28v-15l-4 -16l4 -16h-4l7 -24l-3 -35v-28q19 -21 19 -55l40 -27h11q16 0 48 35l4 -4h8l4 4h4l27 -35v-16l-4 -24l4 -16l-8 -31v-51l12 -56v-4
q-38 -29 -39 -47l-52 -8h-15q-10 0 -12 16h-4l-44 -16l-19 4l4 4v4q-36 0 -36 87l-16 19l8 12l-19 126l4 16q-24 41 -24 75l8 12l-32 47v16l12 16v27l-20 44l-4 23q16 24 16 36v4q-27 24 -27 51l4 16q-15 81 -44 102v4l28 60l-20 23v4q0 13 16 28q-1 28 -24 43q-12 7 -12 28
h-4l16 75l-16 39l4 4v4l-27 35v4l12 36q0 27 -67 39l-60 4v-4q-23 0 -23 87q-10 12 -20 12v4q16 0 16 23q8 0 27 24q28 20 44 20q9 -24 31 -28l32 40h16zM910 326v-12h8l-4 12h-4zM922 326v-8h4v8h-4z" />
    <glyph glyph-name="X" unicode="X" horiz-adv-x="1629" 
d="M825 594l3 -7l-12 -10v-11q11 -1 11 -15q7 -1 18 -31l15 -4h4v7h8l-1 -26l32 -41v-4l-13 -48l11 -11h-7l17 -37l47 -87v-1q0 -11 14 -21q0 -12 7 -12v-18l10 -15v-4h-7v-4l13 -41l15 -15q15 0 33 -45q18 -23 44 -24l35 -1v-3q0 -19 14 -20l30 -12q31 1 31 10q15 -8 42 -9
q49 1 50 21l23 3l7 -1l19 -11q0 7 19 7l4 3l26 -1l28 -14l27 -27q-14 -13 -32 -31q-25 -1 -25 -16q-3 -15 -12 -15l-27 1l-31 -6l-3 4h-4l-46 -10q-42 2 -68 21q-80 -1 -81 -27l-11 1l-11 7l-27 1l-12 -7h-4l-30 9l-34 1q-7 0 -12 -25h-4q-50 38 -86 40q0 7 -11 7v8l9 29
l-4 4v3l4 11h-4q-41 7 -41 13l-23 -7q-7 1 -7 10v2q27 58 36 58l4 -1l19 -4v4l4 -4h5q26 0 30 32l8 11l4 -4h7v3q-49 82 -49 97v1l-4 19q-10 0 -10 16v3q-41 15 -41 23l-36 75v2q0 22 -21 39v2q0 17 -22 18v7l-15 14l-23 -9v-4q0 -12 -20 -32l-45 -76l-43 -28l4 -12
q-11 0 -42 -87q-46 -31 -48 -65q0 -18 -44 -65q0 -11 19 -11q0 -9 26 -16v-7h6q17 0 32 9h4l38 -12l3 4l4 -1l19 -4l23 7q26 -10 26 -16l-8 -11v-3l10 -38q0 -11 -35 -17l-26 8q-50 -4 -50 -13l-15 8q-12 0 -89 -30l-48 16l-96 -4v4q0 20 -10 22l-8 -7q-4 11 -23 12h-3
q-19 -17 -43 -21l-15 5l-54 -17q0 -7 -19 -7q-52 11 -52 38v1l-4 -4l-4 1l-7 7v4l-19 -3h-12l-15 4l-15 -3l-11 15v4q12 0 62 24h1q20 0 65 46l38 -9l27 3l-3 18l11 7q15 -30 53 -31q3 -11 22 -12h9q20 0 34 28q51 11 66 35h1q10 0 11 29q22 14 33 58q11 0 12 22l8 7l-10 41
l52 57l-7 23q27 28 28 39l-4 4v4q1 26 72 93q20 66 29 66h4v7l14 11v8l4 3l-4 4v8h2q7 0 11 6h-9l-5 27q-17 30 -17 63q-7 2 -13 53l-4 3q-16 18 -28 64q-26 43 -38 112l1 11l-8 1v1q0 14 -22 18q-5 33 -31 97v2q0 15 -14 24q-14 27 -17 67q-19 25 -55 43l-69 -5l-49 16h-8
l-11 -7l-23 8l-31 -17l-34 9l-16 -18l-11 4l-23 -11l-47 49l-28 -3l-7 23l27 45l79 26q73 -21 106 -22l42 6q71 -12 71 -28l4 3h8l22 -5q20 4 20 11q29 -5 29 -22v-1l15 -8h8v11q-25 13 -25 25v1q0 20 50 28q0 -10 19 -19l19 3q16 -15 67 -21l15 -11h4l15 3q38 -17 38 -24
l-1 -29q-12 0 -12 -11q-16 12 -30 12v-3q-1 -11 -28 -22l-18 12q-58 -29 -63 -49v-10q0 -64 39 -66l7 -7q2 -15 11 -15l-4 -4v-4q18 0 33 -52q6 -1 21 -38l-4 -11q8 -59 78 -169q6 0 6 -17v-5q5 0 7 -23h8v-4l4 4h3q13 -1 23 -30q23 22 23 28l-4 4q30 11 31 17l-2 26
q1 37 33 84q1 20 32 43q45 95 81 142h1q10 0 24 43q16 0 51 54q-26 49 -55 50l-27 4l-8 -7l-3 4l-4 -3h-12q-57 54 -57 103v2l-3 4l4 11h4q12 -1 26 -12q15 3 16 22l15 -1q30 -29 67 -36l42 3l16 -1l23 14l11 -4l8 7h19l42 -9h7q15 13 25 13h2q7 -15 27 -15h3l12 7l23 -1
l15 -12l27 14l64 -6l54 6h7q21 -1 30 -24l-59 -57l-1 -18l4 -4q-10 -39 -35 -39h-5q-36 1 -56 16l-15 5l-16 -4l-3 1l-15 4q-81 -13 -81 -23l-1 -8l-3 4h-4l-8 -14l14 -19v-19l-4 -3v-4h3q-9 -36 -37 -36h-2q-14 8 -14 18v1l-8 1q-43 -25 -44 -58q-1 -31 -45 -76l8 -11
l-1 -8l-14 12q-20 -14 -21 -33l-19 -6l3 -23q-1 -26 -25 -65l3 -19q-1 -25 -36 -58q-17 -40 -36 -43l3 -4v-3l-16 -33l2 -37q-5 0 -7 -9h-3z" />
    <glyph glyph-name="Y" unicode="Y" horiz-adv-x="1577" 
d="M1307 1274q0 -18 109 -50l11 -21q-97 -25 -98 -43h-4l-8 9l-5 -4h-4l-25 6l-24 -6l-13 5l-16 -7l-13 5v-4l-29 10l-34 -19l-25 6h-1q-13 0 -64 -45h-8l1 13h-3q-21 0 -28 -31q-22 -11 -23 -23l4 -4v-5l-6 -16l8 -14l-1 -8l-4 -3l3 -5v-4q-3 -39 -32 -39h-4l-13 1
q-1 -15 -19 -15h-2l-4 -12l3 -5l-1 -16l-18 -24l-1 -4l11 -18q-32 -39 -46 -75l-18 -11l3 -17l-19 -40l4 -5v-4l-36 -38l2 -26l-47 -76l-5 -15l4 -5l-8 1q-2 -24 -33 -56l-19 -32h4l-11 -32l4 -1l-4 -4v-4l3 -71l-4 -3v-4l8 -47h-4q2 -11 19 -26l-10 -25q27 -35 27 -80v-13
q7 0 12 -55q9 0 19 -34l24 -10l13 4l24 -10l13 7l16 -1l17 -5l16 3l9 -1q20 -2 20 -10l29 2l4 -1l25 -5l21 6l28 -14q-7 -104 -47 -104h-2l-42 -10q-64 -5 -92 -22q-26 17 -78 30l-63 -16l-4 4l-4 1l-17 -7q-20 1 -57 20l-4 -4h-4l-20 11l-48 -18l-44 16q-117 -17 -118 -34
l-1 -12l-17 1v2q0 23 -35 25h-2q-17 0 -41 -18l-13 1q-10 18 -59 42v4q18 2 50 59q28 53 70 53h4l9 -1l12 -10q18 1 64 34l42 -4l28 -17l4 3h4q11 -2 23 -35q37 2 38 14l-8 13l18 23l-3 17l15 32l-16 15l5 3l-4 5l1 12q2 31 18 31h1v4q-16 2 -16 73l2 17l9 65l-4 4v4l5 17
l-6 25l10 37q-9 29 -30 39q-11 1 -11 11v2l5 17l-18 42l3 42l25 2v-1q0 -7 12 -8l35 27q26 -2 62 -58l4 -1h1q18 0 33 64q13 3 14 24l-4 17q38 52 39 63h-4q6 18 36 48v4l-3 4l17 16l-4 4v4q1 15 20 36l1 13l-11 17v9h1q16 0 47 42q3 39 25 52q1 16 54 55q23 32 25 64
q1 7 1 14q0 40 -22 42l-98 18v-4q-26 12 -36 36v9l7 20l8 -1l17 -5l4 4l4 -1l28 -6l50 9l13 -5l38 15l35 -24q22 7 23 24q14 -1 27 -1q34 0 65 7l37 -16q17 15 32 15h2q3 -13 24 -15h3q28 0 52 29zM80 1281l33 -3h8l-4 4l1 8h4q17 -13 32 -14l4 3h4q24 -9 24 -15l67 17
q17 -14 62 -21q36 0 46 9l8 -1l12 -9l20 -1l21 2l25 -5l25 -2l55 12l24 -9l16 3l13 -1l3 -21l-5 -4h5l-11 -29l-4 4l-12 1q-1 -10 -22 -10h-8l-45 7l-13 -3l-8 9h-4q-13 -3 -28 -43h-1q-11 0 -13 -28q-18 -13 -19 -32v-4q25 -49 31 -85l4 -1l-4 -3l-2 -29l19 -31
q27 -2 52 -82l4 -5h4l-4 -4l-1 -5q2 -17 35 -43l28 -68l-14 -12l19 -39l-13 -7l-49 8l-1 -8h-13v3q0 13 -7 14q-18 1 -26 48l-3 4l8 46q-12 0 -26 43q-35 15 -44 44l-18 18l4 13q-7 38 -32 68l-34 64v1q0 13 -40 64q-6 55 -67 59l-7 9l-38 3h-1q-16 0 -42 -22l-12 5l-1 -4
l-11 4l-29 -2l-29 6q-31 -20 -32 -39l-4 -3h-9l3 25q-9 27 -40 40q-65 15 -65 21l2 20q28 18 41 18h2l70 -4l51 12zM572 677h4v-8h-12z" />
    <glyph glyph-name="Z" unicode="Z" horiz-adv-x="1141" 
d="M732 1394q16 0 36 -64l20 -28l24 8l16 -12l24 4q27 0 68 -36v-8l-4 -20l4 -24v-12h-8q0 -16 -24 -16l4 -4v-4q-21 0 -28 -36h-32q0 -12 -12 -12q0 -12 -12 -12q0 -20 -8 -20v-12h8l-4 -32l4 -36l-60 -44q-12 -11 -16 -32l8 -8h-4l4 -4v-4q-27 -44 -52 -44l-48 -60
q-8 -8 -8 -36l-56 -80q0 -8 -12 -8q-41 -75 -48 -76l-36 -20h-12v-24l-8 -12l-4 4h-8q0 -45 -24 -84l-4 -16l4 -16q-20 0 -20 -28l-28 -28q-16 7 -16 24h-8q0 -10 -16 -28v-4l4 -16l-4 -4v-4l4 -24q0 -10 -28 -28q-17 -45 -28 -52l-4 4h-4l-4 -4v-4q0 -18 12 -36v-24h8
l-4 -20l-4 4h-4q-13 0 -32 -20l-16 -4h-12l-4 4q-17 0 -40 -44q0 -8 -28 -36h8l-4 -4l8 -16l12 4v-8l48 28l20 -8q18 1 36 16h16l4 -4h4v4l44 -16l12 4l24 -4v-8h-8l8 -8q56 44 56 56h4q24 -20 24 -40h40l36 -4l40 8q28 -9 28 -16l20 4l24 -4q0 8 24 28q8 0 32 -28h4l40 28
h12v-8q8 0 8 -12l4 -4h4l4 4l8 -8h8l12 12l-4 4v8q0 9 28 16q0 24 16 40l4 16v4q-12 8 -12 48q-24 15 -24 40l-4 4q10 28 24 28l16 16l-12 60q14 0 20 40l4 4h12q8 -20 36 -20h20l20 -96l-16 -80l16 -40v-12q0 -20 -12 -20v-4q8 0 8 -20h4l-24 -52h-4l4 -12l-24 -80l16 -40
l-8 -20h-16q0 12 -24 32h-20l-12 -8l-20 16l-4 -4h-4l-12 16h-8l-4 -4h-4q-8 16 -20 16l-32 -20q-28 0 -28 16h-20l-20 -20h-4l-24 8q-25 0 -48 -16l-12 -4l-24 8v8h-4l-4 -4l-4 4h-4q-10 -12 -36 -12l-8 -12l-4 4h-4l-20 -8l-40 12v-4l-48 16l-56 -24l-4 4h-4l-36 -16
q-16 15 -16 24h-4l-4 -4h-4l-4 4v4l-4 -4h-8q-6 0 -12 16h-8l-36 -4l-24 8h-20q-8 0 -8 -12h-16l-12 16l-24 -8v4q-24 -20 -40 -20l-4 4v4l4 16q0 7 -36 36v16q0 40 40 96l4 -4q24 97 76 136q30 60 40 60q11 0 24 44l-4 4l4 4h-4q0 14 68 36q9 17 32 24l12 16l-4 4v16l4 16
l-4 16q0 40 36 48q0 40 40 40q19 0 24 32q17 0 40 12v8h-16v-8h-4v8l16 32l20 -8l4 4v4l-4 4l4 4h-4q0 43 40 80q12 0 24 64l28 28q40 0 40 60l16 16v16h-8l4 4v4l-8 36l4 16q8 0 8 -12h4l4 20h28q36 16 36 48q17 0 44 24q3 14 32 40l8 20q14 0 32 -16h4q0 8 -12 8l8 16
q0 31 -20 40v8l-4 -4h-4v12h4l4 -4h4v4q-20 28 -76 28l-4 -4l-12 4v8h-8q0 -12 -12 -12q0 -20 -8 -20l-16 8l-4 -4h-4l-56 28q-30 0 -68 -48q-22 0 -28 -68l-12 -8h-8q-28 0 -28 36q-20 8 -20 48q-38 24 -68 28q-20 -5 -20 -12l-48 28l-28 -12v-4l-16 4l-12 -4l-12 4v-4
l-12 -48l4 -4v-4q-4 -32 -12 -32q-28 0 -28 8l-24 -16q13 -16 24 -56q16 0 28 -20v-24q0 -24 -16 -24l4 -12q0 -24 -24 -52v-16l8 -40l-24 -24l-32 8l-8 -8h-4l-4 4h-4l4 4v4l-16 20l4 4v20l-8 8l-4 -4l-12 32q20 23 20 36h8v8q-16 17 -16 32v4l8 32v4q-12 0 -12 8l8 24
q0 13 -12 28v12l24 28v8h-12v12l4 4l-4 4v12q32 60 32 76q11 80 24 80l24 -16q0 -7 24 -12q0 -28 8 -28h4l12 8l4 -4h4q0 9 56 16l20 12v-4l4 4h8q17 -12 32 -12l36 4l24 -4q0 8 56 28q66 -44 76 -44h4l16 4l16 -8l28 4h40q0 9 24 16v4q32 0 32 -16l12 8l4 -4v-4l36 8v20
l8 8l-4 20v8q3 24 12 24z" />
    <glyph glyph-name="bracketleft" unicode="[" horiz-adv-x="512" 
d="M282 1628h4q18 0 32 -44q-28 -31 -28 -56l32 -12h12v-12q0 -8 -36 -16v-32q-30 0 -44 -24l4 -4v-4l-12 -28l8 -28q-44 -33 -52 -92q-9 -13 -20 -64l4 -20l-36 -84v-20l20 -32q-16 -128 -36 -128l-16 -28l4 -24q-16 -23 -20 -44l-4 -4l4 -20l-8 -44l8 -8v-12
q-11 0 -24 -20h-12l-12 12l-12 -8h-4q-8 0 -16 40l8 24v8l-16 28q8 10 8 40h4q-16 24 -16 56l4 16l-4 24q20 44 24 80q12 0 12 32h4l-4 4v20q5 30 16 32l-4 48v16h12q0 38 -20 56v12h4l4 -4q40 6 40 48l16 40l-4 4v4q0 28 44 96q3 19 28 44v8l-4 20q24 9 24 16v40q0 6 56 32
q0 16 24 16zM326 1560q15 -5 28 -20l-12 -16l-12 12l-8 24h4zM58 712l4 -12l-4 -4h-4l-4 12l4 4h4zM74 680h4l8 -8v-28l44 -104l-4 -44q10 0 20 -56l-4 -16l28 -120l-4 -4l4 -28v-12l-4 -24q0 -48 64 -120l4 -28l-4 -20q37 0 76 -76l28 -20v-4l-8 -32q0 -16 12 -16
q-4 -28 -12 -28l4 -28v-24q-21 -20 -60 -20l-12 4l-4 -4q-10 12 -16 60q-25 17 -44 72q-12 0 -12 20h-4l4 4v4q0 27 -44 100l-12 40l-32 76q-16 0 -16 8l8 44l-16 28l4 44q0 24 -28 24l-12 8l4 4v12l-8 52l4 12l-4 4v4l4 12l-4 36l8 12q-5 112 -20 112v20q23 36 44 36z" />
    <glyph glyph-name="backslash" unicode="\" horiz-adv-x="1162" 
d="M105 1726q33 -88 44 -100q0 -43 80 -148q28 -8 28 -28l-4 -56v-4l24 -52q56 -74 56 -92q32 -8 32 -16v-32q0 -64 20 -64q23 0 28 -60q20 -17 24 -36l-8 -52v-4q44 -41 44 -52q0 -39 48 -56v-28q7 -76 28 -76q5 -48 16 -48q9 -48 24 -48l52 -56q4 -44 20 -68h-4
q11 -68 32 -68l-4 -16l8 -12l52 -104v-4l-4 -4q28 -55 28 -72q32 -24 36 -48l-4 -16v-24q36 -59 36 -80l-4 -12q31 -26 32 -36q32 -21 32 -28l-4 -20h4l4 -4q5 -56 20 -56l-4 -4q4 -32 16 -32q29 -89 44 -96l-8 -24v-4l4 -4l-8 -44l4 -4q-10 -14 -32 -24h-8l-56 16
q-20 29 -24 72l12 44q-6 18 -44 40q-4 47 -16 60q-56 116 -56 140q-21 0 -44 28v4l4 44q-22 42 -44 56l-30 14l-18 22l-12 4q-1 2 -1 4q0 10 17 22q0 16 -12 26v8q-16 48 -16 76q-35 40 -60 100q-17 23 -40 84v28q0 34 -8 52v4l4 4l-4 20q-40 32 -40 48q-15 56 -32 64
q0 43 -24 64q-15 44 -48 88q0 29 -12 52q-80 61 -80 124q-24 31 -24 44q-25 17 -40 84q-21 59 -52 88l-12 -4l-12 4q0 39 20 44l-8 68q-26 26 -40 56q-10 32 -16 32q-17 68 -36 68l-32 112q39 36 52 36z" />
    <glyph glyph-name="bracketright" unicode="]" horiz-adv-x="578" 
d="M114 1654q51 0 72 -48v-4l-4 -16l4 -24l-4 -56q0 -11 36 -72q8 -22 8 -64l-4 -12h4l-12 -28q2 -40 8 -40l-12 -24q0 -9 32 -20l16 -44v-8q0 -8 -12 -8q0 -16 20 -32q14 -10 28 -72q36 -19 36 -48l-4 -4q20 -44 32 -100q12 0 12 -64q12 -61 20 -68v-8l-12 -20l4 -16l-4 -4
l12 -12l-12 -48l4 -52q-10 0 -16 -80l8 -48l-4 -28l8 -32l-8 -16l8 -12q-24 -124 -52 -124l-4 -20l8 -24l-4 -52l8 -20l-32 -28l16 -28v-4q-4 -12 -36 -36q-15 -61 -24 -72v-8l8 -12v-4q-24 0 -48 -88q-12 -8 -12 -40l-4 -4q0 -7 -20 -12q0 -50 -44 -56h-4l-12 4l4 4v4l-8 8
l-16 -4l-16 24l4 44l-4 12q68 35 68 92l24 36l-4 20q2 16 12 16v32q0 13 24 48l16 64l-8 12v12l8 24q26 71 40 84l-4 4v4l4 24v12q-20 2 -20 36q36 22 36 28v16l4 52l-4 20l4 16l-12 32q3 36 8 36l-8 28l4 20l-4 20l8 68q-10 14 -20 92q-8 0 -8 24q2 40 8 40l-4 4v4l4 12
l-12 52l4 36l-12 24l12 60q-16 0 -24 60l8 20q-48 21 -48 76l-8 20l4 4v4q-5 20 -12 20v-4q-18 0 -28 36l-44 52q-7 0 -24 24q-28 0 -28 16l4 20q-8 27 -32 60q-15 47 -28 60l-4 4v4l28 32q7 24 36 44v4l40 -4zM242 2v-4l8 -8v12h-8z" />
    <glyph glyph-name="asciicircum" unicode="^" horiz-adv-x="833" 
d="M66 1350q-31 28 -62 28v36q13 46 64 112q0 17 36 24l-8 12q0 16 40 48h20l24 44q0 28 56 40q16 0 24 52q27 24 44 24q24 0 24 12v4l12 2l8 8h4l32 -38q16 0 32 -68h8q10 0 20 28h4q0 -12 12 -12q11 -21 16 -68q20 -23 20 -36h4l4 4h4q12 -32 36 -44l20 -24l4 4
q14 -36 20 -36l4 4q0 -25 28 -44l24 -68q-8 -32 -24 -32q-56 4 -68 12l-28 -16q-44 23 -44 48v32q-36 0 -36 56q-17 0 -36 48h-4l-4 -4h-4q-27 92 -42 92v4l4 4l-10 4q-5 12 -6 12l-10 -1l-2 -15l-20 -28v-24l-28 -4v-8q0 -17 -16 -44q0 -50 -76 -80q-17 -42 -56 -60
q-15 0 -48 -40z" />
    <glyph glyph-name="underscore" unicode="_" horiz-adv-x="1615" 
d="M236 228l44 -16l48 12q31 -9 72 -36l20 -4l20 4v-4q21 4 32 16h16q0 -20 40 -28h16l40 4l80 -16q0 9 48 20l12 -4q0 15 48 20v-8l4 4h4l36 -16q3 20 32 20q37 -20 60 -20l12 -8l32 8h8v8l12 8l12 -4l4 4h4l4 -4l48 12v-4l8 -8l4 4l36 -16l12 12l40 -4l8 8h12l20 -4v4
l-4 4v4q8 0 24 20h36q0 -18 104 -28l16 -8l12 4q14 0 24 -32q14 0 24 -44l-12 -56l16 -24v-12q-14 -28 -20 -28l-4 4h-4q-28 -3 -28 -28l-24 -8q0 12 -24 28l-4 -4l-12 8l-36 -28h-4q-12 28 -24 28l-4 -12h-8q0 20 -64 20q-30 -24 -44 -24l-16 12l-52 -8l-24 8h-4l-28 -8
q-4 12 -24 12h-8l-12 -8h-20l-16 4l-24 -16l-16 -4h-28l-20 4q-4 -32 -12 -32q-36 24 -52 24q-18 -20 -32 -20q-44 7 -44 32l-48 -8l-28 8l-36 -4v4l4 4v4q-10 0 -24 16h-4l-32 -24l-40 4q-62 -8 -84 -28h-4l-12 12l-4 -4h-4q-24 12 -24 24h-8q0 -16 -56 -24q0 11 -20 20
q-16 -3 -36 -36l-56 16q-23 -2 -36 -12l-4 4h-4l-12 -4q-26 0 -68 72q-8 0 -28 32q-13 0 -20 36l20 20l12 20l-16 20l4 4h12l28 -4q0 8 12 8q32 18 32 36l16 12h36l4 4l4 -4h4z" />
    <glyph glyph-name="grave" unicode="`" horiz-adv-x="591" 
d="M4 1669q0 18 16 56q-16 24 -16 36v4q24 31 28 52l-4 16v4l24 4l32 -8h16v-8h16l12 8h12q7 -8 72 -16q24 -33 32 -72q12 0 32 -28q24 -17 24 -60l60 -64l-4 -32q0 -20 24 -64q0 -12 16 -20l-4 -28l4 -52q-8 -24 -32 -24q-52 33 -52 52q-12 0 -12 12l-4 4h-4l-20 -4
q0 12 -28 12q0 25 -44 36q0 13 -32 36q0 12 -16 12v-4q-28 10 -28 40q-12 0 -28 40z" />
    <glyph glyph-name="a" unicode="a" horiz-adv-x="1204" 
d="M408 1012q0 -6 44 -16l8 -8h4v8l20 -4h4l48 8q20 -12 56 -16q9 -17 36 -28l36 4q18 0 52 -48h8q0 -18 44 -44l32 -68q0 -21 24 -88l-4 -28h4l-16 -40v-8h4l-8 -80q16 -24 16 -36v-88l-24 -28q12 0 12 -52v-24q20 -21 28 -60l-4 -16l12 -36l-4 -16l24 -32q72 -21 72 -56
q6 -12 56 -16l8 -36l-4 -16l8 -24q-16 -56 -44 -56q-4 -12 -24 -12h-16l-20 16h-4l-36 -28h-4q-17 56 -56 56q-14 14 -32 64q-22 29 -60 40q-60 -7 -60 -36q-8 0 -44 -48q-25 20 -36 20h-20q-17 -16 -32 -16l-4 4h-4l-28 -20h-4l-12 8h-4q0 -9 -16 -16h-16l-16 4l-20 -8
q0 12 -56 16q0 -12 -36 -20v8q-15 12 -28 12v8h-44q-29 28 -64 28l-40 -4l-44 40q-14 49 -32 64l-32 104l-28 44q12 29 20 108q16 9 32 44q23 0 28 40l28 -8v4l28 64l44 16h12l4 -4h4q41 11 52 28l20 12l24 -4l4 4l16 -8l20 4l12 -12h4q27 0 40 16l20 -4h12q10 12 48 16
l60 -12q0 12 12 12q0 20 52 20l16 -4l16 8l20 -8l24 16l20 -4q27 30 32 56l-4 24l4 20q-12 15 -12 40q-21 0 -40 36q0 16 -32 52l-56 12v-4q-53 36 -72 36q-10 0 -52 -36h-8v4l-4 -4h-4q-19 0 -40 36l-16 12h-4q-14 -12 -32 -12q0 -8 -28 -8q-32 -30 -32 -40q0 -24 -28 -24
l-4 4h-4v-12l-12 -40l8 -8v-64q0 -19 -20 -48q0 -18 -24 -24q-8 -18 -16 -20q0 9 -56 12l-36 -4q-35 45 -56 60l4 16l-12 64q3 17 24 28q12 10 12 36q31 41 36 100l136 40h36l64 24l24 -8q0 7 52 20zM568 508h-8q0 28 -24 28q-26 -36 -112 -36l-20 -20h-8l-4 4h-4
q-9 -24 -16 -24h-4q0 18 -28 28q-29 0 -80 -20l-24 8q-29 0 -56 -40q0 -10 -48 -48l-32 -56l4 -28v-56q0 -16 32 -44q0 -24 28 -24q0 -11 44 -28l124 -28q0 16 32 24l100 -20q0 11 56 32l16 -8q24 16 64 28v4l-4 32l12 8l20 -4q52 7 52 44q0 25 56 60l4 24l-12 12l4 36
q-8 0 -20 36l-20 8v16l12 16v4q-13 32 -28 32q0 28 -48 44q-9 0 -32 -36z" />
    <glyph glyph-name="b" unicode="b" horiz-adv-x="1135" 
d="M168 558q35 0 40 -56q32 -12 32 -72v-4l-4 -28q9 -6 28 -72l4 -4h4l-20 -64l112 -72v4q31 0 40 -48l32 -8l12 8l20 -12l20 4h28l40 -12h4q40 17 40 28q8 17 56 28q0 10 12 20l4 -4h4q38 33 44 60q16 0 16 16l28 36q0 38 28 104l4 28l-4 24l4 20l-4 4v4l24 88v20
q0 19 -28 44q0 23 -12 36l8 12q0 54 -48 92q0 16 -16 16l-28 -12l-108 100l-12 4l-36 -8l-24 4l-8 -16h-12q-15 0 -36 -16h-8l-20 20l-4 -4h-32l-32 40l-20 4v-4l4 -60q-23 0 -36 -68q-8 0 -20 -40l-40 -16l4 -28v-4l-28 -36v-28q-10 -52 -24 -52l-16 4v-4l-4 4h-8
q-8 0 -8 -12zM168 558h-4q-12 0 -12 -8v-4q16 6 16 12zM120 1422l92 -16q16 0 16 -56l-12 -72l4 -4l-4 -12h-4v-8q12 0 12 -12l-4 -16q20 -27 20 -44l-8 -48l4 -20q-28 -23 -28 -52v-4l20 -40q-5 -28 -24 -56l24 -92l16 -4q0 21 40 44l72 28h8l12 -4v4q33 26 36 40
q10 0 24 20l12 4l16 -4h4q8 8 104 20l4 4l4 -4h4l4 4q90 -8 92 -28l4 -4h4l12 4l8 -8l16 4q18 -11 92 -96l-4 -4v-4l32 -60l4 -12h-4q13 -40 52 -40l12 -44v-32q28 0 28 -92l-4 -12l4 -48l-8 -24q12 0 12 -44v-8q-12 -8 -16 -64l-8 -20h-8v-12q12 -18 12 -36l-8 -20h4
l-32 -40q0 -23 -52 -116q0 -16 -32 -40q0 -10 -32 -24q0 -14 -20 -24l-4 4q0 -8 -16 -8q0 -16 -24 -16v4q-24 0 -24 -20q-43 -32 -100 -32q-40 -10 -40 -20h4l-20 -36h-16l4 16q-2 18 -128 56q0 31 -68 52l-12 8q-9 -8 -28 -8v-4q-10 0 -32 32h-4q0 -28 -16 -28l-4 4v4
q6 20 16 20v8h-4q-64 -64 -80 -64l-36 8v4q0 29 -12 72l4 4h-4l8 60l-4 12l-4 -4h-4l-4 16l16 80l-4 4v4l4 28q-8 9 -16 76l4 4v4l-4 4q0 36 24 56q-3 24 -8 24l12 84l-24 52q0 17 16 48l-4 12l8 20l-12 80v12l8 16l-8 60h4q0 36 -24 36l-4 12l16 44v4l-4 16l12 48l-4 4v4
l4 4v4q-5 32 -12 32l4 4v4l-4 16l8 24l-4 4q0 48 44 64l16 -8q21 21 24 40h-32q-34 -12 -48 -36h-16l-8 8v4l28 36v12l-28 16q0 -14 -32 -20q0 7 -28 16l-12 -8q-64 7 -64 16q-30 49 -48 64h4l-4 12q0 28 72 48v-4q48 7 48 12l52 -8z" />
    <glyph glyph-name="c" unicode="c" horiz-adv-x="1020" 
d="M356 1010q40 -3 40 -20l48 12l24 -8q24 0 24 12h12q0 -15 36 -20l20 4l12 -8l4 4h8q0 -10 40 -32q0 -8 20 -8l20 -32l4 4h4q37 -21 68 -60q0 -36 12 -36q16 0 48 -52h4l-4 -24l8 -32q0 -40 -12 -40q-16 0 -16 -8v-8l4 4h8l8 -16l-16 -20l4 -20l-52 -40l-48 -16
q-36 0 -56 44q-20 0 -20 16q-16 0 -40 92l4 4v4l-4 16q0 20 60 60l8 20q0 30 -32 40q-12 24 -48 24l-4 20v20h-4l-24 -16l-12 4l-8 -8q-18 24 -28 24l-20 -20h-4v20h-4q0 -9 -20 -20l-40 8q-16 -20 -44 -28q0 -7 -60 -16l-4 -4l4 -4v-8l-4 4h-4q-7 -14 -24 -20v4
q-19 0 -24 -28l-12 -4l-4 4h-4q-20 0 -36 -68l-4 -4v-4l4 -12h-4l-24 -28q-20 0 -20 -20q0 -29 -24 -92v-8l4 -36l-12 -32q40 -38 40 -76l-4 -12q0 -28 28 -68l-4 -16q0 -12 12 -12q11 -41 48 -72v-4l-4 -4v-4q8 0 16 -32l20 8q0 -7 20 -12q0 -20 32 -20q0 -32 84 -44
l28 -16q84 12 84 28l44 28l12 -8q19 5 48 52q9 0 12 20l48 -12l16 40v20h8q0 22 44 88h-8q21 36 64 36l16 -40h8l20 4v-24h-12v-24h8l4 16q16 -6 16 -12v-12q-14 -28 -32 -28l-4 4v-4l8 -32q0 -27 -28 -36q0 -16 -44 -56q-17 -48 -60 -48q0 -8 -12 -8q0 -17 -36 -24l-24 -28
q0 -16 -12 -16h-4l-8 8l-52 -24l-16 4l-4 -4l-4 4h-20q-63 -36 -80 -36h-8l-4 4q-11 24 -24 24v4l-20 -4q-38 0 -84 20q-67 15 -80 48q-24 8 -24 28l-44 32q-19 0 -20 28q-24 8 -24 28h-4l8 32v8q-16 0 -16 20q-21 19 -40 56h-4v24h8v28q-11 11 -20 60l-4 4v12l12 16v12
l-20 44v16q12 0 12 36q28 35 28 96v20q0 19 16 28l-4 4v12l16 20l-4 16l28 84q0 12 24 12l36 36q25 0 44 52l4 -4h4q4 32 12 32l4 -20q14 0 32 16h36q15 16 32 16q0 16 36 16v4zM668 226l8 -8h4l-8 8h-4z" />
    <glyph glyph-name="d" unicode="d" horiz-adv-x="1301" 
d="M626 1372h4l52 -24l16 8q35 -3 44 -12h4l36 4l48 -20l4 4h16l28 -4q10 20 40 20q5 -36 44 -64v-8l-12 -12l-4 4h-4l-16 -8l16 -52v-4l-8 -64q11 -3 32 -60l-8 -40l12 -16l-4 -20v-4q20 -26 20 -44q-16 -6 -16 -28q7 0 12 -28l-4 -16q10 -44 20 -44h4l4 4h4l8 -12
q0 -8 -16 -8q-24 -16 -24 -68q-25 -8 -28 -20l4 -12l-8 -20q8 0 8 -36l8 -24q12 0 12 -8v-20l-24 -40v-16q12 0 12 -16l-16 -8v4l-12 -4q0 -7 40 -16l12 -32l-12 -56l4 -28l-8 -16l16 -40l-8 -20l-4 4h-8l-8 -36q0 -45 48 -72q12 0 28 -16q13 0 20 -8l-4 -4v-20l20 -20
q5 -23 20 -40h8v20l8 8h8q28 -11 28 -32q-5 -52 -36 -52q0 -9 -32 -16l-12 4l-32 -12h-8l-12 8l-20 -4v4l-80 -40h-8l-4 4h-4l-12 -16l-4 4h-4l-36 -8h-4q-9 8 -44 12l-4 4l-4 -4q0 -12 -8 -12h-4q-17 24 -44 24q-4 16 -24 16h-20l-32 -32l-24 12q0 -9 -52 -12q-24 3 -24 16
l-68 -24l-44 8q-12 0 -12 -16q-40 -9 -40 -20q-20 0 -20 20q-18 20 -40 32h-4l-32 -24q-7 0 -16 24q-28 4 -60 20q-40 18 -48 44q0 15 -48 32q-32 35 -32 52l20 48q-40 32 -56 32v12q0 9 28 20l8 12v4l-60 -4q-5 20 -16 20v4l12 16v8q-20 44 -28 44l4 12l-4 32l4 12l-8 52h4
l-4 4v4q8 60 28 60l12 4v4l-8 20l-12 -8v4l8 20l20 -4v4l8 12l-4 12l-4 -4q-24 10 -24 36v28q28 15 28 76q16 18 16 44q24 0 48 48q39 15 48 28l-4 4v12l52 52l16 -4q9 8 44 8q0 11 32 28l32 -16q0 7 20 12q0 28 40 28l12 -4l16 16q-2 -23 -12 -36l8 -8l4 4l4 -4h8
q2 32 24 32q1 9 52 44l8 8q32 0 32 -24l4 -4h4q0 20 12 20q40 -24 64 -24h4q16 52 28 52q0 35 -20 88l4 28q-11 12 -72 24l-16 -4l-16 16v16h8v4l-4 12q-41 -43 -100 -56h-12q0 7 -24 12l-20 -12h-8l-44 48v36l-4 4v4q8 0 8 16l60 16q72 -32 76 -40l8 -8q0 16 52 24
q7 13 60 32l4 12h-4q0 17 32 28zM758 1248q0 -11 -24 -36l-8 -52l8 -20l-16 -20v-20q12 0 12 -28l8 -8l-8 -32l44 -44q14 0 40 -44q16 0 16 -12h12l24 28q11 0 20 44l-12 48l4 4l-4 20q2 76 24 76l-4 12h-4l-4 -4h-4q-14 72 -36 72l-12 8l-36 -12l-8 8l-12 -4v4l-8 8l-4 -4z
M298 836l-4 4h-4l-28 -32l-4 4q0 -16 -32 -40l-20 4q-13 -5 -40 -76q-11 0 -40 -80q-12 0 -12 -8v-4l4 -16q0 -28 -36 -32l-8 -12q41 -37 60 -128q0 -25 8 -36l-4 -36l4 -4v-4l-8 -16l40 -56v-12l-4 -4v-4q9 0 32 -52l-8 -8v-4q20 0 20 -8h12q18 0 28 -20q20 0 20 -28
q40 -2 40 -16q0 -12 8 -12h12q0 16 20 16l4 36h4q0 -11 32 -24q0 -12 20 -12h12q0 -20 8 -20l4 -4v-4h4l12 28l-4 4h-4l-4 -4h-4q0 36 -40 36q-32 0 -32 28v4q12 0 12 8h-4l-4 -4q-16 6 -16 12v8l16 20v8q0 24 -24 24h-8v-4q-55 0 -76 28h-12l-28 -4q-16 17 -16 40v8
q16 42 16 68h8l12 -8h4l16 52l-4 4h-4l4 4v8q-20 20 -20 52h-4l16 124l24 20l-4 12q0 85 44 140l-8 32l4 16q-10 0 -12 -16zM782 848l-32 -56q0 -20 -8 -20q10 -40 28 -64q-24 -41 -24 -56l4 -40h-4l4 -4v-16q-31 0 -48 -32v-12q9 0 16 -16l-4 -4l4 -4v-16l-8 -8h-4l-28 4
v16l8 12l-4 4l4 4v4q0 24 -28 24q-20 21 -20 32l4 16l-4 44v4q0 13 12 28q-72 69 -72 80q-10 40 -44 40q-2 12 -32 12h-8l-4 16h-4l-4 -4l-4 4h-4l-8 -8l-4 4h-4l-28 -24l-36 4q-15 0 -32 -112q-28 -44 -28 -76l-12 -28l4 -20q-4 -50 -16 -76q4 -13 16 -16q-3 -52 -16 -60
v-4q0 -8 12 -8v-4q1 -47 12 -64l20 8q20 -14 20 -36q30 -94 76 -124h8v8h8q0 -15 20 -24v-4l40 -4l60 56l20 8v16q0 15 20 32l-12 36q15 1 40 44l-4 4v4q0 43 40 48q0 41 28 52q0 7 20 8q7 0 28 -48q0 -9 -28 -32l-4 4h-8v-12q13 0 32 -36q12 0 12 -8q-16 -86 -28 -112
l4 -12l-4 -4l40 -44l32 -12l4 4l8 20l-4 12q9 0 36 48l20 28l-4 24q9 0 12 28h4l-4 12l4 4l-4 20v12l8 16l-8 36q20 46 20 76h-4q-15 0 -24 20q0 41 40 72l4 4v4l-4 24l4 4q-9 33 -36 64v8q13 52 20 52q0 20 -28 20q-12 9 -12 28q-11 0 -36 28q-20 0 -48 16zM334 832v-8h4v8
h-4zM778 568l4 -4v-4l-4 -20h-16l-4 20v8l20 4v-4zM826 556q28 -7 28 -16v-4q-4 -12 -24 -12h-4q-10 0 -12 16l12 12v4zM1014 440h8l12 -12q0 -8 -40 -16v8zM1074 356l12 -48v-12h-16q-32 0 -32 28q8 0 16 24zM1062 292l20 -24q0 -12 -24 -12v-8h-4l-20 28l4 12h8l4 -16h4
q0 20 8 20zM1174 200h4l8 -8v-8q-4 -12 -24 -12l-8 8v8zM1162 120h8v-12l-8 8v4z" />
    <glyph glyph-name="e" unicode="e" horiz-adv-x="1107" 
d="M540 974l4 -4h4l16 4l20 -12l12 8q0 -8 44 -40q0 -16 40 -32l36 8q21 -10 76 -60q44 -17 44 -56q44 -15 44 -48h8v-4l-8 -32h4l12 4v-4l16 -48l-16 -24l8 -8l-4 -48l8 -40q-36 -8 -36 -36l-12 -8h-4q-12 0 -44 20l-4 -4h-4l-24 8l-4 -4q-6 16 -12 16h-20q-16 -18 -28 -20
q0 10 -48 16q-16 17 -16 32q12 0 32 20l28 20q24 0 24 12l4 -4h8q6 28 16 28l4 -4l12 52l-12 28q-21 0 -24 52q-23 38 -28 72q-8 0 -8 16q-32 12 -32 36h-20q-32 0 -32 20h-12l-16 4l-36 -16h-8l-16 8l-12 -4v4q0 12 -8 12l-20 -4l-8 8q0 -9 -32 -16l4 4v4l-44 12
q-34 -38 -64 -52h-8v8h-4q-8 0 -8 -12h-4l-4 4l-4 -4h-8l-16 12h-4q-20 -24 -48 -24q0 -13 -48 -40l-4 -4q-13 -9 -28 -56q-28 -6 -28 -20l4 -20l-4 -24l12 -72l-8 -8q18 -24 56 -36q0 -10 16 -12q33 24 52 24q0 -8 12 -8l28 4q4 -16 24 -16q0 16 24 16h4l36 -24l116 24h4
q18 -20 32 -20l12 -16v-8q-16 0 -16 -24q-36 -4 -64 -20h-20l-16 8l-12 -4l-4 12l-24 -8q-16 6 -16 12l-20 -12h-8v8l-60 -20l-68 12l-4 -4h-4l-12 8l-56 -20l-4 4v-20h-24l4 -20l-8 -8q8 0 20 -52l-4 -4v-4l32 -92v-4h-8v-8q10 0 20 -12l4 4h4q23 -43 44 -48q0 -7 40 -32
l44 -32q20 0 20 8q24 -6 48 -44h4q66 11 88 28h12l16 -12h4q8 0 16 48l4 4h4l8 -8l20 8l40 -4q11 32 68 32l4 -4q49 61 68 96v8l-12 12l12 32v16h-8v8h8l4 -4l4 4h36q0 12 16 12l8 -16l20 4h28q3 -16 24 -16l8 -16l8 -24v-4l-8 -12q12 -4 12 -24v-4q-13 -45 -24 -56l4 -4v-4
q0 -26 -84 -96l-32 -16q-11 -35 -48 -64l-16 8l-48 -32q-11 0 -20 -12l-32 12h-8l-4 -4h-4l-8 8h-4q0 -12 -36 -12l-24 -12v4l-28 -8l-28 4l-32 -12q0 19 -68 24l-4 4l-28 -4l-16 4l-20 -4q-28 28 -52 28q-12 32 -36 32q0 23 -20 48l-20 -4q-23 40 -36 40q-8 0 -8 16h-16v4
l4 16l-8 20l-20 -4l-4 4q-8 0 -8 32h-8q0 45 -28 80l4 40h-4q-8 0 -12 36l4 12l-8 32v16q1 20 8 20l-16 80h4l-8 24l8 16l-4 36l4 24l-4 20q12 0 28 56q20 11 20 36q21 0 32 20h8l12 -4l4 4v20l-20 -4v16q16 20 44 20l28 20l-4 12q8 0 8 20l52 40l20 -4v4l24 -12h4l20 16h4
l20 -4q0 12 12 12l4 4v4l4 -4h4l28 4l48 -12q36 9 36 16l40 -8q17 13 56 20zM120 806v-4h8v4h-8zM120 634v-8l8 -8h4l-4 16h-8zM104 626v-8h4v8h-4zM68 570l20 -8q36 0 36 24l-20 12h-4q-32 -20 -32 -28zM592 578h8l8 -8v-8l-4 4h-4l-4 -4l-4 4v12zM608 546q23 0 36 -24
l-40 -12l-12 8l-28 -8v12l32 20zM512 130v-4l8 -8v12h-8z" />
    <glyph glyph-name="f" unicode="f" horiz-adv-x="1297" 
d="M702 1428h32q63 -28 88 -28l48 -4l16 4q9 -27 56 -44h4v-20q1 -8 36 -24l16 4q1 -10 56 -56q0 -8 32 -28l8 -32l-4 -16l8 -12v-4l-4 -4l4 -4v-4q-18 -65 -48 -108h-4v8h-4l-28 -20l-52 4l-12 -4q0 10 -36 16l-12 -4q-4 20 -44 52l-16 32l12 56l-16 56l-72 44h-16l-16 -4
l-16 4h-8q-8 0 -8 -12h-12q-34 0 -48 -12h-4l-32 8l4 20h-8l-40 -44h-12l-20 4q-1 -11 -20 -16l-8 8l-8 -8l8 -8q0 -39 -36 -96l-4 -20q20 -127 28 -136l-4 -12q17 -13 60 -20l4 4l20 -4h12l40 4q0 -7 20 -12q0 12 44 20q28 -8 28 -44q0 -64 -52 -64l-8 -8h-4q-15 0 -60 28
l-80 -20l-24 4q-18 -8 -20 -16l8 -32v-20q0 -34 -8 -52l4 -36v-24q0 -16 -20 -32l-8 -44q0 -8 36 -44l-8 -20q22 -13 36 -40q-28 -7 -28 -44l4 -12q0 -48 -16 -48v-32l24 -60q-7 0 -16 -40h8v-20l8 -12v-12l-4 -36q11 -27 28 -36h8l36 16l40 -16l80 32l16 -8l4 4h4l36 -4
l32 4q0 -7 20 -12l20 -48l-4 -76q-33 -48 -56 -48l-28 8q-15 -32 -36 -32l-8 24h-40l-24 16l-12 -4l-4 4h-4l-12 -4l-12 12h-8l-4 -4l-16 8v-4l-4 4h-44q-15 0 -44 -32h-8q0 16 -8 16q-9 0 -12 -20h-4l-28 20q-29 -16 -44 -16v4q0 12 -24 24h-16l-12 -8h-24l-16 4l-12 -4
l-12 12l-4 -4h-12l-20 4l-24 -4h-16l-16 12l-8 -8h-20l-16 4l-40 -16q-20 5 -40 28q-4 -12 -24 -12v4q5 54 36 96q0 41 64 48l28 4q0 -12 36 -20l24 4q40 -5 68 -36l20 -8q0 40 24 40q44 0 60 44l-12 28l4 16l-8 12l4 20v16l-4 20l8 8q-16 92 -24 92l-16 -8q0 12 -12 12
l-4 4v4h4l4 -4h4l12 8l-4 4v4l32 40l-8 24v20q0 27 48 44l4 16q-24 5 -24 12v4l4 24l-4 4v4l4 32l-24 108v4q1 20 8 20l-4 28v32q-8 20 -28 20l-12 -4l-12 12l-28 -24h-8l-60 16q-12 -23 -60 -60v8l4 24l-44 40l-16 40l16 32q1 34 16 40h88q8 0 8 -12h8q19 0 28 12l32 -12
l4 4h4l16 -4l4 4v4l-20 8l4 12h24l16 44q-9 28 -16 28l-8 -8q0 8 -12 8v8h20l16 16l-4 20q20 124 60 156l28 48q64 23 64 44q16 11 128 24q12 28 76 28z" />
    <glyph glyph-name="g" unicode="g" horiz-adv-x="1266" 
d="M328 -230l4 -4v-4l-8 -8l-4 4v4zM124 310v8h-4v-4zM372 -394v-8h8v8h-8zM988 -174v-8h8zM436 94h-8l-12 8l-4 -4q-27 20 -40 20q0 -11 -40 -28l-24 -32l-12 8h-8l-24 -4l-16 4l-4 -4l-4 4q0 -12 -16 -20l-12 8h-20l-24 -16v-16l-4 -20h-4l-4 4h-4q0 -20 -24 -60l-12 -36
l8 -8v-40h4l28 4v-4l-4 -16q2 -16 12 -16v-8l-4 -4q14 -32 40 -32v4q16 0 16 -20l24 -16v-4l4 4h4l16 -8q30 20 44 20l4 -28h4l12 8q13 -16 36 -16l28 12l4 -4l4 4v4l4 -4h8v8h8q23 -20 72 -40l4 4l32 -8q3 12 16 16q12 0 12 -16l12 -4l-4 -4v-4l4 -4l40 16l20 -8q0 8 36 8
l8 8v4h20v-8h16q0 12 8 12h60q0 9 16 20l4 12h24q11 13 40 24l4 -4q0 22 12 32l20 -8l4 4v-4q52 17 52 28q6 28 32 44h4l-32 72l4 4l-12 8l-24 -12h-8v4q0 10 16 12q-8 31 -36 48l-16 -4q0 13 -20 36v4h-4l-4 -4q-16 12 -64 20l-8 8l-4 -4h-4l-4 4l-8 -16h-16l-4 20h8v12
l-32 16q-16 0 -28 12h-4l-8 -8l-16 8q-19 -4 -36 -20q-8 0 -8 24q-16 0 -16 16l-52 -16l-4 16l-20 -4h-32l-4 4q-23 -7 -52 -36zM76 302l8 -8v8h-8zM800 822l-4 -4v-8h4l8 8v4h-8zM388 862l4 -32q0 -16 -60 -28l-28 -24q0 -52 -36 -52q-10 0 -12 -16l4 -16l-8 -24l4 -36l4 4
h4v-8q-15 0 -20 -48l8 -12l-4 -24l8 -8l-4 -4v-4l28 -36l-4 -4v-4q13 -1 28 -48q16 0 76 -32l12 4l24 -8h12q0 -12 16 -20h4l4 4l4 -4h20q0 8 16 8v8h20q15 12 28 12l12 -8h4q32 0 64 48q48 15 48 56l12 20l-4 40h4q36 26 36 64q-5 64 -20 64h-8v4q0 47 -28 56q-14 0 -20 36
q-9 0 -16 28h-8q0 12 -8 12h-4l-12 -8h-16v8h-20q0 -10 -48 -16q-12 0 -12 16l-20 12h-28q0 -12 -8 -12l-44 32h-8zM124 310v-4l-4 -12h4l-8 -24l4 -20l-4 -36q8 -31 28 -40l20 4l12 -12l16 12h12q0 -12 24 -12l32 4q0 -12 16 -12l20 4l4 -4q0 7 20 12l4 -4l4 4v4l28 -4h4
l32 16l56 -8l28 24l12 -4l24 8q21 -17 56 -28q0 16 72 16h8l8 8l32 -8l4 4v-8l20 4l8 -8l20 12h8q8 0 8 -12h4q26 16 40 16l4 -4h4l32 20h4l8 -8l-8 -24h4l4 4q0 -16 32 -20l40 -12l12 4v-8l52 16l8 8q8 0 8 -12l-4 -12q0 -43 32 -120q0 -16 40 -120l-4 -28l8 -32v-4
l-16 -32l-4 4h-4q-12 -1 -28 -28l4 -28l-12 -8l-4 4l-16 -28v-8l8 -12q-19 -28 -28 -28l-20 4q0 -12 -12 -12l-8 -16h-24l-12 -8h-4l-28 4q0 -8 -12 -8q0 -12 -28 -36v-8h-8l-12 8l-28 -8l-20 12q-16 -39 -24 -40l-4 4h-4l-8 -8h-4l-4 4h-4l-8 -8q-8 0 -8 20l-44 8
q0 -12 -52 -16l-12 4v-4q-40 10 -40 16l-32 -8l-8 8h-16q0 -12 -16 -12l-4 12h-20q-9 -8 -28 -8v-4l-24 8l-28 -12l-20 36l-4 -4l-44 8l-4 -4q-11 24 -44 40l-48 16l-4 -4h-4q-24 7 -24 16h-32v-8h-8q-36 11 -36 44q-36 23 -36 48q-16 0 -16 48l-8 24l4 4q-7 0 -20 52l4 24
q-12 21 -12 40l16 24l12 12l-20 52l-4 4l4 12l16 4l4 -4h4l12 8l4 -4l20 24v12q-16 0 -16 20q-20 0 -24 36q-7 0 -12 36q-14 0 -28 24l4 12l-4 20q30 88 44 88q13 14 32 76l4 -4h4q22 0 48 52l-8 84l4 12l-8 24l12 40v24l-4 4l4 4v20l-4 28l12 4v32q12 0 24 56q15 0 52 44
l44 36h8v-8l28 40l28 -4h4q13 5 24 32q17 0 24 12l48 24l28 -24h4q36 7 36 20l16 8q4 28 12 28l44 -36l44 8q8 0 20 -24q14 -2 52 -44l12 -4l8 8l4 -4h4l16 4l20 -4q56 16 56 48l4 20h16v-12h4q14 0 28 16h4l52 -8l16 4h12q0 -9 24 -20q0 -12 16 -12l24 -28l4 4h4
q17 -10 24 -28l-4 -12q3 -64 20 -64l8 -20v-12l-8 -8h-8l-4 4h-4l-4 -4v-4l4 -48l-16 -32h4q-8 -18 -16 -20h-8v8h-8q0 -13 -28 -16q0 12 -8 12l-8 -8h-4q0 12 -12 12l-28 4h-16q-16 8 -16 24q8 0 8 12l-12 56l4 24v4l-8 12v4l4 4v4l-16 8h-16l-36 -40q-12 0 -12 -28l4 -16
l-8 -28q18 0 20 -44l8 -16l-4 -24v-12l8 -12l-4 -4l16 -44v-64q-24 -32 -48 -40q-14 0 -24 -36q-23 -9 -36 -52q-28 0 -28 8l-4 -4h-4q-8 0 -8 12h-4l-8 -20l4 -16l-48 -32l-16 4l-52 -28h-4l-8 8l-4 -4h-4l-32 12l-8 -8h-12l-12 8l-24 -20l-60 24l-4 -4h-4l-64 20
q-15 0 -20 28q-20 8 -20 24h-4l-20 -16l-4 4q-32 -28 -80 -48l-12 -12h-20v-8h-4z" />
    <glyph glyph-name="h" unicode="h" horiz-adv-x="1318" 
d="M66 1394q0 -15 56 -20q0 -12 16 -12q0 7 24 16q28 -4 48 -16l20 8l16 -4l32 4q6 -18 48 -52l-12 -48l4 -4v-4l-8 -52l4 -16l-8 -44l12 -32q0 -21 -12 -36l4 -24q-4 -16 -24 -16q0 -14 -24 -48v-12q24 0 24 -28l4 -28l12 -12l-4 -20v-4l4 -4v-4l-8 -8v-36l-20 -24l8 -16
q0 -16 -32 -28v-4l8 -8v12l16 -16l-4 -24l24 -24l16 16q16 0 32 76h4l8 -8q11 0 52 28q40 54 76 84q25 0 56 40q30 20 52 20h8l4 -4q41 7 56 28l4 4l12 4v-4l4 -4l4 4q87 -15 96 -24q29 -11 36 -24l32 -28q27 0 36 -16q12 0 12 -16q23 0 32 -48q10 0 16 -48l32 -28l-20 -32
l-4 -16v-4q16 -2 16 -12l-8 -24l4 -28l-4 4h-4v-4l8 -8l-16 -60v-4l4 -20l-12 -4l8 -32l-12 -4l12 -12l-4 -4v-8l16 -32h4l-16 -48q12 -50 32 -72v-4q0 -18 -16 -28l8 -16h-4l16 -36l-8 -28l8 -52h-8v-4q0 -44 40 -44h12l20 16h4q22 0 28 -16l28 4h8v-8h4l-12 -20l32 -36v-8
q0 -6 -32 -24q0 -44 -20 -44l-16 4l-20 -16h-8q0 12 -12 12l-40 12l-4 4q-28 -19 -28 -32h-4l-12 8l-52 -16q-49 4 -64 20v-8h-4l-28 4l-8 -8h-28l-24 24l-28 -4v4q-15 24 -24 24l8 12v12l-4 4q36 56 84 56v8l-4 4v4l8 8l20 -4l8 8l-4 24q0 7 28 16l32 128l-12 52l4 52
l-4 24q28 16 28 36h4l-4 20l8 24q-5 20 -12 20l-4 -4l-4 4v12q0 8 12 8v8l-4 -4l-16 4v4q0 14 16 32v4l-8 12v4h4l4 -4h4l8 12l-16 20l-4 -4h-8l-4 12l4 20l-4 28l4 28q-12 14 -12 32q-52 23 -52 56q-18 8 -20 16l-4 -4h-4l-20 16h-8l-12 -8q-28 28 -40 28l-8 -8h-4l-24 16
q0 -7 -40 -28l-24 -12q0 -12 -8 -12l-28 8q-28 0 -68 -32l-20 -12q-12 0 -12 -28l-52 -28l-32 20l-4 -4h-4l-4 4h-4v-16h12v-12l-4 -4l4 -4v-32q-21 0 -48 -52q-9 0 -16 -36v-4l8 -12q0 -6 -40 -28q0 -12 -12 -12v-4l60 -56l4 -24v-12q-16 0 -16 -32l12 -36q0 -14 -32 -20
v-4h8v-12l-4 -4v-4q18 0 28 -48l-4 -4l8 -36q-6 -35 -16 -48v-12h8v-8l-8 -12q20 0 48 -16q8 0 8 12h12q6 0 12 -16l4 4h4q52 -17 52 -28l4 4h4l4 -4l4 4h4q6 0 24 -36q0 -14 -16 -28l4 -16q-12 0 -12 -20l-16 -12h-36l-4 4l-24 -16l-4 4v4l-28 -16q-19 12 -52 12l-12 -16
l-68 4l-8 -8l-20 12l-16 -4q-78 17 -88 28h-8q-10 0 -12 -16h-8q0 16 -28 16q-9 17 -32 24l8 36l-4 12l4 4h8l4 -4q14 0 28 40l32 4l20 -8l24 16l8 -8h8l12 8h24v12l-12 72l28 52l4 36l-12 40l4 4v4l-4 16l8 24l-4 12q8 83 16 88l-12 28l16 12l-20 48l4 24q-8 0 -16 36
l12 24l-8 36q17 0 32 164v12q-12 0 -12 8v4l4 4l-8 40h4q20 16 20 36q-12 0 -12 48l4 4v4l-24 84v24l12 40l-24 36l-52 8l-24 -12h-4l-8 16l4 4h-4l-12 -12h-12q0 20 -36 36l-8 24l-4 -4h-4q-16 6 -16 12q28 9 28 40q13 0 28 52zM634 818h12v-4l-8 -8l-4 4v8zM338 754v-8h4
v8h-4zM1038 214h8v-12h-8v12z" />
    <glyph glyph-name="i" unicode="i" horiz-adv-x="1124" 
d="M364 1422h44l12 -8h8l24 4q13 0 40 -60q28 0 32 -92v-4l-24 -64q-6 0 -36 -48l-8 -8q0 -16 -32 -16v-4l-4 4q-13 0 -48 -20l-4 4v4l-4 -4h-4q-20 0 -68 48q0 13 -32 28l-24 40l4 24q0 8 -24 16q0 16 -8 16q10 28 24 28v20q0 15 20 32q0 12 40 36q0 20 36 20l24 -8z
M332 1238v-8h8v8h-8zM344 1222l24 -28h8l8 8q0 15 -24 28h-8zM36 1014h4l44 -8l12 4v-4l4 4h8q14 0 32 -16h4l12 8h8l40 -8l4 4v-4l36 12q46 -4 72 -24l44 12l20 -8l24 4l16 -8l20 4q26 -10 28 -20l4 4h8q0 -15 36 -36l4 -4v-4l-24 -16l8 -28l-8 -88l12 -32l-4 -76l8 -16
l-4 -64v-8l8 -40l-8 -40q0 -29 48 -36v-52l-8 -12v-8l8 -12v-8q-44 -26 -44 -48l8 -68l-12 -48q32 -16 32 -52l112 -24h4l24 -28h8q15 0 32 52h4l8 -24h28l4 4l40 -8q32 24 60 24l8 8h8q40 -32 40 -56v-40h-4l-12 4v-4q0 -19 -64 -48l-4 4l-68 -16h-8l-24 4q-28 -12 -56 -12
q-4 12 -24 12l-32 -20l-32 12l-32 -4v4l-44 -16l-32 12q-10 -20 -32 -20l-24 4q-36 -17 -36 -28h-8q0 15 -32 24l-20 -4h-12l-16 24l-12 8h-8q-38 -22 -56 -48l-16 -4q0 36 -56 36h-4v-4l-20 8q-27 -20 -48 -20q0 15 -40 24h-8l-4 -4h-4l-20 28l4 20l-4 32q0 52 56 72
q8 18 16 20h12q23 -16 40 -16l12 4l12 -12l96 24q0 -20 56 -36q60 15 60 52l-8 24l12 56l-4 32v4q19 0 32 60q-12 3 -12 32l4 44l-24 64v20l4 16l-4 4v4l28 76q0 78 -12 92l12 24v24q0 20 -8 20l4 20q0 52 -56 52l-4 -4h-4l-32 8q0 -12 -16 -20h-24q0 23 -24 32h-4
q0 -16 -12 -16l-12 12q-29 -20 -60 -20l-16 8l-4 -4h-4q-15 0 -36 16l-4 -4q-53 0 -76 44v4l4 16l-8 24q0 21 36 52z" />
    <glyph glyph-name="j" unicode="j" horiz-adv-x="951" 
d="M656 1406h8q0 -20 8 -20q19 0 84 -80h-4l20 -72l-20 -68h-8l-4 4l-4 -4h-8q0 -23 -48 -40q-14 0 -32 -12l-20 4l-20 -4l-4 16l-48 -4h-8q-40 25 -40 60q-7 0 -12 20q-28 0 -28 28q7 27 28 56l-4 36l64 60h4l12 -8h28l20 -4q0 8 24 12q1 20 12 20zM333 994q25 -19 56 -28
l8 8h4l4 -4l4 4h4l32 -4l4 4h4l12 -4l16 8v-8l-4 -4v-4l24 -12q28 10 28 20l4 -4h8l4 4q28 -5 28 -16h12q26 0 56 32l4 -4h4l-4 -4v-12q0 -7 24 -12q0 -26 12 -28l-4 -32q11 -12 24 -60l24 -64l-16 -60l8 -24l-28 -40v-4l4 -20l-4 -16l12 -56l-28 -88l20 -20l8 -32l-8 -16
l4 -4v-4l-8 -28q5 0 20 -72l-16 -28l8 -16l-12 -48l8 -12l-20 -40l4 -28l-4 -4v-4l8 -12q-12 -20 -12 -40v-4l24 -36l-8 -28l4 -4v-4l-12 -32q12 -4 12 -24q-16 -32 -28 -112q-18 0 -24 -52q-13 0 -28 -40q-44 0 -44 -24l-4 -4l4 -4v-4q-7 0 -16 -24h-4l-32 12v4q0 8 12 8
l12 -4v4q0 8 -28 12l-4 -16l4 -4l-4 -4h-32q0 -12 -24 -12v-28l-8 -8h-20l-24 8l-16 -16l-28 12l-16 -4l-20 8q0 -8 -32 -12l-16 4h-4l-12 -8q0 36 -20 36q-21 0 -40 16l-4 -4h-4l-12 4l-16 -4l-12 4l-8 -8q-6 0 -12 16l-4 4h-4l-4 -4h-4l-12 4l-12 -4v4q0 35 -28 60l4 4v4
l-12 44q-44 28 -44 36l4 28l-8 8v4l20 52l-8 16l4 20l-4 20l12 12q20 9 20 32q37 5 72 36q14 0 72 32l16 4q38 -12 56 -44q18 -20 28 -20l-4 -4l20 -84q-16 -5 -16 -36v-12q-32 0 -44 -64l-4 -4h-4l-8 8q-10 -12 -20 -12v-12q11 0 24 -24l32 -24l12 4v-4l24 -8l4 -4v4l4 -4
h4l20 4q60 -5 60 -28l40 -16l20 8l-8 32l24 28v4l-4 24q16 24 16 36l-4 12q14 0 24 36q16 0 16 40l-8 20l16 16l-12 36l8 60q0 28 -20 76l24 84h-4l4 4v28l-12 16v8q8 40 24 40q-12 14 -12 40l4 48l-4 20q12 56 28 56q20 -7 20 -20l-4 -20l24 -8v-12h4q8 2 16 20l-4 12
l12 12l-8 12l12 32q-2 30 -28 60q4 32 16 56l-4 12l12 32v12l-8 12l8 24q-12 0 -12 36q-14 8 -32 40v12l8 8q-6 32 -16 32l-4 -4q0 16 -20 16l-20 24l-56 -16l-4 4h-4q-12 0 -12 -12l-4 -4h-12l-12 8l-8 -12q-14 0 -48 24l-28 -4q-60 0 -60 20q0 9 -24 32v16q0 28 28 28
q0 14 40 28l4 4h4zM529 630h4v-12h-4v12zM537 586l4 -4v-12h-4l-8 8zM541 518v-12l-8 8l4 4h4zM597 410v-16l8 8v8h-8zM597 382l-4 -12l-20 4v-8l4 -36l-4 -4v-4l8 -24l-4 -4v-12q0 -8 12 -8q1 -20 12 -20h4l20 28q-12 64 -24 64l4 32l-4 4h-4zM601 202v-12h8v12l4 -4h12
l8 8q-6 16 -12 16zM601 158v-8h4v8h-4zM593 114l-4 -4v-4l16 -24h4v28zM277 26v-8h4v8h-4zM593 26v-4l4 -20l12 4v16l-4 -4h-4v8h-8zM597 -2l-8 -8v-8l8 -8h4v24h-4zM185 -162v-4l4 -16l-4 -4h8l12 4v12zM485 -270v-12l20 12l-4 12h-4zM413 -262h12v-4l-8 -8h-4v12z
M465 -306v-4h4l8 8v4h-4z" />
    <glyph glyph-name="k" unicode="k" horiz-adv-x="1373" 
d="M448 534v-8l8 8h-8zM252 406l4 -4l-16 -52l4 -12l-8 -24q0 -13 40 -24v-12l-12 -24l4 -20l-4 -20l4 -12h8q7 0 24 64l-12 8l4 4v16q-16 0 -16 12q0 17 20 32l4 4v4q0 25 -40 56l8 12v4zM260 454l8 -24l12 8q-5 24 -12 24zM152 1346l60 -24h8l24 4l28 -12l28 8
q20 -7 36 -40l-4 -12l8 -68l-4 -4v-4l24 -56q0 -56 -24 -68l-12 -52q-12 0 -12 24q-14 0 -20 28l4 16q-8 0 -8 12h-20l-20 16q12 0 12 12l8 24v8l-8 16l12 20q-10 0 -28 40h-8l-12 -8l-4 4h-4q-28 -14 -28 -36l12 -4v-16l4 -16l-4 -16l12 -60l-12 -60l16 -48l-4 -20l4 -32
q0 -12 -16 -28q0 -16 -8 -16h-12l-12 12v8l4 20l-8 8l4 4l-8 44l8 20l-12 32v40l-4 4l8 28h-4l8 16l-28 76l4 12l-44 28h-32q-8 0 -8 -16l-4 4h-4l-4 -4q-23 0 -44 44q36 49 72 64l4 -4h4q33 18 72 28zM548 462h1l2 -24l-4 -4v-4l76 -68l-8 -16l4 -4v-20l-4 -4v-4
q-30 15 -48 56q-31 0 -49 56h-2q-10 0 -16 32v16l28 4q8 -16 20 -16zM668 750v-24q0 -8 -24 -8l-8 -16h-12l-12 12v20zM607 476q-11 15 -16 30q-2 6 -3 12l4 16q-20 32 -52 32l-4 -4q-18 32 -32 32v8q0 36 -28 36q-45 -34 -48 -52v-4l8 -8h8q8 0 8 16l4 4h12q8 0 8 -44
q12 0 24 -52v-24q-29 0 -68 60q-20 -7 -40 -36l-32 -12q0 -19 -20 -32l-12 -40l8 -36l-16 -12l4 -48v-20l-8 -12v-8q0 -44 12 -44l4 4h4l-4 -28v-36q7 -16 44 -32l20 4h8l24 -16l28 8l8 -8q5 20 12 20h4l32 -16l16 -36l-8 -8l16 -24v-4q0 -17 -68 -36l-2 -10h-24l-4 4h-4
l2 -2q-17 12 -32 12l-24 -32l-20 -4l-24 8h-12l-20 -16l-20 4q-32 -6 -32 -20q-28 9 -52 36l-4 -4h-4l-4 4q-10 0 -16 -28l4 -4h-24l-4 4l-4 -4h-16l-20 20q-43 9 -44 92q0 13 20 32q0 16 8 16l48 -16q12 11 12 32l16 16l-4 4v4h4l-20 52l20 12l-4 20v12l4 20q-16 4 -16 16
l-4 76l12 56v16l-8 32q0 16 28 64l4 24h-4l-20 -16q-12 4 -12 24l12 60q-9 0 -12 44q9 32 20 32l-12 52l4 4v4l-8 44h4q32 0 32 16l-4 20h4l24 -20l-4 -40v-16l8 -32v-12q11 0 24 -28v-12q-22 -20 -24 -48q0 -16 48 -20l8 20l-8 44l4 4v4l-8 20q0 13 24 52l4 4h4v12
q-16 15 -16 40q-12 0 -12 20q26 64 32 64l4 16l12 4q0 -36 24 -36l4 -4v-16q-8 -60 -24 -60h-4l16 -20l-4 -4v-36l4 -44l-16 -40q13 -88 48 -88l8 -8q0 11 40 60h4l16 -4l28 20h4l20 -4q11 52 52 52q20 0 44 28l28 16h4v-8q-13 0 -24 -48l8 -24l-28 -68h12l4 4h4l24 -20
l4 -16l-4 -24q9 -2 20 -32q10 0 20 -12q10 -6 17 -12q18 -17 18 -40l40 -48l20 -12v-24q40 -32 40 -68h-4q6 -17 52 -48q0 -19 44 -24q14 -27 48 -52q0 -12 16 -12q41 31 84 36h28q0 12 8 12h8q20 -7 20 -36q26 -2 60 -40v-4l-4 -4q48 -60 48 -72q0 -31 -80 -44l-20 -16h-24
l-28 8l-4 -4l-8 8h-28l-24 4l-76 -12q-36 14 -36 28l-40 -12l-4 4h-8q-32 -2 -32 -32l-24 20l-12 -8h-8l-44 20q-88 0 -88 52q34 34 40 64q42 6 56 20l-32 64q-21 0 -44 68v12l32 4l4 -4q10 0 20 -24q58 -27 64 -56q25 -36 40 -36l16 12v44l-24 36q-17 28 -48 28l-4 4
q-16 0 -16 24l-48 24v24q-32 17 -32 80q-5 4 -9 8l-10 12q-1 1 -1 2zM996 1014q81 0 88 -56q16 -22 16 -48q-24 0 -36 -16l4 -4v-12h-4q-28 10 -28 20h-4l-16 -12q-12 12 -28 12v4q-10 -8 -40 -8q0 -23 -60 -40q0 -11 -36 -24q0 -15 -44 -32l-20 4q0 -20 -68 -28l-16 -16
q-13 16 -40 16l-12 12v4l12 12h40q3 28 16 28l4 -4q0 9 40 12v4l-4 4v4l4 12l-4 -4h-8q0 28 -16 28h-12l-4 -4h-4l-52 52l-4 20l24 24l44 -16q0 12 52 24q8 24 20 24l56 -20h4q20 0 44 16l12 -8z" />
    <glyph glyph-name="l" unicode="l" horiz-adv-x="1287" 
d="M370 1358l16 -20l20 12l36 -4l4 4v4l20 -4h8l4 4h4l8 -20h4l4 4h4q0 -6 32 -20q0 -14 48 -24v-8q15 12 36 12h12q0 -18 36 -24l4 -4v-4l-4 -24l4 -4v-4q-3 -24 -8 -24l8 -100h-4l4 -4v-4q0 -29 -16 -32l12 -60l-8 -8v-4q9 0 36 -44v-8q-30 -18 -40 -60l-12 -12
q4 -48 12 -56v-4l-8 -28l-16 20l-20 8l-4 -4l-4 12l20 52q-4 41 -12 52q4 32 16 48q0 20 -12 20v16l4 20h8q0 -16 8 -16l4 20q-9 24 -20 24v8q0 8 20 8v4q0 28 -24 28v24l4 24q-19 35 -60 64h-12v-12h-4l-12 8v-4l-4 4h-4q-10 -2 -20 -28l16 -76q9 -2 28 -60
q-16 -17 -20 -36q16 0 20 -24q-8 0 -12 -32l12 -12h-8v-4l8 -24q-36 -32 -36 -56l20 -52l-4 -4v-24h-8v-40l4 -24l-12 -24l12 -12v-8h-12q0 -18 12 -36l-8 -24l12 -12v-16l4 -48q-28 -13 -28 -36l8 -12l-8 -24l44 -56h-8v-8l-20 -64v-12l4 -4l-4 -4l4 -20l-4 -20l20 -24
l-4 -16l4 -12l-28 -44v-8l4 -4l-4 -4v-4l4 -20l-4 -12l20 4h8q8 0 8 -20l28 -28q21 0 44 64q0 12 28 12q-11 44 -44 44v4q0 29 16 32v-8h8l-4 4q3 11 20 20q9 0 12 -28l-4 -16q0 -9 24 -32l12 -28h-24v-12q17 -44 32 -52v-4h8q0 12 8 12h4l8 -8q15 0 28 48l20 -12
q18 16 28 16l12 -4q0 10 36 12l16 -8q8 0 24 20q12 0 12 -20q27 -7 56 -48l40 -8q10 28 36 28l16 -8l4 4h4l44 -36l-4 -24l4 -4v-4q-2 -17 -36 -56q-8 -16 -20 -16q-16 0 -24 36h-4l-12 -8h-8l-12 8v-4l-4 4h-8q-32 -35 -32 -60h-8l-4 16l4 12l-4 4h-4v-8h-4v8l-20 -4l-4 4
v4l4 4q-6 16 -12 16h-16q-20 -8 -20 -32h-4q-20 24 -56 28h-36l-36 4q-64 -10 -64 -32l-12 -12q0 8 -28 8q-6 16 -12 16h-16l-20 -4l-8 8q0 -20 -8 -20l-24 -4l-28 4q0 -12 -28 -12q0 -16 -16 -24l-4 4h-4l4 20q-29 45 -48 56q-41 -28 -76 -28h-4l-12 8q-17 -4 -20 -20h-4
l-24 16h-16v-8h-4l-48 20l-12 -8l-20 4l-32 -8h-4l-44 8h-4l-4 -4l-4 4h-40q-32 15 -32 40l4 4v4l-12 36q0 25 40 40l12 -4l4 4l8 -8h4q0 12 8 12q22 0 28 -16l4 4h4q14 0 40 -16l20 12l32 -8h16l16 12l28 -8l24 32q0 -12 8 -12h4l12 8h4l20 -4q0 12 20 12q0 9 40 20l12 52
l-8 24l16 28l-12 32l12 28l-8 36l8 52l-4 32l4 16l-20 24l12 36h-4q16 24 16 44l-4 12q4 35 12 44q-9 0 -16 36l4 4v4l-4 4l4 20v8l-8 32l12 52q-13 0 -28 52l4 20l-4 24l12 28h4l-4 28l8 8q-16 21 -16 36q36 9 36 28q0 9 -32 36q8 25 20 28q-7 6 -12 104l-12 12l-12 -4v4
q0 12 -40 12l-12 -4l-16 4l-16 -16l-24 8h-24l-52 -12l-4 4h-4l-12 -4q-8 18 -16 20q0 -16 -8 -16h-12q-8 0 -8 20h-12l-20 4q-4 -20 -20 -20v4q-28 22 -28 64q-22 0 -24 72q25 0 60 24l20 4q0 -12 16 -12l20 12h20q17 0 32 -12l80 8l8 -8h4q0 12 8 12q14 -16 28 -16h8
q18 24 44 24zM638 742h4v-16l-8 -8l-4 4v12zM638 702l4 -20q-6 -16 -12 -16l-4 12q4 24 12 24zM646 274h4v-8h-4v8zM658 178l-8 -8v-8h8l4 12v4h-4z" />
    <glyph glyph-name="m" unicode="m" horiz-adv-x="1418" 
d="M116 1006q10 -20 32 -20h12q8 0 8 12l4 4h8l24 -24h4l4 4l24 -20q8 0 8 -12l-4 -12q8 0 8 -12q0 -38 -40 -88v-4l12 -12q40 3 40 20h24q16 9 16 32q21 0 52 32q24 0 24 20q24 0 24 24q30 28 60 40h8q25 -28 48 -28l8 12q76 -36 84 -52v-16l-4 -4q29 -38 40 -76h4l4 4v-12
q8 0 8 16q19 0 32 36q8 0 8 12q54 15 112 84q38 22 76 24l4 4l32 -8l16 8q72 0 72 -28l12 -12l-8 -20q76 -55 76 -64q0 -26 12 -52l-4 -4v-4l8 -32q-10 0 -16 -32l4 -4h-4l4 -12q0 -28 -12 -28q0 -34 24 -72l8 -36l-28 -32q1 -18 16 -36l-8 -32v-16l4 -4l-12 -56l8 -28
l-4 -24v-12l16 -44l-4 -4v-16q0 -56 16 -108l-4 -16q100 -48 100 -84q0 -67 -32 -112h-36l-28 -8l-20 24q-30 -4 -40 -12h-4q-21 19 -68 24l-4 4h-4q-12 -10 -52 -20q-3 24 -44 24q0 16 -20 32l-4 16l4 4v4l-4 12q0 19 28 36l24 -8l16 8q2 -16 12 -16h8q0 24 28 24l8 24
l-4 24q4 46 20 84q-12 3 -12 32h4l-8 36l4 4v4q-16 24 -16 40q11 84 20 84q-7 40 -12 40l8 48q-12 0 -12 28q24 40 24 52l-8 64h4q-17 18 -24 100l-20 24l4 4v12h-8q0 12 -8 12h-8q0 -12 -20 -16q-3 12 -40 20q-48 -3 -48 -24q-12 0 -32 -20l-40 -8q-7 0 -36 40l-4 4h-4
l-4 -4q-11 0 -16 -32l-4 -4h-12v8h-4l-8 -8l20 -28l28 -4v-8l-20 -16q0 -28 -24 -28l-8 -20h4q-12 -36 -20 -36h-4v4q0 27 24 52q-8 0 -8 12q-20 0 -20 -92l12 -12l-4 -4l8 -36l-4 -20q22 -116 32 -116l4 -24l-16 -16l8 -20q-10 -1 -28 -28v-4q32 -18 32 -64v-4
q-20 0 -20 -28l4 -20l-12 -4v-8l8 -32l-4 -24q15 -30 24 -32l20 4q0 -9 40 -20l32 -56v-12q0 -20 -36 -48l-12 8l-32 -20l-32 28q-26 0 -40 -24q-80 0 -124 56v12l16 52q13 15 40 24l16 44l-4 4l4 20q0 60 -20 112v20l4 4q12 15 12 32l4 4l-12 48l4 36l-4 60l8 24l-4 24
q11 10 16 60q8 0 8 16q18 0 32 20v4h-8l-16 -12l-8 20q0 16 16 28l20 -12l12 20l-4 24v8h-20v-8l-20 4l-4 -4l-8 24l4 4v4q-46 56 -48 96q-20 6 -20 16h-4q-21 -28 -52 -28l-24 -4v-4l-12 -12l-4 4l4 20l-32 32h-20q-49 -64 -72 -64l-8 -36l8 -32v-4q0 -33 -40 -72l-16 -72
h4q27 0 36 -40q-5 -32 -16 -32l-12 12v-16l8 -8h4q0 -12 -12 -12l-4 -4v-4l8 -44l-4 -24l4 -44q-28 -42 -28 -60q15 -7 32 -60l-20 -28l8 -12l-4 -32l32 -44q17 -36 24 -36l12 -8l16 8q36 -25 36 -52l12 -20q0 -31 -48 -44h-16l-12 8h-20l-48 -44h-8l-8 8q0 8 -32 8v4
q-13 -1 -48 -40l-12 -4q-10 0 -28 32q-62 48 -72 72q0 88 36 88l36 8q0 -8 36 -12l8 16l-4 24l4 4v4l-4 4v4l8 24q-13 36 -24 36l4 4v20l-8 8l16 56l-16 64l8 56l-4 4v4l12 80l-8 24q3 24 8 24l-4 4v24q0 60 16 72v4q0 20 -12 20v24l-12 4l12 68l-16 32l-4 -4h-4
q-15 12 -36 12l-20 -4l-40 28l-12 24q7 84 40 84q37 0 56 16z" />
    <glyph glyph-name="n" unicode="n" horiz-adv-x="1307" 
d="M264 1044q5 -20 20 -20v-12q0 -14 16 -32l4 4h12l4 -20v-4l-4 -4v-4l4 4h8q11 0 68 -36l-4 -36l4 -4h8q30 0 44 28q25 17 36 44h4l8 -8l52 28h4l16 -4q41 36 68 36h8l4 12l4 -4h4l12 4l12 -4l4 4l28 -20l76 12h8q0 -16 68 -56q4 -16 24 -16h16l12 -44l-8 -8l4 -24l-4 -12
l8 -16l-4 -20l20 -20l-8 -12l24 -56l-4 -16l8 -24q-16 0 -28 -44l24 -40q-7 -66 -20 -92q-8 -32 -28 -32l-8 -20v-16q27 -51 48 -56l16 20h4v8l-8 32q16 38 16 72v12l-8 8l8 24l-4 4v4q9 8 28 8l4 12h8v-32l-4 -4q0 -12 12 -12v-12l4 -16l-4 -16v-8l8 -12v-36l-4 -16l20 -40
h-4q-20 -1 -20 -8l4 -32l-4 -16l8 -48l-4 -16v-12q12 -15 12 -28v-12l-4 -36q0 -40 44 -40v-8l28 4l12 -28q-8 -12 -8 -32h-4l-4 4h-4q-13 -40 -24 -40l-12 4q0 -15 -56 -28l-12 -20l-12 4l-28 -12h-4q-27 0 -40 16l-4 -4h-4l-4 4h-4l-12 -4l-28 16l-32 -4l-4 4h-4l-16 -8
l-4 4h-4l-24 -8h-4l-44 32v4l-20 -4h-8q0 20 12 20v8l-8 32l32 40q18 0 52 20l24 -4q0 6 36 28q0 10 24 24l4 -4h4q8 0 8 12l-8 16l8 24q-8 0 -8 12l12 28q0 20 -8 20l8 32l-4 12l4 4h24v12l-4 12h8v12q-32 8 -32 24l4 20l-4 36l4 20l-12 24l8 12l-8 60l8 16l-4 32
q9 13 16 56h-4l-12 -4l-4 4v4l8 8l-4 4v4q0 10 16 12v4l-32 60l4 28q-9 32 -36 44q0 25 -40 36l-12 -12q-6 8 -44 8l-40 20q-36 -27 -36 -40q0 -24 -12 -24l-24 4q-8 0 -56 -56h-4l-20 4v8l8 24h-4l4 4v4l-16 12q0 -12 -20 -12l-8 8q-44 -65 -60 -72l-12 -20l4 -4l-8 -16
q0 -16 24 -16l4 -12q0 -21 -28 -36l-12 -28v-12h8v-16l-16 -56q16 -6 16 -28v-8l-4 -4l12 -20v-8l-8 -48l8 -24l-4 -16l8 -72q-12 0 -16 -96l24 -72l-4 -28h4l24 -16l4 4h4l12 -4v4l12 16h4q2 -16 28 -16l16 4l8 -12l4 4h4q32 0 32 -24l20 4q20 -31 20 -56q-2 -15 -48 -32
l-12 4v-4l-28 12l-24 -12l-12 4l-8 -8l-20 4q0 -10 -40 -12l-8 8h-12l-12 -8l-40 16v-4l-4 -16h-8l-4 4l-28 -20h-4q-12 0 -12 28l-60 12l-4 -12l-20 4l-24 -8q-4 12 -24 12h-28q-11 12 -52 20v8h-4l-16 -8l-28 4l-12 -12h-20l-8 36q10 40 28 40l12 -4v4q0 18 36 40v20l8 8
h4l4 -4h4l8 8q15 -12 56 -12q40 20 64 20v20q0 20 12 20l-4 32l4 4v4l-8 20l4 28l-8 16l8 28l-8 12l8 24l-4 24l8 8v28l8 32v52l-16 24v4l20 48h-4q-20 0 -20 12l4 4q0 12 -16 12l-4 4v16q20 15 20 24l-16 24v4q23 19 44 104l-4 24q10 0 12 36h-4l-4 4l-12 8q-33 0 -56 -20
h-16q-21 0 -48 20q-8 0 -8 12l-4 4h-4l-12 -8l-28 20v12h8v8l-24 20l-12 -16l-12 4v12l8 32v12l48 28h16v-8h28l16 12l4 -4l4 4h20l20 -4l8 8q5 -16 36 -16q0 22 28 24zM956 872q9 0 24 -44q-9 -24 -16 -24h-8v4l4 20q-9 0 -12 28h-4q6 16 12 16zM976 804l8 -8l-4 -24
q13 0 24 -40q-3 -24 -8 -24l8 -32v-28q0 -48 -16 -48q-12 3 -12 32l8 32l-4 16l4 16h-4l4 4v4q-4 15 -20 24v16q12 33 12 60zM488 776h8l4 -12q0 -28 -44 -40l-4 4q9 44 32 44zM376 716v-8h8v8h-8zM356 708q0 -8 -12 -8l-4 -20h4l-4 -4v-8l16 -20v-4q-32 -21 -32 -40l-16 -8
l8 -28l-4 -28q12 -23 12 -56q0 -12 -12 -12v-40l-4 -4l12 -48l-8 -12l16 -28q8 0 8 12l-4 12q8 0 8 20l4 4h4l4 -4l4 12l-8 16l12 32l-8 12l8 20q-7 24 -16 24l8 12l-4 60h4l20 4l12 -4l12 44q-20 23 -20 40l4 4h4l4 -4h4l4 4v4q-16 0 -16 20q-13 24 -20 24h-4zM252 624v-8
h4v8h-4zM932 364v-8h4v8h-4zM924 328l4 -12l-4 -24l8 -24v-8l-12 -16v-4l8 -8l4 4h4v-20l4 4q7 8 20 8l4 16l-16 52l4 16l-8 16l8 20l-4 4h-8q-7 0 -16 -24zM336 264v-4h8v4h-8zM348 256q0 -16 -8 -16t-8 12h-8v-8l28 -36l8 8l-8 28l4 -4h4v12zM948 220v-4l8 -8v12h-8z
M968 180v-16l8 -8l4 4v8zM1112 68q9 0 20 -24q-7 -28 -16 -28q-10 0 -16 32v4zM216 52v-12l12 8l-4 12z" />
    <glyph glyph-name="o" unicode="o" horiz-adv-x="1145" 
d="M404 1062q23 -21 84 -36q8 0 8 20l36 -8q6 16 12 16q33 -28 72 -36l12 -8q12 0 12 24l16 4l16 -48h4l4 4q84 -22 84 -52q9 -15 44 -24l8 -20l-4 -32q17 -56 64 -56l4 -4v-4l-8 -16l16 -36h-4l32 -60q0 -46 28 -64v-8h4l-4 -4v-8l12 -20l-20 -84l20 -56l-8 -32v-44l-4 -4
l4 -12q0 -28 -32 -48q-5 -31 -24 -44q0 -21 -32 -40q0 -10 -36 -28l-24 -84h-20q-14 -15 -72 -40q0 -21 -40 -36q-2 -10 -36 -20l-24 4h-20q-7 -14 -76 -20l-12 -8l-20 4l-20 -4q0 14 -44 20l-16 -4l-20 8l-28 -4q-31 52 -56 52q0 11 -20 20l-32 -8q-8 28 -16 28v-4
q-19 6 -36 28q-17 0 -28 28q-30 28 -68 28l-8 8l4 24q-12 19 -28 80q-40 33 -40 96l-24 20l4 12l-4 4v4l16 64l-16 64v4l4 20l-4 24v4l40 52l-4 4v4l8 20l-4 4v4q0 34 36 56l8 16l4 -4h4q32 7 32 16q-12 18 -12 36l24 32l-4 24v4q28 0 28 20q32 0 32 40q16 0 16 16h16
q20 0 32 28l16 8l16 -12l32 20l8 24l-4 12l24 24h12q4 -24 12 -24zM416 866h-8q0 9 -36 16q0 -12 -16 -12q0 -24 -8 -24l4 -20l-4 -16h-4q-37 36 -48 36l-24 8q-21 -48 -56 -48q-19 -21 -36 -24q-28 -35 -28 -56l4 -32q0 -9 -24 -28l-8 -24l4 -28l-20 -84v-72q20 -20 20 -52
q-16 -4 -16 -16l8 -24l-4 -4q33 -37 36 -60q0 -8 40 -36q8 -24 60 -68q0 -28 48 -36q0 -12 68 -20q3 -24 24 -24v4q0 12 16 12l8 -24h4q17 16 32 16l4 -12h12l44 16l4 4h24l24 4l20 -4h4q26 15 64 56q16 0 28 32q44 5 44 16q16 0 28 52l4 4v12q0 8 -12 8l-4 4v8q22 0 72 68
l40 108q-10 0 -12 52l-16 60l-24 40q-6 0 -16 76q-41 24 -48 44q-36 9 -60 48q-20 0 -20 20l-24 20v-4l-32 8q0 -7 -36 -16q-14 48 -52 48h-12l-16 -4l-24 8h-4q-13 -20 -40 -36zM272 846l8 -8h-8v8zM28 254h8l8 -8l-8 -8h-8v16z" />
    <glyph glyph-name="p" unicode="p" horiz-adv-x="1238" 
d="M688 1126h8v-28l-4 -24l4 -4v-4l-4 -12l16 -12l4 4h8l48 -16l32 -56q32 -11 48 -32q24 0 24 -12l12 4q25 -8 36 -32l-4 -4v-8l16 -36q0 -17 32 -52l-4 -36l12 -4l24 4l16 -8l16 4v-8l-16 -64v-44q8 -24 40 -24l4 -4v-4l-8 -32l4 -16q-10 -36 -24 -36l4 -4v-4
q-2 -40 -12 -40l-4 4h-4l-4 -4v-4l20 -32l-4 -4l4 -28v-16q-19 -84 -36 -84q-36 -39 -36 -80q-28 0 -28 -28q0 -19 -8 -28l-16 4q-40 -4 -40 -32q-16 0 -16 -12l-48 28q-8 0 -8 20h-4l-8 -28l4 -44q-52 -20 -52 -44l-16 20l4 4h-28l-32 8l-36 -4h-4l-16 16q-20 -5 -20 -12
q-34 11 -36 28q17 56 48 56h4v-8h8q0 11 68 24l48 -4q37 0 44 28l32 24l36 56q0 12 12 20q0 16 8 16l12 -4l4 4q-4 40 -12 40q0 48 28 48q0 8 16 8l24 48l-4 4q-8 0 -8 12l16 32l-12 76q12 0 12 16h4q-8 16 -8 44q1 20 8 20q-5 60 -28 60q0 7 -44 24q0 8 -28 24l-24 44l4 40
q-16 17 -60 24q0 16 -88 32h-4l-20 -4l-28 12h-8q-6 -40 -16 -40q-32 2 -32 24l-4 -4h-4l-12 8h-12q-18 -22 -40 -24q0 -12 -8 -12l-24 8q-28 0 -28 -20l-52 -40l-8 8v16h12v4l-16 16q-18 -8 -20 -16l8 -12l-4 -4l4 -4q-11 0 -20 -20l-24 8l-4 -4v-4l24 -72l-4 -44l4 -12
q-6 0 -20 -28q13 0 24 -20v-28q-32 -47 -32 -72l-4 4h-4l4 -4v-12h-8q20 -34 20 -88q9 0 12 -28l-4 -16q27 -104 56 -104q0 -15 36 -44l8 8q10 -36 24 -44l8 8q28 -3 28 -36l4 4q12 0 12 -20l24 -20l12 4l8 -12v-8q-11 0 -20 -20q-22 -4 -36 -16q-14 16 -36 16
q-24 27 -24 36l12 20v12l-32 8q-20 0 -32 -40h-20q0 12 -8 12h-8q0 -12 -8 -12l-4 4h-8v-4h8l-8 -56q7 0 24 -40l-8 -32v-20l8 -28l-8 -48l12 -96l-8 -16l4 -12l-4 -12h4l4 -4l28 -24h12l8 8l20 -4l12 8l16 -8l28 4l8 -8h4l4 4q26 -6 40 -24q16 0 16 -36q0 -35 -20 -56l4 -4
v-4q0 -24 -64 -28l-20 -16q0 12 -36 12l-20 -4l-8 8l-16 -12h-4q-11 14 -48 20q-30 -10 -48 -28l-16 32h-4l-36 -8v4l-8 8l-16 -12h-12q-15 12 -56 16q0 10 -20 12l-4 4h-4l-24 -12v4q-4 24 -20 24l-16 -4l-16 20v8q18 18 36 64q30 20 64 20l28 -4q68 0 68 36l28 48h-8
l-16 -12h-4v4l4 4q-20 30 -20 44v4l4 16l-16 32l24 72q7 0 12 28q12 0 12 24h4l-16 44l8 24q-12 40 -28 52q-52 12 -52 40q12 0 12 16l52 28q0 34 28 68v8q-16 36 -16 56q0 12 16 12v36q-18 0 -32 104v28q0 13 12 28l-8 8l4 16l-4 12l4 32l-8 48l8 32l-8 8l4 4l-8 36h-4
l-4 -4l-40 20v8l4 4v4q-19 0 -32 24h-8l-4 -4h-4q-24 20 -36 20v4l-4 -4q-24 0 -40 24q-20 6 -20 28v4q32 42 32 80q29 0 36 20l12 -8l44 8q0 -9 40 -16l24 8h8q0 -10 24 -20h4l4 4h4l8 -8l4 4l44 -12l4 4q10 -11 12 -48q-16 -20 -16 -32v-8l32 -32q26 0 48 48l12 4
q0 18 36 36l28 36q0 12 8 12h32q23 0 44 20l4 -16h32l60 24l8 -8l40 56v-8h12zM160 886v-12l8 -8h4l-4 20h-8zM388 886v-8h8zM144 866v-4h8v12zM944 490v-4l8 -8l4 4v4l-4 4h-8zM232 -142v-8h4v8h-4z" />
    <glyph glyph-name="q" unicode="q" horiz-adv-x="1055" 
d="M356 1050l68 -20l28 4v-4l4 -4h4l4 4q8 0 8 -12q80 -10 80 -32q32 -5 32 -20l28 -36l-4 -4l19 1l14 -6h11l8 9h4l23 33l20 8l25 5l3 -5l21 3l3 -1l19 -3l13 -13l1 -11l-10 -7l8 -2l-8 -26l9 -9q-13 -18 -13 -46h-8v-4l4 -4q0 -25 2 -78v-4q16 -15 20 -44q-8 -2 -16 -20
l16 -64v-4l-4 -4q0 -12 -12 -12v-4l16 -56v-24l-8 -8l4 -36l-16 -56v-16l8 -24l-16 -68l4 -12l-16 -48v-8q23 -27 24 -64q-15 0 -20 -48v-4l4 -4l-4 -4q20 -21 20 -36v-8l-4 -12q-8 -89 -16 -108l8 -12v-24l4 -28h-4v-8l12 -24l-12 -48v-12q0 -8 16 -8q24 -28 32 -28h4l4 4
q48 -24 64 -24l12 4v-4l40 8h4l32 -8l20 4l28 -4v-40q0 -7 -28 -24l4 -32q0 -9 -36 -12l-28 24h-20l-24 -8l-32 4l-4 -4v4l-4 4l-16 -4h-4l-4 4l-48 -8l-4 4l-20 -12l-24 12l-56 -4h-4l-24 4l-40 -8l-24 4l-24 -8q-11 10 -40 12h-4l-12 -8l-32 8h-12l-16 -20l-20 4
q-4 33 -20 68l8 24q0 19 96 36l12 -4h4l4 4l16 -4l12 8h24q26 -24 48 -24l12 12l36 -4q8 0 12 28v4l-4 4v4l4 4l-12 20q8 48 20 48q0 16 -20 28l4 28v28l8 8l-4 28l4 20l-4 4l4 12l-4 12l8 24q-21 68 -48 68l-24 -8h-4l-4 12q-9 0 -16 32q56 92 68 92h4l-4 40l44 84l-8 12v4
l8 32h-4l12 64l-16 44v16l12 56l-24 40l4 20v8q-19 25 -28 56v4l4 4q-7 16 -16 16v12q-12 48 -48 48l4 16l-8 12l-12 -4q-16 0 -16 12h-4l-4 -4q-32 27 -32 36h-12q-15 -12 -28 -12l-8 20l-48 -4q-7 -28 -24 -28l-8 8q-7 0 -12 -20l-12 4l-16 -4h-4q0 21 -28 32l-12 -4
q-76 -52 -76 -60q-52 -38 -52 -60q-24 -16 -24 -32v-32l4 -4q-4 -28 -20 -52l4 -40l-16 -40v-16h-8v-4q0 -30 -12 -56l8 -56l-4 -12l4 -20l-8 -12l36 -20q14 -55 40 -80q68 -76 68 -100v-8l-4 -20h4v-8h16l4 4l12 -20h-4l8 -12l32 4q44 0 44 -20l-8 -32l12 -12h4q0 24 20 24
l56 56q16 0 16 8l44 -8l12 4v-4q76 -11 76 -24v-4q0 -32 -28 -32q-13 -28 -28 -28q-16 -20 -24 -20l-8 8h-8l-12 -32q-15 0 -32 16h-20l-20 -4q0 5 -44 12q-36 -12 -36 -32h-8v4l-36 20q-36 0 -36 44l-76 8q-16 -10 -16 -32h-12l-12 52q0 8 16 8v20q-35 0 -60 84
q-36 17 -36 44q-36 25 -36 56l28 16l-4 12l4 28l-32 12q0 17 -24 40q20 32 20 48l-8 32l4 4v24l-24 28v4q7 16 16 16v20l8 28l-4 16l8 20l-4 16v8l12 28q24 0 24 16l32 48l-4 40h16q15 32 24 32q10 32 20 32q0 20 16 20q0 28 24 28q12 29 48 48h16v-8h8q96 31 96 72v4z
M96 406v-12h8v12h-8zM-96 -98h-4v8h4v-8z" />
    <glyph glyph-name="r" unicode="r" horiz-adv-x="1218" 
d="M770 1040h8q20 0 36 -24q41 0 76 -48q11 0 28 -20q8 0 36 -28q24 0 24 -36q0 -28 28 -40l8 -36l-4 -32l4 -16l-4 -12l8 -32q0 -23 -20 -52l-28 4h-4l-16 -16q-11 0 -24 32q-30 -16 -76 -20l-4 -4h-4q-36 23 -48 52l4 24l-12 12q32 33 60 80q16 0 16 24v16q-24 17 -24 44
l-56 8h-12q-25 26 -44 32v8q-28 0 -28 -24q0 -8 -44 -12l-4 12h-8q-22 -56 -60 -56l-8 -16v-4l20 -16h4l40 28l8 -8q0 -15 -32 -36l-4 4h-12q-6 0 -16 -28q-12 0 -12 -16q-12 0 -12 -12h-4l-8 8v12l8 28l-4 -4h-4l-4 4l4 4v8l-8 8v-4l-4 4h-4q-8 0 -8 -12q-12 0 -12 -16
q-40 -4 -40 -28l4 -12h-8l-16 12q-28 -18 -36 -56l4 -4h4l20 8l4 -4q0 12 28 12l16 8q0 18 28 32l12 -4q0 -40 -32 -40q-4 -44 -36 -44q-3 -11 -20 -20h-4v24h-4l-12 -8l-24 16h-4q-9 0 -12 -20l4 -20l-4 -4v-4l4 -16h20l16 12h4l12 -12v-16l-16 -20v-20l12 -48v-16l-8 -16
h-4l-28 44v8l16 20q-10 0 -12 16h-8q-9 0 -24 -56l8 -28l4 4h4q15 0 40 -36q16 0 24 -72l4 -4l-8 -44h8v-4l-8 -12l4 -16l-8 -24h4l-8 -40l16 -36l-4 -4v-48l8 -8l12 4q12 -32 36 -32l4 -4h8q0 16 16 20l16 -4l8 8l12 -4q12 13 12 24h8q11 0 48 -24l12 4v-4q13 0 68 -72
q8 0 28 -32v-4q-27 -30 -32 -52q-27 20 -56 20l-8 8l-20 -12l-8 8h-4l-32 -8l-4 4h-4l-16 -8l-32 16q0 -15 -60 -20l-4 -4l-4 4h-4l-12 -8l-4 4l-28 -4l-20 4q0 -16 -12 -16h-24l-24 20l-12 4v-4l-4 -4l-24 8l-8 -8h-32l-28 4l-20 -24l-16 8l-32 -8q0 12 -60 24
q0 -16 -12 -16h-4l-56 52q-15 36 -20 84q11 40 52 40q0 -8 24 -8v-4l36 8l52 -16q40 4 48 12l4 -4h4l16 4l12 -4v8h20q8 0 16 32l16 4l-8 24l8 40l-8 36l4 72q-8 0 -8 24l-4 4q-3 24 -8 24l16 60l-8 28q7 71 24 88v8l-12 32l4 64l-4 12l4 4v4l-4 32l24 80v24q-12 0 -12 20
l-20 8l-8 -8l-36 12q0 -8 -12 -8l-52 4l-16 -12q-28 0 -28 24v16l-68 -32q-44 16 -44 28l-12 32q0 52 28 84l40 -12h4l32 4q47 -16 120 -20v4l4 -4h4q17 14 48 16l4 -4h4l4 4h4l28 -12l4 4h4q56 -43 56 -96l36 -28l4 -4v-4q44 11 44 44q68 48 68 88h8l4 -4h4l8 8h8
q3 -20 12 -20l4 4v-8h4q6 0 12 16l4 4h4l12 -12h16l12 12l52 -20h4v4l-4 20q23 32 52 32zM722 980v-8h4v8h-4zM694 876h12l4 -12l-12 -8l-8 8zM362 496l-16 -36h4l-8 -32l16 -12l-4 -4v-8h4q8 0 8 20q16 4 16 20l-12 20l8 8q-5 24 -12 24h-4z" />
    <glyph glyph-name="s" unicode="s" horiz-adv-x="1273" 
d="M828 1100q34 -44 60 -48l16 4l16 -4l40 4q0 -11 52 -16l16 16q9 0 12 -40l-4 -16l4 -40v-8l-8 -12l12 -48v-20q0 -23 -32 -68l-4 -12l8 -20h-4q0 -12 12 -12l4 -4v-4l-4 -16q8 -12 12 -48q-48 -30 -48 -36l-44 16l-44 -8q-24 21 -24 36l-20 28q-12 0 -12 8l12 4v20
l-20 20h-16l-8 -16q0 -21 12 -36l-4 -4l4 -12q-4 -36 -16 -36q-21 0 -24 12l-4 -4h-20q-20 8 -32 40l-12 12v28q-9 0 -24 24l4 20v4q-7 28 -60 28q-35 35 -44 36l-24 -4l-16 24q0 24 -40 24q-3 -16 -32 -16q-10 -23 -48 -56q0 -20 -40 -36q-20 -14 -20 -36l-20 -24v-4l4 -16
l-4 -16l24 -44q10 0 68 -40l32 4l60 -12l84 16q17 0 60 -40l20 -4l16 4l24 -12l52 8h8q16 -12 64 -24l36 -32l8 -12q18 16 40 16q0 12 12 12q31 0 60 -52q0 -9 36 -40q8 -64 28 -64q13 0 24 -20v-4l-12 -12v8h-8v-4l4 -12q-9 0 -12 -28l8 -28q-14 0 -24 -48l4 -16
q0 -29 -44 -48q-4 -32 -24 -32q0 -10 -20 -16q0 -27 -44 -40q-12 -12 -20 -52q-14 -20 -28 -20l-16 8l-100 -36l-36 12l-52 -4q-20 12 -40 12l-20 -4q0 14 -124 20l-4 4l-48 -16l-36 4q-34 0 -48 -24l-28 16q-12 -4 -12 -24h-4l-20 4l-12 -16h-8q-25 31 -64 52q-5 23 -56 68
q-9 0 -40 -44q-14 0 -64 -28h-20q-24 0 -36 80q12 69 36 140l-20 68v12l4 4l-20 68q10 34 36 64l32 4l24 -24l4 4h4q39 -38 52 -72q13 0 48 -20q29 13 52 40h4q28 -37 52 -56v-8l-4 -20q44 -14 44 -52q27 -64 44 -64l56 -12l4 4l64 -32l12 -4q26 12 48 12l32 -4q14 31 60 48
q0 10 32 28q1 17 32 48q0 36 24 36q12 0 12 8l-4 12l4 20q-16 49 -52 68q-7 28 -52 28l-8 8v4h-4l-24 -16l-100 68l-4 4l-56 -12l-20 16q-46 -5 -52 -12h-12q-8 0 -8 12l-4 4h-4l-8 -8l4 -4l-4 -12h-12l-20 4q-44 -5 -44 -12q-16 6 -24 20l4 16q-48 22 -48 28q0 27 -52 36
q-16 23 -52 32q0 10 -28 28q0 29 -32 108l-8 24q0 34 40 80h8q1 -32 16 -32h20v-12h8v28q-36 43 -40 80l4 4h4l28 -4l8 8h20q15 0 20 -56q-44 -52 -44 -80v-4l24 -64l-4 -16q35 -18 52 -56q13 0 32 -24l12 12v8q-25 59 -40 68l12 52l-4 28l28 100q-4 28 -16 48q0 48 48 48
q0 48 84 48q0 8 80 12v-4l24 12h4q27 -20 44 -20l4 4h4q32 -10 32 -16l24 24h32q43 -32 64 -32q32 5 68 40q50 0 60 24h24zM868 596l8 -8h-8v8zM864 360l-4 4h-4q-7 0 -16 -36q-9 0 -20 -44l8 -32l-4 -36h4q26 6 32 16l20 -4h8l36 60v12l-8 24h4l-4 4l4 20v20q0 28 -28 28
h-12q-8 0 -16 -36z" />
    <glyph glyph-name="t" unicode="t" horiz-adv-x="1110" 
d="M368 1341l24 -4v4q25 0 57 -147l-12 -16l21 -82q0 -12 -13 -12l-4 -4v-4l8 -17l-4 -4v-4l37 -61h4l12 8l5 -4h4v4l4 -4h4l16 4q0 -19 25 -37h16q0 15 20 21v-4q36 29 86 32q0 8 37 9l20 -25q28 11 115 25v-25h20q12 -4 12 -24v-41l8 -12v-9q-22 0 -57 -49q-12 0 -12 17
h-4l-33 -33q-8 0 -16 25l-4 -5h-33l-4 21l-49 -16l-8 8l-16 -4l-29 4l-8 -8q-11 12 -53 20q-18 29 -25 29l-32 -21h-13l-12 8q-26 -17 -49 -65q3 -37 8 -37l-4 -4v-57q11 -10 17 -61q-17 -31 -17 -49l4 -4l-4 -21v-24q0 -8 12 -8v-13q1 -28 9 -28l-4 -21v-20l28 -16v-8
q-9 -24 -33 -33v-8q0 -11 25 -17l4 -20v-16q-7 -21 -24 -21v-4l4 -16l-4 -16l12 -29v-4l-12 -16v-5q0 -18 20 -28v-4l-4 -29l20 -36l-4 -5l4 -4h-4q0 -19 53 -45l41 9l33 -17q12 0 12 13h12q53 0 53 40q14 0 25 62q8 0 16 28l-4 16l8 25l-8 8v29l8 32v13l-24 -4l-13 4v4
q12 0 66 61l16 12l12 -4v4q0 16 25 57v8h20l4 5q45 -7 45 -17q16 -40 37 -69v-8l-20 -21v-36l8 -25q-22 -25 -33 -94q-16 -31 -20 -69q-20 -37 -41 -37l-4 -20v-13l-21 -8h-4l4 4v8q-12 0 -12 13q-12 0 -12 12h-4q-12 -30 -12 -61h4l12 -4v-9l-8 -8h-8v8q-13 -12 -29 -12
q-5 -49 -45 -49l-12 -12q-41 2 -41 8q-2 13 -37 33q0 -29 -53 -33l-4 4h-4l-16 -4q-5 25 -13 25h-4v-13h-12q-15 41 -24 41l-4 -4h-5l-16 4l-24 -8l-9 20l-4 -4h-4q-16 13 -49 17q-28 77 -41 77l5 13l-25 106q16 6 16 12v4q-11 17 -28 94q0 30 24 90l-4 81h8v8
q-13 21 -24 66q16 30 16 49l-8 8v8l4 25l-4 16h4q-5 21 -24 45l8 20q-29 19 -29 41v29l4 4v4h-8v-8h-4q0 16 -16 16q-6 16 -29 16h-4l-28 -28l-13 -4l-8 16l-61 -16l-45 24l-4 20h-4l-17 -12h-4q-9 0 -12 21l4 4h8v-8h4q0 44 49 44l5 29h12q19 0 32 20l25 13q0 -12 69 -21v4
l53 -24l5 -4v-4q12 3 16 16h8v4q0 8 -12 8v29l4 4l-4 12l4 12l-4 -4h-4l-4 4l24 74q12 3 16 16q14 0 29 -28l-8 -41q0 -57 37 -57v4l-5 20q16 0 25 110l-8 45l4 4v8l-29 49q14 78 25 78zM298 1292h9l8 -127l-13 -8h-4q-32 30 -32 106zM347 998l4 -4h5v12zM302 970h13l8 20
l-4 4q-11 0 -17 -24zM-20 929h8v-8zM327 733l12 -29q-7 -36 -20 -36v-13l8 -12l-4 -24l8 -13v-8q0 -21 -24 -41q16 -28 36 -28v-8l-12 -37l4 -4v-17l-8 -32l16 -17v-4l-4 -16l4 -12q29 32 29 106l-12 41q20 37 20 57v24h-8l-8 13l4 28v4l-8 62h4l8 12l-25 57l9 12l-5 16
q-16 0 -24 -81zM445 476v-8h9v8h-9zM343 357l-4 -12l-4 4h-8q3 -24 12 -24h4l8 8v16zM776 349v-12l8 -8l4 16l-4 4h-8zM351 284l-8 -12v-4h8l-12 -13q0 -20 8 -20l-4 -4v-8l33 -33q16 17 16 33l-16 20v12l4 4q0 12 -29 25zM747 137v-4h9v12zM302 121h5l8 -9h-4z" />
    <glyph glyph-name="u" unicode="u" horiz-adv-x="1335" 
d="M176 1010l28 -16l36 16l36 -24l4 12h8l40 -16v-8l-4 -32q28 -24 28 -60q0 -47 -32 -60l-12 -24h-8q0 12 -12 12v12q0 22 -12 32l-4 -4h-16l-8 32h-12v-8l4 -4l-16 -40q0 -20 12 -20v-12l4 -16l-16 -40l12 -12v-12l-4 -44l4 -16l-4 -4l8 -48l-4 -12l12 -4l-16 -32l4 -28
l-16 -8l4 -4v-4l-8 -12q-36 0 -36 28h-8v68l-4 16q24 35 24 52l8 8l-12 8l-4 -4q0 12 -8 12q8 24 16 24l-20 56q12 20 20 72l-16 32h-8l-12 -12l-24 8h-12l-32 -8q-14 4 -32 24h-4v12q8 9 8 28h4l-4 4v36q20 0 20 28l36 -4l12 12l36 -12q5 20 12 20zM856 990l16 -8l4 4
l20 -4l20 4l4 -4l4 4q42 -30 52 -72q9 0 12 -20l-12 -44l16 -48l-20 4l-4 -20l8 -12l-12 -48q20 -27 20 -48v-20h-8v-12q0 -12 20 -44l4 -20v-8q-14 0 -28 -108v-16l4 4h4l12 -20l-20 -76q8 -44 16 -44q-8 -11 -12 -60l-4 -4l8 -44l-4 -12l4 -4v-4l-4 -28q3 -40 16 -40h4
l12 8l32 -12l8 -28l-4 -12h4l-4 -4v-24l4 4l28 -8q0 12 20 12l16 -4q3 16 28 16l8 24h4q0 -38 8 -44l-12 -28q0 -20 -24 -20q-4 -17 -20 -28l-4 4h-4l-16 -4l-4 4v4l12 12v8l-8 8h-12l-28 -16l-4 4h-4l-60 -24h-4l-4 4v4l-4 -4h-12q0 12 -40 28l-4 4h-4l-12 -8h-4
q0 12 -8 12l-36 -4q0 6 -32 16l-8 24v36l8 12q-14 40 -28 44h-4l-24 -24h-8l-4 4q-19 0 -24 -44q-55 -60 -88 -60l-8 -16h-20v8h-24l-12 -8h-4l-16 4l-16 -4l-36 8l-16 -4q-24 0 -24 28q-20 0 -20 12h-4v-4l4 -12l-8 -20l4 -4h-8q-13 12 -80 32v-4l-36 20q-9 0 -40 48
q-13 0 -32 32q-9 2 -24 68l12 4v8q-8 0 -16 20v32q0 12 -16 32l-4 16v8l8 12l-4 16l8 16q-11 14 -20 80h4l-4 4v16q0 17 52 28l4 4h12q0 -8 12 -8v-8l-4 -12l8 -52l-8 -28l20 -96v-4l-12 -24l8 -16h-4l4 -12l-4 -12l12 -8h12l12 132l-4 4v4l4 24l-4 24l8 32h-4l-4 -4h-4
l-8 32h4l-12 52q16 11 28 84q-20 38 -20 60l4 4l-4 20v4l8 24q44 0 44 -28v-8q0 -37 -20 -56h16v-16l-4 -28l12 -4l4 4l12 -44q-20 -6 -20 -28q0 -30 -24 -36v-4q0 -8 20 -8l4 -4v-40l-4 -16l24 -88q-9 0 -16 -28h-4l4 -20h32l4 -36l-4 -4l-4 -12h-4l12 -24v-8h-8l8 -8l4 4
h4q12 0 12 -12l12 4q64 -14 64 -32h16l12 8q46 -28 60 -28q27 4 52 24l40 16l20 -4q0 12 12 12q8 9 8 28q9 0 52 52q13 0 24 44q16 3 32 48l-4 20v12q8 40 20 40l20 -4v8l-8 16l8 24v24h-12l-4 44l4 16q-8 28 -24 28l-12 -4v12q18 0 24 28q16 0 16 16l-8 64h8v4
q32 -10 32 -32l-8 -24l16 -20l-4 -4v-4l12 -24q-16 -35 -20 -68l12 -12q0 -28 -20 -48l4 -20l-8 -24q12 0 12 -20h4l-12 -16q4 -32 12 -32h4l4 4h4v-8q19 12 36 44l-4 4l8 28l-4 24v12h8v8l-4 20q17 0 24 36l-16 28l4 16l-16 36v8l8 32v16l-4 4l4 4v4l-4 40l8 8v28
q-16 0 -16 28l8 32q-16 18 -20 72l-8 20l-24 8q-20 0 -20 -12q-18 0 -76 24l-36 -24l-20 16v20q11 48 36 48l44 -4l24 20h8l8 -8l24 24h4zM36 942l16 -20h4v-8l-4 4h-4q0 -24 -16 -24h-4l-4 12l4 4v4l-4 16zM0 934q9 -2 20 -32h-4l-16 16v16zM816 842h8v-8h-8v8zM836 826h4
l8 -8l-12 -12v20zM316 802h4l8 -8l-8 -8h-4v16zM840 782l8 -8v-12q-11 0 -20 -20h-4v20q16 0 16 20zM836 722h4v-16h-4v16zM304 190v-8h4v8h-4zM864 170l4 -24h8l8 8v20h-12l-4 -4h-4zM872 106l20 -12l16 4v12l8 32h-4q-25 0 -40 -36z" />
    <glyph glyph-name="v" unicode="v" horiz-adv-x="1342" 
d="M86 1064h8q0 -16 8 -16h16l36 4q104 -10 104 -24l4 4l20 -24v-4h8l12 8v-8l24 4l20 -8l68 8l20 -8l4 4h4l60 -28v-8l-8 -8l-20 12h-8q0 -14 -20 -28q0 -28 -24 -28q-8 0 -16 -24l4 -12h-4q-8 0 -8 44q-15 12 -28 12h-4v-4l4 -4v-4l-32 -4l-8 20h-12v-4q0 -8 12 -8l4 -4
v-12q-16 0 -36 -56l12 -16l4 4h4q32 -4 32 -20l-16 -24q28 -2 28 -24l-8 -8v-24q3 -35 12 -36l-4 -4v-8l4 -16l-8 -24q12 0 28 -60l12 -32q36 -22 36 -112q26 0 32 -92l40 -64l4 4h8q3 -20 12 -20t40 28q28 0 48 64v48l-4 4l4 4v52l4 16l-4 12l8 8l4 -4h8q29 9 44 44
q20 21 20 60l16 20h4l-4 4v16l8 12v4l-4 4v4q8 0 16 24q19 5 20 16q-6 32 -12 32l8 40l-4 16v16l16 20l-20 8v20h12q0 -12 16 -20v4q0 21 -24 36q0 -12 -24 -12l-8 -8q-12 0 -12 12l-4 4h-12l-16 -12h-4q-12 12 -28 12q-28 30 -28 44q-18 0 -24 40q0 29 68 44l4 4l4 -4h4
l24 4q36 -4 48 -12q61 5 84 16l8 -8h12l4 4l4 -4h4l68 16l104 12l64 -16l8 -8l-4 -4v-24l20 -4l16 16l12 -12v-8q0 -21 -32 -48q-7 -20 -20 -20l8 -24l-12 -8q-21 0 -24 12v8q12 0 12 8l-8 8h-4q0 -17 -32 -24l-76 4q-9 -36 -36 -36q-13 -52 -48 -52v-12l-20 -60l-16 -16
l4 -4v-12l-12 -36l12 -32q0 -8 -20 -8l-4 -4v-4l4 -4v-4l-8 -16l4 -12q0 -27 -28 -44l-28 -44q-3 -36 -24 -36l4 -28l-8 -36v-20l8 -32v-4q0 -14 -16 -28l4 -24l-28 -28q0 -17 20 -40v-8h-8l-12 8h-12l12 -20v-4l-44 -52l8 -32q0 -20 -40 -52q0 -21 -36 -36l-4 4h-4
q-40 -12 -40 -24q-22 0 -60 52q0 11 -24 20q0 44 -48 124l4 52q-48 18 -48 44v8l4 16l-16 36l4 4v4l-4 60h8v12q-24 24 -24 40l8 8l-36 40v4l8 32q-28 50 -28 72q-6 0 -20 32l4 24l-44 52l4 36q-12 0 -12 12l4 4v4l-4 28l8 24l-4 4v4l-4 -4h-8l-8 8q16 3 20 20l-4 4l-28 -8
l-12 4l-16 -16q-136 12 -136 44q-32 4 -32 20l-4 76q0 14 48 20q20 0 20 24zM510 968h16v-4l-16 -4v8z" />
    <glyph glyph-name="w" unicode="w" horiz-adv-x="1563" 
d="M1172 1035q24 -36 40 -36l12 4l8 -8h4q52 9 52 20l4 -4h4l36 4v-4l8 -24l-4 -16v-4q28 -25 28 -52l-16 -16l8 -12q0 -27 -72 -52q0 -12 -20 -28v-4h-36l-4 4h-4q0 -8 -28 -12v-28l-4 4h-12l-4 -12h8v-12q-20 0 -28 -72q-28 -11 -28 -76l4 -28l-32 -12l8 -116l-4 -4h4
q0 -11 -28 -48l-20 -92q-8 -27 -8 -72h-4v8h-12v-20l-4 -20l16 -8q-17 -84 -40 -84q-7 -100 -16 -100l-36 -4l-24 4l-12 -20h-4l-8 8h4q0 8 -60 56q-16 29 -24 84h-4l4 12l-8 24v40l44 8l4 -4l12 4q0 12 12 12l8 8l4 -4h12q10 0 36 40l-4 4v4q2 9 32 20l12 12l12 -4l4 4
q0 17 -28 24q-32 61 -32 88q48 14 48 64l-4 40q0 29 40 64h12l4 -4h4v4q-12 52 -20 52q0 18 28 40l4 4v4l-12 92q16 0 16 16q-8 9 -8 44q-14 4 -24 20l-12 4l-4 -4q0 12 -44 36q0 11 -20 28l8 40l-4 16q25 13 48 40h4l4 -4q12 0 12 -16l16 -4l12 12l12 -4l52 4l4 -4h4
q20 0 28 28h20zM80 1027l40 -12l12 4l20 -20l16 24v4q28 0 28 -12h4l4 4l4 -4h4l16 8q12 -36 48 -36l4 12h8l16 -24l28 4l24 -8q0 12 8 12h8q7 0 12 -20q18 0 44 -52q0 -48 -20 -48q-8 0 -8 -16h-4l-28 4q0 -9 -60 -20l-4 -24q4 -42 16 -52v-4l-4 -4v-4h4l-4 -4v-8
q14 0 28 -44l-4 -4l4 -12l-4 -52h4l-4 -4v-4l4 -4v-4l-8 -24v-12q0 -80 24 -80q32 -9 32 -32l-12 -32l4 -4v-4l-12 -36l4 -4l-8 -8v-16q8 -88 48 -88l12 -4q20 27 20 64l20 8v-4l16 4l-12 28q12 35 12 80v4q0 8 40 12q-3 12 -16 16l-8 -8q-12 16 -12 56l12 12v4l-24 20
q1 9 28 36v4l-8 20q0 27 28 44l4 12q-20 40 -20 60l20 16l12 -8h16q0 16 20 16v12l-24 32v4q28 17 28 40q0 28 -8 28l4 4v4l-4 40q9 4 32 48l20 4v-4l56 32q20 -5 20 -12l20 4q36 -15 36 -28l-8 -24q12 0 24 -72l-16 -16l4 -4v-4l-4 -12l8 -12l-4 -4v-8q0 -22 32 -52v-4
l-8 -8l8 -20l-12 -12q8 0 8 -16q28 0 28 -28l12 -12q0 -14 -16 -28l-4 -20q28 -8 28 -16v-4l-4 -4v-4l12 -12l-4 -32q7 -32 12 -32l-8 -20q20 -23 20 -36l-4 -52l32 -72v-4l-4 -32l4 -44l-12 -8l-4 4q-7 0 -24 -20q-56 43 -56 56l12 32l-4 4v4l4 4v4q-18 59 -52 108l-4 32
l8 28l-20 52l4 24q-10 28 -28 28v12l4 12q0 39 -24 72q0 16 -16 16q0 -38 -24 -52q0 -16 -16 -16l4 -4q0 -30 -16 -68q-28 -120 -60 -120l-12 -20l4 -4v-4l-4 -16l12 -12l4 4q16 -18 16 -36q-1 -23 -24 -56l-4 -12v-12l4 -24q-2 -14 -24 -32q0 -44 -36 -68v-16l16 -56v-4
q0 -34 -44 -76q-16 0 -16 -8l-12 4l-32 -8l-12 12l-12 -8h-12q0 12 -12 12q0 12 -12 12l-4 12l4 16l-12 40l4 4v4q0 31 -44 144q-24 9 -24 16l4 44q-11 0 -16 40l8 12l-20 48l4 36l-24 40v24l-44 24l16 48q-13 35 -24 44l4 20l-8 56l4 12l-4 20l8 32q-11 55 -24 60h-40
l-32 28h-4l-20 -4l-68 64v8q0 16 20 52q0 27 36 44q8 15 24 20zM1052 579v-4h4l8 8v4h-4z" />
    <glyph glyph-name="x" unicode="x" horiz-adv-x="1373" 
d="M942 1006h16q33 -19 88 -28q0 -8 20 -8h36q14 0 32 16h8v-4l-12 -32l16 -48l-4 -32h4l-4 -12l12 -20v-8l-4 4l-96 -24h-4q-2 8 -20 16l-4 -4h-4l-20 8q-20 -9 -20 -32h-8l-8 -12l4 -4v-4q-4 -20 -16 -20l-32 16l-32 -20l-20 4l-28 -40h4q-3 -15 -32 -28l8 -24
q-12 0 -12 -20l-36 -20l-12 4q-18 -21 -56 -44v-16l4 -4v-4l-12 -16l-4 4h-4q-13 0 -16 -40q0 -12 12 -12q2 -35 32 -60q0 -17 28 -40q0 -7 36 -12l20 -28q3 -28 8 -28l-4 -4v-16l64 -76l8 -8l-4 -4v-4q0 -24 40 -44q26 -32 36 -32l4 4h4l4 -4h4l24 8q16 -4 16 -16h28l24 36
l40 -4h20q8 0 8 -28q28 -23 28 -44l28 -32q0 -27 -36 -64q-8 -16 -24 -16l-24 4q-15 -32 -40 -32l-4 4q0 8 -20 8q0 12 -8 12h-20l-16 -12q-14 0 -20 28l-28 -4h-4q-8 0 -8 12l-12 4l-28 -8v4q-20 -5 -20 -16h-36q-13 0 -28 -12h-4q0 20 -8 20l-12 -8q-45 0 -80 64l-8 36
q0 11 20 40l4 -4h4l12 4l12 -4l8 8l16 -4l12 16v16q-10 19 -76 84q0 36 -56 96q0 19 -24 32l-12 24l-52 4q-9 -20 -20 -20v-28q0 -8 -32 -12q-21 -38 -28 -112q-9 0 -16 -40h4l-20 -40q-12 35 -28 40q-18 -7 -28 -24v-20q8 0 20 -16l4 4q24 0 60 -44l-4 -4l4 -12
q-23 -50 -52 -56l-12 4v-4q0 -8 -32 -8q0 -11 -44 -28q-6 -12 -40 -12l-12 4v-4q-44 17 -44 28h-4q-16 -8 -16 -20h-8v8l-12 -8l4 -4v-4l-8 -16h-16q-18 44 -28 48q-8 0 -8 -20q-32 4 -32 20l-20 -4h-12v-8h-20q-19 28 -28 28q-44 47 -44 56v20q29 44 88 44l16 -8
q40 28 76 28l28 -16h12l12 8h4l4 -4h4l36 64q28 10 48 56q45 43 68 100q18 36 24 36l-4 4v4l4 20h4l12 -12q52 20 52 56q8 0 8 40v24q0 19 -28 60q0 47 20 80h-4l-28 -8l-16 4l-12 -4q-1 8 -32 32l-36 44q-23 0 -40 48q-35 24 -60 24l4 4v8l-12 20l-32 -12l-4 4h-4
q-13 -1 -32 -28h-32l-12 8l-20 -4q-56 18 -56 44q-6 84 -16 84q18 35 28 36h4l24 -4q16 8 44 8l36 -8v4q0 7 28 8h4l40 -4q10 20 32 20l24 -12h4q0 12 48 12l24 -12l4 4h4q13 -11 68 -16l48 -16q22 -19 24 -60v-4q0 -20 -36 -60h-4l-28 4q-2 -12 -20 -28l28 -28l28 -80
l24 -20l-4 -4v-4l20 -28l20 4q0 -19 32 -36q16 0 20 -20h12q44 64 44 92l32 60l36 24h12v16q0 36 24 36q-15 36 -28 36l-24 -8l-4 4v24q-16 0 -16 40v12q0 55 80 60v4l36 -16h16l28 8l4 -4h4l4 4h4q16 -4 16 -16h4q14 12 48 12z" />
    <glyph glyph-name="y" unicode="y" horiz-adv-x="1349" 
d="M350 962h16q16 -8 16 -24h20l4 4l4 -4h12l4 4h4q0 -15 48 -28l52 20h16q20 -13 32 -40l24 -20v-12l-28 -28h-48l-8 8l-20 -12l-8 8l-20 -40l4 -4v-4l-16 -28v-8q9 0 32 -36v-4q0 -18 -24 -36v-8q0 -8 12 -8v-12l-20 -20q-8 0 -8 16h-20l-16 16l4 20q0 10 -28 20l4 16
q-13 65 -40 80l-36 24l-12 -8l-4 4h-12v-24l12 -4q-6 -16 -12 -16q15 -21 32 -88l20 -24v-8q-13 0 -32 -56q-9 0 -28 -20l-12 4v4q0 13 12 28q0 11 -32 20q0 12 -36 16v28l12 16l-4 4l8 40l-28 64h-12l-4 -4l-64 24l-24 -16q-88 0 -88 32q-13 12 -24 12v20q67 48 132 52
q24 20 40 20q20 0 20 -16h8l-4 4v4h28l12 -8h56q34 21 72 32v4zM870 958q28 0 28 -28l32 -8l28 8v-4l40 8q18 -9 88 -20q40 -8 40 -16v-4l-4 -16l8 -20q-35 -15 -36 -24v-8q32 -2 32 -12l-4 -4l4 -4v-4l-8 -8h-20q0 -11 -32 -24l-76 -104l4 -4q-20 -14 -20 -32l4 -16
q-2 -16 -28 -28q0 -60 -40 -120q-5 -64 -28 -64l-20 40h-12v-8l4 -4v-4h-4q0 -9 32 -36v-4l-40 -84q0 -36 -28 -76l-4 -28l8 -8q0 -22 -28 -44q-12 -29 -16 -88q-37 -14 -48 -28q-31 0 -44 -12v12q20 3 20 12v4q-6 16 -28 16h-4l-28 -4l12 44q-9 2 -24 60h-8q0 10 -20 24v4
q12 18 12 32h16v-8q21 0 28 -64l12 -8q27 0 68 64q20 64 56 64q16 0 16 8l-20 16q12 48 48 80l-12 48q20 5 20 12l-4 4l4 4v8l-4 16l8 24v20l-8 12v20q19 0 48 96l-4 4q4 20 36 48l8 60l-4 4h-4l4 32q0 24 -24 24h-16q0 18 -36 20l-4 4v4q-33 0 -56 -20h-4l-12 40
q21 0 32 24v12q-16 0 -16 12v4q1 16 68 24q5 24 12 24zM690 878q40 -8 40 -16v-8q-12 0 -28 -16q-56 5 -56 24v8zM270 854v-16l4 4h4l12 -4l-4 4v4l4 4l-4 4h-16zM466 614h8q1 -16 16 -16v-8h8v16h4q22 0 28 -16q-16 -6 -16 -12l32 -32l-4 -16l8 -16l-4 -32q0 -12 20 -28
l4 -48l-20 -4q-12 32 -48 68q0 14 -32 44q-28 62 -28 80l4 12l20 -4v12zM478 578v-4h8v4h-8zM330 550h12v-4l-8 -8l-4 4v8zM386 454h4q24 -8 40 -60q7 0 24 -124q24 -25 24 -56q36 0 36 -44v-20q0 -44 -20 -44h-4q-65 52 -68 72l-4 16l4 40l-8 28l12 12q-8 28 -32 28
l-12 -12h-4v12l8 32v4q-40 25 -40 48l16 16q-8 0 -8 12q14 27 32 40zM582 394h4l12 -12l-4 -4l4 -40v-4l-12 -12h-16l-8 8v8q1 20 8 20l-4 4v12l16 12v8zM674 342q12 0 12 -16l4 -4l-4 -4l-28 -44h-4q-21 0 -28 16v4q0 7 40 36q0 12 8 12zM586 294h12q1 -16 8 -16
q-4 -13 -16 -16l-16 20zM626 254h8l4 -4h4q-6 -16 -12 -16h-4v8h-4zM570 74q8 0 8 -12l-8 -12l8 -16q-36 -34 -36 -88l4 -4q-20 -48 -32 -48l-4 4l-4 -4l8 -32l-4 -20l8 -52q44 12 44 28l-4 12q7 0 24 40q20 0 40 48l4 12h4l-12 20v8h20q6 0 24 48l16 12h4v-24l8 -8l12 12
l12 -40q0 -24 -20 -24v-16q12 0 12 -8v-12l-8 -12v-32q0 -34 -44 -48q0 -54 -28 -96q0 -23 -28 -48l-20 4q-7 -21 -28 -24q0 -28 -12 -28l-56 -28l-44 -8l-8 8l-8 -8q-32 3 -32 20l-20 -20q-20 0 -20 -8l-44 28q-29 0 -48 24l-36 -12l-24 8h-36q-55 0 -84 64l-4 4h-4l-16 -4
q-29 41 -36 76v36l-4 24q0 36 72 88q21 3 76 48h8l28 -16l48 16q24 -4 24 -12l-8 -8v-4h8l16 8q38 0 80 -52v-4l-8 -32l8 -28l-4 -4v-4l4 -12l-4 -20l24 -16h-8v-8l8 -8h4l8 8l-8 12l4 4v24h4l4 -4h4q4 19 36 48q0 38 24 48q0 44 28 44l-4 20l4 4h4l28 -4v28q0 22 -20 28
q11 27 24 32l12 -4l20 16q0 20 8 20zM370 -242v-8h4v8h-4zM158 -290l4 -20h4l12 8q32 -4 32 -20h20q0 12 16 12v4q0 13 -16 28l-4 -4h-20q0 12 -12 12v4l4 4v4h-4l-4 -4q-13 -20 -28 -20l-4 -4v-4zM258 -274v-8h4v8h-4z" />
    <glyph glyph-name="z" unicode="z" horiz-adv-x="1117" 
d="M212 994v-4l4 4h28q17 0 52 -16q11 8 60 16v-16h8l20 16h8q30 0 32 -12v-12l-4 -4v-4h12q0 13 28 28q18 0 36 -12l16 4q32 -10 40 -32v-4q8 0 8 16h8v-8h4l12 20q26 -2 44 -20l12 8v-8h4q0 16 28 16q0 6 16 12l20 -4l12 12l24 -4l12 4l12 -8l4 4h20q27 -4 28 -12l4 4h16
l4 -4q12 -24 28 -24l4 -48l-36 -24q0 -16 -40 -36q-9 -5 -24 -44q-56 -38 -56 -68q-12 0 -12 -12l-16 -8l-28 4q-28 -9 -28 -44q-8 0 -16 -48q-8 0 -8 -24q-25 0 -32 -20l-52 -28h-4v-8l8 -12v-12q-28 -27 -28 -36l-20 -8v-24h-12l-20 12l-4 -4h-12l-12 32h-8q0 -13 20 -40
v-8q-6 -39 -44 -76l4 -16q-5 -16 -20 -24h-8l-12 8h-4l-12 -52h-24l-52 -52l-4 -28q-12 0 -32 16l-4 -4q0 -16 -20 -16l-4 -4l-4 -16h-16v-4q0 -7 28 -12l12 -16v-12l-4 -4v-4l20 -4h12l4 4l4 -4l20 4h52l20 -20h8q2 16 12 16h32l4 -4h4v4l52 -20h8l24 20q34 0 64 -12
q64 4 64 12l20 -8v4q12 24 36 24q0 -11 84 -32q1 8 40 24l-4 28q20 0 20 68l-4 4l8 28l-12 48l4 20l-8 12q0 12 12 12l4 4v28q0 48 52 48q16 0 32 -40l-4 -12l4 -32l-4 -12q4 -35 12 -44v-56q10 -20 28 -20l-24 -24l4 -16q-11 -92 -32 -92q-16 -26 -16 -40q-14 0 -28 -36
l-28 16l-8 -8h-8v8q-52 -13 -52 -24l-8 -12l-52 20h-4v-8h-8l-12 8h-36q0 -12 -8 -12l-20 4l-4 -4l-4 4v4l4 4v4h-4l-12 -16l-4 -4h-4l-4 4h-4l-12 -4q0 8 -20 8l-4 4v4l-20 -4l-12 8l-4 -4h-8q-19 0 -28 12l-12 -8l-68 8l-8 -8h-4l-20 4l-16 -16h-4l-4 20q-28 -28 -56 -28
l-24 24q-14 0 -48 -20h-4l-4 4l-4 -4h-12l-16 12l-32 -12q-32 6 -32 16l-20 -4q-45 17 -68 64v20q10 0 24 28q30 52 44 56l8 36h8q0 -12 8 -12q24 7 24 28q21 0 44 36l4 -4h16q10 5 40 88q7 0 36 36q21 0 28 28l-4 4l12 8l28 -8v4q12 15 12 52q12 0 12 32l28 -4h12
q20 11 20 20h4q13 0 28 -12l4 20v4l-4 4l28 60l36 20q0 34 72 84q24 0 36 64q0 35 44 56q5 0 8 28l-4 4l-4 -4h-8q-8 0 -8 12l-24 -12l-4 4v4l-20 -4h-4l-4 16l-20 -4l-12 8h-8q0 -12 -8 -12l-48 12l-16 -4q0 12 -8 12q-21 -12 -56 -16l-8 8h-4q0 -12 -8 -12h-8q0 16 -68 20
l-12 4q0 -9 -32 -24q-24 8 -24 20l-12 -8l-4 4l-72 -16q-8 0 -8 12h-12l4 -16q-16 -62 -36 -80q17 0 24 -48l-4 -4v-4l4 -36q0 -16 -28 -40q-3 -20 -12 -20l-16 16l-4 -4h-4q-32 7 -32 44l-24 24v16l-4 48l12 68l-12 72l4 16l-4 24l44 32v4h16l12 -8l20 12l32 -8v4l4 -4h4
l32 4l12 -4q0 10 36 12zM48 662v-12l8 8v4h-8z" />
    <glyph glyph-name="braceleft" unicode="{" horiz-adv-x="505" 
d="M282 1628h4q18 0 32 -44q-28 -31 -28 -56l32 -12h12v-12q0 -8 -36 -16v-32q-30 0 -44 -24l4 -4v-4l-12 -28l8 -28q-44 -33 -52 -92q-9 -13 -20 -64l4 -20l-36 -84v-20l20 -32q-16 -128 -36 -128l-16 -28l4 -24q-16 -23 -20 -44l-4 -4l4 -20l-8 -44l8 -8v-12
q-11 0 -24 -20h-12l-12 12l-12 -8h-4q-8 0 -16 40l8 24v8l-16 28q8 10 8 40h4q-16 24 -16 56l4 16l-4 24q20 44 24 80q12 0 12 32h4l-4 4v20q5 30 16 32l-4 48v16h12q0 38 -20 56v12h4l4 -4q40 6 40 48l16 40l-4 4v4q0 28 44 96q3 19 28 44v8l-4 20q24 9 24 16v40q0 6 56 32
q0 16 24 16zM326 1560q15 -5 28 -20l-12 -16l-12 12l-8 24h4zM58 712l4 -12l-4 -4h-4l-4 12l4 4h4zM74 680h4l8 -8v-28l44 -104l-4 -44q10 0 20 -56l-4 -16l28 -120l-4 -4l4 -28v-12l-4 -24q0 -48 64 -120l4 -28l-4 -20q37 0 76 -76l28 -20v-4l-8 -32q0 -16 12 -16
q-4 -28 -12 -28l4 -28v-24q-21 -20 -60 -20l-12 4l-4 -4q-10 12 -16 60q-25 17 -44 72q-12 0 -12 20h-4l4 4v4q0 27 -44 100l-12 40l-32 76q-16 0 -16 8l8 44l-16 28l4 44q0 24 -28 24l-12 8l4 4v12l-8 52l4 12l-4 4v4l4 12l-4 36l8 12q-5 112 -20 112v20q23 36 44 36z" />
    <glyph glyph-name="bar" unicode="|" horiz-adv-x="349" 
d="M64 1638l56 -8l17 -94q-9 -4 -9 -24q0 -15 5 -39q-2 -1 -2 -10q0 -7 1 -19v-4q0 -24 -11 -51l20 -53h3q16 0 30 -26l-8 -7l-12 -1q-10 -24 -10 -57q0 -13 1 -26q7 -27 7 -45q0 -20 -8 -31q3 -4 3 -12q0 -10 -5 -28q9 -17 9 -37q0 -36 -28 -83v-3q0 -20 10 -39
q-7 -29 -7 -56q0 -13 2 -26q-5 -10 -5 -21q0 -16 9 -34q-6 -6 -6 -22q0 -14 5 -36q1 -3 1 -7q0 -14 -16 -43l5 -16l4 -1l2 -3q0 -16 13 -42l11 -20q2 -24 2 -42q0 -21 -3 -34q1 -9 1 -18q0 -42 -12 -77q11 -21 16 -61l3 -6q-3 -5 -3 -10q0 -7 4 -13q21 -4 23 -14l-9 -7
l-6 -23l-19 -20q-13 -18 -15 -57l20 -31l2 -3q-8 -29 -26 -36q8 -15 8 -102v-20q-1 -4 -1 -9q0 -15 11 -41q-21 -27 -21 -42v-3l27 -28q9 -25 9 -46q0 -8 -1 -16l-41 -31l-6 -3q-22 0 -36 7l2 4l-23 30l1 4l-1 3l-16 15q5 5 5 25q0 22 -6 61q5 3 5 11q0 7 -4 19l-5 1
q5 2 5 11q0 12 -10 37l2 5l3 1l-11 13v1q0 8 16 31v3q0 10 13 35l-8 7q-4 8 -4 28q0 17 3 44l-10 17l-9 11q-2 5 -2 11q0 16 13 37q-5 9 -5 36q0 12 1 27l-5 1l-2 3l3 95l2 11l-9 11q9 4 9 19t-9 42l-3 -1q1 5 1 11q0 20 -11 46l21 59q7 3 7 16q0 10 -5 28q3 2 3 8
q0 10 -9 33q8 3 8 16q0 16 -14 50l-11 20q23 20 23 40q0 9 -5 18q-1 1 -1 4q0 12 18 50l-2 3l-26 35q-1 5 -1 9q0 12 7 26q-9 23 -9 37q0 13 9 17q6 3 6 12q0 13 -15 42l-12 24l20 23q-2 4 -2 12q0 22 13 75v47l-2 3l-24 40l12 30q15 64 15 101q0 24 -6 36q2 5 2 22
q0 23 -4 67z" />
    <glyph glyph-name="braceright" unicode="}" horiz-adv-x="564" 
d="M114 1654q51 0 72 -48v-4l-4 -16l4 -24l-4 -56q0 -11 36 -72q8 -22 8 -64l-4 -12h4l-12 -28q2 -40 8 -40l-12 -24q0 -9 32 -20l16 -44v-8q0 -8 -12 -8q0 -16 20 -32q14 -10 28 -72q36 -19 36 -48l-4 -4q20 -44 32 -100q12 0 12 -64q12 -61 20 -68v-8l-12 -20l4 -16l-4 -4
l12 -12l-12 -48l4 -52q-10 0 -16 -80l8 -48l-4 -28l8 -32l-8 -16l8 -12q-24 -124 -52 -124l-4 -20l8 -24l-4 -52l8 -20l-32 -28l16 -28v-4q-4 -12 -36 -36q-15 -61 -24 -72v-8l8 -12v-4q-24 0 -48 -88q-12 -8 -12 -40l-4 -4q0 -7 -20 -12q0 -50 -44 -56h-4l-12 4l4 4v4l-8 8
l-16 -4l-16 24l4 44l-4 12q68 35 68 92l24 36l-4 20q2 16 12 16v32q0 13 24 48l16 64l-8 12v12l8 24q26 71 40 84l-4 4v4l4 24v12q-20 2 -20 36q36 22 36 28v16l4 52l-4 20l4 16l-12 32q3 36 8 36l-8 28l4 20l-4 20l8 68q-10 14 -20 92q-8 0 -8 24q2 40 8 40l-4 4v4l4 12
l-12 52l4 36l-12 24l12 60q-16 0 -24 60l8 20q-48 21 -48 76l-8 20l4 4v4q-5 20 -12 20v-4q-18 0 -28 36l-44 52q-7 0 -24 24q-28 0 -28 16l4 20q-8 27 -32 60q-15 47 -28 60l-4 4v4l28 32q7 24 36 44v4l40 -4zM242 2v-4l8 -8v12h-8z" />
    <glyph glyph-name="asciitilde" unicode="~" horiz-adv-x="1154" 
d="M865 1607q0 -14 -24 -19q-2 7 -11 7t-25 -7q-46 -15 -46 -40q-14 0 -38 -24l-48 -9q-9 0 -43 47l-5 5h-5l-5 -5q-13 0 -19 -38l-5 -4h-14v9h-5l-10 -9l24 -33l34 -5v-9l-24 -19l-64 -16l-13 25h-24v-9l-24 4l-5 -4l-9 28l4 5v4q-55 66 -57 114q-24 7 -24 18h-5
q-25 -33 -63 -33l-28 -4v-5l-15 -14l-5 5l5 23l-25 -15q-7 -20 -23 -20q-20 0 -53 33l-9 -43l9 -37v-5q0 -27 -48 -61l-41 -18l-57 8v5q0 24 -15 24v28l-14 4l35 69l81 34l9 -8q12 3 12 23h29q19 11 19 38q25 0 50 26q22 0 22 28q36 33 72 47h10q30 -33 57 -33l10 14
q91 -42 101 -61v-19l-5 -4q35 -45 48 -90h5l5 -9q9 0 9 19q23 0 39 42q9 0 9 14q65 18 135 99q45 26 91 28l5 5l98 -20l4 -70z" />
    <glyph glyph-name="exclamdown" unicode="&#xa1;" horiz-adv-x="612" 
d="M333 70q-12 -9 -12 -22l-11 -3v-4l8 -25l-12 -6l15 -54l-64 -45q-8 0 -8 -32l-76 -19h-11q-49 21 -49 41v4l-4 -4l-4 4h-34q0 10 -23 25q-1 9 -30 41l-4 32q12 85 27 89q18 0 37 32q-13 36 -26 38h-4l-19 -12h-7q-23 0 -23 28l-4 4l34 63l27 13l-8 19l-4 -3h-3l-8 6
q22 17 27 32l-4 13v3q11 0 11 6v4l-7 25q0 34 22 80l4 22q0 13 -30 25l-4 4v3l23 25q-16 0 -27 26l4 35l15 13l-7 19h3q19 0 19 19q15 0 15 9l-7 10l11 13l-11 22l4 9q-17 0 -27 42q15 19 15 28v13q-19 0 -19 7v3q8 13 38 22q-4 28 -15 45h11l-3 3v3q19 64 38 64q5 25 11 25
l-4 10l4 25l-4 13q4 24 15 35l7 19q20 15 20 22l3 19h12l8 10l14 10l14 -2l4 -14l11 -2l-2 -12q1 -15 16 -31q2 -16 2 -29h4l-11 -31q11 0 11 -42q8 0 8 -13l1 -57l7 -51h-3l15 -29l-4 -19l11 -16h-3l7 -22q-6 0 -11 -16l4 -9l-16 -13v-6h4l-4 -23l4 -79l-11 -29l11 -19v-3
l-7 -10l3 -19q-11 -16 -11 -32q9 0 15 -32q10 0 15 -57q-5 -13 -11 -13l4 -16v-3l-8 -9v-7q8 -6 19 -54l-4 -9l4 -10h-4l4 -3v-10l-4 -3l4 -3l-4 -48v-6l8 -19l-19 -73l4 -4v-3l-4 -9q18 -26 42 -26zM237 1212q-47 0 -95 19l-30 -4q-9 0 -19 31q-34 10 -34 30q0 23 -38 53
l-4 30h4l-4 4v4l19 68l-4 23q0 73 38 91q12 12 34 12l11 -4q0 19 23 19l4 -4l8 7l15 -3q2 19 23 38l19 -12q7 0 15 23h3q26 -23 54 -23q0 -11 15 -11l4 -15l-4 -12h4q18 0 26 -19q0 -11 19 -11h27q0 15 7 15q13 -42 38 -42v-3l-19 -31q23 -38 23 -57v-7l-15 -42q2 -38 7 -38
l-3 -4v-7h7q-18 -27 -38 -31q-14 -34 -38 -34q-42 -38 -64 -38z" />
    <glyph glyph-name="cent" unicode="&#xa2;" horiz-adv-x="1045" 
d="M119 322q-4 2 -9 4q-32 29 -32 44l4 4v4l-28 52l-16 8v36l4 16l-12 28l8 36l-4 24l4 32q-33 28 -36 60l4 44l-4 4v4q5 44 12 44l-8 24q9 0 28 60v24l-8 12v28q24 0 24 16v12l4 -4h4q50 26 56 48l12 8l-4 4v12q0 7 52 32q18 41 40 56q5 24 12 24l4 -24h16l28 28h4
q28 -1 28 -8q14 15 80 24q1 20 12 20h8v-8l28 28q19 -23 36 -28q0 10 32 16l5 -2l-3 35q10 0 12 36q44 25 44 32v12l-4 4l20 36v28l-8 12v16l4 16q0 13 26 68h24q8 0 8 7q0 6 -6 17l28 20v4l-4 24q26 52 56 52q0 10 36 40l4 24l-8 20l4 16v8l-12 4l4 20v4l-4 4v4l24 28l16 4
l4 -4h4q20 0 20 8q36 -4 36 -16l4 4h4q0 -15 36 -68l4 -12q-6 -42 -40 -80l4 -20v-4q0 -12 -32 -16l-4 4l-8 -32l-28 -108v-4l-18 -45l-14 -15h-4q-16 -7 -60 -100l-44 -96q-13 -4 -16 -16l4 -20l-4 -4h-8v8l-7 -10q9 -3 21 -3q24 -52 32 -52l24 4l8 -12l4 4h12
q0 -14 20 -44q14 -36 36 -36l40 -104h8l20 12l8 -12v-4l-4 -12l4 -20v-24l-32 -24l-12 8l-4 -4v-12l4 -4q0 -28 -28 -48v-8h-32q-4 -24 -12 -24h-8l-32 16q-12 0 -12 -12q-14 16 -64 36q-15 88 -20 88l4 4v4l-8 24q4 52 32 52l24 60q0 12 -24 12v8h-8q0 -16 -8 -16
q-7 0 -28 28q-5 14 -12 21h-2l-2 4q-6 3 -12 3l-4 -4h-4l-4 4h-4l-4 -1l2 -26l-4 -4v-4l20 -24q-24 -53 -24 -68q8 -32 36 -32l-4 -16h-4q0 -11 -20 -20q-16 4 -16 28h-8l8 -20l-4 -4h-4l-4 4l-8 -20l8 -16q-8 -19 -36 -44q-16 -60 -32 -60l-20 -44h4l-44 -64q0 -33 -16 -72
q0 -41 -40 -72q0 -11 -20 -32l4 -36l-8 -32v-12q-1 -4 -3 -7l9 -6l4 4q0 -12 12 -12q0 -16 8 -16l36 16h8l12 -16l-4 -12h4l4 4h4l4 -4q4 12 44 28l12 -12l-4 -4q5 -21 20 -32v-8h4l8 8l48 20v8h24l24 4l4 -4h4q15 0 24 44q19 0 56 32l4 -4h4q22 0 28 20h-4q12 19 12 36l8 8
q16 0 16 12l-4 12q12 0 12 16q32 21 32 48l20 8l32 -12l8 -16l-4 -20l4 -4q-8 0 -28 -48l4 -20l-16 -32l12 -52h-28q-32 -27 -32 -72l-4 -4l-12 -8l-12 4l-4 -4l-8 8q-22 -40 -32 -40l-12 4q-41 -36 -80 -36q-15 0 -32 -12h-32q-48 -8 -48 -32h-36q-17 12 -32 12l-16 -4
l-40 24l-16 -4q-48 13 -48 24h-24q-11 19 -25 35q-14 -46 -25 -94q0 -10 -36 -36l-4 -16l4 -12q-9 -3 -24 -52q-36 -39 -36 -60l4 -16q-1 -37 -40 -76l-20 -68l-8 -24v-28l12 -24l-4 -4v-4l4 -24q-2 -9 -32 -20l-8 -24v-20l-32 -16h-12q0 30 -72 60q-25 16 -44 112l-4 52
l24 8v-4l12 4v8q0 52 36 52q3 20 20 20q12 14 12 32q6 0 28 44q40 39 40 56q40 92 40 136l23 21l19 26l22 9l-8 16l4 4v4l-8 24zM467 1037l-41 -15q-10 24 -32 24q-64 -20 -64 -36q-19 0 -28 -60l-8 8q0 12 -24 12v-4q-20 -15 -32 -52q-20 -8 -20 -32q-12 0 -12 -20
q-23 0 -40 -20l-12 4l-20 -64l4 -12l-4 -24l4 -16q-12 -16 -16 -56l4 -4v-4l-4 -32v-8h4v12h8q0 -29 20 -64l-4 -4v-4l4 -16l-4 -4q0 -16 20 -24l-4 -20v-16q12 0 12 -20l-4 -4q11 0 16 -18q6 12 6 27l20 8v4l-4 20q16 7 16 28l-4 4v4q20 28 52 116q64 114 64 140
q0 22 20 44l16 80h16q7 0 20 40q7 0 20 52q26 13 35 26z" />
    </font>
</defs>
</svg>
