<?xml version="1.0" standalone="no"?>
<!DOCTYPE svg PUBLIC "-//W3C//DTD SVG 1.1//EN" "http://www.w3.org/Graphics/SVG/1.1/DTD/svg11.dtd" >
<svg xmlns="http://www.w3.org/2000/svg" xmlns:xlink="http://www.w3.org/1999/xlink" version="1.1">
<metadata>
Created by FontForge 20170910 at Wed Aug  6 13:43:40 2014
 By Jimmy Wärting
Daedra (c) (Neale Davidson). 2012-2014. All Rights Reserved
</metadata>
<defs>
<font id="Daedra-Bold" horiz-adv-x="1650" >
  <font-face 
    font-family="Daedra"
    font-weight="400"
    font-stretch="normal"
    units-per-em="2048"
    panose-1="2 0 5 0 0 0 0 0 0 0"
    ascent="1638"
    descent="-410"
    x-height="1257"
    cap-height="1402"
    bbox="-331 -485 1500 1771"
    underline-thickness="150"
    underline-position="-292"
    unicode-range="U+001D-F002"
  />
<missing-glyph 
d="M0 200v1100q0 200 200 200h1100q200 0 200 -200v-1100q0 -200 -200 -200h-1100q-200 0 -200 200zM1475 201v1099q0 175 -175 175h-1100q-174 0 -175 -175v-1100q1 -175 175 -175h1101q174 0 174 176z" />
    <glyph glyph-name=".notdef" 
d="M0 200v1100q0 200 200 200h1100q200 0 200 -200v-1100q0 -200 -200 -200h-1100q-200 0 -200 200zM1475 201v1099q0 175 -175 175h-1100q-174 0 -175 -175v-1100q1 -175 175 -175h1101q174 0 174 176z" />
    <glyph glyph-name=".null" horiz-adv-x="0" 
 />
    <glyph glyph-name=".null" horiz-adv-x="0" 
 />
    <glyph glyph-name="nonmarkingreturn" horiz-adv-x="508" 
 />
    <glyph glyph-name="space" unicode=" " horiz-adv-x="1093" 
 />
    <glyph glyph-name="space" unicode="&#xa0;" horiz-adv-x="1093" 
 />
    <glyph glyph-name="exclam" unicode="!" 
d="M0 200v1100q0 200 200 200h1100q200 0 200 -200v-1100q0 -200 -200 -200h-1100q-200 0 -200 200zM1475 201v1099q0 175 -175 175h-1100q-174 0 -175 -175v-1100q1 -175 175 -175h1101q174 0 174 176z" />
    <glyph glyph-name="quotedbl" unicode="&#x22;" 
d="M0 200v1100q0 200 200 200h1100q200 0 200 -200v-1100q0 -200 -200 -200h-1100q-200 0 -200 200zM1475 201v1099q0 175 -175 175h-1100q-174 0 -175 -175v-1100q1 -175 175 -175h1101q174 0 174 176z" />
    <glyph glyph-name="numbersign" unicode="#" 
d="M0 200v1100q0 200 200 200h1100q200 0 200 -200v-1100q0 -200 -200 -200h-1100q-200 0 -200 200zM1475 201v1099q0 175 -175 175h-1100q-174 0 -175 -175v-1100q1 -175 175 -175h1101q174 0 174 176z" />
    <glyph glyph-name="dollar" unicode="$" 
d="M0 200v1100q0 200 200 200h1100q200 0 200 -200v-1100q0 -200 -200 -200h-1100q-200 0 -200 200zM1475 201v1099q0 175 -175 175h-1100q-174 0 -175 -175v-1100q1 -175 175 -175h1101q174 0 174 176z" />
    <glyph glyph-name="percent" unicode="%" 
d="M0 200v1100q0 200 200 200h1100q200 0 200 -200v-1100q0 -200 -200 -200h-1100q-200 0 -200 200zM1475 201v1099q0 175 -175 175h-1100q-174 0 -175 -175v-1100q1 -175 175 -175h1101q174 0 174 176z" />
    <glyph glyph-name="ampersand" unicode="&#x26;" 
d="M0 200v1100q0 200 200 200h1100q200 0 200 -200v-1100q0 -200 -200 -200h-1100q-200 0 -200 200zM1475 201v1099q0 175 -175 175h-1100q-174 0 -175 -175v-1100q1 -175 175 -175h1101q174 0 174 176z" />
    <glyph glyph-name="quotesingle" unicode="'" 
d="M0 200v1100q0 200 200 200h1100q200 0 200 -200v-1100q0 -200 -200 -200h-1100q-200 0 -200 200zM1475 201v1099q0 175 -175 175h-1100q-174 0 -175 -175v-1100q1 -175 175 -175h1101q174 0 174 176z" />
    <glyph glyph-name="parenleft" unicode="(" 
d="M0 200v1100q0 200 200 200h1100q200 0 200 -200v-1100q0 -200 -200 -200h-1100q-200 0 -200 200zM1475 201v1099q0 175 -175 175h-1100q-174 0 -175 -175v-1100q1 -175 175 -175h1101q174 0 174 176z" />
    <glyph glyph-name="parenright" unicode=")" 
d="M0 200v1100q0 200 200 200h1100q200 0 200 -200v-1100q0 -200 -200 -200h-1100q-200 0 -200 200zM1475 201v1099q0 175 -175 175h-1100q-174 0 -175 -175v-1100q1 -175 175 -175h1101q174 0 174 176z" />
    <glyph glyph-name="asterisk" unicode="*" 
d="M0 200v1100q0 200 200 200h1100q200 0 200 -200v-1100q0 -200 -200 -200h-1100q-200 0 -200 200zM1475 201v1099q0 175 -175 175h-1100q-174 0 -175 -175v-1100q1 -175 175 -175h1101q174 0 174 176z" />
    <glyph glyph-name="plus" unicode="+" 
d="M0 200v1100q0 200 200 200h1100q200 0 200 -200v-1100q0 -200 -200 -200h-1100q-200 0 -200 200zM1475 201v1099q0 175 -175 175h-1100q-174 0 -175 -175v-1100q1 -175 175 -175h1101q174 0 174 176z" />
    <glyph glyph-name="comma" unicode="," 
d="M0 200v1100q0 200 200 200h1100q200 0 200 -200v-1100q0 -200 -200 -200h-1100q-200 0 -200 200zM1475 201v1099q0 175 -175 175h-1100q-174 0 -175 -175v-1100q1 -175 175 -175h1101q174 0 174 176z" />
    <glyph glyph-name="hyphen" unicode="-" 
d="M0 200v1100q0 200 200 200h1100q200 0 200 -200v-1100q0 -200 -200 -200h-1100q-200 0 -200 200zM1475 201v1099q0 175 -175 175h-1100q-174 0 -175 -175v-1100q1 -175 175 -175h1101q174 0 174 176z" />
    <glyph glyph-name="hyphen" unicode="&#xad;" 
d="M0 200v1100q0 200 200 200h1100q200 0 200 -200v-1100q0 -200 -200 -200h-1100q-200 0 -200 200zM1475 201v1099q0 175 -175 175h-1100q-174 0 -175 -175v-1100q1 -175 175 -175h1101q174 0 174 176z" />
    <glyph glyph-name="period" unicode="." 
d="M0 200v1100q0 200 200 200h1100q200 0 200 -200v-1100q0 -200 -200 -200h-1100q-200 0 -200 200zM1475 201v1099q0 175 -175 175h-1100q-174 0 -175 -175v-1100q1 -175 175 -175h1101q174 0 174 176z" />
    <glyph glyph-name="slash" unicode="/" 
d="M0 200v1100q0 200 200 200h1100q200 0 200 -200v-1100q0 -200 -200 -200h-1100q-200 0 -200 200zM1475 201v1099q0 175 -175 175h-1100q-174 0 -175 -175v-1100q1 -175 175 -175h1101q174 0 174 176z" />
    <glyph glyph-name="zero" unicode="0" horiz-adv-x="1219" 
d="M506 951q34 0 56 -17.5t33 -40t16 -47.5t5 -46q0 -45 -26.5 -97.5t-83.5 -52.5q-27 0 -46.5 15t-34 33t-22.5 40.5t-8 40.5q0 22 5.5 48.5t14.5 53t31 48.5t60 22zM383 1293q4 -3 11 -8q19 -15 59 -54q-68 -58 -108 -134t-65.5 -163t-38.5 -174t-13 -154
q0 -121 51.5 -248.5t212.5 -333.5q-129 42 -180.5 88t-91.5 107t-71.5 132.5t-53 142.5t-33 137t-11.5 115q0 138 10 227t21.5 145.5t22 84.5t10.5 40q0 32 -12 49.5t-29.5 28.5t-40.5 18.5t-144 49.5q256 7 374 9t228 2q113 0 227 -2t361 -9q-118 -42 -141.5 -55
t-45.5 -29.5t-35.5 -35.5t-13.5 -37q0 -15 16.5 -33.5t37.5 -68.5t38 -140.5t17 -243.5q0 -167 -17.5 -296t-61.5 -229t-117.5 -176t-364.5 -234q191 164 231.5 212.5t74 108t55 126.5t21.5 133q0 50 -2.5 124t-11.5 159t-25.5 175.5t-47 173t-77.5 153.5t-105 113
q-30 8 -61 8q-29 0 -60 -4z" />
    <glyph glyph-name="one" unicode="1" horiz-adv-x="435" 
d="M99 1401q41 -181 71.5 -249t39.5 -123q-27 -92 -49.5 -243t-42.5 -301.5t-32.5 -311t-23.5 -489.5l-68 232q-4 82 -6 259v117q0 119 2 236q2 176 5 364t3 300h-26q31 226 93 268z" />
    <glyph glyph-name="two" unicode="2" horiz-adv-x="668" 
d="M99 1401q41 -181 71.5 -249t39.5 -123q-27 -92 -49.5 -243t-42.5 -301.5t-32.5 -311t-23.5 -489.5l-68 232q-4 82 -6 259v117q0 119 2 236q2 176 5 364t3 300h-26q31 226 93 268zM332 1401q41 -181 71 -248.5t40 -123.5q-27 -92 -50 -243t-42.5 -301.5t-32 -311
t-25.5 -486.5l-67 229q-4 82 -5 259v117q0 119 1 236q2 176 5.5 364t3.5 300h-26q30 226 91 268z" />
    <glyph glyph-name="three" unicode="3" horiz-adv-x="900" 
d="M99 1401q41 -181 71.5 -249t39.5 -123q-27 -92 -49.5 -243t-42.5 -301.5t-32.5 -311t-23.5 -489.5l-68 232q-4 82 -6 259v117q0 119 2 236q2 176 5 364t3 300h-26q31 226 93 268zM332 1401q41 -181 71 -248.5t40 -123.5q-27 -92 -50 -243t-42.5 -301.5t-32 -311
t-25.5 -486.5l-67 229q-4 82 -5 259v117q0 119 1 236q2 176 5.5 364t3.5 300h-26q30 226 91 268zM564 1401q41 -181 71.5 -249t39.5 -123q-27 -92 -49.5 -243t-42.5 -301.5t-32.5 -311t-23.5 -489.5l-68 232q-4 82 -6 259v117q0 119 2 236q2 176 5 364t3 300h-26
q31 226 93 268z" />
    <glyph glyph-name="four" unicode="4" horiz-adv-x="1133" 
d="M99 1401q41 -181 71.5 -249t39.5 -123q-27 -92 -49.5 -243t-42.5 -301.5t-32.5 -311t-23.5 -489.5l-68 232q-4 82 -6 259v117q0 119 2 236q2 176 5 364t3 300h-26q31 226 93 268zM332 1401q41 -181 71 -248.5t40 -123.5q-27 -92 -50 -243t-42.5 -301.5t-32 -311
t-25.5 -486.5l-67 229q-4 82 -5 259v117q0 119 1 236q2 176 5.5 364t3.5 300h-26q30 226 91 268zM564 1401q41 -181 71.5 -249t39.5 -123q-27 -92 -49.5 -243t-42.5 -301.5t-32.5 -311t-23.5 -489.5l-68 232q-4 82 -6 259v117q0 119 2 236q2 176 5 364t3 300h-26
q31 226 93 268zM797 1401q41 -181 71 -248.5t40 -123.5q-27 -92 -50 -243t-42.5 -301.5t-32 -311t-25.5 -486.5l-67 229q-4 82 -5 259v117q0 119 1 236q2 176 5.5 364t3.5 300h-26q30 226 91 268z" />
    <glyph glyph-name="five" unicode="5" horiz-adv-x="804" 
d="M118 484q-20 -150 -32.5 -310.5t-23.5 -489.5l-68 232q-4 82 -6 259v117q0 119 2 236q2 176 5 364t3 300h-26q31 226 93 268l34 -59q41 -181 71.5 -249t39.5 -123q-16 -55 -26 -102q25 0 69 -1q85 -3 142 -3t89 5t205 110q-143 -148 -156 -215q-11 -56 -56 -97t-142 -54
q-40 12 -79 16.5t-90 5.5q-33 -95 -48 -210z" />
    <glyph glyph-name="six" unicode="6" horiz-adv-x="993" 
d="M554 959q2 142 2 233h-26q31 226 93 268l34 -59q41 -181 71.5 -249t39.5 -123q-27 -92 -49.5 -243t-42.5 -301.5t-32.5 -311t-23.5 -489.5l-68 232q-4 82 -6 259v117q0 119 2 236q2 166 5 343q-16 -28 -20 -48q-11 -56 -56 -97t-142 -54q-40 12 -79 16.5t-90 5.5
q-33 -95 -48 -210q-20 -150 -32.5 -310.5t-23.5 -489.5l-68 232q-4 82 -6 259v117q0 119 2 236q2 176 5 364t3 300h-26q31 226 93 268l34 -59q41 -181 71.5 -249t39.5 -123q-16 -55 -26 -102q25 0 69 -1q85 -3 142 -3t89 5q16 3 70 31z" />
    <glyph glyph-name="seven" unicode="7" horiz-adv-x="1226" 
d="M890 1401q41 -181 71 -248.5t40 -123.5q-27 -92 -50 -243t-42.5 -301.5t-32 -311t-25.5 -486.5l-67 229q-4 82 -5 259v117q0 119 1 236q2 176 5.5 364t3.5 300h-26q30 226 91 268zM554 959q2 142 2 233h-26q31 226 93 268l34 -59q41 -181 71.5 -249t39.5 -123
q-27 -92 -49.5 -243t-42.5 -301.5t-32.5 -311t-23.5 -489.5l-68 232q-4 82 -6 259v117q0 119 2 236q2 166 5 343q-16 -28 -20 -48q-11 -56 -56 -97t-142 -54q-40 12 -79 16.5t-90 5.5q-33 -95 -48 -210q-20 -150 -32.5 -310.5t-23.5 -489.5l-68 232q-4 82 -6 259v117
q0 119 2 236q2 176 5 364t3 300h-26q31 226 93 268l34 -59q41 -181 71.5 -249t39.5 -123q-16 -55 -26 -102q25 0 69 -1q85 -3 142 -3t89 5q16 3 70 31z" />
    <glyph glyph-name="eight" unicode="8" horiz-adv-x="1458" 
d="M890 1401q41 -181 71 -248.5t40 -123.5q-27 -92 -50 -243t-42.5 -301.5t-32 -311t-25.5 -486.5l-67 229q-4 82 -5 259v117q0 119 1 236q2 176 5.5 364t3.5 300h-26q30 226 91 268zM1122 1401q41 -181 71.5 -249t39.5 -123q-27 -92 -49.5 -243t-42.5 -301.5t-32.5 -311
t-23.5 -489.5l-68 232q-4 82 -6 259v117q0 119 2 236q2 176 5 364t3 300h-26q31 226 93 268zM553 871q-16 -28 -20 -48q-11 -56 -56 -97t-142 -54q-40 12 -79 16.5t-90 5.5q-33 -95 -48 -210q-20 -150 -32.5 -310.5t-23.5 -489.5l-68 232q-4 82 -6 259v117q0 119 2 236
q2 176 5 364t3 300h-26q31 226 93 268l34 -59q41 -181 71.5 -249t39.5 -123q-16 -55 -26 -102q25 0 69 -1q85 -3 142 -3t89 5q16 3 70 31q2 142 2 233h-26q31 226 93 268l34 -59q41 -181 71.5 -249t39.5 -123q-27 -92 -49.5 -243t-42.5 -301.5t-32.5 -311t-23.5 -489.5
l-68 232q-4 82 -6 259v117q0 119 2 236q2 166 5 343z" />
    <glyph glyph-name="nine" unicode="9" horiz-adv-x="1691" 
d="M890 1401q41 -181 71 -248.5t40 -123.5q-27 -92 -50 -243t-42.5 -301.5t-32 -311t-25.5 -486.5l-67 229q-4 82 -5 259v117q0 119 1 236q2 176 5.5 364t3.5 300h-26q30 226 91 268zM1122 1401q41 -181 71.5 -249t39.5 -123q-27 -92 -49.5 -243t-42.5 -301.5t-32.5 -311
t-23.5 -489.5l-68 232q-4 82 -6 259v117q0 119 2 236q2 176 5 364t3 300h-26q31 226 93 268zM1355 1401q41 -181 71 -248.5t40 -123.5q-27 -92 -50 -243t-42.5 -301.5t-32 -311t-25.5 -486.5l-67 229q-4 82 -5 259v117q0 119 1 236q2 176 5.5 364t3.5 300h-26q30 226 91 268
zM553 871q-16 -28 -20 -48q-11 -56 -56 -97t-142 -54q-40 12 -79 16.5t-90 5.5q-33 -95 -48 -210q-20 -150 -32.5 -310.5t-23.5 -489.5l-68 232q-4 82 -6 259v117q0 119 2 236q2 176 5 364t3 300h-26q31 226 93 268l34 -59q41 -181 71.5 -249t39.5 -123q-16 -55 -26 -102
q25 0 69 -1q85 -3 142 -3t89 5q16 3 70 31q2 142 2 233h-26q31 226 93 268l34 -59q41 -181 71.5 -249t39.5 -123q-27 -92 -49.5 -243t-42.5 -301.5t-32.5 -311t-23.5 -489.5l-68 232q-4 82 -6 259v117q0 119 2 236q2 166 5 343z" />
    <glyph glyph-name="colon" unicode=":" 
d="M0 200v1100q0 200 200 200h1100q200 0 200 -200v-1100q0 -200 -200 -200h-1100q-200 0 -200 200zM1475 201v1099q0 175 -175 175h-1100q-174 0 -175 -175v-1100q1 -175 175 -175h1101q174 0 174 176z" />
    <glyph glyph-name="semicolon" unicode=";" 
d="M0 200v1100q0 200 200 200h1100q200 0 200 -200v-1100q0 -200 -200 -200h-1100q-200 0 -200 200zM1475 201v1099q0 175 -175 175h-1100q-174 0 -175 -175v-1100q1 -175 175 -175h1101q174 0 174 176z" />
    <glyph glyph-name="semicolon" unicode="&#x37e;" 
d="M0 200v1100q0 200 200 200h1100q200 0 200 -200v-1100q0 -200 -200 -200h-1100q-200 0 -200 200zM1475 201v1099q0 175 -175 175h-1100q-174 0 -175 -175v-1100q1 -175 175 -175h1101q174 0 174 176z" />
    <glyph glyph-name="less" unicode="&#x3c;" 
d="M0 200v1100q0 200 200 200h1100q200 0 200 -200v-1100q0 -200 -200 -200h-1100q-200 0 -200 200zM1475 201v1099q0 175 -175 175h-1100q-174 0 -175 -175v-1100q1 -175 175 -175h1101q174 0 174 176z" />
    <glyph glyph-name="equal" unicode="=" 
d="M0 200v1100q0 200 200 200h1100q200 0 200 -200v-1100q0 -200 -200 -200h-1100q-200 0 -200 200zM1475 201v1099q0 175 -175 175h-1100q-174 0 -175 -175v-1100q1 -175 175 -175h1101q174 0 174 176z" />
    <glyph glyph-name="greater" unicode="&#x3e;" 
d="M0 200v1100q0 200 200 200h1100q200 0 200 -200v-1100q0 -200 -200 -200h-1100q-200 0 -200 200zM1475 201v1099q0 175 -175 175h-1100q-174 0 -175 -175v-1100q1 -175 175 -175h1101q174 0 174 176z" />
    <glyph glyph-name="question" unicode="?" 
d="M0 200v1100q0 200 200 200h1100q200 0 200 -200v-1100q0 -200 -200 -200h-1100q-200 0 -200 200zM1475 201v1099q0 175 -175 175h-1100q-174 0 -175 -175v-1100q1 -175 175 -175h1101q174 0 174 176z" />
    <glyph glyph-name="at" unicode="@" 
d="M0 200v1100q0 200 200 200h1100q200 0 200 -200v-1100q0 -200 -200 -200h-1100q-200 0 -200 200zM1475 201v1099q0 175 -175 175h-1100q-174 0 -175 -175v-1100q1 -175 175 -175h1101q174 0 174 176z" />
    <glyph glyph-name="A" unicode="A" horiz-adv-x="1050" 
d="M105 1290q-14 6 -32.5 9t-37 3.5t-39.5 7t-21 29.5q0 38 45 46q22 6 65 6h17q52 -2 131.5 -6t186.5 -4q109 0 182 3t116 5q30 2 48 2h18q41 -5 41 -30q0 -43 -28 -58.5t-45 -31.5q-36 -31 -80 -83t-74 -112q-8 -31 -15 -60.5t-7 -53.5q0 -30 3 -58v-9q0 -40 -40 -40
q-34 0 -51 48.5t-17 101.5q0 41 14.5 89.5t29.5 87.5q10 31 18 59q4 15 4 26q0 7 -2 12q-4 12 -24.5 20.5t-78.5 8.5q-86 0 -115 -135q-24 -79 -33.5 -184t-9.5 -212q0 -74 4.5 -128t14.5 -95t26.5 -80t40.5 -89q47 -122 69.5 -162.5t26.5 -40.5q7 0 22.5 22t28 56.5
t26.5 70.5t41 36q29 0 32 -31v-8q0 -11 -2 -25q-3 -20 -7.5 -40.5t-9.5 -37.5q-10 -36 -21 -52t-11 -43q0 -58 -3 -103t-44 -45q-35 0 -75.5 49.5t-82.5 113.5t-82 135.5t-64 124.5q-26 43 -56 98t-55.5 108.5t-44 103.5t-18.5 85q0 59 15.5 107t41.5 105q25 50 49 91t24 62
q0 63 -14.5 87t-40.5 38z" />
    <glyph glyph-name="B" unicode="B" horiz-adv-x="1147" 
d="M9 392q0 74 -6 161.5t-10 164.5q-3 52 -3 92q0 20 1 38q3 70 43 70q37 0 49.5 -52t21.5 -116.5t19.5 -139.5t25.5 -137.5t35.5 -98.5t43.5 -36q63 0 94 53.5t31 129.5q0 54 -15 89t-37.5 63t-51 54t-54 59t-42.5 77.5t-17 109.5q0 43 2.5 88t2.5 84q0 37 -7.5 68.5
t-25.5 54.5q-15 18 -34.5 30.5t-38.5 20t-40 16t-21 27.5q0 33 75 33q27 0 66 -3q112 -10 340 -10q128 0 212 3.5t135 6.5q35 1 55 1h19q45 -2 45 -31v-203q0 -83 -46.5 -137t-101.5 -82t-101 -32q-8 -1 -15 -1q-57 0 -57 35q0 27 30 32t52.5 15.5t41 36.5t18.5 89
q0 97 -63 140.5t-150 43.5q-37 0 -81 -1t-79.5 -6.5t-55 -15t-19.5 -21.5q0 -44 46.5 -109t103 -149t105.5 -182t49 -207q0 -66 -42 -138.5t-102.5 -140.5t-132 -130t-134 -108t-112.5 -76t-65 -30q-27 0 -27 30q0 7 1 20q3 29 7.5 82t10.5 124.5t6 150.5z" />
    <glyph glyph-name="C" unicode="C" horiz-adv-x="1150" 
d="M6 1380q12 9 40 9q20 0 68 -1t129.5 -2t212.5 -1q124 0 205.5 1t132 2t72.5 1q30 0 52 -11q7 -17 7 -59q0 -39 -1 -114.5t-1.5 -193t-0.5 -282.5q0 -406 -4 -617.5t-54 -211.5q-40 0 -45 86t-9.5 211t-14 286t-31.5 331q-16 106 -43.5 161t-52.5 79.5t-50 33t-25 29.5
q0 23 34 30.5t63.5 20t51.5 39.5t22 62h-629q0 -21 27 -46.5t59 -42.5t69.5 -29.5t37.5 -33.5q0 -20 -22 -29t-45.5 -32t-53.5 -74t-52 -148q-28 -134 -42.5 -291.5t-22.5 -294.5t-14 -238t-42 -101q-33 0 -41.5 51t-12 122t-4.5 160t-1 181v606q0 114 2.5 186.5t7 112.5
t21.5 52z" />
    <glyph glyph-name="D" unicode="D" horiz-adv-x="1008" 
d="M141 1079q-10 -19 -16 -65q-5 -39 -5 -92v-18q1 -64 12 -141q6 -72 37 -138t70 -119t80 -89t86 -53q-10 -59 -10 -103v-22q3 -52 25 -106q22 -39 46.5 -74.5t45 -63t24.5 -43.5q2 -4 2 -10q0 -30 -42 -30q-19 0 -59.5 28t-92.5 78t-113 120.5t-114 161.5
q-33 59 -59.5 128.5t-45.5 146t-28 154t-9 151.5q0 91 24.5 178t53.5 156t56 114t37 54q21 10 66 10q20 0 47 -1q78 -4 182 -4q57 0 109.5 1t93.5 3q20 1 38 1q17 0 32 -1q31 -2 43 -7q14 -10 15 -50t1 -95v-124q0 -68 -1 -140t-2.5 -139.5t-1.5 -117.5q0 -133 4.5 -272.5
t7.5 -253.5q3 -85 3 -147v-39q-1 -94 -40 -94q-34 0 -46.5 82t-22 193t-15 240t-5.5 238q0 96 -4 180t-18 153t-40.5 122t-70.5 93q-69 61 -141.5 86t-141.5 25q-26 0 -33.5 -6.5t-7.5 -19.5q0 -17 9.5 -40.5t18.5 -44.5q23 -27 54.5 -53.5t128.5 -41.5q-62 -47 -81.5 -89
t-44.5 -91q-11 -30 -13 -60.5t-3 -57t-8 -53t-42 -26.5q-32 0 -36 36t-6.5 76t-3.5 86t-5.5 84.5t-10.5 56.5q-4 11 -4 15z" />
    <glyph glyph-name="E" unicode="E" horiz-adv-x="1068" 
d="M-25 1365q0 25 71 30t161 7q48 1 95 1q50 0 104 -1q105 -2 195 -4t150 -3l83 -1l11 -1235l-59 261q-6 29 -20 67t-37 77t-55 61q-16 11 -46 17t-67 9t-75 3h-66q-88 0 -152.5 -6.5t-96.5 -40.5q-30 -29 -40 -72.5t-10 -98.5q0 -23 4.5 -57t12.5 -68.5t18.5 -65
t24.5 -47.5q39 -54 94 -82t178 -28q161 0 237 4h14q86 0 86 -44q0 -29 -66 -34.5t-151 -6.5h-181q-96 1 -179.5 3.5t-137.5 3.5l-80 4l-13 1217q70 -274 98 -321t57 -76q24 -21 50 -30t55 -11h21q22 0 47 2q36 2 79 2q103 0 170 5.5t103 32.5q34 27 40 71t6 109
q0 47 -6 106.5t-42 95.5q-61 53 -128 71t-179 18q-72 0 -134 -2q-45 -1 -80 -1h-34q-52 1 -91 12t-39 46z" />
    <glyph glyph-name="F" unicode="F" horiz-adv-x="1250" 
d="M541 1269h-7q-11 0 -32 1q-18 1 -37 1q-38 0 -81 -4q-64 -7 -128 -24.5t-104 -46.5q-27 -18 -44 -55t-29 -75t-24 -75.5t-48 -37.5q-31 0 -32 62v28q0 32 1 72q3 57 6 117t6.5 99t3.5 61l965 11l60 -205q-87 117 -96 117q-8 0 -20 -4q-39 -13 -99.5 -66t-138 -142
t-139.5 -175q88 0 173 -2.5t144 -2.5q56 0 88.5 5t215.5 116q-154 -154 -167 -221q-10 -48 -10 -101q0 -23 2 -50q0 -52 4.5 -102.5t9 -90t4.5 -65.5q0 -43 -32 -43q-39 0 -52 49t-26.5 100.5t-37 95.5t-67.5 58q-32 10 -71.5 14.5t-89.5 5.5q-26 1 -54 1q-29 0 -59 -1
q-66 -1 -131 -1q-89 -159 -169.5 -372t-125.5 -564q-65 155 -65 252q0 94 22 209t63 242t94 259q45 106 98.5 197.5t105 164t96.5 126.5q42 49 54 62z" />
    <glyph glyph-name="G" unicode="G" horiz-adv-x="963" 
d="M-25 1391q118 5 204 5q87 0 172 -1t171 -2t205 -1q0 -55 -19 -68.5t-34.5 -21.5t-24.5 -15.5t-9 -21.5q0 -21 14 -42.5t33.5 -57.5t35 -92t15.5 -142q0 -78 -32.5 -185t-84.5 -221t-118.5 -225t-138 -198t-140.5 -138q-63 -49 -119 -49q-12 0 -67 12q120 91 200 186
t141 206.5t98 234t37 246.5q0 71 -7.5 141.5t-24.5 129.5t-41.5 102t-49.5 59q-49 0 -117.5 -1t-134.5 -7q-29 -18 -53.5 -72t-99.5 -244q0 227 -5.5 300t-5.5 183z" />
    <glyph glyph-name="H" unicode="H" horiz-adv-x="1210" 
d="M799 1184v9q0 58 -7 71h-187q-13 -14 -27 -48.5t-14 -81.5q0 -29 22.5 -73t57.5 -86.5t77 -72.5q33 -25 39 -26l24 136q13 106 15 172zM712 585q-18 -42 -39 -90q-49 -113 -128 -247t-208 -266q-85 0 -168.5 -6.5t-499.5 -51.5q429 100 496.5 129t96.5 58
q56 54 103.5 138.5t83.5 179t56.5 187.5t20.5 163q0 145 -42.5 243t-106 163t-141 103t-245.5 104h696q29 7 63 23.5t65.5 34t59.5 33.5t52 16q49 0 57 -70q1 -14 1 -29q0 -45 -56 -198l-5 -30q-5 -373 -149 -659l-89 -62z" />
    <glyph glyph-name="I" unicode="I" horiz-adv-x="864" 
d="M247 1145q-46 -1 -81 -28q-37 -29 -65 -62.5t-46 -60.5q-22 -33 -48 -33q-11 0 -27 11q-5 16 -5 59q0 44 2.5 99t4.5 112t4 92t2 58q29 0 84 2t142.5 4t174.5 4h53q54 0 96 -2q72 -2 84 -12q17 -9 17 -28t-19 -49q-24 -39 -57 -79q-30 -56 -57.5 -103.5t-62.5 -47.5
q-9 0 -17 2q1 -2 2 -3q21 -42 31 -98q-27 -92 -49.5 -219.5t-42 -278t-37 -316t-64.5 -653.5q-28 483 -29 660v117q0 119 1 236q3 176 6 341q3 164 3 276z" />
    <glyph glyph-name="J" unicode="J" horiz-adv-x="1132" 
d="M145 1391q73 5 156.5 7t172.5 2q91 0 183.5 -2t176.5 -6q33 -19 33 -36q0 -13 -9 -19q-9 -11 -26 -22.5t-30.5 -26t-13.5 -36.5q0 -23 16.5 -68t36.5 -111t37 -155.5t17 -204.5v-185q0 -96 0.5 -189.5t3 -180t10.5 -182.5q-104 20 -174 20q-16 0 -31 -1q-90 -4 -425 -34
q307 81 354.5 150.5t73.5 160t32.5 187.5t6.5 170q0 129 -16.5 222t-48.5 159t-77.5 110t-99.5 72q-35 5 -86 5h-16q-62 -1 -129 -16q-43 -19 -79 -79t-60.5 -137t-39.5 -160t-29 -261q-66 181 -76 267t-13 171q-1 29 -1 56q0 55 4 105q3 75 15 132z" />
    <glyph glyph-name="K" unicode="K" horiz-adv-x="1077" 
d="M242 1281l1 -1q9 -12 30 -26.5t46.5 -28t59.5 -56.5q-81 0 -111 -12.5t-56 -54t-42.5 -125.5t-16.5 -229q0 -82 17 -176.5t43.5 -176t50 -130.5t26.5 -49q24 0 44.5 40t34 95.5t23 111t38.5 55.5q25 0 32.5 -36t14 -77t9.5 -93t3 -94q0 -81 -13 -153t-67 -72
q-46 0 -97 42t-98 108t-90 149t-76 173.5t-53 179.5t-20 166q0 59 6.5 133t25.5 154t51 155t90 140q106 -6 198 -6q62 0 123 2q154 5 364 15q19 -30 19 -46q0 -18 -23 -39q-25 0 -43 -16t-18 -39q-3 -21 -3 -41q0 -27 7 -55q10 -53 26 -110t30.5 -123.5t14.5 -145.5
q0 -70 -9 -143t-33 -142.5t-62 -128.5t-190 -158q80 127 102.5 168t36 90t22 114.5t8.5 158.5q0 57 -20 128.5t-50.5 140t-67 126t-70.5 87.5q-23 20 -69.5 32.5t-91.5 18.5q-39 5 -70 5h-12q-17 0 -17 -2q-5 -3 -7 -3h-1z" />
    <glyph glyph-name="L" unicode="L" horiz-adv-x="1125" 
d="M-53 1387q252 26 450 26h54q221 -4 449 -14q0 -34 -9.5 -71.5t-28 -84t-44.5 -96.5t-58 -92.5t-74 -73t-162 -30.5q91 60 111.5 98t23.5 77v12q0 35 -14 66q-17 37 -50 61q-33 4 -69 6q-24 2 -47 2h-24q-36 -2 -76.5 -6.5t-42.5 -4.5q6 -3 44.5 -48t70.5 -101t51 -120
t19 -129v-551q0 -60 27.5 -106t75 -81.5t107.5 -60t379 -74.5q-346 0 -429 2.5t-145 3.5t-101 3l-60 3v699q0 134 -41 237.5t-101.5 182.5t-129.5 136.5t-156 128.5z" />
    <glyph glyph-name="M" unicode="M" horiz-adv-x="1170" 
d="M-12 1396q88 -7 134.5 -9t88.5 -2q43 0 87 2t244 19q-175 -67 -209.5 -97t-34.5 -54q0 -47 14 -104.5t39.5 -111.5t59 -95.5t53.5 -51.5q20 18 48.5 57.5t49.5 82.5t32 86t11 82q0 53 -13.5 93t-61.5 101q118 0 200 1t204 10q0 -79 2 -160.5t3 -176.5t3.5 -194t2.5 -193
q0 -34 -3.5 -103.5t-16 -152.5t-35 -171t-61.5 -161.5t-97.5 -123.5t-248.5 -50q168 69 206.5 152.5t53.5 191.5q13 101 13 205v17q-1 112 -1 196q0 64 -5.5 129t-14.5 117t-18 77l-6 14q-51 -63 -82.5 -113.5t-71.5 -98t-89 -47.5q-45 0 -89 43t-82.5 89t-72.5 81t-49 35
q-14 0 -34.5 -51.5t-31.5 -129.5q-8 -52 -8 -107q0 -27 2 -55q6 -81 47 -154q-93 0 -119 54.5t-38 130.5t-16 170q-2 72 -2 141v48q1 94 5.5 179t7.5 163z" />
    <glyph glyph-name="N" unicode="N" horiz-adv-x="947" 
d="M390 753q0 -76 -13 -154q-28 -144 -81.5 -272.5t-124 -233t-283.5 -299.5q174 262 214.5 354t59.5 180t24 183t5 211q0 103 -33 206.5t-74 192t-75 155t-34 114.5q85 8 144.5 13t118.5 5q60 0 123.5 -5t256.5 -21q-188 -48 -228 -78t-40 -95q0 -30 18 -86.5t45 -111.5
t54 -91t41 -36q13 0 34.5 27.5t39 81.5t29 124.5t11.5 206.5q69 -79 81 -119.5t16 -85.5q3 -34 3 -69v-20q-1 -45 -7 -83q-7 -46 -28 -105t-46 -112t-54.5 -94t-58.5 -41q-39 0 -65.5 35t-49.5 79q-12 21 -23 44z" />
    <glyph glyph-name="O" unicode="O" horiz-adv-x="1219" 
d="M506 951q34 0 56 -17.5t33 -40t16 -47.5t5 -46q0 -45 -26.5 -97.5t-83.5 -52.5q-27 0 -46.5 15t-34 33t-22.5 40.5t-8 40.5q0 22 5.5 48.5t14.5 53t31 48.5t60 22zM383 1293q4 -3 11 -8q19 -15 59 -54q-68 -58 -108 -134t-65.5 -163t-38.5 -174t-13 -154
q0 -121 51.5 -248.5t212.5 -333.5q-129 42 -180.5 88t-91.5 107t-71.5 132.5t-53 142.5t-33 137t-11.5 115q0 138 10 227t21.5 145.5t22 84.5t10.5 40q0 32 -12 49.5t-29.5 28.5t-40.5 18.5t-144 49.5q256 7 374 9t228 2q113 0 227 -2t361 -9q-118 -42 -141.5 -55
t-45.5 -29.5t-35.5 -35.5t-13.5 -37q0 -15 16.5 -33.5t37.5 -68.5t38 -140.5t17 -243.5q0 -167 -17.5 -296t-61.5 -229t-117.5 -176t-364.5 -234q191 164 231.5 212.5t74 108t55 126.5t21.5 133q0 50 -2.5 124t-11.5 159t-25.5 175.5t-47 173t-77.5 153.5t-105 113
q-30 8 -61 8q-29 0 -60 -4z" />
    <glyph glyph-name="P" unicode="P" horiz-adv-x="1177" 
d="M399 950q19 -25 67.5 -35t73.5 -10q12 49 33 104t39 103.5t30 95t12 79.5q-106 8 -226 8q-119 0 -213 -6q30 -26 63 -80t52 -104.5t32 -90t37 -64.5zM964 1400q-61 -120 -114.5 -236t-98 -237.5t-72.5 -239.5t-28 -212q0 -122 24 -267t49 -361q-104 126 -141.5 195.5
t-62 144.5t-37 148t-12.5 140q0 116 14 206t23 134q-41 -9 -113 -34t-157 -111q-12 124 -23 203t-36.5 161.5t-72.5 163.5t-154 191q268 16 460 16q41 0 82 -1q224 -4 470 -4z" />
    <glyph glyph-name="Q" unicode="Q" horiz-adv-x="1060" 
d="M283 1232q35 -54 86 -199.5t58 -190.5q-1 -4 -1 -5q1 0 22 57q26 72 57.5 141t66.5 138l29 59l-29 -1q-64 6 -108 6q-21 0 -40 -1zM786 178q-31 148 -47.5 180.5t-46.5 55.5q-46 0 -102.5 -5.5t-87.5 -5.5q3 -39 16 -99t30 -114t38.5 -97t63.5 -100q-143 0 -233 4
q-30 1 -60 1q-59 0 -152 -8q17 52 32.5 96.5t31 100t30.5 117t19 99.5q-37 0 -95.5 1t-102.5 8q-14 -14 -40.5 -52t-79.5 -200q-23 184 -25 247v11q0 58 29 145q100 -11 181 -12t135 -1q0 119 -31.5 242.5t-81.5 228.5t-108 190.5t-132 179.5q262 8 458 8q199 0 415 -9
q-58 -91 -108.5 -200.5t-99 -231t-85 -237.5t-44.5 -171q53 0 131.5 1t172.5 12q28 -80 28 -139q0 -11 -1 -20q-5 -67 -48 -226z" />
    <glyph glyph-name="R" unicode="R" horiz-adv-x="1137" 
d="M-61 1074q70 124 122.5 171t118.5 78.5t138.5 50t145.5 18.5q85 0 165 -17.5t143 -53.5t101.5 -90.5t38.5 -144.5q-124 -28 -221.5 -55.5t-169.5 -69t-116 -108.5t-44 -172q0 -79 4.5 -178.5t15 -202t26 -198.5t73.5 -263q-111 110 -144 176t-62.5 145.5t-54.5 169
t-43 173.5t-28.5 153t-10.5 112q0 61 20 102t55 71t76.5 50t88.5 41q66 32 131.5 67t75.5 39q-29 21 -108.5 53t-162.5 32q-54 0 -98 -10.5t-79 -25.5t-65 -34.5t-132 -78.5z" />
    <glyph glyph-name="S" unicode="S" horiz-adv-x="1042" 
d="M404 893q9 -13 69 -95q62 -87 111.5 -182.5t80 -194.5t30.5 -194q0 -57 -30 -118t-75.5 -115.5t-98.5 -97t-217 -120.5q128 127 165 157t66.5 66.5t46 88.5t16.5 139q0 128 -61.5 250t-153 227.5t-192.5 192t-222 181.5q193 0 328 -19t220 -46q-3 14 -39.5 69t-84.5 106
t-102.5 94.5t-150.5 98.5q217 27 343 27h27q109 0 221 -9q46 -35 69.5 -77.5t34.5 -87.5t12 -88v-15q0 -32 -10 -100q-60 57 -78 84t-36 53.5t-40.5 49.5t-47.5 37q-32 7 -75 7q-42 0 -58 -2q33 -27 79 -96t70 -138q22 -68 22 -131v-6q0 -68 -45 -155q-70 87 -138 126
q-46 26 -56 33z" />
    <glyph glyph-name="T" unicode="T" horiz-adv-x="1092" 
d="M509 246.5q56 19.5 108.5 52.5t99.5 77t212 216q-113 -214 -164 -289.5t-112 -139.5t-132.5 -106.5t-142.5 -42.5q-85 0 -146.5 48t-105 116t-70 150t-54.5 269q130 -206 181.5 -272.5t88.5 -78.5q8 29 8 93v25q-4 79 -4 146q0 128 -25.5 253t-68 236t-95 204.5
t-134.5 187.5l664 11q-25 107 -143.5 185.5t-456.5 183.5q249 0 363.5 -26t210.5 -75.5t168 -121t111 -169.5q-101 -100 -198.5 -149.5t-186.5 -49.5q-87 0 -177 36q124 -138 152.5 -216t28.5 -178q0 -140 -28.5 -293t-64.5 -302q57 0 113 19.5z" />
    <glyph glyph-name="U" unicode="U" horiz-adv-x="1132" 
d="M-6 108q-12 56 -15 132q-4 50 -4 105q0 27 1 56q3 85 13 171t76 265q14 -177 29 -259.5t39.5 -159.5t60.5 -137t80 -79q66 -16 128 -16h16q51 0 86 5q54 27 99.5 71.5t77.5 110.5t48.5 159t16.5 222q0 73 -6.5 169.5t-32.5 187.5t-73.5 160t-355.5 148q336 -27 426 -31
q15 -1 31 -1q70 0 174 18q-8 -94 -10.5 -180.5t-3 -180.5t-0.5 -189v-185q0 -115 -17 -205t-37 -155.5t-36.5 -110.5t-16.5 -69q0 -21 13.5 -35.5t30.5 -26t27 -23.5q8 -8 8 -18q0 -19 -33 -36q-84 -4 -176.5 -6.5t-183.5 -2.5q-89 0 -172.5 2.5t-156.5 7.5zM379 669
q69 0 100 -35t31 -71q0 -42 -37 -69.5t-94 -27.5q-51 0 -93 27.5t-42 69.5q0 37 36.5 71.5t98.5 34.5z" />
    <glyph glyph-name="V" unicode="V" horiz-adv-x="1039" 
d="M366 4q71 58 109 99q46 51 84 114.5t62 134t24 146.5q0 93 -22.5 202.5t-64 217.5t-95 209t-96.5 155q-25 -30 -64 -115t-67 -179t-44 -185t-16 -154q0 -79 14.5 -167t40.5 -173.5t61 -165.5q24 -56 74 -139zM336 -25q-4 -1 -7 -1q2 1 4 3q-92 58 -139 110
q-65 72 -113 159.5t-77 182t-29 177.5q0 132 21 226.5t45 168.5t44 131.5t20 110.5q0 42 -24.5 69.5t-131.5 72.5q182 15 269 19t166 4q81 0 156 -4t277 -25q-147 -32 -173 -52t-26 -51q0 -43 31 -95t66 -124.5t67 -161.5t32 -202q0 -156 -37.5 -283t-96 -218.5
t-131.5 -146.5q-60 -45 -169 -64q16 -24 33 -51q-42 23 -77 45z" />
    <glyph glyph-name="W" unicode="W" horiz-adv-x="1287" 
d="M453 318q14 32 37 102t37.5 139t22 134t7.5 116q0 55 -19 128t-47.5 138t-58 105.5t-43.5 40.5q-19 0 -52 -42.5t-64 -108.5t-52.5 -138.5t-21.5 -122.5q0 -65 26 -138.5t65.5 -144.5t90 -130.5t72.5 -77.5zM1002 1589q54 -88 59 -163q1 -14 1 -30q0 -60 -16 -123
q-19 -77 -65 -148.5t-199 -146.5q57 78 68 98t19.5 45.5t13.5 53.5q2 14 2 27t-1 20q-26 33 -57 42.5t-59 9.5q-39 0 -72.5 -29.5t-33.5 -79.5q0 -64 10.5 -108.5t40.5 -73.5l90 -106q-17 -108 -47 -228.5t-71.5 -241.5t-91 -229t-117.5 -201q-54 12 -131 12q-75 0 -583 -62
q492 107 544.5 161.5t86.5 112.5q-40 27 -111 91t-134 141t-107 160.5t-44 160.5q0 36 22.5 94t48.5 124t47.5 130.5t21.5 115.5q0 28 -12.5 49.5t-32.5 37.5t-46.5 27t-261.5 70q334 -20 432 -25t190 -6h62q61 0 122 1q92 3 195 9q70 13 117 63.5t100 144.5z" />
    <glyph glyph-name="X" unicode="X" horiz-adv-x="1270" 
d="M527 1586q342 -182 429.5 -382t87.5 -463q0 -116 -21.5 -233t-60.5 -220.5t-97 -184t-141 -124.5q-74 6 -175 12q-77 6 -154 6q-25 0 -52 -1q-101 -3 -190 -22.5t-178 -108.5q0 160 83 213.5t171 61.5q-58 79 -105 211t-47 289q0 114 36.5 234t93.5 222.5t126.5 179
t219.5 149.5q-79 -108 -118 -167.5t-75.5 -134.5t-62.5 -168t-26 -203q0 -151 36.5 -301t113.5 -296h208q25 21 62.5 77t70 143.5t55 207.5t22.5 270q0 136 -13.5 231.5t-40.5 165.5t-67.5 125.5t-190.5 210.5z" />
    <glyph glyph-name="Y" unicode="Y" horiz-adv-x="1093" 
d="M-25 1358q0 28 72.5 32t163.5 6q62 1 130 1h71q107 -1 199 -3t153 -3l83 -3l26 -1220l-62 231q-8 30 -25 71t-42.5 81t-57.5 58q-18 13 -47 21t-65.5 11.5t-76.5 5t-69 1.5q-90 0 -154 -10.5t-90 -36.5q-16 -17 -29.5 -96t-28 -192.5t-33 -242t-96.5 -419.5l-15 1557
q69 -252 97.5 -301.5t56.5 -73.5q28 -26 54.5 -36t56.5 -13q20 -1 39 -1q14 0 29 1q37 1 77 1q109 0 177 5.5t103 31.5q36 37 48 83t12 103q0 55 -12.5 113t-47.5 93q-63 63 -130.5 83t-180.5 20q-72 0 -138.5 -3.5t-117.5 -3.5t-90.5 7.5t-39.5 40.5zM439 304q63 0 93 -54
t30 -99q0 -24 -8.5 -48.5t-21.5 -46.5t-35.5 -39t-49.5 -17q-23 0 -45.5 13.5t-39 33.5t-27 40.5t-10.5 42.5t4 49.5t16 54.5t34 48.5t60 21.5z" />
    <glyph glyph-name="Z" unicode="Z" horiz-adv-x="758" 
d="M218 1276q-3 1 -8 4q-14 7 -44 14.5t-74 8.5q-10 1 -21 1q-34 0 -145 -16q79 63 101.5 74t51.5 18t64.5 9.5t85.5 2.5q55 0 105 -10.5t88.5 -26.5t63.5 -40t25 -50q0 -39 -46 -39h-9q-28 4 -70 4q-39 0 -80.5 -14t-58.5 -40h34q36 0 71 -2.5t73 -6.5t127 -21
q-95 -96 -133 -238.5t-56 -321t-21.5 -373.5t-3.5 -654q-86 480 -112.5 658t-55 336.5t-63.5 300.5t-89 281q24 48 62.5 74t74 41.5t52.5 22.5q7 2 11 3z" />
    <glyph glyph-name="bracketleft" unicode="[" 
d="M0 200v1100q0 200 200 200h1100q200 0 200 -200v-1100q0 -200 -200 -200h-1100q-200 0 -200 200zM1475 201v1099q0 175 -175 175h-1100q-174 0 -175 -175v-1100q1 -175 175 -175h1101q174 0 174 176z" />
    <glyph glyph-name="backslash" unicode="\" 
d="M0 200v1100q0 200 200 200h1100q200 0 200 -200v-1100q0 -200 -200 -200h-1100q-200 0 -200 200zM1475 201v1099q0 175 -175 175h-1100q-174 0 -175 -175v-1100q1 -175 175 -175h1101q174 0 174 176z" />
    <glyph glyph-name="bracketright" unicode="]" 
d="M0 200v1100q0 200 200 200h1100q200 0 200 -200v-1100q0 -200 -200 -200h-1100q-200 0 -200 200zM1475 201v1099q0 175 -175 175h-1100q-174 0 -175 -175v-1100q1 -175 175 -175h1101q174 0 174 176z" />
    <glyph glyph-name="asciicircum" unicode="^" 
d="M0 200v1100q0 200 200 200h1100q200 0 200 -200v-1100q0 -200 -200 -200h-1100q-200 0 -200 200zM1475 201v1099q0 175 -175 175h-1100q-174 0 -175 -175v-1100q1 -175 175 -175h1101q174 0 174 176z" />
    <glyph glyph-name="underscore" unicode="_" 
d="M0 200v1100q0 200 200 200h1100q200 0 200 -200v-1100q0 -200 -200 -200h-1100q-200 0 -200 200zM1475 201v1099q0 175 -175 175h-1100q-174 0 -175 -175v-1100q1 -175 175 -175h1101q174 0 174 176z" />
    <glyph glyph-name="grave" unicode="`" 
d="M0 200v1100q0 200 200 200h1100q200 0 200 -200v-1100q0 -200 -200 -200h-1100q-200 0 -200 200zM1475 201v1099q0 175 -175 175h-1100q-174 0 -175 -175v-1100q1 -175 175 -175h1101q174 0 174 176z" />
    <glyph glyph-name="a" unicode="a" horiz-adv-x="890" 
d="M81 1168q-11 5 -25 7t-28.5 3t-33.5 6.5t-19 26.5q0 32 39 41q18 5 54 5h14q42 -2 105 -5.5t149 -3.5q87 0 145.5 3t92.5 4q24 2 39 2h15q37 -5 37 -29q0 -37 -23 -49t-37 -25q-28 -25 -63 -66t-59 -89q-6 -24 -11.5 -47.5t-5.5 -42.5q0 -23 2 -46v-7q0 -36 -36 -36
q-32 0 -46 40.5t-14 83.5q0 34 11.5 73t24.5 70q7 24 14 47q2 11 2 19q0 6 -1 9q-2 9 -17 14.5t-61 5.5q-64 0 -86 -104q-20 -63 -27.5 -147t-7.5 -170q0 -58 3.5 -101t11.5 -76t20.5 -64t33.5 -69q38 -99 55 -130l17 -32q2 0 14 17t21.5 44t21.5 57.5t37 30.5q28 0 31 -29
v-6q0 -10 -1 -21q-3 -17 -6.5 -33.5t-8.5 -29.5q-7 -29 -16 -42t-9 -33q0 -46 -2.5 -84.5t-40.5 -38.5q-30 0 -63.5 41t-67 92t-65.5 108.5t-51 100.5q-21 34 -45 78t-44.5 87t-35.5 83.5t-15 68.5q0 48 12.5 86.5t33.5 84.5q20 40 39 72.5t19 48.5q0 50 -10.5 67.5
t-31.5 28.5z" />
    <glyph glyph-name="b" unicode="b" horiz-adv-x="967" 
d="M3 454q0 58 -5 128t-9 132q-2 42 -2 74q0 17 1 31q1 60 40 60q33 0 43.5 -43.5t17.5 -95.5t15.5 -111.5t20.5 -109.5t27.5 -77.5t30.5 -27.5q47 0 71.5 41.5t24.5 101.5q0 43 -12 70.5t-29.5 49.5t-41 42.5t-44 47t-34.5 63t-14 88.5q0 36 2.5 72t2.5 66q0 29 -6 53.5
t-20 42.5q-11 14 -26.5 23.5t-30.5 15.5t-33 13.5t-18 25.5q0 30 65 30q22 0 54 -3q89 -7 271 -7q102 0 169.5 2.5t108.5 4.5q26 1 44 1h15q40 -3 40 -28v-163q0 -68 -37.5 -112t-83 -67t-82.5 -25q-6 -1 -13 -1q-50 0 -50 32q0 26 25.5 29.5t43 11.5t31.5 28t14 69
q0 76 -49 109.5t-117 33.5q-30 0 -65 -0.5t-62.5 -5t-41.5 -11.5t-14 -14q0 -34 37 -85.5t82 -119t84.5 -146t39.5 -166.5q0 -54 -34 -112.5t-82.5 -113t-105.5 -104.5t-107.5 -87t-91.5 -61.5t-54 -24.5q-27 0 -27 28q0 6 1 17q2 23 6 65t9 99t5 121z" />
    <glyph glyph-name="c" unicode="c" horiz-adv-x="970" 
d="M1 1246q9 9 35 9q17 0 55 -0.5t103.5 -1.5t170.5 -1q99 0 164 1t105.5 1.5t58.5 0.5q25 0 44 -10q8 -15 8 -50q0 -31 -0.5 -91.5t-1.5 -154.5t-1 -226q0 -325 -3 -496t-48 -171q-36 0 -40.5 71t-8 170.5t-11 228.5t-25.5 264q-12 85 -34 128.5t-41 62t-40.5 26
t-21.5 27.5q0 21 29 27.5t51.5 16t39.5 30t17 43.5h-493q0 -12 21 -31t46 -32.5t56.5 -24t31.5 -29.5q0 -20 -19 -27t-37 -24.5t-42 -58t-41 -117.5q-22 -107 -33.5 -233t-18.5 -236t-12 -192.5t-37 -82.5q-31 0 -38.5 42.5t-10.5 99.5t-3.5 128.5t-0.5 145.5v484
q0 91 2 149.5t5.5 91t18.5 42.5z" />
    <glyph glyph-name="d" unicode="d" horiz-adv-x="856" 
d="M119 1003q-1 -1 -1 -2q-8 -14 -13 -50q-4 -32 -4 -74v-14q1 -51 10 -112q5 -57 29 -109.5t55 -94.5t63.5 -71t70.5 -43q-8 -49 -8 -84v-18q2 -40 20 -83q17 -32 36.5 -60t35.5 -49.5t21 -35.5q2 -4 2 -9q0 -28 -39 -28q-17 0 -50.5 23t-75.5 63t-91 97t-91 129
q-27 48 -48 104t-36.5 117t-22.5 123.5t-7 121.5q0 73 20 143t43 125.5t44.5 91t29.5 46.5q21 7 58 7h37q63 -3 146 -3q45 0 87 0.5t75 2.5h56q26 -2 36 -6q15 -10 15.5 -43t0.5 -77v-99q0 -54 -0.5 -112t-2 -111.5t-1.5 -94.5q0 -106 4 -217.5t6 -203.5q2 -67 2 -117v-32
q0 -78 -37 -78q-31 0 -41.5 67t-18 156.5t-12 192.5t-4.5 190q0 77 -3 144t-14.5 122t-32.5 97t-55 73q-55 48 -112 67.5t-111 19.5q-18 0 -22.5 -4t-4.5 -12q0 -14 7 -32.5t14 -34.5q18 -21 43 -41.5t109 -33.5q-55 -43 -70.5 -76t-35.5 -72q-8 -23 -10 -47t-2.5 -45.5
t-6.5 -44.5t-38 -23q-30 0 -33.5 30.5t-5.5 62.5t-3 69t-4.5 67.5t-7.5 43.5v1z" />
    <glyph glyph-name="e" unicode="e" horiz-adv-x="905" 
d="M-25 1232q0 23 58.5 27.5t133.5 6.5h157q85 -2 157 -3.5l120 -2.5l71 -2l10 -1023l-58 241q-4 22 -15.5 52.5t-29.5 61t-43 47.5q-12 8 -35.5 12.5t-52.5 7t-59 2.5h-53q-70 0 -120.5 -5t-74.5 -30q-24 -23 -31.5 -57.5t-7.5 -77.5q0 -18 3.5 -45t9.5 -54.5t14.5 -51.5
t19.5 -38q31 -42 73.5 -64t139.5 -22q129 0 190 3h11q74 0 74 -38q0 -27 -55.5 -32t-123.5 -5h-144q-77 0 -144 2t-110 4l-69 3l-11 1020q66 -261 88.5 -298t44.5 -60q19 -16 39 -23t42 -8h17q17 0 36 1q30 2 64 2q82 0 135 4.5t80 24.5q26 21 30.5 55.5t4.5 85.5
q0 37 -4.5 84.5t-32.5 74.5q-48 42 -100.5 56t-140.5 14q-57 0 -108 -2h-91q-43 0 -76 9.5t-33 40.5z" />
    <glyph glyph-name="f" unicode="f" horiz-adv-x="1050" 
d="M425 1152h-24q-14 1 -29 1q-30 0 -64 -3q-51 -6 -101 -19.5t-82 -36.5q-21 -14 -34 -43t-23 -59t-19.5 -62t-42.5 -32q-29 0 -31 54v23q0 25 1 57q2 46 4.5 94t5 79t2.5 52l780 9l61 -192q-88 114 -92 114q-6 0 -15 -3q-29 -10 -77 -52t-110 -113t-107 -134q62 0 130 -2
t115 -2q44 0 69 4t203 112q-147 -147 -157 -200q-9 -40 -9 -81q0 -18 2 -39q0 -41 3.5 -81.5t7.5 -72.5t4 -53q0 -39 -31 -39q-36 0 -47 41.5t-21 82.5t-28.5 75t-51.5 44q-26 9 -57 12.5t-71 3.5q-21 1 -43 1t-47 -1h-101q-71 -125 -135 -295.5t-102 -470.5
q-59 144 -59 222q0 76 17.5 168t50 194t75.5 208q36 85 79 158t84.5 131t77.5 101q29 35 39 45z" />
    <glyph glyph-name="g" unicode="g" horiz-adv-x="821" 
d="M-25 1256q99 5 168 5q70 0 138 -1t137 -2t169 -1q0 -49 -16.5 -60.5t-29 -18t-18.5 -11.5t-6 -15q0 -16 11 -32.5t26.5 -46t28.5 -74.5t13 -114q0 -63 -26.5 -149t-68 -177t-95 -180.5t-111 -159.5t-112.5 -112q-52 -39 -99 -39q-9 0 -66 8q104 81 168 156.5t112.5 164.5
t78.5 186.5t30 196.5q0 57 -6.5 113t-20 103t-32.5 80.5t-37 44.5q-37 0 -92.5 -0.5t-105.5 -4.5q-21 -13 -40 -56t-89 -219q0 207 -4.5 265.5t-4.5 149.5z" />
    <glyph glyph-name="h" unicode="h" horiz-adv-x="1018" 
d="M634 1087v8q0 45 -4 52h-143q-9 -9 -19.5 -36t-10.5 -64q0 -22 17 -57t45 -68.5t61 -56.5q23 -18 23 -19l21 108q9 81 10 133zM556 562l-12 -28q-40 -90 -103.5 -197.5t-168.5 -215.5q-70 0 -137 -5t-463 -48q405 95 458 118t76 45q44 43 82 110.5t66.5 142.5t44.5 149
t16 130q0 116 -33 193.5t-83.5 129t-112 81.5t-218.5 90h580q23 5 49.5 18.5t52 27.5t48.5 27t44 13q44 0 50 -60q1 -11 1 -23q0 -37 -45 -159l-4 -24q-4 -299 -120 -529l-82 -57z" />
    <glyph glyph-name="i" unicode="i" horiz-adv-x="741" 
d="M193 1052q-32 -2 -58 -22q-28 -22 -50 -48.5t-36 -48.5q-21 -28 -43 -28q-7 0 -28 7q-3 19 -3 53q0 35 2 79t3.5 90t3 73.5t1.5 49.5q28 0 72.5 2t114.5 3.5t139 3.5h42q44 0 77 -2q61 -1 72 -12q14 -7 14 -24q0 -16 -15 -39q-20 -32 -46 -66q-24 -44 -46.5 -83
t-54.5 -39h-5q16 -32 23 -76q-21 -74 -39.5 -175.5t-34 -222t-29 -253t-58.5 -588.5q-25 453 -26 594v94q0 95 1 189q2 140 5 272q2 132 2 217z" />
    <glyph glyph-name="j" unicode="j" horiz-adv-x="955" 
d="M114 1256q59 5 126.5 6.5t138.5 1.5q73 0 147 -1.5t143 -5.5q29 -15 29 -32q0 -10 -7 -16q-8 -11 -21.5 -20t-24 -20t-10.5 -28t13.5 -53t29.5 -88.5t29.5 -125t13.5 -163.5v-148q0 -78 0.5 -152.5t2.5 -143.5t8 -152q-88 18 -144 18q-13 0 -24 -1q-72 -3 -382 -34
q283 79 320.5 133.5t58 126.5t26 150t5.5 135q0 103 -13 177t-39 126.5t-61.5 87t-76.5 56.5q-28 4 -68 4h-13q-48 -1 -100 -13q-33 -15 -61.5 -62t-48 -108.5t-31.5 -127t-25 -231.5q-61 167 -69 236.5t-10 136.5q-1 24 -1 45q0 44 3 85q3 60 11 107z" />
    <glyph glyph-name="k" unicode="k" horiz-adv-x="911" 
d="M202 1163q7 -8 20 -17q16 -12 37.5 -23t50.5 -52q-70 0 -92.5 -9.5t-43.5 -42t-33.5 -99t-12.5 -182.5q0 -65 13 -140t34.5 -140.5t39.5 -102.5q17 -36 17 -38q16 0 32 30.5t26.5 74.5t18.5 90t35 46q24 0 30.5 -30.5t11.5 -63.5t7.5 -74.5t2.5 -75.5q0 -65 -10.5 -124.5
t-58.5 -59.5q-39 0 -80.5 34.5t-79.5 87.5t-72.5 120t-61 139.5t-42.5 144t-16 133.5q0 47 5 106.5t20.5 123.5t41 124.5t74.5 114.5q87 -4 161 -4q50 0 98 1q123 4 296 12q15 -28 15 -41q0 -16 -19 -35q-21 0 -34.5 -11.5t-13.5 -28.5q-2 -17 -2 -33q0 -21 5 -43
q9 -41 21.5 -87t24.5 -99.5t12 -117.5q0 -56 -7.5 -115t-27 -114.5t-50 -103.5t-172.5 -137q76 116 93.5 148.5t28.5 71.5t17.5 91t6.5 126q0 46 -15.5 103t-40 111t-53.5 100t-55 69q-18 15 -54.5 25.5t-73.5 14.5q-30 4 -54 4h-17z" />
    <glyph glyph-name="l" unicode="l" horiz-adv-x="950" 
d="M280 1147q3 -5 29 -34q31 -36 57 -81t41 -96q5 -17 8 -33q74 50 89 78q16 29 19 60v10q0 26 -11 51q-14 28 -38 46q-25 3 -53 5q-19 1 -38 1h-20q-28 -1 -60 -4q-17 -3 -23 -3zM416 897q6 -33 6 -66v-440q0 -48 21.5 -84t58.5 -63.5t84.5 -47t346.5 -67.5
q-322 0 -388.5 2t-116 2.5t-80.5 2.5l-53 4v562q0 106 -32.5 188.5t-81 145t-103 108.5t-132.5 107q213 24 372 24h43q177 -3 364 -12q0 -31 -7.5 -61.5t-22.5 -68t-36 -77.5t-47 -74.5t-60 -59.5q-33 -24 -136 -25z" />
    <glyph glyph-name="m" unicode="m" horiz-adv-x="986" 
d="M418 1254q-125 -49 -147 -69q-27 -23 -27 -41q0 -37 11 -83t31 -89t46.5 -75.5t37.5 -37.5q13 12 35.5 43t39.5 65t25.5 68t8.5 65q0 42 -10 74q-10 29 -51 80zM566 953q-5 -7 -15 -22q-19 -28 -44 -69t-58 -80t-75 -39q-38 0 -74 35.5t-67 72t-57.5 63.5t-35.5 27
q-7 0 -23 -39.5t-25 -101.5q-6 -41 -6 -85q0 -22 1 -44q5 -63 41 -127q-85 0 -107 45t-32 106.5t-13 137.5q-1 56 -1 112v38q1 75 4.5 143.5t6.5 134.5q76 -6 113 -7.5t70 -1.5q34 0 69 1.5t225 17.5q-16 -6 -31 -12q93 0 152 1q65 1 168 8q0 -67 2 -132.5t2.5 -141.5
t2.5 -155t2 -154q0 -27 -2.5 -82.5t-12.5 -122.5t-28 -137.5t-50 -130t-79.5 -100.5t-221.5 -41q149 62 180 128t43 152q10 80 10 163v14q-1 90 -1 157q0 51 -4.5 103t-11.5 93t-14 60q-3 8 -3 12z" />
    <glyph glyph-name="n" unicode="n" horiz-adv-x="807" 
d="M-25 1254q73 9 120.5 12.5t94.5 3.5q48 0 100 -3.5t228 -21.5q-172 -41 -202.5 -64t-30.5 -74q0 -23 14 -68t35.5 -89t42.5 -71.5t29 -27.5t24 21t30 63.5t23.5 98.5t9.5 180q64 -76 74 -109t13 -70q2 -26 2 -55v-16q0 -36 -5 -68q-6 -36 -23 -83.5t-36.5 -90
t-44.5 -76.5t-50 -34q-34 0 -56.5 29t-36.5 64q-13 -22 -24 -87q-22 -114 -64.5 -218t-99.5 -187.5t-256 -267.5q159 242 191.5 315t47 143t19 146t4.5 168q0 82 -26.5 164.5t-59 153.5t-60 124.5t-27.5 94.5z" />
    <glyph glyph-name="o" unicode="o" horiz-adv-x="1025" 
d="M405 905q29 0 47.5 -15t28 -33.5t13.5 -39t4 -37.5q0 -37 -22 -80.5t-71 -43.5q-24 0 -40 12.5t-28.5 28t-19 33.5t-6.5 33q0 18 4.5 39.5t12 43.5t26 40.5t51.5 18.5zM318 1172q0 -1 1 -1q15 -12 50 -46q-57 -49 -88.5 -109.5t-52 -129.5t-31 -138.5t-10.5 -122.5
q0 -97 41 -198t177 -274q-117 36 -159 73.5t-74.5 87t-57.5 106.5t-42.5 114t-26.5 110t-9 93q0 110 8 181.5t17 117t17.5 67.5t8.5 32q0 24 -9 37.5t-22.5 21t-31 13.5t-144.5 46q236 8 330.5 9.5t182.5 1.5q90 0 181.5 -1.5t319.5 -9.5q-124 -39 -141.5 -49t-35 -23
t-27.5 -27.5t-10 -27.5q0 -11 12.5 -25.5t29.5 -55t31 -113t14 -195.5q0 -134 -14.5 -237.5t-49.5 -184t-94.5 -142t-322.5 -205.5q175 154 207.5 193t59 86t43.5 100t17 105q0 41 -1.5 100t-9 127t-20.5 140t-37.5 138t-61.5 122t-82 88q-23 7 -47 7q-18 0 -36 -2z" />
    <glyph glyph-name="p" unicode="p" horiz-adv-x="992" 
d="M323 902q14 -19 52 -26.5t53 -7.5q9 36 25.5 80t31 83t24 75.5t9.5 59.5q-80 6 -176 6q-95 0 -160 -4q18 -16 45 -59.5t42 -84t25 -71.5t29 -51zM779 1264q-52 -101 -94.5 -194t-78.5 -190t-58 -191t-22 -169q0 -98 19 -213.5t41 -304.5q-95 115 -125 170.5t-49.5 116
t-29.5 119t-10 112.5q0 93 11 165.5t18 100.5q-25 -5 -82 -24.5t-134 -97.5q-9 111 -18 174t-29.5 128.5t-57.5 130t-128 157.5q224 14 378 14q32 0 65 -1q179 -3 384 -3z" />
    <glyph glyph-name="q" unicode="q" horiz-adv-x="898" 
d="M627 265q-28 135 -41 160t-34 42q-35 0 -80 -4t-65 -4q2 -28 12 -75.5t24 -90.5t31 -77t55 -86q-124 0 -196 3q-24 1 -47 1q-48 0 -130 -7q17 48 29.5 83.5t24.5 79.5t24 93t15 76q-24 0 -70.5 0.5t-80.5 5.5q-9 -9 -30 -39t-69 -176q-23 165 -24 216v8q0 47 25 121
q84 -9 148.5 -10t102.5 -1q0 91 -25 189.5t-65 182t-86 151.5t-111 148q218 8 376 8q159 0 340 -8q-50 -78 -90.5 -165t-79 -184.5t-67.5 -189.5t-35 -132q37 0 99.5 1t141.5 10q24 -68 24 -116q0 -9 -1 -17q-3 -53 -45 -197zM231 1115q110 -265 112 -282q-4 -12 -4 -14
q1 0 14 37q21 58 46.5 113.5t53.5 110.5l6 40q-54 6 -88 6q-17 0 -31 -1q-42 -3 -109 -10z" />
    <glyph glyph-name="r" unicode="r" horiz-adv-x="960" 
d="M-65 982q68 118 110.5 156.5t96 64t112 40t117.5 14.5q69 0 133.5 -14t115.5 -43t83 -73.5t32 -120.5q-103 -23 -180.5 -45t-134.5 -55t-91.5 -85.5t-34.5 -135.5q0 -64 3.5 -143.5t12 -161t21 -158.5t64.5 -226q-105 101 -131 154.5t-50 117t-43.5 135.5t-34 139
t-23.5 122.5t-9 90.5q0 49 17 82.5t45.5 58t62 40.5t70.5 33q53 26 105.5 54t52.5 29q-16 11 -79 37t-127 26q-43 0 -78 -8.5t-62 -20.5t-51 -27t-125 -77z" />
    <glyph glyph-name="s" unicode="s" horiz-adv-x="884" 
d="M341 839q10 -14 42 -58q50 -70 89.5 -147t64 -156.5t24.5 -155.5q0 -47 -24.5 -96.5t-61 -93.5t-79 -78t-194.5 -108q115 119 145 143t53 52.5t36.5 69.5t13.5 111q0 101 -49.5 198.5t-122 181.5t-153.5 153t-186 152q167 0 275.5 -15.5t168.5 -34.5q-1 4 -30 47
t-67 83.5t-81 75.5t-131 84q187 23 288 24h22q87 0 179 -8q39 -29 58 -63.5t28 -71.5t10 -71v-12q0 -26 -11 -90q-54 53 -69 75t-29 43t-31.5 39t-36.5 29q-24 5 -58 5h-36q20 -17 57 -73t57 -111q18 -55 18 -106v-5q-1 -55 -39 -133q-62 76 -116 107q-15 9 -24 14z" />
    <glyph glyph-name="t" unicode="t" horiz-adv-x="923" 
d="M405.5 341q44.5 15 86 41t78.5 61t187 190q-99 -192 -140.5 -253t-90.5 -112t-107 -85.5t-117 -34.5q-69 0 -119.5 38.5t-85.5 93.5t-56.5 121t-47.5 240q117 -186 157.5 -239t63.5 -60q5 19 5 69v20q-3 63 -3 117q0 102 -20.5 201.5t-54 188.5t-76 163t-112.5 155l535 9
q-19 80 -112.5 142.5t-387.5 153.5q226 0 318 -21t169.5 -61t136 -98t89.5 -139q-82 -82 -161 -122t-152 -40q-71 0 -105 20q67 -96 90 -159t23 -143q0 -113 -22.5 -235t-50.5 -237q38 0 82.5 15z" />
    <glyph glyph-name="u" unicode="u" horiz-adv-x="955" 
d="M-11 224q-8 47 -11 108q-3 40 -3 84q0 22 1 45q2 68 10 137t69 232q13 -161 25 -227t31.5 -127.5t48 -108.5t61.5 -61q52 -13 100 -14h13q39 0 68 5q41 20 76.5 55t61.5 87.5t39 126.5t13 177q0 57 -5.5 134.5t-26 150t-58 126.5t-321.5 130q311 -27 382 -30h25
q56 0 144 15q-6 -80 -8 -149t-2.5 -144.5t-0.5 -151.5v-148q0 -92 -13.5 -164t-29.5 -125t-29.5 -88.5t-13.5 -54.5q0 -15 10.5 -26t24 -20.5t21.5 -20.5q7 -6 7 -15q0 -18 -29 -33q-69 -4 -143 -6t-147 -2q-71 0 -138.5 2t-126.5 7zM303 679q58 0 84 -29t26 -60
q0 -35 -31 -58t-79 -23q-43 0 -78 23t-35 58q0 32 31 60.5t82 28.5z" />
    <glyph glyph-name="v" unicode="v" horiz-adv-x="881" 
d="M295 150q54 45 81 75q36 40 66.5 90.5t49.5 106.5t19 116q0 75 -18 162t-51 173.5t-76 167t-72 117.5q-16 -18 -47 -86t-53 -142.5t-35 -147t-13 -123.5q0 -63 11.5 -133t32.5 -138.5t49 -131.5q17 -42 56 -106zM269 115q-10 -2 -21 -3q6 5 11 9q-73 46 -107 85
q-53 59 -92 129.5t-62 146.5t-23 143q0 106 17 181.5t36 135t35 105t16 88.5q0 32 -18.5 52.5t-122.5 61.5q166 15 236 18t133 3q65 0 125 -3t250 -25q-143 -28 -162.5 -43t-19.5 -38q0 -33 24 -74.5t52.5 -99.5t54 -130t25.5 -163q0 -124 -30 -226.5t-77.5 -176.5
t-106.5 -118q-45 -34 -130 -51q14 -23 31 -49q-40 22 -74 42z" />
    <glyph glyph-name="w" unicode="w" horiz-adv-x="1080" 
d="M360 402q9 19 27 75t30 111.5t18 107t6 91.5q0 44 -15.5 102t-38 109.5t-45.5 82.5t-31 31q-12 0 -37.5 -32.5t-50.5 -85t-42 -110t-17 -97.5q0 -51 21 -109.5t52 -115t71.5 -104t51.5 -56.5zM802 1421q48 -79 52 -140q1 -11 1 -24q0 -48 -12 -99q-16 -63 -53.5 -121
t-182.5 -126q60 76 68.5 91.5t15 35.5t10.5 43q2 10 2 20q0 11 -1 16q-18 24 -42 31t-45 7q-30 0 -55 -22t-25 -61q0 -51 8 -86t31 -57l73 -86q-13 -88 -37 -184.5t-57 -193.5t-73 -184t-97 -164q-46 10 -107 10q-60 0 -523 -55q447 99 489 141.5t66 85.5q-29 20 -86 72
t-107.5 113.5t-86 129t-35.5 129.5q0 29 18 76t38.5 100t37.5 104t17 92q0 21 -9.5 37.5t-24.5 29t-36 21t-269 65.5q330 -18 408.5 -22t151.5 -5h49q49 0 97 1q74 2 156 6q54 11 91 50.5t84 122.5z" />
    <glyph glyph-name="x" unicode="x" horiz-adv-x="1066" 
d="M405 1423q295 -157 365 -318t70 -372q0 -93 -16.5 -187t-48.5 -177.5t-79 -148t-116 -101.5q-60 5 -142 10q-60 4 -122 4h-41q-81 -3 -151 -18t-149 -94q0 141 68 185t132 50q-43 58 -80.5 164t-37.5 232q0 92 29 188t74.5 178.5t102 144.5t190.5 128
q-69 -99 -100.5 -146.5t-60 -107.5t-49.5 -134t-21 -161q0 -121 29 -240.5t89 -233.5h161q18 15 48 59.5t56 114.5t43.5 165.5t17.5 214.5q0 109 -10.5 185t-32 131.5t-54 99.5t-164.5 185z" />
    <glyph glyph-name="y" unicode="y" horiz-adv-x="924" 
d="M-25 1226q0 27 60.5 30t133.5 5q50 1 104 1h57q86 -1 159 -3t122 -2l72 -3l21 -1022l-60 226q-7 24 -20 57t-33 64t-45 45q-14 11 -36.5 17t-51 8.5t-60 3.5t-56.5 1q-71 0 -121 -8t-70 -28q-12 -13 -22.5 -75.5t-22 -153t-26.5 -193.5t-87 -373l-13 1315
q66 -232 88.5 -271t44.5 -58q21 -20 41.5 -27.5t44.5 -9.5q16 -2 30 -2q11 0 22 1q29 1 63 1q87 0 140.5 4t79.5 24q28 29 37.5 65t9.5 81q0 44 -10 89.5t-37 72.5q-50 50 -103 66t-142 16q-57 0 -110.5 -3t-94.5 -3q-42 0 -75.5 6.5t-33.5 35.5zM351 387q54 0 78.5 -45
t24.5 -81q0 -19 -6.5 -39.5t-18 -39t-30 -32.5t-41.5 -14q-21 0 -40 11.5t-32 28t-22 33t-9 35.5q0 18 3 40t13.5 44.5t28.5 40.5t51 18z" />
    <glyph glyph-name="z" unicode="z" horiz-adv-x="656" 
d="M164 1162q-10 4 -32 10q-24 5 -58 7h-17q-27 0 -130 -15q73 60 92 69t42.5 15t52.5 7.5t69 1.5q45 0 85.5 -8t72 -21t52.5 -33.5t21 -42.5q0 -35 -42 -35h-7q-23 3 -56 3q-30 0 -62 -10.5t-42 -24.5h20q29 0 57 -2t59 -5.5t109 -18.5q-80 -80 -110 -193.5t-44.5 -256.5
t-17 -299t-2.5 -577q-79 438 -100.5 580.5t-44 269t-50.5 240t-73 225.5q22 41 53 62.5t60 33.5t41 17q1 0 2 1z" />
    <glyph glyph-name="braceleft" unicode="{" 
d="M0 200v1100q0 200 200 200h1100q200 0 200 -200v-1100q0 -200 -200 -200h-1100q-200 0 -200 200zM1475 201v1099q0 175 -175 175h-1100q-174 0 -175 -175v-1100q1 -175 175 -175h1101q174 0 174 176z" />
    <glyph glyph-name="bar" unicode="|" 
d="M0 200v1100q0 200 200 200h1100q200 0 200 -200v-1100q0 -200 -200 -200h-1100q-200 0 -200 200zM1475 201v1099q0 175 -175 175h-1100q-174 0 -175 -175v-1100q1 -175 175 -175h1101q174 0 174 176z" />
    <glyph glyph-name="braceright" unicode="}" 
d="M0 200v1100q0 200 200 200h1100q200 0 200 -200v-1100q0 -200 -200 -200h-1100q-200 0 -200 200zM1475 201v1099q0 175 -175 175h-1100q-174 0 -175 -175v-1100q1 -175 175 -175h1101q174 0 174 176z" />
    <glyph glyph-name="asciitilde" unicode="~" 
d="M0 200v1100q0 200 200 200h1100q200 0 200 -200v-1100q0 -200 -200 -200h-1100q-200 0 -200 200zM1475 201v1099q0 175 -175 175h-1100q-174 0 -175 -175v-1100q1 -175 175 -175h1101q174 0 174 176z" />
    <glyph glyph-name="exclamdown" unicode="&#xa1;" 
d="M0 200v1100q0 200 200 200h1100q200 0 200 -200v-1100q0 -200 -200 -200h-1100q-200 0 -200 200zM1475 201v1099q0 175 -175 175h-1100q-174 0 -175 -175v-1100q1 -175 175 -175h1101q174 0 174 176z" />
    <glyph glyph-name="cent" unicode="&#xa2;" 
d="M0 200v1100q0 200 200 200h1100q200 0 200 -200v-1100q0 -200 -200 -200h-1100q-200 0 -200 200zM1475 201v1099q0 175 -175 175h-1100q-174 0 -175 -175v-1100q1 -175 175 -175h1101q174 0 174 176z" />
    <glyph glyph-name="sterling" unicode="&#xa3;" 
d="M0 200v1100q0 200 200 200h1100q200 0 200 -200v-1100q0 -200 -200 -200h-1100q-200 0 -200 200zM1475 201v1099q0 175 -175 175h-1100q-174 0 -175 -175v-1100q1 -175 175 -175h1101q174 0 174 176z" />
    <glyph glyph-name="currency" unicode="&#xa4;" 
d="M0 200v1100q0 200 200 200h1100q200 0 200 -200v-1100q0 -200 -200 -200h-1100q-200 0 -200 200zM1475 201v1099q0 175 -175 175h-1100q-174 0 -175 -175v-1100q1 -175 175 -175h1101q174 0 174 176z" />
    <glyph glyph-name="yen" unicode="&#xa5;" 
d="M0 200v1100q0 200 200 200h1100q200 0 200 -200v-1100q0 -200 -200 -200h-1100q-200 0 -200 200zM1475 201v1099q0 175 -175 175h-1100q-174 0 -175 -175v-1100q1 -175 175 -175h1101q174 0 174 176z" />
    <glyph glyph-name="brokenbar" unicode="&#xa6;" 
d="M0 200v1100q0 200 200 200h1100q200 0 200 -200v-1100q0 -200 -200 -200h-1100q-200 0 -200 200zM1475 201v1099q0 175 -175 175h-1100q-174 0 -175 -175v-1100q1 -175 175 -175h1101q174 0 174 176z" />
    <glyph glyph-name="section" unicode="&#xa7;" 
d="M0 200v1100q0 200 200 200h1100q200 0 200 -200v-1100q0 -200 -200 -200h-1100q-200 0 -200 200zM1475 201v1099q0 175 -175 175h-1100q-174 0 -175 -175v-1100q1 -175 175 -175h1101q174 0 174 176z" />
    <glyph glyph-name="dieresis" unicode="&#xa8;" 
d="M0 200v1100q0 200 200 200h1100q200 0 200 -200v-1100q0 -200 -200 -200h-1100q-200 0 -200 200zM1475 201v1099q0 175 -175 175h-1100q-174 0 -175 -175v-1100q1 -175 175 -175h1101q174 0 174 176z" />
    <glyph glyph-name="copyright" unicode="&#xa9;" 
d="M0 200v1100q0 200 200 200h1100q200 0 200 -200v-1100q0 -200 -200 -200h-1100q-200 0 -200 200zM1475 201v1099q0 175 -175 175h-1100q-174 0 -175 -175v-1100q1 -175 175 -175h1101q174 0 174 176z" />
    <glyph glyph-name="ordfeminine" unicode="&#xaa;" 
d="M0 200v1100q0 200 200 200h1100q200 0 200 -200v-1100q0 -200 -200 -200h-1100q-200 0 -200 200zM1475 201v1099q0 175 -175 175h-1100q-174 0 -175 -175v-1100q1 -175 175 -175h1101q174 0 174 176z" />
    <glyph glyph-name="guillemotleft" unicode="&#xab;" 
d="M0 200v1100q0 200 200 200h1100q200 0 200 -200v-1100q0 -200 -200 -200h-1100q-200 0 -200 200zM1475 201v1099q0 175 -175 175h-1100q-174 0 -175 -175v-1100q1 -175 175 -175h1101q174 0 174 176z" />
    <glyph glyph-name="logicalnot" unicode="&#xac;" 
d="M0 200v1100q0 200 200 200h1100q200 0 200 -200v-1100q0 -200 -200 -200h-1100q-200 0 -200 200zM1475 201v1099q0 175 -175 175h-1100q-174 0 -175 -175v-1100q1 -175 175 -175h1101q174 0 174 176z" />
    <glyph glyph-name="registered" unicode="&#xae;" 
d="M0 200v1100q0 200 200 200h1100q200 0 200 -200v-1100q0 -200 -200 -200h-1100q-200 0 -200 200zM1475 201v1099q0 175 -175 175h-1100q-174 0 -175 -175v-1100q1 -175 175 -175h1101q174 0 174 176z" />
    <glyph glyph-name="macron" unicode="&#xaf;" 
d="M0 200v1100q0 200 200 200h1100q200 0 200 -200v-1100q0 -200 -200 -200h-1100q-200 0 -200 200zM1475 201v1099q0 175 -175 175h-1100q-174 0 -175 -175v-1100q1 -175 175 -175h1101q174 0 174 176z" />
    <glyph glyph-name="degree" unicode="&#xb0;" 
d="M0 200v1100q0 200 200 200h1100q200 0 200 -200v-1100q0 -200 -200 -200h-1100q-200 0 -200 200zM1475 201v1099q0 175 -175 175h-1100q-174 0 -175 -175v-1100q1 -175 175 -175h1101q174 0 174 176z" />
    <glyph glyph-name="plusminus" unicode="&#xb1;" 
d="M0 200v1100q0 200 200 200h1100q200 0 200 -200v-1100q0 -200 -200 -200h-1100q-200 0 -200 200zM1475 201v1099q0 175 -175 175h-1100q-174 0 -175 -175v-1100q1 -175 175 -175h1101q174 0 174 176z" />
    <glyph glyph-name="uni00B2" unicode="&#xb2;" 
d="M0 200v1100q0 200 200 200h1100q200 0 200 -200v-1100q0 -200 -200 -200h-1100q-200 0 -200 200zM1475 201v1099q0 175 -175 175h-1100q-174 0 -175 -175v-1100q1 -175 175 -175h1101q174 0 174 176z" />
    <glyph glyph-name="uni00B3" unicode="&#xb3;" 
d="M0 200v1100q0 200 200 200h1100q200 0 200 -200v-1100q0 -200 -200 -200h-1100q-200 0 -200 200zM1475 201v1099q0 175 -175 175h-1100q-174 0 -175 -175v-1100q1 -175 175 -175h1101q174 0 174 176z" />
    <glyph glyph-name="acute" unicode="&#xb4;" 
d="M0 200v1100q0 200 200 200h1100q200 0 200 -200v-1100q0 -200 -200 -200h-1100q-200 0 -200 200zM1475 201v1099q0 175 -175 175h-1100q-174 0 -175 -175v-1100q1 -175 175 -175h1101q174 0 174 176z" />
    <glyph glyph-name="mu" unicode="&#xb5;" 
d="M0 200v1100q0 200 200 200h1100q200 0 200 -200v-1100q0 -200 -200 -200h-1100q-200 0 -200 200zM1475 201v1099q0 175 -175 175h-1100q-174 0 -175 -175v-1100q1 -175 175 -175h1101q174 0 174 176z" />
    <glyph glyph-name="paragraph" unicode="&#xb6;" 
d="M0 200v1100q0 200 200 200h1100q200 0 200 -200v-1100q0 -200 -200 -200h-1100q-200 0 -200 200zM1475 201v1099q0 175 -175 175h-1100q-174 0 -175 -175v-1100q1 -175 175 -175h1101q174 0 174 176z" />
    <glyph glyph-name="periodcentered" unicode="&#xb7;" 
d="M0 200v1100q0 200 200 200h1100q200 0 200 -200v-1100q0 -200 -200 -200h-1100q-200 0 -200 200zM1475 201v1099q0 175 -175 175h-1100q-174 0 -175 -175v-1100q1 -175 175 -175h1101q174 0 174 176z" />
    <glyph glyph-name="periodcentered" unicode="&#x2219;" 
d="M0 200v1100q0 200 200 200h1100q200 0 200 -200v-1100q0 -200 -200 -200h-1100q-200 0 -200 200zM1475 201v1099q0 175 -175 175h-1100q-174 0 -175 -175v-1100q1 -175 175 -175h1101q174 0 174 176z" />
    <glyph glyph-name="cedilla" unicode="&#xb8;" 
d="M0 200v1100q0 200 200 200h1100q200 0 200 -200v-1100q0 -200 -200 -200h-1100q-200 0 -200 200zM1475 201v1099q0 175 -175 175h-1100q-174 0 -175 -175v-1100q1 -175 175 -175h1101q174 0 174 176z" />
    <glyph glyph-name="uni00B9" unicode="&#xb9;" 
d="M0 200v1100q0 200 200 200h1100q200 0 200 -200v-1100q0 -200 -200 -200h-1100q-200 0 -200 200zM1475 201v1099q0 175 -175 175h-1100q-174 0 -175 -175v-1100q1 -175 175 -175h1101q174 0 174 176z" />
    <glyph glyph-name="ordmasculine" unicode="&#xba;" 
d="M0 200v1100q0 200 200 200h1100q200 0 200 -200v-1100q0 -200 -200 -200h-1100q-200 0 -200 200zM1475 201v1099q0 175 -175 175h-1100q-174 0 -175 -175v-1100q1 -175 175 -175h1101q174 0 174 176z" />
    <glyph glyph-name="guillemotright" unicode="&#xbb;" 
d="M0 200v1100q0 200 200 200h1100q200 0 200 -200v-1100q0 -200 -200 -200h-1100q-200 0 -200 200zM1475 201v1099q0 175 -175 175h-1100q-174 0 -175 -175v-1100q1 -175 175 -175h1101q174 0 174 176z" />
    <glyph glyph-name="onequarter" unicode="&#xbc;" 
d="M0 200v1100q0 200 200 200h1100q200 0 200 -200v-1100q0 -200 -200 -200h-1100q-200 0 -200 200zM1475 201v1099q0 175 -175 175h-1100q-174 0 -175 -175v-1100q1 -175 175 -175h1101q174 0 174 176z" />
    <glyph glyph-name="onehalf" unicode="&#xbd;" 
d="M0 200v1100q0 200 200 200h1100q200 0 200 -200v-1100q0 -200 -200 -200h-1100q-200 0 -200 200zM1475 201v1099q0 175 -175 175h-1100q-174 0 -175 -175v-1100q1 -175 175 -175h1101q174 0 174 176z" />
    <glyph glyph-name="threequarters" unicode="&#xbe;" 
d="M0 200v1100q0 200 200 200h1100q200 0 200 -200v-1100q0 -200 -200 -200h-1100q-200 0 -200 200zM1475 201v1099q0 175 -175 175h-1100q-174 0 -175 -175v-1100q1 -175 175 -175h1101q174 0 174 176z" />
    <glyph glyph-name="questiondown" unicode="&#xbf;" 
d="M0 200v1100q0 200 200 200h1100q200 0 200 -200v-1100q0 -200 -200 -200h-1100q-200 0 -200 200zM1475 201v1099q0 175 -175 175h-1100q-174 0 -175 -175v-1100q1 -175 175 -175h1101q174 0 174 176z" />
    <glyph glyph-name="Agrave" unicode="&#xc0;" 
d="M0 200v1100q0 200 200 200h1100q200 0 200 -200v-1100q0 -200 -200 -200h-1100q-200 0 -200 200zM1475 201v1099q0 175 -175 175h-1100q-174 0 -175 -175v-1100q1 -175 175 -175h1101q174 0 174 176z" />
    <glyph glyph-name="Aacute" unicode="&#xc1;" 
d="M0 200v1100q0 200 200 200h1100q200 0 200 -200v-1100q0 -200 -200 -200h-1100q-200 0 -200 200zM1475 201v1099q0 175 -175 175h-1100q-174 0 -175 -175v-1100q1 -175 175 -175h1101q174 0 174 176z" />
    <glyph glyph-name="Acircumflex" unicode="&#xc2;" 
d="M0 200v1100q0 200 200 200h1100q200 0 200 -200v-1100q0 -200 -200 -200h-1100q-200 0 -200 200zM1475 201v1099q0 175 -175 175h-1100q-174 0 -175 -175v-1100q1 -175 175 -175h1101q174 0 174 176z" />
    <glyph glyph-name="Atilde" unicode="&#xc3;" 
d="M0 200v1100q0 200 200 200h1100q200 0 200 -200v-1100q0 -200 -200 -200h-1100q-200 0 -200 200zM1475 201v1099q0 175 -175 175h-1100q-174 0 -175 -175v-1100q1 -175 175 -175h1101q174 0 174 176z" />
    <glyph glyph-name="Adieresis" unicode="&#xc4;" 
d="M0 200v1100q0 200 200 200h1100q200 0 200 -200v-1100q0 -200 -200 -200h-1100q-200 0 -200 200zM1475 201v1099q0 175 -175 175h-1100q-174 0 -175 -175v-1100q1 -175 175 -175h1101q174 0 174 176z" />
    <glyph glyph-name="Aring" unicode="&#xc5;" 
d="M0 200v1100q0 200 200 200h1100q200 0 200 -200v-1100q0 -200 -200 -200h-1100q-200 0 -200 200zM1475 201v1099q0 175 -175 175h-1100q-174 0 -175 -175v-1100q1 -175 175 -175h1101q174 0 174 176z" />
    <glyph glyph-name="AE" unicode="&#xc6;" 
d="M0 200v1100q0 200 200 200h1100q200 0 200 -200v-1100q0 -200 -200 -200h-1100q-200 0 -200 200zM1475 201v1099q0 175 -175 175h-1100q-174 0 -175 -175v-1100q1 -175 175 -175h1101q174 0 174 176z" />
    <glyph glyph-name="Ccedilla" unicode="&#xc7;" 
d="M0 200v1100q0 200 200 200h1100q200 0 200 -200v-1100q0 -200 -200 -200h-1100q-200 0 -200 200zM1475 201v1099q0 175 -175 175h-1100q-174 0 -175 -175v-1100q1 -175 175 -175h1101q174 0 174 176z" />
    <glyph glyph-name="Egrave" unicode="&#xc8;" 
d="M0 200v1100q0 200 200 200h1100q200 0 200 -200v-1100q0 -200 -200 -200h-1100q-200 0 -200 200zM1475 201v1099q0 175 -175 175h-1100q-174 0 -175 -175v-1100q1 -175 175 -175h1101q174 0 174 176z" />
    <glyph glyph-name="Eacute" unicode="&#xc9;" 
d="M0 200v1100q0 200 200 200h1100q200 0 200 -200v-1100q0 -200 -200 -200h-1100q-200 0 -200 200zM1475 201v1099q0 175 -175 175h-1100q-174 0 -175 -175v-1100q1 -175 175 -175h1101q174 0 174 176z" />
    <glyph glyph-name="Ecircumflex" unicode="&#xca;" 
d="M0 200v1100q0 200 200 200h1100q200 0 200 -200v-1100q0 -200 -200 -200h-1100q-200 0 -200 200zM1475 201v1099q0 175 -175 175h-1100q-174 0 -175 -175v-1100q1 -175 175 -175h1101q174 0 174 176z" />
    <glyph glyph-name="Edieresis" unicode="&#xcb;" 
d="M0 200v1100q0 200 200 200h1100q200 0 200 -200v-1100q0 -200 -200 -200h-1100q-200 0 -200 200zM1475 201v1099q0 175 -175 175h-1100q-174 0 -175 -175v-1100q1 -175 175 -175h1101q174 0 174 176z" />
    <glyph glyph-name="Igrave" unicode="&#xcc;" 
d="M0 200v1100q0 200 200 200h1100q200 0 200 -200v-1100q0 -200 -200 -200h-1100q-200 0 -200 200zM1475 201v1099q0 175 -175 175h-1100q-174 0 -175 -175v-1100q1 -175 175 -175h1101q174 0 174 176z" />
    <glyph glyph-name="Iacute" unicode="&#xcd;" 
d="M0 200v1100q0 200 200 200h1100q200 0 200 -200v-1100q0 -200 -200 -200h-1100q-200 0 -200 200zM1475 201v1099q0 175 -175 175h-1100q-174 0 -175 -175v-1100q1 -175 175 -175h1101q174 0 174 176z" />
    <glyph glyph-name="Icircumflex" unicode="&#xce;" 
d="M0 200v1100q0 200 200 200h1100q200 0 200 -200v-1100q0 -200 -200 -200h-1100q-200 0 -200 200zM1475 201v1099q0 175 -175 175h-1100q-174 0 -175 -175v-1100q1 -175 175 -175h1101q174 0 174 176z" />
    <glyph glyph-name="Idieresis" unicode="&#xcf;" 
d="M0 200v1100q0 200 200 200h1100q200 0 200 -200v-1100q0 -200 -200 -200h-1100q-200 0 -200 200zM1475 201v1099q0 175 -175 175h-1100q-174 0 -175 -175v-1100q1 -175 175 -175h1101q174 0 174 176z" />
    <glyph glyph-name="Eth" unicode="&#xd0;" 
d="M0 200v1100q0 200 200 200h1100q200 0 200 -200v-1100q0 -200 -200 -200h-1100q-200 0 -200 200zM1475 201v1099q0 175 -175 175h-1100q-174 0 -175 -175v-1100q1 -175 175 -175h1101q174 0 174 176z" />
    <glyph glyph-name="Ntilde" unicode="&#xd1;" 
d="M0 200v1100q0 200 200 200h1100q200 0 200 -200v-1100q0 -200 -200 -200h-1100q-200 0 -200 200zM1475 201v1099q0 175 -175 175h-1100q-174 0 -175 -175v-1100q1 -175 175 -175h1101q174 0 174 176z" />
    <glyph glyph-name="Ograve" unicode="&#xd2;" 
d="M0 200v1100q0 200 200 200h1100q200 0 200 -200v-1100q0 -200 -200 -200h-1100q-200 0 -200 200zM1475 201v1099q0 175 -175 175h-1100q-174 0 -175 -175v-1100q1 -175 175 -175h1101q174 0 174 176z" />
    <glyph glyph-name="Oacute" unicode="&#xd3;" 
d="M0 200v1100q0 200 200 200h1100q200 0 200 -200v-1100q0 -200 -200 -200h-1100q-200 0 -200 200zM1475 201v1099q0 175 -175 175h-1100q-174 0 -175 -175v-1100q1 -175 175 -175h1101q174 0 174 176z" />
    <glyph glyph-name="Ocircumflex" unicode="&#xd4;" 
d="M0 200v1100q0 200 200 200h1100q200 0 200 -200v-1100q0 -200 -200 -200h-1100q-200 0 -200 200zM1475 201v1099q0 175 -175 175h-1100q-174 0 -175 -175v-1100q1 -175 175 -175h1101q174 0 174 176z" />
    <glyph glyph-name="Otilde" unicode="&#xd5;" 
d="M0 200v1100q0 200 200 200h1100q200 0 200 -200v-1100q0 -200 -200 -200h-1100q-200 0 -200 200zM1475 201v1099q0 175 -175 175h-1100q-174 0 -175 -175v-1100q1 -175 175 -175h1101q174 0 174 176z" />
    <glyph glyph-name="Odieresis" unicode="&#xd6;" 
d="M0 200v1100q0 200 200 200h1100q200 0 200 -200v-1100q0 -200 -200 -200h-1100q-200 0 -200 200zM1475 201v1099q0 175 -175 175h-1100q-174 0 -175 -175v-1100q1 -175 175 -175h1101q174 0 174 176z" />
    <glyph glyph-name="multiply" unicode="&#xd7;" 
d="M0 200v1100q0 200 200 200h1100q200 0 200 -200v-1100q0 -200 -200 -200h-1100q-200 0 -200 200zM1475 201v1099q0 175 -175 175h-1100q-174 0 -175 -175v-1100q1 -175 175 -175h1101q174 0 174 176z" />
    <glyph glyph-name="Oslash" unicode="&#xd8;" 
d="M0 200v1100q0 200 200 200h1100q200 0 200 -200v-1100q0 -200 -200 -200h-1100q-200 0 -200 200zM1475 201v1099q0 175 -175 175h-1100q-174 0 -175 -175v-1100q1 -175 175 -175h1101q174 0 174 176z" />
    <glyph glyph-name="Ugrave" unicode="&#xd9;" 
d="M0 200v1100q0 200 200 200h1100q200 0 200 -200v-1100q0 -200 -200 -200h-1100q-200 0 -200 200zM1475 201v1099q0 175 -175 175h-1100q-174 0 -175 -175v-1100q1 -175 175 -175h1101q174 0 174 176z" />
    <glyph glyph-name="Uacute" unicode="&#xda;" 
d="M0 200v1100q0 200 200 200h1100q200 0 200 -200v-1100q0 -200 -200 -200h-1100q-200 0 -200 200zM1475 201v1099q0 175 -175 175h-1100q-174 0 -175 -175v-1100q1 -175 175 -175h1101q174 0 174 176z" />
    <glyph glyph-name="Ucircumflex" unicode="&#xdb;" 
d="M0 200v1100q0 200 200 200h1100q200 0 200 -200v-1100q0 -200 -200 -200h-1100q-200 0 -200 200zM1475 201v1099q0 175 -175 175h-1100q-174 0 -175 -175v-1100q1 -175 175 -175h1101q174 0 174 176z" />
    <glyph glyph-name="Udieresis" unicode="&#xdc;" 
d="M0 200v1100q0 200 200 200h1100q200 0 200 -200v-1100q0 -200 -200 -200h-1100q-200 0 -200 200zM1475 201v1099q0 175 -175 175h-1100q-174 0 -175 -175v-1100q1 -175 175 -175h1101q174 0 174 176z" />
    <glyph glyph-name="Yacute" unicode="&#xdd;" 
d="M0 200v1100q0 200 200 200h1100q200 0 200 -200v-1100q0 -200 -200 -200h-1100q-200 0 -200 200zM1475 201v1099q0 175 -175 175h-1100q-174 0 -175 -175v-1100q1 -175 175 -175h1101q174 0 174 176z" />
    <glyph glyph-name="Thorn" unicode="&#xde;" 
d="M0 200v1100q0 200 200 200h1100q200 0 200 -200v-1100q0 -200 -200 -200h-1100q-200 0 -200 200zM1475 201v1099q0 175 -175 175h-1100q-174 0 -175 -175v-1100q1 -175 175 -175h1101q174 0 174 176z" />
    <glyph glyph-name="germandbls" unicode="&#xdf;" 
d="M0 200v1100q0 200 200 200h1100q200 0 200 -200v-1100q0 -200 -200 -200h-1100q-200 0 -200 200zM1475 201v1099q0 175 -175 175h-1100q-174 0 -175 -175v-1100q1 -175 175 -175h1101q174 0 174 176z" />
    <glyph glyph-name="agrave" unicode="&#xe0;" 
d="M0 200v1100q0 200 200 200h1100q200 0 200 -200v-1100q0 -200 -200 -200h-1100q-200 0 -200 200zM1475 201v1099q0 175 -175 175h-1100q-174 0 -175 -175v-1100q1 -175 175 -175h1101q174 0 174 176z" />
    <glyph glyph-name="aacute" unicode="&#xe1;" 
d="M0 200v1100q0 200 200 200h1100q200 0 200 -200v-1100q0 -200 -200 -200h-1100q-200 0 -200 200zM1475 201v1099q0 175 -175 175h-1100q-174 0 -175 -175v-1100q1 -175 175 -175h1101q174 0 174 176z" />
    <glyph glyph-name="acircumflex" unicode="&#xe2;" 
d="M0 200v1100q0 200 200 200h1100q200 0 200 -200v-1100q0 -200 -200 -200h-1100q-200 0 -200 200zM1475 201v1099q0 175 -175 175h-1100q-174 0 -175 -175v-1100q1 -175 175 -175h1101q174 0 174 176z" />
    <glyph glyph-name="atilde" unicode="&#xe3;" 
d="M0 200v1100q0 200 200 200h1100q200 0 200 -200v-1100q0 -200 -200 -200h-1100q-200 0 -200 200zM1475 201v1099q0 175 -175 175h-1100q-174 0 -175 -175v-1100q1 -175 175 -175h1101q174 0 174 176z" />
    <glyph glyph-name="adieresis" unicode="&#xe4;" 
d="M0 200v1100q0 200 200 200h1100q200 0 200 -200v-1100q0 -200 -200 -200h-1100q-200 0 -200 200zM1475 201v1099q0 175 -175 175h-1100q-174 0 -175 -175v-1100q1 -175 175 -175h1101q174 0 174 176z" />
    <glyph glyph-name="aring" unicode="&#xe5;" 
d="M0 200v1100q0 200 200 200h1100q200 0 200 -200v-1100q0 -200 -200 -200h-1100q-200 0 -200 200zM1475 201v1099q0 175 -175 175h-1100q-174 0 -175 -175v-1100q1 -175 175 -175h1101q174 0 174 176z" />
    <glyph glyph-name="ae" unicode="&#xe6;" 
d="M0 200v1100q0 200 200 200h1100q200 0 200 -200v-1100q0 -200 -200 -200h-1100q-200 0 -200 200zM1475 201v1099q0 175 -175 175h-1100q-174 0 -175 -175v-1100q1 -175 175 -175h1101q174 0 174 176z" />
    <glyph glyph-name="ccedilla" unicode="&#xe7;" 
d="M0 200v1100q0 200 200 200h1100q200 0 200 -200v-1100q0 -200 -200 -200h-1100q-200 0 -200 200zM1475 201v1099q0 175 -175 175h-1100q-174 0 -175 -175v-1100q1 -175 175 -175h1101q174 0 174 176z" />
    <glyph glyph-name="egrave" unicode="&#xe8;" 
d="M0 200v1100q0 200 200 200h1100q200 0 200 -200v-1100q0 -200 -200 -200h-1100q-200 0 -200 200zM1475 201v1099q0 175 -175 175h-1100q-174 0 -175 -175v-1100q1 -175 175 -175h1101q174 0 174 176z" />
    <glyph glyph-name="eacute" unicode="&#xe9;" 
d="M0 200v1100q0 200 200 200h1100q200 0 200 -200v-1100q0 -200 -200 -200h-1100q-200 0 -200 200zM1475 201v1099q0 175 -175 175h-1100q-174 0 -175 -175v-1100q1 -175 175 -175h1101q174 0 174 176z" />
    <glyph glyph-name="ecircumflex" unicode="&#xea;" 
d="M0 200v1100q0 200 200 200h1100q200 0 200 -200v-1100q0 -200 -200 -200h-1100q-200 0 -200 200zM1475 201v1099q0 175 -175 175h-1100q-174 0 -175 -175v-1100q1 -175 175 -175h1101q174 0 174 176z" />
    <glyph glyph-name="edieresis" unicode="&#xeb;" 
d="M0 200v1100q0 200 200 200h1100q200 0 200 -200v-1100q0 -200 -200 -200h-1100q-200 0 -200 200zM1475 201v1099q0 175 -175 175h-1100q-174 0 -175 -175v-1100q1 -175 175 -175h1101q174 0 174 176z" />
    <glyph glyph-name="igrave" unicode="&#xec;" 
d="M0 200v1100q0 200 200 200h1100q200 0 200 -200v-1100q0 -200 -200 -200h-1100q-200 0 -200 200zM1475 201v1099q0 175 -175 175h-1100q-174 0 -175 -175v-1100q1 -175 175 -175h1101q174 0 174 176z" />
    <glyph glyph-name="iacute" unicode="&#xed;" 
d="M0 200v1100q0 200 200 200h1100q200 0 200 -200v-1100q0 -200 -200 -200h-1100q-200 0 -200 200zM1475 201v1099q0 175 -175 175h-1100q-174 0 -175 -175v-1100q1 -175 175 -175h1101q174 0 174 176z" />
    <glyph glyph-name="icircumflex" unicode="&#xee;" 
d="M0 200v1100q0 200 200 200h1100q200 0 200 -200v-1100q0 -200 -200 -200h-1100q-200 0 -200 200zM1475 201v1099q0 175 -175 175h-1100q-174 0 -175 -175v-1100q1 -175 175 -175h1101q174 0 174 176z" />
    <glyph glyph-name="idieresis" unicode="&#xef;" 
d="M0 200v1100q0 200 200 200h1100q200 0 200 -200v-1100q0 -200 -200 -200h-1100q-200 0 -200 200zM1475 201v1099q0 175 -175 175h-1100q-174 0 -175 -175v-1100q1 -175 175 -175h1101q174 0 174 176z" />
    <glyph glyph-name="eth" unicode="&#xf0;" 
d="M0 200v1100q0 200 200 200h1100q200 0 200 -200v-1100q0 -200 -200 -200h-1100q-200 0 -200 200zM1475 201v1099q0 175 -175 175h-1100q-174 0 -175 -175v-1100q1 -175 175 -175h1101q174 0 174 176z" />
    <glyph glyph-name="ntilde" unicode="&#xf1;" 
d="M0 200v1100q0 200 200 200h1100q200 0 200 -200v-1100q0 -200 -200 -200h-1100q-200 0 -200 200zM1475 201v1099q0 175 -175 175h-1100q-174 0 -175 -175v-1100q1 -175 175 -175h1101q174 0 174 176z" />
    <glyph glyph-name="ograve" unicode="&#xf2;" 
d="M0 200v1100q0 200 200 200h1100q200 0 200 -200v-1100q0 -200 -200 -200h-1100q-200 0 -200 200zM1475 201v1099q0 175 -175 175h-1100q-174 0 -175 -175v-1100q1 -175 175 -175h1101q174 0 174 176z" />
    <glyph glyph-name="oacute" unicode="&#xf3;" 
d="M0 200v1100q0 200 200 200h1100q200 0 200 -200v-1100q0 -200 -200 -200h-1100q-200 0 -200 200zM1475 201v1099q0 175 -175 175h-1100q-174 0 -175 -175v-1100q1 -175 175 -175h1101q174 0 174 176z" />
    <glyph glyph-name="ocircumflex" unicode="&#xf4;" 
d="M0 200v1100q0 200 200 200h1100q200 0 200 -200v-1100q0 -200 -200 -200h-1100q-200 0 -200 200zM1475 201v1099q0 175 -175 175h-1100q-174 0 -175 -175v-1100q1 -175 175 -175h1101q174 0 174 176z" />
    <glyph glyph-name="otilde" unicode="&#xf5;" 
d="M0 200v1100q0 200 200 200h1100q200 0 200 -200v-1100q0 -200 -200 -200h-1100q-200 0 -200 200zM1475 201v1099q0 175 -175 175h-1100q-174 0 -175 -175v-1100q1 -175 175 -175h1101q174 0 174 176z" />
    <glyph glyph-name="odieresis" unicode="&#xf6;" 
d="M0 200v1100q0 200 200 200h1100q200 0 200 -200v-1100q0 -200 -200 -200h-1100q-200 0 -200 200zM1475 201v1099q0 175 -175 175h-1100q-174 0 -175 -175v-1100q1 -175 175 -175h1101q174 0 174 176z" />
    <glyph glyph-name="divide" unicode="&#xf7;" 
d="M0 200v1100q0 200 200 200h1100q200 0 200 -200v-1100q0 -200 -200 -200h-1100q-200 0 -200 200zM1475 201v1099q0 175 -175 175h-1100q-174 0 -175 -175v-1100q1 -175 175 -175h1101q174 0 174 176z" />
    <glyph glyph-name="oslash" unicode="&#xf8;" 
d="M0 200v1100q0 200 200 200h1100q200 0 200 -200v-1100q0 -200 -200 -200h-1100q-200 0 -200 200zM1475 201v1099q0 175 -175 175h-1100q-174 0 -175 -175v-1100q1 -175 175 -175h1101q174 0 174 176z" />
    <glyph glyph-name="ugrave" unicode="&#xf9;" 
d="M0 200v1100q0 200 200 200h1100q200 0 200 -200v-1100q0 -200 -200 -200h-1100q-200 0 -200 200zM1475 201v1099q0 175 -175 175h-1100q-174 0 -175 -175v-1100q1 -175 175 -175h1101q174 0 174 176z" />
    <glyph glyph-name="uacute" unicode="&#xfa;" 
d="M0 200v1100q0 200 200 200h1100q200 0 200 -200v-1100q0 -200 -200 -200h-1100q-200 0 -200 200zM1475 201v1099q0 175 -175 175h-1100q-174 0 -175 -175v-1100q1 -175 175 -175h1101q174 0 174 176z" />
    <glyph glyph-name="ucircumflex" unicode="&#xfb;" 
d="M0 200v1100q0 200 200 200h1100q200 0 200 -200v-1100q0 -200 -200 -200h-1100q-200 0 -200 200zM1475 201v1099q0 175 -175 175h-1100q-174 0 -175 -175v-1100q1 -175 175 -175h1101q174 0 174 176z" />
    <glyph glyph-name="udieresis" unicode="&#xfc;" 
d="M0 200v1100q0 200 200 200h1100q200 0 200 -200v-1100q0 -200 -200 -200h-1100q-200 0 -200 200zM1475 201v1099q0 175 -175 175h-1100q-174 0 -175 -175v-1100q1 -175 175 -175h1101q174 0 174 176z" />
    <glyph glyph-name="yacute" unicode="&#xfd;" 
d="M0 200v1100q0 200 200 200h1100q200 0 200 -200v-1100q0 -200 -200 -200h-1100q-200 0 -200 200zM1475 201v1099q0 175 -175 175h-1100q-174 0 -175 -175v-1100q1 -175 175 -175h1101q174 0 174 176z" />
    <glyph glyph-name="thorn" unicode="&#xfe;" 
d="M0 200v1100q0 200 200 200h1100q200 0 200 -200v-1100q0 -200 -200 -200h-1100q-200 0 -200 200zM1475 201v1099q0 175 -175 175h-1100q-174 0 -175 -175v-1100q1 -175 175 -175h1101q174 0 174 176z" />
    <glyph glyph-name="ydieresis" unicode="&#xff;" 
d="M0 200v1100q0 200 200 200h1100q200 0 200 -200v-1100q0 -200 -200 -200h-1100q-200 0 -200 200zM1475 201v1099q0 175 -175 175h-1100q-174 0 -175 -175v-1100q1 -175 175 -175h1101q174 0 174 176z" />
    <glyph glyph-name="dotlessi" unicode="&#x131;" 
d="M0 200v1100q0 200 200 200h1100q200 0 200 -200v-1100q0 -200 -200 -200h-1100q-200 0 -200 200zM1475 201v1099q0 175 -175 175h-1100q-174 0 -175 -175v-1100q1 -175 175 -175h1101q174 0 174 176z" />
    <glyph glyph-name="circumflex" unicode="&#x2c6;" 
d="M0 200v1100q0 200 200 200h1100q200 0 200 -200v-1100q0 -200 -200 -200h-1100q-200 0 -200 200zM1475 201v1099q0 175 -175 175h-1100q-174 0 -175 -175v-1100q1 -175 175 -175h1101q174 0 174 176z" />
    <glyph glyph-name="caron" unicode="&#x2c7;" 
d="M0 200v1100q0 200 200 200h1100q200 0 200 -200v-1100q0 -200 -200 -200h-1100q-200 0 -200 200zM1475 201v1099q0 175 -175 175h-1100q-174 0 -175 -175v-1100q1 -175 175 -175h1101q174 0 174 176z" />
    <glyph glyph-name="uni02C9" unicode="&#x2c9;" 
d="M0 200v1100q0 200 200 200h1100q200 0 200 -200v-1100q0 -200 -200 -200h-1100q-200 0 -200 200zM1475 201v1099q0 175 -175 175h-1100q-174 0 -175 -175v-1100q1 -175 175 -175h1101q174 0 174 176z" />
    <glyph glyph-name="breve" unicode="&#x2d8;" 
d="M0 200v1100q0 200 200 200h1100q200 0 200 -200v-1100q0 -200 -200 -200h-1100q-200 0 -200 200zM1475 201v1099q0 175 -175 175h-1100q-174 0 -175 -175v-1100q1 -175 175 -175h1101q174 0 174 176z" />
    <glyph glyph-name="dotaccent" unicode="&#x2d9;" 
d="M0 200v1100q0 200 200 200h1100q200 0 200 -200v-1100q0 -200 -200 -200h-1100q-200 0 -200 200zM1475 201v1099q0 175 -175 175h-1100q-174 0 -175 -175v-1100q1 -175 175 -175h1101q174 0 174 176z" />
    <glyph glyph-name="ring" unicode="&#x2da;" 
d="M0 200v1100q0 200 200 200h1100q200 0 200 -200v-1100q0 -200 -200 -200h-1100q-200 0 -200 200zM1475 201v1099q0 175 -175 175h-1100q-174 0 -175 -175v-1100q1 -175 175 -175h1101q174 0 174 176z" />
    <glyph glyph-name="ogonek" unicode="&#x2db;" 
d="M0 200v1100q0 200 200 200h1100q200 0 200 -200v-1100q0 -200 -200 -200h-1100q-200 0 -200 200zM1475 201v1099q0 175 -175 175h-1100q-174 0 -175 -175v-1100q1 -175 175 -175h1101q174 0 174 176z" />
    <glyph glyph-name="tilde" unicode="&#x2dc;" 
d="M0 200v1100q0 200 200 200h1100q200 0 200 -200v-1100q0 -200 -200 -200h-1100q-200 0 -200 200zM1475 201v1099q0 175 -175 175h-1100q-174 0 -175 -175v-1100q1 -175 175 -175h1101q174 0 174 176z" />
    <glyph glyph-name="hungarumlaut" unicode="&#x2dd;" 
d="M0 200v1100q0 200 200 200h1100q200 0 200 -200v-1100q0 -200 -200 -200h-1100q-200 0 -200 200zM1475 201v1099q0 175 -175 175h-1100q-174 0 -175 -175v-1100q1 -175 175 -175h1101q174 0 174 176z" />
    <glyph glyph-name="endash" unicode="&#x2013;" 
d="M0 200v1100q0 200 200 200h1100q200 0 200 -200v-1100q0 -200 -200 -200h-1100q-200 0 -200 200zM1475 201v1099q0 175 -175 175h-1100q-174 0 -175 -175v-1100q1 -175 175 -175h1101q174 0 174 176z" />
    <glyph glyph-name="emdash" unicode="&#x2014;" 
d="M0 200v1100q0 200 200 200h1100q200 0 200 -200v-1100q0 -200 -200 -200h-1100q-200 0 -200 200zM1475 201v1099q0 175 -175 175h-1100q-174 0 -175 -175v-1100q1 -175 175 -175h1101q174 0 174 176z" />
    <glyph glyph-name="quoteleft" unicode="&#x2018;" 
d="M0 200v1100q0 200 200 200h1100q200 0 200 -200v-1100q0 -200 -200 -200h-1100q-200 0 -200 200zM1475 201v1099q0 175 -175 175h-1100q-174 0 -175 -175v-1100q1 -175 175 -175h1101q174 0 174 176z" />
    <glyph glyph-name="quoteright" unicode="&#x2019;" 
d="M0 200v1100q0 200 200 200h1100q200 0 200 -200v-1100q0 -200 -200 -200h-1100q-200 0 -200 200zM1475 201v1099q0 175 -175 175h-1100q-174 0 -175 -175v-1100q1 -175 175 -175h1101q174 0 174 176z" />
    <glyph glyph-name="quotesinglbase" unicode="&#x201a;" 
d="M0 200v1100q0 200 200 200h1100q200 0 200 -200v-1100q0 -200 -200 -200h-1100q-200 0 -200 200zM1475 201v1099q0 175 -175 175h-1100q-174 0 -175 -175v-1100q1 -175 175 -175h1101q174 0 174 176z" />
    <glyph glyph-name="quotedblleft" unicode="&#x201c;" 
d="M0 200v1100q0 200 200 200h1100q200 0 200 -200v-1100q0 -200 -200 -200h-1100q-200 0 -200 200zM1475 201v1099q0 175 -175 175h-1100q-174 0 -175 -175v-1100q1 -175 175 -175h1101q174 0 174 176z" />
    <glyph glyph-name="quotedblright" unicode="&#x201d;" 
d="M0 200v1100q0 200 200 200h1100q200 0 200 -200v-1100q0 -200 -200 -200h-1100q-200 0 -200 200zM1475 201v1099q0 175 -175 175h-1100q-174 0 -175 -175v-1100q1 -175 175 -175h1101q174 0 174 176z" />
    <glyph glyph-name="quotedblbase" unicode="&#x201e;" 
d="M0 200v1100q0 200 200 200h1100q200 0 200 -200v-1100q0 -200 -200 -200h-1100q-200 0 -200 200zM1475 201v1099q0 175 -175 175h-1100q-174 0 -175 -175v-1100q1 -175 175 -175h1101q174 0 174 176z" />
    <glyph glyph-name="dagger" unicode="&#x2020;" 
d="M0 200v1100q0 200 200 200h1100q200 0 200 -200v-1100q0 -200 -200 -200h-1100q-200 0 -200 200zM1475 201v1099q0 175 -175 175h-1100q-174 0 -175 -175v-1100q1 -175 175 -175h1101q174 0 174 176z" />
    <glyph glyph-name="daggerdbl" unicode="&#x2021;" 
d="M0 200v1100q0 200 200 200h1100q200 0 200 -200v-1100q0 -200 -200 -200h-1100q-200 0 -200 200zM1475 201v1099q0 175 -175 175h-1100q-174 0 -175 -175v-1100q1 -175 175 -175h1101q174 0 174 176z" />
    <glyph glyph-name="bullet" unicode="&#x2022;" 
d="M0 200v1100q0 200 200 200h1100q200 0 200 -200v-1100q0 -200 -200 -200h-1100q-200 0 -200 200zM1475 201v1099q0 175 -175 175h-1100q-174 0 -175 -175v-1100q1 -175 175 -175h1101q174 0 174 176z" />
    <glyph glyph-name="ellipsis" unicode="&#x2026;" 
d="M0 200v1100q0 200 200 200h1100q200 0 200 -200v-1100q0 -200 -200 -200h-1100q-200 0 -200 200zM1475 201v1099q0 175 -175 175h-1100q-174 0 -175 -175v-1100q1 -175 175 -175h1101q174 0 174 176z" />
    <glyph glyph-name="guilsinglleft" unicode="&#x2039;" 
d="M0 200v1100q0 200 200 200h1100q200 0 200 -200v-1100q0 -200 -200 -200h-1100q-200 0 -200 200zM1475 201v1099q0 175 -175 175h-1100q-174 0 -175 -175v-1100q1 -175 175 -175h1101q174 0 174 176z" />
    <glyph glyph-name="guilsinglright" unicode="&#x203a;" 
d="M0 200v1100q0 200 200 200h1100q200 0 200 -200v-1100q0 -200 -200 -200h-1100q-200 0 -200 200zM1475 201v1099q0 175 -175 175h-1100q-174 0 -175 -175v-1100q1 -175 175 -175h1101q174 0 174 176z" />
    <glyph glyph-name="fraction" unicode="&#x2044;" 
d="M0 200v1100q0 200 200 200h1100q200 0 200 -200v-1100q0 -200 -200 -200h-1100q-200 0 -200 200zM1475 201v1099q0 175 -175 175h-1100q-174 0 -175 -175v-1100q1 -175 175 -175h1101q174 0 174 176z" />
    <glyph glyph-name="fraction" unicode="&#x2215;" 
d="M0 200v1100q0 200 200 200h1100q200 0 200 -200v-1100q0 -200 -200 -200h-1100q-200 0 -200 200zM1475 201v1099q0 175 -175 175h-1100q-174 0 -175 -175v-1100q1 -175 175 -175h1101q174 0 174 176z" />
    <glyph glyph-name="franc" unicode="&#x20a3;" 
d="M0 200v1100q0 200 200 200h1100q200 0 200 -200v-1100q0 -200 -200 -200h-1100q-200 0 -200 200zM1475 201v1099q0 175 -175 175h-1100q-174 0 -175 -175v-1100q1 -175 175 -175h1101q174 0 174 176z" />
    <glyph glyph-name="lira" unicode="&#x20a4;" 
d="M0 200v1100q0 200 200 200h1100q200 0 200 -200v-1100q0 -200 -200 -200h-1100q-200 0 -200 200zM1475 201v1099q0 175 -175 175h-1100q-174 0 -175 -175v-1100q1 -175 175 -175h1101q174 0 174 176z" />
    <glyph glyph-name="peseta" unicode="&#x20a7;" 
d="M0 200v1100q0 200 200 200h1100q200 0 200 -200v-1100q0 -200 -200 -200h-1100q-200 0 -200 200zM1475 201v1099q0 175 -175 175h-1100q-174 0 -175 -175v-1100q1 -175 175 -175h1101q174 0 174 176z" />
    <glyph glyph-name="Euro" unicode="&#x20ac;" 
d="M0 200v1100q0 200 200 200h1100q200 0 200 -200v-1100q0 -200 -200 -200h-1100q-200 0 -200 200zM1475 201v1099q0 175 -175 175h-1100q-174 0 -175 -175v-1100q1 -175 175 -175h1101q174 0 174 176z" />
    <glyph glyph-name="uni2116" unicode="&#x2116;" 
d="M0 200v1100q0 200 200 200h1100q200 0 200 -200v-1100q0 -200 -200 -200h-1100q-200 0 -200 200zM1475 201v1099q0 175 -175 175h-1100q-174 0 -175 -175v-1100q1 -175 175 -175h1101q174 0 174 176z" />
    <glyph glyph-name="trademark" unicode="&#x2122;" 
d="M0 200v1100q0 200 200 200h1100q200 0 200 -200v-1100q0 -200 -200 -200h-1100q-200 0 -200 200zM1475 201v1099q0 175 -175 175h-1100q-174 0 -175 -175v-1100q1 -175 175 -175h1101q174 0 174 176z" />
    <glyph glyph-name="partialdiff" unicode="&#x2202;" 
d="M0 200v1100q0 200 200 200h1100q200 0 200 -200v-1100q0 -200 -200 -200h-1100q-200 0 -200 200zM1475 201v1099q0 175 -175 175h-1100q-174 0 -175 -175v-1100q1 -175 175 -175h1101q174 0 174 176z" />
    <glyph glyph-name="Delta" unicode="&#x2206;" 
d="M0 200v1100q0 200 200 200h1100q200 0 200 -200v-1100q0 -200 -200 -200h-1100q-200 0 -200 200zM1475 201v1099q0 175 -175 175h-1100q-174 0 -175 -175v-1100q1 -175 175 -175h1101q174 0 174 176z" />
    <glyph glyph-name="product" unicode="&#x220f;" 
d="M0 200v1100q0 200 200 200h1100q200 0 200 -200v-1100q0 -200 -200 -200h-1100q-200 0 -200 200zM1475 201v1099q0 175 -175 175h-1100q-174 0 -175 -175v-1100q1 -175 175 -175h1101q174 0 174 176z" />
    <glyph glyph-name="summation" unicode="&#x2211;" 
d="M0 200v1100q0 200 200 200h1100q200 0 200 -200v-1100q0 -200 -200 -200h-1100q-200 0 -200 200zM1475 201v1099q0 175 -175 175h-1100q-174 0 -175 -175v-1100q1 -175 175 -175h1101q174 0 174 176z" />
    <glyph glyph-name="minus" unicode="&#x2212;" 
d="M0 200v1100q0 200 200 200h1100q200 0 200 -200v-1100q0 -200 -200 -200h-1100q-200 0 -200 200zM1475 201v1099q0 175 -175 175h-1100q-174 0 -175 -175v-1100q1 -175 175 -175h1101q174 0 174 176z" />
    <glyph glyph-name="radical" unicode="&#x221a;" 
d="M0 200v1100q0 200 200 200h1100q200 0 200 -200v-1100q0 -200 -200 -200h-1100q-200 0 -200 200zM1475 201v1099q0 175 -175 175h-1100q-174 0 -175 -175v-1100q1 -175 175 -175h1101q174 0 174 176z" />
    <glyph glyph-name="infinity" unicode="&#x221e;" 
d="M0 200v1100q0 200 200 200h1100q200 0 200 -200v-1100q0 -200 -200 -200h-1100q-200 0 -200 200zM1475 201v1099q0 175 -175 175h-1100q-174 0 -175 -175v-1100q1 -175 175 -175h1101q174 0 174 176z" />
    <glyph glyph-name="integral" unicode="&#x222b;" 
d="M0 200v1100q0 200 200 200h1100q200 0 200 -200v-1100q0 -200 -200 -200h-1100q-200 0 -200 200zM1475 201v1099q0 175 -175 175h-1100q-174 0 -175 -175v-1100q1 -175 175 -175h1101q174 0 174 176z" />
    <glyph glyph-name="approxequal" unicode="&#x2248;" 
d="M0 200v1100q0 200 200 200h1100q200 0 200 -200v-1100q0 -200 -200 -200h-1100q-200 0 -200 200zM1475 201v1099q0 175 -175 175h-1100q-174 0 -175 -175v-1100q1 -175 175 -175h1101q174 0 174 176z" />
    <glyph glyph-name="lessequal" unicode="&#x2264;" 
d="M0 200v1100q0 200 200 200h1100q200 0 200 -200v-1100q0 -200 -200 -200h-1100q-200 0 -200 200zM1475 201v1099q0 175 -175 175h-1100q-174 0 -175 -175v-1100q1 -175 175 -175h1101q174 0 174 176z" />
    <glyph glyph-name="greaterequal" unicode="&#x2265;" 
d="M0 200v1100q0 200 200 200h1100q200 0 200 -200v-1100q0 -200 -200 -200h-1100q-200 0 -200 200zM1475 201v1099q0 175 -175 175h-1100q-174 0 -175 -175v-1100q1 -175 175 -175h1101q174 0 174 176z" />
    <glyph glyph-name="uniF001" unicode="&#xf001;" horiz-adv-x="1073" 
 />
    <glyph glyph-name="uniF001" unicode="&#xfb01;" horiz-adv-x="1073" 
 />
    <glyph glyph-name="uniF002" unicode="&#xf002;" horiz-adv-x="1081" 
 />
    <glyph glyph-name="uniF002" unicode="&#xfb02;" horiz-adv-x="1081" 
 />
  </font>
</defs>
</svg>
