<?xml version="1.0" standalone="no"?>
<!DOCTYPE svg PUBLIC "-//W3C//DTD SVG 1.1//EN" "http://www.w3.org/Graphics/SVG/1.1/DTD/svg11.dtd" >
<svg xmlns="http://www.w3.org/2000/svg" xmlns:xlink="http://www.w3.org/1999/xlink" version="1.1">
<metadata>
Created by FontForge 20170910 at Wed Aug  6 13:48:30 2014
 By Jimmy Wärting
Daedra (c) (Neale Davidson). 2012-2014. All Rights Reserved
</metadata>
<defs>
<font id="Daedra-BoldItalic" horiz-adv-x="1650" >
  <font-face 
    font-family="Daedra"
    font-weight="400"
    font-style="italic"
    font-stretch="normal"
    units-per-em="2048"
    panose-1="2 0 5 0 0 0 0 0 0 0"
    ascent="1638"
    descent="-410"
    x-height="1257"
    cap-height="1402"
    bbox="-351 -485 1743 1771"
    underline-thickness="150"
    underline-position="-292"
    slope="-15"
    unicode-range="U+001D-F002"
  />
<missing-glyph 
d="M0 200v1100q0 200 200 200h1100q200 0 200 -200v-1100q0 -200 -200 -200h-1100q-200 0 -200 200zM1475 201v1099q0 175 -175 175h-1100q-174 0 -175 -175v-1100q1 -175 175 -175h1101q174 0 174 176z" />
    <glyph glyph-name=".notdef" 
d="M0 200v1100q0 200 200 200h1100q200 0 200 -200v-1100q0 -200 -200 -200h-1100q-200 0 -200 200zM1475 201v1099q0 175 -175 175h-1100q-174 0 -175 -175v-1100q1 -175 175 -175h1101q174 0 174 176z" />
    <glyph glyph-name=".null" horiz-adv-x="0" 
 />
    <glyph glyph-name=".null" horiz-adv-x="0" 
 />
    <glyph glyph-name="nonmarkingreturn" horiz-adv-x="508" 
 />
    <glyph glyph-name="space" unicode=" " horiz-adv-x="1093" 
 />
    <glyph glyph-name="space" unicode="&#xa0;" horiz-adv-x="1093" 
 />
    <glyph glyph-name="exclam" unicode="!" 
d="M0 200v1100q0 200 200 200h1100q200 0 200 -200v-1100q0 -200 -200 -200h-1100q-200 0 -200 200zM1475 201v1099q0 175 -175 175h-1100q-174 0 -175 -175v-1100q1 -175 175 -175h1101q174 0 174 176z" />
    <glyph glyph-name="quotedbl" unicode="&#x22;" 
d="M0 200v1100q0 200 200 200h1100q200 0 200 -200v-1100q0 -200 -200 -200h-1100q-200 0 -200 200zM1475 201v1099q0 175 -175 175h-1100q-174 0 -175 -175v-1100q1 -175 175 -175h1101q174 0 174 176z" />
    <glyph glyph-name="numbersign" unicode="#" 
d="M0 200v1100q0 200 200 200h1100q200 0 200 -200v-1100q0 -200 -200 -200h-1100q-200 0 -200 200zM1475 201v1099q0 175 -175 175h-1100q-174 0 -175 -175v-1100q1 -175 175 -175h1101q174 0 174 176z" />
    <glyph glyph-name="dollar" unicode="$" 
d="M0 200v1100q0 200 200 200h1100q200 0 200 -200v-1100q0 -200 -200 -200h-1100q-200 0 -200 200zM1475 201v1099q0 175 -175 175h-1100q-174 0 -175 -175v-1100q1 -175 175 -175h1101q174 0 174 176z" />
    <glyph glyph-name="percent" unicode="%" 
d="M0 200v1100q0 200 200 200h1100q200 0 200 -200v-1100q0 -200 -200 -200h-1100q-200 0 -200 200zM1475 201v1099q0 175 -175 175h-1100q-174 0 -175 -175v-1100q1 -175 175 -175h1101q174 0 174 176z" />
    <glyph glyph-name="ampersand" unicode="&#x26;" 
d="M0 200v1100q0 200 200 200h1100q200 0 200 -200v-1100q0 -200 -200 -200h-1100q-200 0 -200 200zM1475 201v1099q0 175 -175 175h-1100q-174 0 -175 -175v-1100q1 -175 175 -175h1101q174 0 174 176z" />
    <glyph glyph-name="quotesingle" unicode="'" 
d="M0 200v1100q0 200 200 200h1100q200 0 200 -200v-1100q0 -200 -200 -200h-1100q-200 0 -200 200zM1475 201v1099q0 175 -175 175h-1100q-174 0 -175 -175v-1100q1 -175 175 -175h1101q174 0 174 176z" />
    <glyph glyph-name="parenleft" unicode="(" 
d="M0 200v1100q0 200 200 200h1100q200 0 200 -200v-1100q0 -200 -200 -200h-1100q-200 0 -200 200zM1475 201v1099q0 175 -175 175h-1100q-174 0 -175 -175v-1100q1 -175 175 -175h1101q174 0 174 176z" />
    <glyph glyph-name="parenright" unicode=")" 
d="M0 200v1100q0 200 200 200h1100q200 0 200 -200v-1100q0 -200 -200 -200h-1100q-200 0 -200 200zM1475 201v1099q0 175 -175 175h-1100q-174 0 -175 -175v-1100q1 -175 175 -175h1101q174 0 174 176z" />
    <glyph glyph-name="asterisk" unicode="*" 
d="M0 200v1100q0 200 200 200h1100q200 0 200 -200v-1100q0 -200 -200 -200h-1100q-200 0 -200 200zM1475 201v1099q0 175 -175 175h-1100q-174 0 -175 -175v-1100q1 -175 175 -175h1101q174 0 174 176z" />
    <glyph glyph-name="plus" unicode="+" 
d="M0 200v1100q0 200 200 200h1100q200 0 200 -200v-1100q0 -200 -200 -200h-1100q-200 0 -200 200zM1475 201v1099q0 175 -175 175h-1100q-174 0 -175 -175v-1100q1 -175 175 -175h1101q174 0 174 176z" />
    <glyph glyph-name="comma" unicode="," 
d="M0 200v1100q0 200 200 200h1100q200 0 200 -200v-1100q0 -200 -200 -200h-1100q-200 0 -200 200zM1475 201v1099q0 175 -175 175h-1100q-174 0 -175 -175v-1100q1 -175 175 -175h1101q174 0 174 176z" />
    <glyph glyph-name="hyphen" unicode="-" 
d="M0 200v1100q0 200 200 200h1100q200 0 200 -200v-1100q0 -200 -200 -200h-1100q-200 0 -200 200zM1475 201v1099q0 175 -175 175h-1100q-174 0 -175 -175v-1100q1 -175 175 -175h1101q174 0 174 176z" />
    <glyph glyph-name="hyphen" unicode="&#xad;" 
d="M0 200v1100q0 200 200 200h1100q200 0 200 -200v-1100q0 -200 -200 -200h-1100q-200 0 -200 200zM1475 201v1099q0 175 -175 175h-1100q-174 0 -175 -175v-1100q1 -175 175 -175h1101q174 0 174 176z" />
    <glyph glyph-name="period" unicode="." 
d="M0 200v1100q0 200 200 200h1100q200 0 200 -200v-1100q0 -200 -200 -200h-1100q-200 0 -200 200zM1475 201v1099q0 175 -175 175h-1100q-174 0 -175 -175v-1100q1 -175 175 -175h1101q174 0 174 176z" />
    <glyph glyph-name="slash" unicode="/" 
d="M0 200v1100q0 200 200 200h1100q200 0 200 -200v-1100q0 -200 -200 -200h-1100q-200 0 -200 200zM1475 201v1099q0 175 -175 175h-1100q-174 0 -175 -175v-1100q1 -175 175 -175h1101q174 0 174 176z" />
    <glyph glyph-name="zero" unicode="0" horiz-adv-x="1219" 
d="M761 951q34 0 51 -17.5t22 -39.5q4 -18 4 -37v-11q-2 -25 -8 -46q-12 -45 -52.5 -97.5t-97.5 -52.5q-27 0 -42.5 15t-25 33t-11.5 41q-1 6 -1 12q0 15 4 28q6 22 18.5 48.5t28.5 53t44 48.5t66 22zM729 1293q4 -3 9 -8q15 -15 45 -54q-84 -58 -144 -134t-109 -163
t-85.5 -174t-54.5 -154q-21 -78 -21 -159q0 -44 7 -89q17 -128 122 -334q-117 42 -156.5 88t-63 107t-36 132.5t-14.5 142.5q-1 20 -1 39q0 50 5 98q6 66 19 115q37 138 71 227t60.5 145.5t44.5 84.5t21 40q5 17 5 31q0 11 -3 19q-8 17 -22.5 28t-35.5 18.5t-131 49.5
q258 7 376.5 9t228.5 2q113 0 226.5 -2t358.5 -9q-129 -42 -156 -55t-53.5 -29.5t-45 -35.5t-23.5 -37q-1 -4 -1 -8q0 -12 9 -25q11 -19 19 -69q3 -26 3 -63q0 -34 -3 -77q-7 -91 -48 -244q-45 -167 -97 -296t-123 -229t-164.5 -176t-427.5 -234q235 164 288.5 212.5
t103 108t89 126.5t57.5 133q13 50 30.5 124t31 159t21.5 176q4 43 4 85q0 45 -4 88q-9 82 -37 153t-75 113q-27 8 -58 8q-29 0 -62 -4z" />
    <glyph glyph-name="one" unicode="1" horiz-adv-x="435" 
d="M474 1401q-3 -67 -3 -118q0 -88 8 -131q8 -48 8 -89q0 -18 -1 -34q-52 -92 -115 -243t-123.5 -301.5t-116 -311t-154.5 -489.5l-6 232q18 82 64 259l31 117q32 119 65 236q50 176 103 364t83 300h-26q92 226 165 268z" />
    <glyph glyph-name="two" unicode="2" horiz-adv-x="668" 
d="M474 1401q-3 -67 -3 -118q0 -88 8 -131q8 -48 8 -89q0 -18 -1 -34q-52 -92 -115 -243t-123.5 -301.5t-116 -311t-154.5 -489.5l-6 232q18 82 64 259l31 117q32 119 65 236q50 176 103 364t83 300h-26q92 226 165 268zM707 1401q-3 -67 -3 -118q0 -88 8 -130q8 -48 8 -90
q0 -18 -1 -34q-52 -92 -115.5 -243t-123.5 -301.5t-115.5 -311t-155.5 -486.5l-6 229q18 82 65 259l31 117q32 119 64 236q50 176 103.5 364t83.5 300h-26q91 226 163 268z" />
    <glyph glyph-name="three" unicode="3" horiz-adv-x="900" 
d="M474 1401q-3 -67 -3 -118q0 -88 8 -131q8 -48 8 -89q0 -18 -1 -34q-52 -92 -115 -243t-123.5 -301.5t-116 -311t-154.5 -489.5l-6 232q18 82 64 259l31 117q32 119 65 236q50 176 103 364t83 300h-26q92 226 165 268zM707 1401q-3 -67 -3 -118q0 -88 8 -130q8 -48 8 -90
q0 -18 -1 -34q-52 -92 -115.5 -243t-123.5 -301.5t-115.5 -311t-155.5 -486.5l-6 229q18 82 65 259l31 117q32 119 64 236q50 176 103.5 364t83.5 300h-26q91 226 163 268zM939 1401q-3 -67 -3 -118q0 -88 8 -131q8 -48 8 -89q0 -18 -1 -34q-52 -92 -115 -243t-123.5 -301.5
t-116 -311t-154.5 -489.5l-6 232q18 82 64 259l31 117q32 119 65 236q50 176 103 364t83 300h-26q92 226 165 268z" />
    <glyph glyph-name="four" unicode="4" horiz-adv-x="1133" 
d="M474 1401q-3 -67 -3 -118q0 -88 8 -131q8 -48 8 -89q0 -18 -1 -34q-52 -92 -115 -243t-123.5 -301.5t-116 -311t-154.5 -489.5l-6 232q18 82 64 259l31 117q32 119 65 236q50 176 103 364t83 300h-26q92 226 165 268zM707 1401q-3 -67 -3 -118q0 -88 8 -130q8 -48 8 -90
q0 -18 -1 -34q-52 -92 -115.5 -243t-123.5 -301.5t-115.5 -311t-155.5 -486.5l-6 229q18 82 65 259l31 117q32 119 64 236q50 176 103.5 364t83.5 300h-26q91 226 163 268zM939 1401q-3 -67 -3 -118q0 -88 8 -131q8 -48 8 -89q0 -18 -1 -34q-52 -92 -115 -243t-123.5 -301.5
t-116 -311t-154.5 -489.5l-6 232q18 82 64 259l31 117q32 119 65 236q50 176 103 364t83 300h-26q92 226 165 268zM1172 1401q-3 -67 -3 -118q0 -88 8 -130q8 -48 8 -90q0 -18 -1 -34q-52 -92 -115.5 -243t-123.5 -301.5t-115.5 -311t-155.5 -486.5l-6 229q18 82 65 259
l31 117q32 119 64 236q50 176 103.5 364t83.5 300h-26q91 226 163 268z" />
    <glyph glyph-name="five" unicode="5" horiz-adv-x="804" 
d="M248 484q-61 -150 -116.5 -310.5t-154.5 -489.5l-6 232q18 82 64 259l31 117q32 119 65 236q50 176 103 364t83 300h-26q92 226 165 268l18 -59q-3 -67 -3 -118q0 -88 8 -131q8 -48 8 -89q0 -18 -1 -34q-31 -55 -54 -102q25 0 69 -1q84 -3 141 -3t90.5 5t234.5 110
q-183 -148 -213 -215q-26 -56 -82 -97t-157 -54q-37 12 -74.5 16.5t-88.5 5.5q-58 -95 -104 -210z" />
    <glyph glyph-name="six" unicode="6" horiz-adv-x="993" 
d="M811 959q40 142 64 233h-26q92 226 165 268l18 -59q-3 -67 -3 -118q0 -88 8 -131q8 -48 8 -89q0 -18 -1 -34q-52 -92 -115 -243t-123.5 -301.5t-116 -311t-154.5 -489.5l-6 232q18 82 64 259l31 117q32 119 65 236q47 166 97 343q-23 -28 -32 -48q-26 -56 -82 -97
t-157 -54q-37 12 -74.5 16.5t-88.5 5.5q-58 -95 -104 -210q-61 -150 -116.5 -310.5t-154.5 -489.5l-6 232q18 82 64 259l31 117q32 119 65 236q50 176 103 364t83 300h-26q92 226 165 268l18 -59q-3 -67 -3 -118q0 -88 8 -131q8 -48 8 -89q0 -18 -1 -34q-31 -55 -54 -102
q25 0 69 -1q84 -3 141 -3t91 5q16 3 78 31z" />
    <glyph glyph-name="seven" unicode="7" horiz-adv-x="1226" 
d="M1265 1401q-3 -67 -3 -118q0 -88 8 -130q8 -48 8 -90q0 -18 -1 -34q-52 -92 -115.5 -243t-123.5 -301.5t-115.5 -311t-155.5 -486.5l-6 229q18 82 65 259l31 117q32 119 64 236q50 176 103.5 364t83.5 300h-26q91 226 163 268zM811 959q40 142 64 233h-26q92 226 165 268
l18 -59q-3 -67 -3 -118q0 -88 8 -131q8 -48 8 -89q0 -18 -1 -34q-52 -92 -115 -243t-123.5 -301.5t-116 -311t-154.5 -489.5l-6 232q18 82 64 259l31 117q32 119 65 236q47 166 97 343q-23 -28 -32 -48q-26 -56 -82 -97t-157 -54q-37 12 -74.5 16.5t-88.5 5.5
q-58 -95 -104 -210q-61 -150 -116.5 -310.5t-154.5 -489.5l-6 232q18 82 64 259l31 117q32 119 65 236q50 176 103 364t83 300h-26q92 226 165 268l18 -59q-3 -67 -3 -118q0 -88 8 -131q8 -48 8 -89q0 -18 -1 -34q-31 -55 -54 -102q25 0 69 -1q84 -3 141 -3t91 5q16 3 78 31
z" />
    <glyph glyph-name="eight" unicode="8" horiz-adv-x="1458" 
d="M1265 1401q-3 -67 -3 -118q0 -88 8 -130q8 -48 8 -90q0 -18 -1 -34q-52 -92 -115.5 -243t-123.5 -301.5t-115.5 -311t-155.5 -486.5l-6 229q18 82 65 259l31 117q32 119 64 236q50 176 103.5 364t83.5 300h-26q91 226 163 268zM1497 1401q-3 -67 -3 -118q0 -88 8 -131
q8 -48 8 -89q0 -18 -1 -34q-52 -92 -115 -243t-123.5 -301.5t-116 -311t-154.5 -489.5l-6 232q18 82 64 259l31 117q32 119 65 236q50 176 103 364t83 300h-26q92 226 165 268zM786 871q-23 -28 -32 -48q-26 -56 -82 -97t-157 -54q-37 12 -74.5 16.5t-88.5 5.5
q-58 -95 -104 -210q-61 -150 -116.5 -310.5t-154.5 -489.5l-6 232q18 82 64 259l31 117q32 119 65 236q50 176 103 364t83 300h-26q92 226 165 268l18 -59q-3 -67 -3 -118q0 -88 8 -131q8 -48 8 -89q0 -18 -1 -34q-31 -55 -54 -102q25 0 69 -1q84 -3 141 -3t91 5q16 3 78 31
q40 142 64 233h-26q92 226 165 268l18 -59q-3 -67 -3 -118q0 -88 8 -131q8 -48 8 -89q0 -18 -1 -34q-52 -92 -115 -243t-123.5 -301.5t-116 -311t-154.5 -489.5l-6 232q18 82 64 259l31 117q32 119 65 236q47 166 97 343z" />
    <glyph glyph-name="nine" unicode="9" horiz-adv-x="1691" 
d="M1265 1401q-3 -67 -3 -118q0 -88 8 -130q8 -48 8 -90q0 -18 -1 -34q-52 -92 -115.5 -243t-123.5 -301.5t-115.5 -311t-155.5 -486.5l-6 229q18 82 65 259l31 117q32 119 64 236q50 176 103.5 364t83.5 300h-26q91 226 163 268zM1497 1401q-3 -67 -3 -118q0 -88 8 -131
q8 -48 8 -89q0 -18 -1 -34q-52 -92 -115 -243t-123.5 -301.5t-116 -311t-154.5 -489.5l-6 232q18 82 64 259l31 117q32 119 65 236q50 176 103 364t83 300h-26q92 226 165 268zM1730 1401q-3 -67 -3 -118q0 -88 8 -130q8 -48 8 -90q0 -18 -1 -34q-52 -92 -115.5 -243
t-123.5 -301.5t-115.5 -311t-155.5 -486.5l-6 229q18 82 65 259l31 117q32 119 64 236q50 176 103.5 364t83.5 300h-26q91 226 163 268zM786 871q-23 -28 -32 -48q-26 -56 -82 -97t-157 -54q-37 12 -74.5 16.5t-88.5 5.5q-58 -95 -104 -210q-61 -150 -116.5 -310.5
t-154.5 -489.5l-6 232q18 82 64 259l31 117q32 119 65 236q50 176 103 364t83 300h-26q92 226 165 268l18 -59q-3 -67 -3 -118q0 -88 8 -131q8 -48 8 -89q0 -18 -1 -34q-31 -55 -54 -102q25 0 69 -1q84 -3 141 -3t91 5q16 3 78 31q40 142 64 233h-26q92 226 165 268l18 -59
q-3 -67 -3 -118q0 -88 8 -131q8 -48 8 -89q0 -18 -1 -34q-52 -92 -115 -243t-123.5 -301.5t-116 -311t-154.5 -489.5l-6 232q18 82 64 259l31 117q32 119 65 236q47 166 97 343z" />
    <glyph glyph-name="colon" unicode=":" 
d="M0 200v1100q0 200 200 200h1100q200 0 200 -200v-1100q0 -200 -200 -200h-1100q-200 0 -200 200zM1475 201v1099q0 175 -175 175h-1100q-174 0 -175 -175v-1100q1 -175 175 -175h1101q174 0 174 176z" />
    <glyph glyph-name="semicolon" unicode=";" 
d="M0 200v1100q0 200 200 200h1100q200 0 200 -200v-1100q0 -200 -200 -200h-1100q-200 0 -200 200zM1475 201v1099q0 175 -175 175h-1100q-174 0 -175 -175v-1100q1 -175 175 -175h1101q174 0 174 176z" />
    <glyph glyph-name="semicolon" unicode="&#x37e;" 
d="M0 200v1100q0 200 200 200h1100q200 0 200 -200v-1100q0 -200 -200 -200h-1100q-200 0 -200 200zM1475 201v1099q0 175 -175 175h-1100q-174 0 -175 -175v-1100q1 -175 175 -175h1101q174 0 174 176z" />
    <glyph glyph-name="less" unicode="&#x3c;" 
d="M0 200v1100q0 200 200 200h1100q200 0 200 -200v-1100q0 -200 -200 -200h-1100q-200 0 -200 200zM1475 201v1099q0 175 -175 175h-1100q-174 0 -175 -175v-1100q1 -175 175 -175h1101q174 0 174 176z" />
    <glyph glyph-name="equal" unicode="=" 
d="M0 200v1100q0 200 200 200h1100q200 0 200 -200v-1100q0 -200 -200 -200h-1100q-200 0 -200 200zM1475 201v1099q0 175 -175 175h-1100q-174 0 -175 -175v-1100q1 -175 175 -175h1101q174 0 174 176z" />
    <glyph glyph-name="greater" unicode="&#x3e;" 
d="M0 200v1100q0 200 200 200h1100q200 0 200 -200v-1100q0 -200 -200 -200h-1100q-200 0 -200 200zM1475 201v1099q0 175 -175 175h-1100q-174 0 -175 -175v-1100q1 -175 175 -175h1101q174 0 174 176z" />
    <glyph glyph-name="question" unicode="?" 
d="M0 200v1100q0 200 200 200h1100q200 0 200 -200v-1100q0 -200 -200 -200h-1100q-200 0 -200 200zM1475 201v1099q0 175 -175 175h-1100q-174 0 -175 -175v-1100q1 -175 175 -175h1101q174 0 174 176z" />
    <glyph glyph-name="at" unicode="@" 
d="M0 200v1100q0 200 200 200h1100q200 0 200 -200v-1100q0 -200 -200 -200h-1100q-200 0 -200 200zM1475 201v1099q0 175 -175 175h-1100q-174 0 -175 -175v-1100q1 -175 175 -175h1101q174 0 174 176z" />
    <glyph glyph-name="A" unicode="A" horiz-adv-x="1050" 
d="M451 1290q-13 6 -30.5 9t-36 3.5t-37.5 7.5q-14 4 -14 19q0 4 1 10q10 38 57 46q24 6 67 6h17q51 -2 129.5 -6t185.5 -4q109 0 183 3t117 5q31 2 49 2h18q34 -4 34 -24q0 -3 -1 -6q-12 -43 -44 -58.5t-53 -31.5q-45 -31 -103 -83t-104 -112q-16 -31 -31 -60.5t-21 -53.5
q-8 -30 -13 -58l-2 -9q-11 -40 -51 -40q-34 0 -38 49q-1 10 -1 21q0 39 11 80t38.5 89.5t53.5 87.5q18 31 34 59q8 15 10 26q2 7 2 12q-1 12 -19.5 20.5t-76.5 8.5q-86 0 -151 -135q-45 -79 -82.5 -184t-66.5 -212q-20 -74 -30 -128t-11 -95v-11q0 -35 6 -69q6 -39 16 -89
q14 -122 26 -162.5t16 -40.5q7 0 28.5 22t43 56.5t45 70.5t50.5 36q25 0 25 -22q0 -4 -1 -9l-2 -8q-3 -11 -9 -25q-8 -20 -18 -40.5t-20 -37.5q-19 -36 -34.5 -52t-22.5 -43q-16 -58 -31 -103t-56 -45q-35 0 -62 49.5t-52 113.5t-46 135.5t-30 124.5q-15 43 -30 98
t-26.5 108.5t-16.5 103.5q-2 18 -2 34q0 29 6 51q16 59 44.5 107t69.5 105q39 50 74 91t40 62q12 43 12 68q0 11 -3 19q-8 24 -30 38z" />
    <glyph glyph-name="B" unicode="B" horiz-adv-x="1147" 
d="M114 392q20 74 37.5 161.5t33.5 164.5q11 52 22 92q5 20 11 38q22 70 62 70q36 0 36 -48v-4q-2 -52 -10 -116.5t-18 -139.5t-11 -137q-1 -8 -1 -15q0 -52 10 -84q11 -36 34 -36q63 0 108 53.5t66 129.5q10 39 10 68q0 11 -1 21q-6 35 -21 63t-36.5 54t-38.5 59t-22 78
q-1 9 -1 20q0 38 14 89q11 43 25.5 88t25.5 84q10 37 11 69v4q0 29 -11 50q-10 18 -26.5 30.5t-33.5 20t-35 16.5q-15 6 -15 19q0 4 1 8q9 33 84 33q27 0 65 -3q109 -10 337 -10q128 0 213 3.5t137 6.5q35 1 55 1h19q38 -2 38 -23q0 -4 -1 -8l-54 -203q-23 -83 -84 -137
t-123.5 -82t-109.5 -32q-8 -1 -15 -1q-49 0 -49 26q0 4 1 9q8 27 39 32t56.5 15.5t51 36.5t42.5 89q9 33 9 59q0 53 -34 82q-52 43 -139 43q-37 0 -81 -1t-81 -6.5t-59.5 -15t-25.5 -21.5q-3 -13 -3 -27q0 -36 21 -82q29 -65 63 -149t57 -182q9 -43 9 -88q0 -58 -16 -119
q-18 -66 -79.5 -138.5t-140 -140.5t-166.5 -130t-163 -108t-133 -76t-73 -30q-21 0 -21 18q0 5 2 12t6 20q11 29 30 82t44 124.5t46 150.5z" />
    <glyph glyph-name="C" unicode="C" horiz-adv-x="1150" 
d="M376 1380q14 9 42 9q20 0 68 -1t129 -2t212 -1q124 0 206 1t132.5 2t72.5 1q30 0 49 -11q1 -3 1 -8q0 -17 -10 -51q-10 -39 -31 -114.5t-53 -193t-77 -282.5q-108 -406 -169 -617.5t-111 -211.5q-28 0 -28 41q0 18 6 45q18 86 47 211t63 286t57 331q7 53 7 93q0 41 -7 68
q-13 55 -31.5 79.5t-40.5 33.5q-19 6 -19 22q0 3 1 7q6 23 42 30.5t69 20t62.5 39.5t38.5 62h-629q-1 -5 -1 -10q0 -17 16 -36q20 -26 47.5 -43t61.5 -29q29 -11 29 -28q0 -3 -1 -6q-5 -20 -29.5 -29t-54 -32t-73.5 -74t-92 -148q-63 -134 -120 -291.5t-101.5 -294.5
t-77.5 -238t-69 -101q-29 0 -29 39q0 5 1 12q5 51 20.5 122t38.5 160t47 181l163 606q30 114 52 186.5t37.5 112.5t35.5 52z" />
    <glyph glyph-name="D" unicode="D" horiz-adv-x="1008" 
d="M430 1079q-15 -19 -33 -65q-16 -39 -30 -92l-5 -18q-16 -64 -26 -141q-6 -35 -6 -69q0 -35 7 -69q13 -66 37.5 -119t56 -89t72.5 -53q-26 -59 -38 -103l-6 -22q-6 -30 -6 -61q0 -22 3 -45q11 -39 26 -74.5t28 -63t13 -43.5v-3q0 -3 -1 -7q-8 -30 -50 -30q-19 0 -52 28
t-71.5 78t-80.5 120.5t-71 161.5q-17 59 -25 129q-7 58 -7 121q0 12 1 25q1 76 13 153.5t32 151.5q24 91 72 178t95.5 156t86.5 114t51 54q24 10 69 10q20 0 47 -1q77 -4 181 -4q57 0 109.5 1t94.5 3q20 1 38 1q17 0 32 -1q30 -2 41 -7q6 -5 6 -19q0 -12 -4 -31
q-10 -40 -25 -95l-33 -124q-18 -68 -38.5 -140t-40 -139.5t-33.5 -117.5q-35 -133 -68 -272.5t-61 -253.5q-19 -85 -36 -147l-10 -39q-27 -94 -66 -94q-27 0 -27 50q0 14 3 32q9 82 29.5 193t49.5 240t58 238q26 96 44.5 180t23.5 153q1 18 1 35q0 48 -9 87q-13 53 -46 93
q-53 61 -118.5 86t-134.5 25q-26 0 -35.5 -6.5t-12.5 -19.5q-3 -10 -3 -22q0 -9 2 -18q3 -24 6 -45q16 -27 40.5 -53.5t117.5 -41.5q-75 -47 -106 -89t-69 -91q-19 -30 -29 -60.5t-18 -57t-22 -53t-49 -26.5q-27 0 -27 26q0 5 1 10q5 36 13 76t19.5 86t17.5 85q5 28 5 46
q0 6 -1 10v15z" />
    <glyph glyph-name="E" unicode="E" horiz-adv-x="1068" 
d="M341 1365q6 25 78.5 30t163.5 7q48 1 95 1q50 0 104 -1q104 -2 193.5 -4t149.5 -3l83 -1l-320 -1235l11 261v13q0 24 -2 54q-4 38 -16.5 77t-39.5 61q-13 11 -41 17t-64.5 9t-74.5 3h-66q-88 0 -154 -6.5t-107 -40.5q-38 -29 -59.5 -72.5t-36.5 -98.5q-6 -23 -11 -57
t-6 -68v-20q0 -24 2 -45q2 -31 11 -48q25 -54 72.5 -82t170.5 -28q161 0 238 4h14q75 0 75 -34q0 -5 -1 -10q-8 -29 -75.5 -34.5t-152.5 -6.5h-181q-96 1 -179 3.5t-136 3.5l-79 4l313 1217q-1 -56 -1 -103q0 -181 13 -218q15 -47 37 -76q18 -21 41.5 -30t52.5 -11h21
q22 0 47 2q37 2 80 2q103 0 171.5 5.5t111.5 32.5q41 27 59 71t35 109q13 47 23 107q3 16 3 30q0 39 -20 65q-47 53 -109 71t-174 18q-72 0 -135 -2q-45 -1 -80 -1h-34q-52 1 -88 12q-28 9 -28 32q0 6 2 14z" />
    <glyph glyph-name="F" unicode="F" horiz-adv-x="1250" 
d="M881 1269h-7q-11 0 -32 1q-17 1 -36 1q-38 0 -83 -4q-65 -7 -134 -24.5t-117 -46.5q-31 -18 -58 -55t-49.5 -75t-44.5 -75.5t-58 -37.5q-20 0 -20 27q0 14 5 35l7 28q9 32 21 72q18 57 37 117t33 99t20 61l968 11l5 -205q-56 117 -65 117q-8 0 -21 -4q-42 -13 -117 -66
t-176 -142t-186 -175q88 0 172 -2.5t143 -2.5q56 0 90 5t247 116q-196 -154 -226 -221q-23 -48 -38 -101q-6 -23 -11 -50q-14 -52 -23 -102.5t-15 -90t-13 -65.5q-12 -43 -44 -43q-39 0 -39 48l1 1v101q0 51 -11.5 95t-51.5 58q-30 10 -68 14.5t-88 5.5q-26 1 -54 1
q-29 0 -59 -1q-66 -1 -131 -1q-132 -159 -269.5 -372t-276.5 -564q-12 74 -12 136q0 66 14 116q26 94 78.5 209t127.5 242t164 259q73 106 151 197.5t149 164t130 126.5q56 49 71 62z" />
    <glyph glyph-name="G" unicode="G" horiz-adv-x="963" 
d="M348 1391q119 5 205 5q87 0 172 -1t170.5 -2t204.5 -1q-15 -55 -37.5 -68.5t-40 -21.5t-28.5 -15.5t-15 -21.5q-2 -9 -2 -17q0 -13 5 -25q8 -22 18 -58t11 -92v-2q0 -56 -24 -140q-20 -78 -81.5 -185t-144 -221t-178.5 -225t-191 -198t-178 -138q-76 -49 -132 -49
q-12 0 -64 12q145 91 250.5 186t196 206.5t160.5 234t103 246.5q19 71 31 142q10 64 10 119v10q-1 59 -14 102t-34 59q-49 0 -117.5 -1t-136.5 -7q-34 -18 -73 -72t-165 -244q61 227 75 300t44 183z" />
    <glyph glyph-name="H" unicode="H" horiz-adv-x="1210" 
d="M1116 1184l3 9q13 48 13 65q0 4 -1 6h-187q-17 -14 -40.5 -48.5t-35.5 -81.5q-3 -12 -3 -27q0 -21 6 -46q11 -44 34.5 -86.5t57.5 -72.5q26 -25 32 -26l60 136q42 106 61 172zM869 585q-30 -42 -63 -90q-80 -113 -194.5 -247t-279.5 -266q-85 0 -170 -6.5t-513 -51.5
q455 100 530.5 129t112.5 58q70 54 140 138.5t131.5 179t107 187.5t64.5 163q27 102 27 181q0 33 -4 62q-17 98 -63 163t-113.5 103t-217.5 104h696q31 7 69.5 23.5t74.5 34t68.5 33.5t56.5 16q40 0 40 -47q0 -10 -2 -23q-3 -14 -7 -29q-12 -45 -109 -198l-13 -30
q-105 -373 -326 -659l-105 -62z" />
    <glyph glyph-name="I" unicode="I" horiz-adv-x="864" 
d="M554 1145q-46 -1 -89 -28q-44 -29 -81 -62.5t-63 -60.5q-31 -33 -57 -33q-11 0 -24 11q0 16 11 59q12 44 29.5 99t34.5 112t28.5 92t17.5 58q29 0 84.5 2t143.5 4l176 4h53q54 0 95 -2q72 -2 81 -12q11 -6 11 -18q0 -5 -2 -10q-5 -19 -32 -49q-34 -39 -78 -79
q-45 -56 -85 -103.5t-75 -47.5q-9 0 -17 2q1 -2 1 -3q7 -28 7 -62q0 -17 -2 -36q-52 -92 -108.5 -219.5t-116.5 -278t-121.5 -316t-239.5 -653.5q101 483 148 660l31 117q32 119 64 236q51 176 98 341q47 164 77 276z" />
    <glyph glyph-name="J" unicode="J" horiz-adv-x="1132" 
d="M518 1391q74 5 158 7t173 2q91 0 183 -2t175 -6q24 -16 24 -31q0 -2 -1 -5q-3 -13 -14 -19q-12 -11 -32 -22.5t-37.5 -26t-23.5 -36.5q-3 -13 -3 -34q0 -15 2 -34q4 -45 7 -111v-36q0 -54 -5 -119q-7 -90 -38 -205l-50 -185q-25 -96 -49.5 -189.5t-45.5 -180t-38 -182.5
q-99 20 -169 20q-16 0 -31 -1q-91 -4 -434 -34q328 81 394 150.5t116.5 160t83 187.5t52.5 170q34 129 43 222q3 34 3 65q0 52 -9 94q-15 66 -48.5 110t-80.5 72q-33 5 -84 5h-16q-63 -1 -134 -16q-48 -19 -100 -79t-97 -137t-82.5 -160t-98.5 -261q-10 105 -10 178
q0 53 5 89q13 86 33 171q7 29 14 56q15 55 32 105q23 75 51 132z" />
    <glyph glyph-name="K" unicode="K" horiz-adv-x="1077" 
d="M585 1281l1 -1q6 -12 23 -26.5t39 -28t44 -56.5q-81 0 -114 -12.5t-70.5 -54t-76.5 -125.5t-78 -229q-22 -82 -30 -176q-5 -61 -5 -116q0 -31 2 -60q4 -82 14.5 -131t13.5 -49q24 0 55 40t59.5 95.5t53 111t53.5 55.5q23 0 23 -31v-5q-2 -36 -6.5 -77t-15.5 -93t-23 -94
q-21 -81 -53.5 -153t-86.5 -72q-46 0 -85.5 42t-69 108t-50.5 149t-29 174q-6 61 -6 122q0 29 1 57q4 89 24 166q16 59 42.5 133t67 154t92.5 155t127 140q105 -6 197 -6q62 0 123 2q156 5 368 15q8 -22 8 -37q0 -5 -1 -9q-5 -18 -34 -39q-25 0 -47 -16t-28 -39
q-9 -21 -14 -41q-8 -27 -8 -55q-4 -47 -4 -97q0 -7 1 -13v-16q0 -50 -3 -107q-3 -67 -25 -146q-18 -70 -46.5 -143t-71.5 -142.5t-96.5 -128.5t-232.5 -158q114 127 147.5 168t60 90t53 114.5t50.5 158.5q15 54 15 120v9q-1 71 -13 139.5t-33 126t-47 87.5q-18 20 -61 32.5
t-87 18.5q-37 5 -68 5h-12q-17 0 -18 -2q-6 -3 -8 -3h-1z" />
    <glyph glyph-name="L" unicode="L" horiz-adv-x="1125" 
d="M319 1387q259 26 457 26h54q220 -4 445 -14q-9 -34 -28.5 -71.5t-50.5 -84t-70.5 -96.5t-83 -92.5t-93.5 -73t-170 -30.5q107 60 137.5 98t44.5 77l3 12q6 23 6 43q0 12 -2 23q-7 37 -34 61q-32 4 -67 6q-24 2 -47 2h-24q-36 -2 -78 -6.5t-44 -4.5q5 -3 31.5 -48
t43.5 -101t19 -120v-14q0 -57 -15 -115l-148 -551q-8 -31 -8 -58q0 -26 7 -48q15 -46 53 -81.5t91.5 -60t359.5 -74.5q-346 0 -428.5 2.5t-144.5 3.5t-100 3l-59 3l187 699q26 97 26 179q0 30 -3 59q-14 103 -53 182t-92.5 136.5t-121.5 128.5z" />
    <glyph glyph-name="M" unicode="M" horiz-adv-x="1170" 
d="M362 1396q86 -7 132 -9t88 -2q43 0 87.5 2t249.5 19q-193 -67 -235.5 -97t-49.5 -54q-12 -47 -13 -104q-1 -7 -1 -14q0 -50 10 -98q11 -54 33.5 -95.5t39.5 -51.5q25 18 64 57.5t71.5 82.5t55 86t33.5 82q12 44 12 79q0 7 -1 14q-3 40 -34 101q118 0 200 1t206 10
q-21 -79 -40.5 -160.5t-44 -176.5t-48.5 -194t-50 -193q-9 -34 -31 -103.5t-56.5 -152.5t-81 -171t-105 -161.5t-130.5 -123.5t-262 -50q187 69 248 152.5t104 191.5q41 101 68 205l5 17q29 112 51 196q18 64 29.5 129t16.5 117q4 37 4 61q0 9 -1 16l-2 14
q-68 -63 -113 -113.5t-98 -98t-102 -47.5q-45 0 -77.5 43t-58.5 89t-50.5 81t-39.5 35q-14 0 -48.5 -51.5t-66.5 -129.5q-22 -52 -36 -107q-8 -27 -13 -55q-7 -34 -7 -67q0 -45 13 -87q-93 0 -104 55q-7 31 -7 69q0 29 4 61q8 76 29 170q17 72 36 141l12 48q27 94 54 179
t51 163z" />
    <glyph glyph-name="N" unicode="N" horiz-adv-x="947" 
d="M592 753q-21 -76 -54 -154q-67 -144 -155 -272.5t-186.5 -233t-363.5 -299.5q244 262 309 354t107.5 180t73 183t61.5 211q24 87 24 175q0 16 -1 32q-5 103 -22.5 191.5t-33.5 155.5q-9 37 -9 70q0 23 5 44q88 8 148.5 13t119.5 5q60 0 122.5 -5t250.5 -21
q-201 -48 -249 -78t-65 -95q-6 -22 -6 -58q0 -13 1 -28q3 -57 15 -112t29.5 -91t31.5 -36q13 0 42 27.5t61 81.5t62 124.5t67 206.5q48 -79 49 -119v-10q0 -36 -7 -76q-6 -34 -16 -69l-5 -20q-13 -45 -29 -83q-20 -46 -56.5 -105t-76 -112t-80 -94t-69.5 -41q-39 0 -56 35
t-28 79q-6 21 -11 44z" />
    <glyph glyph-name="O" unicode="O" horiz-adv-x="1219" 
d="M761 951q34 0 51 -17.5t22 -39.5q4 -18 4 -37v-11q-2 -25 -8 -46q-12 -45 -52.5 -97.5t-97.5 -52.5q-27 0 -42.5 15t-25 33t-11.5 41q-1 6 -1 12q0 15 4 28q6 22 18.5 48.5t28.5 53t44 48.5t66 22zM729 1293q4 -3 9 -8q15 -15 45 -54q-84 -58 -144 -134t-109 -163
t-85.5 -174t-54.5 -154q-21 -78 -21 -159q0 -44 7 -89q17 -128 122 -334q-117 42 -156.5 88t-63 107t-36 132.5t-14.5 142.5q-1 20 -1 39q0 50 5 98q6 66 19 115q37 138 71 227t60.5 145.5t44.5 84.5t21 40q5 17 5 31q0 11 -3 19q-8 17 -22.5 28t-35.5 18.5t-131 49.5
q258 7 376.5 9t228.5 2q113 0 226.5 -2t358.5 -9q-129 -42 -156 -55t-53.5 -29.5t-45 -35.5t-23.5 -37q-1 -4 -1 -8q0 -12 9 -25q11 -19 19 -69q3 -26 3 -63q0 -34 -3 -77q-7 -91 -48 -244q-45 -167 -97 -296t-123 -229t-164.5 -176t-427.5 -234q235 164 288.5 212.5
t103 108t89 126.5t57.5 133q13 50 30.5 124t31 159t21.5 176q4 43 4 85q0 45 -4 88q-9 82 -37 153t-75 113q-27 8 -58 8q-29 0 -62 -4z" />
    <glyph glyph-name="P" unicode="P" horiz-adv-x="1177" 
d="M654 950q12 -25 57.5 -35t70.5 -10q26 49 61.5 104t66.5 103.5t55.5 95t33.5 79.5q-104 8 -224 8q-119 0 -215 -6q23 -26 41.5 -80t24 -104.5t8 -90t20.5 -64.5zM1339 1400q-93 -120 -177.5 -236t-161.5 -237.5t-137 -239.5t-85 -212q-32 -122 -47 -267t-48 -361
q-70 126 -89 195.5t-23 144.5q-2 29 -2 58q0 46 4 90q7 73 25 140q31 116 69.5 206t58.5 134q-43 -9 -121.5 -34t-186.5 -111q21 124 31 203q7 59 7 119v43q-4 82 -29 163t-103 191q272 16 464 16q41 0 82 -1q223 -4 469 -4z" />
    <glyph glyph-name="Q" unicode="Q" horiz-adv-x="1060" 
d="M613 1232q21 -54 33 -199q8 -103 8 -156q0 -22 -1 -35q-2 -4 -3 -5q1 0 38 57q45 72 95 141t103 138l45 59l-29 -1q-63 6 -107 6q-21 0 -40 -1zM834 178q4 76 4 122q0 43 -3 59q-8 32 -32 55q-46 0 -104 -5.5t-89 -5.5q-7 -39 -10 -99q-3 -35 -3 -68q0 -24 2 -46
q2 -54 12 -97t37 -100q-143 0 -232 4q-30 1 -60 1q-59 0 -154 -8q31 52 58.5 96.5t58 100t62 117t45.5 99.5q-37 0 -95 1t-101 8q-17 -14 -54 -52t-133 -200q26 184 41 247l3 11q16 58 68 145q97 -11 177.5 -12t134.5 -1q32 119 34 243v16q0 114 -20 212q-22 105 -57 190.5
t-84 179.5q264 8 460 8q199 0 412 -9q-82 -91 -162 -200.5t-161 -231t-148.5 -237.5t-90.5 -171q53 0 132 1t176 12q2 -23 2 -44q0 -53 -11 -95q-3 -11 -7 -20q-23 -67 -108 -226z" />
    <glyph glyph-name="R" unicode="R" horiz-adv-x="1137" 
d="M227 1074q103 124 168 171t139.5 78.5t152 50t150.5 18.5q85 0 160.5 -17.5t128.5 -53.5t77 -90q12 -28 12 -64t-12 -81q-132 -28 -236.5 -55.5t-187.5 -69t-145 -108.5t-91 -172q-21 -79 -43 -178.5t-39 -202t-27 -198.5q-4 -42 -4 -97q0 -72 7 -166q-82 110 -97 176
t-23.5 145.5t-9.5 169.5v32q0 72 4 141q4 84 12 153t20 112q16 61 47 102t74 71t90 50t100 41q74 32 149 67t86 39q-23 21 -94 53t-154 32q-54 0 -101 -10.5t-86 -25.5t-74 -34.5t-153 -78.5z" />
    <glyph glyph-name="S" unicode="S" horiz-adv-x="1042" 
d="M643 893q6 -13 44 -95q39 -87 62.5 -182.5t27.5 -194.5q1 -14 1 -27q0 -85 -22 -167q-15 -57 -61.5 -118t-106.5 -115.5t-124.5 -97t-249.5 -120.5q162 127 207 157t84.5 66.5t70 88.5t53.5 139q18 70 18 137q0 57 -12 113q-29 122 -92.5 227.5t-141.5 192t-173 181.5
q193 0 323 -19t207 -46v1q0 15 -20 68q-22 55 -56.5 106t-77.5 94.5t-124 98.5q224 27 350 27h27q109 0 219 -9q36 -35 49 -77q11 -40 11 -81v-7q-1 -45 -12 -88l-4 -15q-9 -32 -37 -100q-44 57 -55 84t-22 53.5t-27 49.5t-38 37q-30 7 -73 7q-42 0 -58 -2q25 -27 52.5 -96
t33.5 -138q1 -13 1 -26q0 -54 -14 -105l-2 -6q-18 -68 -86 -155q-47 87 -105 126q-39 26 -47 33z" />
    <glyph glyph-name="T" unicode="T" horiz-adv-x="1092" 
d="M575 246.5q61 19.5 122.5 52.5t120.5 77t270 216q-171 -214 -242 -289.5t-149 -139.5t-161 -106.5t-154 -42.5q-85 0 -134 48t-74 116t-29 150q-1 14 -1 31q0 83 18 238q75 -206 108.5 -272.5t67.5 -78.5q16 29 33 93l7 25q17 79 35 146q34 128 42 253q3 48 3 93
q0 74 -8 143q-13 111 -40 204.5t-84 187.5l667 11v6q0 103 -94 180q-98 78 -407 183q249 0 356.5 -26t190 -75.5t135.5 -121t66 -169.5q-128 -100 -239 -149.5t-200 -49.5q-87 0 -167 36q87 -138 95 -216q1 -17 1 -35q0 -65 -21 -143q-37 -140 -106.5 -293t-145.5 -302
q57 0 118 19.5z" />
    <glyph glyph-name="U" unicode="U" horiz-adv-x="1132" 
d="M23 108q3 56 20 132q10 50 24 105q8 27 16 56q26 85 59 171t147 265q-33 -177 -40 -259q-5 -55 -5 -108q0 -26 2 -52q3 -77 23 -137t59 -79q62 -16 124 -16h16q51 0 87 5q61 27 118.5 71.5t107.5 110.5t91 159t76 222q20 73 39 170q18 89 18 174v13q-2 91 -31 160
t-316 148q329 -27 418 -31q15 -1 31 -1q70 0 178 18q-33 -94 -58.5 -180.5t-51 -180.5t-51.5 -189l-49 -185q-31 -115 -72.5 -205t-79 -155.5t-66 -110.5t-34.5 -69q-2 -8 -2 -15q0 -12 6 -20q9 -15 23 -26.5t21 -23.5q4 -5 4 -12q0 -3 -1 -6q-5 -19 -42 -36
q-85 -4 -178.5 -6.5t-184.5 -2.5q-89 0 -171.5 2.5t-154.5 7.5zM558 669q69 0 91 -35q15 -24 15 -49q0 -11 -3 -22q-11 -42 -55.5 -69.5t-101.5 -27.5q-51 0 -85 28q-27 20 -27 50q0 9 3 19q10 37 55.5 71.5t107.5 34.5z" />
    <glyph glyph-name="V" unicode="V" horiz-adv-x="1039" 
d="M367 4q87 58 136 99q59 51 114 114.5t98 134t63 146.5q25 93 32 203q3 39 3 78q0 70 -8 139q-13 108 -39.5 209t-54.5 155q-34 -30 -95.5 -115t-114.5 -179t-93.5 -185t-57.5 -154q-21 -79 -30 -167q-7 -66 -7 -131q0 -21 1 -42q3 -86 16 -166q9 -56 37 -139zM329 -25
q-4 -1 -7 -1q2 1 5 3q-77 58 -110 110q-45 72 -70 159.5t-28 182.5q-1 12 -1 25q0 80 19 152q36 132 82 226.5t90 168.5t79.5 131.5t49.5 110.5q4 17 4 31q0 22 -10 39q-17 27 -112 72q186 15 274 19t167 4q81 0 155 -4t271 -25q-156 -32 -187.5 -52t-39.5 -51
q-5 -17 -5 -36q0 -28 11 -59q17 -52 32.5 -124.5t23.5 -161.5q2 -19 2 -39q0 -74 -24 -163q-42 -156 -113.5 -283t-154.5 -218.5t-171 -146.5q-72 -45 -186 -64q9 -24 19 -51q-36 23 -65 45z" />
    <glyph glyph-name="W" unicode="W" horiz-adv-x="1287" 
d="M538 318q23 32 64.5 102t74.5 139t58 134t39 116q15 55 16 128v6q0 70 -11 132q-12 65 -30.5 105.5t-32.5 40.5q-19 0 -63.5 -42.5t-93 -108.5t-89.5 -138.5t-54 -122.5q-13 -48 -13 -100q0 -19 2 -38q6 -74 26.5 -145t55 -130.5t51.5 -77.5zM1428 1589q20 -59 20 -112
q0 -26 -5 -51q-3 -14 -7 -30q-16 -60 -49 -123q-40 -77 -105 -148.5t-238 -146.5q78 78 94.5 98t31.5 45.5t28 53.5q6 14 9 27q4 13 4 20q-17 33 -45.5 42.5t-56.5 9.5q-39 0 -80 -29.5t-55 -79.5q-17 -64 -18 -108q-1 -3 -1 -6q0 -41 21 -68l62 -106
q-46 -108 -108.5 -228.5t-136 -241.5t-152 -229t-171.5 -201q-51 12 -128 12q-75 0 -600 -62q521 107 588 161.5t117 112.5q-33 27 -87 91t-96 141t-64 161q-11 42 -11 83q0 39 10 77q10 36 48 94t81.5 124t82.5 130.5t52 115.5q4 15 4 28q0 11 -3 22q-7 21 -22.5 37t-39 27
t-242.5 70q328 -20 425 -25t188 -6h62q61 0 123 1q92 3 197 9q74 13 134.5 63.5t138.5 144.5z" />
    <glyph glyph-name="X" unicode="X" horiz-adv-x="1270" 
d="M952 1586q293 -182 327 -382q11 -65 11 -138q0 -148 -47 -325q-32 -116 -84.5 -233t-119.5 -220.5t-146.5 -184t-174.5 -124.5q-72 6 -171 12q-76 6 -153 6q-25 0 -52 -1q-102 -3 -196 -22.5t-207 -108.5q43 160 140 213.5t188 61.5q-37 79 -49 211q-3 29 -3 60
q0 107 33 229q31 114 99.5 234t153 222.5t174.5 179t260 149.5q-108 -108 -163 -167.5t-111.5 -134.5t-107.5 -168t-81 -203q-40 -151 -43 -301q-1 -13 -1 -25q0 -137 35 -271h208q30 21 82.5 77t108.5 143.5t110.5 207.5t95.5 270q36 136 48 232q7 57 7 105q0 32 -3 60
q-8 70 -34 125.5t-134 210.5z" />
    <glyph glyph-name="Y" unicode="Y" horiz-adv-x="1093" 
d="M339 1358q7 28 81 32t165 6q62 1 130 1h71q107 -1 198.5 -3t152.5 -3l82 -3l-301 -1220v231q0 30 -6 71t-21 81t-42 58q-14 13 -41 21t-62.5 11.5t-75 5t-68.5 1.5q-90 0 -157 -10.5t-100 -36.5q-21 -17 -55.5 -96t-79.5 -192.5t-98 -242t-209 -419.5l403 1557
q1 -252 16.5 -301.5t36.5 -73.5q21 -26 45 -36t53 -13q20 -1 39 -1q14 0 29 1q37 1 77 1q109 0 178.5 5.5t111.5 31.5q46 37 70.5 83t39.5 103q15 55 18 113v12q0 50 -23 81q-46 63 -108 83t-175 20q-72 0 -139.5 -3.5t-118.5 -3.5t-88 8q-31 6 -31 28q0 6 2 12zM520 304
q63 0 79 -54q9 -30 9 -57q0 -22 -6 -42q-6 -24 -21 -48.5t-34 -46.5t-46 -39t-54 -17q-23 0 -42 13.5t-30 33.5t-16 41q-2 9 -2 18q0 12 3 24q6 22 17 49.5t30.5 54.5t47 48.5t65.5 21.5z" />
    <glyph glyph-name="Z" unicode="Z" horiz-adv-x="758" 
d="M560 1276q-3 1 -7 4q-12 7 -40 14.5t-72 8.5q-10 1 -21 1q-34 0 -149 -16q96 63 121.5 74t56.5 18t67 9.5t86 2.5q55 0 102 -10.5t81.5 -26.5t53.5 -40q13 -17 13 -36q0 -7 -2 -14q-10 -39 -56 -39h-9q-27 4 -69 4q-39 0 -84.5 -14t-69.5 -40h34q36 0 70.5 -2.5
t71.5 -6.5t121 -21q-121 -96 -197 -238.5t-142 -321t-121.5 -373.5t-178.5 -654q42 480 63.5 658t35.5 336.5t17 300.5v43q0 120 -14 238q37 48 82.5 74t85 41.5t58.5 22.5z" />
    <glyph glyph-name="bracketleft" unicode="[" 
d="M0 200v1100q0 200 200 200h1100q200 0 200 -200v-1100q0 -200 -200 -200h-1100q-200 0 -200 200zM1475 201v1099q0 175 -175 175h-1100q-174 0 -175 -175v-1100q1 -175 175 -175h1101q174 0 174 176z" />
    <glyph glyph-name="backslash" unicode="\" 
d="M0 200v1100q0 200 200 200h1100q200 0 200 -200v-1100q0 -200 -200 -200h-1100q-200 0 -200 200zM1475 201v1099q0 175 -175 175h-1100q-174 0 -175 -175v-1100q1 -175 175 -175h1101q174 0 174 176z" />
    <glyph glyph-name="bracketright" unicode="]" 
d="M0 200v1100q0 200 200 200h1100q200 0 200 -200v-1100q0 -200 -200 -200h-1100q-200 0 -200 200zM1475 201v1099q0 175 -175 175h-1100q-174 0 -175 -175v-1100q1 -175 175 -175h1101q174 0 174 176z" />
    <glyph glyph-name="asciicircum" unicode="^" 
d="M0 200v1100q0 200 200 200h1100q200 0 200 -200v-1100q0 -200 -200 -200h-1100q-200 0 -200 200zM1475 201v1099q0 175 -175 175h-1100q-174 0 -175 -175v-1100q1 -175 175 -175h1101q174 0 174 176z" />
    <glyph glyph-name="underscore" unicode="_" 
d="M0 200v1100q0 200 200 200h1100q200 0 200 -200v-1100q0 -200 -200 -200h-1100q-200 0 -200 200zM1475 201v1099q0 175 -175 175h-1100q-174 0 -175 -175v-1100q1 -175 175 -175h1101q174 0 174 176z" />
    <glyph glyph-name="grave" unicode="`" 
d="M0 200v1100q0 200 200 200h1100q200 0 200 -200v-1100q0 -200 -200 -200h-1100q-200 0 -200 200zM1475 201v1099q0 175 -175 175h-1100q-174 0 -175 -175v-1100q1 -175 175 -175h1101q174 0 174 176z" />
    <glyph glyph-name="a" unicode="a" horiz-adv-x="890" 
d="M394 1168q-10 5 -23.5 7t-27.5 3t-31 7q-14 4 -14 17q0 4 1 9q9 32 50 41q20 5 56 5h14q41 -2 103 -5.5t148 -3.5q87 0 146.5 3t93.5 4q25 2 40 2h15q30 -4 30 -22q0 -3 -1 -7q-10 -37 -36 -49t-44 -25q-34 -25 -80 -66t-83 -89q-13 -24 -24.5 -47.5t-16.5 -42.5
q-7 -23 -11 -46l-2 -7q-9 -36 -45 -36q-32 0 -35 41q-1 9 -1 18q0 32 9 65q9 34 31 73t43 70q14 24 27 47q5 11 7 19q1 4 1 7v3q0 8 -12 14q-14 5 -60 5q-64 0 -114 -104q-37 -63 -67 -147t-53 -170q-16 -58 -24 -101t-8 -76q-1 -4 -1 -7q0 -29 4 -57q4 -31 15 -69
q11 -99 20 -130l8 -32q2 0 19 17t33.5 44t36.5 57.5t45 30.5t25 -22q0 -3 -1 -7l-2 -6q-3 -10 -7 -21q-7 -17 -15 -33.5t-17 -29.5q-14 -29 -26.5 -42t-18.5 -33q-12 -46 -25 -84.5t-51 -38.5q-30 0 -52.5 41t-42 92t-36 108.5t-24.5 100.5q-12 34 -24 78t-21 87t-13 84
q-2 14 -2 27q0 23 5 41q13 48 35.5 86.5t56.5 84.5q31 40 58.5 72.5t31.5 48.5q10 35 10 54q0 8 -2 14q-6 17 -24 28z" />
    <glyph glyph-name="b" unicode="b" horiz-adv-x="967" 
d="M125 454q15 58 29 128t26 132q10 42 18 74q5 17 9 31q18 60 57 60q32 0 32 -40v-3q-2 -44 -9 -96t-14.5 -111.5t-8.5 -109.5v-11q0 -42 7 -66q8 -28 23 -28q47 0 82.5 41.5t51.5 101.5q9 31 9 54q0 9 -1 17q-5 27 -17 49t-30 42.5t-31.5 47t-17.5 63.5q-1 8 -1 17
q0 31 11 71q10 36 22 72t20 66q8 29 9 54v2q0 23 -9 40q-8 14 -20.5 23.5t-26 15.5t-29.5 14q-12 5 -12 17q0 4 1 8q8 30 73 30q22 0 53 -3q87 -7 269 -7q102 0 170 2.5t110 4.5q26 1 44 1h15q34 -3 34 -22q0 -3 -1 -6l-44 -163q-18 -68 -67.5 -112t-101 -67t-89.5 -25
q-6 -1 -13 -1q-42 0 -42 23q0 4 1 9q7 26 33 29.5t46 11.5t39 28t33 69q7 25 7 46q0 41 -27 64q-40 33 -108 33q-30 0 -65 -0.5t-64 -5t-45 -11.5t-17 -14q-3 -10 -3 -22q0 -27 17 -63q23 -52 50 -119.5t46 -145.5q8 -35 8 -71q0 -46 -14 -96q-14 -54 -64 -112.5t-113 -113
t-133.5 -104.5t-131 -87t-108 -61.5t-60.5 -24.5q-21 0 -21 17q0 5 2 11q1 6 5 17q8 23 23.5 65t36 99t37.5 121z" />
    <glyph glyph-name="c" unicode="c" horiz-adv-x="970" 
d="M335 1246q11 9 37 9q17 0 55 -0.5t103 -1.5t170 -1q99 0 164.5 1t106 1.5t58.5 0.5q25 0 42 -10q1 -4 1 -10q0 -15 -7 -40q-8 -31 -25 -91.5t-43 -154.5t-61 -226q-87 -325 -136 -496t-94 -171q-26 0 -26 36q0 15 5 35q14 71 37 170.5t50.5 228.5t45.5 264q5 43 5 75
t-5 54q-10 43 -24 61.5t-33 26.5q-16 5 -16 19q0 4 1 8q6 21 36.5 27.5t55.5 16t47.5 30t28.5 43.5h-493v-4q0 -11 13 -27q16 -19 37.5 -32.5t50.5 -23.5q24 -9 24 -25q0 -2 -1 -5q-5 -20 -26 -27t-43.5 -24.5t-57.5 -58t-73 -117.5q-50 -107 -95.5 -233t-82 -236
t-63.5 -192.5t-59 -82.5q-27 0 -27 33v10q4 42 16 99t31 128.5t38 145.5l130 484q24 91 42 149.5t30 91t30 42.5z" />
    <glyph glyph-name="d" unicode="d" horiz-adv-x="856" 
d="M388 1003q-2 -1 -2 -2q-12 -14 -26 -50q-13 -32 -24 -74l-4 -14q-12 -51 -20 -112q-5 -28 -5 -56q0 -27 5 -53q10 -53 29.5 -95t44.5 -71t59 -43q-21 -49 -30 -84l-5 -18q-5 -24 -5 -49q0 -17 2 -34q9 -32 21 -60t22 -49.5t12 -35.5v-3q0 -3 -1 -6q-7 -28 -46 -28
q-17 0 -44.5 23t-59 63t-65 97t-56.5 129q-14 48 -20 104q-5 48 -5 100v17q1 61 10.5 123.5t25.5 121.5q20 73 58.5 143t76.5 125.5t69 91t42 46.5q23 7 60 7h37q62 -3 145 -3q45 0 87 0.5t76 2.5h56q25 -2 34 -6q8 -6 8 -21q0 -9 -3 -22l-21 -77l-26 -99q-15 -54 -31 -112
t-32 -111.5t-27 -94.5q-28 -106 -54 -217.5t-48 -203.5q-16 -67 -30 -117l-8 -32q-21 -78 -58 -78q-25 0 -25 43q0 11 2 24q7 67 23.5 156.5t39.5 192.5t46 190q21 77 36 144t18 122q1 13 1 26q0 39 -7 71q-10 42 -36 73q-42 48 -94 67.5t-106 19.5q-18 0 -23.5 -4t-7.5 -12
q-3 -9 -3 -21q0 -5 1 -11q2 -19 5 -35q12 -21 31.5 -41.5t100.5 -33.5q-67 -43 -91 -76t-55 -72q-14 -23 -22.5 -47t-14.5 -45.5t-18.5 -44.5t-44.5 -23q-26 0 -26 22q0 4 1 9q5 30 11.5 62t15.5 69t14 68q3 24 3 38v5z" />
    <glyph glyph-name="e" unicode="e" horiz-adv-x="905" 
d="M305 1232q6 23 66 27.5t135 6.5h157q85 -2 156.5 -3.5t119.5 -2.5l70 -2l-264 -1023l7 241v12q0 18 -2 41q-3 30 -13 60.5t-30 47.5q-10 8 -32.5 12.5t-50.5 7t-58 2.5h-53q-70 0 -122 -5t-83 -30q-30 -23 -46.5 -57.5t-28.5 -77.5q-5 -18 -8.5 -45t-4.5 -54
q-1 -12 -1 -23q0 -15 1 -29q2 -24 9 -38q20 -42 56.5 -64t133.5 -22q129 0 191 3h11q65 0 65 -29q0 -4 -1 -9q-7 -27 -64 -32t-125 -5h-144q-77 0 -143.5 2t-108.5 4l-69 3l263 1020q-1 -63 -1 -113q0 -157 10 -185q12 -37 28 -60q15 -16 33 -23t40 -8h17q17 0 36 1
q30 2 64 2q82 0 136.5 4.5t86.5 24.5q32 21 45.5 55.5t27.5 85.5q10 37 18 85q2 13 2 24q0 30 -15 50q-36 42 -85 56t-137 14q-57 0 -108 -2h-91q-43 0 -73 10q-25 7 -25 28q0 6 2 12z" />
    <glyph glyph-name="f" unicode="f" horiz-adv-x="1050" 
d="M734 1152h-24q-14 1 -29 1q-30 0 -65 -3q-52 -6 -106 -19.5t-92 -36.5q-25 -14 -45.5 -43t-38.5 -59t-36 -62t-51 -32q-21 0 -21 27q0 11 4 27l6 23q7 25 17 57q14 46 29.5 94t26 79t16.5 52l782 9l10 -192q-58 114 -62 114q-6 0 -15 -3q-32 -10 -91.5 -52t-140.5 -113
t-143 -134q62 0 129.5 -2t114.5 -2q44 0 70 4t233 112q-186 -147 -210 -200q-20 -40 -31 -81q-5 -18 -8 -39q-11 -41 -18.5 -81.5t-12 -72.5t-10.5 -53q-10 -39 -41 -39q-36 0 -36 42q0 41 1 82v8q0 36 -8 67q-10 34 -40 44q-24 9 -54 12.5t-70 3.5q-21 1 -43 1t-47 -1h-101
q-104 -125 -214 -295.5t-228 -470.5q-10 72 -10 128q0 55 10 94q21 76 63 168t102 194t131 208q59 85 121.5 158t119.5 131t105 101q38 35 51 45z" />
    <glyph glyph-name="g" unicode="g" horiz-adv-x="821" 
d="M312 1256q100 5 169 5q70 0 137.5 -1t136.5 -2t169 -1q-13 -49 -32.5 -60.5t-34 -18t-22 -11.5t-9.5 -15q-2 -7 -2 -13q0 -10 4 -19q7 -17 14.5 -46.5t8.5 -74.5v-5q0 -43 -18 -109q-17 -63 -66.5 -149t-115.5 -177t-143.5 -180.5t-153.5 -159.5t-142 -112
q-63 -39 -110 -39q-9 0 -64 8q126 81 210.5 156.5t156.5 164.5t128 186.5t83 196.5q15 57 24 113q7 50 7 93v10q-1 47 -11 80.5t-25 44.5q-37 0 -92.5 -0.5t-106.5 -4.5q-24 -13 -54.5 -56t-148.5 -219q56 207 67 265.5t36 149.5z" />
    <glyph glyph-name="h" unicode="h" horiz-adv-x="1018" 
d="M925 1087l2 8q10 39 10 49v3h-143q-11 -9 -29 -36t-27 -64q-3 -10 -3 -22q0 -16 5 -35q7 -35 26 -68.5t46 -56.5q18 -18 18 -19l50 108q30 81 45 133zM707 562l-20 -28q-64 -90 -156.5 -197.5t-226.5 -215.5q-70 0 -138 -5t-476 -48q431 95 490 118t88 45
q55 43 111.5 110.5t105 142.5t84 149t50.5 130q23 83 23 147q0 25 -3 47q-13 77 -49.5 128.5t-90 81.5t-194.5 90h580q24 5 54 18.5t59.5 27.5t56 27t47.5 13q36 0 36 -40q0 -9 -2 -20t-5 -23q-10 -37 -88 -159l-10 -24q-85 -299 -262 -529l-97 -57z" />
    <glyph glyph-name="i" unicode="i" horiz-adv-x="741" 
d="M475 1052q-33 -2 -64 -22q-34 -22 -63 -48.5t-49 -48.5q-29 -28 -51 -28q-7 0 -26 7q2 19 12 53q9 35 23 79t27.5 90t22.5 73.5t15 49.5q28 0 73 2t115.5 3.5t139.5 3.5h42q44 0 77 -2q60 -1 68 -12q9 -5 9 -15q0 -4 -1 -9q-4 -16 -25 -39q-29 -32 -64 -66
q-36 -44 -69 -83t-65 -39h-5q5 -20 5 -44q0 -15 -2 -32q-41 -74 -86.5 -175.5t-93.5 -222t-97 -253t-216 -588.5q96 453 133 594l25 94q26 95 52 189q39 140 78 272q37 132 60 217z" />
    <glyph glyph-name="j" unicode="j" horiz-adv-x="955" 
d="M451 1256q60 5 128 6.5t139 1.5q73 0 146.5 -1.5t141.5 -5.5q21 -12 21 -26q0 -3 -1 -6q-2 -10 -11 -16q-11 -11 -27 -20t-29.5 -20t-17.5 -28q-3 -9 -3 -25q0 -12 2 -28q4 -36 6 -88q1 -14 1 -28q0 -43 -5 -97q-6 -73 -30 -164l-40 -148q-21 -78 -40.5 -152.5
t-36 -143.5t-32.5 -152q-83 18 -139 18q-13 0 -25 -1q-72 -3 -391 -34q304 79 356.5 133.5t92 126.5t66 150t41.5 135q28 103 35 177q3 27 3 52q0 41 -8 75q-12 52 -38.5 86.5t-61.5 56.5q-27 4 -67 4h-13q-48 -1 -103 -13q-37 -15 -78.5 -62t-77.5 -108.5t-65.5 -127
t-86.5 -231.5q-10 101 -10 166q0 43 5 71q10 69 26 136q5 24 11 45q12 44 26 85q19 60 39 107z" />
    <glyph glyph-name="k" unicode="k" horiz-adv-x="911" 
d="M514 1163q4 -8 15 -17q13 -12 31.5 -23t36.5 -52q-70 0 -95 -9.5t-55 -42t-60 -99t-61 -182.5q-18 -65 -25 -140q-4 -48 -4 -92q0 -25 1 -48q4 -66 12 -103q7 -36 7 -38q16 0 40 30.5t46.5 74.5t43 90t47.5 46q22 0 22 -26v-4q-2 -31 -6 -64t-12.5 -74.5t-17.5 -75.5
q-17 -65 -43.5 -124.5t-74.5 -59.5q-39 0 -71.5 34.5t-56 87.5t-40 120t-23.5 140q-6 49 -6 98q0 23 2 46q3 71 19 133q13 47 34 106.5t53.5 123.5t74.5 124.5t105 114.5q86 -4 160 -4q50 0 98 1q124 4 299 12q6 -20 6 -33q0 -4 -1 -8q-5 -16 -29 -35q-21 0 -37.5 -11.5
t-21.5 -28.5q-6 -17 -10 -33q-6 -21 -7 -43q-2 -41 -2 -87t-2 -99.5t-19 -117.5q-15 -56 -38.5 -115t-58 -114.5t-77.5 -103.5t-209 -137q107 116 133 148.5t47.5 71.5t42 91t40.5 126q12 46 12 103t-10 111t-27 100t-37 69q-14 15 -47.5 25.5t-69.5 14.5q-29 4 -53 4h-17z
" />
    <glyph glyph-name="l" unicode="l" horiz-adv-x="950" 
d="M587 1147q2 -5 20 -34q22 -36 35.5 -81t15.5 -96q0 -17 -1 -33q87 50 110 78q24 29 35 60l3 10q4 15 4 30q0 11 -2 21q-6 28 -25 46q-25 3 -52 5q-19 1 -38 1h-20q-28 -1 -61 -4q-18 -3 -24 -3zM656 897q-2 -33 -11 -66l-118 -440q-7 -25 -7 -47q0 -20 6 -37
q12 -36 41.5 -63.5t71.5 -47t329 -67.5q-322 0 -388 2t-115.5 2.5t-80.5 2.5l-51 4l150 562q21 78 21 143q0 24 -2 46q-11 82 -43 144.5t-74 108.5t-104 107q220 24 379 24h43q176 -3 360 -12q-8 -31 -23.5 -61.5t-40.5 -68t-57 -77.5t-67 -74.5t-76 -59.5q-39 -24 -143 -25
z" />
    <glyph glyph-name="m" unicode="m" horiz-adv-x="986" 
d="M754 1254q-138 -49 -165 -69q-34 -23 -38 -41q-10 -37 -11 -83q-1 -7 -1 -14q0 -38 8 -75q8 -43 26 -75.5t27 -37.5q16 12 47 43t57 65t43.5 68t26.5 65q10 39 10 69v5q-3 29 -30 80zM821 953q-7 -7 -21 -22q-26 -28 -62 -69t-79.5 -80t-85.5 -39q-38 0 -64.5 35.5
t-47.5 72t-40.5 63.5t-28.5 27q-7 0 -33.5 -39.5t-52.5 -101.5q-17 -41 -28 -85q-6 -22 -11 -44q-5 -24 -5 -49q0 -39 12 -78q-85 0 -95 45q-6 27 -6 61q0 21 3 46q6 61 23 137q14 56 29 112l10 38q21 75 43 143.5t43 134.5q74 -6 110.5 -7.5t69.5 -1.5q34 0 69.5 1.5
t230.5 17.5q-18 -6 -35 -12q93 0 153 1q65 1 170 8q-18 -67 -33.5 -132.5t-35.5 -141.5t-39 -155t-39 -154q-8 -27 -25 -82.5t-45 -122.5t-65 -137.5t-85 -130t-106.5 -100.5t-232.5 -41q166 62 214.5 128t83.5 152q31 80 54 163l3 14q24 90 42 157q13 51 22.5 103t13.5 93
q3 27 3 45q0 9 -1 15v12z" />
    <glyph glyph-name="n" unicode="n" horiz-adv-x="807" 
d="M311 1254q75 9 123.5 12.5t95.5 3.5q48 0 99 -3.5t223 -21.5q-183 -41 -220 -64t-50 -74q-5 -18 -5 -49v-19q2 -45 12 -89t23.5 -71.5t21.5 -27.5t29.5 21t47 63.5t50 98.5t57.5 180q44 -76 45 -109v-8q0 -30 -6 -62q-5 -26 -12 -55l-5 -16q-9 -36 -23 -68
q-16 -36 -45.5 -83.5t-60.5 -90t-65 -76.5t-59 -34q-34 0 -48.5 29t-19.5 64q-19 -22 -47 -87q-53 -114 -123.5 -218t-149.5 -187.5t-328 -267.5q224 242 276 315t85.5 143t58 146t49.5 168q18 68 18 136v29q-5 82 -18.5 153t-26.5 125q-7 28 -7 54q0 21 5 40z" />
    <glyph glyph-name="o" unicode="o" horiz-adv-x="1025" 
d="M647 905q29 0 43.5 -15t19.5 -33q4 -15 4 -30v-9q-2 -21 -7 -38q-10 -37 -43.5 -80.5t-82.5 -43.5q-24 0 -37 12.5t-21 28t-10 33.5q-1 6 -1 12q0 11 3 21q5 18 15.5 39.5t24 43.5t36.5 40.5t56 18.5zM632 1172q0 -1 1 -1q12 -12 37 -46q-70 -49 -117.5 -109.5
t-86.5 -129.5t-68 -138.5t-44 -122.5q-17 -63 -17 -128q0 -35 5 -70q14 -101 104 -274q-107 36 -139 73.5t-51.5 87t-29 106.5t-11.5 114q-1 18 -1 35q0 39 4 75q5 53 15 93q30 110 57 181.5t48.5 117t35.5 67.5t17 32q4 13 4 24q0 8 -2 14q-6 13 -17.5 20.5t-27.5 13.5
t-132 46q238 8 333 9.5t183 1.5q90 0 181 -1.5t317 -9.5q-135 -39 -155 -49t-41 -23t-35 -27.5t-17 -27.5q-1 -3 -1 -6q0 -9 7 -19q8 -15 14 -55q3 -22 3 -51q0 -28 -2 -62q-6 -73 -39 -196q-35 -134 -77.5 -237.5t-99 -184t-132.5 -142t-378 -205.5q217 154 260 193t82 86
t70 100t45 105q11 41 25.5 100t25 127t17.5 140q3 35 3 68q0 36 -4 70q-7 66 -29 122t-58 88q-21 7 -45 7q-18 0 -37 -2z" />
    <glyph glyph-name="p" unicode="p" horiz-adv-x="992" 
d="M565 902q9 -19 45 -26.5t51 -7.5q18 36 46.5 80t53.5 83t44 75.5t25 59.5q-78 6 -174 6q-95 0 -161 -4q14 -16 29 -59.5t19.5 -84t6 -71.5t15.5 -51zM1118 1264q-79 -101 -146.5 -194t-129.5 -190t-109.5 -191t-67.5 -169q-26 -98 -38 -213.5t-40 -304.5
q-65 115 -80 170.5t-18 116.5q-1 21 -1 42q0 39 4 77q5 58 19 112q25 93 55.5 165.5t45.5 100.5q-27 -5 -89 -24.5t-160 -97.5q21 111 29 174q5 47 5 96v33q-3 65 -23 129.5t-86 157.5q228 14 382 14q32 0 64 -1q179 -3 384 -3z" />
    <glyph glyph-name="q" unicode="q" horiz-adv-x="898" 
d="M698 265q5 77 5 118q0 31 -3 42q-6 25 -23 42q-35 0 -81 -4t-66 -4q-6 -28 -8 -75q-2 -24 -2 -47q0 -22 2 -44q2 -43 10 -77t32 -86q-124 0 -195 3q-24 1 -47 1q-48 0 -132 -7q30 48 52 83.5t45.5 79.5t49 93t35.5 76q-24 0 -70.5 0.5t-78.5 5.5q-12 -9 -41 -39
t-116 -176q21 165 34 216l2 8q13 47 57 121q82 -9 146 -10t102 -1q25 91 27 190v15q0 89 -17 167q-18 83 -45.5 151t-71.5 148q220 8 378 8q159 0 338 -8q-71 -78 -134.5 -165t-128 -184.5t-118.5 -189.5t-71 -132q37 0 100 1t144 10q2 -21 2 -41q0 -42 -9 -75q-2 -9 -5 -17
q-17 -53 -98 -197zM530 1115q36 -246 36 -278v-4q-7 -12 -8 -14q1 0 24 37q37 58 77.5 113.5t82.5 110.5l17 40q-52 6 -86 6q-17 0 -32 -1q-42 -3 -111 -10z" />
    <glyph glyph-name="r" unicode="r" horiz-adv-x="960" 
d="M198 982q100 118 152.5 156.5t113 64t123 40t121.5 14.5q69 0 129.5 -14t104 -43t63.5 -73q10 -23 10 -53t-10 -68q-110 -23 -193 -45t-149 -55t-114.5 -85.5t-70.5 -135.5q-18 -64 -35.5 -143.5t-31 -161t-21.5 -158.5q-3 -31 -3 -73q0 -64 7 -153q-78 101 -89.5 154.5
t-18.5 117t-7 135.5q-1 9 -1 18q0 62 4 121q3 67 9 122.5t15 90.5q13 49 39 82.5t61.5 58t73 40.5t79.5 33q60 26 120 54t60 29q-13 11 -69 37t-120 26q-43 0 -80.5 -8.5t-67.5 -20.5t-58 -27t-146 -77z" />
    <glyph glyph-name="s" unicode="s" horiz-adv-x="884" 
d="M566 839q6 -14 26 -58q32 -70 50.5 -147t22.5 -156v-23q0 -68 -18 -133q-12 -47 -50 -96.5t-86 -93.5t-100 -78t-223 -108q146 119 182.5 143t67.5 52.5t55.5 69.5t42.5 111q15 55 15 108q0 46 -11 91q-23 97 -73 181t-112.5 153t-145.5 152q167 0 271.5 -15.5
t158.5 -34.5q0 4 -17 47t-44.5 83.5t-61 75.5t-108.5 84q193 23 295 24h22q87 0 176 -8q32 -29 42 -63q8 -32 8 -65v-7q-1 -37 -9 -71l-3 -12q-7 -26 -35 -90q-40 53 -49 75t-17.5 43t-21 39t-28.5 29q-23 5 -57 5h-36q16 -17 38 -73t27 -111q1 -10 1 -19q0 -45 -12 -87
l-1 -5q-16 -55 -75 -133q-41 76 -87 107q-13 9 -20 14z" />
    <glyph glyph-name="t" unicode="t" horiz-adv-x="923" 
d="M496.5 341q48.5 15 97 41t95 61t238.5 190q-151 -192 -209 -253t-120.5 -112t-129.5 -85.5t-126 -34.5q-69 0 -109.5 38.5t-60.5 93.5t-24 121q-1 11 -1 24q0 70 18 216q67 -186 93.5 -239t47.5 -60q10 19 23 69l5 20q14 63 29 117q27 102 33 202q2 38 2 75q0 58 -5 113
q-10 89 -32.5 163t-70.5 155l537 9v4q0 78 -74 139q-77 62 -347 153q226 0 312.5 -21t153.5 -61t109.5 -98t52.5 -139q-104 -82 -194 -122t-163 -40q-71 0 -99 20q41 -96 47 -159q1 -14 1 -29q0 -52 -16 -114q-30 -113 -85.5 -235t-114.5 -237q38 0 86.5 15z" />
    <glyph glyph-name="u" unicode="u" horiz-adv-x="955" 
d="M49 224q5 47 18 108q8 40 19 84q6 22 14 45q20 68 46.5 137t130.5 232q-30 -161 -35 -227q-4 -43 -4 -83q0 -23 1 -44q3 -62 19 -109t45 -61q49 -13 96 -14h13q39 0 70 5q46 20 91 55t85 87.5t72.5 126.5t60.5 177q15 57 31 135q14 72 14 141v9q-1 72 -24 126t-287 130
q304 -27 374 -30h25q56 0 148 15q-27 -80 -47.5 -149t-41.5 -144.5t-41 -151.5l-40 -148q-25 -92 -57.5 -164t-63 -125t-53.5 -88.5t-28 -54.5q-1 -5 -1 -10q0 -9 5 -16q7 -11 18 -20.5t16 -20.5q4 -4 4 -9q0 -3 -1 -6q-4 -18 -37 -33q-71 -4 -145.5 -6t-147.5 -2
q-71 0 -138 2t-124 7zM485 679q58 0 76 -29q12 -20 12 -41q0 -9 -2 -19q-9 -35 -46.5 -58t-85.5 -23q-43 0 -71 23q-22 17 -22 42q0 8 2 16q9 32 47.5 60.5t89.5 28.5z" />
    <glyph glyph-name="v" unicode="v" horiz-adv-x="881" 
d="M335 150q66 45 101 75q47 40 91 90.5t78 106.5t50 116q20 75 26 162q1 31 1 62q0 56 -6 112q-10 86 -31.5 166.5t-40.5 117.5q-21 -18 -70 -86t-91 -142.5t-74.5 -147t-45.5 -123.5q-17 -63 -24 -133q-6 -52 -6 -104q0 -17 1 -34q2 -69 14 -132q5 -42 27 -106zM300 115
q-11 -2 -22 -3q7 5 13 9q-60 46 -84 85q-37 59 -57 129.5t-22 146.5q-1 10 -1 19q0 66 15 124q29 106 66 181.5t72 135t63.5 105t39.5 88.5q4 13 4 24q0 16 -8 29q-13 20 -106 61q170 15 240.5 18t133.5 3q65 0 124.5 -3t243.5 -25q-151 -28 -174.5 -43t-29.5 -38
q-4 -13 -4 -28q0 -22 8 -46q13 -42 26 -100t19 -130q1 -14 1 -30q0 -60 -19 -133q-33 -124 -90.5 -226.5t-125 -176.5t-138.5 -118q-54 -34 -143 -51q8 -23 18 -49q-35 22 -63 42z" />
    <glyph glyph-name="w" unicode="w" horiz-adv-x="1080" 
d="M468 402q14 19 47 75t60 111.5t46.5 107t30.5 91.5q12 44 12 102t-9 109.5t-23.5 82.5t-22.5 31q-12 0 -46 -32.5t-73.5 -85t-71.5 -110t-43 -97.5q-10 -37 -10 -77q0 -16 2 -32q5 -59 21 -115.5t43.5 -104t36.5 -56.5zM1183 1421q18 -53 18 -98q0 -22 -4 -42
q-2 -11 -5 -24q-13 -48 -39 -99q-33 -63 -86 -121t-216 -126q80 76 93 91.5t24.5 35.5t22.5 43q4 10 7 20q3 11 3 16q-11 24 -33.5 31t-43.5 7q-30 0 -60.5 -22t-41.5 -61q-13 -51 -14 -86q-1 -3 -1 -6q0 -31 16 -51l50 -86q-37 -88 -86.5 -184.5t-108.5 -193.5t-122.5 -184
t-141.5 -164q-43 10 -104 10q-60 0 -538 -55q474 99 527.5 141.5t88.5 85.5q-24 20 -67 72t-77 113.5t-51 129.5q-9 34 -9 67q0 31 8 62q8 29 38.5 76t65 100t65.5 104t42 92q3 11 3 20t-3 18q-5 16 -16.5 28.5t-30.5 21t-251 65.5q325 -18 402.5 -22t150.5 -5h49q49 0 97 1
q74 2 157 6q57 11 105 50.5t117 122.5z" />
    <glyph glyph-name="x" unicode="x" horiz-adv-x="1066" 
d="M786 1423q253 -157 280 -318q9 -52 9 -109q0 -120 -39 -263q-25 -93 -66.5 -187t-96 -177.5t-118.5 -148t-143 -101.5q-59 5 -139 10q-59 4 -121 4h-41q-82 -3 -156 -18t-174 -94q37 141 117 185t146 50q-28 58 -37 164q-2 22 -2 45q0 87 27 187q24 92 79 188
t122.5 178.5t140.5 144.5t225 128q-96 -99 -140 -146.5t-88.5 -107.5t-85.5 -134t-64 -161q-33 -121 -36 -240v-22q0 -108 27 -212h161q22 15 64 59.5t86.5 114.5t87.5 165.5t75 214.5q29 109 39 185q6 46 6 85q0 25 -2 47q-7 55 -27.5 99t-115.5 185z" />
    <glyph glyph-name="y" unicode="y" horiz-adv-x="924" 
d="M304 1226q7 27 68 30t135 5q50 1 104 1h57q86 -1 158.5 -3t121.5 -2l71 -3l-253 -1022l1 226q-1 24 -5 57t-16 64t-33 45q-11 11 -32 17t-48.5 8.5t-59 3.5t-56.5 1q-71 0 -123 -8t-77 -28q-16 -13 -43 -75.5t-63 -153t-78.5 -193.5t-186.5 -373l339 1315q4 -232 16 -271
t29 -58q15 -20 33.5 -27.5t42.5 -9.5q15 -2 29 -2q11 0 23 1q29 1 63 1q87 0 141.5 4t85.5 24q36 29 55 65t31 81q12 44 15 90v9q0 39 -18 63q-37 50 -85.5 66t-137.5 16q-57 0 -111.5 -3t-95.5 -3q-42 0 -73 7q-26 5 -26 24q0 5 2 11zM455 387q54 0 67 -45q6 -25 6 -47
q0 -18 -4 -34q-5 -19 -17 -39.5t-28.5 -39t-39 -32.5t-45.5 -14q-21 0 -36.5 11.5t-24.5 28t-13 33.5q-3 7 -3 16t3 19q5 18 14 40t25.5 44.5t39.5 40.5t56 18z" />
    <glyph glyph-name="z" unicode="z" horiz-adv-x="656" 
d="M475 1162q-9 4 -29 10q-23 5 -56 7h-17q-27 0 -134 -15q89 60 110.5 69t46.5 15t54.5 7.5t69.5 1.5q45 0 83.5 -8t66.5 -21t44 -33q11 -15 11 -31q0 -6 -2 -12q-10 -35 -52 -35h-7q-22 3 -55 3q-30 0 -65 -10.5t-48 -24.5h20q29 0 56.5 -2t57.5 -5.5t104 -18.5
q-102 -80 -162.5 -193.5t-113 -256.5t-97 -299t-157.5 -577q39 438 55.5 580.5t28 269t14.5 240.5v32q0 97 -13 193q33 41 69.5 62.5t69 33.5t45.5 17q1 0 2 1z" />
    <glyph glyph-name="braceleft" unicode="{" 
d="M0 200v1100q0 200 200 200h1100q200 0 200 -200v-1100q0 -200 -200 -200h-1100q-200 0 -200 200zM1475 201v1099q0 175 -175 175h-1100q-174 0 -175 -175v-1100q1 -175 175 -175h1101q174 0 174 176z" />
    <glyph glyph-name="bar" unicode="|" 
d="M0 200v1100q0 200 200 200h1100q200 0 200 -200v-1100q0 -200 -200 -200h-1100q-200 0 -200 200zM1475 201v1099q0 175 -175 175h-1100q-174 0 -175 -175v-1100q1 -175 175 -175h1101q174 0 174 176z" />
    <glyph glyph-name="braceright" unicode="}" 
d="M0 200v1100q0 200 200 200h1100q200 0 200 -200v-1100q0 -200 -200 -200h-1100q-200 0 -200 200zM1475 201v1099q0 175 -175 175h-1100q-174 0 -175 -175v-1100q1 -175 175 -175h1101q174 0 174 176z" />
    <glyph glyph-name="asciitilde" unicode="~" 
d="M0 200v1100q0 200 200 200h1100q200 0 200 -200v-1100q0 -200 -200 -200h-1100q-200 0 -200 200zM1475 201v1099q0 175 -175 175h-1100q-174 0 -175 -175v-1100q1 -175 175 -175h1101q174 0 174 176z" />
    <glyph glyph-name="exclamdown" unicode="&#xa1;" 
d="M0 200v1100q0 200 200 200h1100q200 0 200 -200v-1100q0 -200 -200 -200h-1100q-200 0 -200 200zM1475 201v1099q0 175 -175 175h-1100q-174 0 -175 -175v-1100q1 -175 175 -175h1101q174 0 174 176z" />
    <glyph glyph-name="cent" unicode="&#xa2;" 
d="M0 200v1100q0 200 200 200h1100q200 0 200 -200v-1100q0 -200 -200 -200h-1100q-200 0 -200 200zM1475 201v1099q0 175 -175 175h-1100q-174 0 -175 -175v-1100q1 -175 175 -175h1101q174 0 174 176z" />
    <glyph glyph-name="sterling" unicode="&#xa3;" 
d="M0 200v1100q0 200 200 200h1100q200 0 200 -200v-1100q0 -200 -200 -200h-1100q-200 0 -200 200zM1475 201v1099q0 175 -175 175h-1100q-174 0 -175 -175v-1100q1 -175 175 -175h1101q174 0 174 176z" />
    <glyph glyph-name="currency" unicode="&#xa4;" 
d="M0 200v1100q0 200 200 200h1100q200 0 200 -200v-1100q0 -200 -200 -200h-1100q-200 0 -200 200zM1475 201v1099q0 175 -175 175h-1100q-174 0 -175 -175v-1100q1 -175 175 -175h1101q174 0 174 176z" />
    <glyph glyph-name="yen" unicode="&#xa5;" 
d="M0 200v1100q0 200 200 200h1100q200 0 200 -200v-1100q0 -200 -200 -200h-1100q-200 0 -200 200zM1475 201v1099q0 175 -175 175h-1100q-174 0 -175 -175v-1100q1 -175 175 -175h1101q174 0 174 176z" />
    <glyph glyph-name="brokenbar" unicode="&#xa6;" 
d="M0 200v1100q0 200 200 200h1100q200 0 200 -200v-1100q0 -200 -200 -200h-1100q-200 0 -200 200zM1475 201v1099q0 175 -175 175h-1100q-174 0 -175 -175v-1100q1 -175 175 -175h1101q174 0 174 176z" />
    <glyph glyph-name="section" unicode="&#xa7;" 
d="M0 200v1100q0 200 200 200h1100q200 0 200 -200v-1100q0 -200 -200 -200h-1100q-200 0 -200 200zM1475 201v1099q0 175 -175 175h-1100q-174 0 -175 -175v-1100q1 -175 175 -175h1101q174 0 174 176z" />
    <glyph glyph-name="dieresis" unicode="&#xa8;" 
d="M0 200v1100q0 200 200 200h1100q200 0 200 -200v-1100q0 -200 -200 -200h-1100q-200 0 -200 200zM1475 201v1099q0 175 -175 175h-1100q-174 0 -175 -175v-1100q1 -175 175 -175h1101q174 0 174 176z" />
    <glyph glyph-name="copyright" unicode="&#xa9;" 
d="M0 200v1100q0 200 200 200h1100q200 0 200 -200v-1100q0 -200 -200 -200h-1100q-200 0 -200 200zM1475 201v1099q0 175 -175 175h-1100q-174 0 -175 -175v-1100q1 -175 175 -175h1101q174 0 174 176z" />
    <glyph glyph-name="ordfeminine" unicode="&#xaa;" 
d="M0 200v1100q0 200 200 200h1100q200 0 200 -200v-1100q0 -200 -200 -200h-1100q-200 0 -200 200zM1475 201v1099q0 175 -175 175h-1100q-174 0 -175 -175v-1100q1 -175 175 -175h1101q174 0 174 176z" />
    <glyph glyph-name="guillemotleft" unicode="&#xab;" 
d="M0 200v1100q0 200 200 200h1100q200 0 200 -200v-1100q0 -200 -200 -200h-1100q-200 0 -200 200zM1475 201v1099q0 175 -175 175h-1100q-174 0 -175 -175v-1100q1 -175 175 -175h1101q174 0 174 176z" />
    <glyph glyph-name="logicalnot" unicode="&#xac;" 
d="M0 200v1100q0 200 200 200h1100q200 0 200 -200v-1100q0 -200 -200 -200h-1100q-200 0 -200 200zM1475 201v1099q0 175 -175 175h-1100q-174 0 -175 -175v-1100q1 -175 175 -175h1101q174 0 174 176z" />
    <glyph glyph-name="registered" unicode="&#xae;" 
d="M0 200v1100q0 200 200 200h1100q200 0 200 -200v-1100q0 -200 -200 -200h-1100q-200 0 -200 200zM1475 201v1099q0 175 -175 175h-1100q-174 0 -175 -175v-1100q1 -175 175 -175h1101q174 0 174 176z" />
    <glyph glyph-name="macron" unicode="&#xaf;" 
d="M0 200v1100q0 200 200 200h1100q200 0 200 -200v-1100q0 -200 -200 -200h-1100q-200 0 -200 200zM1475 201v1099q0 175 -175 175h-1100q-174 0 -175 -175v-1100q1 -175 175 -175h1101q174 0 174 176z" />
    <glyph glyph-name="degree" unicode="&#xb0;" 
d="M0 200v1100q0 200 200 200h1100q200 0 200 -200v-1100q0 -200 -200 -200h-1100q-200 0 -200 200zM1475 201v1099q0 175 -175 175h-1100q-174 0 -175 -175v-1100q1 -175 175 -175h1101q174 0 174 176z" />
    <glyph glyph-name="plusminus" unicode="&#xb1;" 
d="M0 200v1100q0 200 200 200h1100q200 0 200 -200v-1100q0 -200 -200 -200h-1100q-200 0 -200 200zM1475 201v1099q0 175 -175 175h-1100q-174 0 -175 -175v-1100q1 -175 175 -175h1101q174 0 174 176z" />
    <glyph glyph-name="uni00B2" unicode="&#xb2;" 
d="M0 200v1100q0 200 200 200h1100q200 0 200 -200v-1100q0 -200 -200 -200h-1100q-200 0 -200 200zM1475 201v1099q0 175 -175 175h-1100q-174 0 -175 -175v-1100q1 -175 175 -175h1101q174 0 174 176z" />
    <glyph glyph-name="uni00B3" unicode="&#xb3;" 
d="M0 200v1100q0 200 200 200h1100q200 0 200 -200v-1100q0 -200 -200 -200h-1100q-200 0 -200 200zM1475 201v1099q0 175 -175 175h-1100q-174 0 -175 -175v-1100q1 -175 175 -175h1101q174 0 174 176z" />
    <glyph glyph-name="acute" unicode="&#xb4;" 
d="M0 200v1100q0 200 200 200h1100q200 0 200 -200v-1100q0 -200 -200 -200h-1100q-200 0 -200 200zM1475 201v1099q0 175 -175 175h-1100q-174 0 -175 -175v-1100q1 -175 175 -175h1101q174 0 174 176z" />
    <glyph glyph-name="mu" unicode="&#xb5;" 
d="M0 200v1100q0 200 200 200h1100q200 0 200 -200v-1100q0 -200 -200 -200h-1100q-200 0 -200 200zM1475 201v1099q0 175 -175 175h-1100q-174 0 -175 -175v-1100q1 -175 175 -175h1101q174 0 174 176z" />
    <glyph glyph-name="paragraph" unicode="&#xb6;" 
d="M0 200v1100q0 200 200 200h1100q200 0 200 -200v-1100q0 -200 -200 -200h-1100q-200 0 -200 200zM1475 201v1099q0 175 -175 175h-1100q-174 0 -175 -175v-1100q1 -175 175 -175h1101q174 0 174 176z" />
    <glyph glyph-name="periodcentered" unicode="&#xb7;" 
d="M0 200v1100q0 200 200 200h1100q200 0 200 -200v-1100q0 -200 -200 -200h-1100q-200 0 -200 200zM1475 201v1099q0 175 -175 175h-1100q-174 0 -175 -175v-1100q1 -175 175 -175h1101q174 0 174 176z" />
    <glyph glyph-name="periodcentered" unicode="&#x2219;" 
d="M0 200v1100q0 200 200 200h1100q200 0 200 -200v-1100q0 -200 -200 -200h-1100q-200 0 -200 200zM1475 201v1099q0 175 -175 175h-1100q-174 0 -175 -175v-1100q1 -175 175 -175h1101q174 0 174 176z" />
    <glyph glyph-name="cedilla" unicode="&#xb8;" 
d="M0 200v1100q0 200 200 200h1100q200 0 200 -200v-1100q0 -200 -200 -200h-1100q-200 0 -200 200zM1475 201v1099q0 175 -175 175h-1100q-174 0 -175 -175v-1100q1 -175 175 -175h1101q174 0 174 176z" />
    <glyph glyph-name="uni00B9" unicode="&#xb9;" 
d="M0 200v1100q0 200 200 200h1100q200 0 200 -200v-1100q0 -200 -200 -200h-1100q-200 0 -200 200zM1475 201v1099q0 175 -175 175h-1100q-174 0 -175 -175v-1100q1 -175 175 -175h1101q174 0 174 176z" />
    <glyph glyph-name="ordmasculine" unicode="&#xba;" 
d="M0 200v1100q0 200 200 200h1100q200 0 200 -200v-1100q0 -200 -200 -200h-1100q-200 0 -200 200zM1475 201v1099q0 175 -175 175h-1100q-174 0 -175 -175v-1100q1 -175 175 -175h1101q174 0 174 176z" />
    <glyph glyph-name="guillemotright" unicode="&#xbb;" 
d="M0 200v1100q0 200 200 200h1100q200 0 200 -200v-1100q0 -200 -200 -200h-1100q-200 0 -200 200zM1475 201v1099q0 175 -175 175h-1100q-174 0 -175 -175v-1100q1 -175 175 -175h1101q174 0 174 176z" />
    <glyph glyph-name="onequarter" unicode="&#xbc;" 
d="M0 200v1100q0 200 200 200h1100q200 0 200 -200v-1100q0 -200 -200 -200h-1100q-200 0 -200 200zM1475 201v1099q0 175 -175 175h-1100q-174 0 -175 -175v-1100q1 -175 175 -175h1101q174 0 174 176z" />
    <glyph glyph-name="onehalf" unicode="&#xbd;" 
d="M0 200v1100q0 200 200 200h1100q200 0 200 -200v-1100q0 -200 -200 -200h-1100q-200 0 -200 200zM1475 201v1099q0 175 -175 175h-1100q-174 0 -175 -175v-1100q1 -175 175 -175h1101q174 0 174 176z" />
    <glyph glyph-name="threequarters" unicode="&#xbe;" 
d="M0 200v1100q0 200 200 200h1100q200 0 200 -200v-1100q0 -200 -200 -200h-1100q-200 0 -200 200zM1475 201v1099q0 175 -175 175h-1100q-174 0 -175 -175v-1100q1 -175 175 -175h1101q174 0 174 176z" />
    <glyph glyph-name="questiondown" unicode="&#xbf;" 
d="M0 200v1100q0 200 200 200h1100q200 0 200 -200v-1100q0 -200 -200 -200h-1100q-200 0 -200 200zM1475 201v1099q0 175 -175 175h-1100q-174 0 -175 -175v-1100q1 -175 175 -175h1101q174 0 174 176z" />
    <glyph glyph-name="Agrave" unicode="&#xc0;" 
d="M0 200v1100q0 200 200 200h1100q200 0 200 -200v-1100q0 -200 -200 -200h-1100q-200 0 -200 200zM1475 201v1099q0 175 -175 175h-1100q-174 0 -175 -175v-1100q1 -175 175 -175h1101q174 0 174 176z" />
    <glyph glyph-name="Aacute" unicode="&#xc1;" 
d="M0 200v1100q0 200 200 200h1100q200 0 200 -200v-1100q0 -200 -200 -200h-1100q-200 0 -200 200zM1475 201v1099q0 175 -175 175h-1100q-174 0 -175 -175v-1100q1 -175 175 -175h1101q174 0 174 176z" />
    <glyph glyph-name="Acircumflex" unicode="&#xc2;" 
d="M0 200v1100q0 200 200 200h1100q200 0 200 -200v-1100q0 -200 -200 -200h-1100q-200 0 -200 200zM1475 201v1099q0 175 -175 175h-1100q-174 0 -175 -175v-1100q1 -175 175 -175h1101q174 0 174 176z" />
    <glyph glyph-name="Atilde" unicode="&#xc3;" 
d="M0 200v1100q0 200 200 200h1100q200 0 200 -200v-1100q0 -200 -200 -200h-1100q-200 0 -200 200zM1475 201v1099q0 175 -175 175h-1100q-174 0 -175 -175v-1100q1 -175 175 -175h1101q174 0 174 176z" />
    <glyph glyph-name="Adieresis" unicode="&#xc4;" 
d="M0 200v1100q0 200 200 200h1100q200 0 200 -200v-1100q0 -200 -200 -200h-1100q-200 0 -200 200zM1475 201v1099q0 175 -175 175h-1100q-174 0 -175 -175v-1100q1 -175 175 -175h1101q174 0 174 176z" />
    <glyph glyph-name="Aring" unicode="&#xc5;" 
d="M0 200v1100q0 200 200 200h1100q200 0 200 -200v-1100q0 -200 -200 -200h-1100q-200 0 -200 200zM1475 201v1099q0 175 -175 175h-1100q-174 0 -175 -175v-1100q1 -175 175 -175h1101q174 0 174 176z" />
    <glyph glyph-name="AE" unicode="&#xc6;" 
d="M0 200v1100q0 200 200 200h1100q200 0 200 -200v-1100q0 -200 -200 -200h-1100q-200 0 -200 200zM1475 201v1099q0 175 -175 175h-1100q-174 0 -175 -175v-1100q1 -175 175 -175h1101q174 0 174 176z" />
    <glyph glyph-name="Ccedilla" unicode="&#xc7;" 
d="M0 200v1100q0 200 200 200h1100q200 0 200 -200v-1100q0 -200 -200 -200h-1100q-200 0 -200 200zM1475 201v1099q0 175 -175 175h-1100q-174 0 -175 -175v-1100q1 -175 175 -175h1101q174 0 174 176z" />
    <glyph glyph-name="Egrave" unicode="&#xc8;" 
d="M0 200v1100q0 200 200 200h1100q200 0 200 -200v-1100q0 -200 -200 -200h-1100q-200 0 -200 200zM1475 201v1099q0 175 -175 175h-1100q-174 0 -175 -175v-1100q1 -175 175 -175h1101q174 0 174 176z" />
    <glyph glyph-name="Eacute" unicode="&#xc9;" 
d="M0 200v1100q0 200 200 200h1100q200 0 200 -200v-1100q0 -200 -200 -200h-1100q-200 0 -200 200zM1475 201v1099q0 175 -175 175h-1100q-174 0 -175 -175v-1100q1 -175 175 -175h1101q174 0 174 176z" />
    <glyph glyph-name="Ecircumflex" unicode="&#xca;" 
d="M0 200v1100q0 200 200 200h1100q200 0 200 -200v-1100q0 -200 -200 -200h-1100q-200 0 -200 200zM1475 201v1099q0 175 -175 175h-1100q-174 0 -175 -175v-1100q1 -175 175 -175h1101q174 0 174 176z" />
    <glyph glyph-name="Edieresis" unicode="&#xcb;" 
d="M0 200v1100q0 200 200 200h1100q200 0 200 -200v-1100q0 -200 -200 -200h-1100q-200 0 -200 200zM1475 201v1099q0 175 -175 175h-1100q-174 0 -175 -175v-1100q1 -175 175 -175h1101q174 0 174 176z" />
    <glyph glyph-name="Igrave" unicode="&#xcc;" 
d="M0 200v1100q0 200 200 200h1100q200 0 200 -200v-1100q0 -200 -200 -200h-1100q-200 0 -200 200zM1475 201v1099q0 175 -175 175h-1100q-174 0 -175 -175v-1100q1 -175 175 -175h1101q174 0 174 176z" />
    <glyph glyph-name="Iacute" unicode="&#xcd;" 
d="M0 200v1100q0 200 200 200h1100q200 0 200 -200v-1100q0 -200 -200 -200h-1100q-200 0 -200 200zM1475 201v1099q0 175 -175 175h-1100q-174 0 -175 -175v-1100q1 -175 175 -175h1101q174 0 174 176z" />
    <glyph glyph-name="Icircumflex" unicode="&#xce;" 
d="M0 200v1100q0 200 200 200h1100q200 0 200 -200v-1100q0 -200 -200 -200h-1100q-200 0 -200 200zM1475 201v1099q0 175 -175 175h-1100q-174 0 -175 -175v-1100q1 -175 175 -175h1101q174 0 174 176z" />
    <glyph glyph-name="Idieresis" unicode="&#xcf;" 
d="M0 200v1100q0 200 200 200h1100q200 0 200 -200v-1100q0 -200 -200 -200h-1100q-200 0 -200 200zM1475 201v1099q0 175 -175 175h-1100q-174 0 -175 -175v-1100q1 -175 175 -175h1101q174 0 174 176z" />
    <glyph glyph-name="Eth" unicode="&#xd0;" 
d="M0 200v1100q0 200 200 200h1100q200 0 200 -200v-1100q0 -200 -200 -200h-1100q-200 0 -200 200zM1475 201v1099q0 175 -175 175h-1100q-174 0 -175 -175v-1100q1 -175 175 -175h1101q174 0 174 176z" />
    <glyph glyph-name="Ntilde" unicode="&#xd1;" 
d="M0 200v1100q0 200 200 200h1100q200 0 200 -200v-1100q0 -200 -200 -200h-1100q-200 0 -200 200zM1475 201v1099q0 175 -175 175h-1100q-174 0 -175 -175v-1100q1 -175 175 -175h1101q174 0 174 176z" />
    <glyph glyph-name="Ograve" unicode="&#xd2;" 
d="M0 200v1100q0 200 200 200h1100q200 0 200 -200v-1100q0 -200 -200 -200h-1100q-200 0 -200 200zM1475 201v1099q0 175 -175 175h-1100q-174 0 -175 -175v-1100q1 -175 175 -175h1101q174 0 174 176z" />
    <glyph glyph-name="Oacute" unicode="&#xd3;" 
d="M0 200v1100q0 200 200 200h1100q200 0 200 -200v-1100q0 -200 -200 -200h-1100q-200 0 -200 200zM1475 201v1099q0 175 -175 175h-1100q-174 0 -175 -175v-1100q1 -175 175 -175h1101q174 0 174 176z" />
    <glyph glyph-name="Ocircumflex" unicode="&#xd4;" 
d="M0 200v1100q0 200 200 200h1100q200 0 200 -200v-1100q0 -200 -200 -200h-1100q-200 0 -200 200zM1475 201v1099q0 175 -175 175h-1100q-174 0 -175 -175v-1100q1 -175 175 -175h1101q174 0 174 176z" />
    <glyph glyph-name="Otilde" unicode="&#xd5;" 
d="M0 200v1100q0 200 200 200h1100q200 0 200 -200v-1100q0 -200 -200 -200h-1100q-200 0 -200 200zM1475 201v1099q0 175 -175 175h-1100q-174 0 -175 -175v-1100q1 -175 175 -175h1101q174 0 174 176z" />
    <glyph glyph-name="Odieresis" unicode="&#xd6;" 
d="M0 200v1100q0 200 200 200h1100q200 0 200 -200v-1100q0 -200 -200 -200h-1100q-200 0 -200 200zM1475 201v1099q0 175 -175 175h-1100q-174 0 -175 -175v-1100q1 -175 175 -175h1101q174 0 174 176z" />
    <glyph glyph-name="multiply" unicode="&#xd7;" 
d="M0 200v1100q0 200 200 200h1100q200 0 200 -200v-1100q0 -200 -200 -200h-1100q-200 0 -200 200zM1475 201v1099q0 175 -175 175h-1100q-174 0 -175 -175v-1100q1 -175 175 -175h1101q174 0 174 176z" />
    <glyph glyph-name="Oslash" unicode="&#xd8;" 
d="M0 200v1100q0 200 200 200h1100q200 0 200 -200v-1100q0 -200 -200 -200h-1100q-200 0 -200 200zM1475 201v1099q0 175 -175 175h-1100q-174 0 -175 -175v-1100q1 -175 175 -175h1101q174 0 174 176z" />
    <glyph glyph-name="Ugrave" unicode="&#xd9;" 
d="M0 200v1100q0 200 200 200h1100q200 0 200 -200v-1100q0 -200 -200 -200h-1100q-200 0 -200 200zM1475 201v1099q0 175 -175 175h-1100q-174 0 -175 -175v-1100q1 -175 175 -175h1101q174 0 174 176z" />
    <glyph glyph-name="Uacute" unicode="&#xda;" 
d="M0 200v1100q0 200 200 200h1100q200 0 200 -200v-1100q0 -200 -200 -200h-1100q-200 0 -200 200zM1475 201v1099q0 175 -175 175h-1100q-174 0 -175 -175v-1100q1 -175 175 -175h1101q174 0 174 176z" />
    <glyph glyph-name="Ucircumflex" unicode="&#xdb;" 
d="M0 200v1100q0 200 200 200h1100q200 0 200 -200v-1100q0 -200 -200 -200h-1100q-200 0 -200 200zM1475 201v1099q0 175 -175 175h-1100q-174 0 -175 -175v-1100q1 -175 175 -175h1101q174 0 174 176z" />
    <glyph glyph-name="Udieresis" unicode="&#xdc;" 
d="M0 200v1100q0 200 200 200h1100q200 0 200 -200v-1100q0 -200 -200 -200h-1100q-200 0 -200 200zM1475 201v1099q0 175 -175 175h-1100q-174 0 -175 -175v-1100q1 -175 175 -175h1101q174 0 174 176z" />
    <glyph glyph-name="Yacute" unicode="&#xdd;" 
d="M0 200v1100q0 200 200 200h1100q200 0 200 -200v-1100q0 -200 -200 -200h-1100q-200 0 -200 200zM1475 201v1099q0 175 -175 175h-1100q-174 0 -175 -175v-1100q1 -175 175 -175h1101q174 0 174 176z" />
    <glyph glyph-name="Thorn" unicode="&#xde;" 
d="M0 200v1100q0 200 200 200h1100q200 0 200 -200v-1100q0 -200 -200 -200h-1100q-200 0 -200 200zM1475 201v1099q0 175 -175 175h-1100q-174 0 -175 -175v-1100q1 -175 175 -175h1101q174 0 174 176z" />
    <glyph glyph-name="germandbls" unicode="&#xdf;" 
d="M0 200v1100q0 200 200 200h1100q200 0 200 -200v-1100q0 -200 -200 -200h-1100q-200 0 -200 200zM1475 201v1099q0 175 -175 175h-1100q-174 0 -175 -175v-1100q1 -175 175 -175h1101q174 0 174 176z" />
    <glyph glyph-name="agrave" unicode="&#xe0;" 
d="M0 200v1100q0 200 200 200h1100q200 0 200 -200v-1100q0 -200 -200 -200h-1100q-200 0 -200 200zM1475 201v1099q0 175 -175 175h-1100q-174 0 -175 -175v-1100q1 -175 175 -175h1101q174 0 174 176z" />
    <glyph glyph-name="aacute" unicode="&#xe1;" 
d="M0 200v1100q0 200 200 200h1100q200 0 200 -200v-1100q0 -200 -200 -200h-1100q-200 0 -200 200zM1475 201v1099q0 175 -175 175h-1100q-174 0 -175 -175v-1100q1 -175 175 -175h1101q174 0 174 176z" />
    <glyph glyph-name="acircumflex" unicode="&#xe2;" 
d="M0 200v1100q0 200 200 200h1100q200 0 200 -200v-1100q0 -200 -200 -200h-1100q-200 0 -200 200zM1475 201v1099q0 175 -175 175h-1100q-174 0 -175 -175v-1100q1 -175 175 -175h1101q174 0 174 176z" />
    <glyph glyph-name="atilde" unicode="&#xe3;" 
d="M0 200v1100q0 200 200 200h1100q200 0 200 -200v-1100q0 -200 -200 -200h-1100q-200 0 -200 200zM1475 201v1099q0 175 -175 175h-1100q-174 0 -175 -175v-1100q1 -175 175 -175h1101q174 0 174 176z" />
    <glyph glyph-name="adieresis" unicode="&#xe4;" 
d="M0 200v1100q0 200 200 200h1100q200 0 200 -200v-1100q0 -200 -200 -200h-1100q-200 0 -200 200zM1475 201v1099q0 175 -175 175h-1100q-174 0 -175 -175v-1100q1 -175 175 -175h1101q174 0 174 176z" />
    <glyph glyph-name="aring" unicode="&#xe5;" 
d="M0 200v1100q0 200 200 200h1100q200 0 200 -200v-1100q0 -200 -200 -200h-1100q-200 0 -200 200zM1475 201v1099q0 175 -175 175h-1100q-174 0 -175 -175v-1100q1 -175 175 -175h1101q174 0 174 176z" />
    <glyph glyph-name="ae" unicode="&#xe6;" 
d="M0 200v1100q0 200 200 200h1100q200 0 200 -200v-1100q0 -200 -200 -200h-1100q-200 0 -200 200zM1475 201v1099q0 175 -175 175h-1100q-174 0 -175 -175v-1100q1 -175 175 -175h1101q174 0 174 176z" />
    <glyph glyph-name="ccedilla" unicode="&#xe7;" 
d="M0 200v1100q0 200 200 200h1100q200 0 200 -200v-1100q0 -200 -200 -200h-1100q-200 0 -200 200zM1475 201v1099q0 175 -175 175h-1100q-174 0 -175 -175v-1100q1 -175 175 -175h1101q174 0 174 176z" />
    <glyph glyph-name="egrave" unicode="&#xe8;" 
d="M0 200v1100q0 200 200 200h1100q200 0 200 -200v-1100q0 -200 -200 -200h-1100q-200 0 -200 200zM1475 201v1099q0 175 -175 175h-1100q-174 0 -175 -175v-1100q1 -175 175 -175h1101q174 0 174 176z" />
    <glyph glyph-name="eacute" unicode="&#xe9;" 
d="M0 200v1100q0 200 200 200h1100q200 0 200 -200v-1100q0 -200 -200 -200h-1100q-200 0 -200 200zM1475 201v1099q0 175 -175 175h-1100q-174 0 -175 -175v-1100q1 -175 175 -175h1101q174 0 174 176z" />
    <glyph glyph-name="ecircumflex" unicode="&#xea;" 
d="M0 200v1100q0 200 200 200h1100q200 0 200 -200v-1100q0 -200 -200 -200h-1100q-200 0 -200 200zM1475 201v1099q0 175 -175 175h-1100q-174 0 -175 -175v-1100q1 -175 175 -175h1101q174 0 174 176z" />
    <glyph glyph-name="edieresis" unicode="&#xeb;" 
d="M0 200v1100q0 200 200 200h1100q200 0 200 -200v-1100q0 -200 -200 -200h-1100q-200 0 -200 200zM1475 201v1099q0 175 -175 175h-1100q-174 0 -175 -175v-1100q1 -175 175 -175h1101q174 0 174 176z" />
    <glyph glyph-name="igrave" unicode="&#xec;" 
d="M0 200v1100q0 200 200 200h1100q200 0 200 -200v-1100q0 -200 -200 -200h-1100q-200 0 -200 200zM1475 201v1099q0 175 -175 175h-1100q-174 0 -175 -175v-1100q1 -175 175 -175h1101q174 0 174 176z" />
    <glyph glyph-name="iacute" unicode="&#xed;" 
d="M0 200v1100q0 200 200 200h1100q200 0 200 -200v-1100q0 -200 -200 -200h-1100q-200 0 -200 200zM1475 201v1099q0 175 -175 175h-1100q-174 0 -175 -175v-1100q1 -175 175 -175h1101q174 0 174 176z" />
    <glyph glyph-name="icircumflex" unicode="&#xee;" 
d="M0 200v1100q0 200 200 200h1100q200 0 200 -200v-1100q0 -200 -200 -200h-1100q-200 0 -200 200zM1475 201v1099q0 175 -175 175h-1100q-174 0 -175 -175v-1100q1 -175 175 -175h1101q174 0 174 176z" />
    <glyph glyph-name="idieresis" unicode="&#xef;" 
d="M0 200v1100q0 200 200 200h1100q200 0 200 -200v-1100q0 -200 -200 -200h-1100q-200 0 -200 200zM1475 201v1099q0 175 -175 175h-1100q-174 0 -175 -175v-1100q1 -175 175 -175h1101q174 0 174 176z" />
    <glyph glyph-name="eth" unicode="&#xf0;" 
d="M0 200v1100q0 200 200 200h1100q200 0 200 -200v-1100q0 -200 -200 -200h-1100q-200 0 -200 200zM1475 201v1099q0 175 -175 175h-1100q-174 0 -175 -175v-1100q1 -175 175 -175h1101q174 0 174 176z" />
    <glyph glyph-name="ntilde" unicode="&#xf1;" 
d="M0 200v1100q0 200 200 200h1100q200 0 200 -200v-1100q0 -200 -200 -200h-1100q-200 0 -200 200zM1475 201v1099q0 175 -175 175h-1100q-174 0 -175 -175v-1100q1 -175 175 -175h1101q174 0 174 176z" />
    <glyph glyph-name="ograve" unicode="&#xf2;" 
d="M0 200v1100q0 200 200 200h1100q200 0 200 -200v-1100q0 -200 -200 -200h-1100q-200 0 -200 200zM1475 201v1099q0 175 -175 175h-1100q-174 0 -175 -175v-1100q1 -175 175 -175h1101q174 0 174 176z" />
    <glyph glyph-name="oacute" unicode="&#xf3;" 
d="M0 200v1100q0 200 200 200h1100q200 0 200 -200v-1100q0 -200 -200 -200h-1100q-200 0 -200 200zM1475 201v1099q0 175 -175 175h-1100q-174 0 -175 -175v-1100q1 -175 175 -175h1101q174 0 174 176z" />
    <glyph glyph-name="ocircumflex" unicode="&#xf4;" 
d="M0 200v1100q0 200 200 200h1100q200 0 200 -200v-1100q0 -200 -200 -200h-1100q-200 0 -200 200zM1475 201v1099q0 175 -175 175h-1100q-174 0 -175 -175v-1100q1 -175 175 -175h1101q174 0 174 176z" />
    <glyph glyph-name="otilde" unicode="&#xf5;" 
d="M0 200v1100q0 200 200 200h1100q200 0 200 -200v-1100q0 -200 -200 -200h-1100q-200 0 -200 200zM1475 201v1099q0 175 -175 175h-1100q-174 0 -175 -175v-1100q1 -175 175 -175h1101q174 0 174 176z" />
    <glyph glyph-name="odieresis" unicode="&#xf6;" 
d="M0 200v1100q0 200 200 200h1100q200 0 200 -200v-1100q0 -200 -200 -200h-1100q-200 0 -200 200zM1475 201v1099q0 175 -175 175h-1100q-174 0 -175 -175v-1100q1 -175 175 -175h1101q174 0 174 176z" />
    <glyph glyph-name="divide" unicode="&#xf7;" 
d="M0 200v1100q0 200 200 200h1100q200 0 200 -200v-1100q0 -200 -200 -200h-1100q-200 0 -200 200zM1475 201v1099q0 175 -175 175h-1100q-174 0 -175 -175v-1100q1 -175 175 -175h1101q174 0 174 176z" />
    <glyph glyph-name="oslash" unicode="&#xf8;" 
d="M0 200v1100q0 200 200 200h1100q200 0 200 -200v-1100q0 -200 -200 -200h-1100q-200 0 -200 200zM1475 201v1099q0 175 -175 175h-1100q-174 0 -175 -175v-1100q1 -175 175 -175h1101q174 0 174 176z" />
    <glyph glyph-name="ugrave" unicode="&#xf9;" 
d="M0 200v1100q0 200 200 200h1100q200 0 200 -200v-1100q0 -200 -200 -200h-1100q-200 0 -200 200zM1475 201v1099q0 175 -175 175h-1100q-174 0 -175 -175v-1100q1 -175 175 -175h1101q174 0 174 176z" />
    <glyph glyph-name="uacute" unicode="&#xfa;" 
d="M0 200v1100q0 200 200 200h1100q200 0 200 -200v-1100q0 -200 -200 -200h-1100q-200 0 -200 200zM1475 201v1099q0 175 -175 175h-1100q-174 0 -175 -175v-1100q1 -175 175 -175h1101q174 0 174 176z" />
    <glyph glyph-name="ucircumflex" unicode="&#xfb;" 
d="M0 200v1100q0 200 200 200h1100q200 0 200 -200v-1100q0 -200 -200 -200h-1100q-200 0 -200 200zM1475 201v1099q0 175 -175 175h-1100q-174 0 -175 -175v-1100q1 -175 175 -175h1101q174 0 174 176z" />
    <glyph glyph-name="udieresis" unicode="&#xfc;" 
d="M0 200v1100q0 200 200 200h1100q200 0 200 -200v-1100q0 -200 -200 -200h-1100q-200 0 -200 200zM1475 201v1099q0 175 -175 175h-1100q-174 0 -175 -175v-1100q1 -175 175 -175h1101q174 0 174 176z" />
    <glyph glyph-name="yacute" unicode="&#xfd;" 
d="M0 200v1100q0 200 200 200h1100q200 0 200 -200v-1100q0 -200 -200 -200h-1100q-200 0 -200 200zM1475 201v1099q0 175 -175 175h-1100q-174 0 -175 -175v-1100q1 -175 175 -175h1101q174 0 174 176z" />
    <glyph glyph-name="thorn" unicode="&#xfe;" 
d="M0 200v1100q0 200 200 200h1100q200 0 200 -200v-1100q0 -200 -200 -200h-1100q-200 0 -200 200zM1475 201v1099q0 175 -175 175h-1100q-174 0 -175 -175v-1100q1 -175 175 -175h1101q174 0 174 176z" />
    <glyph glyph-name="ydieresis" unicode="&#xff;" 
d="M0 200v1100q0 200 200 200h1100q200 0 200 -200v-1100q0 -200 -200 -200h-1100q-200 0 -200 200zM1475 201v1099q0 175 -175 175h-1100q-174 0 -175 -175v-1100q1 -175 175 -175h1101q174 0 174 176z" />
    <glyph glyph-name="dotlessi" unicode="&#x131;" 
d="M0 200v1100q0 200 200 200h1100q200 0 200 -200v-1100q0 -200 -200 -200h-1100q-200 0 -200 200zM1475 201v1099q0 175 -175 175h-1100q-174 0 -175 -175v-1100q1 -175 175 -175h1101q174 0 174 176z" />
    <glyph glyph-name="circumflex" unicode="&#x2c6;" 
d="M0 200v1100q0 200 200 200h1100q200 0 200 -200v-1100q0 -200 -200 -200h-1100q-200 0 -200 200zM1475 201v1099q0 175 -175 175h-1100q-174 0 -175 -175v-1100q1 -175 175 -175h1101q174 0 174 176z" />
    <glyph glyph-name="caron" unicode="&#x2c7;" 
d="M0 200v1100q0 200 200 200h1100q200 0 200 -200v-1100q0 -200 -200 -200h-1100q-200 0 -200 200zM1475 201v1099q0 175 -175 175h-1100q-174 0 -175 -175v-1100q1 -175 175 -175h1101q174 0 174 176z" />
    <glyph glyph-name="uni02C9" unicode="&#x2c9;" 
d="M0 200v1100q0 200 200 200h1100q200 0 200 -200v-1100q0 -200 -200 -200h-1100q-200 0 -200 200zM1475 201v1099q0 175 -175 175h-1100q-174 0 -175 -175v-1100q1 -175 175 -175h1101q174 0 174 176z" />
    <glyph glyph-name="breve" unicode="&#x2d8;" 
d="M0 200v1100q0 200 200 200h1100q200 0 200 -200v-1100q0 -200 -200 -200h-1100q-200 0 -200 200zM1475 201v1099q0 175 -175 175h-1100q-174 0 -175 -175v-1100q1 -175 175 -175h1101q174 0 174 176z" />
    <glyph glyph-name="dotaccent" unicode="&#x2d9;" 
d="M0 200v1100q0 200 200 200h1100q200 0 200 -200v-1100q0 -200 -200 -200h-1100q-200 0 -200 200zM1475 201v1099q0 175 -175 175h-1100q-174 0 -175 -175v-1100q1 -175 175 -175h1101q174 0 174 176z" />
    <glyph glyph-name="ring" unicode="&#x2da;" 
d="M0 200v1100q0 200 200 200h1100q200 0 200 -200v-1100q0 -200 -200 -200h-1100q-200 0 -200 200zM1475 201v1099q0 175 -175 175h-1100q-174 0 -175 -175v-1100q1 -175 175 -175h1101q174 0 174 176z" />
    <glyph glyph-name="ogonek" unicode="&#x2db;" 
d="M0 200v1100q0 200 200 200h1100q200 0 200 -200v-1100q0 -200 -200 -200h-1100q-200 0 -200 200zM1475 201v1099q0 175 -175 175h-1100q-174 0 -175 -175v-1100q1 -175 175 -175h1101q174 0 174 176z" />
    <glyph glyph-name="tilde" unicode="&#x2dc;" 
d="M0 200v1100q0 200 200 200h1100q200 0 200 -200v-1100q0 -200 -200 -200h-1100q-200 0 -200 200zM1475 201v1099q0 175 -175 175h-1100q-174 0 -175 -175v-1100q1 -175 175 -175h1101q174 0 174 176z" />
    <glyph glyph-name="hungarumlaut" unicode="&#x2dd;" 
d="M0 200v1100q0 200 200 200h1100q200 0 200 -200v-1100q0 -200 -200 -200h-1100q-200 0 -200 200zM1475 201v1099q0 175 -175 175h-1100q-174 0 -175 -175v-1100q1 -175 175 -175h1101q174 0 174 176z" />
    <glyph glyph-name="endash" unicode="&#x2013;" 
d="M0 200v1100q0 200 200 200h1100q200 0 200 -200v-1100q0 -200 -200 -200h-1100q-200 0 -200 200zM1475 201v1099q0 175 -175 175h-1100q-174 0 -175 -175v-1100q1 -175 175 -175h1101q174 0 174 176z" />
    <glyph glyph-name="emdash" unicode="&#x2014;" 
d="M0 200v1100q0 200 200 200h1100q200 0 200 -200v-1100q0 -200 -200 -200h-1100q-200 0 -200 200zM1475 201v1099q0 175 -175 175h-1100q-174 0 -175 -175v-1100q1 -175 175 -175h1101q174 0 174 176z" />
    <glyph glyph-name="quoteleft" unicode="&#x2018;" 
d="M0 200v1100q0 200 200 200h1100q200 0 200 -200v-1100q0 -200 -200 -200h-1100q-200 0 -200 200zM1475 201v1099q0 175 -175 175h-1100q-174 0 -175 -175v-1100q1 -175 175 -175h1101q174 0 174 176z" />
    <glyph glyph-name="quoteright" unicode="&#x2019;" 
d="M0 200v1100q0 200 200 200h1100q200 0 200 -200v-1100q0 -200 -200 -200h-1100q-200 0 -200 200zM1475 201v1099q0 175 -175 175h-1100q-174 0 -175 -175v-1100q1 -175 175 -175h1101q174 0 174 176z" />
    <glyph glyph-name="quotesinglbase" unicode="&#x201a;" 
d="M0 200v1100q0 200 200 200h1100q200 0 200 -200v-1100q0 -200 -200 -200h-1100q-200 0 -200 200zM1475 201v1099q0 175 -175 175h-1100q-174 0 -175 -175v-1100q1 -175 175 -175h1101q174 0 174 176z" />
    <glyph glyph-name="quotedblleft" unicode="&#x201c;" 
d="M0 200v1100q0 200 200 200h1100q200 0 200 -200v-1100q0 -200 -200 -200h-1100q-200 0 -200 200zM1475 201v1099q0 175 -175 175h-1100q-174 0 -175 -175v-1100q1 -175 175 -175h1101q174 0 174 176z" />
    <glyph glyph-name="quotedblright" unicode="&#x201d;" 
d="M0 200v1100q0 200 200 200h1100q200 0 200 -200v-1100q0 -200 -200 -200h-1100q-200 0 -200 200zM1475 201v1099q0 175 -175 175h-1100q-174 0 -175 -175v-1100q1 -175 175 -175h1101q174 0 174 176z" />
    <glyph glyph-name="quotedblbase" unicode="&#x201e;" 
d="M0 200v1100q0 200 200 200h1100q200 0 200 -200v-1100q0 -200 -200 -200h-1100q-200 0 -200 200zM1475 201v1099q0 175 -175 175h-1100q-174 0 -175 -175v-1100q1 -175 175 -175h1101q174 0 174 176z" />
    <glyph glyph-name="dagger" unicode="&#x2020;" 
d="M0 200v1100q0 200 200 200h1100q200 0 200 -200v-1100q0 -200 -200 -200h-1100q-200 0 -200 200zM1475 201v1099q0 175 -175 175h-1100q-174 0 -175 -175v-1100q1 -175 175 -175h1101q174 0 174 176z" />
    <glyph glyph-name="daggerdbl" unicode="&#x2021;" 
d="M0 200v1100q0 200 200 200h1100q200 0 200 -200v-1100q0 -200 -200 -200h-1100q-200 0 -200 200zM1475 201v1099q0 175 -175 175h-1100q-174 0 -175 -175v-1100q1 -175 175 -175h1101q174 0 174 176z" />
    <glyph glyph-name="bullet" unicode="&#x2022;" 
d="M0 200v1100q0 200 200 200h1100q200 0 200 -200v-1100q0 -200 -200 -200h-1100q-200 0 -200 200zM1475 201v1099q0 175 -175 175h-1100q-174 0 -175 -175v-1100q1 -175 175 -175h1101q174 0 174 176z" />
    <glyph glyph-name="ellipsis" unicode="&#x2026;" 
d="M0 200v1100q0 200 200 200h1100q200 0 200 -200v-1100q0 -200 -200 -200h-1100q-200 0 -200 200zM1475 201v1099q0 175 -175 175h-1100q-174 0 -175 -175v-1100q1 -175 175 -175h1101q174 0 174 176z" />
    <glyph glyph-name="guilsinglleft" unicode="&#x2039;" 
d="M0 200v1100q0 200 200 200h1100q200 0 200 -200v-1100q0 -200 -200 -200h-1100q-200 0 -200 200zM1475 201v1099q0 175 -175 175h-1100q-174 0 -175 -175v-1100q1 -175 175 -175h1101q174 0 174 176z" />
    <glyph glyph-name="guilsinglright" unicode="&#x203a;" 
d="M0 200v1100q0 200 200 200h1100q200 0 200 -200v-1100q0 -200 -200 -200h-1100q-200 0 -200 200zM1475 201v1099q0 175 -175 175h-1100q-174 0 -175 -175v-1100q1 -175 175 -175h1101q174 0 174 176z" />
    <glyph glyph-name="fraction" unicode="&#x2044;" 
d="M0 200v1100q0 200 200 200h1100q200 0 200 -200v-1100q0 -200 -200 -200h-1100q-200 0 -200 200zM1475 201v1099q0 175 -175 175h-1100q-174 0 -175 -175v-1100q1 -175 175 -175h1101q174 0 174 176z" />
    <glyph glyph-name="fraction" unicode="&#x2215;" 
d="M0 200v1100q0 200 200 200h1100q200 0 200 -200v-1100q0 -200 -200 -200h-1100q-200 0 -200 200zM1475 201v1099q0 175 -175 175h-1100q-174 0 -175 -175v-1100q1 -175 175 -175h1101q174 0 174 176z" />
    <glyph glyph-name="franc" unicode="&#x20a3;" 
d="M0 200v1100q0 200 200 200h1100q200 0 200 -200v-1100q0 -200 -200 -200h-1100q-200 0 -200 200zM1475 201v1099q0 175 -175 175h-1100q-174 0 -175 -175v-1100q1 -175 175 -175h1101q174 0 174 176z" />
    <glyph glyph-name="lira" unicode="&#x20a4;" 
d="M0 200v1100q0 200 200 200h1100q200 0 200 -200v-1100q0 -200 -200 -200h-1100q-200 0 -200 200zM1475 201v1099q0 175 -175 175h-1100q-174 0 -175 -175v-1100q1 -175 175 -175h1101q174 0 174 176z" />
    <glyph glyph-name="peseta" unicode="&#x20a7;" 
d="M0 200v1100q0 200 200 200h1100q200 0 200 -200v-1100q0 -200 -200 -200h-1100q-200 0 -200 200zM1475 201v1099q0 175 -175 175h-1100q-174 0 -175 -175v-1100q1 -175 175 -175h1101q174 0 174 176z" />
    <glyph glyph-name="Euro" unicode="&#x20ac;" 
d="M0 200v1100q0 200 200 200h1100q200 0 200 -200v-1100q0 -200 -200 -200h-1100q-200 0 -200 200zM1475 201v1099q0 175 -175 175h-1100q-174 0 -175 -175v-1100q1 -175 175 -175h1101q174 0 174 176z" />
    <glyph glyph-name="uni2116" unicode="&#x2116;" 
d="M0 200v1100q0 200 200 200h1100q200 0 200 -200v-1100q0 -200 -200 -200h-1100q-200 0 -200 200zM1475 201v1099q0 175 -175 175h-1100q-174 0 -175 -175v-1100q1 -175 175 -175h1101q174 0 174 176z" />
    <glyph glyph-name="trademark" unicode="&#x2122;" 
d="M0 200v1100q0 200 200 200h1100q200 0 200 -200v-1100q0 -200 -200 -200h-1100q-200 0 -200 200zM1475 201v1099q0 175 -175 175h-1100q-174 0 -175 -175v-1100q1 -175 175 -175h1101q174 0 174 176z" />
    <glyph glyph-name="partialdiff" unicode="&#x2202;" 
d="M0 200v1100q0 200 200 200h1100q200 0 200 -200v-1100q0 -200 -200 -200h-1100q-200 0 -200 200zM1475 201v1099q0 175 -175 175h-1100q-174 0 -175 -175v-1100q1 -175 175 -175h1101q174 0 174 176z" />
    <glyph glyph-name="Delta" unicode="&#x2206;" 
d="M0 200v1100q0 200 200 200h1100q200 0 200 -200v-1100q0 -200 -200 -200h-1100q-200 0 -200 200zM1475 201v1099q0 175 -175 175h-1100q-174 0 -175 -175v-1100q1 -175 175 -175h1101q174 0 174 176z" />
    <glyph glyph-name="product" unicode="&#x220f;" 
d="M0 200v1100q0 200 200 200h1100q200 0 200 -200v-1100q0 -200 -200 -200h-1100q-200 0 -200 200zM1475 201v1099q0 175 -175 175h-1100q-174 0 -175 -175v-1100q1 -175 175 -175h1101q174 0 174 176z" />
    <glyph glyph-name="summation" unicode="&#x2211;" 
d="M0 200v1100q0 200 200 200h1100q200 0 200 -200v-1100q0 -200 -200 -200h-1100q-200 0 -200 200zM1475 201v1099q0 175 -175 175h-1100q-174 0 -175 -175v-1100q1 -175 175 -175h1101q174 0 174 176z" />
    <glyph glyph-name="minus" unicode="&#x2212;" 
d="M0 200v1100q0 200 200 200h1100q200 0 200 -200v-1100q0 -200 -200 -200h-1100q-200 0 -200 200zM1475 201v1099q0 175 -175 175h-1100q-174 0 -175 -175v-1100q1 -175 175 -175h1101q174 0 174 176z" />
    <glyph glyph-name="radical" unicode="&#x221a;" 
d="M0 200v1100q0 200 200 200h1100q200 0 200 -200v-1100q0 -200 -200 -200h-1100q-200 0 -200 200zM1475 201v1099q0 175 -175 175h-1100q-174 0 -175 -175v-1100q1 -175 175 -175h1101q174 0 174 176z" />
    <glyph glyph-name="infinity" unicode="&#x221e;" 
d="M0 200v1100q0 200 200 200h1100q200 0 200 -200v-1100q0 -200 -200 -200h-1100q-200 0 -200 200zM1475 201v1099q0 175 -175 175h-1100q-174 0 -175 -175v-1100q1 -175 175 -175h1101q174 0 174 176z" />
    <glyph glyph-name="integral" unicode="&#x222b;" 
d="M0 200v1100q0 200 200 200h1100q200 0 200 -200v-1100q0 -200 -200 -200h-1100q-200 0 -200 200zM1475 201v1099q0 175 -175 175h-1100q-174 0 -175 -175v-1100q1 -175 175 -175h1101q174 0 174 176z" />
    <glyph glyph-name="approxequal" unicode="&#x2248;" 
d="M0 200v1100q0 200 200 200h1100q200 0 200 -200v-1100q0 -200 -200 -200h-1100q-200 0 -200 200zM1475 201v1099q0 175 -175 175h-1100q-174 0 -175 -175v-1100q1 -175 175 -175h1101q174 0 174 176z" />
    <glyph glyph-name="lessequal" unicode="&#x2264;" 
d="M0 200v1100q0 200 200 200h1100q200 0 200 -200v-1100q0 -200 -200 -200h-1100q-200 0 -200 200zM1475 201v1099q0 175 -175 175h-1100q-174 0 -175 -175v-1100q1 -175 175 -175h1101q174 0 174 176z" />
    <glyph glyph-name="greaterequal" unicode="&#x2265;" 
d="M0 200v1100q0 200 200 200h1100q200 0 200 -200v-1100q0 -200 -200 -200h-1100q-200 0 -200 200zM1475 201v1099q0 175 -175 175h-1100q-174 0 -175 -175v-1100q1 -175 175 -175h1101q174 0 174 176z" />
    <glyph glyph-name="uniF001" unicode="&#xf001;" horiz-adv-x="1073" 
 />
    <glyph glyph-name="uniF001" unicode="&#xfb01;" horiz-adv-x="1073" 
 />
    <glyph glyph-name="uniF002" unicode="&#xf002;" horiz-adv-x="1081" 
 />
    <glyph glyph-name="uniF002" unicode="&#xfb02;" horiz-adv-x="1081" 
 />
  </font>
</defs>
</svg>
