<?xml version="1.0" standalone="no"?>
<!DOCTYPE svg PUBLIC "-//W3C//DTD SVG 1.1//EN" "http://www.w3.org/Graphics/SVG/1.1/DTD/svg11.dtd" >
<svg xmlns="http://www.w3.org/2000/svg" xmlns:xlink="http://www.w3.org/1999/xlink" version="1.1">
<metadata>
Created by FontForge 20170731 at Thu Apr  4 10:33:42 2019
 By Aleksey,,,
The Gunslinger Waterdrop (c)Figuree 2019. All Rights Reserved
</metadata>
<defs>
<font id="TheGunslingerWaterdrop" horiz-adv-x="274" >
  <font-face 
    font-family="The Gunslinger Waterdrop"
    font-weight="400"
    font-stretch="normal"
    units-per-em="1000"
    panose-1="2 0 5 0 0 0 0 0 0 0"
    ascent="800"
    descent="-200"
    x-height="215"
    cap-height="648"
    bbox="-2034 -621 4145 808"
    underline-thickness="50"
    underline-position="-175"
    unicode-range="U+001D-E393"
  />
<missing-glyph horiz-adv-x="0" 
 />
    <glyph glyph-name="e_e" unicode="ee" horiz-adv-x="465" 
d="M358 171q0 2 -1 2q-2 0 -15 -8q-7 -3 -31 -22q-19 -15 -36 -30q-16 -15 -20 -23h6h10q6 0 7 1q25 5 49 30q25 25 31 50zM128 180q0 2 -2 2q-3 0 -9 -3q-2 -1 -9 -5.5t-13 -7.5q-18 -12 -28 -19q-3 -2 -23 -19q-6 -6 -6 -8v-1h3h6q4 0 6 1q27 5 47 20q22 16 28 40z
M298 -26v-138q0 -2 -1 -3t-3 -1t-3 1t-1 3v139q-6 2 -9 2v-57q0 -2 -1 -3t-3 -1t-3 1t-1 3v59q-61 17 -78 66q-36 -69 -118 -72v-96q0 -2 -1 -3t-3 -1t-3 1t-1 3v96q-1 0 -5 0.5t-5 0.5v-31q0 -1 -2 -3t-5 -2t-5 2t-2 3v33q-64 13 -85 57q-8 19 -8 37q0 40 33 86
q24 27 64 55q31 21 60 21q7 0 17 -2q42 -18 50 -60q1 -4 1 -11q0 -28 -20 -51v-33q0 -3 -2 -5t-5 -2t-5 2t-2 5v20q-31 -22 -57 -23h-11q-19 0 -36 6q-12 4 -23 11l-2 1q-6 -4 -10 -16q-7 -15 -8 -27v-6q0 -8 4 -11q24 -12 60 -12q35 0 71 12q43 13 61 50q3 35 33 76
q23 26 63 48q28 16 55 16q11 0 21 -3q45 -19 45 -57q0 -10 -7 -37q-8 -29 -71 -54q-30 -10 -56 -10q-21 0 -33 2h-3q-6 -5 -6 -11q0 -1 2 -11q2 -8 16 -14q21 -7 49 -7q34 0 71 12q62 20 73 88v1q0 1 1 2q0 1 1 2l9 3l4 1l3 -1q3 0 3 -2l-1 -2q-13 -63 -51 -107
q-35 -42 -98 -42h-6q-2 0 -5.5 0.5t-5.5 0.5z" />
    <glyph glyph-name="g_j" unicode="gj" horiz-adv-x="428" 
d="M30 178q-2 1 -5 1h-5q-1 0 -9 -2q-4 -1 -8 -3q-17 -8 -39 -29q-28 -26 -41 -41q-10 -11 -31 -37q-10 -13 -10 -16h1l2 1l6 3q13 8 39 29q9 7 47 40q30 28 38 36q15 16 15 18zM-57 -384q30 62 72 159q-60 -90 -72 -159zM218 281q0 1 7 13q10 16 17 25l16 24l8 11q4 2 6 2
q4 0 15 -7q10 -9 17 -18q7 -11 7 -20l-7 -10q-2 -4 -7.5 -12t-8.5 -13q-4 -5 -10.5 -14t-6.5 -10q-8 -11 -8 -12h-1q-2 -1 -3 -1h-4q-11 5 -15 9q-9 5 -17 15q-5 8 -5 16v2zM-175 -168q-34 -31 -50 -59q-19 -30 -25 -54q-4 -12 -4 -20q0 -3 2 -5q8 -2 14 -2q7 0 15 2
q20 8 46 38q25 29 49 67q19 29 40 66q15 29 15 33q-3 0 -16 -9q-3 -2 -15 -9.5t-19 -12.5t-18.5 -12.5t-16.5 -10.5zM243 181v-64q0 -2 -1 -3q-2 -2 -3 -2t-3 2t-2 3v40q-3 -9 -11 -29q-24 -67 -54 -140q46 34 120 140q2 3 8 9q1 1 4 1q4 0 6 -1q2 -4 2 -8v-5l-4 -12
q-2 -5 -5 -11q-6 -10 -16.5 -25t-12.5 -18q-14 -21 -35 -49q-14 -18 -36 -39q-51 -48 -67 -62l-27 -66v-258q0 -2 -1 -3t-3 -1t-3 1t-1 3v239q-34 -80 -75 -175q-3 -6 -8 -17t-7 -15v-81q0 -2 -2 -6q-3 -3 -7 -3q-5 0 -6 3q-3 3 -3 6v44l-8 -16v-129q0 -2 -1 -3t-4 -1
q-1 0 -2 1q-2 2 -2 3v113q-15 -26 -22 -30q-2 -1 -5 -1q-10 0 -22 9q-28 20 -32 57q-2 12 -2 20q0 14 3 34q7 58 52 141q43 81 138 162q18 44 27 65q-48 -45 -96 -70q-2 -3 -6 -11q-103 -212 -169 -264q-10 -7 -23 -13q-8 -2 -13 -2v-82q0 -2 -1 -3q-2 -2 -3 -2t-3 2t-2 3
v82h-3q-47 5 -72 37q-19 23 -19 54q0 11 3 24q24 83 87 129q65 46 123 71q40 17 62 33l36 77l-6 -4q-12 -12 -46 -38v-30q0 -3 -2 -5t-5 -2t-5 2t-2 5v20q-24 -17 -48 -21h-5q-24 0 -46 20q-21 20 -21 42l1 6q6 31 34 65q27 33 60 61q31 26 49 34q9 3 19 3q12 0 28 -6
q18 -8 33 -23q1 1 3 4q2 2 3 4q1 1 6 7t8 10q5 6 15 16q7 6 11 6q12 -1 26 -15q13 -14 14 -25q-1 -6 -15 -38q-14 -31 -30 -66q-10 -23 -18 -39q-8 -18 -8 -20l-1 -2q-1 -2 -1 -3q-1 -3 -5 -11l-6 -12q58 21 97 85q9 22 22.5 56t18.5 47q15 39 16 40q1 4 6 4q4 0 7 -1
q4 -1 15 -9q11 -9 15 -18q3 -8 3 -12v-5z" />
    <glyph glyph-name="j_j" unicode="jj" horiz-adv-x="234" 
d="M-271 354q2 2 6 2q7 0 15 -7q7 -5 17 -18q7 -12 7 -17v-2q-3 -4 -7 -11q-12 -18 -17 -25q-2 -3 -5.5 -8t-6 -9t-4.5 -7q-8 -11 -8 -12h-2l-2 -1h-4q-13 7 -16 9q-9 6 -15 15q-7 7 -7 16l1 2q0 3 7 13q3 5 9 13.5t8 11.5t5.5 8t6 9t4.5 7q6 11 8 11zM-687 -247
q-10 -11 -20 -29q-11 -19 -11 -30q0 -1 3 -1q5 0 8 1q5 0 8 1h4q20 7 47 35q21 21 51 58q25 32 42 57q16 23 16 27q-1 0 -18 -11t-42 -30q-34 -26 -50 -39q-25 -22 -38 -39zM-481 -383q30 60 72 159q-60 -90 -72 -159zM-338 99v-61q0 -1 -1 -2q-2 -2 -4 -2l-2 2l-2 2v44
q-2 -5 -8.5 -16.5t-9.5 -17.5q-6 -11 -14.5 -26t-10.5 -20q43 10 95 49q21 54 53 134q18 45 22 57q2 5 7 5q4 0 7 -1q2 -1 15 -10q11 -9 15 -18q3 -6 3 -11v-6q-2 -5 -27 -73q-44 -113 -55 -140q44 35 120 140q2 3 8 9q2 2 4 2t6 -2q2 -2 2 -7v-6l-4 -12q-2 -5 -5 -11
q-12 -19 -29 -42q-20 -30 -35 -50q-14 -18 -36 -39q-18 -18 -31 -29v-85q0 -3 -3 -6t-6 -3q-4 0 -6 3q-3 3 -3 6v68q-1 -2 -4.5 -4.5t-5.5 -4.5v-32q0 -2 -1 -3t-3 -1t-3 1t-1 3v25q-55 -133 -111 -259q-50 -111 -68 -129v-137q0 -2 -1 -3t-3 -1t-3 1t-1 3v134q-9 0 -22 8
q-27 19 -33 57l-1 16q0 16 3 39q8 59 51 140q44 82 139 162q7 19 17 40q-42 -32 -69 -46q-34 -17 -50 -20q-3 -5 -11 -19q-30 -51 -87 -134q-41 -59 -76 -88v-64q0 -3 -2 -5t-5 -2t-5 2t-2 5v53q-3 -1 -7 -4t-7 -5v-133q0 -2 -1 -3t-3 -1t-3 1t-1 3v130q-6 -2 -10 -2
q-12 -2 -22 -2q-33 5 -60 27q-22 19 -22 47q0 8 1 11q12 50 60 95t103 79q60 38 96 56q31 18 35 21q7 7 24 40q23 42 41 77q2 4 18.5 36t24.5 47q20 38 24 46l10 18q1 1 3 1q6 0 15 -6q10 -7 18 -16q8 -11 8 -19q0 -6 -13 -31q-19 -38 -31 -61q-6 -10 -8 -14zM-147 241
l-1 -1q-1 -1 -3 -1h-4q-7 1 -16 9q-8 5 -16 15q-6 7 -6 16l1 2q0 3 7 13q2 2 7.5 11t9.5 14q2 3 5.5 8t6 9t4.5 7l8 11q2 2 6 2q6 0 15 -6q11 -9 17 -19q7 -11 7 -19l-8 -11q-3 -4 -8 -12.5t-8 -12.5q-4 -5 -10 -15v-57q0 -3 -2 -5t-5 -2q-2 0 -4 2q-3 1 -3 5v37z" />
    <glyph glyph-name="q_j" unicode="qj" horiz-adv-x="390" 
d="M41 -385q33 70 71 159q-59 -88 -71 -159zM322 277q0 3 7 13q2 4 16 25q2 3 17 24q6 11 8 11q2 2 5 2q6 0 15 -6t17 -19t8 -19q-3 -4 -8 -11q-6 -9 -16 -25q-2 -3 -17 -24q-8 -11 -8 -12h-1q-1 -1 -2 -1h-4q-6 3 -16 9q-11 7 -16 15q-6 9 -6 16zM12 70q15 5 44 22
q22 14 49 34q21 16 40 33l16 16l-5 7q-6 8 -10 12q-2 2 -4.5 5t-3.5 4q-33 -18 -73 -61q-42 -43 -56 -69q-1 0 -1 -2q-2 -1 -2 -3l3 1q1 1 3 1zM193 103v-47q0 -2 -1 -3q-2 -2 -3 -2t-3 2q-1 1 -1 3v33l-3 -6l-2.5 -5t-2.5 -4v-81q0 -2 -1 -3t-4 -1q-1 0 -2 1q-2 2 -2 3v64
q-18 -35 -60 -119q-43 -90 -55 -145q44 75 128 144l121 303q2 5 6 5t7 -1q2 -1 15 -10q10 -9 15 -18q4 -7 4 -12v-4l-1 -1q-2 -5 -27 -73q-44 -113 -55 -140q46 34 120 140q2 3 8 9q2 2 5 2q1 0 5 -2q2 -4 2 -7v-6q-2 -4 -3 -12q-3 -8 -6 -11q-6 -10 -16.5 -25t-12.5 -18
q-22 -33 -34 -49q-14 -18 -36 -39q-2 -2 -6.5 -6t-7.5 -7v-68q0 -3 -2 -5t-5 -2t-5 2t-2 5v55q-6 -6 -20 -18.5t-19 -17.5q-62 -149 -111 -260q-45 -99 -64 -124v-128q0 -2 -1 -3t-4 -1q-1 0 -2 1q-2 2 -2 3v121h-4q-4 0 -10 2v-37q0 -3 -2 -5t-5 -2q-2 0 -4 2q-3 1 -3 5v45
q-26 20 -30 55q-2 10 -2 18q0 19 4 36q6 47 35 110q-14 14 -20 33q-4 12 -4 26q0 8 1 12q8 63 80 205q4 8 6 11l2.5 5t1.5 4l-1 2l-2 -2q-30 -18 -62 -21h-9q-27 0 -50 23q-19 20 -19 40q0 12 10 32q12 22 41 51q16 18 48 49q31 27 49 36q6 2 9 2q14 0 30 -13q18 -15 29 -27
q8 -9 9 -9t3 5q1 2 1.5 5t0.5 5q0 4 1 6q0 2 1 3q1 4 7 4q3 0 14 -6q8 -6 18 -20q7 -10 7 -20v-7q0 -1 -0.5 -2.5l-1.5 -4.5t-2 -5t-3.5 -9t-4.5 -10q-4 -11 -6 -12q-1 -1 -3 -5q-3 -6 -6 -11z" />
    <glyph glyph-name="l_l" unicode="ll" horiz-adv-x="283" 
d="M345 440v-51q0 -2 -1 -3t-3 -1t-3 1q-2 2 -2 3v36q-24 -41 -63 -99q-61 -93 -127 -204q-61 -103 -72 -160v-6q0 -7 1 -11t1 -10v-3q-2 -5 -7 -5l-4 1q-1 0 -2 1v-130q0 -2 -1 -3q-2 -2 -3 -2t-3 2q-1 1 -1 3v133q-14 7 -22 25q-7 14 -7 31q0 9 1 14q12 53 77 166
q71 120 132 214q10 16 32 51t31 50q25 41 26 50q2 8 8 8l4 -1q4 0 15 -8q9 -8 16 -20q5 -10 5 -16l-1 -5q-8 -18 -27 -51zM102 256v-53q0 -3 -2 -5t-5 -2t-5 2t-2 5v31l-10 -16v-62q0 -2 -1 -3q-2 -2 -3 -2t-3 2q-1 1 -1 3v49q-42 -68 -62 -102q-50 -85 -60 -141v-6
q0 -7 1 -11t1 -10v-3q-2 -5 -7 -5l-3 1v-89q0 -2 -1 -3t-4 -1q-1 0 -2 1q-2 2 -2 3v92q-1 1 -3.5 2t-3.5 2v-30q0 -3 -2 -5t-5 -2t-5 2t-2 5v46l-3 6q-7 14 -7 31q0 9 1 14q12 54 66 147q54 94 107 178q34 53 52 83q20 33 21 43q1 7 7 7h7q3 -1 14 -9q9 -6 16 -19
q4 -7 4 -15q0 -4 -1 -6q-18 -44 -82 -140q-1 -3 -5 -8t-5 -7z" />
    <glyph glyph-name="f_j" unicode="fj" horiz-adv-x="368" 
d="M-7 -384q33 65 71 159q-59 -90 -71 -159zM271 280q0 3 7 13q2 3 4.5 7t6 9t5.5 8q4 5 9 13t8 12l8 11q4 2 6 2q7 0 15 -7q7 -5 16 -19q8 -13 8 -19l-8 -11q-2 -3 -4.5 -7t-6 -9t-5.5 -8t-8 -11.5t-9 -13.5l-8 -11q-1 0 -3 -1h-4q-6 1 -16 8q-9 7 -16 16q-5 7 -5 16v2z
M59 120q-4 3 -8 4q-3 3 -6 3l-2 1q-1 0 -6 -9q-3 -5 -10 -19q-2 -4 -5.5 -10.5t-4.5 -8.5q-4 -7 -4 -9q0 -3 7 -6q16 -6 18 -7q14 -4 20 -6q2 -1 5 -2l4.5 -1.5t2.5 -0.5h3q1 0 3 -1h1l1 1q0 1 1 1l1 2v1q2 16 2 23q0 4 -2 20q-3 12 -21 24zM-4 38q-41 -83 -53 -132l-1 -4
v-4q2 0 3 1h2q20 8 43 26q18 14 39 37q19 22 26 33q9 13 9 15l-10 5q-14 5 -49 28v-76q0 -2 -1 -3q-2 -2 -3 -2t-3 2t-2 3v71zM285 159v-72q0 -2 -2 -4q-1 -3 -5 -3t-5 3q-2 2 -2 4v36q-21 -56 -53 -136q46 34 120 140q3 5 8 8q2 2 5 2t5 -1q2 -4 2 -8v-6q0 -1 -1 -3
t-1.5 -4.5t-1.5 -4.5l-2 -4t-2 -3.5t-1 -2.5q-6 -10 -16.5 -25t-12.5 -18q-22 -33 -34 -49q-14 -18 -36 -39q-17 -17 -67 -62q-5 -12 -13.5 -33t-11.5 -28v-58q0 -2 -1 -3q-2 -2 -3 -2t-3 2q-1 1 -1 3v39q-40 -96 -78 -180q-31 -68 -51 -103v-72q0 -3 -2 -5q-4 -2 -5 -2
q-3 0 -5 2t-2 5v51l-7 -7l-5 -1v-122q0 -1 -1 -2q-2 -2 -3 -2t-3 2q-1 1 -1 2v123q-11 5 -14 8q-28 20 -32 57q-1 5 -1 17q0 16 3 37q8 59 51 140t139 163l15 37.5l17 42.5q-20 -14 -42 -19q-22 -57 -69 -103q-48 -48 -100 -48q-2 0 -5 1t-4 1v-118q0 -2 -1 -3q-2 -2 -3 -2
t-3 2q-1 1 -1 3v121q-12 5 -24 19q-18 20 -21 43q0 29 23 86q22 55 43 95q-13 23 -13 46q0 6 2 16q4 25 38 25q7 0 12 -1h1q1 -1 4 -1q1 0 2 1v2q1 1 3 5q9 18 25 45q7 12 24.5 41.5t27.5 47.5q23 41 49 90q21 40 22 50q1 9 7 9q7 -2 14 -6q10 -8 15 -13q7 -7 9 -12
q3 -6 3 -11v-3q0 -2 -2 -10q-1 -6 -9 -20l-3 -5v-68q0 -3 -2 -5t-5 -2t-5 2t-2 5v42l-10 -18v-231q0 -2 -1 -3t-3 -1t-3 1q-2 2 -2 3v215l-98 -177q30 -17 48 -44t23 -55v-1q1 -4 2 -4h5q14 3 28 10q15 7 27 21q29 73 44 112q5 13 9.5 24t7 16.5t2.5 6.5q1 4 8 4q3 0 6 -1
q4 -1 14 -10q10 -8 15 -18q5 -8 5 -12l-1 -3l-1 -1q-1 -3 -3 -8t-5.5 -14.5t-6.5 -18.5z" />
    <glyph glyph-name="y_j" unicode="yj" horiz-adv-x="442" 
d="M-18 -385q30 60 72 159q-60 -90 -72 -159zM260 279q0 2 8 13q2 4 16 25q2 3 5.5 8t6 9t4.5 7q6 11 8 11q4 2 6 2q7 0 15 -7q7 -5 17 -18q7 -12 7 -18v-2l-7 -10q-3 -4 -8 -12t-9 -13q-2 -3 -5.5 -8t-6 -9t-4.5 -7q-8 -11 -8 -12h-3l-1 -1h-4q-2 1 -16 9q-9 6 -15 15
t-6 16v2zM-183 -198q-14 -16 -30 -45q-13 -25 -17 -44q-2 -8 -2 -11q0 -8 4 -9q8 -2 13 -2q2 0 6 0.5t5 0.5q20 7 47 37q26 31 50 68q23 35 41 68l16 32l-1 -1h-2q-81 -39 -130 -94zM128 137v-89q0 -2 -1 -3t-4 -1q-2 0 -3 1t-1 3v68l-33 -75l-19 -41q49 10 102 53
q7 18 53 133q20 52 21 54q2 5 7 5q4 0 7 -1q2 -1 15 -10q10 -9 15 -18q3 -8 3 -12v-4l-1 -1q-12 -32 -27 -73q-44 -113 -55 -140q46 34 120 140q1 2 4 5l4 4q2 2 5 2q1 0 5 -2q2 -4 2 -7v-6l-3 -12q-3 -8 -6 -11q-6 -10 -16.5 -25t-12.5 -18q-13 -21 -34 -49
q-13 -18 -36 -39q-49 -46 -63 -58v-78q0 -2 -1 -3q-2 -2 -3 -2t-3 2t-2 3v62q-65 -156 -106 -248q-54 -119 -71 -131h-1v-60q0 -2 -1 -3q-2 -2 -3 -2t-3 2t-2 3v60q-7 1 -17 8q-29 19 -33 57q-1 5 -1 18q0 16 3 36q8 60 51 141q44 82 139 162l18 44q-71 -55 -115 -67l-4 -7
q-26 -56 -75 -143q-48 -82 -98 -114q-8 -4 -12 -5v-83q0 -3 -2 -5t-5 -2t-5 2t-2 5v81h-9v-130q0 -2 -1 -3t-3 -1q-1 0 -2 1q-2 2 -2 3v131q-40 7 -64 37q-19 23 -19 54q0 12 3 24q23 75 87 123q66 49 142 87l30 16l13 7l25 52l-2 -2q-21 -21 -29 -28q-24 -21 -49 -36
q-21 -12 -39 -12q-8 0 -11 1q-27 9 -42 32q-13 19 -13 43l1 9q6 29 29 77q22 45 51 82q27 35 47 35l2 -1q10 -1 22 -12q11 -10 15 -21q1 -2 1 -5q0 -6 -7 -9q-10 -5 -22 -16v-58q0 -4 -2 -6q-3 -3 -7 -3q-3 0 -6 3q-3 1 -3 6v37q-2 -2 -2 -3q-25 -34 -42 -70
q-18 -34 -25 -61q-1 -1 -1 -2q-1 -3 -1 -6l3 1q1 1 2 1q50 28 113 96q65 73 97 116q3 5 8 10q1 1 4 3q3 0 5 -1q8 -1 19 -9q9 -7 15 -18q3 -6 3 -12q0 -4 -1 -7z" />
    <glyph glyph-name="z_j" unicode="zj" horiz-adv-x="287" 
d="M-47 -78l18 16q4 10 16.5 40.5t18.5 46.5q-21 -18 -50 -32q4 -22 4 -32q0 -18 -7 -39zM-168 -385q33 70 71 159q-59 -88 -71 -159zM109 280l1 1q1 1 1.5 2.5t2 4t3.5 4.5q6 9 16 25q2 3 5.5 8t6 9t4.5 7q7 11 9 12q1 0 3 0.5t3 0.5q6 0 14 -7q10 -7 17 -18q8 -13 8 -19
l-8 -11q-2 -3 -4.5 -7t-6 -9t-5.5 -8q-4 -7 -17 -25l-8 -11q-1 -1 -3 -1h-4q-6 1 -16 8q-6 4 -16 16q-6 8 -6 15v3zM-104 -31q-62 -45 -99 -156q-2 -8 -4 -12q-1 -5 -3 -13l-1 -6q4 4 11 13q32 37 59 79q29 42 47 87q4 9 4 13v2h-1q-1 0 -13 -7zM24 158v-33q0 -1 -1 -2
q-2 -2 -3 -2t-3 2l-2 2v24l-5 -5v-50q0 -4 -1 -6q-1 -3 -4 -3t-4 3q-2 4 -2 6v41q-16 -13 -38 -29q-6 -5 -17.5 -13.5t-16.5 -12.5q-12 -10 -12 -16v-1l2 -3q3 -3 4 -5t4 -5q1 -2 3 -4q13 4 23 5q25 5 47 15q22 9 37 30q27 70 40 100q16 43 17 45q1 4 7 4q4 0 7 -1
q4 -2 15 -9q11 -9 15 -18q3 -7 3 -13v-4q-2 -5 -27 -73q-15 -40 -56 -140q45 33 121 140q3 5 8 8q2 2 5 2t5 -1q2 -4 2 -8v-6q-2 -6 -4 -11t-5 -11q-6 -10 -16.5 -25t-12.5 -18q-14 -21 -35 -49q-14 -18 -36 -39q-51 -48 -67 -62q-7 -16 -24.5 -59t-27.5 -66v-136
q0 -2 -1 -3q-2 -2 -3 -2t-3 2q-1 1 -1 3v117q-1 -1 -2.5 -5t-2.5 -6v-55q0 -3 -2 -5t-5 -2t-5 2t-2 5v22q-28 -64 -32 -72q-51 -116 -70 -130v-91q0 -1 -1 -2q-2 -2 -3 -2t-3 2l-2 2v89q-8 1 -19 9q-27 20 -33 57q-1 5 -1 15q0 16 3 39q4 31 20 75q-13 -8 -21 -8l-4 1
q-6 2 -9 4v-205q0 -2 -1 -3t-3 -1t-3 1t-1 3v210l-3 3q-10 7 -16 18q-8 14 -8 36q0 18 11 64q10 42 44 99q32 56 73 82q5 2 13.5 6t12.5 6q11 3 12 7v1q0 4 -7 14q-24 32 -24 49q0 4 5 17q4 10 43 35q10 8 16 12q11 7 18 12q11 7 12 9v1h-6q-2 0 -16 -2q-3 -1 -8 -2
t-10 -2.5t-10 -2.5q-25 -4 -34 -8q-9 -3 -13 -3q-12 3 -20 13q-11 11 -15 20q-2 4 -2 6q0 4 4 7q11 7 32 12q35 7 61 10q27 3 43 3h12q20 -3 39 -19t19 -35v-2q-3 -10 -13 -20z" />
    <glyph glyph-name="t_h" unicode="th" horiz-adv-x="432" 
d="M233 425v-50q0 -1 -2 -3t-5 -2q-2 0 -4 2t-2 3v24q-8 -17 -26 -49q40 4 61 5q11 17 37 61q15 26 15 31q0 7 6 7h6q5 -2 15 -9q9 -6 16 -19q5 -8 5 -15q0 -2 -2 -8q-4 -11 -23 -44h35q80 -3 134 -28q48 -23 48 -47q0 -3 -2 -9q-3 -6 -5 -6q-3 0 -8 4q-8 8 -43 20
q-56 16 -109 17v-80q0 -1 -1 -2t-3 -1t-3 1l-2 2v81h-15q-30 0 -58 -3q-11 -17 -68 -105q-4 -6 -5 -8q-3 -1 -3 -3l1 -1q2 0 3 1t11 6q4 2 7 4q6 3 18.5 9t19.5 9q20 10 32 10q21 -4 37 -25q11 -17 11 -33q0 -8 -1 -11q-6 -18 -28 -51q-7 -11 -17 -29q-6 -11 -8 -20v-3
q0 -22 18 -22h10q12 2 35 23q25 23 32 60v1q1 1 1 2l2 2q2 1 8 3h4h4q2 0 2 -4q-16 -60 -59 -97q-40 -36 -80 -39v-109q0 -2 -1 -3t-3 -1t-3 1t-1 3v109l-10 2v-27q0 -3 -2 -5t-5 -2t-5 2t-2 5v34q-13 10 -18 33v3q0 18 16 51q19 39 40 75q-60 -28 -108 -63v-72q0 -1 -1 -2
q-2 -2 -3 -2t-3 2q-1 1 -1 2v66q-44 -36 -45 -85v-6l1 -1l7 -7q1 -1 2.5 -3t3 -4.5t2.5 -3.5q4 -7 4 -13q0 -4 -1 -5q-2 -2 -4 -2h-5h-3v1q-27 10 -43 37q-40 -45 -75 -51v-26q0 -1 -1 -2l-2 -2q-1 0 -3 2q-1 1 -1 2v25h-8v-124q0 -2 -1 -3t-3 -1q-1 0 -2 1t-1 3v126
q-20 4 -29 31q-3 9 -3 22q0 33 23 90q32 68 99 191q-22 -2 -33 -2q-68 0 -105 39q-19 23 -19 29q0 1 1 1q27 -17 45 -20q12 -2 21 -2q7 0 25 2q7 1 27 3.5t33 4.5q10 1 39 5l1 1q0 2 1 2q37 61 68 132q0 1 0.5 3.5t1.5 3.5v4v4q3 4 7 4t12 -3q8 -5 18 -16q11 -14 11 -25
q0 -3 -1 -8q0 -2 -7 -18zM116 206q-2 -4 -6.5 -12t-6.5 -12q-33 -59 -54 -106q-24 -50 -24 -69v-3q1 -16 11 -16q2 0 14 5q14 6 34 29q-2 14 -2 20v11q7 37 38 89q25 45 61 98q2 2 5 6.5t4 7.5l1 1q1 1 1 2q18 26 27 41q-6 -1 -16 -2.5t-15 -1.5t-14 -2t-13 -2
q-6 -12 -18.5 -35t-18.5 -34v-48q0 -2 -1 -3t-3 -1t-3 1t-1 3v33z" />
    <glyph glyph-name="z_z" unicode="zz" horiz-adv-x="369" 
d="M-63 -323q4 0 23 31q54 84 104 176q41 76 41 91l-1 1q-20 0 -71 -84q-36 -60 -67 -124q-29 -66 -29 -89v-2zM-161 -103q-22 -37 -40 -89l-4 -12q-1 -8 -3 -12q0 -2 -1 -5q-1 -1 -1 -2q2 0 12 13q76 89 106 166l4 13l-1 2q-3 0 -14 -8q-29 -21 -52 -56v-44q0 -2 -1 -2
q-1 -1 -2 -1t-2 1q-1 0 -1 2v34zM-69 -402v-95q0 -1 -1 -2t-2 -1q-2 0 -3 1t-1 2v94q-7 2 -19 11q-10 7 -15 19q-6 11 -6 28q0 33 21 100q18 61 64 149q43 82 85 109q12 7 27 13q10 3 11 7q0 6 -7 14l-15 23q-31 -40 -91 -71v-36q0 -2 -1 -3t-3 -1t-3 1q-2 2 -2 3v31
q-2 -1 -6.5 -3t-6.5 -3q5 -18 5 -33t-6 -34q-12 -38 -68 -122q-71 -101 -107 -101h-4v-76q0 -1 -1 -2t-2 -1t-2 1t-1 2v79q-4 1 -13 8q-24 19 -24 56q0 71 54 162q44 75 99 93q11 4 12 9q0 6 -7 14q-23 32 -23 49q0 22 47 52q8 4 18 12q6 5 18 13q8 5 11 8v1q-2 0 -18 -2
q-16 -4 -23 -5q-40 -10 -47 -10q-12 5 -21 14q-16 13 -16 26q0 8 40 17q54 12 90 12q26 0 52 -20q18 -16 18 -36q-1 -8 -15 -23v-64q0 -2 -1 -3t-3 -1q-1 0 -2 1t-1 3v57q-15 -15 -53 -43q-46 -33 -46 -42q0 -2 2 -4l1 -2l3 -3q1 -3 4 -6l2 -4q10 3 30 7q75 13 103 49
q0 14 13 26q15 13 34 27q7 5 18 12q10 9 16 12q12 7 12 9q0 1 -4 1q-22 -4 -46 -10l-11 -1q-13 3 -21 13q-16 13 -16 27q0 8 35 16q34 6 70 6q26 0 51 -20q18 -15 18 -35q-6 -25 -75 -73q-8 -6 -19.5 -14.5t-14.5 -11.5q-13 -10 -13 -17l3 -3q3 -8 10 -15l23 6q28 4 56 19
q27 14 40 49q0 2 1 3t3 2q1 1 2 1t1.5 0.5t1.5 0.5q2 1 5 1q6 -1 6 -4q-17 -88 -111 -131q4 -15 4 -33q0 -35 -29 -84q-2 -5 -7 -13v-31q0 -1 -1 -2t-2 -1q-2 0 -3 1t-1 2v18q-4 -6 -18.5 -31.5t-25.5 -44.5q-73 -122 -114 -160v-37q0 -3 -2 -5t-4 -2q-3 0 -5 2t-2 5v27
q-6 -4 -9 -5z" />
    <glyph glyph-name=".notdef" horiz-adv-x="0" 
 />
    <glyph glyph-name=".null" horiz-adv-x="0" 
 />
    <glyph glyph-name=".null" horiz-adv-x="0" 
 />
    <glyph glyph-name="nonmarkingreturn" horiz-adv-x="0" 
 />
    <glyph glyph-name="space" unicode=" " horiz-adv-x="216" 
 />
    <glyph glyph-name="space" unicode="&#xa0;" horiz-adv-x="216" 
 />
    <glyph glyph-name="exclam" unicode="!" horiz-adv-x="236" 
d="M55 -56q-1 -1 -3 -4l-2 -2q-2 -2 -4 -5l-1 -3q-2 -2 -3 -2l-4 -1l-5 1q-3 1 -12 8q-7 4 -13 12q-8 13 -8 19v2l52 71l4 2l4 -1q9 -1 18 -9t15 -18q1 -4 3 -6v-6v-2l-1 -1q-1 -1 -1 -2t-7 -11q-6 -6 -12 -15v-54q0 -5 -3 -6q-4 -2 -7 -2t-7 2q-3 1 -3 6v27zM206 390v-57
q0 -2 -1 -3q-2 -2 -4 -2q-1 0 -3 2q-1 1 -1 3v36q-1 -2 -3.5 -7.5t-3.5 -8.5v-112q0 -3 -2 -5q-3 -3 -6 -3q-4 0 -6 3q-2 2 -2 5v75q-68 -159 -75 -216l-1 -10l2 -13v-4l-3 -3l-4 -1l-6 1q-8 3 -19 12q-9 8 -14 19l-3 8q-1 2 -1 6v8q0 22 11 58q23 79 107 267l12 28
q8 24 8 45v7l-2 17q0 3 2 5q1 1 5 1q5 0 15 -5q5 -3 15 -13q7 -7 10 -14q1 -7 3 -20v-9q0 -22 -6 -45q0 -1 -1 -2t-1.5 -3.5t-0.5 -3.5q-1 -2 -2.5 -6t-2.5 -6q-3 -4 -10 -21z" />
    <glyph glyph-name="quotedbl" unicode="&#x22;" horiz-adv-x="220" 
d="M150 582q-1 0 -5 -1t-5 -2l-18 -1q-1 1 -3 1t-3 1l-5 4l3 3q20 17 24 49q2 10 2 19l-2 23l-1 7l1 3q4 6 25 11l22 1h7q22 -3 26 -13l2 -4l-1 -6q-3 -45 -37 -76q-11 -10 -22 -15v-51q0 -2 -1 -3q-2 -2 -4 -2q-1 0 -3 2t-2 3v47zM97 634v-35q0 -2 -1 -3t-4 -1q-2 0 -3 1
t-1 3v21q0 -1 -2 -2.5t-2 -2.5v-42q0 -5 -3 -6q-3 -3 -7 -3t-7 3q-3 1 -3 6v23q-14 -10 -25 -14q-12 -4 -23 -4h-6l-6 3q-2 1 -4 3l3 3q21 18 25 52l1 15l-2 27l-1 4l1 3q3 4 15 9q12 3 28 3q26 0 34 -9q5 -3 5 -12l-1 -9q-3 -22 -11 -36z" />
    <glyph glyph-name="numbersign" unicode="#" horiz-adv-x="931" 
d="M0 481h931v-480h-931v480zM208 169v-85h179v85h-179zM254 385q12 3 21 3q6 0 9 -1v0v0h1v-1v0l1 -2v-3t-0.5 -3.5t-0.5 -3.5q-5 -13 -17 -24q-7 -9 -23 -19q-3 -2 -22 -13q-10 -5 -18 -7h-3h-6h-1v1v0h-1l-1 1l-1 1l-1 1q-4 2 -5 2l-2 -1v-1q0 -3 3 -7l7 -7q8 -5 17 -5
q4 0 5 1h1q2 0 4 1q13 5 18 8q2 1 9 5.5t11 7.5q23 16 32 30v-12h1v-1h1v0h1v1v16q4 5 6 13v5q0 12 -10 22q-5 5 -9 6q-6 3 -14 3h-3q-12 0 -18 -2q-45 -14 -91 -55q-1 -1 -3.5 -3t-4.5 -4l-8 -8q-19 -22 -26 -35q-17 -29 -21 -52v-5v-5q2 -6 3 -10q4 -6 8 -9q0 -1 2 -3
l2 -2h1q7 -6 17 -6q1 0 3.5 -0.5t3.5 -0.5q23 0 65 17h2l1 1h1h1v1h1v-1h-1v-1v-1l-2 -4q0 -2 -1 -3q0 -1 -2 -5v-1q-20 -55 -39 -75q-8 -8 -15 -8q-1 0 -1 1h-2l-4 2l-1 1h-1l-1 1q-5 5 -7 13q0 2 -0.5 5t-0.5 4q0 13 10 25q5 5 10 6l1 1h2h1q1 0 1 0.5t1 0.5h1h1v0v0v1h1
v1q0 3 -4 6q-3 4 -6 6h-1h-1h-1q-15 -2 -24 -15q0 -1 -2 -3q0 -1 -1 -2v-2q-3 -8 -3 -16q0 -4 2 -12v-43q0 -1 1 -2t2 -1l2 1q1 1 1 2v29q2 -4 8 -10q7 -8 15 -10q1 -1 2.5 -1.5t3 -1.5t2.5 -1h4h2h1q0 1 1 1q4 1 13 8q6 8 9 13q19 26 41 93l1 1v-27v-1q0 -1 1 -1h1v1
q1 0 1 1v34h1v1h1q1 0 1 1h1v1v1l-1 1v3l-1 1l1 4q4 15 5 19q1 2 1 4q1 1 1 2v1h-1v2h1h1l1 1q2 0 4 1q8 2 24 5h3l1 -2q6 -4 7 -4v0v-1h2l1 1q1 1 1 2t-2 5q0 1 -1 2.5t-2 2.5q-6 6 -13 8h-5q-5 0 -7 -1q-6 0 -22 -4q-21 -7 -35 -13q-21 -6 -22 -7h-1v-1h-1v1l-1 1
q-4 4 -8 4h-1q-1 0 -1 -1v-1v-2v-1q2 -4 5 -8t8 -6q3 -1 7 -1v-10v-1h1v-1h1h1l1 1v1v11h1h1v-17q1 0 1 -1v0h1l1 1v18q1 0 3 1q4 2 6 2l2 1q1 1 3 1l4 2h2l1 1q1 0 2 1h1h1h1v1h1h1v1h1v0v0h1v0q0 -2 -1 -4q-1 -1 -1 -4q-1 -1 -1 -3q-1 -1 -1 -4q-1 -1 -1 -2q0 -2 -1 -2
q-1 -2 -1 -4h-1q-1 0 -1 -1h-1h-1l-2 -1q-2 -2 -4 -2q-28 -14 -60 -21q-2 0 -4 -0.5t-3 -0.5h-1h-4q-2 0 -4 -1q-10 0 -15 3h-1q0 1 -1 2q0 1 -0.5 3t-0.5 4q0 8 5 23q13 34 40 64q42 45 90 65l9 3v-35v-1h1v-1h1h1v1h1v1v37zM581 376q-8 -16 -12 -23l-1 -1h-1q-1 0 -3 -0.5
t-3 -0.5q-4 0 -6 -1h-4q-2 -1 -5 -1q-2 0 -3 1q-3 0 -8 3v0q1 -2 3 -5q6 -7 18 -7h6q-11 -20 -17 -33q-4 -9 -4 -16v-4q2 -5 5 -5v-3q-2 0 -2 -2t-9 -14l-15 -21v-1v0h-1v-1l-2 -4q-6 -10 -7 -14q-7 -7 -13 -7t-6 6v1q0 5 4 10q4 8 7 13q2 2 4 6v-1h1v-1h1h1q0 1 1 1v1v7
l3 6l1 2q0 2 -3 5q-1 1 -2 2.5t-2 2.5q-4 2 -5 2t-3 -2q-8 -15 -10 -19q-2 -3 -5.5 -9t-5.5 -9v20q1 1 1 2l1 1v-7v-1l1 -1q1 0 1 -0.5t1 -0.5l2 1q1 1 1 2v16l9 14q19 29 24 41v3q0 2 -1 3q-1 3 -4 6l-1 1q-2 2 -4 2h-1l-1 1q-2 0 -2 -2q-8 -15 -39 -22q-33 -9 -67 -9h-5
q-23 0 -41 6q-14 4 -19 12q-4 6 -4 11q0 12 13 33v1v3q-2 4 -4 5q-3 2 -5 4h-1h-2q-1 0 -1 -1q-13 -19 -13 -36q0 -10 4 -17v-34v-1h1v-1q1 0 1 1h1v1v30l1 -1l1 -2v-9v-1h1q0 -1 1 -1h1q0 1 1 1v1v5q13 -13 29 -17q18 -7 45 -7h4q43 0 79 12l-4 -6q-10 -16 -32 -52
q-16 -31 -19 -44v-4q0 -7 2 -10q1 -2 5 -6v-7q-15 -10 -28 -35v-1v-1q0 -2 1 -3q2 -4 4 -5q6 -4 7 -4h1l33 8h2q2 0 3 1v-9v0v-1h1h1v1v0v9q2 0 3 1v-37v0v-1v0h1h1v1v0v37q9 2 69 13q37 -24 46 -33h1q17 -15 23 -15h1q2 2 13 21q12 26 19 42q55 6 82 6h5v-5q0 -1 1 -2t2 -1
t1 0.5t1 0.5l1 2v5q2 0 5.5 0.5t4.5 0.5h11q15 0 35 -2v-10v-1h1v-1h1l1 1v1v10q15 -1 27 -6q29 -8 31 -31q0 -2 1 -4l1 -1q1 -1 1 -2v-29v-1h1v-1l1 1v0v1v25q3 -3 5 -3q2 -2 5 -2h1q3 2 3 5v4q0 29 -27 43q-23 13 -50 16v12q9 0 20 8q11 10 16 28v1l-1 1q-1 0 -2 -1
q-2 0 -2 -1h-1v-1q-2 -11 -10 -18q-7 -6 -13 -6q-5 0 -5 5v3q1 2 10 17q3 3 4 5v-14v-1h1v-1h1l1 1v1v18l2 2v1l2 2l1 2h1v1q0 1 -2 5q-2 3 -5 5q-1 2 -5 2q-1 0 -2 -1q-2 0 -6 -3q-2 0 -4 -2q-1 -1 -3.5 -2t-3.5 -1q-3 -1 -7 -3q-1 -1 -2.5 -1t-2.5 -1q-6 -2 -7 -2v1
q2 5 6 11h1v-1v0l1 -1h1q1 0 1 1h1v5l1 1v-9h1v0h1h1v0v11h1v1q2 0 2 2t-3 5q-2 3 -5 5l-4 2l-8 -4q-3 -3 -9 -11q-5 -8 -5 -15q0 -4 3 -8q0 -1 2 -3v0h-1v-1v0q-3 -20 -22 -26q-9 -4 -21 -4q-11 0 -18 4q-1 1 -1 3q0 4 1 6q1 1 1 3t1 3l3 3v-1l4 -2v-11q0 -1 1 -1v0h1h1v1
v10q3 -2 11 -2q6 0 9 2q2 1 11 5q10 9 10 19q0 8 -4 13q-6 6 -11 8q-2 1 -5 1q-10 0 -20 -8q-10 -6 -17 -15q-10 -13 -10 -25q0 -13 9 -20t26 -9h6v-8q-34 -1 -73 -6l1 1v2v1l1 2l3 6q1 1 1.5 2t0.5 2q1 3 4 9t4 9q1 2 3 7t3 7q6 12 8 18q6 15 7 17q-3 5 -5 7t-7 5
q-1 0 -3 -2l-5 -5q-2 -2 -2 -3l-2 -2l-2 -2q-3 3 -9 7q-2 0 -3.5 0.5t-2.5 0.5v16l4 2q5 3 8 9q4 7 5 13v1h-1h-1h-1q0 -1 -1 -1v0v0v0q-1 -11 -13 -16q-8 -2 -12 -2q-5 0 -11 2q0 1 -0.5 1t-0.5 1v1q1 2 1 3t1 3l2 2l2 -2v-6q0 -1 1 -1v0h1v1v5q1 0 3 -0.5t3 -0.5t3 0.5
t3 0.5q4 2 6 4q6 5 6 11q0 5 -2 7q-2 3 -7 5q-1 1 -3 1q-5 0 -12 -5q-4 -3 -10 -9q-5 -8 -5 -15v-1l-1 -1l-6 -4h-2q-3 0 -3 4v1q1 2 2 3q0 2 3 5q1 2 3 5t2 4v2q0 2 -2 6q-4 4 -7 4t-5 -1l-4 -2q-1 0 -3 -1l-1 -1l-2 -1h-1h1v2l4 4q2 3 4.5 7.5t3.5 6.5q4 1 11 1h2v-15v0h1
v0h1v0v15q3 -1 9.5 -2t9.5 -1l8 -4l1 -1l1 1v2q0 5 -8 8q-12 5 -24 5h-6l4 8v1v3l-3 3q-2 2 -3 2h-1q-1 0 -1 -1t-3 -6v-1q-4 -6 -6 -10h-11q1 1 2.5 4t2.5 4v-4v-1h1h1v1v9v1l1 2v1q0 3 -2 5l-3 3h-2q-1 0 -1 -1v-1v-1zM548 280v2h1v-3zM550 279v3q7 2 13 9q3 -4 8 -6h1h1
v0v1v2l-1 1q0 1 -1 1q0 1 -1 1v1v1q0 7 8 15v-12v0v-1h1v1v0v13q1 1 19 11q-3 -5 -7 -13q-3 -7 -3 -9v-1q2 -5 4 -6v-6v-1h1h1v1v5h2v-20v0v0h1v0v20q7 0 14 6l3 3q2 -5 4 -6q4 -4 15 -6h4v-9v-1h1v0v1v9q1 0 1 1h1v-15q-3 0 -4 -1q-7 -2 -15 -10q-11 -8 -18 -18
q-9 -12 -10 -19v-2q-7 -7 -13 -7h-1q-5 0 -5 6l1 3q3 10 8 17v1q5 7 5 9q0 4 -4 8q-5 6 -10 6q-4 0 -12 -3l-2 -1h-3l-1 -1h-1v1l1 1l2 2v1v2q0 3 -2 5q-2 3 -5 5zM628 313l2 2q3 3 5 4q1 1 2.5 2t2.5 1l3 2h1q-2 -5 -5 -7q-6 -4 -9 -4h-1h-1zM569 331l3 6l3 6h3q0 1 2 1h3
h3q-3 -3 -5 -7h-1v-2q-1 0 -1 -1q-7 -8 -11 -17q-6 -13 -7 -16v-2q0 -2 1 -3q-5 -5 -6 -5q-2 -1 -3 -1q-2 0 -2 3q0 2 5 12q3 8 9 19l1 1v1l1 2v-6h1v0h1v0v9zM761 238l1 -1q4 -3 10 -3q2 0 12 2h-1v-1q0 -1 -1 -1q0 -1 -1 -2l-3 -6q-3 -8 -3 -13q0 -7 4 -10t11 -3v-12
q-2 1 -7 1q-20 1 -43 1h-6v10q4 2 6 4q8 5 14 16q6 12 7 18zM707 241q0 1 3 4q2 2 8 6q6 5 9 6q5 3 6 3v0v-1q-1 -5 -8 -12q-8 -5 -14 -6h-2h-1h-1zM725 190v8h1q1 0 2 1v-9h-3zM515 165q-12 -2 -38 -7t-36 -7v1v5q14 14 23 15q8 1 15 1q17 0 36 -8zM440 150h-5l4 4v-2v-1
q0 -1 1 -1zM612 222h-1l-1 -1v0v0q0 1 1 2t1 3q1 1 3 3.5t4 4.5l3 3l12 12q5 5 11 9h1q1 0 2 1h3h1h1q0 -2 -4 -5l-10 -10l-1 -1q-5 -5 -8 -7q-1 -1 -3 -2.5t-3 -2.5zM595 215l1 -1q4 -6 7 -7q3 -2 9 -2h2q5 0 11 3v-18v-1v0h1h1v1v20q1 0 2 1l2 2q1 0 2 1q12 10 13 11l2 1
q-4 -7 -10 -23q-1 -3 -3.5 -8l-3.5 -7q-1 -1 -1 -3t-1 -3q-57 -7 -91 -13l-7 -1q-12 6 -19 9q-1 1 -4 2t-5 2v1v29l1 1q2 0 2 1q1 1 2 1v-3q1 -3 5 -7l1 -2v-24q0 -1 1 -1v-1h1l1 1v1v22h2l1 -1q3 0 3 3l-1 2v1q0 2 3 7q1 4 5 10q1 3 5 9l2 3l4 2v-27v-1q1 0 1 -1h1q0 1 1 1
v1v29h2v-8v-1h1h1l1 1v10q2 2 4 2l3 1q6 3 8 3v0q0 -1 -1 -3q-3 -6 -4 -11l-1 -6v-2q4 -10 7 -14q3 -3 11 -5v-12v-1l1 -1h1v1v1v12q8 1 17 10zM501 182q-18 5 -31 5q-9 0 -14 -1q-8 -2 -15 -6v5q1 0 1 -1h1h1q2 0 2 1t0.5 1t0.5 1v1l-1 1v3v2q3 16 18 42q2 3 6 9.5t6 10.5
v-21q-5 -10 -5 -16v-1q0 -6 4 -9q6 -4 11 -4t15 5v-28zM582 160v-22v-1v0h1v0h1v1v22l16 3q2 0 5 0.5t4 0.5t3 0.5t3 0.5q4 0 5 1h1q-3 -6 -14 -29q-2 -4 -4 -7.5t-3.5 -5.5t-1.5 -3l-7 5q-2 1 -6 5l-9 6q-2 2 -6 5t-5 4q-2 1 -4 3l-4 2q-1 1 -3 2q-2 2 -3 2l12 2q1 0 4 0.5
t5 0.5q1 1 5 1v-16v-1l1 -1h1q0 1 1 1v1v17h1h1zM517 277v-22v-1h1v-1h1l1 1v1v25q1 0 1 1q1 1 2.5 3.5t2.5 3.5q2 2 2 3t1 2l2 2l1 1q0 2 1 2v1l1 1q0 1 -4 7q-5 4 -8 4h-1l-16 -21v-1q0 -3 3 -7q7 -5 8 -5h1zM398 166q11 6 13 7q9 8 14 17q5 12 5 20t-4 20q-2 6 -2 8
q-1 1 -1 3q-1 4 -1 11q0 8 3 14q4 6 6 8q1 0 1 1t1 2q0 1 -2 5q-1 2 -4 5q-2 2 -6 2q-2 0 -3 -1q-7 -9 -8 -13q-3 -6 -3 -12v-28q0 -2 1 -2q-3 -6 -7 -10q-7 -7 -13 -7h-1q-5 0 -5 6l1 3q3 10 8 17v1q5 7 5 9q0 4 -4 8q-4 6 -10 6q-4 0 -12 -3l-2 -1h-3l-1 -1h-1v1q1 0 1 1
l2 2v1v2q0 3 -2 5q-2 3 -5 5q-2 2 -5 2q-2 0 -2 -2t-9 -14q-10 -14 -14 -21l-1 -1h-1v-1v-1q-1 0 -1 -1t-1 -2q-7 -12 -8 -18q-8 -8 -12 -8q-2 0 -2 4v2v1q3 9 4 11q0 1 2 5t2 5q5 9 5 12v1q0 3 -5 6q-3 4 -6 4h-2v-1q-1 0 -4 -3l-1 -1q-3 -4 -12 -13l-14 -14q-2 -2 -14 -11
l-1 -1q-1 -1 -2 -1l-1 -1h-1v0q0 -1 -1 -1q0 1 3 7q1 1 5 7q0 1 1 2.5t1 2.5q1 1 3 4l1 1v2v-3v-1h1v-1h1h1v1h1v1v9q0 1 1 1q0 1 1 2v-16v-1h1h1v1h1v21q1 2 1 5t-2 5q-1 2 -5 6q-4 2 -5 2q-2 0 -2 -3l-3 -5q-1 -4 -4 -8l-1 -1q0 -2 -1 -2q-1 -3 -4.5 -9t-5.5 -9l-3 -6
l-1.5 -3t-1.5 -2.5t-1 -2.5q-1 -2 -1 -7q0 -7 5 -12t10 -5l2 -1q3 0 13 4v-31v-1q1 0 1 -1h1v1h1v1v33l1 1h1l18 15v-1q1 -2 1 -3v-1v-6q3 -7 8 -9v-10q1 0 1 -1v-1h1l1 1v1v9h1q7 0 16 11q1 -2 4 -5l1 -2v-24l1 -1v-1h1h1v1v1v22h2l1 -1q3 0 3 3l-1 2v1q0 2 3 7q1 4 5 10
q1 3 5 9l2 3l4 2v-27v-1h1v-1h1q0 1 1 1v1v29h2v-8v-1h1h1l1 1v10q2 2 4 2l3 1q6 3 8 3v0q0 -1 -1 -3q-3 -6 -4 -11l-1 -6v-2q3 -9 7 -13q-3 -2 -5 -5t-2 -10q0 -12 5 -19q6 -10 16 -11h4h4v-36v0l1 -1h1v1h1v36zM410 238v9q0 -3 1 -4v-1v-1q-1 -1 -1 -3zM411 227v-12v-1h1
v-1h1q0 1 1 1v1v18q1 -5 1 -13q0 -16 -10 -27q-10 -13 -25 -13v5q0 5 3 9q0 1 1 2v-3v-1l1 -1h1v-3v-1h2h2v1h1v9v0q2 -2 5 -2q2 0 2 2q0 3 -4 8l-2 2q4 1 11 8q5 5 8 12zM247 109q0 -7 -5 -11q-5 -5 -11 -5h-16v68h16q7 0 11 -4q5 -5 5 -12v-36zM225 103h6q2 0 4 2q2 1 2 4
v36q0 3 -2 4q-2 2 -4 2h-6v-48zM256 93v68h29v-10h-19v-19h14v-10h-14v-19h19v-10h-29zM303 93h-11v68h15l10 -49l9 49h14v-68h-10v43l-9 -43h-8l-10 43v-43zM365 162q7 0 12 -5t5 -11v-37q0 -7 -5 -12t-12 -5q-6 0 -11 5t-5 12v37q0 6 5 11t11 5zM371 146q0 2 -2 4t-4 2
t-4 -2t-2 -4v-37q0 -2 2 -4q1 -2 4 -2t4 2q2 2 2 4v37z" />
    <glyph glyph-name="dollar" unicode="$" horiz-adv-x="931" 
d="M0 481h931v-480h-931v480zM208 169v-85h179v85h-179zM254 385q12 3 21 3q6 0 9 -1v0v0h1v-1v0l1 -2v-3t-0.5 -3.5t-0.5 -3.5q-5 -13 -17 -24q-7 -9 -23 -19q-3 -2 -22 -13q-10 -5 -18 -7h-3h-6h-1v1v0h-1l-1 1l-1 1l-1 1q-4 2 -5 2l-2 -1v-1q0 -3 3 -7l7 -7q8 -5 17 -5
q4 0 5 1h1q2 0 4 1q13 5 18 8q2 1 9 5.5t11 7.5q23 16 32 30v-12h1v-1h1v0h1v1v16q4 5 6 13v5q0 12 -10 22q-5 5 -9 6q-6 3 -14 3h-3q-12 0 -18 -2q-45 -14 -91 -55q-1 -1 -3.5 -3t-4.5 -4l-8 -8q-19 -22 -26 -35q-17 -29 -21 -52v-5v-5q2 -6 3 -10q4 -6 8 -9q0 -1 2 -3
l2 -2h1q7 -6 17 -6q1 0 3.5 -0.5t3.5 -0.5q23 0 65 17h2l1 1h1h1v1h1v-1h-1v-1v-1l-2 -4q0 -2 -1 -3q0 -1 -2 -5v-1q-20 -55 -39 -75q-8 -8 -15 -8q-1 0 -1 1h-2l-4 2l-1 1h-1l-1 1q-5 5 -7 13q0 2 -0.5 5t-0.5 4q0 13 10 25q5 5 10 6l1 1h2h1q1 0 1 0.5t1 0.5h1h1v0v0v1h1
v1q0 3 -4 6q-3 4 -6 6h-1h-1h-1q-15 -2 -24 -15q0 -1 -2 -3q0 -1 -1 -2v-2q-3 -8 -3 -16q0 -4 2 -12v-43q0 -1 1 -2t2 -1l2 1q1 1 1 2v29q2 -4 8 -10q7 -8 15 -10q1 -1 2.5 -1.5t3 -1.5t2.5 -1h4h2h1q0 1 1 1q4 1 13 8q6 8 9 13q19 26 41 93l1 1v-27v-1q0 -1 1 -1h1v1
q1 0 1 1v34h1v1h1q1 0 1 1h1v1v1l-1 1v3l-1 1l1 4q4 15 5 19q1 2 1 4q1 1 1 2v1h-1v2h1h1l1 1q2 0 4 1q8 2 24 5h3l1 -2q6 -4 7 -4v0v-1h2l1 1q1 1 1 2t-2 5q0 1 -1 2.5t-2 2.5q-6 6 -13 8h-5q-5 0 -7 -1q-6 0 -22 -4q-21 -7 -35 -13q-21 -6 -22 -7h-1v-1h-1v1l-1 1
q-4 4 -8 4h-1q-1 0 -1 -1v-1v-2v-1q2 -4 5 -8t8 -6q3 -1 7 -1v-10v-1h1v-1h1h1l1 1v1v11h1h1v-17q1 0 1 -1v0h1l1 1v18q1 0 3 1q4 2 6 2l2 1q1 1 3 1l4 2h2l1 1q1 0 2 1h1h1h1v1h1h1v1h1v0v0h1v0q0 -2 -1 -4q-1 -1 -1 -4q-1 -1 -1 -3q-1 -1 -1 -4q-1 -1 -1 -2q0 -2 -1 -2
q-1 -2 -1 -4h-1q-1 0 -1 -1h-1h-1l-2 -1q-2 -2 -4 -2q-28 -14 -60 -21q-2 0 -4 -0.5t-3 -0.5h-1h-4q-2 0 -4 -1q-10 0 -15 3h-1q0 1 -1 2q0 1 -0.5 3t-0.5 4q0 8 5 23q13 34 40 64q42 45 90 65l9 3v-35v-1h1v-1h1h1v1h1v1v37zM581 376q-8 -16 -12 -23l-1 -1h-1q-1 0 -3 -0.5
t-3 -0.5q-4 0 -6 -1h-4q-2 -1 -5 -1q-2 0 -3 1q-3 0 -8 3v0q1 -2 3 -5q6 -7 18 -7h6q-11 -20 -17 -33q-4 -9 -4 -16v-4q2 -5 5 -5v-3q-2 0 -2 -2t-9 -14l-15 -21v-1v0h-1v-1l-2 -4q-6 -10 -7 -14q-7 -7 -13 -7t-6 6v1q0 5 4 10q4 8 7 13q2 2 4 6v-1h1v-1h1h1q0 1 1 1v1v7
l3 6l1 2q0 2 -3 5q-1 1 -2 2.5t-2 2.5q-4 2 -5 2t-3 -2q-8 -15 -10 -19q-2 -3 -5.5 -9t-5.5 -9v20q1 1 1 2l1 1v-7v-1l1 -1q1 0 1 -0.5t1 -0.5l2 1q1 1 1 2v16l9 14q19 29 24 41v3q0 2 -1 3q-1 3 -4 6l-1 1q-2 2 -4 2h-1l-1 1q-2 0 -2 -2q-8 -15 -39 -22q-33 -9 -67 -9h-5
q-23 0 -41 6q-14 4 -19 12q-4 6 -4 11q0 12 13 33v1v3q-2 4 -4 5q-3 2 -5 4h-1h-2q-1 0 -1 -1q-13 -19 -13 -36q0 -10 4 -17v-34v-1h1v-1q1 0 1 1h1v1v30l1 -1l1 -2v-9v-1h1q0 -1 1 -1h1q0 1 1 1v1v5q13 -13 29 -17q18 -7 45 -7h4q43 0 79 12l-4 -6q-10 -16 -32 -52
q-16 -31 -19 -44v-4q0 -7 2 -10q1 -2 5 -6v-7q-15 -10 -28 -35v-1v-1q0 -2 1 -3q2 -4 4 -5q6 -4 7 -4h1l33 8h2q2 0 3 1v-9v0v-1h1h1v1v0v9q2 0 3 1v-37v0v-1v0h1h1v1v0v37q9 2 69 13q37 -24 46 -33h1q17 -15 23 -15h1q2 2 13 21q12 26 19 42q55 6 82 6h5v-5q0 -1 1 -2t2 -1
t1 0.5t1 0.5l1 2v5q2 0 5.5 0.5t4.5 0.5h11q15 0 35 -2v-10v-1h1v-1h1l1 1v1v10q15 -1 27 -6q29 -8 31 -31q0 -2 1 -4l1 -1q1 -1 1 -2v-29v-1h1v-1l1 1v0v1v25q3 -3 5 -3q2 -2 5 -2h1q3 2 3 5v4q0 29 -27 43q-23 13 -50 16v12q9 0 20 8q11 10 16 28v1l-1 1q-1 0 -2 -1
q-2 0 -2 -1h-1v-1q-2 -11 -10 -18q-7 -6 -13 -6q-5 0 -5 5v3q1 2 10 17q3 3 4 5v-14v-1h1v-1h1l1 1v1v18l2 2v1l2 2l1 2h1v1q0 1 -2 5q-2 3 -5 5q-1 2 -5 2q-1 0 -2 -1q-2 0 -6 -3q-2 0 -4 -2q-1 -1 -3.5 -2t-3.5 -1q-3 -1 -7 -3q-1 -1 -2.5 -1t-2.5 -1q-6 -2 -7 -2v1
q2 5 6 11h1v-1v0l1 -1h1q1 0 1 1h1v5l1 1v-9h1v0h1h1v0v11h1v1q2 0 2 2t-3 5q-2 3 -5 5l-4 2l-8 -4q-3 -3 -9 -11q-5 -8 -5 -15q0 -4 3 -8q0 -1 2 -3v0h-1v-1v0q-3 -20 -22 -26q-9 -4 -21 -4q-11 0 -18 4q-1 1 -1 3q0 4 1 6q1 1 1 3t1 3l3 3v-1l4 -2v-11q0 -1 1 -1v0h1h1v1
v10q3 -2 11 -2q6 0 9 2q2 1 11 5q10 9 10 19q0 8 -4 13q-6 6 -11 8q-2 1 -5 1q-10 0 -20 -8q-10 -6 -17 -15q-10 -13 -10 -25q0 -13 9 -20t26 -9h6v-8q-34 -1 -73 -6l1 1v2v1l1 2l3 6q1 1 1.5 2t0.5 2q1 3 4 9t4 9q1 2 3 7t3 7q6 12 8 18q6 15 7 17q-3 5 -5 7t-7 5
q-1 0 -3 -2l-5 -5q-2 -2 -2 -3l-2 -2l-2 -2q-3 3 -9 7q-2 0 -3.5 0.5t-2.5 0.5v16l4 2q5 3 8 9q4 7 5 13v1h-1h-1h-1q0 -1 -1 -1v0v0v0q-1 -11 -13 -16q-8 -2 -12 -2q-5 0 -11 2q0 1 -0.5 1t-0.5 1v1q1 2 1 3t1 3l2 2l2 -2v-6q0 -1 1 -1v0h1v1v5q1 0 3 -0.5t3 -0.5t3 0.5
t3 0.5q4 2 6 4q6 5 6 11q0 5 -2 7q-2 3 -7 5q-1 1 -3 1q-5 0 -12 -5q-4 -3 -10 -9q-5 -8 -5 -15v-1l-1 -1l-6 -4h-2q-3 0 -3 4v1q1 2 2 3q0 2 3 5q1 2 3 5t2 4v2q0 2 -2 6q-4 4 -7 4t-5 -1l-4 -2q-1 0 -3 -1l-1 -1l-2 -1h-1h1v2l4 4q2 3 4.5 7.5t3.5 6.5q4 1 11 1h2v-15v0h1
v0h1v0v15q3 -1 9.5 -2t9.5 -1l8 -4l1 -1l1 1v2q0 5 -8 8q-12 5 -24 5h-6l4 8v1v3l-3 3q-2 2 -3 2h-1q-1 0 -1 -1t-3 -6v-1q-4 -6 -6 -10h-11q1 1 2.5 4t2.5 4v-4v-1h1h1v1v9v1l1 2v1q0 3 -2 5l-3 3h-2q-1 0 -1 -1v-1v-1zM548 280v2h1v-3zM550 279v3q7 2 13 9q3 -4 8 -6h1h1
v0v1v2l-1 1q0 1 -1 1q0 1 -1 1v1v1q0 7 8 15v-12v0v-1h1v1v0v13q1 1 19 11q-3 -5 -7 -13q-3 -7 -3 -9v-1q2 -5 4 -6v-6v-1h1h1v1v5h2v-20v0v0h1v0v20q7 0 14 6l3 3q2 -5 4 -6q4 -4 15 -6h4v-9v-1h1v0v1v9q1 0 1 1h1v-15q-3 0 -4 -1q-7 -2 -15 -10q-11 -8 -18 -18
q-9 -12 -10 -19v-2q-7 -7 -13 -7h-1q-5 0 -5 6l1 3q3 10 8 17v1q5 7 5 9q0 4 -4 8q-5 6 -10 6q-4 0 -12 -3l-2 -1h-3l-1 -1h-1v1l1 1l2 2v1v2q0 3 -2 5q-2 3 -5 5zM628 313l2 2q3 3 5 4q1 1 2.5 2t2.5 1l3 2h1q-2 -5 -5 -7q-6 -4 -9 -4h-1h-1zM569 331l3 6l3 6h3q0 1 2 1h3
h3q-3 -3 -5 -7h-1v-2q-1 0 -1 -1q-7 -8 -11 -17q-6 -13 -7 -16v-2q0 -2 1 -3q-5 -5 -6 -5q-2 -1 -3 -1q-2 0 -2 3q0 2 5 12q3 8 9 19l1 1v1l1 2v-6h1v0h1v0v9zM761 238l1 -1q4 -3 10 -3q2 0 12 2h-1v-1q0 -1 -1 -1q0 -1 -1 -2l-3 -6q-3 -8 -3 -13q0 -7 4 -10t11 -3v-12
q-2 1 -7 1q-20 1 -43 1h-6v10q4 2 6 4q8 5 14 16q6 12 7 18zM707 241q0 1 3 4q2 2 8 6q6 5 9 6q5 3 6 3v0v-1q-1 -5 -8 -12q-8 -5 -14 -6h-2h-1h-1zM725 190v8h1q1 0 2 1v-9h-3zM515 165q-12 -2 -38 -7t-36 -7v1v5q14 14 23 15q8 1 15 1q17 0 36 -8zM440 150h-5l4 4v-2v-1
q0 -1 1 -1zM612 222h-1l-1 -1v0v0q0 1 1 2t1 3q1 1 3 3.5t4 4.5l3 3l12 12q5 5 11 9h1q1 0 2 1h3h1h1q0 -2 -4 -5l-10 -10l-1 -1q-5 -5 -8 -7q-1 -1 -3 -2.5t-3 -2.5zM595 215l1 -1q4 -6 7 -7q3 -2 9 -2h2q5 0 11 3v-18v-1v0h1h1v1v20q1 0 2 1l2 2q1 0 2 1q12 10 13 11l2 1
q-4 -7 -10 -23q-1 -3 -3.5 -8l-3.5 -7q-1 -1 -1 -3t-1 -3q-57 -7 -91 -13l-7 -1q-12 6 -19 9q-1 1 -4 2t-5 2v1v29l1 1q2 0 2 1q1 1 2 1v-3q1 -3 5 -7l1 -2v-24q0 -1 1 -1v-1h1l1 1v1v22h2l1 -1q3 0 3 3l-1 2v1q0 2 3 7q1 4 5 10q1 3 5 9l2 3l4 2v-27v-1q1 0 1 -1h1q0 1 1 1
v1v29h2v-8v-1h1h1l1 1v10q2 2 4 2l3 1q6 3 8 3v0q0 -1 -1 -3q-3 -6 -4 -11l-1 -6v-2q4 -10 7 -14q3 -3 11 -5v-12v-1l1 -1h1v1v1v12q8 1 17 10zM501 182q-18 5 -31 5q-9 0 -14 -1q-8 -2 -15 -6v5q1 0 1 -1h1h1q2 0 2 1t0.5 1t0.5 1v1l-1 1v3v2q3 16 18 42q2 3 6 9.5t6 10.5
v-21q-5 -10 -5 -16v-1q0 -6 4 -9q6 -4 11 -4t15 5v-28zM582 160v-22v-1v0h1v0h1v1v22l16 3q2 0 5 0.5t4 0.5t3 0.5t3 0.5q4 0 5 1h1q-3 -6 -14 -29q-2 -4 -4 -7.5t-3.5 -5.5t-1.5 -3l-7 5q-2 1 -6 5l-9 6q-2 2 -6 5t-5 4q-2 1 -4 3l-4 2q-1 1 -3 2q-2 2 -3 2l12 2q1 0 4 0.5
t5 0.5q1 1 5 1v-16v-1l1 -1h1q0 1 1 1v1v17h1h1zM517 277v-22v-1h1v-1h1l1 1v1v25q1 0 1 1q1 1 2.5 3.5t2.5 3.5q2 2 2 3t1 2l2 2l1 1q0 2 1 2v1l1 1q0 1 -4 7q-5 4 -8 4h-1l-16 -21v-1q0 -3 3 -7q7 -5 8 -5h1zM398 166q11 6 13 7q9 8 14 17q5 12 5 20t-4 20q-2 6 -2 8
q-1 1 -1 3q-1 4 -1 11q0 8 3 14q4 6 6 8q1 0 1 1t1 2q0 1 -2 5q-1 2 -4 5q-2 2 -6 2q-2 0 -3 -1q-7 -9 -8 -13q-3 -6 -3 -12v-28q0 -2 1 -2q-3 -6 -7 -10q-7 -7 -13 -7h-1q-5 0 -5 6l1 3q3 10 8 17v1q5 7 5 9q0 4 -4 8q-4 6 -10 6q-4 0 -12 -3l-2 -1h-3l-1 -1h-1v1q1 0 1 1
l2 2v1v2q0 3 -2 5q-2 3 -5 5q-2 2 -5 2q-2 0 -2 -2t-9 -14q-10 -14 -14 -21l-1 -1h-1v-1v-1q-1 0 -1 -1t-1 -2q-7 -12 -8 -18q-8 -8 -12 -8q-2 0 -2 4v2v1q3 9 4 11q0 1 2 5t2 5q5 9 5 12v1q0 3 -5 6q-3 4 -6 4h-2v-1q-1 0 -4 -3l-1 -1q-3 -4 -12 -13l-14 -14q-2 -2 -14 -11
l-1 -1q-1 -1 -2 -1l-1 -1h-1v0q0 -1 -1 -1q0 1 3 7q1 1 5 7q0 1 1 2.5t1 2.5q1 1 3 4l1 1v2v-3v-1h1v-1h1h1v1h1v1v9q0 1 1 1q0 1 1 2v-16v-1h1h1v1h1v21q1 2 1 5t-2 5q-1 2 -5 6q-4 2 -5 2q-2 0 -2 -3l-3 -5q-1 -4 -4 -8l-1 -1q0 -2 -1 -2q-1 -3 -4.5 -9t-5.5 -9l-3 -6
l-1.5 -3t-1.5 -2.5t-1 -2.5q-1 -2 -1 -7q0 -7 5 -12t10 -5l2 -1q3 0 13 4v-31v-1q1 0 1 -1h1v1h1v1v33l1 1h1l18 15v-1q1 -2 1 -3v-1v-6q3 -7 8 -9v-10q1 0 1 -1v-1h1l1 1v1v9h1q7 0 16 11q1 -2 4 -5l1 -2v-24l1 -1v-1h1h1v1v1v22h2l1 -1q3 0 3 3l-1 2v1q0 2 3 7q1 4 5 10
q1 3 5 9l2 3l4 2v-27v-1h1v-1h1q0 1 1 1v1v29h2v-8v-1h1h1l1 1v10q2 2 4 2l3 1q6 3 8 3v0q0 -1 -1 -3q-3 -6 -4 -11l-1 -6v-2q3 -9 7 -13q-3 -2 -5 -5t-2 -10q0 -12 5 -19q6 -10 16 -11h4h4v-36v0l1 -1h1v1h1v36zM410 238v9q0 -3 1 -4v-1v-1q-1 -1 -1 -3zM411 227v-12v-1h1
v-1h1q0 1 1 1v1v18q1 -5 1 -13q0 -16 -10 -27q-10 -13 -25 -13v5q0 5 3 9q0 1 1 2v-3v-1l1 -1h1v-3v-1h2h2v1h1v9v0q2 -2 5 -2q2 0 2 2q0 3 -4 8l-2 2q4 1 11 8q5 5 8 12zM247 109q0 -7 -5 -11q-5 -5 -11 -5h-16v68h16q7 0 11 -4q5 -5 5 -12v-36zM225 103h6q2 0 4 2q2 1 2 4
v36q0 3 -2 4q-2 2 -4 2h-6v-48zM256 93v68h29v-10h-19v-19h14v-10h-14v-19h19v-10h-29zM303 93h-11v68h15l10 -49l9 49h14v-68h-10v43l-9 -43h-8l-10 43v-43zM365 162q7 0 12 -5t5 -11v-37q0 -7 -5 -12t-12 -5q-6 0 -11 5t-5 12v37q0 6 5 11t11 5zM371 146q0 2 -2 4t-4 2
t-4 -2t-2 -4v-37q0 -2 2 -4q1 -2 4 -2t4 2q2 2 2 4v37z" />
    <glyph glyph-name="percent" unicode="%" horiz-adv-x="931" 
d="M0 481h931v-480h-931v480zM208 169v-85h179v85h-179zM254 385q12 3 21 3q6 0 9 -1v0v0h1v-1v0l1 -2v-3t-0.5 -3.5t-0.5 -3.5q-5 -13 -17 -24q-7 -9 -23 -19q-3 -2 -22 -13q-10 -5 -18 -7h-3h-6h-1v1v0h-1l-1 1l-1 1l-1 1q-4 2 -5 2l-2 -1v-1q0 -3 3 -7l7 -7q8 -5 17 -5
q4 0 5 1h1q2 0 4 1q13 5 18 8q2 1 9 5.5t11 7.5q23 16 32 30v-12h1v-1h1v0h1v1v16q4 5 6 13v5q0 12 -10 22q-5 5 -9 6q-6 3 -14 3h-3q-12 0 -18 -2q-45 -14 -91 -55q-1 -1 -3.5 -3t-4.5 -4l-8 -8q-19 -22 -26 -35q-17 -29 -21 -52v-5v-5q2 -6 3 -10q4 -6 8 -9q0 -1 2 -3
l2 -2h1q7 -6 17 -6q1 0 3.5 -0.5t3.5 -0.5q23 0 65 17h2l1 1h1h1v1h1v-1h-1v-1v-1l-2 -4q0 -2 -1 -3q0 -1 -2 -5v-1q-20 -55 -39 -75q-8 -8 -15 -8q-1 0 -1 1h-2l-4 2l-1 1h-1l-1 1q-5 5 -7 13q0 2 -0.5 5t-0.5 4q0 13 10 25q5 5 10 6l1 1h2h1q1 0 1 0.5t1 0.5h1h1v0v0v1h1
v1q0 3 -4 6q-3 4 -6 6h-1h-1h-1q-15 -2 -24 -15q0 -1 -2 -3q0 -1 -1 -2v-2q-3 -8 -3 -16q0 -4 2 -12v-43q0 -1 1 -2t2 -1l2 1q1 1 1 2v29q2 -4 8 -10q7 -8 15 -10q1 -1 2.5 -1.5t3 -1.5t2.5 -1h4h2h1q0 1 1 1q4 1 13 8q6 8 9 13q19 26 41 93l1 1v-27v-1q0 -1 1 -1h1v1
q1 0 1 1v34h1v1h1q1 0 1 1h1v1v1l-1 1v3l-1 1l1 4q4 15 5 19q1 2 1 4q1 1 1 2v1h-1v2h1h1l1 1q2 0 4 1q8 2 24 5h3l1 -2q6 -4 7 -4v0v-1h2l1 1q1 1 1 2t-2 5q0 1 -1 2.5t-2 2.5q-6 6 -13 8h-5q-5 0 -7 -1q-6 0 -22 -4q-21 -7 -35 -13q-21 -6 -22 -7h-1v-1h-1v1l-1 1
q-4 4 -8 4h-1q-1 0 -1 -1v-1v-2v-1q2 -4 5 -8t8 -6q3 -1 7 -1v-10v-1h1v-1h1h1l1 1v1v11h1h1v-17q1 0 1 -1v0h1l1 1v18q1 0 3 1q4 2 6 2l2 1q1 1 3 1l4 2h2l1 1q1 0 2 1h1h1h1v1h1h1v1h1v0v0h1v0q0 -2 -1 -4q-1 -1 -1 -4q-1 -1 -1 -3q-1 -1 -1 -4q-1 -1 -1 -2q0 -2 -1 -2
q-1 -2 -1 -4h-1q-1 0 -1 -1h-1h-1l-2 -1q-2 -2 -4 -2q-28 -14 -60 -21q-2 0 -4 -0.5t-3 -0.5h-1h-4q-2 0 -4 -1q-10 0 -15 3h-1q0 1 -1 2q0 1 -0.5 3t-0.5 4q0 8 5 23q13 34 40 64q42 45 90 65l9 3v-35v-1h1v-1h1h1v1h1v1v37zM581 376q-8 -16 -12 -23l-1 -1h-1q-1 0 -3 -0.5
t-3 -0.5q-4 0 -6 -1h-4q-2 -1 -5 -1q-2 0 -3 1q-3 0 -8 3v0q1 -2 3 -5q6 -7 18 -7h6q-11 -20 -17 -33q-4 -9 -4 -16v-4q2 -5 5 -5v-3q-2 0 -2 -2t-9 -14l-15 -21v-1v0h-1v-1l-2 -4q-6 -10 -7 -14q-7 -7 -13 -7t-6 6v1q0 5 4 10q4 8 7 13q2 2 4 6v-1h1v-1h1h1q0 1 1 1v1v7
l3 6l1 2q0 2 -3 5q-1 1 -2 2.5t-2 2.5q-4 2 -5 2t-3 -2q-8 -15 -10 -19q-2 -3 -5.5 -9t-5.5 -9v20q1 1 1 2l1 1v-7v-1l1 -1q1 0 1 -0.5t1 -0.5l2 1q1 1 1 2v16l9 14q19 29 24 41v3q0 2 -1 3q-1 3 -4 6l-1 1q-2 2 -4 2h-1l-1 1q-2 0 -2 -2q-8 -15 -39 -22q-33 -9 -67 -9h-5
q-23 0 -41 6q-14 4 -19 12q-4 6 -4 11q0 12 13 33v1v3q-2 4 -4 5q-3 2 -5 4h-1h-2q-1 0 -1 -1q-13 -19 -13 -36q0 -10 4 -17v-34v-1h1v-1q1 0 1 1h1v1v30l1 -1l1 -2v-9v-1h1q0 -1 1 -1h1q0 1 1 1v1v5q13 -13 29 -17q18 -7 45 -7h4q43 0 79 12l-4 -6q-10 -16 -32 -52
q-16 -31 -19 -44v-4q0 -7 2 -10q1 -2 5 -6v-7q-15 -10 -28 -35v-1v-1q0 -2 1 -3q2 -4 4 -5q6 -4 7 -4h1l33 8h2q2 0 3 1v-9v0v-1h1h1v1v0v9q2 0 3 1v-37v0v-1v0h1h1v1v0v37q9 2 69 13q37 -24 46 -33h1q17 -15 23 -15h1q2 2 13 21q12 26 19 42q55 6 82 6h5v-5q0 -1 1 -2t2 -1
t1 0.5t1 0.5l1 2v5q2 0 5.5 0.5t4.5 0.5h11q15 0 35 -2v-10v-1h1v-1h1l1 1v1v10q15 -1 27 -6q29 -8 31 -31q0 -2 1 -4l1 -1q1 -1 1 -2v-29v-1h1v-1l1 1v0v1v25q3 -3 5 -3q2 -2 5 -2h1q3 2 3 5v4q0 29 -27 43q-23 13 -50 16v12q9 0 20 8q11 10 16 28v1l-1 1q-1 0 -2 -1
q-2 0 -2 -1h-1v-1q-2 -11 -10 -18q-7 -6 -13 -6q-5 0 -5 5v3q1 2 10 17q3 3 4 5v-14v-1h1v-1h1l1 1v1v18l2 2v1l2 2l1 2h1v1q0 1 -2 5q-2 3 -5 5q-1 2 -5 2q-1 0 -2 -1q-2 0 -6 -3q-2 0 -4 -2q-1 -1 -3.5 -2t-3.5 -1q-3 -1 -7 -3q-1 -1 -2.5 -1t-2.5 -1q-6 -2 -7 -2v1
q2 5 6 11h1v-1v0l1 -1h1q1 0 1 1h1v5l1 1v-9h1v0h1h1v0v11h1v1q2 0 2 2t-3 5q-2 3 -5 5l-4 2l-8 -4q-3 -3 -9 -11q-5 -8 -5 -15q0 -4 3 -8q0 -1 2 -3v0h-1v-1v0q-3 -20 -22 -26q-9 -4 -21 -4q-11 0 -18 4q-1 1 -1 3q0 4 1 6q1 1 1 3t1 3l3 3v-1l4 -2v-11q0 -1 1 -1v0h1h1v1
v10q3 -2 11 -2q6 0 9 2q2 1 11 5q10 9 10 19q0 8 -4 13q-6 6 -11 8q-2 1 -5 1q-10 0 -20 -8q-10 -6 -17 -15q-10 -13 -10 -25q0 -13 9 -20t26 -9h6v-8q-34 -1 -73 -6l1 1v2v1l1 2l3 6q1 1 1.5 2t0.5 2q1 3 4 9t4 9q1 2 3 7t3 7q6 12 8 18q6 15 7 17q-3 5 -5 7t-7 5
q-1 0 -3 -2l-5 -5q-2 -2 -2 -3l-2 -2l-2 -2q-3 3 -9 7q-2 0 -3.5 0.5t-2.5 0.5v16l4 2q5 3 8 9q4 7 5 13v1h-1h-1h-1q0 -1 -1 -1v0v0v0q-1 -11 -13 -16q-8 -2 -12 -2q-5 0 -11 2q0 1 -0.5 1t-0.5 1v1q1 2 1 3t1 3l2 2l2 -2v-6q0 -1 1 -1v0h1v1v5q1 0 3 -0.5t3 -0.5t3 0.5
t3 0.5q4 2 6 4q6 5 6 11q0 5 -2 7q-2 3 -7 5q-1 1 -3 1q-5 0 -12 -5q-4 -3 -10 -9q-5 -8 -5 -15v-1l-1 -1l-6 -4h-2q-3 0 -3 4v1q1 2 2 3q0 2 3 5q1 2 3 5t2 4v2q0 2 -2 6q-4 4 -7 4t-5 -1l-4 -2q-1 0 -3 -1l-1 -1l-2 -1h-1h1v2l4 4q2 3 4.5 7.5t3.5 6.5q4 1 11 1h2v-15v0h1
v0h1v0v15q3 -1 9.5 -2t9.5 -1l8 -4l1 -1l1 1v2q0 5 -8 8q-12 5 -24 5h-6l4 8v1v3l-3 3q-2 2 -3 2h-1q-1 0 -1 -1t-3 -6v-1q-4 -6 -6 -10h-11q1 1 2.5 4t2.5 4v-4v-1h1h1v1v9v1l1 2v1q0 3 -2 5l-3 3h-2q-1 0 -1 -1v-1v-1zM548 280v2h1v-3zM550 279v3q7 2 13 9q3 -4 8 -6h1h1
v0v1v2l-1 1q0 1 -1 1q0 1 -1 1v1v1q0 7 8 15v-12v0v-1h1v1v0v13q1 1 19 11q-3 -5 -7 -13q-3 -7 -3 -9v-1q2 -5 4 -6v-6v-1h1h1v1v5h2v-20v0v0h1v0v20q7 0 14 6l3 3q2 -5 4 -6q4 -4 15 -6h4v-9v-1h1v0v1v9q1 0 1 1h1v-15q-3 0 -4 -1q-7 -2 -15 -10q-11 -8 -18 -18
q-9 -12 -10 -19v-2q-7 -7 -13 -7h-1q-5 0 -5 6l1 3q3 10 8 17v1q5 7 5 9q0 4 -4 8q-5 6 -10 6q-4 0 -12 -3l-2 -1h-3l-1 -1h-1v1l1 1l2 2v1v2q0 3 -2 5q-2 3 -5 5zM628 313l2 2q3 3 5 4q1 1 2.5 2t2.5 1l3 2h1q-2 -5 -5 -7q-6 -4 -9 -4h-1h-1zM569 331l3 6l3 6h3q0 1 2 1h3
h3q-3 -3 -5 -7h-1v-2q-1 0 -1 -1q-7 -8 -11 -17q-6 -13 -7 -16v-2q0 -2 1 -3q-5 -5 -6 -5q-2 -1 -3 -1q-2 0 -2 3q0 2 5 12q3 8 9 19l1 1v1l1 2v-6h1v0h1v0v9zM761 238l1 -1q4 -3 10 -3q2 0 12 2h-1v-1q0 -1 -1 -1q0 -1 -1 -2l-3 -6q-3 -8 -3 -13q0 -7 4 -10t11 -3v-12
q-2 1 -7 1q-20 1 -43 1h-6v10q4 2 6 4q8 5 14 16q6 12 7 18zM707 241q0 1 3 4q2 2 8 6q6 5 9 6q5 3 6 3v0v-1q-1 -5 -8 -12q-8 -5 -14 -6h-2h-1h-1zM725 190v8h1q1 0 2 1v-9h-3zM515 165q-12 -2 -38 -7t-36 -7v1v5q14 14 23 15q8 1 15 1q17 0 36 -8zM440 150h-5l4 4v-2v-1
q0 -1 1 -1zM612 222h-1l-1 -1v0v0q0 1 1 2t1 3q1 1 3 3.5t4 4.5l3 3l12 12q5 5 11 9h1q1 0 2 1h3h1h1q0 -2 -4 -5l-10 -10l-1 -1q-5 -5 -8 -7q-1 -1 -3 -2.5t-3 -2.5zM595 215l1 -1q4 -6 7 -7q3 -2 9 -2h2q5 0 11 3v-18v-1v0h1h1v1v20q1 0 2 1l2 2q1 0 2 1q12 10 13 11l2 1
q-4 -7 -10 -23q-1 -3 -3.5 -8l-3.5 -7q-1 -1 -1 -3t-1 -3q-57 -7 -91 -13l-7 -1q-12 6 -19 9q-1 1 -4 2t-5 2v1v29l1 1q2 0 2 1q1 1 2 1v-3q1 -3 5 -7l1 -2v-24q0 -1 1 -1v-1h1l1 1v1v22h2l1 -1q3 0 3 3l-1 2v1q0 2 3 7q1 4 5 10q1 3 5 9l2 3l4 2v-27v-1q1 0 1 -1h1q0 1 1 1
v1v29h2v-8v-1h1h1l1 1v10q2 2 4 2l3 1q6 3 8 3v0q0 -1 -1 -3q-3 -6 -4 -11l-1 -6v-2q4 -10 7 -14q3 -3 11 -5v-12v-1l1 -1h1v1v1v12q8 1 17 10zM501 182q-18 5 -31 5q-9 0 -14 -1q-8 -2 -15 -6v5q1 0 1 -1h1h1q2 0 2 1t0.5 1t0.5 1v1l-1 1v3v2q3 16 18 42q2 3 6 9.5t6 10.5
v-21q-5 -10 -5 -16v-1q0 -6 4 -9q6 -4 11 -4t15 5v-28zM582 160v-22v-1v0h1v0h1v1v22l16 3q2 0 5 0.5t4 0.5t3 0.5t3 0.5q4 0 5 1h1q-3 -6 -14 -29q-2 -4 -4 -7.5t-3.5 -5.5t-1.5 -3l-7 5q-2 1 -6 5l-9 6q-2 2 -6 5t-5 4q-2 1 -4 3l-4 2q-1 1 -3 2q-2 2 -3 2l12 2q1 0 4 0.5
t5 0.5q1 1 5 1v-16v-1l1 -1h1q0 1 1 1v1v17h1h1zM517 277v-22v-1h1v-1h1l1 1v1v25q1 0 1 1q1 1 2.5 3.5t2.5 3.5q2 2 2 3t1 2l2 2l1 1q0 2 1 2v1l1 1q0 1 -4 7q-5 4 -8 4h-1l-16 -21v-1q0 -3 3 -7q7 -5 8 -5h1zM398 166q11 6 13 7q9 8 14 17q5 12 5 20t-4 20q-2 6 -2 8
q-1 1 -1 3q-1 4 -1 11q0 8 3 14q4 6 6 8q1 0 1 1t1 2q0 1 -2 5q-1 2 -4 5q-2 2 -6 2q-2 0 -3 -1q-7 -9 -8 -13q-3 -6 -3 -12v-28q0 -2 1 -2q-3 -6 -7 -10q-7 -7 -13 -7h-1q-5 0 -5 6l1 3q3 10 8 17v1q5 7 5 9q0 4 -4 8q-4 6 -10 6q-4 0 -12 -3l-2 -1h-3l-1 -1h-1v1q1 0 1 1
l2 2v1v2q0 3 -2 5q-2 3 -5 5q-2 2 -5 2q-2 0 -2 -2t-9 -14q-10 -14 -14 -21l-1 -1h-1v-1v-1q-1 0 -1 -1t-1 -2q-7 -12 -8 -18q-8 -8 -12 -8q-2 0 -2 4v2v1q3 9 4 11q0 1 2 5t2 5q5 9 5 12v1q0 3 -5 6q-3 4 -6 4h-2v-1q-1 0 -4 -3l-1 -1q-3 -4 -12 -13l-14 -14q-2 -2 -14 -11
l-1 -1q-1 -1 -2 -1l-1 -1h-1v0q0 -1 -1 -1q0 1 3 7q1 1 5 7q0 1 1 2.5t1 2.5q1 1 3 4l1 1v2v-3v-1h1v-1h1h1v1h1v1v9q0 1 1 1q0 1 1 2v-16v-1h1h1v1h1v21q1 2 1 5t-2 5q-1 2 -5 6q-4 2 -5 2q-2 0 -2 -3l-3 -5q-1 -4 -4 -8l-1 -1q0 -2 -1 -2q-1 -3 -4.5 -9t-5.5 -9l-3 -6
l-1.5 -3t-1.5 -2.5t-1 -2.5q-1 -2 -1 -7q0 -7 5 -12t10 -5l2 -1q3 0 13 4v-31v-1q1 0 1 -1h1v1h1v1v33l1 1h1l18 15v-1q1 -2 1 -3v-1v-6q3 -7 8 -9v-10q1 0 1 -1v-1h1l1 1v1v9h1q7 0 16 11q1 -2 4 -5l1 -2v-24l1 -1v-1h1h1v1v1v22h2l1 -1q3 0 3 3l-1 2v1q0 2 3 7q1 4 5 10
q1 3 5 9l2 3l4 2v-27v-1h1v-1h1q0 1 1 1v1v29h2v-8v-1h1h1l1 1v10q2 2 4 2l3 1q6 3 8 3v0q0 -1 -1 -3q-3 -6 -4 -11l-1 -6v-2q3 -9 7 -13q-3 -2 -5 -5t-2 -10q0 -12 5 -19q6 -10 16 -11h4h4v-36v0l1 -1h1v1h1v36zM410 238v9q0 -3 1 -4v-1v-1q-1 -1 -1 -3zM411 227v-12v-1h1
v-1h1q0 1 1 1v1v18q1 -5 1 -13q0 -16 -10 -27q-10 -13 -25 -13v5q0 5 3 9q0 1 1 2v-3v-1l1 -1h1v-3v-1h2h2v1h1v9v0q2 -2 5 -2q2 0 2 2q0 3 -4 8l-2 2q4 1 11 8q5 5 8 12zM247 109q0 -7 -5 -11q-5 -5 -11 -5h-16v68h16q7 0 11 -4q5 -5 5 -12v-36zM225 103h6q2 0 4 2q2 1 2 4
v36q0 3 -2 4q-2 2 -4 2h-6v-48zM256 93v68h29v-10h-19v-19h14v-10h-14v-19h19v-10h-29zM303 93h-11v68h15l10 -49l9 49h14v-68h-10v43l-9 -43h-8l-10 43v-43zM365 162q7 0 12 -5t5 -11v-37q0 -7 -5 -12t-12 -5q-6 0 -11 5t-5 12v37q0 6 5 11t11 5zM371 146q0 2 -2 4t-4 2
t-4 -2t-2 -4v-37q0 -2 2 -4q1 -2 4 -2t4 2q2 2 2 4v37z" />
    <glyph glyph-name="ampersand" unicode="&#x26;" horiz-adv-x="931" 
d="M0 481h931v-480h-931v480zM208 169v-85h179v85h-179zM254 385q12 3 21 3q6 0 9 -1v0v0h1v-1v0l1 -2v-3t-0.5 -3.5t-0.5 -3.5q-5 -13 -17 -24q-7 -9 -23 -19q-3 -2 -22 -13q-10 -5 -18 -7h-3h-6h-1v1v0h-1l-1 1l-1 1l-1 1q-4 2 -5 2l-2 -1v-1q0 -3 3 -7l7 -7q8 -5 17 -5
q4 0 5 1h1q2 0 4 1q13 5 18 8q2 1 9 5.5t11 7.5q23 16 32 30v-12h1v-1h1v0h1v1v16q4 5 6 13v5q0 12 -10 22q-5 5 -9 6q-6 3 -14 3h-3q-12 0 -18 -2q-45 -14 -91 -55q-1 -1 -3.5 -3t-4.5 -4l-8 -8q-19 -22 -26 -35q-17 -29 -21 -52v-5v-5q2 -6 3 -10q4 -6 8 -9q0 -1 2 -3
l2 -2h1q7 -6 17 -6q1 0 3.5 -0.5t3.5 -0.5q23 0 65 17h2l1 1h1h1v1h1v-1h-1v-1v-1l-2 -4q0 -2 -1 -3q0 -1 -2 -5v-1q-20 -55 -39 -75q-8 -8 -15 -8q-1 0 -1 1h-2l-4 2l-1 1h-1l-1 1q-5 5 -7 13q0 2 -0.5 5t-0.5 4q0 13 10 25q5 5 10 6l1 1h2h1q1 0 1 0.5t1 0.5h1h1v0v0v1h1
v1q0 3 -4 6q-3 4 -6 6h-1h-1h-1q-15 -2 -24 -15q0 -1 -2 -3q0 -1 -1 -2v-2q-3 -8 -3 -16q0 -4 2 -12v-43q0 -1 1 -2t2 -1l2 1q1 1 1 2v29q2 -4 8 -10q7 -8 15 -10q1 -1 2.5 -1.5t3 -1.5t2.5 -1h4h2h1q0 1 1 1q4 1 13 8q6 8 9 13q19 26 41 93l1 1v-27v-1q0 -1 1 -1h1v1
q1 0 1 1v34h1v1h1q1 0 1 1h1v1v1l-1 1v3l-1 1l1 4q4 15 5 19q1 2 1 4q1 1 1 2v1h-1v2h1h1l1 1q2 0 4 1q8 2 24 5h3l1 -2q6 -4 7 -4v0v-1h2l1 1q1 1 1 2t-2 5q0 1 -1 2.5t-2 2.5q-6 6 -13 8h-5q-5 0 -7 -1q-6 0 -22 -4q-21 -7 -35 -13q-21 -6 -22 -7h-1v-1h-1v1l-1 1
q-4 4 -8 4h-1q-1 0 -1 -1v-1v-2v-1q2 -4 5 -8t8 -6q3 -1 7 -1v-10v-1h1v-1h1h1l1 1v1v11h1h1v-17q1 0 1 -1v0h1l1 1v18q1 0 3 1q4 2 6 2l2 1q1 1 3 1l4 2h2l1 1q1 0 2 1h1h1h1v1h1h1v1h1v0v0h1v0q0 -2 -1 -4q-1 -1 -1 -4q-1 -1 -1 -3q-1 -1 -1 -4q-1 -1 -1 -2q0 -2 -1 -2
q-1 -2 -1 -4h-1q-1 0 -1 -1h-1h-1l-2 -1q-2 -2 -4 -2q-28 -14 -60 -21q-2 0 -4 -0.5t-3 -0.5h-1h-4q-2 0 -4 -1q-10 0 -15 3h-1q0 1 -1 2q0 1 -0.5 3t-0.5 4q0 8 5 23q13 34 40 64q42 45 90 65l9 3v-35v-1h1v-1h1h1v1h1v1v37zM581 376q-8 -16 -12 -23l-1 -1h-1q-1 0 -3 -0.5
t-3 -0.5q-4 0 -6 -1h-4q-2 -1 -5 -1q-2 0 -3 1q-3 0 -8 3v0q1 -2 3 -5q6 -7 18 -7h6q-11 -20 -17 -33q-4 -9 -4 -16v-4q2 -5 5 -5v-3q-2 0 -2 -2t-9 -14l-15 -21v-1v0h-1v-1l-2 -4q-6 -10 -7 -14q-7 -7 -13 -7t-6 6v1q0 5 4 10q4 8 7 13q2 2 4 6v-1h1v-1h1h1q0 1 1 1v1v7
l3 6l1 2q0 2 -3 5q-1 1 -2 2.5t-2 2.5q-4 2 -5 2t-3 -2q-8 -15 -10 -19q-2 -3 -5.5 -9t-5.5 -9v20q1 1 1 2l1 1v-7v-1l1 -1q1 0 1 -0.5t1 -0.5l2 1q1 1 1 2v16l9 14q19 29 24 41v3q0 2 -1 3q-1 3 -4 6l-1 1q-2 2 -4 2h-1l-1 1q-2 0 -2 -2q-8 -15 -39 -22q-33 -9 -67 -9h-5
q-23 0 -41 6q-14 4 -19 12q-4 6 -4 11q0 12 13 33v1v3q-2 4 -4 5q-3 2 -5 4h-1h-2q-1 0 -1 -1q-13 -19 -13 -36q0 -10 4 -17v-34v-1h1v-1q1 0 1 1h1v1v30l1 -1l1 -2v-9v-1h1q0 -1 1 -1h1q0 1 1 1v1v5q13 -13 29 -17q18 -7 45 -7h4q43 0 79 12l-4 -6q-10 -16 -32 -52
q-16 -31 -19 -44v-4q0 -7 2 -10q1 -2 5 -6v-7q-15 -10 -28 -35v-1v-1q0 -2 1 -3q2 -4 4 -5q6 -4 7 -4h1l33 8h2q2 0 3 1v-9v0v-1h1h1v1v0v9q2 0 3 1v-37v0v-1v0h1h1v1v0v37q9 2 69 13q37 -24 46 -33h1q17 -15 23 -15h1q2 2 13 21q12 26 19 42q55 6 82 6h5v-5q0 -1 1 -2t2 -1
t1 0.5t1 0.5l1 2v5q2 0 5.5 0.5t4.5 0.5h11q15 0 35 -2v-10v-1h1v-1h1l1 1v1v10q15 -1 27 -6q29 -8 31 -31q0 -2 1 -4l1 -1q1 -1 1 -2v-29v-1h1v-1l1 1v0v1v25q3 -3 5 -3q2 -2 5 -2h1q3 2 3 5v4q0 29 -27 43q-23 13 -50 16v12q9 0 20 8q11 10 16 28v1l-1 1q-1 0 -2 -1
q-2 0 -2 -1h-1v-1q-2 -11 -10 -18q-7 -6 -13 -6q-5 0 -5 5v3q1 2 10 17q3 3 4 5v-14v-1h1v-1h1l1 1v1v18l2 2v1l2 2l1 2h1v1q0 1 -2 5q-2 3 -5 5q-1 2 -5 2q-1 0 -2 -1q-2 0 -6 -3q-2 0 -4 -2q-1 -1 -3.5 -2t-3.5 -1q-3 -1 -7 -3q-1 -1 -2.5 -1t-2.5 -1q-6 -2 -7 -2v1
q2 5 6 11h1v-1v0l1 -1h1q1 0 1 1h1v5l1 1v-9h1v0h1h1v0v11h1v1q2 0 2 2t-3 5q-2 3 -5 5l-4 2l-8 -4q-3 -3 -9 -11q-5 -8 -5 -15q0 -4 3 -8q0 -1 2 -3v0h-1v-1v0q-3 -20 -22 -26q-9 -4 -21 -4q-11 0 -18 4q-1 1 -1 3q0 4 1 6q1 1 1 3t1 3l3 3v-1l4 -2v-11q0 -1 1 -1v0h1h1v1
v10q3 -2 11 -2q6 0 9 2q2 1 11 5q10 9 10 19q0 8 -4 13q-6 6 -11 8q-2 1 -5 1q-10 0 -20 -8q-10 -6 -17 -15q-10 -13 -10 -25q0 -13 9 -20t26 -9h6v-8q-34 -1 -73 -6l1 1v2v1l1 2l3 6q1 1 1.5 2t0.5 2q1 3 4 9t4 9q1 2 3 7t3 7q6 12 8 18q6 15 7 17q-3 5 -5 7t-7 5
q-1 0 -3 -2l-5 -5q-2 -2 -2 -3l-2 -2l-2 -2q-3 3 -9 7q-2 0 -3.5 0.5t-2.5 0.5v16l4 2q5 3 8 9q4 7 5 13v1h-1h-1h-1q0 -1 -1 -1v0v0v0q-1 -11 -13 -16q-8 -2 -12 -2q-5 0 -11 2q0 1 -0.5 1t-0.5 1v1q1 2 1 3t1 3l2 2l2 -2v-6q0 -1 1 -1v0h1v1v5q1 0 3 -0.5t3 -0.5t3 0.5
t3 0.5q4 2 6 4q6 5 6 11q0 5 -2 7q-2 3 -7 5q-1 1 -3 1q-5 0 -12 -5q-4 -3 -10 -9q-5 -8 -5 -15v-1l-1 -1l-6 -4h-2q-3 0 -3 4v1q1 2 2 3q0 2 3 5q1 2 3 5t2 4v2q0 2 -2 6q-4 4 -7 4t-5 -1l-4 -2q-1 0 -3 -1l-1 -1l-2 -1h-1h1v2l4 4q2 3 4.5 7.5t3.5 6.5q4 1 11 1h2v-15v0h1
v0h1v0v15q3 -1 9.5 -2t9.5 -1l8 -4l1 -1l1 1v2q0 5 -8 8q-12 5 -24 5h-6l4 8v1v3l-3 3q-2 2 -3 2h-1q-1 0 -1 -1t-3 -6v-1q-4 -6 -6 -10h-11q1 1 2.5 4t2.5 4v-4v-1h1h1v1v9v1l1 2v1q0 3 -2 5l-3 3h-2q-1 0 -1 -1v-1v-1zM548 280v2h1v-3zM550 279v3q7 2 13 9q3 -4 8 -6h1h1
v0v1v2l-1 1q0 1 -1 1q0 1 -1 1v1v1q0 7 8 15v-12v0v-1h1v1v0v13q1 1 19 11q-3 -5 -7 -13q-3 -7 -3 -9v-1q2 -5 4 -6v-6v-1h1h1v1v5h2v-20v0v0h1v0v20q7 0 14 6l3 3q2 -5 4 -6q4 -4 15 -6h4v-9v-1h1v0v1v9q1 0 1 1h1v-15q-3 0 -4 -1q-7 -2 -15 -10q-11 -8 -18 -18
q-9 -12 -10 -19v-2q-7 -7 -13 -7h-1q-5 0 -5 6l1 3q3 10 8 17v1q5 7 5 9q0 4 -4 8q-5 6 -10 6q-4 0 -12 -3l-2 -1h-3l-1 -1h-1v1l1 1l2 2v1v2q0 3 -2 5q-2 3 -5 5zM628 313l2 2q3 3 5 4q1 1 2.5 2t2.5 1l3 2h1q-2 -5 -5 -7q-6 -4 -9 -4h-1h-1zM569 331l3 6l3 6h3q0 1 2 1h3
h3q-3 -3 -5 -7h-1v-2q-1 0 -1 -1q-7 -8 -11 -17q-6 -13 -7 -16v-2q0 -2 1 -3q-5 -5 -6 -5q-2 -1 -3 -1q-2 0 -2 3q0 2 5 12q3 8 9 19l1 1v1l1 2v-6h1v0h1v0v9zM761 238l1 -1q4 -3 10 -3q2 0 12 2h-1v-1q0 -1 -1 -1q0 -1 -1 -2l-3 -6q-3 -8 -3 -13q0 -7 4 -10t11 -3v-12
q-2 1 -7 1q-20 1 -43 1h-6v10q4 2 6 4q8 5 14 16q6 12 7 18zM707 241q0 1 3 4q2 2 8 6q6 5 9 6q5 3 6 3v0v-1q-1 -5 -8 -12q-8 -5 -14 -6h-2h-1h-1zM725 190v8h1q1 0 2 1v-9h-3zM515 165q-12 -2 -38 -7t-36 -7v1v5q14 14 23 15q8 1 15 1q17 0 36 -8zM440 150h-5l4 4v-2v-1
q0 -1 1 -1zM612 222h-1l-1 -1v0v0q0 1 1 2t1 3q1 1 3 3.5t4 4.5l3 3l12 12q5 5 11 9h1q1 0 2 1h3h1h1q0 -2 -4 -5l-10 -10l-1 -1q-5 -5 -8 -7q-1 -1 -3 -2.5t-3 -2.5zM595 215l1 -1q4 -6 7 -7q3 -2 9 -2h2q5 0 11 3v-18v-1v0h1h1v1v20q1 0 2 1l2 2q1 0 2 1q12 10 13 11l2 1
q-4 -7 -10 -23q-1 -3 -3.5 -8l-3.5 -7q-1 -1 -1 -3t-1 -3q-57 -7 -91 -13l-7 -1q-12 6 -19 9q-1 1 -4 2t-5 2v1v29l1 1q2 0 2 1q1 1 2 1v-3q1 -3 5 -7l1 -2v-24q0 -1 1 -1v-1h1l1 1v1v22h2l1 -1q3 0 3 3l-1 2v1q0 2 3 7q1 4 5 10q1 3 5 9l2 3l4 2v-27v-1q1 0 1 -1h1q0 1 1 1
v1v29h2v-8v-1h1h1l1 1v10q2 2 4 2l3 1q6 3 8 3v0q0 -1 -1 -3q-3 -6 -4 -11l-1 -6v-2q4 -10 7 -14q3 -3 11 -5v-12v-1l1 -1h1v1v1v12q8 1 17 10zM501 182q-18 5 -31 5q-9 0 -14 -1q-8 -2 -15 -6v5q1 0 1 -1h1h1q2 0 2 1t0.5 1t0.5 1v1l-1 1v3v2q3 16 18 42q2 3 6 9.5t6 10.5
v-21q-5 -10 -5 -16v-1q0 -6 4 -9q6 -4 11 -4t15 5v-28zM582 160v-22v-1v0h1v0h1v1v22l16 3q2 0 5 0.5t4 0.5t3 0.5t3 0.5q4 0 5 1h1q-3 -6 -14 -29q-2 -4 -4 -7.5t-3.5 -5.5t-1.5 -3l-7 5q-2 1 -6 5l-9 6q-2 2 -6 5t-5 4q-2 1 -4 3l-4 2q-1 1 -3 2q-2 2 -3 2l12 2q1 0 4 0.5
t5 0.5q1 1 5 1v-16v-1l1 -1h1q0 1 1 1v1v17h1h1zM517 277v-22v-1h1v-1h1l1 1v1v25q1 0 1 1q1 1 2.5 3.5t2.5 3.5q2 2 2 3t1 2l2 2l1 1q0 2 1 2v1l1 1q0 1 -4 7q-5 4 -8 4h-1l-16 -21v-1q0 -3 3 -7q7 -5 8 -5h1zM398 166q11 6 13 7q9 8 14 17q5 12 5 20t-4 20q-2 6 -2 8
q-1 1 -1 3q-1 4 -1 11q0 8 3 14q4 6 6 8q1 0 1 1t1 2q0 1 -2 5q-1 2 -4 5q-2 2 -6 2q-2 0 -3 -1q-7 -9 -8 -13q-3 -6 -3 -12v-28q0 -2 1 -2q-3 -6 -7 -10q-7 -7 -13 -7h-1q-5 0 -5 6l1 3q3 10 8 17v1q5 7 5 9q0 4 -4 8q-4 6 -10 6q-4 0 -12 -3l-2 -1h-3l-1 -1h-1v1q1 0 1 1
l2 2v1v2q0 3 -2 5q-2 3 -5 5q-2 2 -5 2q-2 0 -2 -2t-9 -14q-10 -14 -14 -21l-1 -1h-1v-1v-1q-1 0 -1 -1t-1 -2q-7 -12 -8 -18q-8 -8 -12 -8q-2 0 -2 4v2v1q3 9 4 11q0 1 2 5t2 5q5 9 5 12v1q0 3 -5 6q-3 4 -6 4h-2v-1q-1 0 -4 -3l-1 -1q-3 -4 -12 -13l-14 -14q-2 -2 -14 -11
l-1 -1q-1 -1 -2 -1l-1 -1h-1v0q0 -1 -1 -1q0 1 3 7q1 1 5 7q0 1 1 2.5t1 2.5q1 1 3 4l1 1v2v-3v-1h1v-1h1h1v1h1v1v9q0 1 1 1q0 1 1 2v-16v-1h1h1v1h1v21q1 2 1 5t-2 5q-1 2 -5 6q-4 2 -5 2q-2 0 -2 -3l-3 -5q-1 -4 -4 -8l-1 -1q0 -2 -1 -2q-1 -3 -4.5 -9t-5.5 -9l-3 -6
l-1.5 -3t-1.5 -2.5t-1 -2.5q-1 -2 -1 -7q0 -7 5 -12t10 -5l2 -1q3 0 13 4v-31v-1q1 0 1 -1h1v1h1v1v33l1 1h1l18 15v-1q1 -2 1 -3v-1v-6q3 -7 8 -9v-10q1 0 1 -1v-1h1l1 1v1v9h1q7 0 16 11q1 -2 4 -5l1 -2v-24l1 -1v-1h1h1v1v1v22h2l1 -1q3 0 3 3l-1 2v1q0 2 3 7q1 4 5 10
q1 3 5 9l2 3l4 2v-27v-1h1v-1h1q0 1 1 1v1v29h2v-8v-1h1h1l1 1v10q2 2 4 2l3 1q6 3 8 3v0q0 -1 -1 -3q-3 -6 -4 -11l-1 -6v-2q3 -9 7 -13q-3 -2 -5 -5t-2 -10q0 -12 5 -19q6 -10 16 -11h4h4v-36v0l1 -1h1v1h1v36zM410 238v9q0 -3 1 -4v-1v-1q-1 -1 -1 -3zM411 227v-12v-1h1
v-1h1q0 1 1 1v1v18q1 -5 1 -13q0 -16 -10 -27q-10 -13 -25 -13v5q0 5 3 9q0 1 1 2v-3v-1l1 -1h1v-3v-1h2h2v1h1v9v0q2 -2 5 -2q2 0 2 2q0 3 -4 8l-2 2q4 1 11 8q5 5 8 12zM247 109q0 -7 -5 -11q-5 -5 -11 -5h-16v68h16q7 0 11 -4q5 -5 5 -12v-36zM225 103h6q2 0 4 2q2 1 2 4
v36q0 3 -2 4q-2 2 -4 2h-6v-48zM256 93v68h29v-10h-19v-19h14v-10h-14v-19h19v-10h-29zM303 93h-11v68h15l10 -49l9 49h14v-68h-10v43l-9 -43h-8l-10 43v-43zM365 162q7 0 12 -5t5 -11v-37q0 -7 -5 -12t-12 -5q-6 0 -11 5t-5 12v37q0 6 5 11t11 5zM371 146q0 2 -2 4t-4 2
t-4 -2t-2 -4v-37q0 -2 2 -4q1 -2 4 -2t4 2q2 2 2 4v37z" />
    <glyph glyph-name="quotesingle" unicode="'" horiz-adv-x="931" 
d="M0 481h931v-480h-931v480zM208 169v-85h179v85h-179zM254 385q12 3 21 3q6 0 9 -1v0v0h1v-1v0l1 -2v-3t-0.5 -3.5t-0.5 -3.5q-5 -13 -17 -24q-7 -9 -23 -19q-3 -2 -22 -13q-10 -5 -18 -7h-3h-6h-1v1v0h-1l-1 1l-1 1l-1 1q-4 2 -5 2l-2 -1v-1q0 -3 3 -7l7 -7q8 -5 17 -5
q4 0 5 1h1q2 0 4 1q13 5 18 8q2 1 9 5.5t11 7.5q23 16 32 30v-12h1v-1h1v0h1v1v16q4 5 6 13v5q0 12 -10 22q-5 5 -9 6q-6 3 -14 3h-3q-12 0 -18 -2q-45 -14 -91 -55q-1 -1 -3.5 -3t-4.5 -4l-8 -8q-19 -22 -26 -35q-17 -29 -21 -52v-5v-5q2 -6 3 -10q4 -6 8 -9q0 -1 2 -3
l2 -2h1q7 -6 17 -6q1 0 3.5 -0.5t3.5 -0.5q23 0 65 17h2l1 1h1h1v1h1v-1h-1v-1v-1l-2 -4q0 -2 -1 -3q0 -1 -2 -5v-1q-20 -55 -39 -75q-8 -8 -15 -8q-1 0 -1 1h-2l-4 2l-1 1h-1l-1 1q-5 5 -7 13q0 2 -0.5 5t-0.5 4q0 13 10 25q5 5 10 6l1 1h2h1q1 0 1 0.5t1 0.5h1h1v0v0v1h1
v1q0 3 -4 6q-3 4 -6 6h-1h-1h-1q-15 -2 -24 -15q0 -1 -2 -3q0 -1 -1 -2v-2q-3 -8 -3 -16q0 -4 2 -12v-43q0 -1 1 -2t2 -1l2 1q1 1 1 2v29q2 -4 8 -10q7 -8 15 -10q1 -1 2.5 -1.5t3 -1.5t2.5 -1h4h2h1q0 1 1 1q4 1 13 8q6 8 9 13q19 26 41 93l1 1v-27v-1q0 -1 1 -1h1v1
q1 0 1 1v34h1v1h1q1 0 1 1h1v1v1l-1 1v3l-1 1l1 4q4 15 5 19q1 2 1 4q1 1 1 2v1h-1v2h1h1l1 1q2 0 4 1q8 2 24 5h3l1 -2q6 -4 7 -4v0v-1h2l1 1q1 1 1 2t-2 5q0 1 -1 2.5t-2 2.5q-6 6 -13 8h-5q-5 0 -7 -1q-6 0 -22 -4q-21 -7 -35 -13q-21 -6 -22 -7h-1v-1h-1v1l-1 1
q-4 4 -8 4h-1q-1 0 -1 -1v-1v-2v-1q2 -4 5 -8t8 -6q3 -1 7 -1v-10v-1h1v-1h1h1l1 1v1v11h1h1v-17q1 0 1 -1v0h1l1 1v18q1 0 3 1q4 2 6 2l2 1q1 1 3 1l4 2h2l1 1q1 0 2 1h1h1h1v1h1h1v1h1v0v0h1v0q0 -2 -1 -4q-1 -1 -1 -4q-1 -1 -1 -3q-1 -1 -1 -4q-1 -1 -1 -2q0 -2 -1 -2
q-1 -2 -1 -4h-1q-1 0 -1 -1h-1h-1l-2 -1q-2 -2 -4 -2q-28 -14 -60 -21q-2 0 -4 -0.5t-3 -0.5h-1h-4q-2 0 -4 -1q-10 0 -15 3h-1q0 1 -1 2q0 1 -0.5 3t-0.5 4q0 8 5 23q13 34 40 64q42 45 90 65l9 3v-35v-1h1v-1h1h1v1h1v1v37zM581 376q-8 -16 -12 -23l-1 -1h-1q-1 0 -3 -0.5
t-3 -0.5q-4 0 -6 -1h-4q-2 -1 -5 -1q-2 0 -3 1q-3 0 -8 3v0q1 -2 3 -5q6 -7 18 -7h6q-11 -20 -17 -33q-4 -9 -4 -16v-4q2 -5 5 -5v-3q-2 0 -2 -2t-9 -14l-15 -21v-1v0h-1v-1l-2 -4q-6 -10 -7 -14q-7 -7 -13 -7t-6 6v1q0 5 4 10q4 8 7 13q2 2 4 6v-1h1v-1h1h1q0 1 1 1v1v7
l3 6l1 2q0 2 -3 5q-1 1 -2 2.5t-2 2.5q-4 2 -5 2t-3 -2q-8 -15 -10 -19q-2 -3 -5.5 -9t-5.5 -9v20q1 1 1 2l1 1v-7v-1l1 -1q1 0 1 -0.5t1 -0.5l2 1q1 1 1 2v16l9 14q19 29 24 41v3q0 2 -1 3q-1 3 -4 6l-1 1q-2 2 -4 2h-1l-1 1q-2 0 -2 -2q-8 -15 -39 -22q-33 -9 -67 -9h-5
q-23 0 -41 6q-14 4 -19 12q-4 6 -4 11q0 12 13 33v1v3q-2 4 -4 5q-3 2 -5 4h-1h-2q-1 0 -1 -1q-13 -19 -13 -36q0 -10 4 -17v-34v-1h1v-1q1 0 1 1h1v1v30l1 -1l1 -2v-9v-1h1q0 -1 1 -1h1q0 1 1 1v1v5q13 -13 29 -17q18 -7 45 -7h4q43 0 79 12l-4 -6q-10 -16 -32 -52
q-16 -31 -19 -44v-4q0 -7 2 -10q1 -2 5 -6v-7q-15 -10 -28 -35v-1v-1q0 -2 1 -3q2 -4 4 -5q6 -4 7 -4h1l33 8h2q2 0 3 1v-9v0v-1h1h1v1v0v9q2 0 3 1v-37v0v-1v0h1h1v1v0v37q9 2 69 13q37 -24 46 -33h1q17 -15 23 -15h1q2 2 13 21q12 26 19 42q55 6 82 6h5v-5q0 -1 1 -2t2 -1
t1 0.5t1 0.5l1 2v5q2 0 5.5 0.5t4.5 0.5h11q15 0 35 -2v-10v-1h1v-1h1l1 1v1v10q15 -1 27 -6q29 -8 31 -31q0 -2 1 -4l1 -1q1 -1 1 -2v-29v-1h1v-1l1 1v0v1v25q3 -3 5 -3q2 -2 5 -2h1q3 2 3 5v4q0 29 -27 43q-23 13 -50 16v12q9 0 20 8q11 10 16 28v1l-1 1q-1 0 -2 -1
q-2 0 -2 -1h-1v-1q-2 -11 -10 -18q-7 -6 -13 -6q-5 0 -5 5v3q1 2 10 17q3 3 4 5v-14v-1h1v-1h1l1 1v1v18l2 2v1l2 2l1 2h1v1q0 1 -2 5q-2 3 -5 5q-1 2 -5 2q-1 0 -2 -1q-2 0 -6 -3q-2 0 -4 -2q-1 -1 -3.5 -2t-3.5 -1q-3 -1 -7 -3q-1 -1 -2.5 -1t-2.5 -1q-6 -2 -7 -2v1
q2 5 6 11h1v-1v0l1 -1h1q1 0 1 1h1v5l1 1v-9h1v0h1h1v0v11h1v1q2 0 2 2t-3 5q-2 3 -5 5l-4 2l-8 -4q-3 -3 -9 -11q-5 -8 -5 -15q0 -4 3 -8q0 -1 2 -3v0h-1v-1v0q-3 -20 -22 -26q-9 -4 -21 -4q-11 0 -18 4q-1 1 -1 3q0 4 1 6q1 1 1 3t1 3l3 3v-1l4 -2v-11q0 -1 1 -1v0h1h1v1
v10q3 -2 11 -2q6 0 9 2q2 1 11 5q10 9 10 19q0 8 -4 13q-6 6 -11 8q-2 1 -5 1q-10 0 -20 -8q-10 -6 -17 -15q-10 -13 -10 -25q0 -13 9 -20t26 -9h6v-8q-34 -1 -73 -6l1 1v2v1l1 2l3 6q1 1 1.5 2t0.5 2q1 3 4 9t4 9q1 2 3 7t3 7q6 12 8 18q6 15 7 17q-3 5 -5 7t-7 5
q-1 0 -3 -2l-5 -5q-2 -2 -2 -3l-2 -2l-2 -2q-3 3 -9 7q-2 0 -3.5 0.5t-2.5 0.5v16l4 2q5 3 8 9q4 7 5 13v1h-1h-1h-1q0 -1 -1 -1v0v0v0q-1 -11 -13 -16q-8 -2 -12 -2q-5 0 -11 2q0 1 -0.5 1t-0.5 1v1q1 2 1 3t1 3l2 2l2 -2v-6q0 -1 1 -1v0h1v1v5q1 0 3 -0.5t3 -0.5t3 0.5
t3 0.5q4 2 6 4q6 5 6 11q0 5 -2 7q-2 3 -7 5q-1 1 -3 1q-5 0 -12 -5q-4 -3 -10 -9q-5 -8 -5 -15v-1l-1 -1l-6 -4h-2q-3 0 -3 4v1q1 2 2 3q0 2 3 5q1 2 3 5t2 4v2q0 2 -2 6q-4 4 -7 4t-5 -1l-4 -2q-1 0 -3 -1l-1 -1l-2 -1h-1h1v2l4 4q2 3 4.5 7.5t3.5 6.5q4 1 11 1h2v-15v0h1
v0h1v0v15q3 -1 9.5 -2t9.5 -1l8 -4l1 -1l1 1v2q0 5 -8 8q-12 5 -24 5h-6l4 8v1v3l-3 3q-2 2 -3 2h-1q-1 0 -1 -1t-3 -6v-1q-4 -6 -6 -10h-11q1 1 2.5 4t2.5 4v-4v-1h1h1v1v9v1l1 2v1q0 3 -2 5l-3 3h-2q-1 0 -1 -1v-1v-1zM548 280v2h1v-3zM550 279v3q7 2 13 9q3 -4 8 -6h1h1
v0v1v2l-1 1q0 1 -1 1q0 1 -1 1v1v1q0 7 8 15v-12v0v-1h1v1v0v13q1 1 19 11q-3 -5 -7 -13q-3 -7 -3 -9v-1q2 -5 4 -6v-6v-1h1h1v1v5h2v-20v0v0h1v0v20q7 0 14 6l3 3q2 -5 4 -6q4 -4 15 -6h4v-9v-1h1v0v1v9q1 0 1 1h1v-15q-3 0 -4 -1q-7 -2 -15 -10q-11 -8 -18 -18
q-9 -12 -10 -19v-2q-7 -7 -13 -7h-1q-5 0 -5 6l1 3q3 10 8 17v1q5 7 5 9q0 4 -4 8q-5 6 -10 6q-4 0 -12 -3l-2 -1h-3l-1 -1h-1v1l1 1l2 2v1v2q0 3 -2 5q-2 3 -5 5zM628 313l2 2q3 3 5 4q1 1 2.5 2t2.5 1l3 2h1q-2 -5 -5 -7q-6 -4 -9 -4h-1h-1zM569 331l3 6l3 6h3q0 1 2 1h3
h3q-3 -3 -5 -7h-1v-2q-1 0 -1 -1q-7 -8 -11 -17q-6 -13 -7 -16v-2q0 -2 1 -3q-5 -5 -6 -5q-2 -1 -3 -1q-2 0 -2 3q0 2 5 12q3 8 9 19l1 1v1l1 2v-6h1v0h1v0v9zM761 238l1 -1q4 -3 10 -3q2 0 12 2h-1v-1q0 -1 -1 -1q0 -1 -1 -2l-3 -6q-3 -8 -3 -13q0 -7 4 -10t11 -3v-12
q-2 1 -7 1q-20 1 -43 1h-6v10q4 2 6 4q8 5 14 16q6 12 7 18zM707 241q0 1 3 4q2 2 8 6q6 5 9 6q5 3 6 3v0v-1q-1 -5 -8 -12q-8 -5 -14 -6h-2h-1h-1zM725 190v8h1q1 0 2 1v-9h-3zM515 165q-12 -2 -38 -7t-36 -7v1v5q14 14 23 15q8 1 15 1q17 0 36 -8zM440 150h-5l4 4v-2v-1
q0 -1 1 -1zM612 222h-1l-1 -1v0v0q0 1 1 2t1 3q1 1 3 3.5t4 4.5l3 3l12 12q5 5 11 9h1q1 0 2 1h3h1h1q0 -2 -4 -5l-10 -10l-1 -1q-5 -5 -8 -7q-1 -1 -3 -2.5t-3 -2.5zM595 215l1 -1q4 -6 7 -7q3 -2 9 -2h2q5 0 11 3v-18v-1v0h1h1v1v20q1 0 2 1l2 2q1 0 2 1q12 10 13 11l2 1
q-4 -7 -10 -23q-1 -3 -3.5 -8l-3.5 -7q-1 -1 -1 -3t-1 -3q-57 -7 -91 -13l-7 -1q-12 6 -19 9q-1 1 -4 2t-5 2v1v29l1 1q2 0 2 1q1 1 2 1v-3q1 -3 5 -7l1 -2v-24q0 -1 1 -1v-1h1l1 1v1v22h2l1 -1q3 0 3 3l-1 2v1q0 2 3 7q1 4 5 10q1 3 5 9l2 3l4 2v-27v-1q1 0 1 -1h1q0 1 1 1
v1v29h2v-8v-1h1h1l1 1v10q2 2 4 2l3 1q6 3 8 3v0q0 -1 -1 -3q-3 -6 -4 -11l-1 -6v-2q4 -10 7 -14q3 -3 11 -5v-12v-1l1 -1h1v1v1v12q8 1 17 10zM501 182q-18 5 -31 5q-9 0 -14 -1q-8 -2 -15 -6v5q1 0 1 -1h1h1q2 0 2 1t0.5 1t0.5 1v1l-1 1v3v2q3 16 18 42q2 3 6 9.5t6 10.5
v-21q-5 -10 -5 -16v-1q0 -6 4 -9q6 -4 11 -4t15 5v-28zM582 160v-22v-1v0h1v0h1v1v22l16 3q2 0 5 0.5t4 0.5t3 0.5t3 0.5q4 0 5 1h1q-3 -6 -14 -29q-2 -4 -4 -7.5t-3.5 -5.5t-1.5 -3l-7 5q-2 1 -6 5l-9 6q-2 2 -6 5t-5 4q-2 1 -4 3l-4 2q-1 1 -3 2q-2 2 -3 2l12 2q1 0 4 0.5
t5 0.5q1 1 5 1v-16v-1l1 -1h1q0 1 1 1v1v17h1h1zM517 277v-22v-1h1v-1h1l1 1v1v25q1 0 1 1q1 1 2.5 3.5t2.5 3.5q2 2 2 3t1 2l2 2l1 1q0 2 1 2v1l1 1q0 1 -4 7q-5 4 -8 4h-1l-16 -21v-1q0 -3 3 -7q7 -5 8 -5h1zM398 166q11 6 13 7q9 8 14 17q5 12 5 20t-4 20q-2 6 -2 8
q-1 1 -1 3q-1 4 -1 11q0 8 3 14q4 6 6 8q1 0 1 1t1 2q0 1 -2 5q-1 2 -4 5q-2 2 -6 2q-2 0 -3 -1q-7 -9 -8 -13q-3 -6 -3 -12v-28q0 -2 1 -2q-3 -6 -7 -10q-7 -7 -13 -7h-1q-5 0 -5 6l1 3q3 10 8 17v1q5 7 5 9q0 4 -4 8q-4 6 -10 6q-4 0 -12 -3l-2 -1h-3l-1 -1h-1v1q1 0 1 1
l2 2v1v2q0 3 -2 5q-2 3 -5 5q-2 2 -5 2q-2 0 -2 -2t-9 -14q-10 -14 -14 -21l-1 -1h-1v-1v-1q-1 0 -1 -1t-1 -2q-7 -12 -8 -18q-8 -8 -12 -8q-2 0 -2 4v2v1q3 9 4 11q0 1 2 5t2 5q5 9 5 12v1q0 3 -5 6q-3 4 -6 4h-2v-1q-1 0 -4 -3l-1 -1q-3 -4 -12 -13l-14 -14q-2 -2 -14 -11
l-1 -1q-1 -1 -2 -1l-1 -1h-1v0q0 -1 -1 -1q0 1 3 7q1 1 5 7q0 1 1 2.5t1 2.5q1 1 3 4l1 1v2v-3v-1h1v-1h1h1v1h1v1v9q0 1 1 1q0 1 1 2v-16v-1h1h1v1h1v21q1 2 1 5t-2 5q-1 2 -5 6q-4 2 -5 2q-2 0 -2 -3l-3 -5q-1 -4 -4 -8l-1 -1q0 -2 -1 -2q-1 -3 -4.5 -9t-5.5 -9l-3 -6
l-1.5 -3t-1.5 -2.5t-1 -2.5q-1 -2 -1 -7q0 -7 5 -12t10 -5l2 -1q3 0 13 4v-31v-1q1 0 1 -1h1v1h1v1v33l1 1h1l18 15v-1q1 -2 1 -3v-1v-6q3 -7 8 -9v-10q1 0 1 -1v-1h1l1 1v1v9h1q7 0 16 11q1 -2 4 -5l1 -2v-24l1 -1v-1h1h1v1v1v22h2l1 -1q3 0 3 3l-1 2v1q0 2 3 7q1 4 5 10
q1 3 5 9l2 3l4 2v-27v-1h1v-1h1q0 1 1 1v1v29h2v-8v-1h1h1l1 1v10q2 2 4 2l3 1q6 3 8 3v0q0 -1 -1 -3q-3 -6 -4 -11l-1 -6v-2q3 -9 7 -13q-3 -2 -5 -5t-2 -10q0 -12 5 -19q6 -10 16 -11h4h4v-36v0l1 -1h1v1h1v36zM410 238v9q0 -3 1 -4v-1v-1q-1 -1 -1 -3zM411 227v-12v-1h1
v-1h1q0 1 1 1v1v18q1 -5 1 -13q0 -16 -10 -27q-10 -13 -25 -13v5q0 5 3 9q0 1 1 2v-3v-1l1 -1h1v-3v-1h2h2v1h1v9v0q2 -2 5 -2q2 0 2 2q0 3 -4 8l-2 2q4 1 11 8q5 5 8 12zM247 109q0 -7 -5 -11q-5 -5 -11 -5h-16v68h16q7 0 11 -4q5 -5 5 -12v-36zM225 103h6q2 0 4 2q2 1 2 4
v36q0 3 -2 4q-2 2 -4 2h-6v-48zM256 93v68h29v-10h-19v-19h14v-10h-14v-19h19v-10h-29zM303 93h-11v68h15l10 -49l9 49h14v-68h-10v43l-9 -43h-8l-10 43v-43zM365 162q7 0 12 -5t5 -11v-37q0 -7 -5 -12t-12 -5q-6 0 -11 5t-5 12v37q0 6 5 11t11 5zM371 146q0 2 -2 4t-4 2
t-4 -2t-2 -4v-37q0 -2 2 -4q1 -2 4 -2t4 2q2 2 2 4v37z" />
    <glyph glyph-name="parenleft" unicode="(" horiz-adv-x="931" 
d="M0 481h931v-480h-931v480zM208 169v-85h179v85h-179zM254 385q12 3 21 3q6 0 9 -1v0v0h1v-1v0l1 -2v-3t-0.5 -3.5t-0.5 -3.5q-5 -13 -17 -24q-7 -9 -23 -19q-3 -2 -22 -13q-10 -5 -18 -7h-3h-6h-1v1v0h-1l-1 1l-1 1l-1 1q-4 2 -5 2l-2 -1v-1q0 -3 3 -7l7 -7q8 -5 17 -5
q4 0 5 1h1q2 0 4 1q13 5 18 8q2 1 9 5.5t11 7.5q23 16 32 30v-12h1v-1h1v0h1v1v16q4 5 6 13v5q0 12 -10 22q-5 5 -9 6q-6 3 -14 3h-3q-12 0 -18 -2q-45 -14 -91 -55q-1 -1 -3.5 -3t-4.5 -4l-8 -8q-19 -22 -26 -35q-17 -29 -21 -52v-5v-5q2 -6 3 -10q4 -6 8 -9q0 -1 2 -3
l2 -2h1q7 -6 17 -6q1 0 3.5 -0.5t3.5 -0.5q23 0 65 17h2l1 1h1h1v1h1v-1h-1v-1v-1l-2 -4q0 -2 -1 -3q0 -1 -2 -5v-1q-20 -55 -39 -75q-8 -8 -15 -8q-1 0 -1 1h-2l-4 2l-1 1h-1l-1 1q-5 5 -7 13q0 2 -0.5 5t-0.5 4q0 13 10 25q5 5 10 6l1 1h2h1q1 0 1 0.5t1 0.5h1h1v0v0v1h1
v1q0 3 -4 6q-3 4 -6 6h-1h-1h-1q-15 -2 -24 -15q0 -1 -2 -3q0 -1 -1 -2v-2q-3 -8 -3 -16q0 -4 2 -12v-43q0 -1 1 -2t2 -1l2 1q1 1 1 2v29q2 -4 8 -10q7 -8 15 -10q1 -1 2.5 -1.5t3 -1.5t2.5 -1h4h2h1q0 1 1 1q4 1 13 8q6 8 9 13q19 26 41 93l1 1v-27v-1q0 -1 1 -1h1v1
q1 0 1 1v34h1v1h1q1 0 1 1h1v1v1l-1 1v3l-1 1l1 4q4 15 5 19q1 2 1 4q1 1 1 2v1h-1v2h1h1l1 1q2 0 4 1q8 2 24 5h3l1 -2q6 -4 7 -4v0v-1h2l1 1q1 1 1 2t-2 5q0 1 -1 2.5t-2 2.5q-6 6 -13 8h-5q-5 0 -7 -1q-6 0 -22 -4q-21 -7 -35 -13q-21 -6 -22 -7h-1v-1h-1v1l-1 1
q-4 4 -8 4h-1q-1 0 -1 -1v-1v-2v-1q2 -4 5 -8t8 -6q3 -1 7 -1v-10v-1h1v-1h1h1l1 1v1v11h1h1v-17q1 0 1 -1v0h1l1 1v18q1 0 3 1q4 2 6 2l2 1q1 1 3 1l4 2h2l1 1q1 0 2 1h1h1h1v1h1h1v1h1v0v0h1v0q0 -2 -1 -4q-1 -1 -1 -4q-1 -1 -1 -3q-1 -1 -1 -4q-1 -1 -1 -2q0 -2 -1 -2
q-1 -2 -1 -4h-1q-1 0 -1 -1h-1h-1l-2 -1q-2 -2 -4 -2q-28 -14 -60 -21q-2 0 -4 -0.5t-3 -0.5h-1h-4q-2 0 -4 -1q-10 0 -15 3h-1q0 1 -1 2q0 1 -0.5 3t-0.5 4q0 8 5 23q13 34 40 64q42 45 90 65l9 3v-35v-1h1v-1h1h1v1h1v1v37zM581 376q-8 -16 -12 -23l-1 -1h-1q-1 0 -3 -0.5
t-3 -0.5q-4 0 -6 -1h-4q-2 -1 -5 -1q-2 0 -3 1q-3 0 -8 3v0q1 -2 3 -5q6 -7 18 -7h6q-11 -20 -17 -33q-4 -9 -4 -16v-4q2 -5 5 -5v-3q-2 0 -2 -2t-9 -14l-15 -21v-1v0h-1v-1l-2 -4q-6 -10 -7 -14q-7 -7 -13 -7t-6 6v1q0 5 4 10q4 8 7 13q2 2 4 6v-1h1v-1h1h1q0 1 1 1v1v7
l3 6l1 2q0 2 -3 5q-1 1 -2 2.5t-2 2.5q-4 2 -5 2t-3 -2q-8 -15 -10 -19q-2 -3 -5.5 -9t-5.5 -9v20q1 1 1 2l1 1v-7v-1l1 -1q1 0 1 -0.5t1 -0.5l2 1q1 1 1 2v16l9 14q19 29 24 41v3q0 2 -1 3q-1 3 -4 6l-1 1q-2 2 -4 2h-1l-1 1q-2 0 -2 -2q-8 -15 -39 -22q-33 -9 -67 -9h-5
q-23 0 -41 6q-14 4 -19 12q-4 6 -4 11q0 12 13 33v1v3q-2 4 -4 5q-3 2 -5 4h-1h-2q-1 0 -1 -1q-13 -19 -13 -36q0 -10 4 -17v-34v-1h1v-1q1 0 1 1h1v1v30l1 -1l1 -2v-9v-1h1q0 -1 1 -1h1q0 1 1 1v1v5q13 -13 29 -17q18 -7 45 -7h4q43 0 79 12l-4 -6q-10 -16 -32 -52
q-16 -31 -19 -44v-4q0 -7 2 -10q1 -2 5 -6v-7q-15 -10 -28 -35v-1v-1q0 -2 1 -3q2 -4 4 -5q6 -4 7 -4h1l33 8h2q2 0 3 1v-9v0v-1h1h1v1v0v9q2 0 3 1v-37v0v-1v0h1h1v1v0v37q9 2 69 13q37 -24 46 -33h1q17 -15 23 -15h1q2 2 13 21q12 26 19 42q55 6 82 6h5v-5q0 -1 1 -2t2 -1
t1 0.5t1 0.5l1 2v5q2 0 5.5 0.5t4.5 0.5h11q15 0 35 -2v-10v-1h1v-1h1l1 1v1v10q15 -1 27 -6q29 -8 31 -31q0 -2 1 -4l1 -1q1 -1 1 -2v-29v-1h1v-1l1 1v0v1v25q3 -3 5 -3q2 -2 5 -2h1q3 2 3 5v4q0 29 -27 43q-23 13 -50 16v12q9 0 20 8q11 10 16 28v1l-1 1q-1 0 -2 -1
q-2 0 -2 -1h-1v-1q-2 -11 -10 -18q-7 -6 -13 -6q-5 0 -5 5v3q1 2 10 17q3 3 4 5v-14v-1h1v-1h1l1 1v1v18l2 2v1l2 2l1 2h1v1q0 1 -2 5q-2 3 -5 5q-1 2 -5 2q-1 0 -2 -1q-2 0 -6 -3q-2 0 -4 -2q-1 -1 -3.5 -2t-3.5 -1q-3 -1 -7 -3q-1 -1 -2.5 -1t-2.5 -1q-6 -2 -7 -2v1
q2 5 6 11h1v-1v0l1 -1h1q1 0 1 1h1v5l1 1v-9h1v0h1h1v0v11h1v1q2 0 2 2t-3 5q-2 3 -5 5l-4 2l-8 -4q-3 -3 -9 -11q-5 -8 -5 -15q0 -4 3 -8q0 -1 2 -3v0h-1v-1v0q-3 -20 -22 -26q-9 -4 -21 -4q-11 0 -18 4q-1 1 -1 3q0 4 1 6q1 1 1 3t1 3l3 3v-1l4 -2v-11q0 -1 1 -1v0h1h1v1
v10q3 -2 11 -2q6 0 9 2q2 1 11 5q10 9 10 19q0 8 -4 13q-6 6 -11 8q-2 1 -5 1q-10 0 -20 -8q-10 -6 -17 -15q-10 -13 -10 -25q0 -13 9 -20t26 -9h6v-8q-34 -1 -73 -6l1 1v2v1l1 2l3 6q1 1 1.5 2t0.5 2q1 3 4 9t4 9q1 2 3 7t3 7q6 12 8 18q6 15 7 17q-3 5 -5 7t-7 5
q-1 0 -3 -2l-5 -5q-2 -2 -2 -3l-2 -2l-2 -2q-3 3 -9 7q-2 0 -3.5 0.5t-2.5 0.5v16l4 2q5 3 8 9q4 7 5 13v1h-1h-1h-1q0 -1 -1 -1v0v0v0q-1 -11 -13 -16q-8 -2 -12 -2q-5 0 -11 2q0 1 -0.5 1t-0.5 1v1q1 2 1 3t1 3l2 2l2 -2v-6q0 -1 1 -1v0h1v1v5q1 0 3 -0.5t3 -0.5t3 0.5
t3 0.5q4 2 6 4q6 5 6 11q0 5 -2 7q-2 3 -7 5q-1 1 -3 1q-5 0 -12 -5q-4 -3 -10 -9q-5 -8 -5 -15v-1l-1 -1l-6 -4h-2q-3 0 -3 4v1q1 2 2 3q0 2 3 5q1 2 3 5t2 4v2q0 2 -2 6q-4 4 -7 4t-5 -1l-4 -2q-1 0 -3 -1l-1 -1l-2 -1h-1h1v2l4 4q2 3 4.5 7.5t3.5 6.5q4 1 11 1h2v-15v0h1
v0h1v0v15q3 -1 9.5 -2t9.5 -1l8 -4l1 -1l1 1v2q0 5 -8 8q-12 5 -24 5h-6l4 8v1v3l-3 3q-2 2 -3 2h-1q-1 0 -1 -1t-3 -6v-1q-4 -6 -6 -10h-11q1 1 2.5 4t2.5 4v-4v-1h1h1v1v9v1l1 2v1q0 3 -2 5l-3 3h-2q-1 0 -1 -1v-1v-1zM548 280v2h1v-3zM550 279v3q7 2 13 9q3 -4 8 -6h1h1
v0v1v2l-1 1q0 1 -1 1q0 1 -1 1v1v1q0 7 8 15v-12v0v-1h1v1v0v13q1 1 19 11q-3 -5 -7 -13q-3 -7 -3 -9v-1q2 -5 4 -6v-6v-1h1h1v1v5h2v-20v0v0h1v0v20q7 0 14 6l3 3q2 -5 4 -6q4 -4 15 -6h4v-9v-1h1v0v1v9q1 0 1 1h1v-15q-3 0 -4 -1q-7 -2 -15 -10q-11 -8 -18 -18
q-9 -12 -10 -19v-2q-7 -7 -13 -7h-1q-5 0 -5 6l1 3q3 10 8 17v1q5 7 5 9q0 4 -4 8q-5 6 -10 6q-4 0 -12 -3l-2 -1h-3l-1 -1h-1v1l1 1l2 2v1v2q0 3 -2 5q-2 3 -5 5zM628 313l2 2q3 3 5 4q1 1 2.5 2t2.5 1l3 2h1q-2 -5 -5 -7q-6 -4 -9 -4h-1h-1zM569 331l3 6l3 6h3q0 1 2 1h3
h3q-3 -3 -5 -7h-1v-2q-1 0 -1 -1q-7 -8 -11 -17q-6 -13 -7 -16v-2q0 -2 1 -3q-5 -5 -6 -5q-2 -1 -3 -1q-2 0 -2 3q0 2 5 12q3 8 9 19l1 1v1l1 2v-6h1v0h1v0v9zM761 238l1 -1q4 -3 10 -3q2 0 12 2h-1v-1q0 -1 -1 -1q0 -1 -1 -2l-3 -6q-3 -8 -3 -13q0 -7 4 -10t11 -3v-12
q-2 1 -7 1q-20 1 -43 1h-6v10q4 2 6 4q8 5 14 16q6 12 7 18zM707 241q0 1 3 4q2 2 8 6q6 5 9 6q5 3 6 3v0v-1q-1 -5 -8 -12q-8 -5 -14 -6h-2h-1h-1zM725 190v8h1q1 0 2 1v-9h-3zM515 165q-12 -2 -38 -7t-36 -7v1v5q14 14 23 15q8 1 15 1q17 0 36 -8zM440 150h-5l4 4v-2v-1
q0 -1 1 -1zM612 222h-1l-1 -1v0v0q0 1 1 2t1 3q1 1 3 3.5t4 4.5l3 3l12 12q5 5 11 9h1q1 0 2 1h3h1h1q0 -2 -4 -5l-10 -10l-1 -1q-5 -5 -8 -7q-1 -1 -3 -2.5t-3 -2.5zM595 215l1 -1q4 -6 7 -7q3 -2 9 -2h2q5 0 11 3v-18v-1v0h1h1v1v20q1 0 2 1l2 2q1 0 2 1q12 10 13 11l2 1
q-4 -7 -10 -23q-1 -3 -3.5 -8l-3.5 -7q-1 -1 -1 -3t-1 -3q-57 -7 -91 -13l-7 -1q-12 6 -19 9q-1 1 -4 2t-5 2v1v29l1 1q2 0 2 1q1 1 2 1v-3q1 -3 5 -7l1 -2v-24q0 -1 1 -1v-1h1l1 1v1v22h2l1 -1q3 0 3 3l-1 2v1q0 2 3 7q1 4 5 10q1 3 5 9l2 3l4 2v-27v-1q1 0 1 -1h1q0 1 1 1
v1v29h2v-8v-1h1h1l1 1v10q2 2 4 2l3 1q6 3 8 3v0q0 -1 -1 -3q-3 -6 -4 -11l-1 -6v-2q4 -10 7 -14q3 -3 11 -5v-12v-1l1 -1h1v1v1v12q8 1 17 10zM501 182q-18 5 -31 5q-9 0 -14 -1q-8 -2 -15 -6v5q1 0 1 -1h1h1q2 0 2 1t0.5 1t0.5 1v1l-1 1v3v2q3 16 18 42q2 3 6 9.5t6 10.5
v-21q-5 -10 -5 -16v-1q0 -6 4 -9q6 -4 11 -4t15 5v-28zM582 160v-22v-1v0h1v0h1v1v22l16 3q2 0 5 0.5t4 0.5t3 0.5t3 0.5q4 0 5 1h1q-3 -6 -14 -29q-2 -4 -4 -7.5t-3.5 -5.5t-1.5 -3l-7 5q-2 1 -6 5l-9 6q-2 2 -6 5t-5 4q-2 1 -4 3l-4 2q-1 1 -3 2q-2 2 -3 2l12 2q1 0 4 0.5
t5 0.5q1 1 5 1v-16v-1l1 -1h1q0 1 1 1v1v17h1h1zM517 277v-22v-1h1v-1h1l1 1v1v25q1 0 1 1q1 1 2.5 3.5t2.5 3.5q2 2 2 3t1 2l2 2l1 1q0 2 1 2v1l1 1q0 1 -4 7q-5 4 -8 4h-1l-16 -21v-1q0 -3 3 -7q7 -5 8 -5h1zM398 166q11 6 13 7q9 8 14 17q5 12 5 20t-4 20q-2 6 -2 8
q-1 1 -1 3q-1 4 -1 11q0 8 3 14q4 6 6 8q1 0 1 1t1 2q0 1 -2 5q-1 2 -4 5q-2 2 -6 2q-2 0 -3 -1q-7 -9 -8 -13q-3 -6 -3 -12v-28q0 -2 1 -2q-3 -6 -7 -10q-7 -7 -13 -7h-1q-5 0 -5 6l1 3q3 10 8 17v1q5 7 5 9q0 4 -4 8q-4 6 -10 6q-4 0 -12 -3l-2 -1h-3l-1 -1h-1v1q1 0 1 1
l2 2v1v2q0 3 -2 5q-2 3 -5 5q-2 2 -5 2q-2 0 -2 -2t-9 -14q-10 -14 -14 -21l-1 -1h-1v-1v-1q-1 0 -1 -1t-1 -2q-7 -12 -8 -18q-8 -8 -12 -8q-2 0 -2 4v2v1q3 9 4 11q0 1 2 5t2 5q5 9 5 12v1q0 3 -5 6q-3 4 -6 4h-2v-1q-1 0 -4 -3l-1 -1q-3 -4 -12 -13l-14 -14q-2 -2 -14 -11
l-1 -1q-1 -1 -2 -1l-1 -1h-1v0q0 -1 -1 -1q0 1 3 7q1 1 5 7q0 1 1 2.5t1 2.5q1 1 3 4l1 1v2v-3v-1h1v-1h1h1v1h1v1v9q0 1 1 1q0 1 1 2v-16v-1h1h1v1h1v21q1 2 1 5t-2 5q-1 2 -5 6q-4 2 -5 2q-2 0 -2 -3l-3 -5q-1 -4 -4 -8l-1 -1q0 -2 -1 -2q-1 -3 -4.5 -9t-5.5 -9l-3 -6
l-1.5 -3t-1.5 -2.5t-1 -2.5q-1 -2 -1 -7q0 -7 5 -12t10 -5l2 -1q3 0 13 4v-31v-1q1 0 1 -1h1v1h1v1v33l1 1h1l18 15v-1q1 -2 1 -3v-1v-6q3 -7 8 -9v-10q1 0 1 -1v-1h1l1 1v1v9h1q7 0 16 11q1 -2 4 -5l1 -2v-24l1 -1v-1h1h1v1v1v22h2l1 -1q3 0 3 3l-1 2v1q0 2 3 7q1 4 5 10
q1 3 5 9l2 3l4 2v-27v-1h1v-1h1q0 1 1 1v1v29h2v-8v-1h1h1l1 1v10q2 2 4 2l3 1q6 3 8 3v0q0 -1 -1 -3q-3 -6 -4 -11l-1 -6v-2q3 -9 7 -13q-3 -2 -5 -5t-2 -10q0 -12 5 -19q6 -10 16 -11h4h4v-36v0l1 -1h1v1h1v36zM410 238v9q0 -3 1 -4v-1v-1q-1 -1 -1 -3zM411 227v-12v-1h1
v-1h1q0 1 1 1v1v18q1 -5 1 -13q0 -16 -10 -27q-10 -13 -25 -13v5q0 5 3 9q0 1 1 2v-3v-1l1 -1h1v-3v-1h2h2v1h1v9v0q2 -2 5 -2q2 0 2 2q0 3 -4 8l-2 2q4 1 11 8q5 5 8 12zM247 109q0 -7 -5 -11q-5 -5 -11 -5h-16v68h16q7 0 11 -4q5 -5 5 -12v-36zM225 103h6q2 0 4 2q2 1 2 4
v36q0 3 -2 4q-2 2 -4 2h-6v-48zM256 93v68h29v-10h-19v-19h14v-10h-14v-19h19v-10h-29zM303 93h-11v68h15l10 -49l9 49h14v-68h-10v43l-9 -43h-8l-10 43v-43zM365 162q7 0 12 -5t5 -11v-37q0 -7 -5 -12t-12 -5q-6 0 -11 5t-5 12v37q0 6 5 11t11 5zM371 146q0 2 -2 4t-4 2
t-4 -2t-2 -4v-37q0 -2 2 -4q1 -2 4 -2t4 2q2 2 2 4v37z" />
    <glyph glyph-name="parenright" unicode=")" horiz-adv-x="302" 
d="M267 207v-95q0 -3 -2 -5q-1 -3 -6 -3q-3 0 -5 3q-3 1 -3 5v56l-3.5 -7t-3.5 -8v-147q0 -2 -1 -3q-2 -2 -4 -2q-1 0 -3 2q-1 1 -1 3v129q-41 -80 -109 -150q-22 -22 -37 -33v-78q0 -3 -3 -6t-7 -3q-5 0 -6 3q-3 3 -3 6v65l-6 -3q-10 -2 -17 -2h-6q-10 1 -22 10
q-10 7 -17 19q-1 1 -1 4v2v2q-1 1 -1 3l2 1l2 2h1h2q3 0 9 -2q6 -4 9 -7l3 -2v1q0 5 15 16q79 57 145 172l25 50q25 58 39 119q11 52 11 95q0 49 -14 94q-9 28 -17 41q-2 3 -4 7t-2 6q0 7 6 7l5 -1q11 -3 21 -16q8 -7 15 -24q10 -21 13 -36q16 -51 16 -111q0 -50 -12 -102
q-8 -37 -23 -77z" />
    <glyph glyph-name="asterisk" unicode="*" horiz-adv-x="157" 
d="M54 428v-39q0 -1 -2 -3t-5 -2t-5 2t-2 3v29q-6 -2 -8 -2l-5 1q-1 1 -2 1t-2 1t-4 3q-5 5 -5 8l5 4l18 18q7 7 17 19h-3q-2 -2 -18 -2q-4 -1 -14 -1.5t-15 -0.5l-1 2q-3 3 -3 10q0 12 7 15q1 0 2 1h2h3q3 -1 13 -1h15h6l-25 42l1 2q2 3 6 6q6 4 9 5h5q0 -1 2 -1t2 -1l2 -2
q2 -4 3 -7l8 -14l4 -6q1 -3 5 -7q1 -3 4 -6l1 -2q1 0 1 -1q0 1 1 1q0 1 1 2l4 6q0 2 2 4.5t2 3.5t1 2.5t2 2.5t1 2l8 16l1 1q1 1 1 2q1 3 3 5q1 1 3 1h4q7 0 13 -2q5 -2 5 -4v-3q-1 -1 -3 -4l-7 -14q-1 -2 -2.5 -4.5t-2 -4t-1.5 -3.5l-2 -4q-4 -7 -4 -8l39 10q1 0 4 1
q2 0 3 1h2q3 -2 3 -7q0 -7 -4 -15t-12 -13l-21 -2h-12h-6l-4 -2l26 -29l6 -6l3 -3v-2q0 -1 -2 -3q-4 -4 -6 -5q-10 -5 -16 -5q-5 0 -10 3l-23 31v-1h-1l-2 -2q-1 -2 -4 -5v-101q0 -2 -1 -3t-3 -1t-3 1q-2 2 -2 3v90z" />
    <glyph glyph-name="plus" unicode="+" horiz-adv-x="267" 
d="M192 258v-68q0 -4 -3 -5q-4 -2 -7 -2t-7 2q-3 1 -3 5v69h-6v-162q0 -2 -1 -3q-2 -2 -3 -2t-3 2t-2 3v162h-7l-6 -18q-19 -56 -19 -75v-4q0 -3 1 -4l2 -7l-1 -5q-1 -3 -6 -3l-5 1q-8 2 -10 5q-1 0 -2 1q-18 13 -26 33q-1 3 -1 12q0 20 10 54l2 8l-37 -1l-9 -1v-29
q0 -2 -1 -3t-4 -1q-2 0 -3 1q-2 2 -2 3v31q-1 1 -2 1q-12 8 -21 18q-10 10 -10 20l1 4l2 2q1 1 4 1q5 0 8 1h1q8 1 24.5 1.5t25.5 0.5q17 1 40 1l1 3q7 18 16 41q8 23 18 46q8 21 9 22q2 2 6 2q10 0 26 -15q14 -14 14 -25v-2l-2 -6q-2 -4 -3 -7q-1 -2 -4.5 -11.5t-5.5 -14.5
t-5.5 -13.5t-4.5 -10.5l-2 -6q-1 -1 -1 -3h-1v-1l9 -1q30 -3 46 -9q18 -7 28 -18l10 -11q7 -10 7 -19q0 -4 -3 -6l-4 -1q-8 0 -22 11q-5 4 -38 5q-5 0 -8 1z" />
    <glyph glyph-name="comma" unicode="," horiz-adv-x="109" 
d="M60 -65v-43q0 -3 -2 -5t-5 -2q-2 0 -4 2t-2 5v36q-13 -7 -24 -8h-5q-4 0 -6 1q-5 0 -7 2l-2 1l-3 3l3 2l4 4l2 2q16 16 19 45q2 10 2 18l-2 19v10v3l1 1l1 1q14 11 41 11q29 0 37 -14q0 -1 1 -1v-2v-5q0 -21 -12 -45q-8 -16 -20 -28l-1 -1v-75q0 -2 -1 -3q-2 -2 -4 -2
q-1 0 -3 2t-2 3v67z" />
    <glyph glyph-name="hyphen" unicode="-" horiz-adv-x="297" 
d="M251 143v-112q0 -4 -3 -7q-5 -3 -8 -3q-4 0 -7 3t-3 7v111q-2 0 -8 -0.5t-9 -0.5v-55q0 -2 -1 -3q-2 -2 -4 -2q-1 0 -3 2t-2 3v55h-74q-11 0 -32.5 0.5t-30.5 1.5q-28 0 -31 1q-12 4 -25 19q-10 13 -10 21q0 6 3 7h19q21 -1 52 -1q13 -1 56 -1h42q17 0 24 1q14 0 21 1
q27 2 34 6l6 1h3q13 -5 24 -16q12 -13 13 -23q0 -3 -3 -8q-6 -5 -43 -8z" />
    <glyph glyph-name="hyphen" unicode="&#xad;" horiz-adv-x="297" 
d="M251 143v-112q0 -4 -3 -7q-5 -3 -8 -3q-4 0 -7 3t-3 7v111q-2 0 -8 -0.5t-9 -0.5v-55q0 -2 -1 -3q-2 -2 -4 -2q-1 0 -3 2t-2 3v55h-74q-11 0 -32.5 0.5t-30.5 1.5q-28 0 -31 1q-12 4 -25 19q-10 13 -10 21q0 6 3 7h19q21 -1 52 -1q13 -1 56 -1h42q17 0 24 1q14 0 21 1
q27 2 34 6l6 1h3q13 -5 24 -16q12 -13 13 -23q0 -3 -3 -8q-6 -5 -43 -8z" />
    <glyph glyph-name="period" unicode="." horiz-adv-x="130" 
d="M13 -27v-45q0 -2 -2 -4t-5 -2t-5 2t-2 4v26q-7 -10 -8 -10q-2 -1 -6 -1q-11 1 -24 15t-13 24v3l26 36q13 15 19 25q7 10 8 10l4 1l8 -2q10 -4 16 -10q3 -3 11 -16q4 -5 4 -10l-1 -4q0 -2 -7 -12q-3 -3 -7 -9v-86q0 -1 -1 -2q-2 -2 -4 -2q-1 0 -3 2l-2 2v72l-1 -1
q-4 -4 -5 -6z" />
    <glyph glyph-name="slash" unicode="/" horiz-adv-x="302" 
d="M291 549v-117q0 -4 -3 -7t-7 -3t-7 3q-4 3 -4 7v66l-8 -19v-47q0 -2 -1 -3q-2 -2 -4 -2q-1 0 -3 2t-2 3v23l-77 -187l-33 -80v-144q0 -2 -1 -3q-2 -2 -4 -2q-1 0 -3 2t-2 3v120l-85 -205l-2 -2q-1 -1 -4 -1h-4q-14 5 -25 17q-12 13 -12 23v1l1 1l1 2q0 1 1 3l4 12
q1 2 3.5 8t4.5 11l12 28q3 6 8 19.5t9 21.5q16 40 22 54q21 52 28 69q18 46 34 82q15 36 36.5 89t28.5 70q6 15 15 36t14.5 34.5t9.5 23.5q5 11 11 26t8 19q2 6 3 8q1 1 1 3h1v1q2 2 6 2q3 0 4 -1q9 -3 20 -12q9 -9 14 -20q0 -1 1 -2q0 -1 1 -2v-3v-4z" />
    <glyph glyph-name="zero" unicode="0" horiz-adv-x="350" 
d="M158 279q-18 -18 -27 -29q-37 -45 -60 -90q-23 -48 -23 -80q0 -12 3 -22q1 -6 7 -12q5 -5 13 -9q6 -3 16 -5q4 -1 16 -1h9q4 0 6 1q56 14 107 83q57 77 74 166q3 18 3 33q0 19 -4 30l-1 4l-2 1q-2 1 -5 1t-4 1h-14q-7 0 -11 -1h-6q-3 -1 -10 -1q-4 -1 -11 -1q-4 -1 -7 -1
h-1l2 -3q3 -6 3 -11q0 -8 -7 -8h-8q-9 -4 -29 -19v-90q0 -2 -1 -3q-2 -2 -3 -2t-3 2t-2 3v82q-4 -4 -6 -5v-57q0 -3 -2 -5t-5 -2t-5 2t-2 5v43zM91 -8v-115q0 -2 -1 -3q-2 -2 -3 -2q-2 0 -4 2q-1 1 -1 3v119q-2 1 -5.5 3t-5.5 3v-42q0 -2 -1 -3q-2 -2 -4 -2q-1 0 -3 2
q-1 1 -1 3v47l-1 1q-43 32 -57 75q-2 10 -3 14t-1 17v12q0 4 1 7q6 30 23 68q32 61 84 117l4 5h-3q-4 1 -14 7l-15 15q-8 13 -8 19q0 3 2 5q1 0 2 1q2 0 3 1l6 2q2 1 5 1.5t5 0.5q94 24 149 24h14q3 -1 11 -3q26 -6 47 -27q27 -29 33 -66q1 -5 1 -18v-19q-9 -79 -54 -155
v-103q0 -4 -3 -7t-8 -3q-4 0 -7 3t-3 7v71q-1 -1 -3.5 -5t-3.5 -5q-18 -24 -41 -45q-47 -41 -93 -41h-7q-18 1 -36 9z" />
    <glyph glyph-name="one" unicode="1" horiz-adv-x="270" 
d="M124 287v-78q0 -4 -1 -5q-2 -2 -3 -2t-3 2t-2 5v79h-2q-1 0 -3.5 1t-3.5 2v-46q0 -4 -2 -6t-6 -2q-3 0 -5 2q-3 1 -3 6v58l-3 3q-15 15 -21 34q0 2 -0.5 5.5t-1.5 5.5q-1 3 -1 14q0 7 1 9q0 3 1 4t2 1l3 1l5 -1q5 -1 13 -6q7 -4 12 -11q7 -7 10 -15q0 -1 1 -2v-1q1 0 8 4
q3 1 7 4t7 5q28 16 54 37l38 26l45 -42l-3 -9q-17 -38 -56 -132q-37 -91 -46 -117q-7 -16 -11 -30q-6 -16 -9 -27q-4 -11 -4 -13l21 1q27 0 41 -13q6 -4 9 -7q4 -4 8 -10l6 -9l3 -9v-2v-1q-1 -1 -1 -2q-1 -4 -7 -4q-8 0 -19 8l-8 1q-12 0 -19 -1v-83q0 -2 -1 -3t-3 -1t-3 1
q-2 2 -2 3v82q-16 -1 -36 -6q-36 -7 -81 -20l-9 -2l-6 2q-10 5 -20 14q-10 8 -13 18l-1 6q0 5 2 7l15 5q2 0 12.5 2.5t16.5 4.5t17 4t16 4l8 2l-1 8l1 9q8 51 84 235l7 18l-6 -3q-22 -14 -39 -20q-1 -1 -3 -1q-1 -1 -2 -1h-4z" />
    <glyph glyph-name="two" unicode="2" horiz-adv-x="361" 
d="M38 8v-76q0 -3 -2 -5q-2 -3 -6 -3t-5 3q-3 1 -3 5v84l-7 7q-9 10 -14 20l-1 4l2 5q11 29 76 78q16 12 40 28q50 32 53 34q5 4 19 12q3 3 8.5 6.5t7.5 4.5q4 3 10 7q4 4 7 6l25 23q55 58 64 104v7v9q0 5 -1 6v2q-1 0 -1 1h-2q-1 0 -2.5 0.5t-2.5 1.5h-7h-6q-8 0 -11 -1
q-5 -1 -12 -3q-18 -6 -37 -19v-69q0 -2 -1 -3t-4 -1q-2 0 -3 1q-2 2 -2 3v62q-12 -9 -13 -10v-86q0 -3 -2 -5q-3 -3 -6 -3t-5 3q-3 1 -3 5v73q-38 -35 -71 -78l-4 -4q-2 -2 -5 -2h-3q-9 3 -22 14q-15 17 -15 26v2q1 3 12 17q13 17 25 30l21 21q4 4 11 10.5t9 8.5
q53 49 96 55l16 2l10 -1q32 -6 61 -35t29 -63l-2 -17q-4 -23 -23 -53v-49q0 -4 -3 -7q-3 -4 -7 -4t-7 4q-3 3 -3 7v21l-15 -18q-14 -14 -22 -21q-4 -3 -11 -9.5t-10 -9.5q-1 0 -1 -1q-1 -1 -3 -2t-3 -2q-6 -4 -10 -7q-16 -10 -18 -11q-30 -18 -60 -38q-4 -3 -19 -13.5
t-21 -15.5l-25 -19l-1 -1l15 1q36 4 69 4q31 0 47 -4q19 -3 33 -14q5 -3 14 -12q4 -5 10 -13q4 -7 4 -12q0 -8 -7 -8h-3q-4 1 -8 4q-5 2 -10 5l-4 2q-2 1 -6 1l-5 1q-18 2 -32 2q-57 0 -158 -14v-45q0 -2 -1 -3q-2 -2 -3 -2t-3 2t-2 3v44l-6 -1z" />
    <glyph glyph-name="three" unicode="3" horiz-adv-x="366" 
d="M27 54v-28q0 -2 -1 -3q-2 -2 -3 -2t-3 2t-2 3v41q-15 25 -18 53q0 7 1 10q0 5 1 6q1 4 6 4t12 -4q10 -6 15 -11t11 -15q0 -1 0.5 -2.5t1.5 -2.5t1 -4v-8l-1 -8l1 -5q4 -18 17 -31q8 -9 21 -12q12 -4 27 -4q25 0 52 12q31 15 61 45q49 45 49 78l-2 1q-1 1 -2 1q-2 1 -3 1
q-2 1 -4 1t-4 1q-1 0 -3.5 0.5t-3.5 1.5q-28 5 -53 5h-5v-91q0 -5 -3 -6q-3 -3 -7 -3q-5 0 -8 3q-3 1 -3 6v90h-3q-3 0 -4 1v-56q0 -2 -1 -3q-2 -2 -4 -2q-1 0 -3 2t-2 3v60q-12 6 -22 22q-5 8 -5 13q0 6 4 7l9 2h16h24q14 -2 22 -3l4 2q53 18 83 57q25 34 25 67l-1 12
q-2 11 -4 12h-10h-6h-4q-1 -1 -4 -1q-5 -1 -15 -5v-86q0 -2 -1 -3q-2 -2 -4 -2q-1 0 -3 2t-2 3v82q-27 -13 -56 -36q-13 -12 -25 -22q-3 -3 -12 -11.5t-14 -13.5l-6 -6h-5q-11 0 -26 15l-7 8l-6 12l-1 5l1 4l1 2l3 3l4 4q9 9 15 14q72 69 124 79q5 1 15 1q33 0 61 -25
q30 -27 35 -67l1 -12q0 -8 -2 -18q-9 -54 -55 -89l-20 -14l-2 -1l19 -19q18 -21 18 -44q0 -16 -11 -36t-33 -43q-26 -26 -45 -40q-18 -12 -37 -20v-165q0 -2 -1 -3q-2 -2 -4 -2l-2 2q-2 2 -2 3v162q-24 -8 -44 -8l-12 1q-37 5 -69 30q-21 17 -37 39z" />
    <glyph glyph-name="four" unicode="4" horiz-adv-x="335" 
d="M131 179l1 1h46l4 11q7 23 18 49l1 4l-57 -53l-13 -11v-1zM94 127v-26q0 -3 -3 -5q-3 -3 -7 -3q-5 0 -8 3q-3 2 -3 5v23q-1 0 -3 -0.5t-3 -0.5h-1q-1 -1 -3 -1q-1 0 -2 -1l-2 -2q-9 -8 -13 -9l-4 -1l-5 1q-1 0 -4 3q-3 1 -9 5l-2 1q-2 1 -2 2q-6 4 -7 5q-2 1 -4 3
q-1 1 -1 2t-1 2q-1 4 -7 14v3q0 2 1 3v2q1 0 1 1q5 7 16 11q1 1 5 3l3 2q2 1 4 3q6 4 12 10q75 65 119 107q63 59 90 91q1 2 4.5 5.5t4.5 5.5q0 2 2 4t2 4l4 6l1 1q0 1 1 1l19 -11q9 -6 13 -6q0 -1 2 -1t2 -1l2 -4q2 -3 3 -9l3 -10v-2l-4 -8q-7 -14 -23 -54q-19 -46 -39 -99
l-9 -26l11 -1h11q14 -1 29 -1q2 0 5 -1h3l2 -1q10 -3 21 -15q10 -8 13 -20l1 -4q0 -4 -3 -6q-1 -1 -2 -1h-2h-5h-10q-10 0 -15 1q-9 1 -29 1v-85q0 -2 -1 -3t-4 -1q-1 0 -2 1q-2 2 -2 3v86h-6v-66q0 -3 -2 -5t-5 -2t-5 2t-2 5v66h-18l-19 -56q-18 -61 -18 -80l1 -10
q0 -4 -3 -6l-5 -1l-6 1q-1 0 -2.5 1t-2.5 2v-98q0 -2 -1 -3q-2 -2 -4 -2q-1 0 -3 2t-2 3v105q-5 4 -13 14q-7 8 -7 21v3q0 25 21 92l3 11h-4l-53 -2q-4 0 -5 -1q-3 0 -5 -1z" />
    <glyph glyph-name="five" unicode="5" horiz-adv-x="386" 
d="M166 215v-118q0 -4 -3 -7t-8 -3q-4 0 -7 3t-3 7v114q-10 -2 -17 -4v-55q0 -3 -1 -4t-4 -1q-2 0 -3 1q-2 2 -2 4v53q-1 -1 -3.5 -1t-3.5 -1l-11 -3l-4 1q-11 3 -22 14t-14 22v4q0 6 4 7q14 8 33 64q1 1 1 2t0.5 1.5t0.5 1.5q1 4 4.5 15.5t5.5 18.5q4 12 10 36q3 12 5 14
t6 2l7 -1q39 -10 80 -13h13h19q11 0 14 1q20 1 37 8q28 11 38 27l4 4q1 1 4 1q9 0 21 -9q13 -12 17 -23l1 -1q1 -1 1 -2v-5v-4l-3 -4q-1 -3 -6 -8q-4 -4 -10 -8q-13 -9 -30 -15v-116q0 -2 -1 -3q-2 -2 -4 -2q-1 0 -3 2t-2 3v113q-24 -7 -58 -7q-39 0 -94 11l-7 1l-3 -9
q-1 -10 -6 -24q-2 -5 -4 -12t-3 -10q0 -2 -1.5 -6t-2.5 -7q0 -2 -1 -4.5t-2 -4.5t-1 -3q-1 -5 -3 -7v-1l11 1q4 0 5 1q3 0 9 0.5t9 1.5h19h20l15 -3q35 -8 58 -32q19 -20 23 -42q4 -17 4 -38q0 -55 -31 -99q-10 -14 -17 -21q-17 -16 -38 -27q-34 -18 -77 -18h-8
q-45 1 -81 22q-13 8 -27 20v-66q0 -2 -1 -3t-5 -1q-2 0 -3 1q-2 2 -2 3v78q-24 29 -24 58v6q1 1 1 4t1 4q2 3 6 3q8 0 25 -12q11 -12 15 -22l1 -4l-1 -6q0 -9 2 -21q3 -3 6 -4q6 -4 12 -5q25 -7 54 -7h10q54 6 89 40q36 37 43 86l1 22v19q-1 1 -1 3v4q-1 1 -1 3v2l-1 1
q0 1 -5 2q-7 0 -10 1l-20 1l-21 -1q-26 -2 -40 -5z" />
    <glyph glyph-name="six" unicode="6" horiz-adv-x="311" 
d="M143 195l-6 -2v-54q0 -3 -2 -5t-5 -2t-5 2t-2 5v44q-16 -12 -29 -34q-12 -21 -16 -39q-2 -4 -2 -5t-1 -1l-1 -2l-4 -1q-7 0 -17 7l-2 2h-1q-1 -1 -1 -5v-10q-1 -4 -1 -11q2 -26 9 -41l1 -1q0 -2 1 -2l2 -2q7 -4 21 -6l12 -1l12 1q50 8 85 53q25 29 32 63q4 12 4 27
q0 10 -3 17v1q-1 1 -1 2v1h-2q-2 0 -3 1q-19 6 -37 6l-12 -1q-12 -2 -17 -3v-80q0 -2 -1 -3q-2 -2 -3 -2t-3 2t-2 3v76zM224 356v-39q0 -1 -3 -2q-4 -2 -7 -2t-7 2q-3 1 -3 2v30q-46 -29 -96 -96q-1 -2 -2 -5l-2 -2q0 -1 -1 -1v-1q14 6 24 7q4 0 6 1h5h9q16 0 22 -1l20 -4
q31 -8 52 -29q28 -28 32 -61q1 -5 1 -16q0 -33 -19 -68v-85q0 -2 -1 -3q-2 -2 -5 -2q-1 0 -3 2t-2 3v67q-39 -57 -97 -68q-3 -1 -11 -1q-5 -1 -12 -1q-39 1 -71 26q-1 1 -5 4.5t-7 6.5l-12 12q-26 34 -29 80v9q0 58 31 123l20 32q31 46 63 78q49 47 91 56l18 2l12 -1
q24 -5 46 -25q25 -24 30 -56v-8l-1 -20q-5 -24 -14 -43q-1 -3 -3 -5l-2 -2q-1 0 -1 -1l-2 -1h-2q-2 0 -8 2q-1 1 -2 1q-11 6 -21 17q-9 11 -9 20v3q0 1 1 2t3 6q9 20 12 38q1 3 1 11v10v2q-1 0 -1 1h-5l-15 -1q-9 -2 -18 -6z" />
    <glyph glyph-name="seven" unicode="7" horiz-adv-x="270" 
d="M39 330v-51q0 -2 -1 -3t-3 -1t-3 1q-2 2 -2 3v53q-3 1 -14 10q-10 10 -15 21l-1 10q3 6 5 8q5 5 8 7q23 24 50 24q4 0 14 -2q5 -1 16 -6q35 -16 73 -22q4 -1 16 -1h15q16 3 24 10q4 4 8 4h1l1 -1l1 -1l4 -2q2 -2 6.5 -5.5t6.5 -5.5q5 -4 13 -10q3 -3 4 -3l1 -1l1 -1
l2 -12l-2 -4q0 -1 -1.5 -3t-3.5 -5.5t-4 -7.5q-2 -3 -29 -44l-31 -47v-115q0 -5 -3 -8t-7 -3q-5 0 -8 3t-3 8v82q-1 -1 -3.5 -4.5t-3.5 -5.5v-68q0 -2 -1 -3q-2 -2 -4 -2q-1 0 -3 2t-2 3v52q-23 -36 -33 -52q-27 -44 -38 -66v-153q0 -4 -1 -5q-2 -2 -3 -2t-3 2t-2 5v136
q-4 -7 -7 -14q-16 -34 -18 -48q-1 -1 -1 -3t-1 -3q-2 -3 -6 -3l-6 1q-8 2 -20 14q-10 8 -13 18q-1 2 -1 8q0 17 21 59q35 72 150 245l8 14l-6 1q-37 7 -77 26q-2 0 -3 1h-6q-11 0 -21 -6q-11 -6 -26 -23l-4 -5l-3 -1z" />
    <glyph glyph-name="eight" unicode="8" horiz-adv-x="295" 
d="M100 148l-7 -8v-29q0 -2 -1 -3q-2 -2 -4 -2q-1 0 -3 2t-2 3v15q-1 -1 -2.5 -3.5t-2.5 -3.5q-5 -7 -9 -14q-21 -39 -21 -65v-4q0 -2 1 -3q0 -1 1 -1q12 -3 27 -3l16 1q49 7 60 56l3 12v14q0 27 -9 54l-8 17l-3 -1l-15 -12v-103q0 -4 -3 -7t-8 -3q-4 0 -7 3t-3 7v81z
M251 249v-134q0 -2 -1 -3q-2 -2 -4 -2q-1 0 -3 2q-1 1 -1 3v126q-33 -27 -73 -44l-3 -1l3 -4q13 -21 19 -37q15 -39 15 -75q0 -23 -6 -43q-6 -19 -20 -33q-18 -16 -48 -21l-20 -2l-12 1q-42 3 -71 32q-26 28 -26 61q0 7 2 21q5 19 15 38q20 40 49 69q21 21 32 27l3 2l-3 6
q-16 30 -22 51q-6 19 -6 35v7q0 26 10 40q2 3 8 9q5 5 7 6q16 10 39 13l20 1h15q1 0 4.5 -0.5t4.5 -1.5q12 -6 20 -14q11 -11 14 -22l1 -4l-1 -4l-2 -2q-1 -1 -7 -1l-19 1h-3v-61q0 -2 -1 -3t-4 -1q-2 0 -3 1t-1 3v60h-1q-36 -3 -49 -28q-5 -12 -5 -25q0 -22 10 -46l2 -4
q0 -1 1 -2q0 -1 1 -1l22 11q84 46 94 107v9v11l-2 6q-1 0 -2 1t-2 1q-2 1 -3 1l-6 2q-10 2 -16 3t-17 1q-5 0 -6 1t-3.5 1.5t-3.5 0.5q-13 8 -20 18q-9 11 -9 19q0 6 4 7q1 0 2 1h1h3h5q56 -1 93 -38q14 -13 22 -30q8 -18 8 -35q0 -11 -1 -16q-4 -31 -27 -60q-1 -1 -4.5 -5
t-6.5 -7q-1 -1 -2.5 -3t-2.5 -3z" />
    <glyph glyph-name="nine" unicode="9" horiz-adv-x="306" 
d="M203 361l-6 -2v-53q0 -3 -2 -5t-4 -2q-3 0 -5 2t-2 5v47q-15 -8 -29 -22q-36 -38 -44 -94v-14q0 -10 1 -13q0 -1 0.5 -3.5t1.5 -3.5q0 -3 1 -4t5 -1h8h9q5 0 7 1q28 6 47 33q10 13 16 28q1 0 1 1t1 2l1 1q0 2 1 2q0 1 1 1l4 1q6 0 14 -5q5 -3 15 -13l4 -3l1 3q1 1 1.5 4
t0.5 4q0 6 1 9q5 32 5 52q0 19 -3 32q-1 2 -1 4t-1 4q-1 5 -2 5l-4 1q-6 2 -13 2l-14 -2q-1 0 -3.5 -0.5t-3.5 -0.5v-78q0 -2 -1 -3q-2 -2 -4 -2q-1 0 -3 2t-2 3v75zM25 22v-79q0 -2 -1 -3q-2 -2 -4 -2q-1 0 -3 2t-2 3v92q-10 16 -13 30l-2 18q0 21 11 51q1 4 3 6l1 1
q1 1 1 2q1 1 2 1h1q8 0 22 -11q13 -11 18 -24q1 -2 1 -6q0 -1 -2 -7q-7 -18 -8 -30l-1 -20v-6q0 -1 1 -2v-2q0 -1 1 -2t4 -1.5t5 -0.5q3 -1 9 -1h6q33 0 67 27q4 3 15 14q5 6 14 15q31 37 52 82q0 1 0.5 2.5t1.5 2.5q0 1 1 1v1l-4 -2q-25 -25 -61 -25q-11 0 -23 3
q-32 10 -58 45q-11 20 -16 47l-1 15l1 16q8 63 51 105q39 33 84 34h5q27 0 48 -15q41 -29 51 -77q3 -16 3 -36l-1 -28q-7 -70 -41 -139l-3 -6v-89q0 -4 -3 -7t-7 -3q-5 0 -8 3t-3 7v52q-10 -16 -23 -32q-4 -5 -15 -16q-12 -12 -17 -15q-33 -25 -66 -30l-11 -1l-11 1
q-39 5 -66 33z" />
    <glyph glyph-name="colon" unicode=":" horiz-adv-x="168" 
d="M13 -42q-13 14 -13 24v3l26 36q13 15 19 25q7 10 8 10l4 1l8 -2q10 -4 16 -10q3 -3 11 -16q4 -5 4 -10l-1 -4q0 -1 -8 -12q-7 -11 -18 -24t-18 -24q-1 -1 -2.5 -3.5t-2.5 -3.5l-1 -1q-1 -1 -1 -2h-1v-1q-2 -1 -6 -1q-8 2 -15 7v-34q0 -2 -1 -3q-2 -2 -4 -2q-1 0 -3 2
q-1 1 -1 3v42zM127 261v-39q0 -3 -2 -5t-4 -2q-3 0 -5 2t-2 5v23h-5q-9 1 -21 13q-10 10 -15 21l-1 5l1 3l25 35q26 36 27 36q1 1 3 1h2q11 -2 23 -12q11 -12 15 -24v-3v-3l-4 -6q-1 -1 -3.5 -4.5t-4.5 -6.5q-6 -9 -13 -18v-80q0 -2 -1 -3q-2 -2 -4 -2q-1 0 -3 2q-1 1 -1 3
v68q-3 -3 -7 -9z" />
    <glyph glyph-name="semicolon" unicode=";" horiz-adv-x="185" 
d="M151 247v-43q0 -3 -2 -5t-5 -2t-5 2t-2 5v25l-4 -5q-2 -1 -8 -1q-5 2 -11 6q-17 11 -23 27l-2 6l1 3l52 71l4 1q2 0 8 -2q10 -4 16 -10q8 -9 13 -16q2 -10 2 -11v-4h-1l-1 -2q-1 -1 -2.5 -4t-2.5 -4q-2 -2 -5.5 -7t-5.5 -8v-85q0 -2 -1 -3q-2 -2 -4 -2q-1 0 -3 2t-2 3v71
zM43 -74q-11 -5 -20 -6h-5q-4 0 -6 1q-5 0 -7 2l-2 1l-3 3l3 2l4 4l2 2q16 16 19 45q2 10 2 18l-2 19v10v3l1 1l1 1q14 11 41 11q29 0 37 -14q0 -1 1 -1v-2v-5q0 -21 -12 -45q-8 -16 -20 -28q-12 -10 -18 -14v-27q0 -3 -2 -5q-1 -3 -6 -3q-3 0 -5 3q-3 2 -3 5v19z" />
    <glyph glyph-name="semicolon" unicode="&#x37e;" horiz-adv-x="185" 
d="M151 247v-43q0 -3 -2 -5t-5 -2t-5 2t-2 5v25l-4 -5q-2 -1 -8 -1q-5 2 -11 6q-17 11 -23 27l-2 6l1 3l52 71l4 1q2 0 8 -2q10 -4 16 -10q8 -9 13 -16q2 -10 2 -11v-4h-1l-1 -2q-1 -1 -2.5 -4t-2.5 -4q-2 -2 -5.5 -7t-5.5 -8v-85q0 -2 -1 -3q-2 -2 -4 -2q-1 0 -3 2t-2 3v71
zM43 -74q-11 -5 -20 -6h-5q-4 0 -6 1q-5 0 -7 2l-2 1l-3 3l3 2l4 4l2 2q16 16 19 45q2 10 2 18l-2 19v10v3l1 1l1 1q14 11 41 11q29 0 37 -14q0 -1 1 -1v-2v-5q0 -21 -12 -45q-8 -16 -20 -28q-12 -10 -18 -14v-27q0 -3 -2 -5q-1 -3 -6 -3q-3 0 -5 3q-3 2 -3 5v19z" />
    <glyph glyph-name="less" unicode="&#x3c;" horiz-adv-x="249" 
d="M50 193v-110q0 -2 -1 -3q-2 -2 -4 -2q-1 0 -3 2t-2 3v116q-2 1 -5 3t-4 2q-18 11 -26 25q-1 1 -1 2q-2 2 -2 4q-1 1 -1 4l-1 5l2 3l2 2h1q0 1 1 1q3 0 4 1q2 0 4 1q1 1 2 1q35 18 149 101q2 1 4.5 2.5t4.5 3t3 2.5q16 12 17 13q2 2 4 3l2 2l1 1v4q0 5 1 6l2 2q1 1 4 1
q8 0 19 -8q7 -5 17 -19q5 -8 5 -16t-5 -15q-2 -2 -14 -11q-2 -2 -6.5 -4.5t-6.5 -4.5v-85q0 -2 -1 -3q-2 -2 -3 -2t-3 2t-2 3v78l-6 -4v-54q0 -3 -2 -5t-5 -2t-5 2t-2 5v44l-22 -16q-3 -3 -9 -7q-19 -14 -44 -30q-29 -19 -32 -21l-5 -3q1 -1 24 -10q8 -4 25.5 -12t23.5 -11
q27 -13 50 -22q8 -3 18 -8q6 -4 8 -7q10 -10 13 -15q5 -10 5 -15q0 -4 -3 -6q-1 -1 -4 -1t-5 1v-30q0 -1 -1 -2t-4 -1q-2 0 -3 1l-2 2v35q-2 1 -6 2.5t-6 2.5q-7 3 -21.5 9.5t-22.5 9.5q-8 4 -22.5 10t-20.5 9q-48 21 -72 33z" />
    <glyph glyph-name="equal" unicode="=" horiz-adv-x="308" 
d="M233 171q-11 0 -16 1h-52q-43 0 -85 -2h-32h-6q-3 0 -4 1h-3q-11 4 -23 17q-11 12 -12 22q0 6 4 7h1q5 0 10 1q13 0 25 1l95 1l71 -1q48 -3 60 -10q11 -7 22 -18q9 -12 9 -21q0 -7 -6 -7h-5q-1 1 -2 1q-2 0 -3 1q-7 4 -33 5h-5v-104q0 -2 -1 -3q-2 -2 -4 -2q-1 0 -3 2
t-2 3v105zM127 264v-19q0 -1 -2 -3t-5 -2t-5 2t-2 3v19q-5 0 -14 -0.5t-14 -0.5h-39l-3 1q-6 3 -12 9q-7 4 -12 11q-4 6 -5 9t-3 7v3q0 6 4 7l48 2l68 1l63 -1l57 -3q19 -3 29 -10q9 -6 17 -14q6 -6 10 -16l1 -6q0 -5 -3 -6l-6 -1h-3l-2 1q-1 0 -2 1h-1q-9 4 -35 5
q-44 2 -84 2h-30v-35q0 -1 -1 -2t-3 -1t-3 1l-2 2v35q-1 0 -3 -0.5t-3 -0.5z" />
    <glyph glyph-name="greater" unicode="&#x3e;" horiz-adv-x="249" 
d="M43 307v-50q0 -3 -2 -5t-5 -2t-5 2t-2 5v61q-2 1 -5.5 4t-4.5 3q-12 9 -14 11q-5 7 -5 15t5 16q9 13 18 19q11 8 17 8q4 0 5 -1l1 -1q2 0 2 -1v-6v-3v-1q0 -1 1 -1l2 -2q2 -1 4 -3q1 -1 17 -13q1 -1 3 -2.5t4.5 -3t4.5 -2.5q114 -83 149 -101q1 0 2 -1t4 -1q1 -1 4 -1
q1 0 1 -1h2q0 -1 1 -2l2 -3l-1 -5v-4q-1 -1 -3 -4q-1 -1 -1 -2q-8 -14 -26 -25q-6 -4 -11 -7v-116q0 -2 -1 -3q-2 -2 -4 -2q-1 0 -3 2t-2 3v111q-8 -4 -70 -32q-7 -3 -22.5 -10t-21.5 -9q-7 -3 -21.5 -9.5t-20.5 -9.5q-17 -7 -22 -9q-4 -2 -6 -2q-3 0 -4 1q-3 2 -3 6
q0 5 5 15q3 5 13 15q2 4 9 7q6 4 17 8q37 16 50 22l27.5 12.5t22.5 10.5l23 10l-5 3q-13 7 -32 21q-25 16 -44 30q-6 4 -9 7q-4 3 -12.5 9t-12.5 9v-60q0 -2 -1 -3q-2 -2 -3 -2t-3 2t-2 3v67z" />
    <glyph glyph-name="question" unicode="?" horiz-adv-x="346" 
d="M60 1v-47q0 -2 -2 -4t-5 -2t-5 2t-2 4v29l-4 -5q-1 -1 -4 -1q-4 0 -6 1q-8 2 -19 14q-6 6 -9 13q-4 7 -4 11v4q1 0 1 1l2 2q1 1 2.5 3.5t2.5 3.5q0 1 6.5 10t10.5 14q3 5 9 13t8 10q8 11 9 12q2 2 5 2q4 0 7 -1q16 -7 28 -25q4 -7 4 -13v-2q0 -1 -8 -12q-3 -5 -11 -15
v-89q0 -2 -1 -3t-4 -1q-2 0 -3 1q-2 2 -2 3v75zM232 551v-109q0 -4 -3 -7t-8 -3q-4 0 -7 3t-3 7v103q-3 -1 -8.5 -3.5t-8.5 -3.5v-41q0 -2 -1 -3q-2 -2 -4 -2q-1 0 -3 2t-2 3v36q-2 -1 -4.5 -2.5t-3.5 -2.5q-22 -13 -41 -32q-27 -32 -27 -70q0 -20 8 -46q3 -9 3 -13v-2
q-2 -5 -7 -5q-7 0 -17 7q-11 7 -18 18l-1 2q-1 1 -1 3q-1 2 -1 3q-4 7 -4 9q-6 20 -9 39q-1 5 -1 18q0 12 1 17q7 55 63 91q40 27 78 33q5 1 17 1t17 -1q31 -4 60 -29q42 -35 49 -87q1 -3 1 -11v-15v-9q-9 -61 -55 -107v-118q0 -2 -1 -3q-2 -2 -4 -2q-1 0 -3 2q-1 1 -1 3
v110q-2 -1 -5.5 -4t-5.5 -5q-1 -1 -5 -3q-16 -11 -30 -20q-3 -2 -9 -5t-9 -5q-5 -4 -34 -21l-24 -16q-9 -6 -15 -12q-13 -13 -24 -34q-9 -17 -31 -71q-1 -2 -2.5 -6t-2.5 -6q-1 -5 -3 -7q-1 -4 -7 -4q-3 0 -5 1q-9 3 -18 12q-10 8 -14 18q-1 1 -1.5 3.5t-0.5 3.5q-1 2 -1 4
q1 1 4 10q1 3 4 11t4 10l9 21q23 56 44 77q7 7 17 14q6 5 25 17q21 12 46 27q18 12 26 17q17 10 21 14q2 2 8 7.5t9 8.5q39 42 46 91q1 3 1 13v11q0 1 -0.5 4t-1.5 4q-3 19 -11 30q-5 5 -20 8q-1 1 -5 1h-9q-9 0 -13 -1q-1 0 -3.5 -0.5t-3.5 -0.5z" />
    <glyph glyph-name="at" unicode="@" horiz-adv-x="395" 
d="M148 114q34 24 71 60l10 11q-6 0 -16 -6q-10 -4 -20 -13q-13 -9 -31 -30q-3 -4 -8 -11t-8 -11l-3 -4q3 2 5 4zM217 324l-6 -2v-58q0 -3 -2 -5t-5 -2t-5 2t-2 5v53q-55 -21 -97 -75q-41 -56 -50 -122q-2 -14 -2 -24q0 -12 1 -17q3 -29 15 -48q8 -11 21 -18q24 -14 64 -15
h10q8 0 13 1h11q54 6 86 26q6 4 9 7q5 7 5 8l2 3l-2 3q-1 3 -3 7q-1 2 -1 6v3h-1q-1 -1 -4 -1q-8 0 -19 9q-19 15 -25 24l-2 4l-3 -3q-2 -1 -7 -6q-47 -38 -76 -45h-10q-7 0 -9 1q-3 0 -9 2q-10 4 -20 13q-7 5 -17 19l-5 10l-2.5 5t-1.5 4q-1 1 -1 4t1 5q0 1 2 3q1 3 2 4
q65 107 120 119q3 1 13 1q9 0 12 -1q17 -3 33 -16l4 -3l3 6q1 2 3 5t2 4q1 1 4 3h4q11 -2 24 -13q7 -6 15 -16q5 -10 5 -15v-2q0 -1 -1 -2v-1h-1q0 -1 -1 -2l-2 -2q-1 -2 -5 -6q-2 -2 -4 -4.5t-3 -3.5l-4 -4l-4 -8q-4 -8 -6 -11q-3 -6 -3 -8l2 2l2 1q2 1 2 2q51 37 60 93
q1 5 1 16t-1 16q-5 26 -16 39q-19 21 -57 25q-5 1 -17 1t-17 -1q-2 0 -6.5 -1t-6.5 -1v-82q0 -2 -1 -3q-2 -2 -3 -2t-3 2t-2 3v80zM314 -18v-129q0 -3 -1 -4q-2 -2 -5 -2q-1 0 -3 2t-2 4v122q-28 -15 -68 -22q-3 -1 -9 -1t-9 -1q-6 -1 -21 -1h-18q-53 5 -92 27
q-29 18 -49 43v-41q0 -4 -2 -6q-4 -2 -6 -2q-4 0 -6 2t-2 6v65q-5 9 -13 29q-8 27 -8 55q0 50 24 106q31 66 88 106q40 27 82 34q2 0 5.5 0.5t5.5 1.5h9h12h20q6 -2 15 -3q31 -7 60 -27q14 -10 21 -16q7 -7 17 -19q36 -47 36 -96v-8q-3 -50 -44 -94l-7 -7v-2l-2 -2
q-3 -3 -5 -4q-1 0 -4 -2t-5 -3t-7.5 -5t-9.5 -6q-8 -6 -11 -8l-15 -8h3q15 -3 31 -22q14 -19 14 -32q0 -15 -17 -29l-1 -1h-1z" />
    <glyph glyph-name="A" unicode="A" horiz-adv-x="671" 
d="M575 294q-4 -5 -27 -31t-34 -38l-13 -15h14q7 -1 20 -1q3 -1 9 -1.5t9 -0.5q3 -1 10.5 -2t11.5 -1q4 -1 9.5 -2.5t7.5 -1.5h2l1 -1q0 1 1 1v2l2 5l3 9q26 75 66 164q1 3 3.5 8.5t4.5 8.5q1 2 3.5 8t4.5 9q3 8 4 9v1l-2 -2q-2 -2 -3 -4q-3 -3 -13 -15q-42 -49 -78 -90v-68
q0 -3 -2 -5q-3 -3 -6 -3q-5 0 -6 3q-2 2 -2 5v49zM813 548v-84q0 -1 -2 -3t-4 -2t-4 2t-2 3v60q-17 -34 -33 -68q-31 -65 -32 -67q-56 -122 -85 -203l-5 -13l7 -6q4 -3 10 -9q1 -1 3 -5t3 -5q9 -14 9 -20q0 -3 -1 -4q-1 -3 -6 -3q-7 0 -21 9l-12 12v1q-1 0 -1 1h-1v-1l-1 -1
v-3q0 -2 -1.5 -6t-2.5 -7q-1 -7 -5 -14q-22 -72 -28 -131v-15q-1 -6 -1 -18q0 -15 1 -20q3 -20 9 -34l4 -6q1 -1 1 -2q14 -16 14 -26q-1 -7 -7 -7q-3 0 -5 1q-10 4 -23 16q-10 10 -18 23v-27q0 -2 -1 -3t-3 -1t-3 1q-2 2 -2 3v43q-4 8 -10 26q0 4 -1 10.5t-2 9.5
q-2 14 -2 25q0 14 2 34q3 26 4 35q7 43 25 107q1 1 1 2v2h-7q-22 2 -39 2q-37 0 -73 -4h-9l-8 -9q-8 -9 -26 -27v-322q0 -2 -1 -3q-2 -2 -4 -2q-1 0 -3 2t-2 3v312l-6 -6q-1 0 -2 -1l-2 -2v-97q0 -4 -3 -6q-3 -3 -8 -3q-4 0 -7 3q-3 2 -3 6v77q-13 -13 -20 -18
q-128 -111 -222 -123q-5 -1 -18 -1q-9 0 -13 1h-12q-5 1 -20 5l-15 5q-19 13 -37 38q-21 36 -21 80q0 26 7 50q22 75 104 130q57 38 109 45q12 2 20 2q10 0 20 -2q45 -6 79 -39q5 -4 14 -13q6 -8 8 -13q4 -5 4 -10q0 -2 -2 -4q-1 -4 -6 -4q-8 0 -19 8q-1 1 -3 5l-3 1
q-2 2 -4 3l-7 7l-8 4q-11 7 -26 8q-4 1 -15 1t-16 -1q-42 -6 -87 -34q-23 -14 -40 -28v-92q0 -1 -1 -2q-2 -2 -3 -2t-3 2l-2 2v85l-6 -6v-59q0 -2 -2 -4t-5 -2t-5 2t-2 4v45q-48 -52 -52 -115v-9q0 -21 6 -40l2 -4q3 0 5 -1h5q2 -1 5 -1h8h12q7 0 10 1q26 3 56 15
q81 35 178 123q5 4 11 10l5 5l1 1h-5q-6 -2 -10 -3q-3 -1 -22.5 -4.5t-31.5 -5.5q-31 -6 -57 -12q-4 0 -7 -1l-6 -2q-2 0 -3 -1h-1q-4 0 -11 4q-7 3 -14 10q-15 17 -15 27q0 5 1 6q2 0 3 1q2 0 4 1q1 1 4 1.5t5 0.5q3 1 13 3q116 25 205 35l8 1l9 10q105 114 352 408
q25 29 27 30l3 1q3 0 4 -1q9 -1 22 -14q8 -8 13 -18q1 -1 1 -3v-4v-4z" />
    <glyph glyph-name="B" unicode="B" horiz-adv-x="593" 
d="M546 666v-65q0 -3 -2 -5t-5 -2t-5 2t-2 5v64h-3q-5 0 -7 -1v-249q0 -1 -1 -2t-4 -1q-2 0 -3 1l-2 2v248q-195 -23 -323 -124q-36 -29 -65 -64q-54 -66 -70 -131q-6 -22 -6 -40q0 -8 2 -18v-3l4 -1q11 -4 25 -4q29 0 61 20q10 8 17 14q1 1 4 3q1 1 3 1t4 -1q12 -1 24 -15
q13 -14 13 -25v-3l-7 -7l-15 -12q-7 -5 -8 -5v-84q0 -5 -1 -6q-2 -2 -3 -2t-3 2t-2 6v79l-10 -4v-48q0 -1 -2 -3q-4 -2 -6 -2q-3 0 -5 2q-3 2 -3 3v43q-2 0 -6.5 -1t-7.5 -2h-6q-3 -1 -8 -1q-10 0 -14 1q-22 3 -41 12q-15 7 -29 21q-24 26 -27 59l-1 9q0 9 1 14q0 8 1 11
q4 28 15 58q51 126 187 208q130 79 308 92q7 1 23 1q10 0 40 -2q94 -7 148 -45q2 -2 6 -4.5t6 -3.5l12 -12q6 -7 16 -19q5 -6 13 -20q10 -22 12 -48v-3q0 -60 -61 -136q-5 -7 -19 -21v-111q0 -5 -3 -8t-7 -3q-5 0 -8 3t-3 8v90l-8 -8q-3 -3 -5 -4v-54q0 -2 -1 -3
q-2 -2 -4 -2q-1 0 -3 2t-2 3v45q-84 -69 -179 -103l1 -1l4 -2q33 -19 53 -48q16 -22 16 -49q0 -25 -15 -55q-35 -68 -114 -128q-4 -4 -13 -10q-2 -1 -6 -3.5t-6 -4.5l-14 -8v-77q0 -3 -2 -5q-3 -3 -6 -3q-5 0 -6 3q-2 2 -2 5v70q-24 -10 -54 -13h-8q-3 -1 -11 -1t-11 1h-8
q-22 1 -55 10q-61 19 -112 60q-19 15 -20 30q0 8 6 8h2q8 0 21 -10q22 -18 48 -29q45 -22 93 -22q44 0 85 21q14 7 35 22q63 47 96 98q29 44 29 73v7q0 1 -0.5 2.5t-1.5 2.5v3q-2 4 -3 5t-5 3q-34 19 -101 23h-14q-10 -1 -30 -1h-12q-7 1 -16 1h-9q-2 -1 -5.5 -1.5
t-5.5 -0.5h-4l-12 -17q-11 -15 -29 -41v-161q0 -4 -3 -7t-7 -3q-5 0 -8 3t-3 7v130q-25 -38 -36 -62q-11 -21 -13 -35v-3q0 -3 1 -5v-5q0 -7 -7 -7q-9 0 -19 10q-12 9 -18 21q-5 10 -5 20q0 18 15 47q11 23 35 59q14 21 23 34q4 5 26 36l3 5l-4 3q-16 16 -16 28q0 7 6 7h1h4
q1 -1 3 -1l4 -1l9 -3l9 -3q2 -1 4 -1q1 0 58 79q68 97 89 137q14 28 14 40v4q-1 2 -1 5q0 6 7 7q2 0 4 -1q7 -1 22 -13q10 -10 15 -23q0 -2 1 -3v-3v-6q0 -7 -1 -10q-1 -5 -3 -12q-14 -44 -118 -188q-1 -2 -4.5 -5.5t-4.5 -5.5q-3 -4 -3 -6h3h11q8 0 11 1q144 23 270 134
q1 1 5.5 5t7.5 7q2 2 6.5 7t7.5 8l9 9q63 72 67 129v8q0 26 -14 40q-38 29 -132 35q-9 1 -24 1q-12 0 -18 -1q-4 0 -6 -1z" />
    <glyph glyph-name="C" unicode="C" horiz-adv-x="531" 
d="M310 343v-209q0 -2 -1 -3t-4 -1q-2 0 -3 1q-2 2 -2 3v230q-2 3 -4 13v3q0 4 2 6l1 2h5h3q1 -1 2 -1t2 -1q5 -2 11 -6q4 -3 11 -10q8 -9 10 -19l2.5 -5t1.5 -5q2 -6 3 -7h2q2 -1 9 -1q15 0 32 9q50 25 106 81q57 60 77 117q7 20 7 40q0 14 -3 24q0 1 -1 2t-1 3q0 1 -1 1
t-2 1q-12 2 -21 2q-29 0 -71 -15l-14 -6v-126q0 -2 -1 -3q-2 -2 -4 -2q-1 0 -3 2t-2 3v122q-114 -54 -237 -170q-70 -68 -115 -140v-86q0 -4 -3 -7q-4 -3 -8 -3t-7 3t-3 7v50q-14 -28 -19 -42q-14 -36 -18 -73v-10q-1 -4 -1 -12q0 -9 1 -13v-9q4 -33 19 -56q3 -5 6 -6
q0 -1 2 -2l2 -1q21 -6 52 -6q21 0 30 1q18 2 29 3q111 20 220 105q1 0 3 1.5t3 2.5q2 2 3 2h3q5 0 12 -3q7 -4 14 -11t11 -14t4 -12v-2q0 -1 -1 -1l-1 -2q-3 -3 -6 -5q-2 -1 -5 -4t-5 -4q-96 -72 -189 -94v-63q0 -3 -2 -5t-5 -2q-2 0 -4 2t-2 5v60q-2 -1 -6.5 -1.5
t-6.5 -0.5v-181q0 -5 -3 -8t-7 -3t-7 3t-3 8v178q-23 -3 -43 -3h-11q-27 1 -54 8q-21 6 -46 29q-21 21 -35 49q-20 42 -20 89q0 51 22 105q35 86 118 178q40 43 79 78q148 128 267 157q17 4 37 4q32 0 55 -16q0 -1 1 -1t2 -1q2 -1 4.5 -3t3.5 -3l8 -8q23 -23 30 -52
q4 -13 4 -30q0 -18 -4 -34q-8 -28 -22 -53v-49q0 -2 -1 -3q-2 -2 -4 -2q-1 0 -3 2t-2 3v33q-16 -25 -36 -47q-5 -6 -21 -22t-22 -21q-58 -51 -97 -65q-12 -4 -26 -4q-27 0 -52 21q-19 16 -31 37z" />
    <glyph glyph-name="D" unicode="D" horiz-adv-x="728" 
d="M530 416v-101q0 -2 -1 -3q-2 -2 -4 -2q-1 0 -3 2q-1 1 -1 3v85l-6 -9v-56q0 -3 -2 -5t-5 -2t-5 2t-2 5v36q-48 -62 -61 -79q-46 -59 -61 -80l-18 -24q-72 -98 -99 -162q-1 -1 -1 -3l-1 -1v-1l2 1q1 0 3 0.5t4 0.5q8 2 13 3q2 0 5 0.5t5 1.5q186 48 318 153
q115 95 152 199q13 36 13 73q0 46 -22 75q-38 51 -149 61q-8 1 -24 1h-34h-32q-4 -1 -13 -1.5t-14 -0.5q-100 -9 -185 -44v-102q0 -3 -2 -5q-3 -3 -6 -3q-4 0 -5 3q-3 1 -3 5v96q-28 -13 -49 -25q-106 -61 -160 -153l-16 -32q-13 -35 -13 -63q0 -4 1 -6q0 -6 2 -12v-1l2 -2
l2 -2q13 -10 33 -10q5 0 8 1q33 3 68 26q0 1 1 1t2 1q2 2 4.5 4t3.5 3q4 2 5 3q0 1 2 2l2 1q1 1 2 1h2q11 -2 23 -12q11 -10 16 -23q1 -2 1 -5q0 -4 -1 -5q-3 -3 -7 -6q-8 -6 -13 -9q-8 -6 -14 -10q-3 -1 -8.5 -4t-8.5 -5v-159q0 -4 -3 -7t-7 -3q-5 0 -8 3t-3 7v152
q-18 -5 -32 -5q-45 0 -85 37q-30 25 -36 63q-1 2 -1 8q-1 3 -1 10q0 10 1 14q15 101 121 192q130 107 324 127q33 4 73 4q39 0 67 -4q127 -13 192 -94q45 -54 45 -122q0 -37 -13 -75q-4 -13 -11 -28v-70q0 -3 -2 -5q-1 -3 -6 -3q-3 0 -5 3q-3 1 -3 5v39q-47 -85 -148 -163
q-125 -93 -291 -138v-124q0 -2 -1 -3t-4 -1q-2 0 -3 1q-2 2 -2 3v122q-18 -5 -31 -8q-2 0 -5 -0.5t-4 -1.5q-3 -1 -6 -1t-4 1q-9 2 -16 9q-10 10 -13 16l-3 3l-2 -4q0 -2 -1 -4.5t-1 -3.5q-1 -3 -1 -9q-2 -10 -2 -13q-1 -4 -1 -14v-5q0 -13 4 -20v-1l2 -2l2 -2q6 -5 16 -17
q6 -9 6 -16q0 -5 -3 -6q-2 -2 -5 -2q-4 0 -5 1q-12 4 -31 23q-25 27 -33 59q-2 10 -2 19q0 17 4 32q13 77 125 227q13 18 28 37q31 40 49 63q4 6 7 9l8 10l33 44q16 23 20 29q17 25 20 36q1 0 1 1t1 2v2q0 2 -1 3v3q0 1 1 2q1 4 7 4t16 -6q12 -10 17 -17q7 -10 7 -21
q0 -9 -8 -27z" />
    <glyph glyph-name="E" unicode="E" horiz-adv-x="427" 
d="M77 438v-37q0 -1 -2 -3q-4 -2 -6 -2q-3 0 -5 2q-3 2 -3 3v32h-2q-1 -1 -3 -1q-9 0 -17 7q-11 8 -16 17q-7 8 -7 16q0 4 2 6q6 4 66 23q283 94 462 115q40 5 72 5q40 0 65 -6q43 -11 68 -39q25 -26 25 -59q0 -11 -3 -23q-2 -6 -3 -8l-2 -3q-1 -1 -5 -1q-9 2 -13 5v-78
q0 -4 -2 -6q-4 -2 -6 -2q-3 0 -5 2q-3 1 -3 6v88q0 2 1 3q-9 9 -11 19l-1 4l1 5q4 15 4 25v6q-1 1 -1 2q-1 1 -2 1q-12 7 -43 10q-6 0 -11 1h-15q-21 0 -29 -1q-47 -2 -96 -10v-126q0 -2 -1 -3q-2 -2 -4 -2q-1 0 -3 2t-2 3v124q-43 -7 -82 -16q-12 -3 -19 -5q-4 0 -5 -1h-1
l-1 -1q-3 -3 -7 -8q-5 -5 -15 -19q-8 -9 -17 -22q-27 -33 -66 -83q-5 -6 -13 -16q-7 -8 -8 -11l-4 -6h1q2 0 3 1q5 0 9 1q76 9 154 12q3 1 10 1h8h8q4 -2 7 -3q11 -6 22 -18q9 -12 9 -20v-1q-1 -2 -3 -4t-6 -2h-7q-7 0 -11 -1q-111 -5 -195 -17h-1v-78q0 -2 -1 -3
q-2 -2 -3 -2t-3 2t-2 3v76q-1 0 -3 -0.5t-3 -0.5v-55q0 -3 -2 -5t-5 -2t-5 2t-2 5v52q-12 -2 -16 -2q-3 -1 -6 -1q-1 -1 -3 -1h-1q-5 -5 -10 -13q-17 -22 -20 -27q-113 -154 -146 -233q-2 -3 -7 -16q-3 -9 -3 -11v-1q0 -1 1 -1h3q16 -2 30 -2q18 0 26 1q53 4 130 24
q49 13 78 22q5 2 11 4q2 1 4 1h2q0 -1 1 -1q11 -2 23 -12q11 -12 15 -24v-9h-1q-1 -1 -2 -1q-1 -1 -2 -1t-1.5 -0.5t-1.5 -0.5q-2 -1 -8 -3v-119q0 -5 -3 -8t-7 -3q-5 0 -8 3t-3 8v112q-4 -1 -17 -5v-53q0 -2 -1 -3q-2 -2 -4 -2q-1 0 -3 2t-2 3v51q-82 -24 -157 -32
q-46 -2 -53 -2q-44 1 -71 25q-22 18 -27 38q-2 6 -2 10q0 36 49 115q18 32 41 65q14 21 47 68l3 5h-1l-1 -1h-2q-1 0 -4 -2t-5 -2q-1 0 -4 -2t-5 -2q-6 -2 -10 -4l-6 -3q-1 0 -2.5 -0.5t-2.5 -1.5l-4 -2q-1 -1 -3 -1q-7 0 -17 7q-8 6 -17 18q-6 9 -6 15q0 4 2 6l8 5q2 1 7 3
t8 4q6 3 18 7q42 16 91 26q1 1 3 1t3 1h3l14 18q33 45 90 116q2 3 11 15l2 4l1 1l1 1h-1l-1 -1h-3q-4 -2 -7 -2q-14 -5 -30 -9q-6 -2 -17.5 -5.5t-14.5 -4.5q-72 -21 -161 -52z" />
    <glyph glyph-name="F" unicode="F" horiz-adv-x="164" 
d="M130 474v-69q0 -2 -1 -3q-2 -2 -4 -2q-1 0 -3 2t-2 3v65l-6 -2v-43q0 -3 -2 -5t-5 -2q-2 0 -4 2t-2 5v39l-27 -9l-6 -2q-1 -1 -3 -1h-4q-13 5 -24 17q-13 13 -13 23q0 4 2 6q4 2 31 12q10 3 32 10t33 11q46 15 68 21q296 89 435 89q14 0 34 -2q60 -4 95 -38
q15 -15 22 -30q6 -15 7 -20q1 -4 1 -14q0 -9 -1 -14q0 -2 -0.5 -5.5t-1.5 -5.5q-2 -6 -3 -7q-2 -3 -7 -3q-3 0 -6 1q-11 5 -21 15t-12 21v3l1 9q3 11 3 19q0 6 -1 8v3v1h-3q-27 11 -73 11h-19v-88q0 -3 -2 -5q-3 -3 -6 -3q-4 0 -5 3q-3 2 -3 5v87q-2 -1 -7 -1q-6 0 -9 -1
v-337q0 -2 -1 -3q-2 -2 -4 -2q-1 0 -3 2t-2 3v336q-74 -7 -171 -30l-6 -1l-12 -16q-1 -2 -30 -41q-19 -27 -59 -79q-3 -4 -8 -12t-8 -12q-9 -14 -15 -21q-2 -3 -5 -6q0 -1 -0.5 -1t-0.5 -1q-1 0 -1 -1h6q72 8 136 8h29q11 -3 21 -13q16 -16 16 -27q0 -3 -2 -5v-1h-2
q-1 -1 -5 -1h-8h-14q-82 0 -149 -10q-6 -1 -20 -3v-125q0 -2 -1 -3q-2 -2 -4 -2q-1 0 -3 2t-2 3v123h-5q-7 -2 -18.5 -4t-14.5 -3l-4 -1l-10 -14q-107 -156 -153 -245q-25 -53 -27 -75q0 -2 1 -3v-2q1 -1 1 -2t0.5 -1.5t0.5 -1.5v-6q0 -7 -7 -7h-3l-4 2v-131q0 -2 -1 -3
q-2 -2 -4 -2t-4 2t-2 3v137q-16 13 -25 33v4q-1 1 -1 3v6q0 8 1 11l2 10q13 52 98 187q10 14 15 22q3 5 10 16t10 16q1 1 2.5 3.5t2.5 3.5v1l1 1h-1l-1 -1q-4 -2 -7 -3q-4 -2 -5 -3q-2 -1 -5 -1q-2 0 -4 1q-10 3 -21 13q-11 13 -14 22v9l2 2l1 1q2 0 3 1t5 3q44 21 93 32
l7 2l2 3q3 3 6 7t9 14q77 109 94 131l19 26l-36 -10q-98 -29 -159 -49z" />
    <glyph glyph-name="G" unicode="G" horiz-adv-x="520" 
d="M543 601v-124q0 -1 -2 -3t-4 -2t-4 2t-2 3v120q-16 -5 -32 -12q-168 -73 -301 -219q-97 -108 -134 -215q-16 -44 -16 -76q0 -13 3 -23q1 -4 3 -6t4 -3q14 -7 50 -7q4 0 12.5 0.5t12.5 1.5q19 2 28 4q84 16 203 69q4 2 11.5 5.5t11.5 5.5t5 2q1 1 3 1v1h1q0 4 4 13
q2 4 4.5 13t3.5 12q1 4 3.5 13t4.5 13q3 10 3 12h-1q-1 -1 -2 -1h-2q0 -1 -2 -1t-2 -1q-1 -1 -2 -1q-2 -1 -3 -1q-1 -1 -3.5 -1.5t-3.5 -0.5l-9 -3q-1 0 -5 -1.5t-6 -2.5q-8 -4 -13 -5q-3 -1 -8.5 -3t-7.5 -3q-7 -3 -18 -6.5t-13 -4.5v-60q0 -2 -1 -3t-4 -1q-1 0 -2 1
q-2 2 -2 3v57h-1q-2 -1 -5 -1v-37q0 -2 -2 -4t-5 -2t-5 2t-2 4v33q-12 0 -24 4q-16 6 -27 19q-12 13 -15 27q-2 6 -2 10t1 5q1 4 7 4q11 0 27 -15q1 -2 3 -4q0 -1 1 -1t2 1q53 18 76 26q83 31 118 41q41 13 75 16q14 2 24 2q11 0 15 -1q23 -5 43 -26q7 -7 12 -17
q5 -12 5 -17q0 -6 -3 -7q-1 -1 -4 -1h-4q-1 1 -2 1q-11 3 -21 15l-5 5h-9q-34 -2 -83 -17q-7 -2 -12 -3q-1 0 -4 -0.5t-4 -1.5l-2 -1l-1 -1l2 -4q1 -1 1 -5t-1 -7q-2 -6 -3 -11q-12 -42 -18 -64l-5 -15l3 -4q4 -7 6 -14q0 -3 -1 -4q0 -1 -1 -1l-1 -2q-2 -2 -6 -3q-1 0 -2 -1
l-5 -2v-115q0 -2 -1 -3q-2 -2 -4 -2q-1 0 -3 2t-2 3v93l-1 -3q-70 -216 -137 -315q-17 -26 -32 -41q-25 -23 -45 -29q-2 -1 -5 -1h-8h-12q-9 2 -29 11q-27 13 -50 36q-15 13 -26 31v-95q0 -4 -3 -7t-7 -3q-5 0 -8 3t-3 7v144q-5 22 -5 40q0 26 9 52q2 10 5 14q3 8 7 12
q28 44 79 49h5q2 0 4 -1q13 -5 23 -18q11 -14 11 -21v-4l-2 -2q-1 -1 -2 -1q-3 0 -5 -1h-1q-2 0 -5 -0.5t-5 -1.5t-5 -1t-4 -1q-21 -7 -34 -22q-32 -38 -32 -85q0 -14 3 -28q4 -28 22 -44q3 -4 11 -8q8 -5 14 -6q6 -2 10 -2q22 0 48 27q62 62 132 250q1 1 2.5 5t3 7.5
t2.5 7.5q1 3 3.5 11t4.5 12q0 2 2 6v2q1 1 1 2h-1l-1 -1q-1 0 -2 -1q-1 0 -3 -1q-1 0 -4.5 -1.5t-5.5 -2.5q-138 -54 -219 -54q-17 0 -24 1q-31 3 -57 20q-8 6 -10 8q-4 3 -9 9q-16 15 -24 32q-9 19 -10 34q-1 4 -1 16q0 11 1 16q10 76 70 176q31 52 88 116q5 6 25 26
q13 13 27 25q157 141 305 184q33 9 63 9h8q27 0 49 -11q15 -7 30 -22q32 -34 32 -73q0 -11 -1 -17q-5 -22 -18 -44v-53q0 -2 -1 -3q-2 -2 -3 -2t-3 2t-2 3v39q-35 -48 -110 -101q-22 -15 -68 -41q-37 -21 -60 -29l-16 -4q-5 -1 -17 -1q-33 0 -55 16q-14 10 -25 24t-11 22
q0 3 1 4q1 3 6 3q4 0 16 -5l3 -3q2 -1 6 -5q1 -1 4 -3q1 -1 2 -1l2 -2h1q10 -2 19 -2t13 1q18 4 58 25q44 23 75 44q45 30 77 62q44 44 56 81q3 13 3 25q0 6 -2 16q-1 1 -1 2q-1 1 -1 2h-2q-11 4 -28 4q-33 0 -73 -13z" />
    <glyph glyph-name="H" unicode="H" horiz-adv-x="557" 
d="M251 233v-55q0 -3 -2 -5q-1 -3 -6 -3q-3 0 -5 3q-3 1 -3 5v31q-1 -2 -7 -11v-103q0 -2 -1 -3q-2 -2 -4 -2q-1 0 -3 2t-2 3v88q-101 -158 -106 -211l-1 -3l4 -4q4 -4 8 -10q1 -2 4 -10v-4q0 -4 -2 -6q-1 -1 -5 -1h-2q-9 3 -11 4q-7 2 -11 6q-3 2 -9 8l-8 8q-12 15 -15 31
q-1 3 -1 9q0 4 2 14q8 43 52 119q15 27 59 97l2 2h-2q0 -1 -2 -1q-3 -1 -11 -3q-7 -2 -12 -3q-3 -1 -7 -1t-5 1q-14 8 -26 21q0 1 -1 2l-3 6q-1 1 -1.5 2.5t-1.5 3t-1 2.5v3q0 5 3 6q1 1 20 6q5 1 18.5 4.5t21.5 5.5t20.5 5t18.5 5q2 1 5 2t5 1h5q1 0 2 1q0 1 2 3l4 6
q8 13 100 144q16 22 38.5 55t29.5 43q24 36 39 60q4 6 10 16q3 6 3 7q-2 0 -5 -1q-1 0 -3 -1t-4.5 -2t-4.5 -1q-12 -4 -17 -5q-85 -29 -221 -96q-42 -21 -75 -39v-95q0 -2 -1 -3q-2 -2 -4 -2q-1 0 -3 2q-1 1 -1 3v90l-6 -3v-67q0 -3 -2 -5t-5 -2t-5 2t-2 5v59
q-28 -17 -35 -24q-9 -9 -9 -19q0 -7 5 -14q1 -1 3 -5t3 -5q2 -6 2 -9q0 -7 -7 -7q-3 0 -9 2q-12 5 -23 20q-11 13 -18 31q-2 8 -2 10q-1 3 -1 10q0 8 1 11q1 1 1 4t1 4q3 6 8 11l15 12q30 19 118 64q178 88 273 114q23 5 35 5t19 -3q14 -4 29 -19q12 -14 14 -28v-2
q0 -17 -33 -71q-1 -1 -2 -2.5t-1 -2.5v-130q0 -3 -1 -4q-2 -2 -4 -2t-4 2t-2 4v113q-3 -5 -11.5 -17.5t-13.5 -19.5q-54 -77 -67 -96l-63 -90q2 0 5 1q6 0 10 1q95 19 154 23q7 1 26 1h22q3 -1 6 -1t3 1l1 1q0 1 1 2l4 8q59 111 115 207q3 5 7 11q1 3 4 6l2 2h3
q11 -1 25 -14q14 -12 15 -24v-3v-4q-1 -1 -3 -5q-15 -23 -58 -100q-43 -78 -56 -103l-3 -6l6 -6q21 -19 21 -40q0 -6 -1 -7q-2 -2 -7 -2q-7 0 -17 7q-2 1 -8 7l-7 7q-1 1 -1 2q-1 1 -1 2h-1l-1 -2q-1 -2 -3 -5.5t-4 -7.5q-2 -5 -7.5 -16l-8.5 -17q-9 -16 -16 -31
q-73 -154 -78 -212v-6l2 -2q12 -15 12 -24q0 -3 -1 -4q-3 -3 -6 -3q-1 0 -7 2q-1 1 -3 1t-3 1l-6 3q0 1 -1 1t-1 1v-89q0 -3 -2 -5q-1 -3 -6 -3q-3 0 -5 3q-3 2 -3 5v103q-11 10 -15 24q-3 11 -3 22q0 6 2 20q14 73 91 229q4 8 5 11l1 2l1 1v1h-1h-3q-1 -1 -4 -1
q-72 -6 -182 -30q-6 -2 -19 -4.5t-17 -3.5q-10 -2 -13 -3t-6 -1q-1 0 -1 -1l-2 -2q-1 0 -2 -2l-1 -2l-6 -8q-1 -1 -2.5 -3.5t-2.5 -3.5z" />
    <glyph glyph-name="I" unicode="I" horiz-adv-x="198" 
d="M52 -76v-65q0 -2 -1 -3q-2 -2 -4 -2q-1 0 -3 2t-2 3v70q-1 0 -3.5 1.5t-3.5 2.5l-8 8l-9 9q-4 6 -5 10q-4 6 -5 9v9q0 10 1 15q10 55 136 245q23 35 46 67q43 62 75 107l18 27q4 4 5 6q3 5 10.5 15.5t11.5 16.5q3 4 6 8.5l6 9t4 6.5q5 6 14 20t13 20q18 26 22 32
q9 13 9 14q-3 0 -15 -3q-6 -2 -10 -3q-89 -27 -157 -61v-117q0 -4 -3 -7t-7 -3t-7 3t-3 7v107q-3 -2 -8.5 -5t-8.5 -4v-44q0 -2 -1 -3q-2 -2 -4 -2q-1 0 -3 2t-2 3v39q-73 -42 -100 -77q-9 -11 -9 -19v-2l7 -2q38 -15 103 -20q9 -1 16 -3q3 -1 11 -7q3 -1 8 -6q4 -6 5 -8
q8 -11 8 -18q0 -2 -2 -4q0 -1 -1 -1q-1 -1 -4 -1h-6q-25 3 -33 4q-16 1 -37 5q-51 11 -81 30v-139q0 -2 -2 -4t-4 -2q-1 0 -3 2t-2 4v148q-2 1 -5 4q-16 16 -24 35q-1 5 -1 15q0 8 1 12q5 20 30 41q79 70 232 126q75 27 136 38h7q3 1 8 1h8l3 -2q12 -6 22 -16q9 -11 12 -20
l1 -3v-6q0 -1 -0.5 -2.5t-1.5 -2.5q-4 -21 -100 -158q-4 -7 -9 -14v-90q0 -4 -3 -5q-4 -2 -7 -2t-7 2q-3 1 -3 5v62q-8 -12 -12 -17q-105 -153 -116 -170q-7 -10 -33 -49.5t-37 -56.5q-63 -103 -73 -142l-2 -4l3 -3q13 -14 13 -24q0 -2 -1 -3l-3 -3q-1 -1 -6 -1q-6 0 -9 1
h-1z" />
    <glyph glyph-name="J" unicode="J" horiz-adv-x="513" 
d="M254 108q-2 -1 -5.5 -4.5t-5.5 -4.5q-4 -4 -6 -5v-59q0 -2 -1 -3q-2 -2 -4 -2q-1 0 -3 2t-2 3v50q-141 -129 -175 -239q-2 -12 -2 -14q-1 -4 -1 -15q0 -9 1 -12q0 -6 1 -9l1 -1q0 -1 1 -1t1 -1l2 -1q7 -4 19 -4q5 0 8 1q32 3 70 31q122 90 273 352q1 2 14 25q2 4 6.5 12
t6.5 12q1 3 2.5 5.5t2.5 3.5v2q-2 0 -9 -3q-3 -1 -9 -4t-9 -4t-10 -4.5l-11 -5.5q-67 -34 -135 -86v-124q0 -4 -3 -7t-8 -3q-4 0 -7 3t-3 7v107zM497 646v-130q0 -2 -1 -3q-2 -2 -5 -2q-1 0 -3 2t-2 3v125q-22 -12 -34 -19q-79 -46 -154 -110q-71 -60 -107 -114
q-3 -4 -7 -14q-4 -6 -6 -13q-4 -9 -4 -20q0 -4 1 -5v-2h1q0 -1 1 -1q1 -1 3 -1h5h4q35 0 98 29q1 0 2.5 1t2.5 2t2 1q2 1 4 1h2h3q1 0 2 -1t2 -1q10 -5 18 -13t13 -18l2 -6q0 -3 -2 -5v-1q-1 -1 -2 -1l-1 -1q-1 -1 -2 -1q-1 -1 -5 -3q-44 -21 -77 -28q-18 -3 -33 -3h-9
q-32 5 -54 28q-6 6 -8 9v-28q0 -4 -2 -6t-6 -2q-3 0 -5 2q-3 1 -3 6v56q-3 7 -5 22v5q0 15 11 39q33 62 124 138q89 75 189 127q68 33 118 38q5 1 15 1t14 -1q33 -6 54 -30q19 -20 20 -47q1 -5 1 -17q0 -14 -1 -19q-8 -61 -43 -157q-15 -40 -28 -69q-22 -52 -32 -72
q0 -2 -1 -3t-1 -2q-1 0 -1 -1h5h13q2 0 7 -0.5t7 -1.5q47 -5 87 -27q33 -16 57 -39q15 -17 15 -27q0 -7 -7 -8q-3 0 -4 1q-8 2 -20 12q-19 16 -35 23v-68q0 -2 -2 -4t-4 -2t-4 2t-2 4v73l-4 2t-4 1q-35 11 -71 11q-22 0 -54 -5l-6 -1l-2 -4l-4 -8q-2 -5 -8 -15
q-147 -283 -282 -415q-60 -58 -106 -70v-120q0 -2 -1 -3q-2 -2 -4 -2q-1 0 -3 2t-2 3v117q-2 0 -5 -0.5t-4 -0.5h-3q-2 -1 -6 -1t-5 1h-4h-5q-10 1 -28 10q-47 26 -63 70q-4 12 -4 27q0 37 24 85q54 107 182 216q142 116 277 151q1 0 3.5 0.5t3.5 1.5q3 0 4 1h1v1l2 2
q0 2 1 3q2 1 3 6q107 222 122 336q1 2 1 8v10v8q0 3 -1 3h-1q-1 0 -2 1h-8h-8q-3 -1 -7 -1q-40 -5 -100 -34z" />
    <glyph glyph-name="K" unicode="K" horiz-adv-x="669" 
d="M397 649v-65q0 -2 -1 -3q-2 -2 -3 -2t-3 2t-2 3v61l-6 -3v-38q0 -3 -2 -5t-5 -2t-5 2t-2 5v32q-32 -16 -71 -41q-72 -47 -138 -107q-64 -59 -96 -110q-15 -28 -16 -39v-4h27q39 6 85 27l10 4q1 1 4 1h3q12 -3 24 -15q12 -13 13 -24v-5v-1q-1 0 -1 -1l-2 -1q-1 -1 -2 -1
q-2 -1 -3 -1q-28 -13 -47 -19q-2 -1 -6.5 -2t-6.5 -2v-34q0 -2 -1 -3t-4 -1q-2 0 -3 1t-1 3v31q-2 0 -6.5 -1t-6.5 -2v-156q0 -5 -3 -8t-7 -3t-7 3t-3 8v153h-11q-8 0 -20 2q-26 6 -49 29q-16 17 -22 38v5q-1 1 -1 3v6v7q0 3 1 4v4q2 6 8 20q19 39 71 93q55 56 117 103
q135 100 229 116q3 0 8 0.5t7 1.5h15h15q2 -1 6 -1.5t6 -0.5q22 -4 43 -25q29 -26 29 -73q0 -19 -5 -47q-20 -93 -102 -261q-2 -3 -4.5 -8l-3.5 -7l-2 -4q0 -1 -1 -1v-1q1 0 8 4q4 2 7 3q123 68 297 219q29 25 47 42q4 4 19 17.5t21 19.5q1 2 5 6q1 1 4 3l1 1q1 1 4 1
q9 0 26 -14q11 -11 14 -21q1 -2 1 -5q0 -4 -1 -5l-10 -10q-4 -3 -11.5 -10t-11.5 -11q-1 -1 -28 -25q-1 -1 -3.5 -3t-3.5 -3v-115q0 -2 -1 -3q-2 -2 -4 -2q-1 0 -3 2t-2 3v106q-182 -162 -315 -237l-10 -5q-7 -4 -14 -7q-11 -7 -19 -10l-4 -2q0 -1 1 -1q0 -1 1 -2q0 -3 3 -4
q1 -2 4.5 -8.5t5.5 -10.5q11 -16 18 -30q145 -238 273 -307q44 -23 81 -23q27 0 50 12l5 2.5t4 1.5q2 1 5 1h3q1 0 2 -1q3 -2 3 -7q0 -3 -3 -11q-4 -8 -9 -12q-1 -1 -3 -4q-5 -5 -8 -6q-6 -4 -11 -7q-37 -17 -73 -17h-11q-2 1 -6 1.5t-6 0.5q-10 2 -14 3q-97 24 -213 167
q-1 2 -4 5.5t-5 5.5v-40q0 -2 -1 -3q-2 -2 -4 -2q-1 0 -3 2t-2 3v53q-1 1 -5 6.5t-6 7.5v-127q0 -2 -1 -3q-2 -2 -5 -2q-1 0 -3 2t-2 3v142q-60 82 -109 171l-5 10q-3 4 -3 5v-1q-1 0 -1 -1q-1 -1 -1 -2q-4 -6 -6 -10q-54 -102 -127 -222q-2 -4 -3 -5q-2 -2 -3 -2
q-1 -1 -5 -1q-12 2 -21 11q-12 12 -17 22v4q-1 1 -1 3v1q0 1 1 2q0 2 1 3q0 1 3 5q0 1 2 4t3 5q5 9 17.5 29.5t19.5 32.5q26 46 38 67q8 14 13 23q8 13 12 22q2 4 3 5t1 3h1v1h-1v1h-4q-21 7 -40 21q-3 2 -11 10l-12 12q-13 16 -13 26q0 6 4 7l2 1l4 -1q1 0 7 -2l2 -1
q3 -2 5 -3q3 -1 9 -7t7 -9l2 -2q1 -1 2 -1l2 -2q11 -4 29 -4q12 0 18 1q1 1 3.5 1.5t3.5 0.5q5 0 7 1l1 1h1l1 2q0 1 2 3q1 4 6 12q1 2 4 7t4 8q3 7 6 12q5 10 20 39q4 7 7 14t6.5 14t5.5 10q85 177 92 260q1 7 1 20v9q-1 1 -1 3v1l-6 2h-12q-11 0 -16 -1q-34 -4 -75 -21z
" />
    <glyph glyph-name="L" unicode="L" horiz-adv-x="695" 
d="M489 -31v-56q0 -2 -1 -3q-2 -2 -4 -2q-1 0 -3 2t-2 3v57q-117 9 -303 61q-4 1 -10 3q-2 0 -3 1h-1l-9 -16q0 -1 -1 -2q-3 -7 -9 -17q-5 -8 -6 -12l-4 -8l-2 -4l-1 -2q-1 -1 -2 -1h-3q-10 0 -26 13q-15 15 -15 26v2q0 2 1 3l2 4q0 1 1.5 4l2.5 5l7 13h-3q-3 0 -5 -1t-6 -1
q-1 0 -2.5 -0.5t-2.5 -1.5q-13 -4 -13 -8q0 -2 -1 -3l-3 -3q-1 -1 -4 -1q-7 0 -15 7l-4 2v-39q0 -2 -1 -3q-2 -2 -4 -2q-1 0 -3 2t-2 3v48q-1 2 -3 4q-8 13 -8 20q0 6 4 10q6 7 23 12q15 4 36 4q13 0 18 -1q10 -2 16 -3h3q1 -1 2 -1h1q1 1 10 19q7 16 21 42q12 26 24 48
t18 36q143 297 160 412v2q0 1 1 4.5t1 5.5v7v1q-1 0 -11 -2q-2 -1 -7.5 -2.5t-8.5 -1.5q-24 -6 -44 -15v-117q0 -3 -1 -4q-2 -2 -4 -2t-4 2t-2 4v112q-61 -25 -119 -68q-66 -51 -94 -100q-1 -1 -3 -5t-3 -5q-1 -2 -1 -4h1q1 0 2 1q4 0 7 1q5 0 8 1q40 9 93 30l5 2.5t4 1.5
q2 1 5 1q4 0 6 -1q11 -5 21 -15q11 -12 12 -22v-3q0 -3 -2 -5t-7 -4q-4 -2 -13 -5.5t-14 -5.5v-79q0 -2 -1 -3t-3 -1t-3 1q-2 2 -2 3v76l-6 -2v-54q0 -2 -2 -4t-5 -2t-5 2t-2 4v49q-35 -11 -63 -15q-5 -1 -17 -1q-10 0 -14 1q-23 4 -39 21q-4 4 -8 10l-6 9q-1 2 -4 11
q-2 6 -2 10q0 7 1 10q2 6 3 10q34 88 174 169q71 40 144 55q12 2 16 2q5 0 13 -2q14 -6 28 -18q13 -12 20 -29q4 -9 5 -18v-16q0 -13 -1 -18q-15 -117 -167 -432q-1 -2 -5.5 -11.5t-8.5 -16.5q-7 -13 -21 -41q-7 -13 -12 -24q-2 -3 -3.5 -6l-2.5 -5l-1 -3q-1 -1 -1 -3
q-1 -1 -1 -2q2 0 15 -3q16 -5 32 -9q4 -1 15.5 -3.5t17.5 -4.5q146 -34 233 -34q55 0 82 13q4 2 10 6q3 2 8 7l3 3q3 1 3 3h4q11 0 27 -15q4 -4 8 -10q2 -4 4 -10q1 -2 1 -5t-1 -4t-3 -4l-6 -6q-3 -2 -6 -5q-25 -17 -73 -20h-14q-4 -1 -13 -1v-109q0 -5 -3 -8q-4 -3 -8 -3
t-7 3t-3 8v109h-2q-10 0 -15 1z" />
    <glyph glyph-name="M" unicode="M" horiz-adv-x="881" 
d="M85 268v-53q0 -1 -1 -2q-2 -2 -3 -2t-3 2l-2 2v54q-13 2 -23 7q-35 19 -49 54q-4 12 -4 33q1 25 12 58q42 116 131 202q31 31 63 43q21 10 44 10t43 -10q38 -19 57 -55q14 -23 14 -55q0 -20 -4 -37q-6 -32 -14 -57l-2 -6q0 -1 -1 -2v-1l8 10q91 119 158 185q62 64 96 73
q3 0 4 1h3h4h5h3q1 -1 3 -1q14 -5 28 -17q20 -19 25 -49q1 -4 1 -16q0 -13 -1 -18q-6 -62 -55 -185l-6 -14l14 14q99 94 169 146t98 53h5q18 0 36 -18q8 -9 13 -19l4 -8q1 -2 1 -7v-2q0 -9 -3 -26q-8 -31 -14 -46q-6 -19 -15 -42q-15 -40 -27 -73q-1 -3 -7.5 -20t-10.5 -27
q-19 -49 -40 -108q-8 -23 -27 -77q-37 -107 -43 -165v-10q-1 -4 -1 -9v-4l1 -1l2 1q1 0 3 1q1 0 2.5 0.5t2.5 1.5h3q3 0 4 -1q11 -3 21 -12q9 -9 14 -21q1 -2 1 -6q0 -5 -2 -7l-2 -1q-1 -1 -5 -1h-1v-141q0 -2 -1 -3q-2 -2 -5 -2q-1 0 -3 2t-2 3v137q-3 -1 -8 -1t-15 2
q-29 9 -49 42q-5 12 -8 26v37q8 77 65 233q6 15 21 55t23 62q4 11 11.5 30t10.5 27q13 38 19 53q7 16 12 32q2 4 4.5 12t3.5 11q1 4 2.5 7.5t2.5 7.5t2 6q0 4 1 5q0 1 1 2v1l-4 -2q-3 -1 -9 -5q-4 -5 -9 -6q-17 -11 -43 -30v-77q0 -2 -1 -3q-2 -2 -3 -2t-3 2t-2 3v70
q-2 -1 -6 -5v-45q0 -3 -2 -5t-5 -2t-5 2t-2 5v34q-67 -53 -125 -110q-107 -102 -147 -169q-3 -8 -9 -22q-15 -35 -16 -39q-13 -32 -16 -37q-23 -66 -23 -88q0 -2 1 -3v-4q1 -1 1 -3q1 -1 1 -2v-3v-4l-2 -2q-2 -2 -6 -2q-1 0 -9 2l-12 9q-1 1 -4 3q-17 17 -18 35v6
q0 42 57 176q4 8 5 11t5 11l18 43q48 109 64 150q49 124 57 184q1 1 1 3.5t1 4.5v8v3q-3 0 -8 -4q-12 -7 -13 -8q-78 -57 -222 -245v-302q0 -2 -1 -3q-2 -2 -4 -2q-1 0 -3 2t-2 3v289q-8 -12 -13 -17v-111q0 -5 -3 -6q-3 -3 -8 -3q-4 0 -7 3q-3 1 -3 6v83
q-10 -14 -30.5 -41.5t-24.5 -33.5q-12 -17 -42 -59q-18 -26 -21 -30q0 -1 -1 -2q0 -1 -1 -3t-3 -5.5t-3 -5.5q-54 -117 -62 -177v-33q0 -1 1 -4l1 -3l3 -3q7 -4 13 -12q6 -11 7 -13q2 -6 2 -8t-2 -4t-5 -2h-4q-5 1 -21 10q-30 23 -41 59q-2 16 -2 26q0 54 42 156
q4 8 11.5 25t11.5 25t16 35t21 45q27 55 48 103q18 41 27 68q29 78 29 121q0 16 -5 29q0 4 -1 5l-6 2l-9 3q-3 1 -12 1h-6h-5q-1 -1 -5 -1q-21 -5 -40 -17v-91q0 -2 -1 -3q-2 -2 -4 -2q-1 0 -3 2t-2 3v85q-21 -15 -44 -38q-65 -68 -107 -164q-18 -48 -18 -78v-8h4
q18 0 41 19q1 1 5.5 5t7.5 7q2 2 5 4.5t5 4.5t3 4q34 38 66 97l3 3q1 1 4 1q6 0 17 -6q10 -8 16 -17q7 -10 7 -18v-2q0 -1 -1 -2l-3 -6q-53 -94 -102 -128q-22 -14 -41 -14z" />
    <glyph glyph-name="N" unicode="N" horiz-adv-x="587" 
d="M520 -108v-113q0 -2 -1 -3q-2 -2 -4 -2q-1 0 -3 2t-2 3v122q-38 39 -49 84q-3 12 -5 37q-1 6 -1 22t1 23q7 89 79 249q3 7 11 23q4 11 12 27q8 18 26 55q30 65 42 94q15 35 23 55q12 34 15 57v4l-3 -1q-54 -20 -159 -117l-6 -6v-71q0 -2 -3 -3q-4 -2 -7 -2q-4 0 -8 2
q-3 1 -3 3v51l-10 -10v-121q0 -3 -1 -4q-2 -2 -4 -2t-4 2t-2 4v110q-93 -92 -212 -226l-14 -16l-4 -10q-54 -115 -65 -176q-3 -14 -3 -27t3 -20v-1l2 -2l2 -2q1 -1 5 -3q0 -1 2 -3t2 -3l5 -5q7 -10 7 -17t-7 -8q-4 0 -5 1q-7 1 -16 9q-9 5 -18 14q-7 7 -10 11v-85
q0 -2 -1 -3q-2 -2 -3 -2t-3 2t-2 3v100q-11 22 -11 47l1 9q2 58 57 176q4 12 17 39q3 7 14 30t19 40q38 81 50 111q37 85 46 139q3 18 3 32q0 19 -4 28l-2 6q-1 0 -1 1l-2 1q-12 5 -23 5q-17 0 -34 -7v-41q0 -3 -3 -5q-6 -2 -8 -2q-3 0 -7 2q-3 2 -3 5v30q-64 -38 -127 -139
q-45 -76 -53 -136v-17v-2q0 -1 1 -1h1q4 0 7 1q2 1 4.5 1t3.5 1q38 14 89 87q3 4 7.5 12t6.5 12q5 8 16 27q1 2 3 4q1 1 4 1q9 0 26 -14q3 -3 9 -11q4 -6 6 -11v-3q0 -3 -1 -5l-4 -8q-5 -9 -19 -31q-5 -8 -20 -31q-22 -30 -44 -51v-104q0 -2 -1 -3t-4 -1q-2 0 -3 1
q-2 2 -2 3v96l-6 -4v-72q0 -3 -2 -5t-5 -2q-2 0 -4 2t-2 5v64q-8 -5 -19 -7q-2 -1 -6 -1q-3 -1 -8 -1q-7 0 -9 1q-25 6 -46 27q-23 23 -26 51q-1 3 -1 12v13q12 86 87 189q34 47 75 80q1 1 9 7q3 2 11 6q1 1 3.5 2.5t3.5 2.5t5 2.5t6 2.5l10 5q21 8 39 8q6 0 20 -2
q25 -7 49 -25q6 -6 10 -9q2 -2 5.5 -6t4.5 -5q18 -23 22 -46q0 -2 0.5 -6.5t1.5 -6.5q1 -4 1 -16v-14q-1 -2 -1.5 -7t-0.5 -8q-7 -51 -44 -140l-2 -5l2 3l5 5l8 8q120 127 201 191q68 55 106 61h10q6 0 9 -1q16 -4 30 -17q14 -14 21 -29q5 -15 5 -29q0 -41 -35 -122
q-2 -5 -7.5 -18.5t-9.5 -21.5q-10 -21 -32 -67q-24 -47 -33 -70q-15 -31 -20 -45q-63 -141 -71 -230q-1 -7 -1 -25q0 -17 1 -23q3 -26 12 -44q3 -8 8 -13q4 -6 12 -12l2 -2q7 -4 12 -11q7 -11 7 -19q0 -6 -3 -7q-1 -1 -4 -1t-5 1q-10 3 -25 17z" />
    <glyph glyph-name="O" unicode="O" horiz-adv-x="494" 
d="M202 155q-9 -1 -26 -1q-42 0 -75 14q-4 2 -5 3h-2v-1l-1 -1q-1 -1 -1.5 -3.5t-0.5 -3.5q-6 -26 -9 -49q-1 -7 -1 -23t1 -22q4 -29 16 -46q12 -12 41 -16h7q1 -1 6 -1h11q10 0 13 1h7q19 3 37 9q88 31 168 132q93 123 115 253q2 18 3 25t1 25v15q-1 3 -1 11q-1 3 -1 10
q-7 48 -32 74q-19 20 -60 31v-108q0 -4 -3 -7q-4 -3 -8 -3t-7 3t-3 7v112q-12 2 -17 2v-60q0 -2 -1 -3q-2 -2 -4 -2q-1 0 -3 2t-2 3v61h-7q-50 0 -99 -21q-91 -40 -155 -134q-45 -67 -54 -135q-2 -14 -2 -23q0 -10 2 -20q0 -3 2 -11q0 -2 0.5 -5t1.5 -5q1 -4 2 -4q0 2 1 3
q0 2 2 4q20 54 49 99q69 104 141 124q10 2 17 3q6 1 17 1h5q3 0 4 -1q12 -6 20 -14q14 -17 14 -26q0 -5 -3 -6q-1 -1 -10 -1q-17 -2 -27 -3q-12 -3 -23 -9q-28 -15 -52 -39q-27 -26 -52 -63q-26 -38 -46 -85q-4 -10 -6 -14q-1 -2 -1 -5l-1 -2q3 0 6 -1q5 0 8 -1q4 -1 21 -1
h22q26 3 58 9q1 0 3.5 0.5t3.5 1.5q4 0 5 1h2h1q13 -3 26 -16q12 -13 12 -24q0 -5 -3 -7t-13 -3q-14 -4 -22 -5q-2 0 -5.5 -0.5t-5.5 -1.5q-2 0 -5 -0.5t-4 -0.5v-61q0 -3 -2 -5t-5 -2q-2 0 -4 2t-2 5v59zM261 -31q-35 -12 -69 -12h-10q-23 1 -47 10q-41 15 -70 53
q-2 3 -5.5 8t-4.5 7v-119q0 -2 -1 -3q-2 -2 -4 -2t-4 2t-2 3v143q-7 18 -10 41v46q3 26 9 51l2 9l-4 5q-7 7 -12 15q-3 3 -4 5q-25 37 -25 88q0 7 2 25q9 69 56 142q74 109 183 146q44 14 84 14q10 0 28 -2q21 -2 50 -11q66 -21 108 -76q34 -44 41 -101v-3l3 -15v-22
q0 -7 -1 -10v-16q-1 -3 -1.5 -8.5t-0.5 -8.5q-5 -35 -13 -63v-134q0 -2 -1 -3q-2 -2 -4 -2q-1 0 -3 2t-2 3v103q-24 -66 -62 -126q-52 -81 -116 -133q-37 -29 -80 -47v-162q0 -2 -1 -3q-2 -2 -4 -2q-1 0 -3 2t-2 3v158z" />
    <glyph glyph-name="P" unicode="P" horiz-adv-x="376" 
d="M619 672q-4 -1 -12 -5v-183q0 -4 -3 -7q-3 -4 -8 -4q-4 0 -7 4q-3 3 -3 7v172q-16 -8 -33 -18l-8 -5l-2 -9q-17 -88 -117 -305q-5 -9 -6 -11l-2 -6h1q1 0 1 -1h5q7 -2 16 -3q3 0 8.5 -0.5t8.5 -1.5h12q11 0 17 1h12h5q4 0 6 1q134 18 229 143q71 101 71 187q0 18 -3 35
q-1 6 -5 18q-2 2 -4 6.5t-3 6.5q-8 9 -28 12q-4 0 -5 1h-5h-10h-12h-8q-1 -1 -4 -1t-5 -1q-36 -6 -89 -28v-92q0 -2 -1 -3q-2 -2 -4 -2q-1 0 -3 2t-2 3v87zM258 332v-91q0 -2 -1 -3q-2 -2 -3 -2t-3 2t-2 3v86l-6 -3v-63q0 -3 -2 -5t-5 -2t-5 2t-2 5v57q-30 -13 -68 -20
q-18 -2 -27 -2q-11 0 -25 2q-58 13 -94 67q-7 8 -8 14q-4 8 -5 12q-2 10 -2 15q0 47 65 118q7 9 29 31q32 30 34 31q68 58 141 105q72 44 133 63q30 9 53 9q20 0 38 -8q23 -11 39 -33q0 -1 1 -2q0 -1 5 -8q1 -3 3 -7l2 -3l4 2q2 0 5 2t6 3q75 37 131 45q18 2 25 2
q33 0 61 -14q41 -22 66 -67q17 -36 17 -78q0 -20 -3 -41q-24 -125 -130 -222q-83 -71 -178 -84q-7 -1 -15 -1q-4 -1 -18 -1q-41 0 -70 7q-11 2 -23 6q-13 3 -19 6q-1 0 -1 -1q-1 0 -1 -1t-1 -2l-4 -8q-2 -4 -6 -14l-10 -20q-2 -5 -6.5 -15.5t-6.5 -13.5q-1 -2 -3 -6.5
t-3 -6.5v-56q0 -2 -2 -4t-4 -2q-1 0 -3 2t-2 4v32q-51 -109 -54 -141l-1 -3l2 -4v-1q1 -2 4 -5q1 -2 1 -6v-5l-2 -2v-1q-2 -2 -6 -2q-3 0 -4 1q-8 2 -15 7v-106q0 -2 -1 -3q-2 -2 -4 -2q-1 0 -3 2t-2 3v114q-4 4 -10 14q-8 11 -8 24q0 10 5 28q7 27 25 69q21 52 57 127
q6 14 9 19q4 7 4 9q-1 0 -1 1q-1 0 -1 1q-1 0 -2 1q-6 3 -9 6q-4 1 -7 6q-15 17 -15 26q0 3 1 4q2 3 7 3q4 0 6 -1q1 0 4 -1.5l5 -2.5l10 -5q4 -4 10 -6l6 -2l5 9q2 3 5.5 11.5t4.5 11.5q4 9 12 25q52 114 75 173q2 4 4 11.5t4 10.5q4 9 4 14l-2 -1l-3 -3q-2 -1 -4 -3l-2 -1
h-2h-1q-10 0 -20 10q-12 9 -17 20q-4 5 -4 10t3 6q3 4 14 11q4 3 12.5 8t12.5 8q13 9 24 15q2 1 4.5 3t3.5 3q4 1 4 3l1 1v1q1 1 1 5q1 7 1 19v7v2q-1 1 -1 2v1h-1q-1 0 -2 1h-6h-7q-2 -1 -5 -1q-91 -12 -234 -115q-44 -32 -88 -72q-4 -3 -12.5 -11t-12.5 -12
q-12 -12 -22 -24q-52 -60 -60 -98q-1 -3 -1 -8t1 -7q0 -2 3 -5q1 -4 5 -6q12 -9 35 -12h14q11 0 16 1q29 4 64 18l38 19l6 4h4q5 0 7 -1q7 -3 9 -5q5 -4 15 -14q5 -7 9 -16v-7l-2 -2q0 -1 -1 -1t-2 -1t-3.5 -2.5t-3.5 -2.5z" />
    <glyph glyph-name="Q" unicode="Q" horiz-adv-x="457" 
d="M418 -67v-101q0 -2 -1 -3q-2 -2 -4 -2q-1 0 -3 2t-2 3v106q-24 12 -50 35l-15 15l-18 18l-10 10l-2 3l-3 -2q-2 -2 -4 -3t-4 -3t-4 -3q-68 -45 -133 -45q-17 0 -33 3q-36 8 -66 30q-1 1 -5.5 5t-7.5 7q-10 10 -13 14l-8 12v-32q0 -4 -2 -6q-4 -2 -6 -2q-3 0 -5 2
q-3 2 -3 6v63q-8 24 -10 43v46q6 43 23 94l3 10l-1 1q0 1 -1 2l-3 3q-17 22 -24 48q-1 2 -1 7t-1 7q-1 4 -1 16q0 13 1 18q0 10 1 17q19 100 102 184q32 32 69 55q5 1 13 6q5 3 13 7q2 1 5.5 2.5t4.5 1.5q44 19 91 19q23 0 40 -4q74 -12 123 -62q64 -63 64 -162
q0 -11 -2 -33q-13 -122 -96 -247q-30 -45 -61 -76l-8 -9l4 -4q41 -45 79 -68q31 -19 58 -19q11 0 19 3q7 1 16 9q2 2 8 6q2 0 4 1l4 2h5q7 0 8 -3q2 -2 2 -5q0 -6 -7 -14q-4 -9 -23 -22q-29 -20 -58 -23h-4q-2 -1 -7 -1q-4 0 -5 1h-5q-17 1 -40 11zM340 603h-22
q-90 -7 -170 -86q-88 -91 -100 -193v-27h1q0 1 1 1q0 1 1 2l2 6q31 60 71 104q3 4 13 14q3 3 7.5 7t5.5 5q39 34 75 42h3q2 0 5 1t5 1h13h8q3 0 4 -1q11 -3 21 -13t13 -21q1 -2 1 -5q0 -4 -1 -5l-2 -2q-2 -1 -10 -1h-13q-2 0 -5.5 -0.5t-5.5 -1.5q-7 -1 -21 -7v-75
q0 -2 -1 -3q-2 -2 -3 -2t-3 2t-2 3v70l-6 -3v-47q0 -3 -2 -5t-5 -2t-5 2t-2 5v38q-9 -7 -29 -25q-35 -35 -68 -90l-11 -22l-1 -1q0 -2 -1 -2h-1v-1q2 0 5 1q6 0 9 1q6 0 8 1q57 10 137 54l10 5q2 1 5 1h3q11 -3 21 -12q9 -9 14 -20q2 -6 2 -7q0 -3 -1 -4q0 -1 -1 -2
q-2 -2 -4 -3q-1 0 -4 -2t-5 -3q-44 -25 -83 -39q-48 -19 -91 -19q-21 0 -38 6q-3 0 -4 1h-2v-1l-1 -1q-1 -1 -1.5 -3.5t-0.5 -3.5l-3 -9q-1 -3 -3 -7q-18 -57 -18 -102q0 -19 3 -35q1 -6 5 -18q4 -11 7 -14q10 -13 47 -18q4 -1 15 -1q8 0 12 1q7 0 9 1q60 8 115 49l6 4l-2 2
q0 2 -3 6q-2 2 -5 5.5t-4 4.5q-13 17 -15 20q-4 5 -9 10l-6 3q-5 4 -13 4q-6 0 -14 -3q-9 -2 -23 -12q-18 -14 -27 -22q-8 -8 -11 -10q-5 -3 -10 -5q-7 -4 -12 -4t-8 4q-1 1 -1 4q0 9 10 20q4 4 24 22q4 3 29 23q46 29 77 29q12 0 20 -4q3 -1 9 -5l11 -11q7 -9 17 -23
q4 -5 10 -11l1 -1q0 -2 1 -2q0 -1 1 -1v-1l4 4q6 6 9 10q6 6 8 9q82 96 120 215q12 37 17 83q1 7 1 26t-1 26q-6 53 -30 82q-27 32 -91 39q-1 0 -3 0.5t-3 0.5v-133q0 -3 -1 -4q-2 -2 -4 -2t-4 2t-2 4v133z" />
    <glyph glyph-name="R" unicode="R" horiz-adv-x="684" 
d="M474 348q-1 -2 -49 -109l-2 -2q-1 -2 -2.5 -5.5t-1.5 -4.5q-1 -1 -1 -3h-1v-1q0 -1 1 -1q2 0 3 -1h3q10 -3 32 -5h5h12q11 0 16 1h12q55 5 104 30q70 36 126 104q72 91 79 185v13q0 36 -13 61q-2 3 -5 6t-5 4q-16 8 -40 8q-57 0 -137 -40q-19 -8 -31 -15q-24 -13 -28 -16
l-6 -4l-2 -9q-10 -51 -53 -158v-99q0 -4 -2 -6q-4 -2 -6 -2q-3 0 -5 2q-3 1 -3 6v61zM785 -291v-99q0 -4 -3 -7q-5 -3 -8 -3q-4 0 -7 3t-3 7v104q-3 1 -8.5 3t-8.5 3v-55q0 -2 -1 -3q-2 -2 -4 -2q-1 0 -3 2t-2 3v60q-21 10 -35 22q-22 17 -42 39q-52 59 -93 155
q-43 98 -67 216l-2 10q0 1 -2 1h-6q-44 3 -79 16l-10 3q-1 0 -7 -14q-7 -12 -15 -32l-8.5 -17t-7.5 -16q-7 -16 -9 -21q-55 -118 -60 -152l-1 -4l2 -3q5 -12 5 -16v-4q-2 -2 -5 -2h-2q-8 0 -16 5v-103q0 -2 -1 -3t-4 -1q-2 0 -3 1q-2 2 -2 3v110l-2 2q-14 14 -18 29
q-2 6 -2 11q0 24 22 74q13 35 68 154l8 16q1 4 3 6v1l-5 3q-16 11 -22 19q-8 11 -8 20v3l1 1h1q2 2 5 2q5 0 13 -4q5 -3 12 -6q8 -4 11 -5q4 -3 6 -3l6 13q78 164 104 241q2 6 3 8v2q1 0 1 1l-5 -3q-4 -2 -5 -3l-2 -1h-2q-8 0 -16 7q-9 5 -17 15q-3 3 -5 8q-2 6 -2 7
q-1 1 -1 3q0 3 2 5q0 1 11 9q3 2 12 7.5t14 9.5q14 10 27 18l6 4q1 1 4 3q1 0 1 1h1q0 3 1 6t1 11v12v9q-2 0 -3 1h-6q-8 0 -12 -1q-66 -9 -165 -69v-87q0 -1 -1 -2q-2 -2 -4 -2q-1 0 -3 2l-2 2v80l-6 -3v-57q0 -2 -2 -4t-5 -2q-2 0 -4 2t-2 4v48q-1 0 -8 -5
q-166 -114 -217 -209q-11 -24 -11 -38q0 -6 1 -8q0 -2 1 -3q0 -1 1 -2l2 -2l4 -4q13 -8 34 -11h15q11 0 16 1q48 7 103 38q1 1 2 1t2 1l2 2h3q7 0 17 -7q9 -7 16 -16q7 -10 7 -18q0 -2 -1 -3l-1 -1q0 -2 -1 -2q-3 -2 -17 -9q-4 -3 -21 -11q-48 -21 -88 -24v-138q0 -3 -1 -4
q-2 -2 -4 -2t-4 2t-2 4v138q-42 2 -74 23q-8 5 -12 9q-8 6 -12 11q-24 24 -32 46q-3 6 -3 11q-1 3 -1 11v9q0 2 2 6q4 22 21 49q35 55 111 120q68 59 146 106q75 45 133 60q23 6 41 6q30 0 51 -15q19 -14 29 -30q1 -1 3 -5l3 -6l2 -4v-1h1l1 1l2 1q6 2 10 4q93 48 157 48
q9 0 23 -2q49 -7 88 -52q30 -39 34 -92v-10v-14q-1 -5 -1 -14q-12 -100 -87 -191q-31 -36 -58 -58q-52 -40 -103 -58q-31 -9 -54 -14h-1v-2q1 -1 1 -3q2 -8 3 -13q0 -3 2 -8t2 -7q1 -5 3 -11q49 -184 128 -284q12 -14 21 -23q13 -14 22 -21q36 -31 78 -42q18 -6 41 -6
q36 0 75 17q1 0 3 1t3 1t2.5 0.5t2.5 1.5q1 0 1 1h4l2 1l3 -2q0 -1 1 -1v-3q-2 -6 -9 -15q-6 -8 -18 -17q-10 -6 -24 -11q-11 -5 -31 -11q-30 -8 -55 -8q-9 0 -13 1q-5 0 -17 2z" />
    <glyph glyph-name="S" unicode="S" horiz-adv-x="655" 
d="M70 155v-32q0 -2 -1 -3q-2 -2 -4 -2q-1 0 -3 2t-2 3v16q0 -1 -0.5 -1t-0.5 -1q-9 -17 -11 -47q-1 -3 -1 -7v-4q-1 -3 -7 -3q-4 0 -11 3q-6 3 -16 13q-7 7 -12 17v3q-1 1 -1 3v6q0 38 19 69q28 42 95 51q4 0 6 1q8 0 13 1h17q38 0 73 -7q73 -12 135 -37q14 -5 20 -9
q8 -6 14 -13l7 -8l2 -10q1 -3 1 -7q1 -2 1 -4h-2q-1 -1 -2 -1q-1 -1 -4 -1q-2 0 -8 2t-8 2q-6 0 -12 -3q-31 -17 -48 -81q-7 -24 -7 -53v-10q0 -16 2 -28v-1h1q0 -1 1 -1q3 0 6 1h1q36 3 78 22q47 21 81 47q1 1 7.5 6t9.5 8q5 4 15 14q16 16 28 35q13 22 13 40q0 12 -4 19
q-3 4 -14 17q-8 8 -22 20q-11 8 -29 20q-20 11 -44 21q-13 5 -15 7q-1 0 -2.5 1l-3 2t-2.5 1q-3 1 -7 3l-6 3q-48 23 -93 62q-12 10 -27 27q-19 19 -24 26q-16 19 -19 39q-2 10 -2 15q0 40 47 93q13 13 21 22t24 23q75 65 171 117q94 50 170 67q23 5 38 5q14 0 29 -5
q19 -6 34 -21q15 -17 21 -35q1 -5 1 -16t-1 -16q-3 -12 -9 -30q-13 -34 -14 -36q-52 -115 -142 -168q-40 -23 -75 -23h-5v-74q0 -2 -1 -3q-2 -2 -4 -2l-2 2q-2 2 -2 3v75q-4 0 -6 1v-56q0 -3 -2 -5t-5 -2t-5 2t-2 5v60q-11 5 -19 10q-33 24 -33 40q0 8 7 8q9 0 23 -11
q7 -5 21 -5q5 0 21 2q30 6 65 30q84 60 128 173l9 24l2.5 10t1.5 8q0 1 1 2v2v1l1 1h-7q-74 0 -237 -92q-74 -43 -129 -93v-102q0 -2 -1 -3q-2 -2 -4 -2q-1 0 -3 2t-2 3v93q-5 -4 -17 -16q-14 -14 -18 -19q-33 -36 -41 -68v-5q-1 -1 -1 -3v-6v-4q0 -6 1 -7q0 -3 3 -6l9 -9
q17 -20 38 -35q15 -12 35 -23q26 -15 49 -25q29 -13 56 -27q23 -14 40 -28q26 -22 38 -34q17 -19 28 -34q16 -25 16 -50q0 -40 -39 -82q-38 -40 -93 -68l-14 -8v-38q0 -2 -1 -3q-2 -2 -4 -2q-1 0 -3 2t-2 3v34l-12 -6v-89q0 -4 -3 -7t-7 -3t-7 3q-4 3 -4 7v81
q-26 -8 -48 -12h-26q-26 3 -46 22q-19 19 -26 48q-5 22 -5 44q0 53 22 104q3 8 8 16q6 10 9 13q0 1 1 1l1 2l-3 2q-3 1 -11 3q-39 9 -74 12q-20 2 -32 2q-15 0 -20 -1q-44 -3 -72 -20v-134q0 -2 -1 -3q-2 -2 -4 -2t-4 2t-2 3v126q-6 -5 -11 -11z" />
    <glyph glyph-name="T" unicode="T" horiz-adv-x="260" 
d="M328 544q-1 0 -3.5 -1t-3.5 -1q-15 -4 -43 -12q-26 -8 -45 -12l-22 -7l-1 -1h3q66 -8 97 -36l17 -17l2 -4q1 0 4 5l2 2q39 54 57 84q1 3 5 9q5 7 5 8q1 0 1 2q1 0 1 1l-14 -3q-14 -5 -33 -9l-19 -5v-34q0 -2 -1 -3q-2 -2 -4 -2q-1 0 -3 2t-2 3v31zM140 -14v-53
q0 -2 -1 -3q-2 -2 -4 -2q-1 0 -3 2t-2 3v67q-10 14 -15 34q-2 10 -2 13q-1 3 -1 14t1 16q0 9 1 15q1 0 1 1q15 79 117 224l9 14l-2 2q-9 12 -9 20l1 2v1l2 2q2 2 4 3l14 14q10 10 13 14q6 8 10 13q4 8 9 12q3 5 9 17q3 7 3 14v5l-4 1q-40 14 -115 14h-14q-16 0 -44 -2v-128
q0 -3 -1 -4q-2 -2 -4 -2t-4 2t-2 4v128q-42 -4 -63 -7h-7l-1 1q-1 1 -1 2l-4 4q-8 10 -13 16q-7 9 -13 18q-3 1 -3 4l-1 1l-1 1q12 4 26 9q3 1 19 6t26 8q9 2 43 14q405 125 579 125q15 0 22 -1q75 -1 112 -40q17 -16 24 -33q1 -2 2 -6t2 -6q1 -5 1 -11v-3q-3 -3 -7 -3
q-8 0 -19 9q-10 7 -18 20l-3 6q-1 1 -1 6v2q-1 0 -1 1h-2q-14 5 -34 8v-77q0 -2 -1 -3q-2 -2 -4 -2q-1 0 -3 2t-2 3v78q-1 0 -3 0.5t-3 0.5v-59q0 -3 -2 -5t-4 -2q-3 0 -5 2t-2 5v60h-15q-20 0 -28 -1q-84 -4 -234 -37l-6 -2h1q0 -2 1 -3q0 -2 1 -3q0 -4 1 -5v-4
q0 -25 -37 -80q-2 -3 -10.5 -15t-13.5 -19l-42 -56l-8 -12q-16 -22 -55 -76q-2 -3 -17 -24q-17 -24 -44 -66v-70q0 -3 -2 -5q-3 -3 -6 -3q-4 0 -6 3q-2 2 -2 5v43q-57 -96 -60 -151l-1 -7q0 -17 6 -29l4 -4q2 -2 8 -5q11 -4 17 -11q15 -16 15 -27q0 -3 -1 -4q-1 -4 -6 -4
q-3 0 -4 1t-2 1t-1.5 0.5t-1.5 0.5q-2 1 -8 3q-26 14 -45 35z" />
    <glyph glyph-name="U" unicode="U" horiz-adv-x="715" 
d="M535 52v-126q0 -2 -1 -3q-2 -2 -4 -2q-1 0 -3 2t-2 3v118q-85 -67 -138 -76q-3 -1 -11 -1q-7 0 -17 2q-12 3 -27 11q-1 0 -2 1l-2 1q-1 0 -2.5 0.5t-2.5 1.5q-18 10 -31 28q-7 10 -7 23q0 14 7 32q8 19 24 54q9 19 51 101q29 56 45 87q3 6 26 55q56 118 62 176q1 2 1 8v9
v8q0 3 -1 4q0 1 -3 1h-8h-7q-28 -2 -69 -18q-4 -2 -12.5 -5.5t-12.5 -5.5v-113q0 -4 -3 -7t-7 -3q-5 0 -8 3t-3 7v103q-3 -2 -8.5 -5t-8.5 -4v-40q0 -2 -1 -3t-4 -1q-2 0 -3 1q-2 2 -2 3v34q-81 -45 -168 -119q-11 -9 -34 -32q-19 -18 -31 -31q-59 -68 -59 -104v-2
q0 -1 1 -2q0 -4 1 -5q0 -1 2 -5q16 -16 51 -16q9 0 29 2q48 9 93 37q5 1 6 3h4h2q14 -5 25 -17q12 -13 12 -22q0 -3 -1 -4q0 -1 -1 -2l-3 -3l-8 -4q0 -1 -1 -1q-11 -6 -33 -16v-162q0 -3 -1 -4t-4 -1q-2 0 -3 1q-2 2 -2 4v158q-5 -3 -11 -4v-59q0 -3 -2 -5q-2 -3 -6 -3t-5 3
q-3 1 -3 5v54q-22 -7 -38 -8q-5 -1 -15 -1t-14 1q-39 4 -74 30l-12 12l-13 13q-24 29 -24 55t19 57q29 47 95 109q67 61 146 111q127 79 195 79q38 0 67 -29q24 -23 26 -56q1 -4 1 -13q0 -8 -2 -20q-8 -79 -113 -278q-2 -4 -6.5 -12.5t-6.5 -12.5q-5 -11 -15 -29
q-38 -74 -47 -95q-15 -32 -22 -52l-1 -5l2 -1q4 0 7 1q5 0 8 1q72 13 215 146q51 48 100 100q7 7 9 10q3 3 6.5 7t4.5 5l8 12q9 14 31 44q4 5 19.5 27t26.5 37q27 35 48 65q13 20 24 36q31 46 35 64q1 2 1 5t-1 5v4q0 8 7 8q8 0 18 -7q7 -5 17 -19q8 -11 8 -22
q0 -13 -10 -32q-6 -12 -29 -50q-13 -19 -68 -94q-80 -108 -87 -122q-1 -1 -1 -2l-2 -2q-5 -5 -11 -16v-45q0 -4 -2 -6q-2 -3 -6 -3t-5 3q-3 1 -3 6v20q-2 -4 -3 -5q-18 -29 -19 -30q-12 -22 -18 -34q-10 -19 -16 -32q-19 -42 -23 -72q-1 -5 -1 -17q0 -11 1 -15q2 -8 3 -11
q1 -1 1 -2l4 -4q2 -3 7 -4q10 -5 18 -12q10 -10 15 -22q1 -2 1 -5t-1 -4q-1 -4 -6 -4q-2 0 -8 2q-1 1 -5 3q-2 1 -4.5 2t-3.5 1t-2.5 1t-2.5 2t-2 1q-39 23 -56 65q-1 5 -3 12l-3 12q-1 4 -1 14t1 14q1 5 3 17t3 17q1 1 1 2v2l-4 -4q-32 -28 -47 -39z" />
    <glyph glyph-name="V" unicode="V" horiz-adv-x="548" 
d="M388 570v-145q0 -2 -1 -3q-2 -2 -4 -2q-1 0 -3 2q-1 1 -1 3v141q-3 -2 -8 -4t-7 -4q-14 -6 -19 -9q-96 -54 -180 -129q-4 -4 -14 -13.5t-15 -14.5q-16 -15 -27 -27q-53 -59 -61 -100v-6q0 -6 2 -12q15 -19 52 -19q26 0 53 9q36 11 66 28q6 4 7 5t3 1h2q8 0 18 -7
q9 -7 16 -16q7 -8 7 -17q0 -3 -1 -4l-4 -4q-2 -1 -11 -6h-1q-23 -13 -45 -21v-116q0 -4 -3 -7t-7 -3t-7 3t-3 7v109q-12 -4 -18 -5v-50q0 -2 -1 -3q-2 -2 -4 -2q-1 0 -3 2t-2 3v48q-18 -2 -28 -2q-50 0 -89 33q-17 15 -27 29q-13 16 -17 28q-3 10 -3 22v7q9 59 107 153
q135 121 267 176q47 19 81 19q17 0 32 -5q36 -16 52 -49q7 -13 9 -32l1 -8v-11q0 -2 -0.5 -6t-1.5 -6q-6 -66 -64 -191q-20 -45 -26 -59q-30 -63 -43 -89q-32 -66 -35 -73q-1 0 -1 -1t-1 -2v-1q1 0 4 3l7 7q20 20 31 30q17 16 43 40q27 24 75 69q55 50 88 82q23 21 63 61
q128 126 144 178q3 11 3 17t1 7l1 1q1 1 2 1q1 1 4 1q9 0 23 -12q13 -12 16 -25q1 -2 1 -8t-1 -9q-3 -29 -43 -79v-96q0 -2 -1 -3q-2 -2 -4 -2q-1 0 -3 2t-2 3v84q-2 -3 -6 -7v-57q0 -3 -2 -5t-5 -2q-2 0 -4 2t-2 5v42q-15 -18 -34 -37l-9 -9q-3 -3 -10.5 -11t-12.5 -13
q-28 -29 -71 -69q-5 -5 -105 -98q-70 -65 -77 -72q-20 -18 -26 -24v-126q0 -2 -1 -3q-2 -2 -4 -2q-1 0 -3 2t-2 3v116q-4 -3 -10 -9q-12 -11 -35 -34q-57 -56 -68 -79l-2 -4l1 -3q3 -4 3 -9q0 -3 -2 -5q-2 -3 -5 -3l-5 1l-2 1q-2 0 -3 -1h-2q-6 0 -19 7q-1 1 -5 4.5t-6 5.5
q-2 1 -3.5 3t-3.5 4l-3 3q-1 2 -2 5t-2 4q-1 3 -3 7q-1 3 -1 12v9q4 27 40 106q2 3 5 10t5 10q8 18 11 24q10 21 25 53q5 10 11.5 23.5t10.5 21.5t6 13q5 11 9 18q2 3 4.5 9t3.5 8q83 176 91 250q1 5 1 16v11q0 4 -1 5q0 1 -3 1h-7q-34 0 -94 -26q-4 -2 -7 -3z" />
    <glyph glyph-name="W" unicode="W" horiz-adv-x="804" 
d="M405 100v-129q0 -2 -1 -3q-2 -2 -4 -2q-1 0 -3 2q-1 1 -1 3v119q-20 -25 -28 -33q-14 -16 -15 -17q-3 -4 -9 -10l-3 -3q-79 -90 -107 -94q-6 -2 -9 -2q-4 0 -6 1q-13 5 -24 16q-12 11 -17 23q-1 3 -1 11q0 11 5 29q3 7 11 25q12 27 16 35q4 7 11 21t11 21q17 32 37 66
q1 2 10.5 19.5t15.5 28.5q14 26 21 38q38 69 51 94q12 22 34 66q70 138 78 200q1 2 1 7v8v7q0 3 -1 3q0 1 -4 2h-11q-10 0 -15 -1q-9 -1 -34 -7v-46q0 -2 -1 -3q-2 -2 -4 -2q-1 0 -3 2t-2 3v43q-77 -23 -175 -87q-81 -55 -129 -106q-49 -52 -52 -89q0 -7 1 -8t1 -3t1 -3
q7 -11 24 -15q12 -4 29 -4q12 0 26 3q49 9 96 37l4 2q1 1 2 1h2q11 0 26 -15q14 -14 14 -25q0 -4 -1 -5q-3 -3 -6 -4q-30 -18 -66 -30q-20 -7 -42 -10v-138q0 -2 -1 -3q-2 -2 -4 -2t-4 2t-2 3v137h-11q-57 0 -101 42q-25 26 -32 48q0 1 -1 3.5t-1 4.5q-1 1 -1.5 3.5
t-0.5 3.5v4q0 47 64 112q63 63 146 114q84 53 157 75q38 11 63 11q44 0 73 -33q22 -22 23 -49q1 -3 1 -14q0 -10 -1 -15q-11 -77 -107 -259q-12 -24 -18 -35q-8 -13 -24 -44q-22 -38 -41 -72q-8 -15 -19.5 -36t-14.5 -28q-4 -7 -19 -34l-6 -10q-1 -5 -6 -12q-1 -2 -4 -7.5
t-5 -8.5q-1 -2 -2.5 -4.5t-2.5 -5.5t-2 -4l-2 -4q0 -1 -1 -1v-1q1 0 6 5q6 6 10 11q2 2 5.5 6t4.5 5q3 3 7.5 8t6.5 7q8 10 16 18q14 15 42 48q8 9 18.5 21t13.5 15l21 24q107 117 159 132q8 2 11 3h10q23 0 42 -17q7 -7 12 -15q4 -7 4 -13v-1q-1 -6 -7 -6q-2 0 -8 2t-8 2
h-3q-1 -1 -4 -11q-6 -21 -7 -24q-39 -141 -47 -233v-43l4 5q130 187 278 356q79 89 144 148q79 73 125 82q3 0 5.5 0.5t4.5 1t3.5 0.5h2.5q10 -3 21 -12q9 -9 14 -21q1 -1 1 -2q1 -1 1 -2v-3q0 -3 -2 -5q-1 -1 -7 -3q-13 -2 -28 -9v-120q0 -4 -3 -7t-7 -3t-7 3q-4 3 -4 7
v108q-5 -2 -11 -7v-54q0 -2 -1 -3q-2 -2 -3 -2t-3 2t-2 3v48q-88 -63 -230 -229q-126 -149 -251 -325q-1 -1 -2.5 -3.5t-2.5 -3.5q-1 -4 -3 -4q-1 -1 -3 -1q-1 -1 -8 -1h-5v-108q0 -2 -1 -3t-3 -1t-3 1q-2 2 -2 3v109l-12 6v-64q0 -3 -2 -5q-3 -3 -6 -3t-5 3q-3 1 -3 5v76
q-13 12 -21 27q-11 24 -11 62q0 21 1 34q4 60 31 169q5 14 5 16v4l1 1v1h-1q0 -1 -1 -1l-2 -2q-3 -2 -8 -7q-3 -2 -7 -6q-5 -5 -18.5 -18t-20.5 -19q-12 -12 -38 -40q-7 -7 -23 -25t-23 -26z" />
    <glyph glyph-name="X" unicode="X" horiz-adv-x="762" 
d="M343 506v-52q0 -2 -1 -3q-2 -2 -4 -2q-1 0 -3 2t-2 3v46q-2 -1 -6 -3.5t-6 -3.5v-253q0 -1 -1 -2t-4 -1q-2 0 -3 1l-2 2v247q-48 -29 -104 -73q-42 -33 -78 -69q-58 -58 -76 -102q-6 -17 -6 -26q0 -5 1 -7q2 -4 5 -7q4 -6 7 -7q16 -9 42 -9q8 0 26 2q49 9 95 36q4 2 5 3
t3 1h2q11 0 25 -14q12 -9 14 -22q1 -1 1 -4t-1 -4v-1q-1 0 -2 -1q-4 -3 -5 -4q-19 -11 -42 -21v-114q0 -4 -3 -7t-8 -3q-4 0 -7 3t-3 7v106h-1q-9 -4 -16 -5v-47q0 -2 -1 -3q-2 -2 -4 -2q-1 0 -3 2t-2 3v45q-16 -4 -36 -4h-7q-24 0 -45 8q-45 19 -76 64q-8 14 -11 28v22
q8 45 69 111q2 2 8.5 9t11.5 12q4 4 11 10.5t9 8.5q107 96 222 156q79 38 125 38q7 0 17 -2q39 -9 63 -47q19 -26 19 -105q0 -12 -2 -48v-10q-1 -4 -1 -8l-1 -6l2 1q0 1 4 5q1 1 3 3.5t4 4.5q4 6 20 23q10 12 32 36q25 30 36 41q16 18 19 21q5 5 13 15q54 63 54 73q0 2 2 4
t5 2q10 0 26 -14q15 -15 15 -28l-1 -4q-2 -9 -29 -43q-18 -23 -30 -37q-3 -4 -12 -13v-39q0 -2 -1 -3q-2 -2 -3 -2t-3 2t-2 3v28q-1 -1 -42 -47q-57 -65 -72 -83q-46 -50 -47 -53v-4q-1 -3 -1.5 -12.5t-0.5 -13.5q-1 -6 -1.5 -18t-0.5 -18v-73q4 -76 23 -107q1 -2 4 -5
q2 -2 4 -3q9 -4 26 -4q34 0 83 23h1l8 4q2 1 5 1q2 0 3 -1q16 -5 25 -17q11 -14 11 -23q0 -3 -1 -4l-1 -1l-2 -2q-1 -1 -2 -1t-1.5 -0.5t-1.5 -0.5q-50 -26 -87 -27v-108q0 -2 -1 -3q-2 -2 -4 -2q-1 0 -3 2t-2 3v108q-9 0 -14 1v-51q0 -3 -2 -5t-5 -2q-2 0 -4 2t-2 5v55
q-13 4 -30 14q-38 26 -58 74q-19 46 -21 142v9l-11 -13q-48 -59 -94 -122q-100 -139 -100 -203q0 -8 1 -11l2 -4t1 -4l3 -6q1 -3 1 -6q0 -7 -7 -7q-4 0 -7 1q-15 6 -29 24q-13 19 -13 46q0 19 8 46q22 66 102 176q48 67 139 175l9 11v2q2 3 3 21t3 39q1 13 1 31q3 48 3 80
q0 45 -6 66v2h-1h-3h-8q-13 0 -31 -3q-53 -14 -114 -48z" />
    <glyph glyph-name="Y" unicode="Y" horiz-adv-x="641" 
d="M388 -39q-6 -3 -7 -4v-51q0 -2 -1 -3q-2 -2 -4 -2q-1 0 -3 2t-2 3v47q-45 -24 -84 -56q-23 -19 -51 -49q-50 -54 -78 -115q-18 -41 -22 -69v-30l4 -12v-2l2 -2l2 -2l1 -1q1 -1 3.5 -1.5t3.5 -0.5q1 -1 3 -1t3 -1q3 0 6 1h7q4 0 5 1q45 8 97 72q69 80 160 254l22 42
q-3 0 -6 -1q-1 0 -5 -1t-5 -1q-2 -1 -5 -1q-11 -3 -25 -8v-37q0 -2 -3 -3q-2 -1 -7 -1q-6 0 -8 1q-3 1 -3 3v29zM111 -388q-18 23 -23 52v36q9 58 56 130q70 103 173 162q71 40 138 40h26l14 28q13 28 24 48q10 21 10 23l-1 -1q-2 0 -2 -1q-2 -2 -28 -18q-16 -9 -35 -18
q-73 -37 -114 -37q-8 0 -18 2q-7 1 -17 10q-9 7 -16 16q-9 14 -9 28q0 16 7 34q2 4 3 5q9 23 28 60q5 11 14 28l16 32q8 16 25 52q12 26 17 38q21 49 27 84q3 9 3 15v15v14q0 3 -2 9v2l-1 1h-2q-10 2 -20 2h-9q-19 -1 -46 -11v-111q0 -2 -1 -3q-2 -2 -4 -2q-1 0 -3 2t-2 3
v108q-30 -12 -49 -22q-81 -41 -153 -105q-2 -2 -9 -8.5t-11 -10.5q-10 -9 -19 -20q-32 -37 -44 -66q-6 -15 -6 -27q0 -5 2 -11q1 -3 6 -8q8 -8 22 -11q12 -3 27 -3q53 0 120 39q5 2 6 3t4 1q2 0 3 -1q11 -2 22 -14q13 -11 14 -21q1 -2 1 -5q0 -2 -1 -3q0 -1 -1 -2
q-3 -3 -6 -4q-17 -10 -20 -11v-111q0 -4 -3 -7t-7 -3q-5 0 -8 3t-3 7v101q-5 -2 -17 -6v-41q0 -2 -1 -3q-2 -2 -4 -2q-1 0 -3 2t-2 3v37q-12 -4 -19 -5q-25 -5 -43 -5q-51 0 -92 35q-9 7 -20 22q-13 16 -17 25q-8 16 -8 32q0 11 3 23q10 37 54 85l19 19q8 9 20 19
q98 85 201 126q30 10 58 15q5 1 16 1h14q34 -4 59 -29q23 -21 30 -49q3 -7 3 -13v-17v-13q0 -6 -1 -9q-8 -57 -50 -144q-21 -44 -41 -83q-26 -49 -33 -67q-8 -18 -8 -19h2q1 1 3 1q6 2 11 3q2 1 6 2.5t5 1.5q54 20 114 59q76 51 114 104q3 3 5 6q2 5 6 12q4 11 10 21
q6 12 15.5 30.5t12.5 25.5q12 23 21 38q55 100 82 106q2 1 5 1q4 0 6 -1q12 -5 21 -14q9 -11 12 -20q1 -2 1 -6q0 -3 -1 -4v-1q-1 -1 -2 -1l-4 -2q-6 -3 -8 -5q-1 -2 -5 -5t-5 -4l-2 -2v-45q0 -1 -1 -1q-1 -1 -4 -1q-2 0 -3 1q-2 0 -2 1v32q-25 -33 -63 -105q-3 -7 -12 -25
q-6 -10 -10 -20q-1 -3 -2.5 -6l-3 -6t-2.5 -4q-2 -4 -3 -5v-1l-1 -1v-1l-1 -1l-2 -6q-3 -5 -5 -10q0 -1 -2 -4t-3 -5l-10 -20q-1 -2 -8 -16.5t-12 -24.5q-2 -4 -6 -13t-7 -14q-9 -19 -23.5 -49t-18.5 -39l-24 -48h1q1 -1 2 -1t2 -1q68 -29 125 -104q37 -49 66 -122
q4 -11 6 -15q1 -3 1 -7q0 -3 -1 -4q0 -2 -2 -2q-1 -1 -5 -1h-3q-3 0 -4 1q-8 3 -16 11q-9 8 -14 17v2l-2 4l-3 6q-13 34 -32 71v-126q0 -2 -1 -3q-2 -2 -4 -2t-4 2t-2 3v144q-12 18 -18 25q-30 39 -72 56q-10 4 -17 6q-16 5 -18 5h-2l-6 -10q-29 -58 -60 -117
q-145 -267 -239 -289h-3q-1 0 -2 -1l-2 -1h-24q-28 4 -56 26l-10 10v-131q0 -2 -1 -3q-2 -2 -4 -2q-1 0 -3 2t-2 3v143z" />
    <glyph glyph-name="Z" unicode="Z" horiz-adv-x="622" 
d="M521 1v-87q0 -2 -1 -3q-2 -2 -4 -2q-1 0 -3 2t-2 3v89q-1 0 -3 0.5t-3 0.5v-70q0 -3 -2 -5t-5 -2q-2 0 -4 2t-2 5v72q-14 2 -23 2q-8 1 -27 1q-15 0 -45 -2q-140 -10 -333 -68q-1 0 -4 -1q-2 0 -3 -1q-2 -1 -4 -1l-2 -1q-1 -1 -1 -2l-1 -1v-126q0 -2 -1 -3q-2 -2 -4 -2
q-1 0 -3 2t-2 3v125q-9 1 -24 16t-15 25l1 3v2q1 0 1 1q1 0 1 2v3q11 106 242 298q125 104 283 210q2 1 5 4q5 3 5 4h-5q-6 0 -9 -1q-66 -6 -114 -18v-47q0 -1 -1 -1q-1 -1 -3 -1q-1 0 -2 1q-2 0 -2 1v45q-48 -14 -75 -32q-34 -22 -39 -50q-2 -6 -2 -10t2 -10v-4q1 -1 1 -2
q0 -7 -8 -7q-4 0 -10 3q-7 3 -15 11q-12 10 -15 23q-3 10 -3 19q0 16 8 30q29 59 160 85q79 16 174 17h11h6h3q1 -1 2 -1q10 -3 20 -13q9 -7 12 -15l1 -1q1 -1 1 -2t1 -1l1 -2q0 -2 2 -5t2 -4q2 -6 2 -8v-2q0 -1 -1 -1v-2q-2 -2 -4 -3l-12 -8q-134 -88 -248 -175q-1 0 -2 -1
l-2 -2v-130q0 -2 -1 -3q-2 -2 -5 -2q-1 0 -3 2t-2 3v121q-213 -163 -284 -277q-5 -7 -5 -8q-4 -6 -5 -8q-1 -1 -1 -3q-1 0 -1 -1h1l1 1h3q10 3 60 16q11 2 31.5 7t30.5 7q97 21 185 26q8 1 30 1t29 -1q10 0 15 -1q3 -1 8 -1t7 -1h3q67 -11 104 -48q32 -31 37 -72v-8v-10
q-1 -3 -1 -7q-2 -3 -8 -3h-3q-4 2 -7 4q-1 0 -2.5 1t-2.5 2t-2 1q-13 10 -21 26q-1 1 -1 2v4v8q0 13 -1 18q-2 8 -4 11q-1 2 -4 5q-1 0 -4 2t-5 3q-10 6 -26 9z" />
    <glyph glyph-name="bracketleft" unicode="[" horiz-adv-x="396" 
d="M342 523v-85q0 -2 -1 -3q-2 -2 -4 -2q-1 0 -3 2t-2 3v85h-6v-65q0 -3 -2 -5t-5 -2q-2 0 -4 2t-2 5v65h-7h-6q0 -1 -2 -1t-2 -1h-1l-2 -2q-1 -1 -1 -2t-0.5 -1.5t-0.5 -1.5l-3 -6q-35 -73 -101 -226q-10 -22 -25.5 -59t-21.5 -51v-76q0 -3 -1 -4q-2 -2 -5 -2q-1 0 -3 2
t-2 4v50q-11 -25 -55 -133l-6 -16q-3 -7 -7 -17q-1 -2 -2 -6t-2 -5q-2 -6 -3 -8l-2 -4h60q1 1 4 1q2 0 3 1t3 1q6 0 16 -7q2 -1 7 -6q4 -4 6 -8q5 -8 5 -14q0 -5 -3 -6q-14 -2 -41 -2h-24q-15 0 -22 1v-125q0 -2 -1 -3t-4 -1q-2 0 -3 1q-2 2 -2 3v125q-10 2 -18 3
q-2 0 -5 0.5t-4 1.5q-6 2 -9 5q-5 5 -9 8t-9 8l-2 2l2 5q17 45 47 118q36 90 81 198q110 265 126 288q0 1 1 1l1 2q0 1 1 1q2 2 12 4q6 0 11 1h16h14h6q3 -1 9.5 -1.5t9.5 -0.5t9 -0.5t9 -1.5q5 -1 10 -1q7 -1 18 -10q9 -9 12 -19q1 -2 1 -5q0 -4 -4 -5h-1q-1 -1 -3 -1
q-4 0 -8 1q-10 0 -18 1q-6 0 -9 1q-8 0 -11 1z" />
    <glyph glyph-name="backslash" unicode="\" horiz-adv-x="312" 
d="M174 149v-116q0 -2 -1 -3q-2 -2 -4 -2q-1 0 -3 2t-2 3v130q0 2 2 4q-8 17 -55 126q-2 4 -20 48q-5 11 -16.5 37.5t-17.5 41.5v-50q0 -2 -1 -3q-2 -2 -4 -2q-1 0 -3 2q-1 1 -1 3v72l-9 21v-65q0 -5 -3 -8t-7 -3t-7 3t-3 8v113q-1 1 -1 2.5t-1 2.5q0 2 -1.5 5.5t-2.5 4.5
q-1 3 -3 5q-1 1 -1 2l-8 8v2q-1 0 -1 1v2q0 6 4 13q5 6 10 9q1 1 5 1q1 0 7 -2q7 -4 19 -12q9 -7 12 -12t36 -88q38 -95 43 -107q20 -49 54.5 -133.5t48.5 -119.5q49 -121 53 -132q2 -5 3 -6q1 -3 2 -3t3 -3q0 -1 1.5 -3t2.5 -4q8 -18 8 -28q0 -5 -1 -6q-1 -3 -6 -3
q-2 0 -3 1h-1l-1 1v-50q0 -2 -1 -3q-2 -2 -3 -2t-3 2t-2 3v60q-31 40 -117 230z" />
    <glyph glyph-name="bracketright" unicode="]" horiz-adv-x="396" 
d="M291 523v-80q0 -2 -1 -3t-3 -1t-3 1q-2 2 -2 3v80l-2 -1h-2l-2 -1v-58q0 -3 -2 -5t-5 -2t-5 2t-2 5v62q-6 4 -9 7q-13 13 -13 23q0 3 2 5q1 4 53 4h13q10 -1 27 -1q4 -1 11.5 -2t10.5 -1q1 0 4.5 -0.5t4.5 -1.5q1 0 2.5 -0.5t2.5 -1.5q5 -3 12 -9q5 -4 11 -10l2 -3v-2
q-2 -5 -6 -16t-12.5 -32t-16.5 -40q-5 -12 -36 -89v-110q0 -2 -1 -3q-2 -2 -4 -2q-1 0 -3 2t-2 3v85q-20 -49 -22 -54q-36 -83 -75 -179q-68 -161 -78 -173q-5 -8 -33 -8q-11 0 -17 1q-14 0 -25 1v-148q0 -2 -1 -3q-2 -2 -4 -2t-4 2t-2 3v149q-3 1 -9.5 1.5t-9.5 0.5
q-5 0 -7 1q-4 2 -7 4q-9 6 -15 15q-6 7 -6 14q0 3 1 4t2 1t2 1h4q9 0 18 -1q26 -2 31 -2q7 -1 20 -1h18q0 1 2 1t2 1l3 3q2 2 3 5q9 18 46 100q49 112 77 177q4 8 5 11q18 45 42 98q22 52 45 112q6 17 12 30q5 11 8 20l4 8h-7q-7 0 -12 1h-16h-15q-2 -1 -4 -1z" />
    <glyph glyph-name="asciicircum" unicode="^" horiz-adv-x="260" 
d="M106 320v-115q0 -4 -3 -7t-7 -3q-5 0 -8 3t-3 7v88l-12 -14v-41q0 -2 -1 -3q-2 -2 -4 -2q-1 0 -3 2t-2 3v28l-1 -1q-16 -19 -18 -20l-4 -1l-5 1q-9 3 -17 11q-10 8 -15 17q-3 7 -3 12v3q0 1 3 4q4 6 7 9q107 128 126 175q0 2 1 3v3v4v5q0 1 1 2l1 1l1 1q1 0 2 1h3h6l1 -1
q2 -2 5 -3q1 -1 2.5 -1.5t3 -1.5t2.5 -1q3 -3 5 -6q3 -3 5 -4q2 -4 3 -5q5 -5 9 -14q2 -4 6 -15t7 -18q10 -24 24 -60q3 -8 24 -65q10 -29 12 -33v-3q0 -5 -3 -7l-4 -1l-5 1q-8 3 -18 11t-14 18l-1 2q-1 2 -2.5 6t-3.5 8t-5 13t-5 13q-3 12 -7 19q-4 11 -14 38q-1 2 -2.5 6
t-1.5 5q-3 8 -4 9v3h-1l-1 -2q-4 -8 -17 -26q-15 -22 -27 -38q-9 -13 -18 -23z" />
    <glyph glyph-name="underscore" unicode="_" horiz-adv-x="408" 
d="M75 -68q1 -1 1 -3v-130q0 -2 -1 -3q-2 -2 -4 -2q-1 0 -3 2t-2 3v130q0 2 1 3q-4 0 -10.5 0.5t-9.5 0.5h-9q-3 0 -4 1q-10 4 -21 15q-10 10 -13 21v3q0 5 3 7l5 1l23 -1l76 -2l83 -1l75 1q55 2 78 6q2 0 6 0.5t6 1.5q1 0 3.5 0.5t3.5 1.5l6 2l4 -1q8 -3 19 -12t15 -19
q2 -6 2 -9l-1 -4q-3 -5 -28 -9q-2 -1 -6.5 -1.5t-6.5 -0.5v-76q0 -2 -1 -3t-4 -1q-2 0 -3 1q-2 2 -2 3v75q-4 0 -6 -1v-54q0 -2 -2 -4t-4 -2q-3 0 -5 2t-2 4v53q-4 0 -13.5 -0.5t-14.5 -0.5h-156q-37 0 -57 1q-15 0 -21 1z" />
    <glyph glyph-name="grave" unicode="`" horiz-adv-x="64" 
d="M26 521v-35q0 -3 -2 -5t-5 -2q-2 0 -4 2t-2 5v63q-6 20 -9 31q-4 15 -4 27v4q2 5 5 5q4 0 11 -4q1 -1 5 -3q8 -3 16 -8q7 -4 9 -11q4 -13 5 -26q1 -10 5 -23q1 -8 7 -18v-2q0 -4 1 -6v-7v-7l-2 -4q-1 -1 -4 -1q-6 0 -13 6q-1 0 -1 1l-2 1v-38q0 -2 -1 -3q-2 -2 -4 -2
q-1 0 -3 2t-2 3v48l-1 1q-4 4 -5 6z" />
    <glyph glyph-name="a" unicode="a" horiz-adv-x="284" 
d="M45 122q-9 -9 -27 -31q-16 -22 -37 -58l7 4q33 17 71 52t66 67q-10 2 -14 2q-26 0 -48 -19l-1 -1v-26q0 -1 -2 -3q-4 -2 -7 -2t-5 2q-3 1 -3 3v10zM7 -18v-105q0 -2 -1 -3q-2 -2 -4 -2q-1 0 -3 2t-2 3v103h-13q-37 9 -60 50q-4 7 -4 13q0 4 1 6q1 1 3 6q0 1 1 1l1 2
q18 33 42 70q22 32 51 55q26 22 58 22q30 0 65 -26l3 6q3 8 7 13q3 5 10 5q10 0 31 -21q13 -13 13 -22q0 -8 -10 -17q-6 -7 -18 -26q-10 -16 -19 -51q-1 -4 -1 -11q0 -20 18 -20t44 23t33 61q0 1 1 1q0 1 1 2l1 1q4 2 7 3q2 1 6 1t5 -4v-1q-15 -57 -52 -89q-37 -34 -69 -34
q-5 0 -7 1v-35q0 -2 -1 -3q-2 -2 -3 -2t-3 2t-2 3v37q-6 3 -10 7q-12 12 -13 31v7q0 1 -0.5 2.5t-1.5 2.5l-1 -1h-1l-10 -10q-19 -17 -31 -25q-26 -18 -40 -25q-13 -6 -22 -9z" />
    <glyph glyph-name="b" unicode="b" horiz-adv-x="248" 
d="M37 39q51 7 92.5 54.5t41.5 68.5l-1 2h-1q-11 0 -76 -41.5t-75 -54.5l-10 -25q0 -4 29 -4zM65 -9v-75q0 -4 -2 -6q-4 -2 -6 -2q-3 0 -5 2q-3 2 -3 6v76h-2q-13 1 -24 7q-11 5 -15 9t-7 4t-3 -11q0 -7 1 -10q2 -8 2 -10q0 -3 -1 -4q-2 -2 -5 -2l-6 1q-17 6 -28 23t-11 35
v2q4 50 56 135q44 75 103 159q8 12 24.5 36.5t23.5 34.5q18 29 18 37q0 10 7 10q4 0 12 -5q3 -2 7.5 -6t5.5 -4q7 -7 9 -10q7 -10 7 -18q0 -7 -6 -18q-5 -11 -18 -30q-15 -24 -19 -30v-66q0 -2 -1 -3q-2 -2 -4 -2q-1 0 -3 2t-2 3v51q-2 -3 -6 -8.5t-5 -7.5l-17 -25.5
t-14 -21.5q-6 -9 -15 -22t-11 -16q-10 -14 -10 -16l4 2q2 2 21 11q13 6 32 6q23 0 46 -19q24 -26 24 -55q0 -53 -55 -101q-46 -38 -82 -45v-121q0 -2 -1 -3t-4 -1q-2 0 -3 1t-1 3v119z" />
    <glyph glyph-name="c" unicode="c" horiz-adv-x="219" 
d="M34 -19v-72q0 -1 -1 -2q-2 -2 -4 -2q-1 0 -3 2l-2 2v75l-6 3v-57q0 -3 -2 -5t-5 -2q-2 0 -4 2t-2 5v63q-11 6 -19 13q-36 27 -36 69q0 26 16 54q14 27 52 59q20 18 46 33q22 12 44 12q25 0 48 -22q21 -23 21 -42q0 -32 -44 -64v-37q0 -2 -1 -3q-2 -2 -4 -2q-1 0 -3 2
t-2 3v33h-2q-14 0 -24 13q-11 13 -14 22v3q0 5 5 10q6 6 10 9q2 2 5 4.5t4 3.5q12 10 12 13h-1q-2 0 -6 -3q-4 -2 -14 -8q-49 -30 -75 -68q-27 -39 -27 -59q0 -8 5 -11q20 -10 50 -10q45 0 91 25q45 24 57 74q0 2 1 3l1 1q4 2 7 3q2 1 6 1q5 0 6 -4v-1q-9 -37 -26 -72
q-18 -34 -46 -55q-28 -22 -68 -22l-13 1q-11 1 -33 7z" />
    <glyph glyph-name="d" unicode="d" horiz-adv-x="290" 
d="M9 47l9 5q21 18 72 63t51 49q0 7 -12 7q-24 0 -58 -29.5t-62 -94.5zM256 226v-68q0 -2 -1 -3q-2 -2 -4 -2q-1 0 -3 2t-2 3v51q-2 -3 -10 -16t-12 -21q-34 -59 -50 -111v-5q0 -21 17 -21h2q17 0 43 23q25 22 34 61q0 2 1 3l1 1q4 2 7 3q2 1 6 1t5 -4v-1q-14 -52 -48 -86
q-36 -36 -69 -36q-19 0 -33 14t-20 44l-4 -4q-36 -32 -54 -47v-110q0 -2 -1 -3q-2 -2 -4 -2q-1 0 -3 2t-2 3v102q-28 -22 -50 -22l-7 1q-16 4 -29 20q-15 16 -16 33v2q0 23 20 68t52 81t71 36q32 0 63 -31l5 -5q17 30 38 65q7 10 24 39t28 47q2 3 10.5 16.5t12.5 19.5
q5 8 15.5 24t14.5 22q9 17 9 26q1 9 7 9q5 0 13 -5q5 -3 13 -11q7 -7 8 -9q8 -11 8 -19q0 -5 -5 -17q-20 -38 -65 -107q-2 -3 -5 -7t-4 -7v-48q0 -3 -2 -5q-3 -3 -6 -3t-5 3q-3 1 -3 5v23z" />
    <glyph glyph-name="e" unicode="e" horiz-adv-x="226" 
d="M38 119q10 0 15 1q24 3 47.5 20.5t27.5 39.5v1q0 1 -2 1q-9 0 -48.5 -28.5t-39.5 -33.5v-1zM130 -18v-104q0 -4 -3 -7q-3 -4 -8 -4q-4 0 -7 4q-3 3 -3 7v98q-2 0 -5.5 -1t-5.5 -1v-54q0 -2 -1 -3q-2 -2 -4 -2q-1 0 -3 2t-2 3v53h-19q-57 5 -86 31q-31 27 -31 67
q0 39 33 85q20 23 56 50q34 27 68 27q10 0 17 -3q24 -9 38 -29q13 -19 13 -43q0 -34 -33 -62q-22 -15 -36 -19q-18 -6 -33 -6q-21 0 -36 6v-32q0 -2 -1 -3q-2 -2 -4 -2q-1 0 -3 2t-2 3v37q-10 5 -12 7l-3 1q-3 -1 -8 -10q-4 -7 -7 -19q-3 -11 -3 -20q0 -8 4 -11
q26 -12 59 -12q35 0 72 12q62 20 73 88q0 1 1 1q0 1 1 2q0 1 1 2q4 2 7 3q2 1 6 1t5 -4v-1q-9 -39 -27 -74q-20 -34 -48 -54q-8 -7 -20 -12z" />
    <glyph glyph-name="f" unicode="f" horiz-adv-x="255" 
d="M77 48q2 0 3 5q2 14 2 22q0 29 -23 44q-13 9 -17 9l-29 -56q0 -7 57 -23zM-30 -17q-20 -46 -27 -77l-1 -8l5 1q29 11 56 36q29 29 44 49q17 23 17 26q-6 3 -11 5q-19 6 -53 31l-17 -34v-66q0 -3 -2 -5t-5 -2q-2 0 -4 2t-2 5v37zM78 -78v-90q0 -2 -1 -3t-3 -1t-3 1
q-2 2 -2 3v80q-4 -5 -14 -15q-46 -49 -95 -49h-6q-23 5 -41 24q-19 19 -21 43v3q0 27 23 84q17 42 43 94q-13 25 -13 48q0 18 9 28q8 11 28 11q10 0 15 -1l5 -1q1 0 2 1v2q1 1 3 5q1 2 3.5 6t5.5 9.5t7 11.5q26 46 52 91q34 61 54 100q25 46 26 56q1 9 7 9q5 0 14 -6
q10 -8 15 -13q2 -2 9 -13q4 -4 4 -11q0 -5 -3 -12q-4 -10 -9 -20l-1 -2v-50q0 -3 -1 -4q-2 -2 -5 -2t-5 2t-2 4v27l-6 -11v-73q0 -2 -1 -3q-2 -2 -3 -2t-3 2t-2 3v57l-105 -190q30 -17 48 -44t23 -55v-2q0 -2 1 -3q0 -1 1 -1l5 1q21 5 42 19q22 13 30 49q0 2 1 3l1 1
q4 2 7 3q2 1 6 1t5 -4v-1q-15 -56 -44 -87q-30 -32 -61 -36q-15 -40 -45 -77z" />
    <glyph glyph-name="g" unicode="g" horiz-adv-x="297" 
d="M-117 51l8 4q19 11 53 40.5t60 54.5t26 28q-1 1 -6 1q-11 0 -21 -5q-29 -14 -75 -64t-46 -58zM-185 -176l-7 -7v-39q0 -3 -2 -5t-4 -2q-3 0 -5 2t-2 5v25q-19 -24 -30 -48q-19 -39 -19 -56q0 -3 2 -5q8 -2 14 -2q5 0 15 2q21 8 46 39q25 29 49 67q19 29 40 66
q16 28 16 32q-3 0 -20 -11q-29 -18 -37 -24q-31 -20 -35 -23q-9 -5 -11 -7l-1 -1v-74q0 -2 -1 -3q-2 -2 -4 -2q-1 0 -3 2q-1 1 -1 3v66zM53 -42v-126q0 -2 -1 -3q-2 -2 -4 -2q-1 0 -3 2t-2 3v119q-20 -12 -30 -17q-1 -1 -2 -3.5t-1 -4.5l-1 -1q-1 -1 -1 -2
q-96 -197 -159 -256v-153q0 -2 -1 -3q-2 -2 -4 -2q-1 0 -3 2t-2 3v145q-20 -15 -43 -15h-5q-39 3 -65 30q-26 26 -26 62q0 11 3 23q24 83 87 129t123 71q40 17 62 33l36 77q-1 0 -7 -6q-23 -21 -47 -38q-32 -23 -60 -29h-6q-18 0 -32 10v-31q0 -2 -1 -3t-3 -1t-3 1
q-2 2 -2 3v37l-4 4q-21 20 -21 42l1 7q6 30 34 64q27 33 60 61q31 26 49 34q9 3 18 3q15 0 33 -8q14 -8 29 -21q1 1 3 4q2 2 3 4q2 3 7 8t7 8q5 6 15 16q7 7 11 7q12 -1 26 -15q13 -14 14 -25q0 -5 -14 -36q-5 -11 -14.5 -32.5t-14.5 -32.5q-4 -8 -19 -41q-7 -18 -9 -21
l-13 -28q36 15 61 38q29 26 44 67q0 1 1 1q0 1 1 2l1 1q4 2 7 3q2 1 6 1t5 -4v-1q-13 -65 -64 -114q-27 -27 -60 -50z" />
    <glyph glyph-name="h" unicode="h" horiz-adv-x="281" 
d="M-60 -2q-12 21 -12 43l1 11q7 38 39 91q36 60 61 98l8 12q3 4 20 31q18 27 67 104q30 49 30 58q0 8 7 8q11 0 25 -13q15 -13 15 -30q0 -5 -1 -8q-3 -8 -14 -29v-83q0 -2 -1 -3t-3 -1t-3 1q-2 2 -2 3v68q-9 -15 -10 -17q-33 -53 -90 -140q-4 -6 -6 -8l-2 -3l14 6l4 2
q20 11 37 19q24 11 34 11h2q19 -3 34 -21t15 -37q0 -7 -1 -10q-6 -16 -28 -52q-6 -10 -16 -28q-8 -13 -9 -21v-5q0 -20 18 -20t44 23q24 23 33 61q0 1 1 1q0 1 1 2l1 1q4 2 7 3q2 1 6 1t5 -4v-1q-16 -61 -61 -98q-43 -37 -81 -37h-7v-103q0 -2 -1 -3q-2 -2 -4 -2q-1 0 -3 2
q-1 1 -1 3v105q-7 3 -14 8q-12 10 -17 31v4q0 17 17 53q17 35 39 72q-45 -22 -76 -41q-37 -22 -61 -49t-24 -61v-9l3 -3q1 -1 3 -3.5t4 -4.5q1 -1 7 -10q3 -6 3 -11q0 -3 -2 -5q-4 -2 -6 -2l-5 1q-8 3 -16 8v-12q0 -3 -2 -5t-5 -2t-5 2t-2 5v24q-1 1 -2.5 3t-2.5 3v-68
q0 -2 -1 -3t-3 -1t-3 1q-2 2 -2 3v81z" />
    <glyph glyph-name="i" unicode="i" horiz-adv-x="134" 
d="M105 239h-3q-14 5 -26 18q-12 14 -12 23v3l53 71l4 1q10 0 26 -14q14 -14 14 -25l-1 -4l-1 -1q-1 -1 -1.5 -2.5t-2 -4t-3.5 -4.5l-16 -24q-10 -14 -18 -24q-1 -2 -3 -4v-84q0 -2 -1 -3q-2 -2 -4 -2q-1 0 -3 2t-2 3v75zM59 18v-99q0 -2 -1 -3q-2 -2 -4 -2l-2 2q-2 2 -2 3
v94q-28 -14 -51 -14q-21 0 -35 11t-14 32v3q2 27 21 61q22 42 39 70q26 41 35 64q1 6 8 6t17 -7q9 -7 16 -16q7 -10 7 -18l-1 -5q-6 -14 -10 -22v-24q0 -1 -2 -3t-5 -2t-5 2t-2 3q-4 -7 -12 -19q-17 -27 -26 -44q-11 -20 -13 -33v-2q0 -21 19 -21q18 0 44 23q24 23 33 61
q0 2 1 3l1 1q4 2 7 3q2 1 6 1q5 0 5 -3v-2q-17 -62 -57 -92q-3 -3 -9 -6.5t-8 -5.5z" />
    <glyph glyph-name="j" unicode="j" horiz-adv-x="125" 
d="M-282 239q-11 3 -24.5 15.5t-13.5 24.5v2q1 2 24.5 37t24.5 36l6 2q11 0 25 -16.5t14 -26.5v-1q0 -1 -24 -36t-25 -36t-7 -1zM-714 -307q16 0 18 2q23 8 62.5 51.5t67 82.5t27.5 43q-4 0 -33 -20t-65 -49.5t-51 -49.5q-31 -40 -31 -59q0 -1 5 -1zM-348 -39v-121
q0 -2 -1 -3q-2 -2 -4 -2q-1 0 -3 2t-2 3v115q-5 -4 -15 -10q-47 -27 -70 -32q-2 -3 -6.5 -11t-6.5 -10q-42 -71 -86 -134q-14 -20 -27 -36v-91q0 -2 -1 -3t-4 -1q-2 0 -3 1q-2 2 -2 3v79l-6 -6v-53q0 -3 -2 -5t-5 -2q-2 0 -4 2t-2 5v39q-25 -25 -48 -38q-11 -7 -31 -7h-8
q-31 3 -57 24q-26 20 -26 50l1 11q14 52 61 96q47 46 104 80q67 40 96 55q25 13 34 20q6 8 24 40q6 11 42 79q8 15 22.5 43t20.5 41q11 22 23 44q7 15 9 17l4 1q7 0 17 -7q9 -7 16 -16q7 -10 7 -18q0 -2 -11 -27v-67q0 -3 -2 -5t-6 -2q-3 0 -5 2q-3 2 -3 5v35
q-5 -11 -17 -33q-14 -27 -35 -65q-6 -11 -14.5 -26t-10.5 -20q37 9 79 36q41 26 62 81q0 2 1 3l1 1q4 2 7 3q2 1 6 1t5 -4v-1q-12 -59 -54 -104q-33 -34 -64 -57z" />
    <glyph glyph-name="k" unicode="k" 
d="M92 124l7 1q17 3 36 17t29.5 26t10.5 14q-4 0 -39.5 -20.5t-45.5 -29.5v-1q0 -5 2 -7zM152 -24v-55q0 -1 -1 -2t-3 -1q-1 0 -2 1t-1 2v55q-11 0 -23 3q-80 23 -84 119h-5q-8 -15 -24 -49q-12 -25 -12 -44q0 -5 2 -11l3 -9q0 -4 -4 -7q-8 0 -16 3v-104q0 -2 -1 -3
q-2 -2 -4 -2q-1 0 -3 2t-2 3v110q-3 3 -9 11q-13 19 -13 41l1 12q12 53 63 135q41 69 100 156q31 45 44 66q17 28 17 33q0 9 5 9h1q6 0 13 -4q3 -2 7.5 -6t5.5 -4q7 -7 8 -10q8 -11 8 -19q0 -6 -5 -16q-1 -2 -12 -20v-61q0 -2 -2 -4t-5 -2t-5 2t-2 4v40q-14 -21 -34 -52
q-8 -13 -21.5 -33.5t-17.5 -27.5l-1 -1q0 -1 -1 -2l-1 -1l-14 -21q0 -1 -1 -2q21 13 44 23q30 12 42 13h3q17 0 37 -14q19 -15 19 -39q0 -12 -8 -28q-16 -31 -47 -59q-29 -26 -59 -29v-23q0 -1 -1 -2t-4 -1q-2 0 -3 1l-2 2v23q-20 2 -35 11l-2 -20q0 -6 2 -20q2 -13 4 -17
q7 -13 32 -13q35 0 78 25q42 23 53 76q0 2 1 3l1 1q4 2 7 3q2 1 6 1t5 -4v-1q-8 -33 -24 -66q-17 -34 -42 -56q-24 -22 -56 -24z" />
    <glyph glyph-name="l" unicode="l" horiz-adv-x="107" 
d="M-78 -64v-93q0 -2 -1 -3q-2 -2 -4 -2q-1 0 -3 2t-2 3v104l-2 4q-10 16 -10 37l1 13q12 53 65 145q54 94 107 178q20 31 52 84q21 34 22 44q2 8 7 8q7 0 17 -7q12 -9 18 -17q7 -10 7 -21l-1 -5q-11 -25 -23 -44v-102q0 -2 -1 -3q-2 -2 -4 -2t-4 2t-2 3v83l-6 -10v-49
q0 -2 -2 -4q-4 -2 -6 -2q-3 0 -5 2q-3 2 -3 4v24q-12 -20 -27 -42q-58 -89 -104 -168q-50 -86 -60 -141v-4q0 -8 1 -12q1 -3 1 -10q0 -5 -1 -6q-2 -2 -6 -2h-4q-10 3 -17 9z" />
    <glyph glyph-name="m" unicode="m" horiz-adv-x="438" 
d="M329 -1v-119q0 -2 -1 -3q-2 -2 -4 -2q-1 0 -3 2t-2 3v119q-15 1 -27 12q-15 10 -24 35q-4 9 -4 23v6q2 14 3 20q0 2 1 4.5t2 4.5t1 3v2q-8 -3 -29 -21v-44q0 -3 -2 -5t-6 -2q-3 0 -5 2q-3 1 -3 5v29q-18 -16 -30 -31q-22 -23 -22 -37q0 -8 -5 -8q-9 0 -19 9q-5 3 -18 14
q-18 22 -18 48q0 19 5 37q5 17 9 24q1 2 1 4l-3 -2q-2 -2 -6.5 -5.5t-9.5 -7.5q-24 -20 -41 -37q-1 -2 -4 -4.5t-5 -3.5v-90q0 -2 -1 -3t-4 -1q-2 0 -3 1q-2 2 -2 3v80l-6 -6v-54q0 -3 -2 -5t-5 -2q-2 0 -4 2t-2 5v41q-1 -2 -3.5 -4.5l-3.5 -3.5q-20 -21 -30 -40
q-3 -7 -12 -7q-14 0 -31 14t-17 38q0 9 3 20q12 30 38 69q39 63 52 82q13 18 21 30q8 13 8 15q1 4 7 4q9 0 24 -12t15 -28q0 -5 -3 -11q-9 -16 -21 -32q-8 -10 -8 -11q1 0 12 8q4 3 15.5 11.5t18.5 13.5q4 3 15.5 12t17.5 13q15 11 18 12l4 1q10 0 20 -10q14 -14 20 -22
q8 -14 9 -23v-1q0 -8 -6 -20q-5 -8 -13 -22q-6 -9 -6 -10v-1l4 3q11 9 52 41q29 22 55 36l5 1q8 0 20 -9q12 -11 21 -21q8 -11 10 -20v-1q0 -13 -20 -44q-16 -29 -25 -50l-1 -9q0 -21 19 -21q18 0 44 23q24 23 33 61q0 2 1 3l1 1q4 2 7 3t7 1t5 -3l-1 -2q-16 -61 -46 -91
q-29 -31 -57 -32z" />
    <glyph glyph-name="n" unicode="n" 
d="M-38 -19v-75q0 -2 -1 -3q-2 -2 -4 -2q-1 0 -3 2t-2 3v81q-4 4 -6 7q-9 9 -14 22l-2 11q0 30 31 79q29 46 59 89q32 43 32 49t5 6q7 0 17 -6q12 -9 18 -17q8 -11 8 -18v-1q0 -1 -1 -3.5t-2 -4.5q-1 -4 -5 -8q-3 -3 -3 -4t2 -1l5 1q12 4 17 5q22 9 38 9q19 0 35 -21
q13 -13 13 -24t-15 -32l-2 -4q-17 -26 -28 -55l-1 -11q0 -20 16 -20h2q18 0 44 23q24 23 33 61v1l3 3q4 2 7 3q2 1 6 1t5 -4v-1q-17 -61 -47 -91q-26 -27 -55 -32v-43q0 -2 -1 -3q-2 -2 -3 -2t-3 2t-2 3v43q-21 2 -35 16q-15 14 -23 47l-1 7l2 18q7 27 15 39q3 6 3 8t-1 2
q-6 0 -27 -10l-10 -4q-7 -3 -14 -7v-33q0 -2 -1 -3t-4 -1q-2 0 -3 1q-2 2 -2 3v28l-6 -3v-97q0 -2 -1 -3q-2 -2 -4 -2q-1 0 -3 2t-2 3v92q-7 -4 -12 -6q-1 -2 -9 -12q-9 -15 -17 -29q-7 -11 -17 -33q-8 -18 -8 -25l1 -4l1 -7q0 -8 -8 -8l-6 1z" />
    <glyph glyph-name="o" unicode="o" 
d="M92 80l3 4q13 15 28 44t15 37l-1 2q-1 1 -3 1q-11 0 -28.5 -25.5t-17.5 -46.5q0 -11 4 -16zM-13 65q-19 -28 -19 -55l12 -1h7q19 3 38 15q19 10 38 26q-23 36 -24 78q-14 -14 -38 -44v-31q0 -3 -2 -5t-5 -2t-5 2t-2 5v12zM144 12v-44q0 -2 -1 -3q-2 -2 -4 -2q-1 0 -3 2
q-1 1 -1 3v44q-10 0 -19 3q0 -1 -15 -15q-14 -11 -40 -26q-1 -1 -7 -4v-41q0 -2 -1 -3q-2 -2 -3 -2t-3 2t-2 3v37l-9 -3v-115q0 -2 -1 -3q-2 -2 -4 -2q-1 0 -3 2t-2 3v113q-5 -1 -15 -1l-9 1q-30 4 -56 29q-26 24 -26 55l1 11q5 26 27 57q19 29 44 57q21 23 30 29l4 1
q7 0 11 -4q1 -2 5 -4.5t5 -3.5q6 -6 8 -6l2 1q23 32 52 32t52 -22q24 -23 24 -56q0 -11 -3 -21q-7 -21 -26 -52q31 5 54 20q24 16 30 45q0 2 1 3l1 1q4 2 7 3q2 1 6 1q5 0 5 -3v-2q-16 -63 -52 -91q-32 -26 -64 -29z" />
    <glyph glyph-name="p" unicode="p" horiz-adv-x="260" 
d="M-22 109q-11 -10 -24 -23l-11 -21q0 -3 3 -8q1 -4 5 -10q1 -1 2 -4t2 -3q5 -4 14 -5q9 -3 18 -3q8 0 11 1q32 11 50 57t24 87q-2 0 -19 -11q-13 -8 -36 -26q-17 -12 -30 -24v-28q0 -2 -1 -3q-2 -2 -4 -2q-1 0 -3 2q-1 1 -1 3v21zM30 -15v-51q0 -3 -2 -5t-5 -2t-5 2t-2 5
v50q-49 1 -91 50q-1 -1 -1 -3q-12 -20 -35 -65v-102q0 -2 -1 -3q-2 -2 -4 -2q-1 0 -3 2t-2 3v81q-2 -4 -5.5 -11.5t-5.5 -10.5q-31 -65 -31 -107l1 -10l3 -9q2 -10 2 -12q0 -4 -5 -6l-5 1q-9 2 -15 6v-84q0 -2 -1 -3q-2 -2 -4 -2q-1 0 -3 2t-2 3v93q-3 3 -7 11
q-11 22 -11 44q0 12 1 17q9 46 35 101q30 63 47 94q20 38 20 43q-2 8 -2 11q0 9 10 10h4q9 12 19 31q14 24 27 51q13 25 13 33q1 10 8 10t15 -7q12 -10 17 -15q6 -8 8 -16q24 16 32 19q16 8 30 8q16 0 29 -10q23 -14 23 -41v-6q-3 -37 -13 -79q-10 -45 -32 -81
q-20 -34 -51 -38z" />
    <glyph glyph-name="q" unicode="q" horiz-adv-x="243" 
d="M6 69l5 2q22 6 59.5 31t64 48t26.5 26q0 2 -10 13t-14 15q-28 -15 -71 -59.5t-58 -70.5l-3 -4zM26 -255v-60q0 -2 -1 -3q-2 -2 -3 -2t-3 2t-2 3v70l-1 3q-2 2 -3 4q-11 22 -11 44v10q7 60 80 205q4 6 5 9q6 9 6 11l-1 1l-3 -1q-32 -22 -67 -22q-21 0 -39 12v-26
q0 -2 -1 -3q-2 -2 -4 -2l-2 2q-2 2 -2 3v33q-2 1 -6 5v-79q0 -2 -1 -3q-2 -2 -4 -2q-1 0 -3 2q-1 1 -1 3v91q-9 13 -9 27q0 21 15 42q13 19 35 42q29 29 49 48q29 27 48 37l9 2q17 0 34 -14q12 -11 26 -27l8 -8q2 0 4 5q1 3 1 10l2 9q3 3 7 3q11 0 26 -15q14 -16 14 -30
l-1 -7q0 -1 -0.5 -2.5l-1.5 -4.5t-2 -5q-3 -6 -7 -18q-3 -7 -6 -13q-2 -2 -3 -5q-1 -2 -6 -11q-2 -4 -7 -13.5t-8 -14.5q-6 -11 -24.5 -46.5t-30.5 -58.5q-11 -22 -31 -64v-162q0 -2 -1 -3q-2 -2 -4 -2q-1 0 -3 2t-2 3v140q-6 -13 -16 -37q-25 -60 -25 -94q0 -10 3 -16
q4 -7 4 -12q0 -7 -11 -7q-13 4 -19 10z" />
    <glyph glyph-name="r" unicode="r" horiz-adv-x="206" 
d="M87 -20v-125q0 -2 -1 -3q-2 -2 -4 -2q-1 0 -3 2t-2 3v124q-22 0 -37 12q-15 10 -15 34q0 19 12 44q9 18 13 25q2 4 3 5t1 3q1 0 1 1q-20 -7 -41 -7q-17 0 -31 9q-17 11 -25 26q-8 14 -8 29q0 26 15 48q12 19 31 37q17 14 25 14q5 0 15 -6q12 -8 18 -16q8 -10 8 -17
q0 -4 -6 -9q-1 -1 -2 -1v-37q0 -1 -1 -1q-1 -1 -4 -1q-2 0 -3 1q-2 0 -2 1v30q-4 -4 -6 -5v-15l-2 -2q-1 -1 -5 -1q-3 0 -4 1l-2 2v2q-1 0 -1 -1q-19 -20 -23 -37q0 -1 1 -1q7 0 24 7q4 2 17.5 7.5t21.5 8.5q8 4 21.5 10t15.5 7q11 5 20 11q4 3 9 3q9 0 17 -7t15 -17
q6 -11 6 -17v-2l-1 -2q-2 -2 -4.5 -5.5t-5.5 -7.5q-6 -9 -7 -10v-62q0 -2 -1 -3q-2 -2 -4 -2q-1 0 -3 2t-2 3v49q-8 -12 -13 -18q-18 -25 -35 -55l-1 -10q0 -20 17 -20h2q18 0 43 22t34 61v3q1 0 2 1q4 2 7 3q2 1 6 1q3 0 5 -3v-2q-16 -63 -56 -93q-35 -26 -65 -29z" />
    <glyph glyph-name="s" unicode="s" horiz-adv-x="130" 
d="M-176 -132v-121q0 -2 -1 -3q-2 -2 -4 -2q-1 0 -3 2t-2 3v119q-4 -1 -13 -1l-13 1q-35 8 -53 39q-19 29 -19 61q0 19 8 35q8 15 25 20l8 1q15 0 29 -7q15 -7 24 -18q15 -16 15 -26q0 -7 -7 -8q-7 0 -17 7q-1 0 -1 1v-30q0 -1 -2 -3q-2 -1 -6 -1q-5 0 -6 1q-2 2 -2 3v31
q-6 -2 -11 -12q-8 -14 -8 -31q0 -10 1 -15q49 0 83 43q34 41 34 90q-2 29 -5 43v-60q0 -2 -1 -3q-2 -2 -3 -2t-3 2t-2 3v95q-4 10 -5 15v-43q0 -5 -1 -6q-2 -2 -3 -2l-2 2q-2 2 -2 6v95q0 19 8 41q6 18 28 43q5 5 11 5q10 0 18 -7q8 -8 14 -17q6 -10 6 -17v-2q-1 -3 -6 -9
q-8 -10 -19 -28q-11 -19 -11 -44q0 -22 4 -38l9 -36q13 -32 13 -69q0 -31 -16 -66q-17 -33 -47 -57q-19 -16 -44 -23z" />
    <glyph glyph-name="t" unicode="t" horiz-adv-x="137" 
d="M36 311v-24q0 -1 -2 -3q-2 -1 -6 -1t-5 1q-3 2 -3 3v21q-18 -2 -24 -2l-7 1q-14 4 -27 20q-12 15 -12 24q0 2 2 4t4 2l9 -2q5 0 37 5q13 2 60 11q35 7 45 10q4 4 10 15q5 8 16 33q7 18 15 33l5 10q1 1 1 3h1v1q1 3 3 7v5v3l3 3q1 1 3 1q5 0 15 -5q8 -5 16 -15l8 -12
q3 -5 3 -12q0 -13 -15 -42l-1 -1q0 -2 -1 -2l-5 -12v-1q0 -1 1 -1q3 0 6 1q8 2 19 2l20 -2q31 -6 47 -25q15 -20 15 -32q0 -8 -8 -10q-9 0 -29 20q-17 0 -47 -2q-1 -1 -3 -1v-87q0 -2 -1 -3q-2 -2 -3 -2t-3 2t-2 3v86q-4 0 -6 -1v-65q0 -3 -2 -5t-5 -2t-5 2t-2 5v63
q-6 -1 -25 -5q-44 -78 -68 -124q-39 -74 -70 -134q-24 -51 -24 -71q0 -16 12 -16q18 0 51 38q33 37 49 92q0 1 1 1q0 1 1 2l1 1q4 2 7 3q2 1 6 1q5 0 5 -4v-1q-28 -91 -70 -133q-26 -26 -50 -37v-136q0 -2 -2 -4t-4 -2t-4 2t-2 4v131q-10 -2 -16 -2q-19 0 -31 14
q-13 13 -13 42q0 31 23 88q29 66 112 215l8 14q-2 0 -14 -3q-16 -2 -23 -4z" />
    <glyph glyph-name="u" unicode="u" horiz-adv-x="267" 
d="M53 166v-70q0 -2 -1 -3t-4 -1q-2 0 -3 1q-2 2 -2 3v52q0 -1 -5 -8v-33q0 -1 -2 -3t-5 -2q-2 0 -4 2t-2 3v10q-1 -1 -5.5 -9.5t-7.5 -13.5t-8 -14t-9 -15t-7 -11q-10 -17 -10 -22q1 0 1 1q1 0 2 1l8 4q1 0 8 5q23 16 47 39q23 20 49 48q18 18 40 42l2 2q6 7 12 13l2 2l5 1
q10 0 23 -13t16 -23v-1q0 -9 -16 -40q-2 -6 -7.5 -18t-8.5 -18q-9 -20 -12 -35q-2 -10 -2 -12q0 -13 10 -13q13 0 39 30q23 28 34 72v3q1 0 2 1q4 2 7 3q2 1 6 1q3 0 5 -3v-2q-16 -63 -49 -106q-32 -41 -60 -41h-2v-32q0 -2 -1 -3q-2 -2 -3 -2t-3 2t-2 3v34q-17 6 -27 31
q-3 11 -3 20v4q0 9 -1 14q-35 -32 -62 -51q-1 -1 -3.5 -2.5t-3.5 -2.5v-111q0 -2 -1 -3q-2 -2 -4 -2q-1 0 -3 2t-2 3v105q-22 -12 -42 -12l-8 1q-16 1 -33 18q-17 15 -17 41q0 12 4 23q4 12 23 46q22 40 34 60q18 32 21 37q9 15 9 18q0 9 7 9q6 0 16 -7q10 -8 18 -18
q7 -10 7 -18q0 -4 -6 -16z" />
    <glyph glyph-name="v" unicode="v" horiz-adv-x="209" 
d="M154 135v-68q0 -2 -1 -3q-2 -2 -4 -2q-1 0 -3 2q-1 1 -1 3v53q-4 -4 -5 -7q-8 -11 -9 -16v-4q0 -9 3 -24q5 -32 18 -32q10 0 21 20q10 18 16 62q0 1 1 1q0 1 1 2l1 1q4 2 7 3q2 1 6 1t5 -4v-1q-8 -46 -28 -88q-21 -43 -44 -43q-10 0 -21 15q-12 17 -19 49q-2 -1 -17 -18
q-11 -13 -38 -40q-2 -2 -6 -5.5t-5 -4.5v-31q0 -3 -2 -5t-5 -2q-2 0 -4 2t-2 5v22q-6 -2 -8 -2v-112q0 -2 -1 -3q-2 -2 -4 -2q-1 0 -3 2t-2 3v112q-23 9 -37 32t-14 46l1 13q5 22 16 48q13 32 25 55q10 22 18 39q7 15 7 22l-1 8q0 6 5 6h1q8 0 22 -11t20 -24q1 -3 1 -9
q0 -17 -10 -38q-18 -38 -23 -48q-16 -31 -28 -63l-1 -6q1 0 5 4l12 12q1 2 5 6q9 9 33 35q19 23 25 33v7q0 4 2 30q1 19 9 33q8 9 16 9q11 0 25 -11q10 -8 20 -22q6 -10 6 -21q0 -15 -7 -26z" />
    <glyph glyph-name="w" unicode="w" horiz-adv-x="379" 
d="M30 1v-133q0 -2 -1 -3q-2 -2 -4 -2t-4 2t-2 3v132q-7 0 -17 2q-14 4 -29 19t-20 29q-3 8 -3 18q0 26 13 56q18 40 28 59q18 39 19 41q8 21 8 30v5q0 7 7 7t20 -8q10 -9 18 -23q3 -7 3 -14q0 -13 -6 -27q-1 -2 -14 -31q-3 -7 -9 -19q-9 -18 -14 -31q-3 -7 -8.5 -19.5
t-7.5 -17.5q-7 -17 -7 -24v-1l6 2q2 1 8 3q2 1 4 2.5t3 1.5q35 22 56 52q18 25 35 54q14 27 20 27h1q12 0 26 -14t14 -26q0 -1 -6 -22q-9 -31 -10 -34q-2 -8 -6 -22t-4 -15q-5 -18 -5 -23q0 -2 1 -2q7 0 23 19q19 21 36 43q2 3 15.5 20.5t20.5 26.5q18 27 20 31q2 5 3 18
q2 20 5 31q4 15 17 15q8 0 18 -7q8 -5 21 -20q11 -16 11 -28l-1 -5l-3 -5v-45q0 -2 -1 -3q-2 -2 -4 -2q-1 0 -3 2t-2 3v29l-13 -22q-6 -21 -6 -41q0 -24 7 -39q6 -17 16 -17q9 0 19 18q10 16 19 62q0 2 1 3l1 1q4 2 7 3q2 1 6 1t5 -4v-1q-8 -51 -28 -90q-21 -40 -45 -40
q-12 0 -26 18q-12 14 -23 58q-2 -2 -6 -8t-6 -8v-87q0 -2 -1 -3q-2 -2 -4 -2q-1 0 -3 2t-2 3v74q-2 -3 -7 -8q-15 -20 -36 -37q-19 -16 -39 -16l-7 1q-18 4 -33 22q-16 17 -20 38q-21 -20 -37 -28l-1 -1v-53q0 -3 -2 -5q-1 -3 -6 -3q-3 0 -5 3q-3 2 -3 5v46q-8 -2 -11 -2z
" />
    <glyph glyph-name="x" unicode="x" horiz-adv-x="177" 
d="M97 179v-52q0 -3 -2 -5t-5 -2t-5 2t-2 5v40q-5 -4 -10 -9t-11.5 -10.5t-9.5 -8.5l-15 -12.5t-10 -8.5l-1 -1q-1 -1 -1 -3q-1 -1 -1 -3l1 -16q5 -36 14 -48q11 -15 22 -15q18 0 36 26q19 26 23 61q0 1 1 1q0 1 1 2l1 1q4 2 7 3q2 1 6 1t5 -4v-1q-9 -55 -35 -94
q-17 -24 -34 -33v-151q0 -2 -1 -3q-2 -2 -5 -2q-1 0 -3 2t-2 3v147q-3 -1 -10 -1q-20 0 -37 20q-18 19 -30 65q-1 0 -10 -10q-11 -13 -20 -27q-13 -18 -20 -33q-9 -18 -9 -32q0 -6 1 -9q2 -4 11 -8q12 -8 19 -13q10 -9 14 -17q3 -6 3 -10q0 -8 -7 -8l-6 1q-17 6 -34 18v-50
q0 -2 -1 -3q-2 -2 -4 -2q-1 0 -3 2t-2 3v58l-2 2q-23 20 -33 43q-5 13 -5 24q0 32 27 70q23 32 71 80q-1 5 -1.5 15t-0.5 15q-2 36 -3 53q-3 25 -9 39q-4 7 -4 12t6 5t19 -8q12 -7 20 -19q4 -5 7 -18q4 -16 5 -24q1 -12 3 -22q0 -4 1 -6v-3l11 9q21 18 25 22q18 16 25 23
q11 11 11 16v2q0 6 5 6h1q7 0 17 -6q12 -8 18 -16q8 -11 8 -20l-2 -8q-8 -13 -33 -36z" />
    <glyph glyph-name="y" unicode="y" horiz-adv-x="341" 
d="M-186 -201q-19 -23 -33 -53q-14 -31 -14 -45q0 -7 4 -8l15 -1q6 0 8 1q22 6 47 37q24 28 51 68q26 40 41 68q16 28 16 32l-4 -2q-70 -34 -115 -79v-49q0 -4 -2 -6q-4 -2 -6 -2q-4 0 -6 2t-2 6v31zM59 -70v-315q0 -2 -1 -3q-2 -2 -4 -2q-1 0 -3 2t-2 3v310q-17 -8 -26 -11
q-25 -54 -69 -132v-101q0 -2 -1 -3q-2 -2 -4 -2q-1 0 -3 2t-2 3v84q-48 -82 -97 -114q-11 -7 -28 -7h-7q-40 4 -66 30t-26 63q0 12 3 22q22 76 89 126q65 47 146 87q16 8 25 13l13 7l24 52l-3 -3q-14 -14 -27 -25q-18 -17 -44 -33q-23 -16 -45 -16q-7 0 -10 1q-24 8 -39 28
q-16 19 -16 44l1 11q4 25 28 75q24 47 50 82q28 37 48 37h3q12 -3 25 -16t13 -23q0 -6 -7 -9l-6 -3v-49q0 -2 -1 -3q-2 -2 -4 -2q-1 0 -3 2t-2 3v42q-12 -11 -26 -29q-21 -29 -43 -71q-18 -36 -25 -60l-1 -8l5 2q49 26 112 96q62 70 98 116q4 4 6 8q1 1 4 3q1 1 3 1h4
q12 -3 24 -15t12 -24q0 -5 -1 -7q-18 -39 -24 -55q-2 -6 -4.5 -11.5l-5 -11t-3.5 -7.5q-2 -3 -5 -11t-4 -11q-4 -9 -14 -31q-8 -14 -28 -60q36 9 80 36q42 24 65 82q1 1 1 2v2h1q4 2 7 3q2 1 6 1q5 0 5 -3v-2q-11 -58 -51 -101q-42 -45 -85 -71q-25 -16 -35 -20z" />
    <glyph glyph-name="z" unicode="z" horiz-adv-x="176" 
d="M-210 -218l11 13q79 92 106 166q4 9 4 14q0 1 -1 1q-2 0 -13 -8q-61 -41 -99 -155zM-195 -290v-106q0 -2 -1 -3q-2 -2 -4 -2q-1 0 -3 2t-2 3v101q-7 -3 -13 -3l-5 1q-8 2 -20 11q-9 6 -16 19t-7 35q0 54 38 133q38 78 89 112q17 9 25 12l4 2t3.5 2t2.5 1q3 2 3 4
q0 6 -7 14q-23 31 -23 49q0 15 12 25q15 13 34 27q9 6 17 12q2 2 7.5 5.5t8.5 5.5q15 8 15 10q0 1 -3 1h-4q-4 -1 -15 -3q-5 -1 -22 -5q-11 -3 -33 -7q-15 -4 -21 -4h-1q-14 4 -24 18q-12 14 -12 22q0 4 3 6q8 5 34 11q28 5 55 9t51 4h9q20 -3 39 -18q19 -16 19 -35v-3
q-3 -13 -26 -33l-3 -3v-35q0 -4 -2 -6q-4 -2 -7 -2t-5 2q-3 1 -3 6v21q-22 -17 -29 -22q-8 -5 -33 -25q-14 -11 -14 -17v-1l13 -18q7 2 23 6q29 6 56 20q26 13 39 48q0 1 1 1q0 1 1 2l1 1q4 2 7 3q2 1 6 1t5 -4v-1q-9 -48 -40 -79q-21 -23 -45 -36v-85q0 -2 -1 -3
q-2 -2 -4 -2q-1 0 -3 2q-1 1 -1 3v79q-3 -2 -8.5 -4t-8.5 -4q4 -15 4 -31q0 -22 -8 -43q-7 -20 -21 -43q-20 -34 -43 -69q-26 -38 -56 -72q-16 -17 -28 -25z" />
    <glyph glyph-name="braceleft" unicode="{" horiz-adv-x="320" 
d="M255 522v-99q0 -2 -1 -3q-2 -2 -4 -2q-1 0 -3 2t-2 3v93l-6 -3v-70q0 -3 -2 -5t-5 -2q-2 0 -4 2t-2 5v59q-4 -4 -8 -10l-2 -5q0 -1 -1 -3.5t-2 -5.5l-2 -6q-3 -7 -10 -28q-5 -15 -20 -57q-5 -15 -15 -41q-27 -69 -48 -95l-4 -4l3 -5q5 -8 5 -22v-5q0 -4 -2 -16l-9 -27
q-2 -5 -8.5 -22t-11.5 -29q-1 -3 -3 -7q-16 -39 -28 -72q-11 -31 -14 -44q2 0 4 1l3 1q28 14 62 42q1 1 3 2l2 2q1 1 3 1t3 -1q11 -3 22 -14q10 -10 10 -19q0 -2 -1 -3l-5 -5q-16 -13 -36 -27q-18 -12 -29 -17v-131q0 -2 -1 -3q-2 -2 -4 -2q-1 0 -3 2t-2 3v126
q-19 -8 -32 -8q-5 0 -8 1q-25 3 -33 23q-2 8 -3 11t-1 12q0 10 1 13q1 4 3 14v1q4 17 15 47q8 23 32 83q2 5 5.5 13.5t4.5 11.5l4 10l3 7.5t1 3.5q2 6 6 16q0 2 1 4.5t2 4.5t1 3q1 3 1 5v1h-17h-10h-6q-2 0 -3 1h-2v-49q0 -2 -1 -3q-2 -2 -4 -2q-1 0 -3 2q-1 1 -1 3v55l-4 4
q-8 6 -12 13q-3 7 -3 11q0 3 2 5q1 1 10 1h17q8 -1 17 -1q5 0 6 1q1 0 2 1q22 9 53 90q3 9 10 27t9 22q14 42 24 71q2 6 5.5 16t5.5 14l4 12q9 14 23 23q14 10 33 16q2 1 4.5 1.5t4.5 1.5t3 1h13h8h4q1 -1 3 -1q11 -3 18 -9q3 -2 9 -8l8 -8q8 -11 9 -22q1 -3 1 -12t-1 -12
q-1 -2 -1 -5t-1 -4q-1 -3 -4 -6q-2 -2 -5 -2q-8 0 -18 10q-10 9 -15 20q-1 1 -1 3q0 3 1 4t3 5q0 1 1 2q1 3 1 5h-2l-4 -2q-2 0 -5 -1t-4 -1z" />
    <glyph glyph-name="bar" unicode="|" horiz-adv-x="54" 
d="M41 -78q-12 4 -27 21q-5 8 -7 15q-1 1 -4 267t-3 297q0 13 3 15q1 1 5 1q9 -2 15 -7q20 -12 24 -31v-6q0 -7 0.5 -20t0.5 -30.5t0.5 -42.5t1 -52.5t1 -63.5t0.5 -73q3 -271 3 -272q0 -11 -1 -14v-1q-1 -4 -6 -4q-4 0 -6 1z" />
    <glyph glyph-name="braceright" unicode="}" horiz-adv-x="320" 
d="M195 472v-62q0 -2 -1 -3q-2 -2 -4 -2q-1 0 -3 2t-2 3v67l-4 2q-1 1 -2.5 2t-3 3t-2.5 3q-5 5 -6 7q-4 7 -4 12q0 3 1 4l7 7q1 1 6 4.5t8 5.5q10 8 15 11q47 31 73 32h4q6 0 16 -2q10 -4 13 -7q14 -11 14 -37q0 -6 -2 -18q-2 -10 -6 -23q-3 -11 -14 -43q-2 -5 -28 -72
q-11 -29 -12 -31q-1 -4 -2.5 -7.5t-3 -7.5t-2.5 -5q0 -1 -1 -4t-2 -4l-3 -9l-3 -9q-1 -3 -1 -5h17h15q5 0 6 -1t5 -3q3 -2 11 -8q4 -4 8 -10q4 -7 4 -13q0 -3 -2 -5q-1 -1 -9 -1h-12v-67q0 -3 -2 -5t-5 -2t-5 2t-2 5v67h-6v-87q0 -2 -1 -3q-2 -2 -4 -2q-1 0 -3 2q-1 1 -1 3
v87q-2 0 -3 -1q-2 -1 -7 -6q-7 -7 -11 -15q-8 -12 -14 -24q-16 -33 -26 -62q-27 -75 -37 -105q0 -1 -1 -2q-2 -4 -3.5 -9.5t-3 -9.5t-2.5 -6q-2 -6 -5 -12q0 -1 -1 -2.5t-2 -2.5t-1 -2q-8 -11 -23 -20q-14 -9 -32 -14q-13 -3 -25 -3h-8q-9 1 -19 8v-106q0 -2 -1 -3
q-2 -2 -3 -2t-3 2t-2 3v112l-5 5q-5 5 -6 8q-5 7 -5 8q-5 12 -5 23t3 21q1 5 4 8q2 2 5 2q10 -2 17 -8q9 -8 14 -17q3 -7 3 -10l-2 -4l-2 -4l-2 -4v-2q2 0 3 1q3 0 4 1q18 5 33 15q15 9 21 19q1 1 3 5l4 10q1 6 6 19l12 36q7 24 10 30q40 110 67 143l3 4l-2 3q-6 10 -6 26
q0 6 2 18q2 8 9 26l21 54q6 14 14.5 35.5t10.5 28.5q7 19 12 36q7 21 7 23h-1v-1h-2q-1 -1 -4 -2t-5 -2l-9 -6q-13 -7 -24 -16q-13 -11 -24 -18q-2 -1 -4 -3t-3 -2h-3z" />
    <glyph glyph-name="asciitilde" unicode="~" horiz-adv-x="300" 
d="M82 147v-190q0 -4 -1 -5q-1 -3 -4 -3q-1 0 -3 3q-1 1 -1 5v182q-13 -16 -24 -44q-1 -1 -1 -4q0 -1 -1 -1l-1 -2q-2 -2 -5 -2q-6 0 -19 8q-9 7 -13 14q-7 9 -8 13q-1 2 -1 5t1 4l2 6q18 49 44 61q8 5 18 5q11 0 29 -8q15 -7 27 -16q2 -2 36 -31q14 -14 18 -17l9 -6
q1 -1 3 -1l6 2q17 6 36 23q18 18 22 31l2 4l-1 1q-2 2 -3 6l-3 6q0 4 1 5q0 2 1 3q2 2 6 2q8 0 21 -10q12 -10 20 -25q5 -10 5 -19q0 -4 -2 -12q-5 -14 -16 -26l-10 -10v-92q0 -2 -1 -3t-3 -1t-3 1q-2 2 -2 3v84l-6 -4v-60q0 -2 -2 -4t-5 -2t-5 2t-2 4v51l-1 -1
q-2 -1 -6 -2.5t-6 -2.5q-4 -1 -13 -1h-5q-16 5 -32 16q-8 6 -14 12q-2 1 -6.5 5t-9 7.5t-8.5 7.5q-15 14 -25 22q-8 5 -15 7q-1 1 -4 1q-8 0 -16 -7z" />
    <glyph glyph-name="exclamdown" unicode="&#xa1;" horiz-adv-x="0" 
d="M208 472l-24 -33l-4 -2l-4 1q-7 1 -18 10q-10 8 -15 17q-1 1 -1 3t-1 3q-1 2 -1 6q0 1 1 2q0 2 1 3l1 1v1l2 2q1 1 2.5 3.5t2.5 3.5q8 11 18 24q3 3 7 9q2 3 5.5 8.5t5.5 7.5l4 4l2 3l2 2h9q2 -1 6.5 -4t6.5 -4q8 -5 12 -12q8 -14 8 -19v-2l-18 -25v-76q0 -2 -1 -3
q-2 -2 -4 -2q-1 0 -3 2t-2 3v63zM172 287v-129q0 -2 -1 -3q-2 -2 -3 -2q-2 0 -4 2q-1 1 -1 3v101q-1 -3 -8 -22v-50q0 -3 -2 -5t-4 -2q-3 0 -5 2t-2 5v15q-35 -88 -74 -171l-12 -28q-8 -24 -8 -46v-6l2 -17q0 -3 -2 -5t-5 -2q-6 0 -14 5v-111q0 -3 -1 -4q-2 -2 -5 -2
q-1 0 -3 2t-2 4v119q-1 1 -2.5 3t-2.5 3q-7 8 -9 14t-4 20v9q0 23 6 45q0 1 1 2q1 2 3 8t5 11l9 21q106 234 113 303l1 10l-2 13q0 3 1 4q1 0 1 1t1 2h10q8 -3 20 -12q9 -9 13 -19l3 -8q1 -2 1 -5v-9q0 -22 -11 -58z" />
    <glyph glyph-name="cent" unicode="&#xa2;" horiz-adv-x="257" 
d="M34 -72v-107q0 -2 -1 -3q-2 -2 -4 -2q-1 0 -3 2t-2 3v113q-8 5 -15 14q-1 2 -4 6.5t-4 6.5t-1 5l2 6q0 1 0.5 2t1.5 3.5t2 4.5l41 82q1 3 5 13q2 5 6 13q1 6 3 8v1l-2 2q-2 0 -3 1q-33 20 -47 49q-7 13 -7 28q0 14 8 32q17 37 59 72q46 35 79 44q1 0 2 1h2l8 16
q2 5 6.5 16t6.5 16q8 20 12 31q9 19 12 29q4 12 4 16q0 2 -3 5q-5 12 -5 16t2 6q1 1 2 1h3q11 0 24 -10q11 -8 20 -25q2 -4 4 -10q1 -3 1 -11v-6q0 -4 -1 -6q-1 -5 -10 -31v-55q0 -2 -1 -3q-2 -2 -4 -2q-1 0 -3 2q-1 1 -1 3v32q-2 -6 -5 -13.5t-7.5 -17t-6.5 -15.5l-4 -8
l2 -2q16 -17 16 -35q0 -5 -2 -11q-8 -23 -41 -48l-6 -4q-1 -1 -3 -1q-1 -1 -3 -1q-8 0 -16 7q-10 7 -17 17q-7 8 -7 16q0 3 1 4q0 1 2 3q1 1 5 3q1 0 1 1l2 1l6 6q2 1 5 4l2 2q-1 0 -6 -3q-2 -1 -6 -4t-6 -4q-5 -3 -13 -9q-4 -2 -9.5 -7.5t-6.5 -5.5v-40q0 -2 -2 -4t-5 -2
q-2 0 -4 2t-2 4v28q-35 -35 -42 -66q-1 -3 -1 -8q0 -3 1 -4v-2l7 -2q3 -1 11 -1h6q53 4 131 67l4 4q1 1 3 1q1 1 4 1q4 0 5 -1q8 -2 20 -14q15 -15 15 -25q0 -3 -1 -4l-8 -8q-13 -11 -18 -14q-14 -10 -20 -14q-1 -1 -2.5 -2t-2.5 -1v-41q0 -2 -1 -3q-2 -2 -4 -2q-1 0 -3 2
t-2 3v35q-1 -1 -7 -4v-103q0 -3 -2 -5q-3 -3 -6 -3q-4 0 -6 3q-2 2 -2 5v94q-27 -13 -50 -18h-3q-1 -1 -2 -1h-1v-3q0 -1 -2 -11q0 -1 -7 -19q-9 -24 -33 -72l-4 -8q-21 -45 -25 -49q-1 -1 -2 -1h-4q-1 0 -2.5 0.5t-2.5 0.5z" />
    <glyph glyph-name="sterling" unicode="&#xa3;" horiz-adv-x="418" 
d="M53 53l9 6q-3 0 -9 -3q-5 -2 -5 -4h1q2 1 4 1zM292 424v-110q0 -2 -1 -3q-2 -2 -4 -2q-1 0 -3 2t-2 3v95q-6 -10 -17 -32q-3 -6 -6 -15q-1 -3 -2.5 -7t-4 -10.5t-4.5 -11.5q-13 -34 -21 -56q-10 -26 -12 -32l-2.5 -5t-1.5 -4v-2l-1 -1v-1h10q3 1 13 1h15h13q19 0 33 -2
q11 -3 19 -8q6 -4 16 -14q8 -9 9 -16q1 -2 1 -6q0 -3 -1 -4q-2 -3 -6 -3q-5 0 -11 3q-1 0 -2.5 0.5l-3 1t-3.5 0.5h-23h-26q-4 -1 -14 -1.5t-15 -0.5q-9 0 -14 -1h-18l-10 -2h-2l-3 -8q-11 -29 -26 -66q-1 -2 -2.5 -5.5t-1.5 -4.5q-3 -7 -3 -10l7 -3q29 -8 58 -21
q15 -6 24 -9q6 -2 18 -4q16 -2 23 -2q22 0 41 9q19 10 33 27q0 1 1 1l1 2q1 1 2 1q1 1 4 1q5 0 11 -3q11 -6 20 -17q9 -12 9 -20v-1q0 -5 -14 -19q-14 -12 -22 -16v-131q0 -3 -1 -4q-2 -2 -4 -2t-4 2t-2 4v126q-2 -1 -5.5 -2t-4.5 -1v-55q0 -3 -2 -5t-5 -2t-5 2t-2 5v51h-5
h-9q-3 -1 -6 -1h-7q-21 1 -50 11q-1 0 -2 1q-2 1 -8 3q-8 2 -11 4l-9 3q-26 10 -39 14l-10.5 3.5t-11.5 4.5q-14 4 -19 5q-2 0 -5 1q-4 1 -5 1q-2 -2 -3 -6q-1 -1 -2 -3t-2 -3q-1 -4 -3 -6q-1 -1 -3 -4q-3 -3 -6 -5q-4 -3 -14 -10q-6 -5 -12 -6q-6 -2 -7 -2q-2 -1 -7 -1h-5
q-6 0 -9 1q-9 3 -11 4q-10 4 -25 19q-14 14 -21 28q-8 16 -8 26v5q2 13 16 17q8 2 11 3h15q16 0 23 -1q18 -2 25 -4h5l1 -1q2 1 6 12q2 4 5 12.5t5 13.5q2 7 10 25q2 6 2 7l1 2q1 1 1 2q-3 0 -7 -1q-10 0 -16 -1q-3 0 -6 -0.5t-5.5 -1t-3.5 -0.5h-1v-39q0 -2 -1 -3t-3 -1
t-3 1q-2 2 -2 3v39h-1q-15 5 -24 17q-12 14 -12 23q0 5 3 6l6 2q7 0 14 1l22 2q7 0 21.5 1.5t22.5 2.5q2 0 6 0.5t6 1.5h4v1l1 1q0 2 1 3q0 2 1 3t3 5q1 2 3 8t3 10q1 3 5 13q1 7 6 16q1 2 3 8.5t4 10.5q12 33 18 47q3 9 8 21.5t6 16.5q3 8 8 18q1 4 5 12q31 67 73 88
q14 7 31 7q18 0 31 -7q18 -9 29 -20q33 -35 33 -73q0 -31 -22 -60q-2 -2 -4 -5.5t-4 -4.5l-4 -4l-3 -2q-1 -1 -4 -1q-11 0 -27 16q-13 16 -13 25v2q0 2 1 3l4 4q24 26 27 52v8v12l-2 6q-1 0 -1 1l-2 1h-6q-5 0 -8 -1q-31 -7 -58 -45z" />
    <glyph glyph-name="currency" unicode="&#xa4;" horiz-adv-x="437" 
d="M219 330q-8 -6 -12 -10v-119q0 -2 -1 -3q-2 -2 -4 -2q-1 0 -3 2t-2 3v110l-7 -7q-42 -41 -53 -89q-3 -14 -3 -26q0 -20 8 -38q3 -7 8 -12q6 -7 8 -9q7 -4 9 -4q3 -1 11 -3h5h8q5 0 7 1q54 12 91 70q15 23 20 54q0 3 1 5v5v8v9v5q-1 1 -1 4q-3 19 -14 32q-2 2 -14 12
q-14 8 -21 11q0 1 -1 1t-2 1q-2 0 -3 1h-1h-2q-1 0 -2 1h-2q-3 0 -5 -1q-1 0 -3.5 -1t-3.5 -2v-67q0 -4 -2 -6t-6 -2q-3 0 -5 2q-3 2 -3 6v58zM126 124v-49q0 -3 -2 -5t-4 -2q-3 0 -5 2t-2 5v44q-14 -17 -50 -42q-6 -4 -10 -7q-8 -6 -11 -8q-5 -4 -7 -4q-1 -1 -6 -1
q-10 3 -17 13q-9 9 -12 19v3q0 4 1 5q1 0 8 5q2 1 8 5q46 28 63 40q9 6 10 7t3.5 2.5t3.5 2.5t2 1l1 1q0 2 -3 8q-11 27 -11 53q0 31 14 62l6 12q5 9 6 11l2 2q0 2 -5 5q-4 3 -15 14l-16 16q-7 9 -21 25q-12 14 -13 16q-1 1 -1 3q0 1 2 7q1 2 2.5 4t1.5 3l6 6q11 10 19 10h3
q1 0 1 -1t1 -2q6 -9 11 -16q9 -13 17 -22q3 -4 7.5 -10.5t5.5 -8.5q6 -8 9 -11q2 -3 5 -6l2 -2q1 0 1 1l2 2q1 0 1 1t1 2q11 11 18 17q3 2 9.5 7t9.5 7l5 3l-2 4q-3 6 -3 10q0 8 8 8q4 0 14 -3q18 -5 23 -7q58 -19 95 -61l4 -4l4 5q20 22 65 86l5 5l1 2l1 2l2 2h2
q8 0 22 -11q13 -14 13 -23q0 -3 -1 -4q-2 -4 -9 -11q-5 -5 -15 -17q-5 -7 -15 -17l-5 -5l-6 -6l-6 -6q-12 -12 -16 -15q-2 -1 -5.5 -4t-4.5 -5l-9 -6h-1l-1 -1l1 -2q1 -1 1 -2q1 -2 1 -3q13 -25 13 -57q0 -41 -22 -78q-1 -1 -1 -2q-1 -1 -1 -2l-1 -1q2 -2 18 -15t39 -30
l2 -2q6 -5 10 -6l4 -4q1 -1 1 -4v-3q-1 -6 -9 -14q-5 -5 -15 -11q-6 -2 -7 -2q-3 0 -4 1l-2 2q-8 6 -20 18q-1 0 -2.5 2t-2.5 2v-114q0 -2 -1 -3q-2 -2 -3 -2t-3 2t-2 3v123l-5 5l-6.5 6.5t-6 5.5t-3.5 4l-5 6l-5 -4q-34 -34 -73 -40q-3 -1 -12 -1h-12q-31 5 -60 27
q-4 3 -13 12z" />
    <glyph glyph-name="yen" unicode="&#xa5;" horiz-adv-x="382" 
d="M355 396v-103q0 -2 -1 -3t-4 -1q-2 0 -3 1q-2 2 -2 3v89l-6 -8v-61q0 -2 -2 -4t-5 -2q-2 0 -4 2t-2 4v43q-66 -87 -99 -111l-4 -3h10q32 0 47 -3q16 -5 25 -14q17 -19 17 -29q0 -6 -4 -7h-4q-4 0 -6 1q-9 4 -80 4h-27q-1 0 -2 -3q-1 -2 -1 -8q-1 -2 -1.5 -5t-0.5 -5
q-2 -10 -3 -14l-4 -14h77l3 -1q12 -5 23 -17q11 -14 11 -22q0 -6 -4 -7h-1q-1 -1 -2 -1h-4h-7h-11h-16h-21l-61 -1l-3 -9q-2 -4 -4.5 -13t-3.5 -12q-2 -6 -7.5 -23t-8.5 -26q-8 -24 -12 -35t-9 -26q-1 -2 -1 -4l-1 -1v-100q0 -2 -1 -3q-2 -2 -4 -2q-1 0 -3 2t-2 3v99
q-10 3 -19 12q-12 12 -16 21q-1 2 -1 5q0 5 1 8q3 9 5 13l13 39q2 7 6.5 19.5t6.5 17.5q1 4 3 10v3h1v1q-1 0 -1 1h-28h-21h-10q-1 0 -2.5 -0.5t-2.5 -1.5h-2q0 -1 -1 -2v-1q-1 -4 -8 -4h-3q-9 3 -22 14q-12 12 -13 21q-2 4 -2 5v3q2 8 12 11q1 1 2 1q2 1 3 1h9q9 0 18 1h33
q27 0 38 1h16l8 26q1 1 1 4t1 5t1 5t1 4q0 1 1 2v1q0 1 -1 1h-4h-5q-7 -1 -24 -1h-10v-29q0 -2 -1 -3q-2 -2 -3 -2t-3 2t-2 3v28h-3h-4q-1 -1 -2 -1q-4 -2 -6 -4q-4 -3 -7 -7l-6 -6h-3q-7 0 -17 7t-17 17q-2 3 -4 9q-2 4 -2 7v3v1l1 1q2 4 5 7q5 5 8 6q4 4 7 5t7 3h7
q4 1 15.5 1.5t16.5 0.5h44h2q7 0 10 1h5h4h2l1 1q1 2 1.5 6t0.5 6q1 5 1 12v4l-3 7q-3 5 -5 10q0 1 -1 3t-2 4.5t-1 4.5t-1.5 6t-2.5 7q-4 15 -4 17q0 3 -2 13t-3 17q-2 8 -4.5 19.5t-3.5 14.5q-2 5 -7 23q-4 14 -9 22l-2 4h-3q-2 1 -5 1q-1 0 -1 1l-2 1q-2 0 -3 1
q-13 7 -21 18q-9 11 -9 19q0 6 3 7q1 1 4 1t6 -1q34 -8 62 -43q20 -26 34 -79q0 -1 1 -4t1 -4q0 -2 1 -5.5t1 -4.5q2 -12 9 -41q0 -2 0.5 -5.5t1.5 -5.5q0 -3 1 -3v-2q3 2 15 12q15 15 23 24q20 22 48 60q36 50 54 77q3 4 6 9l2 2q1 1 1 2h1q1 1 4 1q10 0 26 -15
q14 -17 14 -25v-4l-1 -2q-1 -2 -3 -5l-4 -6l-18 -27q-1 0 -1 -1z" />
    <glyph glyph-name="brokenbar" unicode="&#xa6;" horiz-adv-x="267" 
d="M53 -115v-124q0 -2 -1 -3q-2 -2 -4 -2q-1 0 -3 2t-2 3v117h-2q-3 0 -5 1q-9 1 -21 13q-15 16 -15 26q0 6 4 7q15 8 52 111l5 15q1 3 8 21.5t11 30.5q4 11 6 18q1 2 2.5 5.5t1.5 4.5q2 4 3 5l3 3q6 6 15 6q13 0 27 -10q16 -10 22 -23q2 -4 3 -5v-4v-3v-2v-1l-2 -2
q-2 -2 -4 -2q-3 0 -5 1q-1 0 -2 1q-3 0 -4 1t-3 1q-1 0 -3 -3v-70q0 -3 -2 -5t-5 -2q-2 0 -4 2t-2 5v40q-1 -2 -2.5 -7t-2.5 -7q-48 -141 -69 -165zM210 232v-44q0 -2 -1 -3t-3 -1t-3 1q-2 2 -2 3v23q-1 -1 -2 -1q-1 -1 -4 -1q-4 0 -6 1q-10 3 -21 14q-14 16 -14 25q0 1 1 2
q0 2 1 3q0 1 1.5 4.5t2.5 6.5q31 74 44 113q9 27 12 41q3 15 3 30v8l-2 3q-2 3 -4 9t-2 7q0 3 1 4l2 2q1 1 5 1q6 0 19 -8q1 -1 5 -3q1 -1 2.5 -3t1.5 -3q18 -17 20 -40v-10q0 -18 -4 -37q-7 -34 -35 -103v-140q0 -3 -1 -4q-2 -2 -5 -2q-1 0 -3 2t-2 4v113q-6 -15 -7 -17z
" />
    <glyph glyph-name="section" unicode="&#xa7;" horiz-adv-x="384" 
d="M210 210q41 25 43 47l1 3l-3 2q-7 7 -29 17l-30 15l-5 3l-3 -1q-28 -14 -42 -31q-12 -15 -12 -24q0 -2 3 -4q7 -7 29 -16q22 -11 28 -15l6 -4l5 3q2 1 5 3zM342 381v-144q0 -2 -1 -3q-2 -2 -5 -2q-1 0 -3 2t-2 3v133q-2 -2 -6.5 -5t-6.5 -5v-48q0 -2 -1 -3t-4 -1
q-2 0 -3 1q-2 2 -2 3v42q-14 -6 -21 -7q-3 -1 -10 -1t-13 2q-27 9 -42 32q-5 8 -5 13q0 8 9 8h1l6 -2q1 0 2.5 -1t2.5 -2t2 -1q1 -1 2 -1h3q15 0 38 17l22 22l2 3l6 9q1 3 5 9q0 2 2 4.5t2 3.5l2 4l-2 -1q-3 -1 -5 -1l-15 -6q-2 -2 -7.5 -4t-8.5 -4q-41 -21 -66 -41
q-30 -23 -44 -44l-2 -3l-2 -4q-1 -3 -3 -7l-1 -4l4 -3q4 -4 14 -10q8 -4 21 -12q14 -6 16 -7l10 -5q6 -4 10 -7q15 -10 26 -21q20 -20 26 -31q6 -13 6 -24q0 -17 -13 -33q-16 -18 -39 -32q-1 -1 -2 -1q0 -1 -1 -1h-1v-1h2v-2q1 0 1 -1q13 -14 14 -29q1 -2 1 -7t-1 -8
q-5 -20 -28 -42q-30 -30 -76 -56q-26 -14 -38 -19v-79q0 -3 -2 -5q-3 -3 -6 -3q-4 0 -5 3q-3 1 -3 5v72q-8 -2 -11 -3v-121q0 -2 -1 -3q-2 -2 -4 -2q-1 0 -3 2t-2 3v118l-8 -2q-10 -2 -17 -2q-6 0 -9 1q-7 2 -19 8q-23 17 -29 38q-1 3 -1 9q0 7 1 10q8 24 18 44q11 20 27 35
q7 7 17 15q10 6 16 9q13 7 28 7q9 0 17 -3t20 -12q9 -6 16 -17l2 -2v-2q1 -1 1 -2q3 -6 3 -10q0 -7 -8 -7q-6 0 -13 4l-3 3h-4h-3q-2 -1 -5 -1q-31 -10 -60 -50l-2 -4q-4 -6 -6 -11q-3 -4 -3 -7q1 0 9 3q6 2 15 6q2 2 7 4t8 4q37 19 69 44q31 24 42 43q1 2 2 4.5t2 3.5l2 6
v2l-4 4q-10 8 -15 11q-1 0 -4.5 2t-6.5 3v-39q0 -1 -2 -3t-5 -2t-5 2t-2 3v46h-1q-39 18 -65 47q-13 13 -18 25t-5 21q0 20 20 40q13 13 32 24l3 3h1l-2 4q-7 5 -10 15q-6 10 -6 20q0 13 11 29q20 30 72 65q53 33 96 45q12 4 25 4q5 0 13 -2q7 -2 14 -6t14 -11
q19 -19 19 -37q0 -5 -1 -8q0 -1 -1 -3t-1.5 -4.5t-1.5 -4.5q-8 -25 -22 -45q-10 -14 -15 -20z" />
    <glyph glyph-name="dieresis" unicode="&#xa8;" horiz-adv-x="173" 
d="M151 503q-1 -1 -7 -10q-3 -3 -6.5 -7.5t-4.5 -5.5q-4 -5 -4 -7h-6q-8 1 -18 11q-9 7 -12 17q-1 1 -1 3v2v2l22 30q22 30 23 30q1 1 2 1h2q9 -2 19 -10q10 -10 13 -20v-2q0 -3 -1 -4q0 -1 -2 -3q-1 -3 -2 -4t-11 -15zM44 483v-55q0 -3 -2 -5t-5 -2q-2 0 -4 2t-2 5v45h-1
q-8 1 -18 11q-9 7 -12 17v7l44 60q1 1 2 1h3q9 -2 19 -10q9 -11 12 -20v-1q1 -1 1 -2l-2 -4l-6 -10q-1 -1 -5.5 -7t-7.5 -11v-96q0 -2 -1 -3q-2 -2 -4 -2q-1 0 -3 2t-2 3v83z" />
    <glyph glyph-name="copyright" unicode="&#xa9;" horiz-adv-x="425" 
d="M235 19v-79q0 -1 -1 -2q-2 -2 -4 -2q-1 0 -3 2q-1 1 -1 2v77l-8 -2v-114q0 -2 -1 -3q-2 -2 -4 -2q-1 0 -3 2t-2 3v112l-14 -2h-29q-37 3 -73 20q-38 17 -59 40q-22 25 -30 55q-3 10 -3 24t3 27q11 61 69 138q15 20 19 24q2 4 10 11q1 1 4 1q6 0 14 -5q14 -10 19 -17
q7 -10 7 -18v-2v-2l-2 -2l-1 -2l-3 -3l-1 -1q-66 -79 -86 -149q-4 -15 -4 -31q0 -19 6 -29q2 -5 4 -6l9 -6q25 -13 59 -18q5 -1 20 -1q14 0 19 1q23 2 42 9q66 23 114 81l4 6l-1 -1q-1 0 -1 -1q-1 -1 -3.5 -2.5t-3.5 -2.5q-65 -48 -115 -56q-4 -1 -14 -1t-14 1q-21 5 -39 16
q-2 1 -5 4l-4 4q-9 6 -10 7q-5 5 -7 8v-44q0 -2 -2 -4t-5 -2t-5 2t-2 4v65q-5 11 -6 19q-1 3 -1 13q0 9 1 12q6 25 27 50q22 27 52 49q29 22 57 31q9 4 21 4h9q4 -2 7 -3q11 -4 26 -17q13 -13 19 -27q0 -1 0.5 -3.5t1.5 -3.5v-8q0 -16 -16 -35q-7 -7 -12 -11q-6 -6 -14 -12
l-10 -6h-2q-9 0 -25 13q-16 16 -16 27q0 3 1 4l1 1l2 2q1 0 1 1l2 1q3 2 8 7q3 2 7 6l2 1h-1q-1 -1 -5 -3q-1 0 -2.5 -1t-2.5 -2t-2 -1q-3 -1 -6 -4q-36 -24 -60 -55q-23 -31 -23 -53v-1v-2q0 -2 1 -3h2q1 -1 2 -1h3q1 -1 5 -1h6h9q4 0 6 1q37 6 84 38q1 1 3 2.5t4.5 3
t3.5 2.5q21 15 26 19q3 3 5 4q2 2 3 2h2q6 0 9 -1q4 -1 13 -8q8 -6 12 -12q1 -1 1 -2q1 -2 1 -3t1 -2l2 -2t1 -3v-1l5 6q32 62 32 120q0 17 -3 33q-4 16 -7 24q-4 9 -10 15q-7 6 -22 9h-1v-144q0 -2 -1 -3q-2 -2 -4 -2t-4 2t-2 3v146h-9q-49 0 -114 -37q-2 -1 -4 -2.5
t-3 -1.5q-3 -1 -9 -5q-1 -1 -3.5 -2.5t-3.5 -2.5t-3 -1q-1 -1 -2 -1h-2q-10 0 -23 12q-12 11 -17 25q-1 1 -1 4t2 5q1 1 9 6q10 6 16 9q3 1 9 4.5t9 5.5q47 24 91 29q5 1 18 1t18 -1q29 -5 53 -21q29 -19 49 -54q22 -40 22 -90q0 -47 -19 -95q-1 -2 -3.5 -8t-4.5 -9t-5 -9
t-5 -9q-51 -87 -142 -118q-2 0 -5.5 -1t-5.5 -2z" />
    <glyph glyph-name="ordfeminine" unicode="&#xaa;" horiz-adv-x="240" 
d="M139 612q-6 2 -10 2q-39 0 -88 -85l5 2q34 17 93 81zM109 523v-72q0 -3 -2 -5t-5 -2t-5 2t-2 5v62l-6 -4v-78q0 -2 -1 -3q-2 -2 -4 -2q-1 0 -3 2q-1 1 -1 3v72q-1 0 -2.5 -0.5t-2.5 -1.5q-16 -8 -27 -8h-5q-25 6 -41 34q-2 6 -2 9t1 4t3 5v1q18 34 46 69q25 31 57 31
q21 0 43 -18l2 4l6 9q2 3 7 3q6 0 20 -14q9 -9 9 -14q0 -6 -6 -12q-5 -5 -13 -18q-6 -10 -13 -35v-7q0 -13 10 -13h2q14 0 30 15q18 16 22 41q0 1 1 2v1h1q4 2 5 3h4q3 0 4 -3l-1 -1q-10 -37 -35 -59q-26 -23 -47 -23h-5v-125q0 -2 -1 -3q-2 -2 -4 -2q-1 0 -3 2t-2 3v129
q-9 8 -12 23q0 6 -1 8l-3 -3q-3 -3 -5 -4q-3 -4 -13 -12z" />
    <glyph glyph-name="guillemotleft" unicode="&#xab;" horiz-adv-x="253" 
d="M167 68v-114q0 -2 -1 -3q-2 -2 -4 -2q-1 0 -3 2t-2 3v124q-6 6 -8 9q-6 6 -15 15.5t-12 12.5q-26 32 -26 44v2q0 1 1 1v1h-2q-1 -1 -4 -3q-12 -10 -24 -18l-6 -4l-8 -5l4 -4q5 -5 17.5 -18t20.5 -21q11 -11 21 -19q4 -5 9 -10q0 -2 1.5 -4t2.5 -4q3 -6 3 -10q0 -3 -1 -4
q-1 -3 -7 -3q-8 0 -18 7q-4 3 -21 20q-5 4 -14 13v-54q0 -2 -2 -4t-5 -2t-5 2t-2 4v68q-1 2 -4 5l-2 2v-95q0 -1 -1 -2q-2 -2 -4 -2q-1 0 -3 2q-1 1 -1 2v104l-16 16q-26 32 -26 45v2q0 1 0.5 2.5t1.5 2.5l5 2q20 11 92 68q3 3 9 7q3 2 5 4q1 1 3 1q6 0 13 -4q5 -3 13 -11
q15 -16 15 -26q0 -4 -1 -5q-4 -4 -11 -9q-11 -9 -27 -21q-2 -1 -5 -4t-5 -4l-1 -1q-1 -1 -2 -1t-1 -1h-1v-1l4 2q1 1 3.5 2.5t3.5 2.5q20 13 80 60l12 9l3 3q1 1 3 1q7 0 19 -9q10 -7 16 -16q6 -10 6 -16q0 -3 -1 -4q0 -1 -38 -31q-1 -1 -5 -3.5t-6 -4.5q-31 -25 -47 -35
l-7 -4l7 -7q2 -2 8.5 -9t11.5 -12l26 -26q12 -11 17 -17q6 -8 7 -12q2 -6 2 -8q0 -6 -7 -6h-4q-4 2 -7 3l-4 2l-4 2q-4 3 -21 20q-3 2 -7 6.5t-7 6.5z" />
    <glyph glyph-name="logicalnot" unicode="&#xac;" horiz-adv-x="281" 
d="M218 169v-113q0 -2 -1 -3q-2 -2 -4 -2q-1 0 -3 2t-2 3v122l-4 5q-12 13 -12 24q0 4 1 5q0 12 10 31l3 5h-4q-5 0 -12 -1q-1 0 -10.5 -1.5t-15.5 -2.5l-9 -1q-4 0 -12.5 -1t-13.5 -1q-12 -1 -22 -3q-1 0 -4 -0.5t-4 -0.5v-73q0 -2 -1 -3q-2 -2 -4 -2q-1 0 -3 2t-2 3v72
q-4 -1 -11 -1q-6 0 -9 1q-1 1 -4.5 2t-5.5 1q-15 5 -28 15q-16 11 -22 19q-9 12 -9 20q0 6 7 7q8 0 22 -11q5 -3 10 -5q2 -1 8 -1q8 0 15 1q21 3 40 6q48 5 63 7q31 3 58 6l8 1q5 1 8 1h1l2 -2l1 -1q1 -1 2 -1t2 -2l1 -2q3 -3 6 -5q4 -6 7 -9l20 -23l-3 -5q-8 -14 -24 -43
q-10 -19 -13 -31l-1 -2q0 -2 1 -3v-4q0 -5 -3 -7q-1 -1 -4 -1v-52q0 -2 -1 -3q-2 -2 -4 -2l-2 2q-2 2 -2 3v54q-1 0 -3.5 1.5t-3.5 2.5z" />
    <glyph glyph-name="registered" unicode="&#xae;" horiz-adv-x="425" 
d="M225 283q25 15 36 30q1 2 1 3l1 2q-3 -1 -7 -1q-29 -9 -36 -12l-5 -2l-1 -3l-5 -25q2 0 16 8zM213 54v-117q0 -2 -1 -3q-2 -2 -4 -2q-1 0 -3 2t-2 3v115q-1 0 -3.5 -0.5t-3.5 -0.5q-5 -1 -15 -1t-14 1q-32 1 -65 14q-14 6 -22 11q-12 6 -21 12t-18 15q-7 5 -15 16
q-26 32 -26 72q0 14 3 29q13 60 69 135q9 13 18 24q6 9 11 11q1 1 4 1q1 0 7 -2q10 -4 20 -13q9 -11 12 -20q1 -2 1 -6q0 -3 -1 -4q-1 -2 -6 -7q-4 -4 -6 -8q-3 -3 -3 -4l2 1q1 1 5 3q2 1 5 2t4 2q3 2 9.5 5.5t9.5 4.5q0 1 1 1t2 1q1 0 1 1v1q1 0 1 2q1 1 1 3q1 2 1 3
q0 5 1 8v4q0 1 1 1l1 2l2 2q1 1 3 1q8 0 22 -11l4 -3l7 1q15 4 28 4q10 0 21 -3q11 -4 27 -16q12 -13 20 -26q7 -13 7 -25q0 -9 -5 -19q-17 -32 -85 -59l-8 -4l2 -3l4 -6q0 -1 5 -8q1 -1 3 -4q1 -2 3 -4l2 -2q17 3 31 13q1 0 1 1l2 1h2h2q8 0 19 -8q4 -2 8 -6t6 -8l2 -3l3 3
q1 1 6 7t8 10q8 9 12 18q30 48 38 108v14v17q-1 5 -1 12q-3 27 -13 43q-4 7 -11 11q-13 7 -30 8v-57q0 -2 -1 -3q-2 -2 -4 -2l-2 2q-2 2 -2 3v57q-8 0 -13 -1q-52 -6 -119 -48l-6 -4q-1 -1 -4 -1t-4 1q-15 5 -28 20q-9 13 -9 21q0 3 1 4t22 14q74 42 129 42q34 0 63 -17
q18 -10 32 -25q26 -25 39 -61q10 -27 10 -62q0 -56 -29 -116q-63 -119 -183 -141zM92 276l-6 -9v-68q0 -3 -2 -5t-5 -2t-5 2t-2 5v42q-16 -30 -23 -64q-1 -3 -1 -11v-12v-8q1 -3 2.5 -7t1.5 -6q1 -5 4 -8q8 -6 14 -8l18 -9q20 -8 43 -9h36q51 7 92 35l7 4l-4 1q-24 1 -46 28
q-5 5 -13 16q-7 11 -12 18q-1 1 -1 3h-1q-2 0 -3 -4q0 -2 -1 -3q-7 -17 -13 -27q-7 -13 -12 -16q-1 -1 -3 -1q-5 0 -12 4q-10 6 -14 10q-15 15 -15 26v3q0 2 3 5q12 15 24 48q2 6 3 10q0 1 1.5 5t2.5 5q1 3 1 6q-1 0 -2 1q-5 1 -14 8q-8 6 -12 13l-4 8l-3 5h-1q-1 -1 -3 -5
q-1 -1 -7 -9l-4 -6v-101q0 -2 -1 -3q-2 -2 -3 -2t-3 2t-2 3v87z" />
    <glyph glyph-name="macron" unicode="&#xaf;" horiz-adv-x="165" 
d="M117 422v-67q0 -2 -2 -4t-4 -2q-3 0 -5 2t-2 4v68h-2q-4 1 -12.5 1.5t-12.5 0.5q-5 0 -14 0.5t-13 1.5l-15 2q-9 3 -18 12q-9 8 -14 17q-3 8 -3 11q0 5 3 6q1 0 2 1h1h6q2 -1 6 -1.5t6 -0.5q29 -3 50 -3h14h14q5 0 7 1q1 0 3.5 0.5t3.5 1.5l1 1q1 1 2 1q2 2 6 2
q11 0 25 -13t15 -24v-3v-3q-1 -1 -1 -2t-1 -2q-7 -7 -30 -8v-88q0 -1 -1 -2q-2 -2 -4 -2q-1 0 -3 2q-1 1 -1 2v87h-7z" />
    <glyph glyph-name="degree" unicode="&#xb0;" horiz-adv-x="129" 
d="M105 456v-67q0 -3 -2 -5t-5 -2t-5 2t-2 5v55q-1 0 -2.5 -1t-2.5 -2q-11 -6 -23 -6q-21 0 -40 19q-23 26 -23 51q0 12 5 25q8 17 16 27q8 9 20 19q1 0 1 1l2 1q1 0 2 1l-1 1q-1 2 -1 5q0 4 4 4h1q72 -20 79 -66q1 -4 1 -11q0 -16 -8 -34v-104q0 -1 -2 -3t-3 -2q-2 0 -4 2
q-1 1 -1 3v88zM44 538l-2 -2q-9 -10 -15 -24q-5 -13 -5 -23q0 -14 11 -27q5 -5 13 -5q10 0 20 6q21 11 31 31q9 15 9 31q0 7 -1 10q-1 15 -26 26q-1 1 -2 1q-2 0 -3 1t-2 1t-2 1v-1q-2 -2 -3 -4q-2 -4 -6 -5q-3 -2 -8 -7v-54q0 -1 -2 -3t-3 -2t-3 2q-1 1 -1 3v44z" />
    <glyph glyph-name="plusminus" unicode="&#xb1;" horiz-adv-x="277" 
d="M227 94v-119q0 -1 -2 -3t-3 -2q-2 0 -4 2q-1 1 -1 3v118h-9v-76q0 -5 -3 -6q-2 -2 -5 -2q-2 0 -6 2q-2 2 -2 6v75q-10 -1 -35 -1h-68q-11 0 -32.5 0.5t-31.5 1.5q-27 0 -30 1q-12 4 -25 19q-10 13 -10 21q0 6 3 7h19q21 -1 51 -1q13 -1 57 -1h41q18 0 25 1q14 0 21 1
q27 2 34 6l6 1h3q13 -5 23 -16q13 -12 14 -23q0 -3 -3 -8q-5 -4 -27 -7zM146 259h-16l-6 -18q-19 -56 -19 -75v-4q0 -3 1 -4l2 -7l-1 -5q-1 -3 -6 -3l-5 1q-8 2 -10 5q-1 0 -2 1q-18 13 -26 33q-1 3 -1 12q0 20 10 54l2 8l-37 -1l-11 -1q-4 0 -5 1t-2 1q-2 1 -3 1
q-11 7 -22 18q-9 10 -9 20l1 4l2 2q1 1 4 1q5 0 8 1h1q8 1 24.5 1.5t24.5 0.5q18 1 41 1l1 3q0 1 5.5 16t9.5 25q12 29 18 46q1 3 2.5 6l2.5 5l2 4t1.5 3.5t1.5 2.5v1q2 2 6 2q10 0 26 -15q14 -14 14 -25q0 -1 -1 -2q0 -3 -1 -6q-2 -4 -3 -7q-3 -8 -11 -26q-4 -14 -9 -24
l-2 -6q-1 -1 -1 -3h-1v-1l9 -1q30 -3 46 -9q18 -7 28 -18l10 -11q7 -10 7 -19q0 -4 -3 -6l-4 -1q-8 0 -22 11q-5 4 -38 5q-3 1 -12 1.5t-13 0.5v-50q0 -1 -2 -3t-3 -2t-3 2q-1 1 -1 3v50z" />
    <glyph glyph-name="twosuperior" unicode="&#xb2;" horiz-adv-x="222" 
d="M156 513v-89l-2 -2q-2 -2 -3 -2q-3 0 -3 2q-1 1 -1 2v89h-7v-68q0 -3 -2 -5l-4 -2q-3 0 -5 2q-2 1 -2 5v68q-26 -1 -79 -8l-6 -1l-3 1q-6 1 -13 8t-8 12v3l1 3q6 18 45 46q10 8 23 17l32 20q2 2 6 4.5t5 2.5q8 6 9 7q2 1 3.5 2.5t2.5 1.5q1 1 5 3l14 14q32 33 38 61l1 4
q0 4 -1 6v3l-2 2q-2 1 -4 1h-3h-4h-7q-1 -1 -3 -1.5t-3 -0.5q-18 -6 -38 -23q-15 -12 -31 -30v-48q0 -1 -2 -3t-3 -2q-3 0 -3 2q-1 1 -1 3v37q-3 -3 -9 -11l-3 -3q-1 -1 -3 -1h-1q-9 2 -14 8q-8 9 -8 16v1q0 2 6 10q4 4 16 18l12 12q4 5 12 11q32 29 57 33l9 1l6 -1
q17 -3 36 -20q17 -17 17 -37l-1 -11q-6 -25 -34 -58l-13 -13q-2 -2 -6.5 -5.5t-6.5 -5.5q-2 -1 -4 -3q-1 -1 -3 -2t-3 -2q-4 -1 -10 -6q-15 -9 -36 -23q-3 -2 -24 -17l-14 -11l-1 -1l9 1q32 2 41 2q12 0 28 -2q10 -1 19 -9q1 -1 3.5 -3t4.5 -4q2 -3 6 -7q3 -5 3 -8
q0 -4 -5 -4h-1q-2 0 -6 2q-1 1 -5 3l-1 1q-1 1 -2 1h-6q-5 0 -7 1z" />
    <glyph glyph-name="threesuperior" unicode="&#xb3;" horiz-adv-x="225" 
d="M186 536v-106q0 -2 -1 -3t-4 -1q-2 0 -3 1q-2 2 -2 3v93l-6 -6v-67q0 -2 -2 -4t-5 -2t-5 2t-2 4v54l-12 -10q-20 -11 -25 -13q-18 -5 -30 -5h-7q-24 3 -43 18q-34 28 -39 65q0 4 1 6v4q2 2 4 2q1 0 7 -2q9 -6 10 -7q4 -4 6 -9q0 -1 1 -1l1 -2v-3v-5v-8q3 -12 10 -19
q5 -5 13 -7q8 -3 17 -3q14 0 32 8q19 9 37 27q31 28 31 48l-2 1q0 1 -1 1t-2 1q-3 0 -5 1q-3 0 -4 1q-15 3 -32 3l-13 -1h-5q-2 0 -3 1q-3 0 -4 1q-8 4 -16 15q-2 6 -2 8t2 4q1 1 5 1h10h15q9 0 14 -1l2 1q31 10 51 35q15 21 15 41v7q-1 6 -3 8h-6h-3h-3q-1 -1 -2 -1
q-22 -4 -49 -27v-41q0 -2 -1 -3q-2 -2 -4 -2q-1 0 -3 2q-1 1 -1 3v34q-3 -2 -8 -7q-5 -4 -16 -15q-1 -1 -3 -4h-3q-7 0 -16 9l-5 5l-3 7l-1 3l1 3l5 5l9 9q43 41 76 49l10 1q20 0 37 -16q19 -18 21 -41l1 -8q0 -8 -1 -11q-6 -32 -34 -54l-12 -9l-2 -1l2 -2l2 -2q2 -1 3 -2
l5 -5q11 -14 11 -27q0 -12 -7 -23z" />
    <glyph glyph-name="acute" unicode="&#xb4;" horiz-adv-x="64" 
d="M37 520v-49q0 -3 -2 -5t-4 -2q-3 0 -5 2t-2 5v35l-4 -4q-8 -6 -14 -6q-3 0 -4 1t-1 5q-1 3 -1 9q0 5 1 8v4q5 9 8 18q0 3 1.5 11t2.5 12q1 13 5 26q3 6 12 12l8 4t8 5l2 1q5 4 10 4q4 0 6 -5v-4q0 -12 -4 -27q-3 -16 -7 -25v-104q0 -2 -1 -3q-2 -2 -4 -2q-1 0 -3 2
q-1 1 -1 3v80l-3 -6l-1 -2z" />
    <glyph glyph-name="mu" unicode="&#xb5;" horiz-adv-x="373" 
d="M178 251v-70q0 -3 -2 -5t-5 -2t-5 2t-2 5v32q-12 -32 -27 -68l-14 -34q-1 -3 -3 -7q-3 -6 -3 -7v-2v-4q0 -4 1 -5v-2q2 0 13 6q3 1 20 11q40 28 73 73q2 3 5.5 8t4.5 6q3 5 8 16q17 35 62 116q14 21 18 30l5 8q1 1 2 1h4h4l1 -1q2 0 2 -1q2 -1 13 -7q8 -8 11 -12
q6 -6 7 -10q2 -6 2 -9l-1 -2q0 -1 -1 -2q-1 -2 -1 -3q-1 -3 -5 -9q-70 -120 -98 -187l-2 -6q-3 -7 -7 -19q-3 -9 -3 -11h1l4 2q1 0 2.5 0.5t2.5 1.5l3 3q0 1 1 1t2 1t4 3h3q6 0 10 -3q12 -7 20 -16q9 -12 10 -19l1 -2q0 -3 -1 -4l-5 -5l-3 -3q-10 -6 -15 -8v-120q0 -2 -1 -3
q-2 -2 -4 -2q-1 0 -3 2t-2 3v118q-3 -1 -8 -1q-21 2 -40 14q-8 5 -14 12q-6 6 -10 12l-2 2h-1l-4 -4q-8 -6 -24 -16q-16 -9 -22 -11q-9 -3 -18 -3q-20 0 -39 15l-4 4q-1 0 -5 -11q-6 -14 -9 -23q-4 -9 -10 -23q-2 -5 -5.5 -14.5t-4.5 -11.5q-7 -17 -14 -38q-2 -10 -2 -11
q-1 -3 -1 -7v-5l-3 -3h-1q-1 -1 -2 -1h-3q-1 1 -4 1q-11 3 -20 14q-5 5 -6 7q-3 4 -5 8q0 2 -1 4l-2 4t-1 8q0 3 2 11q3 13 5 17q2 6 16 45q3 7 34 80q6 16 9 23t6 13q20 48 30 73q18 45 24 61q1 2 3 8q1 2 2 5.5t1 4.5q2 6 3 8q0 1 1 2v2h-3q-1 0 -7 2q-5 2 -10 5
q-1 1 -2.5 2t-3 3t-2.5 3l-8 8q-1 2 -4 10q-2 6 -2 7v2q0 1 1 2t2.5 3.5t2.5 4.5q6 8 9 11q13 13 26 13l3 -1q9 0 17 -5q16 -7 26 -19q11 -13 14 -24q1 -2 1 -9q0 -11 -6 -34v-70q0 -2 -1 -3q-2 -2 -4 -2q-1 0 -3 2q-1 1 -1 3v40z" />
    <glyph glyph-name="paragraph" unicode="&#xb6;" horiz-adv-x="345" 
d="M159 -72v-124q0 -2 -1 -3q-2 -2 -4 -2q-1 0 -3 2t-2 3v97q-2 -6 -4.5 -13t-4 -10t-1.5 -4t-1 -2t-5 -1h-2q-1 0 -12 7q-7 4 -12 11q-1 1 -2 3.5t-2 4.5l-3 6v6q1 2 21 56l19 51q18 51 31 84q21 58 25 68l95 257h-7q-6 0 -12 1h-23l-15 1h-9l-4 -2l-1 -1q0 -2 -1 -2v-141
q0 -3 -1 -4q-2 -2 -4 -2q-1 0 -3 2q-1 1 -1 4v123q-1 -1 -1.5 -3t-1.5 -4l-2 -4v-64q0 -3 -2 -5t-5 -2t-5 2t-2 5v31q-51 -122 -144 -369l-5 -15l-4 -6q-1 -1 -4 -1q-7 0 -21 11q-12 13 -13 21v4l10 27l34 86q35 91 43 111q3 9 6 15l1 1v2l1 1v1h-1l-1 1h-5q-27 5 -42 13
v-99q0 -2 -1 -3t-4 -1q-2 0 -3 1q-2 2 -2 3v104q-6 3 -10 7q-6 8 -7 11q-2 6 -2 13q3 21 15 53t28 55q19 30 33 34q40 14 77 23l12 3h13q15 0 27 -1h33q11 -1 28 -1h6h13h8q1 -1 3 -1q1 0 2 -1q12 -5 21 -14q9 -10 9 -19l-1 -2q0 -1 -4 -10.5t-11.5 -31t-16.5 -45.5
q-40 -110 -70 -190q-12 -32 -24.5 -65.5t-26 -70t-19.5 -53.5q-2 -4 -6.5 -16t-6.5 -18z" />
    <glyph glyph-name="periodcentered" unicode="&#xb7;" horiz-adv-x="96" 
d="M65 273v-56q0 -3 -2 -5q-4 -2 -5 -2q-2 0 -4 2q-2 1 -2 5v39l-1 -1q-3 -3 -5 -7q-2 -2 -2 -3h-1v-1q-2 -1 -6 -1q-12 1 -24 15q-13 14 -13 24v3l26 36q4 5 10.5 13.5t8.5 11.5q6 10 8 10l4 1l8 -2q8 -3 15 -10q6 -6 12 -16q4 -8 4 -10l-1 -4q0 -1 -8 -12l-6 -8v-98
q0 -1 -2 -3t-3 -2q-2 0 -4 2q-1 1 -1 3v84l-2 -2z" />
    <glyph glyph-name="periodcentered" unicode="&#x2219;" horiz-adv-x="96" 
d="M65 273v-56q0 -3 -2 -5q-4 -2 -5 -2q-2 0 -4 2q-2 1 -2 5v39l-1 -1q-3 -3 -5 -7q-2 -2 -2 -3h-1v-1q-2 -1 -6 -1q-12 1 -24 15q-13 14 -13 24v3l26 36q4 5 10.5 13.5t8.5 11.5q6 10 8 10l4 1l8 -2q8 -3 15 -10q6 -6 12 -16q4 -8 4 -10l-1 -4q0 -1 -8 -12l-6 -8v-98
q0 -1 -2 -3t-3 -2q-2 0 -4 2q-1 1 -1 3v84l-2 -2z" />
    <glyph glyph-name="cedilla" unicode="&#xb8;" horiz-adv-x="117" 
d="M80 -157v-56q0 -3 -2 -5t-5 -2t-5 2t-2 5v44q-7 -4 -15 -4h-3q-15 1 -33 15q-6 4 -11 12q-4 5 -4 11v2q1 4 5 4q7 0 15 -7h2q1 -1 2 -1q12 0 22 12q14 15 20 32q7 17 12 35q4 15 4 26q0 3 -1 4q0 2 -2 2q-5 0 -10 -4q-1 0 -5.5 -4t-7.5 -6q-5 -4 -11 -10l-3 -3
q-2 -3 -5 -3q-6 0 -16 7q-14 16 -14 24v2q1 1 2 5t1 5q3 12 16 40q4 9 6 10t7 1q2 1 7 1q3 0 9 -2q6 -1 6 -8v-4q0 -11 -1 -18q0 -4 -4 -18q3 1 8 1q16 0 32 -8t20 -30q1 -2 1 -8q0 -14 -4 -30q-4 -17 -12 -38l-6 -12v-97q0 -2 -1 -3q-2 -2 -3 -2t-3 2t-2 3v83
q-1 -1 -3 -3.5t-3 -3.5z" />
    <glyph glyph-name="onesuperior" unicode="&#xb9;" horiz-adv-x="167" 
d="M115 549v-129q0 -2 -1 -3q-2 -2 -4 -2q-1 0 -3 2t-2 3v128q-20 -3 -25 -4q-25 -5 -50 -12l-5 -1l-4 1q-6 1 -13 8t-8 12v4q0 3 1 4q1 0 9 3q5 1 19 5q4 0 10 1.5l10 2.5l5 1l-1 5l1 6q5 33 52 145l4 12l-4 -2q-14 -10 -24 -13h-1q-1 -1 -2 -1h-3h-5v-40q0 -1 -1 -1
q-1 -1 -2 -1t-2 1q-1 0 -1 1v43q-1 1 -4 3v-33q0 -2 -1 -3t-3 -1t-3 1t-1 3v40q-9 9 -12 20q-1 3 -1 7q-1 2 -1 8v6q0 2 1 3h1l2 1l3 -1q4 -1 8 -4q2 -1 4 -3t4 -3q4 -4 6 -10q0 -1 1 -1v-1h1q0 1 1 1q1 1 3 2q3 1 8 6q17 10 34 22q11 10 23 17l28 -26l-2 -6
q-4 -8 -16 -36.5t-19 -45.5q-13 -32 -28 -72q-4 -7 -7 -19q-1 -2 -2.5 -8t-2.5 -9l-3 -8l13 1q15 0 26 -8l5 -5q4 -4 5 -6t4 -5q0 -1 1 -3t1 -3v-1v-1q-1 0 -1 -1q-2 -2 -4 -2q-4 0 -12 5h-10z" />
    <glyph glyph-name="ordmasculine" unicode="&#xba;" horiz-adv-x="231" 
d="M117 574q1 0 1 1t1 2q8 11 18.5 30.5t10.5 24.5v1q-1 1 -3 1q-7 0 -19 -17.5t-12 -31.5q0 -7 3 -11zM81 607q-48 -52 -48 -81h12q25 3 52 28q-14 22 -16 53zM173 534v-69q0 -3 -2 -5t-5 -2t-5 2t-2 5v64q-4 -1 -11 -1q-5 0 -15 2q-4 -4 -11 -10q-12 -11 -26 -18
q-15 -7 -26 -8v-127q0 -2 -1 -3q-2 -2 -4 -2q-1 0 -3 2t-2 3v126h-4q-23 5 -38 20q-18 17 -18 37q0 5 1 8q3 16 18 39q14 22 30 38q16 17 21 20q1 1 3 1q3 0 7 -3q1 -1 3.5 -2.5t3.5 -2.5q3 -4 5 -4h1q15 22 35 22t36 -15q16 -16 16 -38q0 -5 -2 -15q-4 -13 -17 -35
q18 3 36 14q17 11 21 30v2v1h1q1 1 5 3h4q1 0 3 -2v-1q-10 -42 -35 -62q-2 -2 -4.5 -3.5t-3.5 -2.5v-97q0 -2 -1 -3q-2 -2 -3 -2t-3 2t-2 3v91z" />
    <glyph glyph-name="guillemotright" unicode="&#xbb;" horiz-adv-x="253" 
d="M34 176v-51q0 -3 -2 -5t-4 -2q-3 0 -5 2t-2 5v61l-20 17q-1 1 -1 4q0 5 6 16q6 9 16 16q12 9 19 9q2 0 3 -1q0 -1 3 -3q5 -3 12 -9q60 -47 80 -60q1 -1 3.5 -2.5t3.5 -2.5l4 -2v1h-1q0 1 -1 1l-2 2q-3 2 -11 8q-10 7 -26 21q-11 7 -12 9q-1 1 -1 5q0 9 15 26q8 8 13 11
q7 4 12 4q3 0 4 -1q2 -2 5 -4q1 -1 9 -7q72 -57 92 -68q1 0 2.5 -0.5t2.5 -1.5t1 -2q1 -2 1 -3v-2q0 -13 -26 -45l-56 -56v-125q0 -2 -1 -3q-2 -2 -4 -2q-1 0 -3 2t-2 3v115q-11 -11 -14 -13q-11 -7 -19 -7q-4 0 -6 3q-1 1 -1 4q0 4 3 10q0 1 5 8q1 2 9 10q1 1 8 7.5
t12 11.5q8 8 20.5 21t17.5 18l4 4l-8 5q-1 0 -3 1.5t-4 2.5q-13 9 -23 18q-2 1 -4 3h-2v-1l1 -1v-2q0 -12 -26 -44q-3 -3 -12 -12.5t-15 -15.5l-32 -32q-17 -17 -21 -20q-1 -1 -4 -2t-4 -2q-3 -1 -7 -3h-4q-7 0 -7 6q0 2 2 8q1 4 7 12q7 9 17 17q4 4 8 8.5t9.5 9.5t8.5 8
q5 5 11.5 12t8.5 9l7 7l-7 4q-16 10 -47 35v-59q0 -2 -1 -3t-4 -1q-2 0 -3 1t-1 3v65l-2 2q-1 0 -2.5 2t-2.5 2z" />
    <glyph glyph-name="onequarter" unicode="&#xbc;" horiz-adv-x="645" 
d="M454 106l-13 -11v-1l1 1h46l4 11q7 23 18 49l1 4q-6 -5 -12 -11t-13.5 -13t-17 -15.5t-14.5 -13.5zM609 45v-68q0 -2 -1 -3q-2 -2 -4 -2q-1 0 -3 2t-2 3v69h-10v-40q0 -1 -2 -3q-4 -2 -6 -2q-4 0 -6 2t-2 3v40q-18 0 -31 1h-10l-8 -23q-2 -7 -6 -19q-1 -4 -3 -9l-2 -5
q-18 -61 -18 -80v-4q1 -3 1 -6q0 -5 -3 -6l-2 -1v-125q0 -2 -2 -4t-4 -2t-4 2t-2 4v127q-7 3 -11 9q-8 6 -14 14q-7 8 -7 21v3q0 25 21 92q2 6 3 8v3h-4h-26q-5 0 -14 -0.5t-13 -1.5q-4 0 -5 -1q-17 -1 -32 -5h-1q-1 -1 -3 -1l-2 -2t-2 -1q-9 -8 -13 -9q-1 -1 -4 -1
q-4 0 -5 1q-1 0 -4 3q-3 1 -9 5l-12 8l-12 21v3q0 2 1 3v2q1 0 1 1q5 7 16 11q1 1 5 3l3 1l4 4q6 4 12 10q75 65 119 107q63 59 90 91q2 2 5 5.5t4 5.5q0 1 2 4t2 4t1 2l2 2t1 3l2 1l19 -11l19 -12l3 -9q3 -7 3 -10v-2l-4 -8q-7 -14 -23 -54q-19 -47 -39 -99q-4 -10 -6 -18
q-2 -4 -2 -5t-1 -2v-1h3q5 0 8 -1h11q14 -1 29 -1q2 0 5 -1q2 0 3 -1h2q10 -3 21 -15q10 -8 13 -20q1 -2 1 -4q0 -5 -3 -6q-1 -1 -2 -1h-2h-5h-7q-6 1 -17 1zM421 405v-64q0 -3 -2 -5t-5 -2t-5 2t-2 5v44l-86 -123q-72 -102 -126 -180q-91 -128 -91 -130l-2 -1q-1 -1 -2 -1
q-1 -1 -3 -1h-2q-1 0 -2 1q-10 3 -18 14t-8 20q0 4 1 5q0 2 1 3t2 3t2 3l9 12q6 10 14 22q3 5 11 15.5t12 16.5q28 41 32 46q14 19 33.5 46.5t49 70.5t51.5 74q81 117 110 158q55 78 67 95q28 38 33 46q6 8 7 9q0 1 0.5 1t0.5 1l1 1q2 1 6 1h3q10 -3 17 -12q6 -9 8 -21
q1 -1 1 -3q0 -3 -1 -4l-1 -3l-101 -144v-105q0 -2 -1 -3t-3 -1t-3 1q-2 2 -2 3v92zM101 630v-48q0 -2 -1 -3q-2 -2 -3 -2t-3 2t-2 3v54l-5 5q-17 17 -21 34q0 2 -1 6t-1 6q-1 3 -1 14v9q0 2 1 3q0 1 1 1t2 1t3 1q3 0 4 -1q12 -4 26 -18q4 -4 6 -7q1 -3 3 -7q1 -1 1 -2v-2
l2 1q2 0 3 1q2 1 8 5q2 1 5 3t5 3q4 2 41 28q34 23 45 32l6 4l4 -4q2 -1 11 -10q4 -3 12 -11l18 -17l-4 -9q-17 -38 -56 -132q-37 -91 -46 -117q-1 -3 -4.5 -13t-5.5 -16q-6 -17 -9 -27q-4 -11 -4 -14h9q4 1 11 1q27 0 41 -13q9 -6 10 -7t7 -10q3 -3 7 -9q2 -6 2 -9l1 -3
l-1 -2q-2 -5 -7 -5q-8 2 -16 7l-4 2l-8 1h-12v-121q0 -2 -1 -3q-2 -2 -4 -2q-1 0 -3 2t-2 3v120q-8 -1 -42 -7q-20 -5 -40 -9q-3 -1 -18 -5t-23 -6q-2 0 -3 -1q-3 -1 -6 -1h-2q-1 1 -4 1q-11 5 -19 14q-10 9 -13 19q-1 3 -1 7t2 6l2 1q2 1 6 2t7 2q2 1 12.5 3t16.5 4
q5 1 16 3.5t16 4.5q3 0 4 1h3q1 0 1 1v17q7 49 84 235q4 6 6 13q1 1 1 3l1 1v1h-2q-1 -1 -5 -3q-24 -16 -38 -21h-3q-1 -1 -3 -1h-5h-5q-3 0 -4 1q-6 2 -12 6z" />
    <glyph glyph-name="onehalf" unicode="&#xbd;" horiz-adv-x="694" 
d="M421 405v-64q0 -3 -2 -5t-5 -2t-5 2t-2 5v44l-86 -123q-72 -102 -126 -180q-91 -128 -91 -130l-2 -1q-1 -1 -2 -1q-1 -1 -3 -1h-2q-1 0 -2 1q-10 3 -18 14t-8 20q0 4 1 5q0 2 1 3t2 3t2 3l9 12q6 10 14 22q3 5 11 15.5t12 16.5q28 41 32 46q14 19 33.5 46.5t49 70.5
t51.5 74q81 117 110 158q55 78 67 95q28 38 33 46q6 8 7 9q0 1 0.5 1t0.5 1l1 1q2 1 6 1h3q10 -3 17 -12q6 -9 8 -21q1 -1 1 -3q0 -3 -1 -4l-1 -3l-101 -144v-105q0 -2 -1 -3t-3 -1t-3 1q-2 2 -2 3v92zM101 630v-48q0 -2 -1 -3q-2 -2 -3 -2t-3 2t-2 3v54l-5 5q-17 17 -21 34
q0 2 -1 6t-1 6q-1 3 -1 14v9q0 2 1 3q0 1 1 1t2 1t3 1q3 0 4 -1q12 -4 26 -18q4 -4 6 -7q1 -3 3 -7q1 -1 1 -2v-2l2 1q2 0 3 1q2 1 8 5q2 1 5 3t5 3q4 2 41 28q34 23 45 32l6 4l4 -4q2 -1 11 -10q4 -3 12 -11l18 -17l-4 -9q-17 -38 -56 -132q-37 -91 -46 -117
q-1 -3 -4.5 -13t-5.5 -16q-6 -17 -9 -27q-4 -11 -4 -14h9q4 1 11 1q27 0 41 -13q9 -6 10 -7t7 -10q3 -3 7 -9q2 -6 2 -9l1 -3l-1 -2q-2 -5 -7 -5q-8 2 -16 7l-4 2l-8 1h-12v-121q0 -2 -1 -3q-2 -2 -4 -2q-1 0 -3 2t-2 3v120q-8 -1 -42 -7q-20 -5 -40 -9q-3 -1 -18 -5t-23 -6
q-2 0 -3 -1q-3 -1 -6 -1h-2q-1 1 -4 1q-11 5 -19 14q-10 9 -13 19q-1 3 -1 7t2 6l2 1q2 1 6 2t7 2q2 1 12.5 3t16.5 4q5 1 16 3.5t16 4.5q3 0 4 1h3q1 0 1 1v17q7 49 84 235q4 6 6 13q1 1 1 3l1 1v1h-2q-1 -1 -5 -3q-24 -16 -38 -21h-3q-1 -1 -3 -1h-5h-5q-3 0 -4 1
q-6 2 -12 6zM570 -31v-125q0 -2 -1 -3t-4 -1q-2 0 -3 1t-1 3v125h-12q-57 0 -164 -14q-3 -1 -7 -1q-2 -1 -5 -1q-1 0 -2 1h-2q-11 4 -21 15q-10 10 -13 20q-1 2 -1 5t1 5q11 30 77 78q16 13 39 27q14 9 53 35q5 3 15 9.5t14 8.5q12 8 14 10q6 4 9 7q4 3 13 12q8 8 12 11
q55 58 64 105q1 3 1 9t-2 12v2l-1 1h-2q-3 1 -7 3h-10q-2 0 -5.5 -0.5t-5.5 -1.5q-5 -1 -12 -3q-29 -11 -65 -39q-40 -36 -82 -87q-2 -3 -4 -5t-5 -2q-2 0 -4 1q-9 1 -22 14q-15 16 -15 26v2q1 2 12 16q8 10 26 30q5 7 20 22q16 14 20 18q54 48 96 56q4 1 13 1q10 0 13 -1
q31 -4 61 -34q29 -29 29 -63q0 -5 -2 -17q-9 -47 -58 -99q-4 -4 -11 -11.5t-10 -10.5q-14 -12 -22 -18q-1 -1 -3.5 -2.5t-3.5 -2.5l-12 -8l-27 -18q-41 -25 -52 -33q-26 -18 -37 -26q-8 -6 -11 -9q-8 -6 -9 -7q-3 -2 -5 -4l-1 -1l2 1h5q5 0 8 1q37 3 66 3q34 0 50 -4
q20 -3 33 -13q5 -3 14 -12q6 -8 10 -14q4 -7 4 -13t-7 -6h-3q-7 1 -17 8v-51q0 -3 -2 -5t-5 -2t-5 2t-2 5v56h-2q-6 0 -9 1z" />
    <glyph glyph-name="threequarters" unicode="&#xbe;" horiz-adv-x="680" 
d="M419 106l-12 -11h46l4 11q2 5 9 25t9 24l1 4l-11 -11q-14 -12 -46 -42zM421 405v-64q0 -3 -2 -5t-5 -2t-5 2t-2 5v44l-86 -123q-72 -102 -126 -180q-91 -128 -91 -130l-2 -1q-1 -1 -2 -1q-1 -1 -3 -1h-2q-1 0 -2 1q-10 3 -18 14t-8 20q0 4 1 5q0 2 1 3t2 3t2 3l9 12
q6 10 14 22q3 5 11 15.5t12 16.5q28 41 32 46q14 19 33.5 46.5t49 70.5t51.5 74q81 117 110 158q55 78 67 95q28 38 33 46q6 8 7 9q0 1 0.5 1t0.5 1l1 1q2 1 6 1h3q10 -3 17 -12q6 -9 8 -21q1 -1 1 -3q0 -3 -1 -4l-1 -3l-101 -144v-105q0 -2 -1 -3t-3 -1t-3 1q-2 2 -2 3v92z
M570 45v-48q0 -2 -2 -4t-4 -2q-3 0 -5 2t-2 4v49h-11v-133q0 -2 -1 -3q-2 -2 -5 -2q-1 0 -3 2t-2 3v133q-17 0 -27 1h-11l-8 -23l-4 -12q-1 -8 -3 -12l-3 -9q-18 -60 -18 -79v-10q0 -6 -3 -7q-1 -1 -4 -1h-1v-160q0 -2 -1 -3q-2 -2 -4 -2q-1 0 -3 2t-2 3v163q-12 7 -23 22
q-6 9 -8 21v3q0 25 21 92q2 6 3 8v3h-4h-25q-5 0 -14.5 -0.5t-13.5 -1.5q-23 -3 -36 -6h-1q-1 -1 -3 -1q-1 -1 -5 -3q-9 -8 -13 -9q-1 -1 -4 -1q-4 0 -5 1h-1q0 1 -1 1l-2 2q-3 1 -9 5l-11 8l-12 21v3v4q0 1 1 2q5 7 17 11l2 1q2 1 2 2l2 1q3 2 5 4q6 4 12 10q75 65 119 107
q63 59 90 91q8 8 10 11q0 1 2 4t2 4t1 2t1 2t1 1l1 2l1 1l19 -11l19 -12l3 -9q0 -1 0.5 -2.5t1.5 -2.5q0 -2 1 -3t1 -2l-5 -10q-7 -14 -23 -54q-30 -78 -38 -99q-6 -15 -7 -18q-2 -4 -2 -5t-1 -2v-1h4q5 0 8 -1h11q13 -1 28 -1q2 0 5 -1q2 0 4 -1h1q10 -3 22 -15
q10 -9 12 -20q1 -2 1 -4q0 -5 -3 -6q-1 -1 -2 -1h-2h-5h-7q-6 1 -18 1h-3zM133 303v-115q0 -2 -1 -3q-2 -2 -4 -2q-1 0 -3 2q-1 1 -1 3v117q-34 6 -61 28q-59 47 -63 105v10q0 5 1 6q1 4 7 4q5 0 12 -4q17 -11 25 -26q0 -1 0.5 -2.5t1.5 -2.5t1 -4v-8v-7q0 -4 1 -6
q4 -20 16 -31q8 -9 22 -13q11 -4 26 -4q26 0 53 13q30 15 60 45q46 44 49 75l1 3l-2 1q-7 4 -17 5l-4 1q-23 4 -55 4h-17h-9q-5 0 -6 1t-2 1q-2 1 -3 1q-7 3 -14 10q-7 6 -12 14q-4 7 -4 13q0 5 3 7l9 2h16q13 0 39 -2l7 -1l5 2q52 18 82 57q26 37 26 70q0 6 -1 9
q-2 11 -4 11q-1 1 -10 1h-9q-4 0 -6 -1q-19 -5 -34 -14v-42q0 -2 -1 -3q-2 -2 -3 -2t-3 2t-2 3v37q-13 -8 -37 -26q-25 -20 -47 -42l-11 -11l-3 -1q-11 0 -27 16l-3 3l-3 3l-1 1q0 1 -1.5 3t-2.5 4l-2 6q-1 1 -1 5q0 3 1 4l2 2q2 3 9 10l11 11q73 69 124 79q5 1 16 1
q33 0 61 -25q30 -29 35 -67v-8v-12q0 -7 -1 -10q-9 -52 -56 -90q-4 -1 -10 -6q-8 -6 -9 -7h-1v-1h-1q0 -1 1 -1q0 -1 1 -2q5 -5 9 -8l8 -8q17 -22 17 -43q0 -17 -11 -37q-10 -21 -32 -44q-24 -24 -46 -39t-42 -22q-24 -9 -48 -9q-7 0 -11 1z" />
    <glyph glyph-name="questiondown" unicode="&#xbf;" horiz-adv-x="346" 
d="M316 517q-2 -3 -6 -8.5t-5 -6.5q-7 -10 -10 -13q-2 -2 -5 -2q-4 0 -7 1q-16 7 -28 25q-4 7 -4 13v2q0 1 8 12q16 23 18 25q11 13 18 24q5 7 9 11q1 1 4 1q4 0 6 -1q9 -3 19 -14q6 -6 10 -13q3 -7 3 -11v-4q-1 0 -1 -1l-2 -2q-1 -1 -2 -3t-2 -3q-8 -12 -13 -18v-46
q0 -1 -1 -2q-2 -2 -4 -2q-1 0 -3 2l-2 2v32zM100 193v-117q0 -2 -1 -3q-2 -2 -4 -2q-1 0 -3 2t-2 3v107q-34 -37 -42 -87q-1 -3 -1 -13q0 -8 1 -11q0 -6 1 -8q3 -19 11 -30q5 -5 20 -8q1 -1 5 -1h9q10 0 14 1q4 2 12 3q24 6 50 21q22 13 41 32q27 32 27 70q0 20 -8 46
q-3 9 -3 13v2q2 5 7 5q7 0 17 -7q11 -7 18 -18q1 -1 1 -2q1 -1 3 -5q2 -6 3 -10q6 -20 9 -39q1 -5 1 -18q0 -12 -1 -17q-7 -55 -63 -91q-6 -4 -13 -8v-91q0 -2 -1 -3q-2 -2 -4 -2q-1 0 -3 2q-1 1 -1 3v86q-1 -1 -7 -4v-62q0 -3 -2 -5t-4 -2q-3 0 -5 2t-2 5v56
q-16 -7 -36 -10q-5 -1 -17 -1t-17 1q-31 6 -60 29q-42 35 -49 87q-1 3 -1 12v14v9q10 73 75 124q1 1 5 3q16 11 30 20q16 10 18 11q14 8 34 20q4 3 8.5 6l9 6t6.5 4q9 6 15 12q11 11 24 35q11 20 31 70q1 2 2.5 6t2.5 6q1 5 3 7q1 4 7 4q3 0 5 -1q8 -3 18 -11q10 -10 14 -19
l3 -6v-5q-1 -1 -4 -10q-2 -6 -8 -20q-3 -8 -9 -22q-22 -56 -44 -77q-4 -4 -16 -14q-6 -4 -26 -17q-32 -18 -45 -27q-6 -4 -16 -10t-11 -7q-16 -10 -20 -14z" />
    </font>
</defs>
</svg>
