<?xml version="1.0" standalone="no"?>
<!DOCTYPE svg PUBLIC "-//W3C//DTD SVG 1.1//EN" "http://www.w3.org/Graphics/SVG/1.1/DTD/svg11.dtd" >
<svg xmlns="http://www.w3.org/2000/svg" xmlns:xlink="http://www.w3.org/1999/xlink" version="1.1">
<metadata>
Created by FontForge 20170731 at Wed Jul 18 12:28:08 2018
 By Aleksey,,,
Digitized data copyright (c) 2010 Google Corporation.
Copyright (c) 2012 Red Hat, Inc.
Copyright (c) 2013, Kim Silkebaekken and Carl X. Su.
</metadata>
<defs>
<font id="LiterationMonoNerdFon-" horiz-adv-x="1229" >
  <font-face 
    font-family="LiterationMono NF"
    font-weight="400"
    font-stretch="normal"
    units-per-em="2048"
    panose-1="2 7 4 9 2 2 5 2 4 4"
    ascent="1638"
    descent="-410"
    x-height="1082"
    cap-height="1349"
    bbox="-0.441176 -638 1974 2009"
    underline-thickness="84"
    underline-position="-687"
    unicode-range="U+0020-FE23"
  />
<missing-glyph 
d="M127 0v750h770v-750h-770zM768 621h-512v-492h512v492z" />
    <glyph glyph-name="map-marker-plus" unicode="&#x671;" arabic-form="isolated" 
d="M409 575q63 0 104 41t41 104.5t-41 104.5t-104 41t-104.5 -41t-41.5 -104.5t41.5 -104.5t104.5 -41zM409 1129q173 -2 289.5 -117.5t119.5 -290.5q-25 -250 -205 -495.5t-204 -264.5q-25 19 -204.5 264.5t-204.5 495.5q3 175 118 290.5t291 117.5zM760 251h175v176h118
v-176h176v-115h-176v-175h-118v175h-175v115z" />
    <glyph glyph-name="marker" unicode="&#x671;" arabic-form="final" 
d="M969 1083q-45 3 -78 -30l-316 -316l308 -308l315 316q31 33 31 76t-31 79l-155 153q-33 33 -74 30zM524 686l-323 -323q-33 -36 -33 -79t33 -76l-201 -201h308l46 46q33 -31 76 -31t76 33l324 323z" />
    <glyph glyph-name="message-plus" unicode="&#x67b;" arabic-form="isolated" 
d="M1108 1160q52 0 86.5 -35t34.5 -87v-738q0 -52 -34.5 -88t-86.5 -36h-863l-245 -246v1108q0 52 34.5 87t86.5 35h987zM554 914v-184h-185v-124h185v-185h121v185h185v124h-185v184h-121z" />
    <glyph glyph-name="microscope" unicode="&#x67b;" arabic-form="final" 
d="M406 937l109 -186q-134 -16 -220.5 -110t-89.5 -232q3 -144 99 -240t240 -99q109 0 190.5 56t123.5 149h-176v134h547v-134h-154q-44 -164 -169 -276h185v-134h-1091v134h182q-83 77 -132.5 182.5t-49.5 227.5q3 192 113.5 334.5t292.5 193.5zM631 1225l51 -90l57 36
l240 -416l-236 -135l-241 413l61 35l-51 90z" />
    <glyph glyph-name="move-resize" unicode="&#x67b;" arabic-form="initial" 
d="M447 1160v-58h55v-167h-55v-55h167v55h-54v167h54v58h-167zM447 825q-47 -3 -78.5 -34.5t-33.5 -78.5v-669q2 -47 33.5 -78.5t78.5 -34.5h670q47 3 78 34.5t34 78.5v669q-3 47 -34 78.5t-78 34.5h-670zM0 712v-167h58v55h167v-55h55v167h-55v-55h-167v55h-58zM447 712
h670v-669h-670v669zM727 657v-57h55v-277h-222v55h-58v-168h58v55h222v-110h-55v-57h167v57h-57v110h167v-55h58v168h-58v-55h-167v277h57v57h-167z" />
    <glyph glyph-name="move-resize-variant" unicode="&#x67b;" arabic-form="medial" 
d="M77 1160l-77 -77l279 -279h-195v-110h381v381h-110v-194zM575 804v-110h544v-327h110v327q-3 46 -33.5 77t-76.5 33h-544zM355 585v-545q3 -46 33.5 -76.5t76.5 -33.5h327v110h-327v545h-110zM841 398l-80 -79l281 -279h-140v-110h327v328h-110v-141z" />
    <glyph glyph-name="paw-off" unicode="&#x67e;" arabic-form="isolated" 
d="M4 1064l77 77l1116 -1115l-78 -78l-123 123q-14 -8 -26 -17q-83 -28 -176 9t-185 46q-95 -9 -186.5 -47.5t-175.5 -7.5q-46 26 -73 76t-21 102q11 66 71.5 112t111.5 95q35 34 66.5 78.5t62.5 84.5zM391 1141q57 6 104.5 -44t64.5 -132t-6 -142l-244 244q26 63 81 74z
M830 1141q54 -11 80 -71.5t8.5 -145t-66 -133t-104.5 -40t-80.5 68.5t-7 143.5t64.5 133.5t105 44zM64 860q54 20 114.5 -13t97.5 -107.5t25.5 -139t-64.5 -87.5t-111.5 11.5t-96 107.5t-27.5 137.5t62 90.5zM1165 860q52 -26 62 -90.5t-27.5 -137.5t-96 -107.5
t-111.5 -11.5t-64.5 87.5t25.5 139t97.5 107.5t114.5 13z" />
    <glyph glyph-name="phone-minus" unicode="&#x67e;" arabic-form="final" 
d="M67 1160q-29 0 -48 -19.5t-19 -48.5q13 -493 341 -821t821 -341q29 0 48 19.5t19 48.5v240q0 29 -19 48t-48 19q-128 0 -243 38q-39 13 -71 -16l-150 -150q-148 77 -261.5 190.5t-190.5 260.5l151 151q29 28 16 70q-39 115 -39 243q0 29 -19 48.5t-48 19.5h-240zM682 955
v-138h547v138h-547z" />
    <glyph glyph-name="phone-plus" unicode="&#x67e;" arabic-form="initial" 
d="M67 1160q-29 0 -48 -19.5t-19 -48.5q13 -493 341 -821t821 -341q29 0 48 19.5t19 48.5v240q0 29 -19 48t-48 19q-128 0 -243 38q-39 13 -71 -16l-150 -150q-148 77 -261.5 190.5t-190.5 260.5l151 151q29 28 16 70q-39 115 -39 243q0 29 -19 48.5t-48 19.5h-240z
M887 1160v-205h-205v-138h205v-205h137v205h205v138h-205v205h-137z" />
    <glyph glyph-name="pot" unicode="&#x67e;" arabic-form="medial" 
d="M1091 68q0 -57 -38 -97.5t-96 -40.5h-685q-58 0 -96 40.5t-38 97.5v410h-138v205h1229v-205h-138v-410zM205 955h137v-138h-137v138zM547 955h135v-138h-135v138zM887 955h137v-138h-137v138zM1024 1160h138v-138h-138v138zM682 1160h137v-138h-137v138zM342 1160h135
v-138h-135v138z" />
    <glyph glyph-name="pot-mix" unicode="&#x680;" arabic-form="isolated" 
d="M1091 70q0 -58 -38 -98t-96 -40h-685q-58 0 -96 40t-38 98v409h-138v205h752l272 474l119 -71l-234 -403h320v-205h-138v-409z" />
    <glyph glyph-name="serial-port" unicode="&#x680;" arabic-form="final" 
d="M173 1380h883v-177h173v-264h-264v-528h-701v528h-264v264h173v177zM1056 852h173v-441h-173v441zM528 324h173v-614h-173v614zM0 852h173v-441h-173v441z" />
    <glyph glyph-name="shape-circle-plus" unicode="&#x680;" arabic-form="initial" 
d="M519 61q164 3 273 112.5t115 275.5h128q-3 -221 -150.5 -366.5t-365.5 -152.5q-222 7 -367.5 152.5t-151.5 366.5q6 219 151.5 366t367.5 150v-127q-167 -6 -276 -115.5t-113 -273.5q4 -166 113 -275.5t276 -112.5zM1035 965h194v-127h-194v-194h-128v194h-194v127h194
v195h128v-195z" />
    <glyph glyph-name="shape-polygon-plus" unicode="&#x680;" arabic-form="medial" 
d="M907 273v176h128v-261l-583 -258l-452 453l258 582h261v-127h-176l-188 -428l324 -325zM1229 965v-127h-194v-194h-128v194h-194v127h194v195h128v-195h194z" />
    <glyph glyph-name="shape-rectangle-plus" unicode="&#x67a;" arabic-form="isolated" 
d="M1035 868h194v-130h-194v-195h-128v195h-194v130h194v194h128v-194zM907 155v194h128v-321h-1035v840h519v-130h-389v-583h777z" />
    <glyph glyph-name="shape-square-plus" unicode="&#x67a;" arabic-form="final" 
d="M1035 965h194v-127h-194v-194h-128v194h-194v127h194v195h128v-195zM907 61v388h128v-519h-1035v1035h519v-127h-389v-777h777z" />
    <glyph glyph-name="skip-next-circle" unicode="&#x67a;" arabic-form="initial" 
d="M614 1160q-262 -6 -435 -179t-179 -436q6 -263 179 -436t435 -179q263 6 436 179t179 436q-6 263 -179 436t-436 179zM369 790l306 -245l-306 -245v490zM739 790h121v-490h-121v490z" />
    <glyph glyph-name="skip-next-circle-outline" unicode="&#x67a;" arabic-form="medial" 
d="M614 1160q-262 -6 -435 -179t-179 -436q6 -263 179 -436t435 -179q263 6 436 179t179 436q-6 263 -179 436t-436 179zM614 1038q208 -5 348 -145t146 -348q-6 -208 -146 -348t-348 -145q-207 5 -347 145t-146 348q6 208 146 348t347 145zM369 790v-490l306 245zM739 790
v-490h121v490h-121z" />
    <glyph glyph-name="skip-previous-circle" unicode="&#x67f;" arabic-form="isolated" 
d="M614 1160q-262 -6 -435 -179t-179 -436q6 -263 179 -436t435 -179q263 6 436 179t179 436q-6 263 -179 436t-436 179zM369 790h121v-490h-121v490zM860 790v-490l-306 245z" />
    <glyph glyph-name="skip-previous-circle-outline" unicode="&#x67f;" arabic-form="final" 
d="M614 1160q263 -6 436 -179t179 -436q-6 -263 -179 -436t-436 -179q-262 6 -435 179t-179 436q6 263 179 436t435 179zM614 1038q-207 -5 -347 -145t-146 -348q6 -208 146 -348t347 -145q208 5 348 145t146 348q-6 208 -146 348t-348 145zM860 790v-490l-306 245zM490 790
v-490h-121v490h121z" />
    <glyph glyph-name="spray" unicode="&#x67f;" arabic-form="initial" 
d="M460 1160h154v-155h-154v155zM230 1235h155v-155h-155v155zM230 1005h155v-155h-155v155zM155 850v-150h-155v150h155zM155 1080v-150h-155v150h155zM155 1310v-150h-155v150h155zM690 -220q-65 0 -108 43t-43 107v770q0 64 43 107t108 43v80h79v230h230v-230h75v-80
q65 0 108 -43t47 -107v-770q-4 -64 -47 -107t-108 -43h-384zM690 700v-770h384v770h-384z" />
    <glyph glyph-name="stop-circle" unicode="&#x67f;" arabic-form="medial" 
d="M614 1160q-262 -6 -435 -179t-179 -436q6 -263 179 -436t435 -179q263 6 436 179t179 436q-6 263 -179 436t-436 179zM430 730h369v-370h-369v370z" />
    <glyph glyph-name="stop-circle-outline" unicode="&#x679;" arabic-form="isolated" 
d="M614 1160q-262 -6 -435 -179t-179 -436q6 -263 179 -436t435 -179q263 6 436 179t179 436q-6 263 -179 436t-436 179zM614 1038q208 -5 348 -145t146 -348q-6 -208 -146 -348t-348 -145q-207 5 -347 145t-146 348q6 208 146 348t347 145zM430 730v-370h369v370h-369z" />
    <glyph glyph-name="test-tube" unicode="&#x679;" arabic-form="final" 
d="M99 1569v-202h106v-1441q5 -174 120.5 -289.5t289 -115.5t289 115.5t120.5 289.5v1441h106v202h-1031zM513 133q-48 0 -77 26.5t-29 74.5t29 74.5t75 26.5t74.5 -26.5t28.5 -74.5t-28.5 -74.5t-72.5 -26.5zM716 543q-44 0 -73 28.5t-29 74.5t29 75t75 29t75 -29t29 -75
t-29 -74.5t-77 -28.5zM822 1058h-415v309h415v-309z" />
    <glyph glyph-name="text-shadow" unicode="&#x679;" arabic-form="initial" 
d="M0 1195h938v-217h-359v-866h-217v866h-362v217zM650 907h146v-145h-146v145zM867 907h145v-145h-145v145zM1083 907h146v-145h-146v145zM650 691h146v-146h-146v146zM650 474h146v-146h-146v146zM650 257h146v-145h-146v145zM650 41h146v-146h-146v146z" />
    <glyph glyph-name="tune-vertical" unicode="&#x679;" arabic-form="medial" 
d="M138 1160v-615h-138v-138h138v-477h134v477h138v138h-138v615h-134zM547 1160v-343h-137v-134h137v-753h135v753h137v134h-137v343h-135zM957 1160v-753h-138v-134h138v-343h134v343h138v134h-138v753h-134z" />
    <glyph glyph-name="cart-off" unicode="&#x6a4;" arabic-form="isolated" 
d="M1229 -1l-1161 1161l-68 -69l238 -238l119 -251l-73 -134q-13 -23 -13 -51q0 -46 30.5 -76t76.5 -33h402l76 -73q-43 -31 -45 -89q0 -46 31.5 -76.5t77.5 -30.5q56 0 86 46l155 -155zM400 417q-12 0 -12 13l2 7l48 89h127l109 -109h-274zM841 526q31 0 55 15t39 41
l193 349q7 13 7 26q0 23 -15 38t-38 18h-727zM378 255q-46 0 -76.5 -31.5t-30.5 -77.5t30.5 -76.5t76 -30.5t77.5 30.5t32 76.5t-32 77.5t-77 31.5z" />
    <glyph glyph-name="chart-gantt" unicode="&#x6a4;" arabic-form="final" 
d="M0 975h490v185h124v-1230h-124v246h-245v184h245v124h-369v185h369v121h-490v185zM739 975h184v-185h-184v185zM739 669h305v-185h-305v185zM739 360h490v-184h-490v184z" />
    <glyph glyph-name="chart-scatterplot-hexbin" unicode="&#x6a4;" arabic-form="initial" 
d="M0 1160h121v-1108h1108v-122h-1229v1230zM739 392l-125 -216h-250l-125 216l125 214h250zM741 883l-124 -214h-248l-124 214l124 216h248zM1183 637l-124 -216h-248l-124 216l124 217h248z" />
    <glyph glyph-name="chart-timeline" unicode="&#x6a4;" arabic-form="medial" 
d="M0 1160h121v-1108h1108v-122h-1229v1230zM306 669h617v-185h-617v185zM554 360h614v-184h-614v184zM245 1038h984v-248h-121v124h-739v-124h-124v248z" />
    <glyph glyph-name="discord" unicode="&#x6a6;" arabic-form="isolated" 
d="M1229 -163l-323 308l40 -124h-793q-66 3 -109.5 46.5t-43.5 106.5v923q0 67 43.5 110t109.5 46h923q66 -3 109.5 -46t43.5 -110v-1260zM614 896q-126 -6 -202.5 -36.5t-76.5 -36.5q52 44 109.5 67t63.5 23l-12 11q-78 -5 -135.5 -37t-60.5 -38q-75 -170 -89.5 -288
t-11.5 -121q72 -81 141.5 -95.5t74.5 -8.5l44 55q-58 17 -91 48.5t-36 34.5q3 -3 79.5 -37.5t202.5 -40.5q127 6 203.5 40.5t79.5 37.5q-3 -3 -36 -34.5t-91 -48.5l44 -55q5 -6 74.5 8.5t141.5 95.5q3 3 -11.5 121t-89.5 288q-3 6 -60.5 38t-135.5 37l-12 -11q6 0 63.5 -23
t109.5 -67q0 6 -76.5 36.5t-203.5 36.5zM488 662q31 0 51.5 -23t20.5 -55t-20.5 -55t-52 -23t-52 23t-20.5 55t20.5 55t52.5 23zM744 662q29 0 50.5 -23t21.5 -55t-21.5 -55t-51.5 -23t-50.5 23t-20.5 55t20.5 55t51.5 23z" />
    <glyph glyph-name="file-restore" unicode="&#x6a6;" arabic-form="final" 
d="M769 1310h-614q-65 0 -108 -43t-47 -107v-1230q4 -64 47 -107t108 -43h919q65 0 108 43t47 107v920zM614 85q-118 0 -211.5 63t-140.5 167h133q36 -54 93.5 -84.5t125.5 -30.5q115 4 190.5 79.5t75.5 188.5t-75.5 190t-190.5 77q-79 0 -140 -39.5t-97 -103.5l123 -122
h-306v305l97 -101q54 83 136.5 129.5t186.5 46.5q162 -3 271.5 -111t113.5 -269q-4 -166 -113.5 -273.5t-271.5 -111.5z" />
    <glyph glyph-name="language-c" unicode="&#x6a6;" arabic-form="initial" 
d="M1160 59l52 -297q-52 -23 -154.5 -46t-245.5 -23q-400 6 -606 237.5t-206 591.5q6 417 246 646t600 229q137 0 237 -23t146 -46l-74 -303l-126 40q-74 17 -172 17q-211 0 -348 -134t-143 -409q0 -246 131.5 -388.5t365.5 -142.5l160 11q80 17 137 40z" />
    <glyph glyph-name="language-cpp" unicode="&#x6a6;" arabic-form="medial" 
d="M508 332l23 -130q-23 -10 -68 -20t-108 -10q-175 3 -265 104t-90 259q5 183 109 283t261 100q61 0 104.5 -10t63.5 -20l-30 -133l-57 18q-30 7 -73 7q-93 0 -154 -58.5t-64 -179.5q0 -107 57.5 -169.5t160.5 -62.5l73 5q32 7 57 17zM536 598h105v107h107v-107h108v-106
h-108v-107h-107v107h-105v106zM909 598h107v107h105v-107h108v-106h-108v-107h-105v107h-107v106z" />
    <glyph glyph-name="xaml" unicode="&#x684;" arabic-form="isolated" 
d="M977 545l-181 -313h-363l-181 313l181 313h363zM1229 545l-211 -365l-90 52l181 313l-181 313l90 52zM0 545l211 365l90 -52l-181 -313l181 -313l-90 -52z" />
    <glyph glyph-name="bandcamp" unicode="&#x684;" arabic-form="final" 
d="M1229 914l-398 -738h-831l398 738h831z" />
    <glyph glyph-name="credit-card-plus" unicode="&#x684;" arabic-form="initial" 
d="M1069 305h160v-108h-160v-160h-108v160h-160v108h160v160h108v-160zM961 838v107h-853v-107h853zM961 625h-853v-320h588v-108h-588q-45 3 -75 33t-33 75v640q3 46 33 76t75 32h853q45 -2 76.5 -32t31.5 -76v-372h-108v52z" />
    <glyph glyph-name="itunes" unicode="&#x684;" arabic-form="medial" 
d="M291 155q-61 -3 -184 -52t-105 -193q58 -173 240 -142.5t204 239.5v754q-4 4 1.5 27.5t45.5 34.5l595 122q4 4 25.5 0.5t25.5 -39.5v-531q0 -3 -7.5 -26.5t-46.5 -34.5q-62 0 -184.5 -43.5t-118.5 -187.5q43 -177 232.5 -157t214.5 229v1112q0 7 -11 37.5t-76 19.5
l-721 -148q-4 4 -33 -12t-32 -63v-874q0 -3 -9 -32t-56 -40z" />
    <glyph glyph-name="bow-tie" unicode="&#x683;" arabic-form="isolated" 
d="M819 407l410 -204v684l-410 -204v-276zM410 407l-410 -204v684l410 -204v-276zM477 683h275v-276h-275v276z" />
    <glyph glyph-name="calendar-range" unicode="&#x683;" arabic-form="final" 
d="M410 614h-138v-138h138v138zM682 614h-135v-138h135v138zM957 614h-138v-138h138v138zM1091 1091h-67v137h-137v-137h-545v137h-137v-137h-67q-61 0 -99.5 -40t-38.5 -98v-954q0 -57 40 -97t98 -40h953q58 0 98 40t40 97v954q0 58 -40 98t-98 40zM1091 -1h-953v749h953
v-749z" />
    <glyph glyph-name="currency-usd-off" unicode="&#x683;" arabic-form="initial" 
d="M654 941q102 0 146 -45.5t47 -117.5h171q-4 102 -65.5 183.5t-181.5 110.5v171h-233v-167q-62 -15 -116 -44l116 -112q44 21 116 21zM98 1160l-98 -99l265 -265q4 -120 84 -193t218 -113l273 -269q-18 -29 -63.5 -50.5t-122.5 -21.5q-119 3 -174 48.5t-58 114.5h-171
q11 -127 91 -199.5t196 -98.5v-167h233v167q113 22 189 87l171 -174l98 98z" />
    <glyph glyph-name="flash-red-eye" unicode="&#x683;" arabic-form="medial" 
d="M841 1031q-28 0 -46 -18.5t-18 -46t18 -45.5t47 -18t45.5 18t16.5 45.5t-16.5 46t-46.5 18.5zM841 1225q-134 0 -237 -71.5t-152 -186.5q49 -116 152 -187t238 -71t238 71t149 187q-46 115 -149 186.5t-239 71.5zM841 1128q69 0 114.5 -45.5t45.5 -115.5t-45.5 -115.5
t-113.5 -45.5t-113.5 45.5t-45.5 115.5t45.5 115.5t112.5 45.5zM0 1225v-777h194v-583l452 777h-258l73 164q-67 70 -106 161q36 85 95.5 150t138.5 108h-589z" />
    <glyph glyph-name="oar" unicode="&#x686;" arabic-form="isolated" 
d="M1175 330q-83 86 -236.5 196.5t-274.5 71.5l-562 562l-102 -102l565 -565q-38 -121 75 -268t201 -230t155 -60.5t134 98.5q80 74 96 149t-51 148z" />
    <glyph glyph-name="piano" unicode="&#x686;" arabic-form="final" 
d="M121 1099h987q52 0 86.5 -36t34.5 -88v-860q0 -52 -34.5 -88t-86.5 -36h-987q-52 0 -86.5 36t-34.5 88v860q0 52 34.5 88t86.5 36zM121 975v-860h248v369h-78v491h-170zM430 115h369v369h-78v491h-213v-491h-78v-369zM860 115h248v860h-170v-491h-78v-369z" />
    <glyph glyph-name="weather-lightning-rainy" unicode="&#x686;" arabic-form="initial" 
d="M197 456q20 -13 25.5 -34t-6.5 -42t-33 -26.5t-41 5.5q-66 37 -102.5 99.5t-39.5 141.5q3 121 82.5 199.5t197.5 80.5q45 100 133 161.5t203 61.5q147 -2 247.5 -96.5t116.5 -238.5h26q97 -3 160 -66t63 -157t-63 -157t-160 -66q-23 0 -39 16t-16 39.5t16 39t39 15.5
q47 3 80 34.5t33 78.5t-33 78.5t-80 34.5h-110v55q-2 118 -82 197.5t-198 82.5q-108 -3 -182.5 -68.5t-92.5 -167.5q-29 11 -61 11q-70 0 -117.5 -47.5t-49.5 -120.5q0 -47 22 -85t62 -59v0zM477 600h168l-113 -223h113l-210 -390l42 278h-142zM922 173q0 -55 -35 -92
t-89 -37t-89.5 37t-37.5 92q8 71 63 148t63 85q7 -8 62.5 -85t62.5 -148z" />
    <glyph glyph-name="weather-snowy-rainy" unicode="&#x686;" arabic-form="medial" 
d="M980 146q-3 -55 -38 -91.5t-89 -36.5t-89.5 36.5t-35.5 91.5q8 71 63 148t63 85q8 -8 63 -85t63 -148zM168 219q-6 24 6 43.5t36 24.5l125 35l-91 91q-19 19 -19 42.5t17 40.5t41 17t42 -18l92 -92l34 126q5 23 26 35t44.5 5.5t34 -26.5t5.5 -43l-34 -126l125 31
q24 8 45 -3.5t26 -35t-5 -43.5t-34 -25l-126 -34l92 -92q16 -18 16 -41.5t-17 -40.5t-41 -17t-39 15l-92 95l-34 -126q-8 -26 -27.5 -36.5t-43 -4t-35.5 26t-7 43.5l34 125l-126 -34q-23 -5 -42.5 7t-27.5 35zM0 573q3 121 82.5 199.5t197.5 81.5q45 99 133 160.5t203 61.5
q147 -2 247.5 -96.5t116.5 -238.5h26q97 -3 160 -66t63 -157t-63 -157t-160 -66q-23 0 -39 16t-16 39.5t16 39t39 15.5q47 3 80 34.5t33 78.5t-33 78.5t-80 34.5h-110v55q-2 118 -82 198t-198 82q-108 -2 -182.5 -67.5t-92.5 -168.5q-29 11 -61 11q-70 0 -117.5 -47.5
t-47.5 -120.5t47 -120q16 -16 16 -38.5t-17 -38t-39 -15.5t-38 16q-39 39 -61.5 88.5t-22.5 107.5z" />
    <glyph glyph-name="yin-yang" unicode="&#x687;" arabic-form="isolated" 
d="M614 1160q263 -6 436 -179t179 -436q-6 -263 -179 -436t-436 -179q-262 6 -435 179t-179 436q6 263 179 436t435 179zM614 1038q-210 -5 -348.5 -143.5t-144.5 -349.5q6 -211 144.5 -349.5t348.5 -143.5q-103 3 -172.5 72t-69.5 174.5t69.5 174.5t173 72t173 72
t69.5 174.5t-69.5 174.5t-173.5 72zM614 883q41 0 67 -26t26 -65t-26 -65t-66.5 -26t-66.5 26t-26 65t26 65t66 26zM614 392q-40 -3 -66 -29t-26 -65t26 -65t66.5 -26t66.5 26t26 65t-26 65t-67 29z" />
    <glyph glyph-name="tower-beach" unicode="&#x687;" arabic-form="final" 
d="M957 1092v-275h67v-134h-25l230 -890h-141l-38 150l-436 250l-435 -250l-38 -150h-141l230 890h-25v134h67v275h-67v68l819 137v-205h-67zM291 379l-64 -253l250 147zM858 683h-487l-45 -167l288 -166l289 166zM1002 126l-64 253l-186 -106z" />
    <glyph glyph-name="tower-fire" unicode="&#x687;" arabic-form="initial" 
d="M957 1092v-275h67v-134h-25l230 -890h-141l-38 150l-436 250l-435 -250l-38 -150h-141l230 890h-25v134h67v275h-67v68l409 137l410 -137v-68h-67zM291 379l-64 -253l250 147zM858 683h-487l-45 -167l288 -166l289 166zM1002 126l-64 253l-186 -106z" />
    <glyph glyph-name="delete-circle" unicode="&#x687;" arabic-form="medial" 
d="M614 1160q263 -6 436 -179t179 -436q-6 -263 -179 -436t-436 -179q-262 6 -435 179t-179 436q6 263 179 436t435 179zM923 854h-156l-60 60h-185l-60 -60h-156v-124h617v124zM430 176h369q26 0 43.5 17t17.5 43v433h-491v-433q0 -26 17.5 -43t43.5 -17z" />
    <glyph glyph-name="dna" unicode="&#x68d;" arabic-form="isolated" 
d="M0 1310h155v-150q0 -83 37.5 -153t105.5 -139q104 -93 248 -186l-140 -90q-119 75 -212 169q-86 79 -138 177.5t-56 221.5v150zM1074 1310h155v-150q-4 -123 -56 -221.5t-136.5 -177.5t-181.5 -147.5t-199.5 -133t-194 -127.5t-161.5 -131.5t-107.5 -138.5t-37.5 -153
v-150h-155v150q4 123 56 221.5t136.5 177.5t181.5 147.5t199.5 133t194 127.5t161.5 131.5t107.5 138.5t37.5 153v150zM823 498q119 -75 212 -169q86 -79 138 -177.5t56 -221.5v-150h-155v150q0 83 -37.5 153t-105.5 139q-104 93 -248 186zM230 1235h769v-75l-7 -40h-755
l-7 40v75zM284 1005h661q-25 -40 -68 -83l-40 -32h-449l-36 32q-43 43 -68 83zM392 200h449l36 -32q43 -43 68 -83h-661q25 40 68 83zM237 -30h755l7 -40v-75h-769v75z" />
    <glyph glyph-name="hamburger" unicode="&#x68d;" arabic-form="final" 
d="M0 300h1229v-124q0 -52 -34.5 -86.5t-86.5 -37.5h-987q-52 3 -86.5 37.5t-34.5 86.5v124zM245 1038h739q104 -3 173 -72t72 -176v-121h-1229v121q3 107 72 176t173 72zM121 606h678l124 -122l121 122h64q52 0 86.5 -35t34.5 -88t-34.5 -88t-86.5 -35h-987q-52 0 -86.5 35
t-34.5 88t34.5 88t86.5 35z" />
    <glyph glyph-name="gondola" unicode="&#x68c;" arabic-form="isolated" 
d="M979 653h-305v145l555 94l-14 88l-333 -54q6 14 6 29q0 39 -26 65t-65.5 26t-65 -26t-25.5 -61.5t19 -60.5l-51 -6v63h-119v-86l-37 -5q5 14 5 31q0 40 -25.5 65.5t-65 25.5t-65.5 -25.5t-26 -62.5t20 -60l-361 -60l14 -91l541 91v-125h-305q-51 -3 -85 -37t-37 -85v-364
q3 -52 37 -86t85 -37h729q51 3 85 37t37 86v364q-3 51 -37 85t-85 37zM250 531h137v-242h-137v242zM478 289v242h273v-242h-273zM979 289h-137v242h137v-242z" />
    <glyph glyph-name="inbox" unicode="&#x68c;" arabic-form="final" 
d="M1091 340h-272q-3 -86 -60.5 -143.5t-144 -57.5t-144 57.5t-60.5 143.5h-272v682h953v-682zM1091 1160h-953q-61 0 -99.5 -40.5t-38.5 -97.5v-954q0 -57 40 -97.5t98 -40.5h953q58 0 98 40.5t40 97.5v954q0 57 -40 97.5t-98 40.5z" />
    <glyph glyph-name="reorder-horizontal" unicode="&#x68e;" arabic-form="isolated" 
d="M0 340h1229v138h-1229v-138zM0 68h1229v135h-1229v-135zM0 612h1229v138h-1229v-138zM0 1022v-135h1229v135h-1229z" />
    <glyph glyph-name="reorder-vertical" unicode="&#x68e;" arabic-form="final" 
d="M351 1337v-1584h177v1584h-177zM0 1337v-1584h173v1584h-173zM701 1337v-1584h177v1584h-177zM1229 1337h-173v-1584h173v1584z" />
    <glyph glyph-name="security-home" unicode="&#x688;" arabic-form="isolated" 
d="M547 478h135v-205h205v339h137l-410 343l-409 -343h137v-339h205v205zM614 1297l615 -275v-410q-6 -291 -176 -518.5t-439 -300.5q-268 73 -438 300.5t-176 518.5v410z" />
    <glyph glyph-name="tag-heart" unicode="&#x688;" arabic-form="final" 
d="M1194 571l-554 554q-34 35 -86 35h-433q-52 0 -86.5 -35t-34.5 -87v-432q0 -52 35 -87l554 -554q34 -35 86 -35t87 35l432 433q35 34 35 86t-35 87zM213 854q-37 0 -63 26t-26 65t26 64.5t65 25.5t65 -25.5t26 -64.5t-26 -65t-67 -26zM938 343l-263 -262l-262 262
q-44 43 -44 109.5t43.5 110t110 43.5t109.5 -44l43 -46l46 46q44 44 108.5 44t108 -43.5t43.5 -110t-43 -109.5z" />
    <glyph glyph-name="skull" unicode="&#x698;" arabic-form="isolated" 
d="M614 1227q-262 -7 -435 -179.5t-179 -435.5q0 -157 72 -289.5t200 -219.5v-240h138v205h137v-205h135v205h137v-205h138v240q128 87 200 221.5t72 287.5q-6 263 -179 435.5t-436 179.5zM342 612q58 0 96.5 -38.5t38.5 -96t-38.5 -97.5t-96 -40t-97.5 40t-40 97.5t40 96
t97 38.5zM887 612q57 0 97 -38.5t40 -96t-40 -97.5t-97.5 -40t-96 40t-38.5 97.5t38.5 96t96.5 38.5zM614 407l103 -204h-205z" />
    <glyph glyph-name="solid" unicode="&#x698;" arabic-form="final" 
d="M0 1160h1229v-1230h-1229v1230z" />
    <glyph glyph-name="alarm-snooze" unicode="&#x691;" arabic-form="isolated" 
d="M361 1072l-78 92l-283 -237l78 -92zM1229 927l-283 237l-78 -92l283 -240zM614 1034q-236 -6 -392 -163t-161 -391q5 -236 161 -392t392 -162q237 6 393 162t161 392q-5 234 -161 391t-393 163zM614 47q-184 6 -305 127t-124 306q3 182 124 303t305 127q185 -6 306 -127
t124 -303q-3 -185 -124 -306t-306 -127zM430 601h222l-222 -257v-112h369v124h-222l222 260v109h-369v-124z" />
    <glyph glyph-name="baby-buggy" unicode="&#x691;" arabic-form="final" 
d="M710 1191v-516h519q-6 219 -151.5 366t-367.5 150zM1120 293q51 67 80 147.5t29 168.5h-944l-60 130h-225v-130h143l63 -134q55 -118 73 -152q-54 -30 -86 -81.5t-32 -118.5q3 -94 66.5 -159t160.5 -65q85 0 147.5 54.5t74.5 139.5h137q12 -85 74 -139.5t150 -54.5
q94 0 159.5 65t65.5 159q-3 106 -76 170zM388 26q-42 3 -69.5 30.5t-27.5 68.5t27.5 68t68.5 27t68 -27t27 -68t-27 -68.5t-67 -30.5zM971 26q-42 3 -69.5 30.5t-27.5 68.5t27.5 68t68.5 27t68 -27t27 -68t-27 -68.5t-67 -30.5z" />
    <glyph glyph-name="beaker" unicode="&#x6a9;" arabic-form="isolated" 
d="M0 1160h1229v-138q-58 0 -96 -38.5t-42 -96.5v-819q0 -57 -38 -97.5t-96 -40.5h-685q-58 0 -96 40.5t-38 97.5v819q-4 58 -42 96.5t-96 38.5v138zM272 1022v-135h342v-70h-342v-67h205v-67h-205v-71h205v-67h-205v-67h342v-71h-342v-67h205v-67h-205v-205h685v954h-685z
" />
    <glyph glyph-name="bomb" unicode="&#x6a9;" arabic-form="final" 
d="M404 902q3 88 62 148.5t148.5 60.5t148.5 -60.5t62 -148.5q0 -22 14 -35.5t35 -13.5t35 13.5t14 35.5v48h97v-48q-3 -61 -44 -102t-103.5 -41t-103.5 41t-41 102q-3 48 -34.5 80t-80.5 32t-80.5 -32t-31.5 -80h82v-85q142 -43 230 -160t91 -274q-3 -192 -130.5 -319
t-321.5 -134q-194 7 -321.5 134t-130.5 319q3 157 91 274t231 160v85h82zM1099 902h130v-64h-130v64zM904 1032v128h67v-128h-67zM1029 1008l91 91l48 -46l-94 -94z" />
    <glyph glyph-name="calendar-question" unicode="&#x6a9;" arabic-form="initial" 
d="M205 1228v-137h-67q-61 0 -99.5 -40t-38.5 -98v-954q0 -57 40 -97t98 -40h953q58 0 98 40t40 97v954q0 58 -40 98t-98 40h-67v137h-137v-137h-545v137h-137zM138 748h953v-749h-953v749zM627 681q-89 0 -143.5 -40t-51.5 -120v-3h131q0 32 19.5 48t48 16t48 -21t19.5 -53
t-16 -54.5t-42 -38.5q-54 -35 -73.5 -63.5t-19.5 -80.5h135q0 32 9.5 51.5t35.5 35.5q44 22 74.5 62t30.5 91q0 77 -54.5 123.5t-150.5 46.5zM547 204v-137h135v137h-135z" />
    <glyph glyph-name="camera-burst" unicode="&#x6a9;" arabic-form="medial" 
d="M0 935h112v-780h-112v780zM225 935h110v-780h-110v780zM1171 935h-669q-23 0 -39 -16t-16 -39v-670q0 -23 16 -39t39 -16h669q24 0 39.5 16t18.5 39v670q-3 23 -18.5 39t-39.5 16zM560 265l138 178l100 -120l141 178l178 -236h-557z" />
    <glyph glyph-name="code-tags-check" unicode="&#x6af;" arabic-form="isolated" 
d="M269 1103l-269 -269l269 -268l82 82l-186 186l186 187zM609 1103l-82 -82l186 -187l-186 -186l82 -82l269 268zM1147 626l-475 -475l-214 217l-82 -82l296 -299l557 557z" />
    <glyph glyph-name="coins" unicode="&#x6af;" arabic-form="final" 
d="M781 993q191 -5 317 -131t131 -317q-5 -191 -131 -317t-317 -131q-191 5 -317 131t-131 317q5 191 131 317t317 131zM781 210q141 2 237 97.5t98 237.5q-2 142 -98 237.5t-237 97.5q-142 -2 -237.5 -97.5t-98.5 -237.5q3 -142 98.5 -237.5t237.5 -97.5zM110 545
q3 -110 63 -195t160 -122v-115q-147 39 -240 155.5t-93 276.5t93 276.5t240 155.5v-115q-100 -37 -160 -122t-63 -195z" />
    <glyph glyph-name="crop-rotate" unicode="&#x6af;" arabic-form="initial" 
d="M382 58q-128 62 -209.5 176t-95.5 261h-77q24 -243 194.5 -401.5t417.5 -163.5q17 0 34 3l-195 194zM617 1160q-17 0 -34 -3l195 -194l69 69q128 -62 209.5 -176t95.5 -261h77q-24 243 -194.5 401.5t-417.5 163.5zM819 442h103v307q0 46 -30 74.5t-73 28.5h-308v-103h308
v-307zM410 341v614h-103v-103h-103v-103h103v-408q0 -43 30 -73t73 -30h409v-103h103v103h103v103h-615z" />
    <glyph glyph-name="developer-board" unicode="&#x6af;" arabic-form="medial" 
d="M1229 730v124h-121v121q-3 52 -37.5 88t-86.5 36h-863q-52 0 -86.5 -36t-34.5 -88v-860q0 -52 34.5 -88t86.5 -36h863q52 0 86.5 36t37.5 88v121h121v124h-121v124h121v122h-121v124h121zM984 115h-863v860h863v-860zM245 484h309v-248h-309v248zM614 854h246v-185h-246
v185zM245 854h309v-309h-309v309zM614 606h246v-370h-246v370z" />
    <glyph glyph-name="do-not-disturb" unicode="&#x6b3;" arabic-form="isolated" 
d="M614 1160q-262 -6 -435 -179t-179 -436q6 -263 179 -436t435 -179q263 6 436 179t179 436q-6 263 -179 436t-436 179zM923 484h-617v122h617v-122z" />
    <glyph glyph-name="do-not-disturb-off" unicode="&#x6b3;" arabic-form="final" 
d="M938 633v-115h-85l272 -275q49 72 76.5 155.5t27.5 176.5q-5 250 -170 414.5t-414 170.5q-94 0 -177.5 -27.5t-154.5 -77.5l422 -422h203zM74 1146l-74 -77l165 -162q-50 -71 -77.5 -155t-27.5 -177q6 -249 170.5 -414t414.5 -170q93 0 176.5 27.5t155.5 76.5l161 -165
l77 75zM351 518v115h85l118 -115h-203z" />
    <glyph glyph-name="douban" unicode="&#x6b3;" arabic-form="initial" 
d="M1229 1005h-1229v155h1229v-155zM1229 85v-155h-1229v155h255l-79 305h-97v460h1071v-460h-97l-79 -305h255zM230 545h769v155h-769v-155zM417 85h395l83 305h-561z" />
    <glyph glyph-name="emoticon-dead" unicode="&#x6b3;" arabic-form="medial" 
d="M614 1160q-262 -6 -435 -179t-179 -436q6 -263 179 -436t435 -179q263 6 436 179t179 436q-6 263 -180.5 436t-434.5 179zM614 52q-210 5 -348.5 143.5t-144.5 349.5q6 211 144.5 349.5t348.5 143.5q211 -5 349.5 -143.5t144.5 -349.5q-6 -211 -144.5 -349.5
t-349.5 -143.5zM871 805l-63 -64l-67 64l-66 -64l66 -66l-66 -64l66 -66l67 66l63 -66l67 66l-67 64l67 66zM358 545l63 66l67 -66l66 66l-66 64l66 66l-66 64l-67 -64l-63 64l-67 -64l67 -66l-67 -64zM614 421q-109 0 -192.5 -59t-121.5 -155h629q-38 96 -121.5 155
t-193.5 59z" />
    <glyph glyph-name="emoticon-excited" unicode="&#x6b1;" arabic-form="isolated" 
d="M614 1160q-262 -6 -435 -179t-179 -436q6 -263 179 -436t435 -179q263 6 436 179t179 436q-6 263 -180.5 436t-434.5 179zM614 52q-210 5 -348.5 143.5t-144.5 349.5q6 211 144.5 349.5t348.5 143.5q211 -5 349.5 -143.5t144.5 -349.5q-6 -211 -144.5 -349.5
t-349.5 -143.5zM675 672l66 -66l67 66l63 -66l67 66l-130 130zM421 672l67 -66l66 66l-133 130l-130 -130l67 -66zM614 207q110 0 193.5 59.5t121.5 154.5h-629q38 -95 121.5 -154.5t192.5 -59.5z" />
    <glyph glyph-name="folder-star" unicode="&#x6b1;" arabic-form="final" 
d="M1108 914h-494l-124 124h-369q-52 -3 -86.5 -37.5t-34.5 -86.5v-738q0 -52 34.5 -86.5t86.5 -37.5h987q52 3 86.5 37.5t34.5 86.5v614q0 52 -34.5 88t-86.5 36zM981 236l-182 107l-182 -107l49 205l-158 139l207 17l84 193l84 -193l208 -17l-159 -139z" />
    <glyph glyph-name="format-color-text" unicode="&#x6b1;" arabic-form="initial" 
d="M389 357l225 597l226 -597h-451zM522 1206l-522 -1322h212l106 283h593l106 -283h212l-522 1322h-185z" />
    <glyph glyph-name="format-section" unicode="&#x6b1;" arabic-form="medial" 
d="M989 1324q-149 86 -326 86q-125 0 -204.5 -55t-84.5 -151q5 -101 96.5 -159t244.5 -106q198 -57 323 -153.5t129 -278.5q-4 -101 -52.5 -187.5t-129.5 -144.5q101 -101 101 -240q-10 -217 -166 -315.5t-358 -98.5q-226 -5 -423 116l67 153q163 -110 360 -110
q135 0 219 57.5t89 168.5q5 91 -72 156t-264 127q-217 72 -344.5 168.5t-131.5 269.5q4 101 59.5 187.5t142.5 134.5q-97 91 -101 231q4 182 146 285.5t358 103.5q202 0 380 -91zM547 401q164 -53 313 -135q105 82 105 212q0 77 -57.5 144t-192.5 115q-168 58 -336 140
q-58 -34 -91.5 -91.5t-33.5 -129.5t67.5 -137t225.5 -118z" />
    <glyph glyph-name="gradient" unicode="&#x6ba;" arabic-form="isolated" 
d="M547 750h135v-138h-135v138zM410 612h137v-134h-137v134zM682 612h137v-134h-137v134zM819 750h138v-138h-138v138zM272 750h138v-138h-138v138zM1091 1160h-953q-58 0 -98 -40.5t-40 -97.5v-954q0 -57 40 -97.5t98 -40.5h953q58 0 98 40.5t40 97.5v954q0 57 -40 97.5
t-98 40.5zM410 135h-138v138h138v-138zM682 135h-135v138h135v-138zM957 135h-138v138h138v-138zM1091 612h-134v-134h134v-138h-134v138h-138v-138h-137v138h-135v-138h-137v138h-138v-138h-134v138h134v134h-134v410h953v-410z" />
    <glyph glyph-name="home-outline" unicode="&#x6ba;" arabic-form="final" 
d="M428 83v373h373v-373h186v501l-373 373l-372 -373v-501h186zM614 1132l615 -615h-116v-559h-437v373h-123v-373h-437v559h-116z" />
    <glyph glyph-name="message-bulleted" unicode="&#x6bb;" arabic-form="isolated" 
d="M1108 1160h-987q-52 0 -86.5 -35t-34.5 -87v-1108l245 246h863q52 0 86.5 36t34.5 88v738q0 52 -34.5 87t-86.5 35zM369 421h-124v124h124v-124zM369 606h-124v124h124v-124zM369 790h-124v124h124v-124zM799 421h-309v124h309v-124zM984 606h-494v124h494v-124zM984 790
h-494v124h494v-124z" />
    <glyph glyph-name="message-bulleted-off" unicode="&#x6bb;" arabic-form="final" 
d="M71 1160l-71 -71l113 -113v-949l222 223h504l319 -320l71 71zM448 473h-113v113h113v-113zM335 641v112l113 -112h-113zM1119 1144h-891l330 -330v107h448v-113h-443l55 -55h388v-112h-275l391 -391q47 3 77 34.5t30 78.5v671q0 47 -31.5 78.5t-78.5 31.5z" />
    <glyph glyph-name="nuke" unicode="&#x6bb;" arabic-form="initial" 
d="M741 545h-251v61h-277q-89 2 -151 63t-62 153t62 152.5t151 63.5q99 -3 162 -72q20 87 85 140.5t154.5 53.5t154.5 -53.5t85 -140.5q63 69 162 72q89 -3 151 -63.5t62 -152.5t-62 -153t-151 -63h-275v-61zM490 242v72h-305v121h859v-121h-303v-72l367 -133q26 -11 43 -34
t17 -52q0 -41 -26 -67t-66 -26h-923q-40 0 -66 26t-26 67q0 29 17 52t43 34z" />
    <glyph glyph-name="power-plug" unicode="&#x6bb;" arabic-form="medial" 
d="M1023 1059v408h-202v-408h-413v408h-202v-408q-81 -5 -141 -65t-65 -142v-561l360 -361v-307h509v307l360 361v561q-5 82 -65 142t-141 65z" />
    <glyph glyph-name="power-plug-off" unicode="&#x6c0;" arabic-form="isolated" 
d="M411 1196v-218q314 -314 629 -622q9 13 27 27t27 34v382q-3 57 -49.5 87.5t-88.5 46.5v263h-135v-272h-275v272h-135zM87 1129l-87 -87l273 -276v-356l240 -240v-206h341v206q12 9 23.5 -7t24.5 -22l237 -247q51 45 90 89q-578 572 -1142 1143v3z" />
    <glyph glyph-name="publish" unicode="&#x6c0;" arabic-form="final" 
d="M0 1250v-177h1229v177h-1229zM0 368h351v-528h527v528h351l-615 618z" />
    <glyph glyph-name="restore" unicode="&#x6c1;" arabic-form="isolated" 
d="M702 1072q-222 -6 -371.5 -154t-154.5 -373h-176l228 -228l5 -8l236 236h-175q5 176 120 291t288 118q176 -3 291 -118t121 -291q-6 -176 -121 -291t-291 -118q-85 0 -159 31.5t-129 89.5l-82 -85q71 -71 166 -112.5t204 -41.5q225 6 373.5 154t153.5 373
q-5 225 -153.5 373t-373.5 154zM645 778v-291l249 -150l44 71l-206 123v247h-87z" />
    <glyph glyph-name="robot" unicode="&#x6c1;" arabic-form="final" 
d="M614 1102q48 0 79 -31.5t34 -78.5q0 -31 -15.5 -57.5t-42.5 -39.5v-70h58q165 -5 274.5 -115t115.5 -277h54q24 0 39.5 -16t18.5 -39v-168q-3 -23 -18.5 -39t-39.5 -16h-54v-57q0 -47 -33 -78.5t-80 -31.5h-779q-47 0 -80 31.5t-33 78.5v57h-54q-24 0 -39.5 16t-18.5 39
v168q3 23 18.5 39t39.5 16h54q6 167 115.5 277t274.5 115h58v70q-27 13 -42.5 39.5t-15.5 57.5q3 47 34 78.5t78 31.5zM363 490q-60 -3 -99 -42t-39 -98t39 -98t99.5 -39t99.5 39t39 98t-39 98t-100 42zM866 490q-61 -3 -100 -42t-39 -98t39 -98t99.5 -39t99.5 39t39 98
t-39 98t-99 42z" />
    <glyph glyph-name="format-rotate-90" unicode="&#x6c1;" arabic-form="initial" 
d="M379 832l-379 -376l379 -376l376 376zM166 456l213 213l212 -213l-212 -212zM1076 819q-76 79 -171.5 117t-198.5 38v188l-245 -248l245 -245v188q79 0 154 -30t135 -90q120 -125 120 -287.5t-120 -287.5q-60 -60 -135 -90t-154 -30q-85 0 -164 36l-87 -85
q117 -65 251 -65q103 0 198.5 38t171.5 114q153 161 153 369.5t-153 369.5z" />
    <glyph glyph-name="scanner" unicode="&#x6c1;" arabic-form="medial" 
d="M1146 670l-1063 387l-48 -128l960 -349h-857q-58 0 -98 -40t-40 -97v-272q0 -58 40 -96.5t98 -41.5h953q58 3 98 41.5t40 96.5v374q0 45 -22.5 78.5t-60.5 46.5zM272 238h-134v137h134v-137zM1091 238h-681v137h681v-137z" />
    <glyph glyph-name="subway" unicode="&#x6be;" arabic-form="isolated" 
d="M398 359q26 0 43.5 -17.5t17.5 -43.5t-17.5 -43t-43.5 -17t-43 17t-17 43t17 43.5t43 17.5zM306 728h617v-308h-617v308zM831 359q26 0 43 -17.5t17 -43.5t-17 -43t-43 -17t-43.5 17t-17.5 43t17.5 43.5t43.5 17.5zM984 304v424q-3 118 -108.5 153t-261.5 32
q-144 3 -253.5 -32t-115.5 -153v-424q3 -69 48 -114t114 -47l-69 -70v-23h103l93 93h173l92 -93h92v23l-69 70q69 2 114 47t48 114zM972 1109q124 -49 190.5 -145.5t66.5 -226.5v-808h-1229v808q0 130 66.5 226.5t190.5 145.5q83 32 177 42t180.5 10t180.5 -10t177 -42z" />
    <glyph glyph-name="timer-sand-empty" unicode="&#x6be;" arabic-form="final" 
d="M0 1568v-615l408 -408l-408 -408v-615h1229v615l-408 408l408 408v615h-1229zM1023 84v-360h-817v360l408 408zM614 598l-408 408v360h817v-360z" />
    <glyph glyph-name="transit-transfer" unicode="&#x6be;" arabic-form="initial" 
d="M891 344h338v-92h-338v-107l-152 153l152 156v-110zM1076 85v107l153 -153l-153 -156v110h-337v92h337zM462 962q-52 0 -88 34.5t-36 86.5t36 88t88 36t86.5 -36t34.5 -88t-34.5 -86.5t-86.5 -34.5zM231 751l-110 -46v-205h-121v289l323 132q23 9 46 9q67 -3 104 -58
l58 -98q43 -69 112.5 -109.5t155.5 -43.5v-121q-101 0 -187.5 42t-147.5 117l-37 -185l127 -127v-464h-124v369l-133 124l-107 -493h-129z" />
    <glyph glyph-name="unity" unicode="&#x6be;" arabic-form="medial" 
d="M527 192h-181l-346 353l346 353h181l92 158l478 122l132 -475l-92 -158l92 -158l-132 -475l-478 122zM537 212l363 -99l-208 363h-419zM1021 186l96 359l-96 359l-207 -359zM537 878l-264 -264h419l208 363z" />
    <glyph glyph-name="update" unicode="&#x6d2;" arabic-form="isolated" 
d="M1229 673h-464l189 192q-147 141 -337.5 142.5t-338.5 -136.5q-140 -144 -140 -332.5t140 -335.5q148 -138 338.5 -138t337.5 138q137 137 137 336h138q0 -106 -45 -223t-134 -206q-189 -180 -435.5 -180t-435.5 180q-179 185 -179 428.5t179 428.5q189 180 432.5 180
t431.5 -180l186 193v-487zM650 817v-288l237 -144l-48 -83l-292 176v339h103z" />
    <glyph glyph-name="watch-vibrate" unicode="&#x6d2;" arabic-form="final" 
d="M154 287v514h103v-514h-103zM972 287v514h103v-514h-103zM1126 697h103v-307h-103v307zM0 390v307h103v-307h-103zM919 546q0 -74 -31 -136.5t-84 -105.5l-38 -219h-305l-39 219q-52 43 -83.5 105.5t-31.5 135.5t31.5 135.5t83.5 105.5l39 219h305l38 -219
q53 -43 84 -105.5t31 -134.5zM384 546q2 -98 67 -163t162.5 -65t162 65t64.5 162t-64.5 162t-162 65t-162.5 -65t-67 -161z" />
    <glyph glyph-name="angular" unicode="&#x6d3;" arabic-form="isolated" 
d="M614 1205l615 -221l-94 -810l-521 -289l-520 289l-94 810zM614 1059l-383 -862h143l78 195h325l78 -195h140zM728 509h-224l110 270z" />
    <glyph glyph-name="dolby" unicode="&#x6d3;" arabic-form="final" 
d="M0 975v-860h1229v860h-1229zM245 236h-124v618h124q136 -9 222.5 -95.5t86.5 -213.5t-86.5 -213.5t-222.5 -95.5zM1108 236h-124q-136 9 -222.5 95.5t-86.5 213.5t86.5 213.5t222.5 95.5h124v-618z" />
    <glyph glyph-name="flash-outline" unicode="&#x6ad;" arabic-form="isolated" 
d="M100 1569h1029l-361 -716h361l-721 -1332v817h-308v1231zM307 1367v-822h307v-274l207 375h-389l365 721h-490z" />
    <glyph glyph-name="format-font" unicode="&#x6ad;" arabic-form="final" 
d="M957 817h205v-819h67v-68h-272v68h67v205h-272l-102 -205h102v-68h-275v68h70zM1024 750l-240 -477h240v477zM138 1160h339q61 0 99 -38.5t38 -99.5v-749h-204v339h-205v-339h-205v749q0 61 38.5 99.5t99.5 38.5zM205 1022v-272h205v272h-205z" />
    <glyph glyph-name="format-page-break" unicode="&#x6ad;" arabic-form="initial" 
d="M272 612h138v-134h-138v134zM547 612h135v-134h-135v134zM1091 203h-272v400l410 -410v-330h-1229v615h138v-480h953v205zM0 1227h1229v-615h-138v480h-953v-480h-138v615z" />
    <glyph glyph-name="format-pilcrow" unicode="&#x6ad;" arabic-form="medial" 
d="M405 646q-174 5 -289.5 120.5t-115.5 291.5t115.5 292t289.5 120h824v-207h-207v-1643h-203v1643h-207v-1643h-207v1026z" />
    <glyph glyph-name="garage" unicode="&#x6c7;" arabic-form="isolated" 
d="M1229 -115h-173v792h-883v-792h-173v969l614 351l615 -351v-969zM264 590h701v-177h-701v177zM264 326h701v-177h-701v177zM965 62v-177h-701v177h701z" />
    <glyph glyph-name="garage-open" unicode="&#x6c7;" arabic-form="final" 
d="M1229 -115h-173v792h-883v-792h-173v969l614 351l615 -351v-969zM264 590h701v-177h-701v177z" />
    <glyph glyph-name="github-face" unicode="&#x6c6;" arabic-form="isolated" 
d="M1131 789q9 20 17.5 88t-29.5 166q0 6 -63.5 -3t-201.5 -95q-115 26 -240 23q-124 3 -239 -23q-138 89 -201.5 96.5t-63.5 1.5q-38 -98 -29.5 -166t17.5 -88q-95 -101 -98 -257q3 -291 171.5 -392t442.5 -95q272 -6 442 95t173 392q-3 156 -98 257zM614 123
q-196 -9 -325.5 34.5t-132.5 221.5q0 90 78 159q63 52 161 46t219 -11q122 5 220 11t161 -46q78 -69 81 -159q-6 -176 -135.5 -220.5t-326.5 -35.5zM421 506q-37 0 -64.5 -39t-27.5 -96.5t27.5 -98t66.5 -40.5t65 39t26 98t-26 98t-67 39zM808 506q-41 0 -67 -39t-26 -98
t26 -98t65 -39t66.5 39t27.5 98t-26 98t-66 39z" />
    <glyph glyph-name="google-keep" unicode="&#x6c6;" arabic-form="final" 
d="M121 1160h987q52 0 86.5 -35t34.5 -87v-822l-286 -286h-822q-52 0 -86.5 35t-34.5 87v986q0 52 34.5 87t86.5 35zM923 236v-199l199 199h-199zM490 115h249v61h60v308q58 41 89.5 106t34.5 140q-3 129 -91 217t-218 91q-129 -3 -217 -91t-91 -217q3 -75 34.5 -140
t89.5 -106v-308h60v-61zM739 236h-249v64h249v-64zM739 360h-249v61h249v-61zM614 975q104 -3 173.5 -72.5t72.5 -172.5q0 -70 -33.5 -126t-87.5 -88v-32h-249v32q-54 32 -87.5 88t-33.5 126q3 103 72.5 172.5t172.5 72.5z" />
    <glyph glyph-name="google-photos" unicode="&#x6c8;" arabic-form="isolated" 
d="M923 545v309l-309 306v-306h-308l-306 -309h306v-309l308 -306v306h309l306 309h-306zM669 490l-55 -161l-54 161l-162 55l162 55l54 164l55 -164l162 -55z" />
    <glyph glyph-name="heart-half-full" unicode="&#x6c8;" arabic-form="final" 
d="M891 985q-72 0 -129.5 -37.5t-86.5 -98.5v-646q199 176 314.5 310t118.5 258q-3 93 -62 153.5t-155 60.5zM891 1109q145 -3 240 -98t98 -240q-3 -170 -144.5 -334.5t-380.5 -374.5l-90 -81l-89 81q-239 210 -380.5 374.5t-144.5 334.5q3 145 98 240t240 98
q80 0 152.5 -34.5t123.5 -92.5q52 58 124.5 92.5t152.5 34.5z" />
    <glyph glyph-name="heart-half" unicode="&#x677;" arabic-form="isolated" 
d="M1227 1098v-1477l-110 -100l-162 147q-435 382 -691.5 680.5t-261.5 607.5q5 262 178 435t434 178q220 -5 411.5 -141.5t201.5 -329.5z" />
    <glyph glyph-name="heart-half-outline" unicode="&#x6cb;" arabic-form="isolated" 
d="M222 956q5 -225 214.5 -468.5t570.5 -563.5v1174q-52 110 -157 178t-236 68q-172 0 -279.5 -110t-112.5 -278zM1227 1098v-1477l-110 -100l-162 147q-435 382 -691.5 680.5t-261.5 607.5q5 262 178 435t434 178q220 -5 411.5 -141.5t201.5 -329.5z" />
    <glyph glyph-name="hexagon-multiple" unicode="&#x6cb;" arabic-form="final" 
d="M463 1182q18 0 27 -15l141 -254l6 -18l-6 -18l-141 -251q-9 -15 -27 -18h-287q-21 3 -29 18l-141 251l-6 18l6 18l141 254q8 15 29 15h287zM463 482q18 -3 27 -18l141 -251l6 -18l-6 -18l-141 -254q-9 -15 -27 -15h-287q-21 0 -29 15l-141 254l-6 18l6 18l141 251
q8 15 29 18h287zM1053 832q18 0 26 -18l144 -251l6 -18l-6 -18l-144 -251q-8 -18 -26 -18h-287q-18 0 -27 18l-144 251l-6 18l6 18l144 251q9 18 27 18h287z" />
    <glyph glyph-name="hook" unicode="&#x6c5;" arabic-form="isolated" 
d="M1229 1115q0 -133 -77.5 -233t-206.5 -131v-679q-4 -199 -137.5 -332t-337.5 -138q-199 5 -332.5 138t-137.5 332v475l470 -475h-284q5 -119 85 -199t202 -80t201.5 80t79.5 199v679q-124 36 -201.5 135.5t-82.5 233.5q5 159 113.5 263.5t268.5 104.5t266.5 -106.5
t110.5 -266.5zM852 924q80 5 133 58t53 133t-53 133t-133 53t-135.5 -53t-55.5 -133t55.5 -133t135.5 -58z" />
    <glyph glyph-name="hook-off" unicode="&#x6c5;" arabic-form="final" 
d="M749 692v-93l138 -134v227q112 32 168 125t25.5 205t-123.5 168t-206.5 27t-168 -123.5t-28.5 -206.5q19 -73 72 -124.5t123 -70.5zM819 1092q58 -3 96.5 -41.5t38.5 -96t-38.5 -96t-96 -38.5t-97.5 38.5t-40 96t40 96t97 41.5zM1143 -137l-266 263q-38 -138 -155 -210
t-258 -40q-115 29 -187 118.5t-72 207.5v343l339 -343h-205q3 -86 61 -143.5t146 -57.5t145.5 57.5t57.5 143.5v52l-749 752l86 86l1143 -1142z" />
    <glyph glyph-name="infinity" unicode="&#x6c9;" arabic-form="isolated" 
d="M953 821q118 -2 196 -80t80 -196q-2 -118 -80 -194.5t-196 -81.5q-115 2 -197 82l-142 124l-144 -127q-38 -38 -88.5 -58.5t-105.5 -20.5q-118 2 -196 80t-80 196q2 118 80 196t196 80q115 -2 197 -82l141 -124l145 127q38 38 88.5 58.5t105.5 20.5zM398 423l140 122
l-137 120q-53 53 -126 51.5t-122.5 -49.5t-49.5 -122t49.5 -122t122.5 -49.5t123 49.5zM831 667l-140 -122l137 -120q53 -53 126 -51.5t122.5 49.5t49.5 122t-49.5 122t-122.5 49.5t-123 -49.5z" />
    <glyph glyph-name="language-swift" unicode="&#x6c9;" arabic-form="final" 
d="M929 69q-113 -64 -254 -66.5t-291 60.5q-124 52 -222.5 137t-161.5 192q61 -52 141 -87q156 -72 301.5 -70.5t258.5 70.5q-156 122 -285.5 264.5t-230.5 272.5q-38 43 -70 92q378 -291 394 -307t-244 368q234 -228 402.5 -350.5t177.5 -125.5l23 -12q9 23 15 46
q34 133 -0.5 274.5t-126.5 268.5q213 -133 318.5 -340.5t56.5 -412.5q-3 -9 -3 -23q98 -139 101 -239.5t-18 -83.5q-60 104 -144 102.5t-138 -30.5z" />
    <glyph glyph-name="language-typescript" unicode="&#x6d0;" arabic-form="isolated" 
d="M0 1160h1229v-1230h-1229v1230zM730 145q25 -51 78 -84.5t136 -33.5t136 41.5t53 118.5q0 70 -40 111.5t-114 70.5l-28 13q-36 16 -53.5 30.5t-17.5 39.5q3 45 53 48t78 -48l87 58q-55 96 -163 93q-77 -4 -122 -45.5t-45 -110t37 -107t101 -64.5l29 -13q38 -16 60.5 -32
t22.5 -43t-21 -43t-61 -16t-65.5 19t-44.5 51zM682 596h-340v-102h103v-496h118v496h119v102z" />
    <glyph glyph-name="laptop-off" unicode="&#x6d0;" arabic-form="final" 
d="M50 966l68 65l907 -907l-65 -65l-103 101h-857v103h204q-43 0 -72 30t-29 73v511q0 17 5 32zM204 366h449l-449 447v-447zM1025 366v511h-624l-103 104h727q43 -3 72 -31.5t29 -72.5v-511q0 -43 -29 -73t-72 -30h204v-103h-113l-204 206h113z" />
    <glyph glyph-name="lightbulb-on" unicode="&#x6d0;" arabic-form="initial" 
d="M614 880q142 -3 237.5 -98.5t97.5 -236.5q0 -94 -45.5 -170t-121.5 -120v-100q0 -23 -16 -39t-39 -18h-225q-23 2 -39 18t-16 39v100q-76 44 -121.5 120t-45.5 170q2 141 97.5 236.5t236.5 98.5zM727 43v-55q-3 -24 -18.5 -39.5t-39.5 -18.5h-109q-24 3 -39.5 18.5
t-18.5 39.5v55h225zM1062 600h167v-110h-167v110zM0 600h167v-110h-167v110zM669 1160v-168h-109v168h109zM220 1018l117 -117l-78 -79l-118 118zM892 901l117 117l79 -78l-118 -118z" />
    <glyph glyph-name="lightbulb-on-outline" unicode="&#x6d0;" arabic-form="medial" 
d="M1062 600h167v-110h-167v110zM0 600h167v-110h-167v110zM669 1160v-168h-109v168h109zM220 1018l117 -117l-78 -79l-118 118zM892 901l117 117l79 -78l-118 -118zM614 880q142 -3 237.5 -98.5t97.5 -236.5q0 -94 -45.5 -170t-121.5 -120v-100q0 -23 -16 -39t-39 -18h-225
q-23 2 -39 18t-16 39v100q-76 44 -121.5 120t-45.5 170q2 141 97.5 236.5t236.5 98.5zM727 43v-55q-3 -24 -18.5 -39.5t-39.5 -18.5h-109q-24 3 -39.5 18.5t-18.5 39.5v55h225zM560 210h109v118q76 21 122 80t46 137q-3 94 -65.5 157t-157 63t-157 -63t-65.5 -157
q0 -78 46 -137t122 -80v-118z" />
    <glyph glyph-name="lock-pattern" unicode="&#x649;" arabic-form="initial" 
d="M273 1160q118 -4 195.5 -81t80.5 -192q-3 -100 -59.5 -170.5t-146.5 -96.5v-154q39 -9 71 -28l308 308q-35 64 -39 141q4 115 81 192t194 77t194 -77t77 -194t-77 -194t-193 -80q-77 3 -138 38l-311 -311q36 -61 39 -138q-3 -115 -80.5 -192.5t-194.5 -77.5t-194 77.5
t-80 192.5q3 100 59.5 170.5t145.5 95.5v154q-89 26 -145.5 96.5t-59.5 170.5q3 115 80 192t193 81zM959 476q116 -3 193 -80t77 -194t-77 -194.5t-194 -77.5t-194 77.5t-77 194.5t77 194t195 80zM959 338q-57 0 -97.5 -40t-40.5 -98t40.5 -96.5t98 -38.5t96 38.5t38.5 96.5
t-38.5 98t-96.5 40z" />
    <glyph glyph-name="loop" unicode="&#x649;" arabic-form="medial" 
d="M430 451v-430h-430v124h219q-75 78 -116.5 180.5t-41.5 218.5q5 251 171 415t414 170q248 -6 412.5 -170t170.5 -415q-6 -249 -170.5 -413t-412.5 -170h-32v121h32q196 6 326 135.5t136 326.5q-6 196 -136 327t-326 134q-196 -3 -327 -134t-134 -327q0 -90 31.5 -170.5
t89.5 -141.5v219h124z" />
    <glyph glyph-name="magnify-minus-outline" unicode="&#xfbea;" arabic-form="isolated" 
d="M880 385h-56l-20 20q53 59 81 135t28 162q-4 194 -132.5 324t-322.5 134q-194 -4 -324.5 -134t-133.5 -324q3 -195 133.5 -323.5t324.5 -131.5q86 0 161.5 28t135.5 81l19 -20v-56l350 -350l105 106zM458 385q-135 3 -224 92t-89 224.5t89 224.5t224 89t224 -89
t89 -224.5t-89 -224.5t-224 -92zM280 738h353v-69h-353v69z" />
    <glyph glyph-name="magnify-plus-outline" unicode="&#xfbeb;" arabic-form="final" 
d="M880 385l349 -349l-105 -106l-350 350v56l-19 20q-60 -53 -135.5 -81t-161.5 -28q-194 3 -324.5 131.5t-133.5 323.5q3 194 133.5 324t324.5 134q194 -4 322.5 -134t132.5 -324q0 -86 -28 -162t-81 -135l20 -20h56zM458 385q135 3 224 92t89 224.5t-89 224.5t-224 89
t-224 -89t-89 -224.5t89 -224.5t224 -92zM633 669h-142v-142h-69v142h-142v69h142v141h69v-141h142v-69z" />
    <glyph glyph-name="mailbox" unicode="&#xfbec;" arabic-form="isolated" 
d="M1108 852h-618v-369h-121v493h370v246h-494v-370h-124q-52 0 -86.5 -36t-34.5 -88v-738q0 -52 34.5 -87t86.5 -35h987q52 0 86.5 35t34.5 87v738q0 52 -34.5 88t-86.5 36z" />
    <glyph glyph-name="medical-bag" unicode="&#xfbed;" arabic-form="final" 
d="M491 1098l-121 -124v-121h-185q-54 -3 -86 -39t-38 -85l-60 -613q-6 -49 24.5 -85t96.5 -39h985q66 3 96.5 39t24.5 85l-60 613q-6 49 -39 85t-85 39h-185v121l-121 124h-247zM491 974h247v-121h-247v121zM554 669h121v-184h184v-124h-184v-185h-121v185h-184v124h184
v184z" />
    <glyph glyph-name="message-settings" unicode="&#xfbee;" arabic-form="isolated" 
d="M1108 1222h-987q-52 0 -86.5 -35t-34.5 -87v-1107l245 245h863q52 0 86.5 36t34.5 88v738q0 52 -34.5 87t-86.5 35zM554 -132h121v125h-121v-125zM306 -132h124v125h-124v-125zM799 -132h124v125h-124v-125z" />
    <glyph glyph-name="message-settings-variant" unicode="&#xfbef;" arabic-form="final" 
d="M707 669q0 -40 -26 -66t-66.5 -26t-66.5 26t-26 65t26 64.5t66.5 25.5t66.5 -25.5t26 -63.5zM1229 1038v-738q0 -52 -34.5 -88t-86.5 -36h-863l-245 -246v1108q0 52 34.5 87t86.5 35h987q52 0 86.5 -35t34.5 -87zM909 588l-67 49q0 15 1.5 30.5t-1.5 30.5l67 52q8 8 3 20
l-64 107q-6 11 -17 6l-78 -29q-23 17 -52 29l-11 80q-3 12 -15 12h-121q-15 0 -17 -12l-12 -80q-26 -12 -52 -29l-78 29q-11 5 -17 -6l-61 -107q-5 -12 3 -20l64 -52q-3 -29 0 -61l-64 -49q-8 -8 -3 -20l61 -107q6 -11 17 -8l78 31q23 -20 52 -31l12 -81q2 -12 17 -12h121
q15 0 17 12l12 84q26 11 52 28l75 -31q14 -3 20 8l61 107q5 12 -3 20z" />
    <glyph glyph-name="minus-box-outline" unicode="&#xfbf0;" arabic-form="isolated" 
d="M1091 68v954h-953v-954h953zM1091 1160q58 0 98 -40.5t40 -97.5v-954q0 -57 -40 -97.5t-98 -40.5h-953q-58 0 -98 40.5t-40 97.5v954q0 61 40 99.5t98 38.5h953zM957 612v-134h-685v134h685z" />
    <glyph glyph-name="network" unicode="&#xfbf1;" arabic-form="final" 
d="M923 1161q52 0 86.5 -36t34.5 -88v-615q0 -52 -34.5 -86.5t-86.5 -37.5h-248v-121h64q26 -3 43 -20t17 -43h430v-121h-430q0 -26 -17 -43.5t-43 -20.5h-249q-26 3 -43 20.5t-17 43.5h-430v121h430q0 26 17 43t43 20h64v121h-248q-52 3 -86.5 37.5t-34.5 86.5v615
q0 52 34.5 88t86.5 36h617z" />
    <glyph glyph-name="download-network" unicode="&#xfbf2;" arabic-form="isolated" 
d="M923 1161q52 0 86.5 -36t34.5 -88v-615q0 -52 -34.5 -86.5t-86.5 -37.5h-248v-121h64q26 -3 43 -20t17 -43h430v-121h-430q0 -26 -17 -43.5t-43 -20.5h-249q-26 3 -43 20.5t-17 43.5h-430v121h430q0 26 17 43t43 20h64v121h-248q-52 3 -86.5 37.5t-34.5 86.5v615
q0 52 34.5 88t86.5 36h617zM614 454l277 277h-216v245h-121v-245h-216z" />
    <glyph glyph-name="help-network" unicode="&#xfbf3;" arabic-form="final" 
d="M923 1161q52 0 86.5 -36t34.5 -88v-615q0 -52 -34.5 -86.5t-86.5 -37.5h-248v-121h64q26 -3 43 -20t17 -43h430v-121h-430q0 -26 -17 -43.5t-43 -20.5h-249q-26 3 -43 20.5t-17 43.5h-430v121h430q0 26 17 43t43 20h64v121h-248q-52 3 -86.5 37.5t-34.5 86.5v615
q0 52 34.5 88t86.5 36h617zM626 1037q-81 0 -130 -36t-46 -108v-3h118q0 29 17.5 43t43.5 14t43.5 -17t17.5 -46t-14.5 -50.5t-37.5 -36.5q-49 -31 -66.5 -55.5t-17.5 -73.5h121q0 28 8.5 45.5t31.5 32.5q41 23 68.5 57.5t27.5 80.5q0 69 -49 111t-136 42zM554 607v-124h121
v124h-121z" />
    <glyph glyph-name="upload-network" unicode="&#xfbf4;" arabic-form="isolated" 
d="M923 1161q52 0 86.5 -36t34.5 -88v-615q0 -52 -34.5 -86.5t-86.5 -37.5h-248v-121h64q26 -3 43 -20t17 -43h430v-121h-430q0 -26 -17 -43.5t-43 -20.5h-249q-26 3 -43 20.5t-17 43.5h-430v121h430q0 26 17 43t43 20h64v121h-248q-52 3 -86.5 37.5t-34.5 86.5v615
q0 52 34.5 88t86.5 36h617zM614 1008l-276 -277h216v-248h121v248h216z" />
    <glyph glyph-name="npm" unicode="&#xfbf5;" arabic-form="final" 
d="M67 716v-275h138v205h67v-205h70v275h-275zM410 716v-342h137v67h135v275h-272zM614 646v-135h-67v135h67zM752 716v-275h135v205h70v-205h67v205h67v-205h71v275h-410zM0 783h1229v-409h-615v-67h-272v67h-342v409z" />
    <glyph glyph-name="nut" unicode="&#xfbf6;" arabic-form="isolated" 
d="M1229 238q-3 -42 -35 -61l-541 -301q-16 -13 -38.5 -13t-38.5 13l-541 301q-32 19 -35 61v614q3 42 35 61l541 301q16 13 38.5 13t38.5 -13l541 -301q32 -19 35 -61v-614zM614 887q-144 -3 -241.5 -100.5t-100.5 -241.5q3 -144 100.5 -241.5t241.5 -100.5
q145 3 242.5 100.5t100.5 241.5q-3 144 -100.5 241.5t-242.5 100.5z" />
    <glyph glyph-name="octagram" unicode="&#xfbf7;" arabic-form="final" 
d="M0 289l106 256l-106 256l256 103l103 256l255 -106l256 106l103 -256l256 -103l-106 -256l106 -256l-256 -103l-103 -256l-256 106l-255 -106l-103 256z" />
    <glyph glyph-name="page-layout-body" unicode="&#xfbf8;" arabic-form="initial" 
d="M155 1310h919q65 0 108 -43t47 -107v-1230q-4 -64 -47 -107t-108 -43h-919q-65 0 -108 43t-47 107v1230q4 64 47 107t108 43zM155 850v-610h919v610h-919z" />
    <glyph glyph-name="page-layout-footer" unicode="&#xfbf9;" arabic-form="isolated" 
d="M155 1310h919q65 0 108 -43t47 -107v-1230q-4 -64 -47 -107t-108 -43h-919q-65 0 -108 43t-47 107v1230q4 64 47 107t108 43zM155 240v-310h919v310h-919z" />
    <glyph glyph-name="page-layout-header" unicode="&#xfbfa;" arabic-form="final" 
d="M155 1310h919q65 0 108 -43t47 -107v-1230q-4 -64 -47 -107t-108 -43h-919q-65 0 -108 43t-47 107v1230q4 64 47 107t108 43zM155 1160v-310h919v310h-919z" />
    <glyph glyph-name="page-layout-sidebar-left" unicode="&#xfbfb;" arabic-form="initial" 
d="M155 1310h919q65 0 108 -43t47 -107v-1230q-4 -64 -47 -107t-108 -43h-919q-65 0 -108 43t-47 107v1230q4 64 47 107t108 43zM155 850v-610h305v610h-305z" />
    <glyph glyph-name="page-layout-sidebar-right" unicode="&#x6cc;" arabic-form="isolated" 
d="M155 1310h919q65 0 108 -43t47 -107v-1230q-4 -64 -47 -107t-108 -43h-919q-65 0 -108 43t-47 107v1230q4 64 47 107t108 43zM769 850v-610h305v610h-305z" />
    <glyph glyph-name="pencil-circle" unicode="&#x6cc;" arabic-form="final" 
d="M614 1160q-262 -6 -435 -179t-179 -436q6 -263 179 -436t435 -179q263 6 436 179t179 436q-6 263 -179 436t-436 179zM805 848q14 0 26 -9l78 -78q20 -26 0 -49l-64 -60l-124 124l61 63q8 9 23 9zM684 741l127 -127l-372 -372h-127v127z" />
    <glyph glyph-name="pentagon" unicode="&#x6cc;" arabic-form="initial" 
d="M614 1131l-614 -450l234 -722h761l234 722z" />
    <glyph glyph-name="pentagon-outline" unicode="&#x6cc;" arabic-form="medial" 
d="M614 975l468 -338l-179 -548h-577l-179 548zM614 1131l-614 -450l234 -722h756l239 722z" />
    <glyph glyph-name="pillar" unicode="&#xfc00;" arabic-form="isolated" 
d="M205 1022h819q29 0 48 -19.5t19 -48t-19 -48t-48 -19.5h-819q-29 0 -48 19.5t-19 48t19 48t48 19.5zM1229 1227v-135h-1229v135h1229zM819 817h138v-954h-138v954zM272 817h138v-954h-138v954zM547 817h135v-954h-135v954z" />
    <glyph glyph-name="pistol" unicode="&#xfc01;" arabic-form="isolated" 
d="M339 933h890v-221h-57v-54h-333q-24 -3 -39.5 -18.5t-15.5 -39.5v-54q0 -47 -32.5 -78t-79.5 -34h-187q-34 0 -49 -31l-136 -271q-15 -28 -49 -31h-187q-19 -10 -56.5 42t110.5 291q18 16 56 112t-110 112v275h54l29 58h166zM730 546v54q-3 24 -18.5 39.5t-39.5 18.5h-54
q-6 -3 -21.5 -35.5t21.5 -76.5q-47 0 -78.5 32.5t-33.5 79.5q-24 -3 -39.5 -18.5t-15.5 -39.5v-54q0 -24 15.5 -39.5t39.5 -15.5h166q24 0 39.5 15.5t18.5 39.5z" />
    <glyph glyph-name="plus-box-outline" unicode="&#xfc02;" arabic-form="isolated" 
d="M1091 68v954h-953v-954h953zM1091 1160q58 0 98 -40.5t40 -97.5v-954q0 -57 -40 -97.5t-98 -40.5h-953q-58 0 -98 40.5t-40 97.5v954q0 61 40 99.5t98 38.5h953zM547 887h135v-275h275v-134h-275v-275h-135v275h-275v134h275v275z" />
    <glyph glyph-name="plus-outline" unicode="&#xfc03;" arabic-form="isolated" 
d="M0 775h385v385h459v-385h385v-460h-385v-385h-459v385h-385v460zM539 470v-385h151v385h384v150h-384v385h-151v-385h-384v-150h384z" />
    <glyph glyph-name="prescription" unicode="&#xfc04;" arabic-form="isolated" 
d="M0 1181v-778h156v313h157l418 -422l-276 -276l109 -109l276 276l280 -276l109 109l-280 276l280 280l-109 109l-280 -280l-309 313h14q99 0 164 65.5t65 165.5t-65 165.5t-164 68.5h-545zM156 1025h389q33 0 55 -22t22 -54.5t-22 -54.5t-55 -25h-389v156z" />
    <glyph glyph-name="printer-settings" unicode="&#xfc05;" arabic-form="isolated" 
d="M984 1222v-246h-739v246h739zM1044 668q26 2 43.5 19.5t17.5 43.5t-17.5 43.5t-43.5 17.5t-43 -17.5t-17 -43.5t17 -43.5t43 -19.5zM860 238v308h-491v-308h491zM1044 916q81 -3 133 -55t52 -130v-369h-245v-248h-739v248h-245v369q0 78 52 130t133 55h859zM799 -132v125
h124v-125h-124zM554 -132v125h121v-125h-121zM306 -132v125h124v-125h-124z" />
    <glyph glyph-name="react" unicode="&#xfc06;" arabic-form="isolated" 
d="M614 652q46 0 75.5 -31t29.5 -75t-29.5 -75t-75 -31t-75 31t-29.5 75t29.5 75t74.5 31zM349 86q29 -16 83 9.5t123 89.5q-45 51 -85 107q-73 8 -137 22q-22 -94 -16.5 -153t32.5 -75zM389 416l-16 29q-11 -26 -16 -51l51 -8zM765 459l45 86l-45 86q-27 45 -54 83
q-46 2 -96.5 2t-96.5 -2q-27 -38 -54 -83l-45 -86l45 -86q27 -46 54 -83q46 -3 96.5 -3t96.5 3q27 37 54 83zM614 843q-16 -19 -34 -41h69q-18 22 -35 41zM614 247q17 19 35 40h-69q18 -21 34 -40zM880 1004q-29 16 -83 -9.5t-123 -90.5q45 -51 85 -107q73 -8 137 -22
q22 94 16.5 153t-32.5 76zM840 673l16 -29q11 27 16 51l-51 8zM923 1079q62 -38 72.5 -125t-16.5 -197q110 -35 180 -87.5t70 -125t-70 -124.5t-180 -87q27 -110 16.5 -197.5t-73.5 -122.5t-143.5 -2.5t-164.5 112.5q-83 -80 -163.5 -112.5t-143.5 2.5t-73.5 122.5
t16.5 197.5q-110 35 -180 87t-70 124.5t70 125t180 87.5q-27 110 -16.5 197t73.5 122t143.5 2.5t163.5 -112.5q84 80 164.5 112.5t144.5 0.5zM904 545q30 -65 51 -129q92 27 140 61.5t48 67t-48 67.5t-140 61q-21 -64 -51 -128zM325 545q-30 64 -51 128q-92 -26 -140 -61
t-48 -67.5t48 -67t140 -61.5q21 64 51 129zM840 416l-19 -30l51 8q-5 25 -16 51zM674 185q69 -64 123 -89.5t82 -9.5t33.5 75t-16.5 153q-64 -14 -137 -22q-40 -56 -85 -107zM389 673l19 30l-51 -8q5 -24 16 -51zM555 904q-69 65 -123 90.5t-82 9t-33.5 -75.5t16.5 -153
q64 14 137 22q40 56 85 107z" />
    <glyph glyph-name="restart" unicode="&#xfc07;" arabic-form="isolated" 
d="M616 1035q119 0 230.5 -45.5t202.5 -135.5q180 -191 180 -436.5t-180 -432.5q-109 -108 -244 -151.5t-276 -25.5l43 152q98 -11 195.5 23t172.5 110q137 141 137 325t-137 328q-68 69 -153 101.5t-171 32.5v-354l-383 382l383 379v-252zM179 -19q-151 159 -174.5 363
t80.5 388l112 -116q-61 -130 -37.5 -272.5t127.5 -250.5q62 -61 134 -94l-36 -151q-116 47 -206 133z" />
    <glyph glyph-name="rewind-outline" unicode="&#xfc08;" arabic-form="isolated" 
d="M455 693l-211 -148l211 -148v296zM1087 693l-211 -148l211 -148v296zM596 967v-844l-596 422zM1229 967v-844l-596 422z" />
    <glyph glyph-name="rhombus" unicode="&#xfc09;" arabic-form="isolated" 
d="M1203 620l-511 511q-34 31 -74.5 31t-75.5 -31l-510 -511q-32 -35 -32 -75t32 -75l510 -511q35 -31 75.5 -31t74.5 31l511 511q26 35 26 75t-26 75z" />
    <glyph glyph-name="rhombus-outline" unicode="&#xfc0a;" arabic-form="isolated" 
d="M1203 620l-511 511q-34 31 -74.5 31t-75.5 -31l-510 -511q-32 -35 -32 -75t32 -75l510 -511q35 -31 75.5 -31t74.5 31l511 511q26 35 26 75t-26 75zM1128 545l-511 -511l-510 511l510 511z" />
    <glyph glyph-name="roomba" unicode="&#xfc0b;" arabic-form="isolated" 
d="M614 1160q125 0 236 -46.5t200 -132.5l-86 -87q-73 69 -162 106.5t-187.5 37.5t-187.5 -37.5t-162 -106.5l-86 87q89 86 200 132.5t235 46.5zM101 883l89 -87q-66 -115 -69 -251q6 -211 144.5 -349.5t348.5 -143.5q211 5 349.5 143.5t144.5 349.5q-3 136 -69 251l89 87
q101 -153 101 -338q-6 -263 -179 -436t-436 -179q-262 6 -435 179t-179 436q0 185 101 338zM614 914q156 -3 261.5 -108t108.5 -261q0 -75 -27.5 -141.5t-82.5 -118.5l-86 87q-73 -72 -173.5 -72t-173.5 72l-86 -87q-55 52 -82.5 118.5t-27.5 141.5q3 156 108.5 261
t260.5 108zM614 790q-25 0 -42.5 -17t-17.5 -43t17.5 -43.5t43 -17.5t43 17.5t17.5 43.5t-17.5 43t-43.5 17z" />
    <glyph glyph-name="run" unicode="&#xfc0c;" arabic-form="isolated" 
d="M810 1063q64 0 107 44.5t43 109t-43 107.5t-107.5 43t-107.5 -43t-43 -107.5t43 -109t108 -44.5zM534 2l75 333l161 -154v-458h154v573l-161 154l47 229q75 -86 184.5 -138t234.5 -52v151q-111 4 -195 54t-135 132l-75 122q-46 72 -129 75q-18 0 -30.5 -3.5t-30.5 -3.5
l-398 -168v-359h155v262l136 54l-122 -624l-376 79l-29 -154z" />
    <glyph glyph-name="search-web" unicode="&#xfc0d;" arabic-form="isolated" 
d="M880 385l349 -349l-105 -106l-350 350v56l-19 20q-60 -53 -135.5 -81t-161.5 -28q-194 3 -324.5 131.5t-133.5 323.5q3 194 133.5 324t324.5 134q194 -4 322.5 -134t132.5 -324q0 -86 -28 -162t-81 -135l20 -20h56zM458 1054l-40 -3q-13 -27 -29.5 -71.5t-32.5 -100.5
h201q-13 56 -31.5 100.5t-31.5 71.5q-16 3 -36 3zM761 879q-66 112 -188 155q27 -56 56 -155h132zM152 879h135q26 99 52 155q-122 -43 -187 -155zM105 702q0 -53 17 -106h151l-9 106l9 105h-151q-17 -49 -17 -105zM791 596q16 53 16 107.5t-16 103.5h-148q6 -53 6 -105.5
t-6 -105.5h148zM343 807l-10 -105l10 -106h227q10 53 10 105.5t-10 105.5h-227zM458 352h36q13 30 31.5 74.5t31.5 100.5h-201q16 -56 32.5 -100.5t29.5 -74.5h40zM761 527h-132q-29 -99 -56 -155q122 43 188 155zM152 527q65 -112 187 -155q-26 56 -52 155h-135z" />
    <glyph glyph-name="shovel" unicode="&#xfc0e;" arabic-form="isolated" 
d="M792 1157l-173 -172q-37 -38 -37 -87t37 -86l87 -86l-279 -282l-173 175l-89 -86q-204 -233 -155.5 -375.5t71.5 -145.5q3 -23 145.5 -70.5t375.5 157.5l86 86l-172 172l279 277l86 -84q37 -37 86 -37t87 37l175 173zM967 639l-86 84l-175 175l89 87l259 -259z" />
    <glyph glyph-name="shovel-off" unicode="&#xfc0f;" arabic-form="isolated" 
d="M792 1157l-173 -172q-37 -38 -37 -87t37 -86l87 -89l-44 -43l90 -90l46 46l83 -86q37 -37 87.5 -37t87.5 37l173 176zM967 639l-261 259l86 87l262 -259zM1137 27l-86 -87l-481 478l-60 -61l173 -172l-81 -86q-233 -205 -375.5 -157.5t-145.5 70.5q-23 3 -71.5 145.5
t155.5 375.5l89 86l173 -175l60 63l-478 475l87 86z" />
    <glyph glyph-name="signal-2g" unicode="&#xfc10;" arabic-form="isolated" 
d="M554 83h-554v370q0 78 52 129.5t133 54.5h184v185h-369v185h369q78 -3 130 -55t55 -130v-185q-3 -78 -55 -129.5t-130 -54.5h-184v-185h369v-185zM1229 637h-277v-184h92v-185h-184v554h369v185h-369q-78 -3 -130 -55t-55 -130v-554q3 -78 55 -130t130 -55h184
q81 3 133 55t52 130v369z" />
    <glyph glyph-name="signal-3g" unicode="&#xfc11;" arabic-form="isolated" 
d="M554 268v139q-3 60 -42 99t-97 39q58 3 97 42t42 96v139q-3 78 -55 130t-130 55h-369v-185h369v-185h-184v-184h184v-185h-369v-185h369q78 3 130 55t55 130zM1229 268v369h-277v-184h92v-185h-184v554h369v185h-369q-78 -3 -130 -55t-55 -130v-554q3 -78 55 -130
t130 -55h184q81 3 133 55t52 130z" />
    <glyph glyph-name="signal-4g" unicode="&#xfc12;" arabic-form="isolated" 
d="M1229 268v369h-277v-184h92v-185h-184v554h369v185h-369q-78 -3 -130 -55t-55 -130v-554q3 -78 55 -130t130 -55h184q81 3 133 55t52 130zM369 83h185v924h-185v-370h-184v370h-185v-554h369v-370z" />
    <glyph glyph-name="signal-hspa" unicode="&#xfc13;" arabic-form="isolated" 
d="M410 750h409v819h410v-2048h-410v819h-409v-819h-410v2048h410v-819z" />
    <glyph glyph-name="signal-hspa-plus" unicode="&#xfc14;" arabic-form="isolated" 
d="M1044 790v-184h185v-185h-185v-185h-184v185h-185v185h185v184h184zM185 637h184v370h185v-924h-185v370h-184v-370h-185v924h185v-370z" />
    <glyph glyph-name="snowflake" unicode="&#xfc15;" arabic-form="isolated" 
d="M1195 415l-155 -40l-133 74v192l133 74l155 -40l34 127l-118 31l31 118l-130 34l-40 -155l-130 -74l-164 95v149l115 112l-93 92l-87 -83l-87 83l-93 -92l115 -112v-149l-167 -95l-130 74l-40 155l-127 -34l31 -118l-115 -31l34 -127l152 40l133 -74v-192l-133 -74
l-152 40l-34 -127l115 -31l-31 -118l130 -34l40 155l130 74l164 -95v-149l-115 -112l93 -92l87 83l87 -83l93 92l-115 112v149l167 95l130 -74l43 -151l124 30l-31 118l115 31zM449 641l164 96l164 -96v-192l-164 -96l-164 96v192z" />
    <glyph glyph-name="source-commit" unicode="&#xfc16;" arabic-form="isolated" 
d="M1182 545q-5 -208 -130.5 -360t-327.5 -200v-464h-224v464q-203 48 -328.5 200t-125.5 360t125.5 360t328.5 200v464h224v-464q202 -48 327.5 -200t130.5 -360zM612 886q-144 -5 -240 -101t-96 -240t96 -240t240 -96t240 96t96 240t-96 240t-240 101z" />
    <glyph glyph-name="source-commit-end" unicode="&#xfc17;" arabic-form="isolated" 
d="M1229 301q-6 -259 -181 -434t-434 -181q-258 6 -433 181t-181 434q6 224 141 387.5t353 215.5v500h241v-500q218 -52 353 -215.5t141 -387.5zM614 668q-155 -5 -258 -108.5t-103 -258.5t103 -258.5t258.5 -103.5t258.5 103.5t103 258.5t-103 258.5t-259 108.5z" />
    <glyph glyph-name="source-commit-end-local" unicode="&#xfc18;" arabic-form="isolated" 
d="M614 915q259 -5 434 -180.5t181 -433.5q-6 -259 -181 -434t-434 -181q-258 6 -433 181t-181 434q6 258 181 433.5t433 180.5zM614 668q-155 -5 -258 -108.5t-103 -258.5t103 -258.5t258.5 -103.5t258.5 103.5t103 258.5t-103 258.5t-259 108.5zM494 1157v247h241v-247
h-241z" />
    <glyph glyph-name="source-commit-local" unicode="&#xfc19;" arabic-form="isolated" 
d="M614 1116q240 -6 403 -168.5t168 -402.5q-5 -240 -168 -402.5t-403 -168.5q-240 6 -402.5 168.5t-167.5 402.5q5 240 167.5 402.5t402.5 168.5zM614 886q-144 -5 -240 -101t-96 -240t96 -240t240 -96t240 96t96 240t-96 240t-240 101zM502 1340v229h224v-229h-224z
M502 -479v229h224v-229h-224z" />
    <glyph glyph-name="source-commit-next-local" unicode="&#xfc1a;" arabic-form="isolated" 
d="M1185 545q-5 -240 -168 -402.5t-403 -168.5q-240 6 -402.5 168.5t-167.5 402.5q5 208 130.5 360t327.5 200v464h224v-464q203 -48 328.5 -200t130.5 -360zM614 886q-144 -5 -240 -101t-96 -240t96 -240t240 -96t240 96t96 240t-96 240t-240 101zM502 -479v229h224v-229
h-224z" />
    <glyph glyph-name="source-commit-start" unicode="&#xfc1b;" arabic-form="isolated" 
d="M614 1404q259 -6 434 -181t181 -434q-6 -224 -141 -387.5t-353 -215.5v-500h-241v500q-218 52 -353 215.5t-141 387.5q6 259 181 434t433 181zM614 1157q-155 -6 -258 -109.5t-103 -258.5t103 -258.5t258.5 -103.5t258.5 103.5t103 258.5t-103 258.5t-259 109.5z" />
    <glyph glyph-name="source-commit-start-next-local" unicode="&#xfc1c;" arabic-form="isolated" 
d="M614 1404q259 -6 434 -181t181 -434q-6 -258 -181 -433.5t-434 -180.5q-258 5 -433 180.5t-181 433.5q6 259 181 434t433 181zM614 1157q-155 -6 -258 -109.5t-103 -258.5t103 -258.5t258.5 -103.5t258.5 103.5t103 258.5t-103 258.5t-259 109.5zM494 -314v247h241v-247
h-241z" />
    <glyph glyph-name="speaker-wireless" unicode="&#xfc1d;" arabic-form="isolated" 
d="M1059 130l-83 82q66 66 102 150t36 183t-36 183t-102 150l83 82q79 -80 124.5 -187t45.5 -228t-45.5 -228t-124.5 -187zM894 298l-83 82q66 66 66 165t-66 165l83 82q46 -46 73.5 -109.5t27.5 -137.5t-27.5 -137.5t-73.5 -109.5zM115 1073h471q49 0 82 -34.5t36 -83.5
v-820q-3 -49 -36 -83.5t-82 -34.5h-471q-49 0 -82 34.5t-33 83.5v820q0 49 33 83.5t82 34.5zM352 955q-50 0 -84 -33t-34 -82.5t34 -84t83.5 -34.5t82.5 34.5t33 84t-33 82.5t-82 33zM352 603q-102 -3 -168 -69t-66 -165t66 -165t166.5 -66t166.5 66t66 165t-66 165t-165 69
zM352 487q49 -2 82 -35t33 -82.5t-33 -82.5t-82.5 -33t-83.5 33t-34 82.5t34 82.5t84 35z" />
    <glyph glyph-name="stadium" unicode="&#xfc1e;" arabic-form="isolated" 
d="M185 1099h121l184 -124l-184 -121v-84q138 20 308.5 20t308.5 -20v329h121l185 -124l-185 -121v-107q87 -20 136 -49t49 -61q-6 -66 -180.5 -109.5t-434 -43.5t-434 43.5t-180.5 109.5q0 32 49 61t136 49v352zM614 698q-152 3 -230 -10t-78 -50.5t78 -50.5t230.5 -13
t230.5 13t78 50.5t-78 50.5t-231 10zM614 375q176 3 326.5 30t253.5 77l-86 -491h-309v124q0 52 -36 86.5t-88 34.5h-121q-52 0 -88 -34.5t-36 -86.5v-124h-309l-86 491q103 -50 253.5 -77t325.5 -30z" />
    <glyph glyph-name="svg" unicode="&#xfc1f;" arabic-form="isolated" 
d="M190 626h231l-161 161q-49 0 -81 33.5t-32 81t32 79t79.5 31.5t80.5 -31.5t33 -80.5l162 -162v231q-32 35 -32 79.5t33 78t79.5 33.5t79.5 -33.5t33 -78t-32 -79.5v-231l162 162q3 49 34.5 80.5t79 31.5t79.5 -31.5t32 -79t-32 -81t-81 -33.5l-161 -161h231q34 32 79 32
t78 -33.5t33 -79.5t-33 -79.5t-78 -33.5t-79 32h-231l161 -161q49 -3 81 -35t32 -79.5t-32 -79t-79.5 -31.5t-79 31.5t-34.5 80.5l-162 162v-231q32 -35 32 -79.5t-33 -78t-79.5 -33.5t-79.5 33.5t-33 78t32 79.5v231l-162 -162q0 -49 -33 -80.5t-80.5 -31.5t-79.5 31.5
t-32 79t32 79.5t81 35l161 161h-231q-34 -32 -79 -32t-78 33.5t-33 79.5t33 79.5t78 33.5t79 -32z" />
    <glyph glyph-name="tag-plus" unicode="&#xfc20;" arabic-form="isolated" 
d="M1194 571l-554 554q-37 35 -86 35h-433q-52 0 -86.5 -35t-34.5 -87v-432q0 -49 35 -87l26 -23q83 49 184 49q156 -3 261.5 -108t107.5 -261q0 -98 -49 -185l24 -26q37 -35 87.5 -35t85.5 35l432 433q35 34 35 84.5t-35 88.5zM213 854q-37 0 -63 26t-26 65t26 64.5
t65 25.5t65 -25.5t26 -64.5t-26 -65t-67 -26zM490 115h-184v-185h-121v185h-185v121h185v185h121v-185h184v-121z" />
    <glyph glyph-name="tag-remove" unicode="&#xfc21;" arabic-form="isolated" 
d="M1194 571l-554 554q-37 35 -86 35h-433q-52 0 -86.5 -35t-34.5 -87v-432q0 -49 35 -87l26 -23q83 49 184 49q156 -3 261.5 -108t107.5 -261q0 -98 -49 -185l24 -26q37 -35 87.5 -35t85.5 35l432 433q35 34 35 84.5t-35 88.5zM213 854q-37 0 -63 26t-26 65t26 64.5
t65 25.5t65 -25.5t26 -64.5t-26 -65t-67 -26zM375 -44l-130 133l-130 -133l-89 90l133 130l-133 130l89 86l130 -130l130 130l87 -86l-130 -130l130 -130z" />
    <glyph glyph-name="ticket-percent" unicode="&#xfc22;" arabic-form="isolated" 
d="M121 1038q-52 -3 -86.5 -37.5t-34.5 -86.5v-245q52 -3 86.5 -37.5t34.5 -86.5t-34.5 -86.5t-86.5 -37.5v-245q0 -52 34.5 -86.5t86.5 -37.5h987q52 3 86.5 37.5t34.5 86.5v245q-52 3 -86.5 37.5t-34.5 86.5t34.5 86.5t86.5 37.5v245q0 52 -34.5 86.5t-86.5 37.5h-987z
M831 854l92 -93l-525 -525l-92 93zM418 851q46 -3 76.5 -33.5t30.5 -76.5t-30.5 -76.5t-76.5 -30.5t-76 30.5t-30 76.5t30 76.5t76 33.5zM811 458q46 -2 76 -32.5t30 -76.5t-30 -76.5t-76 -30.5t-76.5 30.5t-30.5 76.5t30.5 76.5t76.5 32.5z" />
    <glyph glyph-name="tilde" unicode="&#xfc23;" arabic-form="isolated" 
d="M2 361q-12 23 45.5 184t322.5 184q173 -14 253.5 -107.5t206.5 -108.5q176 15 214.5 108.5t30.5 107.5h152q12 -23 -45.5 -184t-322.5 -184q-178 14 -276 107.5t-184 108.5q-176 -15 -214.5 -108.5t-30.5 -107.5h-152z" />
    <glyph glyph-name="treasure-chest" unicode="&#xfc24;" arabic-form="isolated" 
d="M185 1038h859q81 -3 133 -54.5t52 -129.5v-248h-430v63h-369v-63h-430v248q0 78 52 129.5t133 54.5zM554 606h121v-122h-121v122zM0 545h430v-61l124 -124h121l124 124v61h430v-493h-1229v493z" />
    <glyph glyph-name="truck-trailer" unicode="&#xfc25;" arabic-form="isolated" 
d="M1229 359v-124h-739q0 -78 -51.5 -130t-131 -52t-131.5 52t-55 130h-121v678q0 52 34.5 86.5t86.5 37.5h802q52 -3 86.5 -37.5t34.5 -86.5v-554h185zM306 298q-26 -3 -43.5 -20t-17.5 -43t17.5 -43.5t43.5 -17.5t43 17.5t17 43.5t-17 43t-43 20z" />
    <glyph glyph-name="view-parallel" unicode="&#xfc26;" arabic-form="isolated" 
d="M0 -145v1380h309v-1380h-309zM460 -145v1380h309v-1380h-309zM920 -145v1380h309v-1380h-309z" />
    <glyph glyph-name="view-sequential" unicode="&#xfc27;" arabic-form="isolated" 
d="M0 1092h1229v-275h-1229v275zM0 683h1229v-276h-1229v276zM0 273h1229v-275h-1229v275z" />
    <glyph glyph-name="washing-machine" unicode="&#xfc28;" arabic-form="isolated" 
d="M830 610q90 -97 90 -219.5t-91.5 -214t-214 -91.5t-215.5 90zM155 1310h919q65 0 108 -43t47 -107v-1230q-4 -64 -47 -107t-108 -43h-919q-65 0 -108 43t-47 107v1230q4 64 47 107t108 43zM230 1160q-32 -4 -53.5 -25.5t-21.5 -54t21.5 -54t53.5 -21.5t53.5 21.5t21.5 54
t-21.5 54t-53.5 25.5zM460 1160q-32 -4 -53.5 -25.5t-21.5 -54t21.5 -54t53.5 -21.5t53.5 21.5t21.5 54t-21.5 54t-53.5 25.5zM614 850q-194 -3 -325 -132.5t-134 -327.5q3 -194 134 -323t325 -137q195 8 326 137t134 323q-3 198 -134 327.5t-326 132.5z" />
    <glyph glyph-name="webpack" unicode="&#xfc29;" arabic-form="isolated" 
d="M1229 238q-3 -42 -35 -61l-541 -301q-16 -13 -38.5 -13t-38.5 13l-541 301q-32 19 -35 61v614q3 42 35 61l541 301q16 13 38.5 13t38.5 -13l541 -301q32 -19 35 -61v-614zM614 1079l-476 -268v-532l476 -268l477 268v532zM614 939l337 -192l-337 -196l-336 196zM957 347
l-275 -157v243l275 160v-246zM547 190l-275 157v246l275 -160v-243z" />
    <glyph glyph-name="widgets" unicode="&#xfc2a;" arabic-form="isolated" 
d="M0 1076h510v-277l358 361l361 -361l-361 -358h277v-511h-510v511h233l-358 358v-233h-510v510zM0 441h510v-511h-510v511z" />
    <glyph glyph-name="wiiu" unicode="&#xfc2b;" arabic-form="isolated" 
d="M0 303q0 -104 63.5 -162t170.5 -58h784q90 0 150.5 53.5t60.5 143.5v574q0 55 -33 99.5t-82 47.5h-182v-473q-41 -271 -315 -271t-311 262v488h-139q-69 0 -118 -39t-49 -106v-559zM450 591q20 -202 164.5 -197.5t164.5 154.5v459h-329v-416z" />
    <glyph glyph-name="arrow-down-bold" unicode="&#xfc2c;" arabic-form="isolated" 
d="M379 1167h471v-629h379l-615 -615l-614 615h379v629z" />
    <glyph glyph-name="arrow-down-bold-box" unicode="&#xfc2d;" arabic-form="isolated" 
d="M138 1160h953q58 0 98 -40.5t40 -97.5v-954q0 -57 -40 -97.5t-98 -40.5h-953q-58 0 -98 40.5t-40 97.5v954q0 57 40 97.5t98 40.5zM614 203l343 342h-205v272h-275v-272h-205z" />
    <glyph glyph-name="arrow-down-bold-box-outline" unicode="&#xfc2e;" arabic-form="isolated" 
d="M614 203l-342 342h205v272h275v-272h205zM138 1160h953q58 0 98 -40.5t40 -97.5v-954q0 -57 -40 -97.5t-98 -40.5h-953q-58 0 -98 40.5t-40 97.5v954q0 57 40 97.5t98 40.5zM138 1022v-954h953v954h-953z" />
    <glyph glyph-name="arrow-left-bold" unicode="&#xfc2f;" arabic-form="isolated" 
d="M1229 778v-466h-622v-374l-607 607l607 607v-374h622z" />
    <glyph glyph-name="arrow-left-bold-box" unicode="&#xfc30;" arabic-form="isolated" 
d="M1229 1022v-954q0 -57 -40 -97.5t-98 -40.5h-953q-58 0 -98 40.5t-40 97.5v954q0 57 40 97.5t98 40.5h953q58 0 98 -40.5t40 -97.5zM272 545l342 -342v204h273v276h-273v204z" />
    <glyph glyph-name="arrow-left-bold-box-outline" unicode="&#xfc31;" arabic-form="isolated" 
d="M272 545l342 342v-204h273v-276h-273v-204zM1229 1022v-954q0 -57 -40 -97.5t-98 -40.5h-953q-58 0 -98 40.5t-40 97.5v954q0 57 40 97.5t98 40.5h953q58 0 98 -40.5t40 -97.5zM1091 1022h-953v-954h953v954z" />
    <glyph glyph-name="arrow-right-bold" unicode="&#xfc32;" arabic-form="isolated" 
d="M0 312v466h622v374l607 -607l-607 -607v374h-622z" />
    <glyph glyph-name="arrow-right-bold-box" unicode="&#xfc33;" arabic-form="isolated" 
d="M0 68v954q0 57 40 97.5t98 40.5h953q58 0 98 -40.5t40 -97.5v-954q0 -57 -40 -97.5t-98 -40.5h-953q-58 0 -98 40.5t-40 97.5zM957 545l-343 342v-204h-272v-276h272v-204z" />
    <glyph glyph-name="arrow-right-bold-box-outline" unicode="&#xfc34;" arabic-form="isolated" 
d="M957 545l-343 -342v204h-272v276h272v204zM0 68v954q0 57 40 97.5t98 40.5h953q58 0 98 -40.5t40 -97.5v-954q0 -57 -40 -97.5t-98 -40.5h-953q-58 0 -98 40.5t-40 97.5zM138 68h953v954h-953v-954z" />
    <glyph glyph-name="arrow-up-bold" unicode="&#xfc35;" arabic-form="isolated" 
d="M850 -77h-471v629h-379l614 615l615 -615h-379v-629z" />
    <glyph glyph-name="arrow-up-bold-box" unicode="&#xfc36;" arabic-form="isolated" 
d="M1091 -70h-953q-58 0 -98 40.5t-40 97.5v954q0 57 40 97.5t98 40.5h953q58 0 98 -40.5t40 -97.5v-954q0 -57 -40 -97.5t-98 -40.5zM614 887l-342 -342h205v-272h275v272h205z" />
    <glyph glyph-name="arrow-up-bold-box-outline" unicode="&#xfc37;" arabic-form="isolated" 
d="M614 887l343 -342h-205v-272h-275v272h-205zM1091 -70h-953q-58 0 -98 40.5t-40 97.5v954q0 57 40 97.5t98 40.5h953q58 0 98 -40.5t40 -97.5v-954q0 -57 -40 -97.5t-98 -40.5zM1091 68v954h-953v-954h953z" />
    <glyph glyph-name="cancel" unicode="&#xfc38;" arabic-form="isolated" 
d="M614 1160q263 -6 436 -179t179 -436q-6 -263 -179 -436t-436 -179q-262 6 -435 179t-179 436q6 263 179 436t435 179zM614 1038q-210 -5 -348.5 -143.5t-144.5 -349.5q0 -87 27.5 -163t76.5 -140l692 692q-63 50 -139.5 77t-163.5 27zM614 52q211 5 349.5 143.5
t144.5 349.5q0 87 -27.5 163t-76.5 140l-692 -692q63 -50 139.5 -77t162.5 -27z" />
    <glyph glyph-name="file-account" unicode="&#xfc39;" arabic-form="isolated" 
d="M690 775h424l-424 420v-420zM155 1310h614l460 -460v-920q-4 -64 -47 -107t-108 -43h-919q-65 0 -108 43t-47 107v1230q4 64 47 107t108 43zM769 -70v80q-11 75 -117 112.5t-192 37.5t-190.5 -37.5t-114.5 -112.5v-80h614zM460 545q-65 0 -108 -45t-43 -109.5t43 -107.5
t108 -43t109.5 43t44.5 107.5t-44.5 109.5t-109.5 45z" />
    <glyph glyph-name="gesture-double-tap" unicode="&#xfc3a;" arabic-form="isolated" 
d="M437 898q4 37 29 61.5t62 24.5t61.5 -24.5t24.5 -61.5v-392l108 -13l433 -193q74 -38 74 -120v-384q0 -53 -37 -90t-95 -42h-569q-54 0 -91 42l-429 367l66 70q25 25 62 25h21l280 -149v879zM528 1248q148 -4 247 -103t103 -247q0 -99 -47 -179.5t-130 -126.5v108
q87 78 91 198q-4 111 -78.5 185t-188 74t-187.5 -74t-74 -185q4 -120 87 -198v-108q-79 46 -126.5 126.5t-51.5 179.5q4 148 103 247t252 103zM528 1426q223 -5 371.5 -155.5t156.5 -372.5q-4 -112 -45.5 -211t-119.5 -169l-87 37q74 62 117.5 151t43.5 192q-4 185 -128 311
t-309 130q-190 -4 -313.5 -130t-127.5 -311q0 -136 72 -243.5t192 -161.5v-94q-157 57 -254 191t-97 308q4 222 152.5 372.5t375.5 155.5z" />
    <glyph glyph-name="gesture-swipe-down" unicode="&#xfc3b;" arabic-form="isolated" 
d="M614 819q4 28 23 47.5t48 19.5t48 -19.5t19 -47.5v-304l83 -10l336 -150q58 -29 58 -93v-298q0 -42 -29 -70.5t-73 -31.5h-442q-42 0 -71 32l-332 285l51 54q19 19 48 19h16l217 -115v682zM0 819l205 -205l205 205h-135v409h-137v-409h-138z" />
    <glyph glyph-name="gesture-swipe-left" unicode="&#xfc3c;" arabic-form="isolated" 
d="M537 776q4 32 25.5 53.5t54 21.5t54 -21.5t21.5 -53.5v-343l94 -11l378 -169q65 -32 65 -104v-336q0 -46 -32.5 -78.5t-82.5 -36.5h-498q-47 0 -79 36l-375 321l58 61q21 22 54 22h18l245 -130v768zM0 1161l231 -230v151h461v155h-461v155z" />
    <glyph glyph-name="gesture-swipe-right" unicode="&#xfc3d;" arabic-form="isolated" 
d="M537 776q4 32 25.5 53.5t54 21.5t54 -21.5t21.5 -53.5v-343l94 -11l378 -169q65 -32 65 -104v-336q0 -46 -32.5 -78.5t-82.5 -36.5h-498q-47 0 -79 36l-375 321l58 61q21 22 54 22h18l245 -130v768zM692 1161l-231 231v-155h-461v-155h461v-151z" />
    <glyph glyph-name="gesture-swipe-up" unicode="&#xfc3e;" arabic-form="isolated" 
d="M614 819q4 28 23 47.5t48 19.5t48 -19.5t19 -47.5v-304l83 -10l336 -150q58 -29 58 -93v-298q0 -42 -29 -70.5t-73 -31.5h-442q-42 0 -71 32l-332 285l51 54q19 19 48 19h16l217 -115v682zM410 1023l-205 205l-205 -205h138v-409h137v409h135z" />
    <glyph glyph-name="gesture-tap" unicode="&#xfc3f;" arabic-form="isolated" 
d="M432 989q4 38 29 62.5t62.5 24.5t62 -24.5t24.5 -62.5v-394l108 -13l436 -195q75 -37 75 -120v-386q0 -54 -37.5 -91.5t-95.5 -41.5h-573q-54 0 -91 41l-432 370l66 70q25 25 63 25h20l283 -149v884zM523 1342q150 -4 249.5 -103.5t103.5 -249.5q0 -99 -47.5 -180
t-130.5 -127v108q87 79 91 199q-4 112 -79 187t-189 75t-189 -75t-75 -187q5 -120 88 -199v-108q-79 46 -127 127t-52 180q4 150 104 249.5t253 103.5z" />
    <glyph glyph-name="gesture-two-double-tap" unicode="&#xfc40;" arabic-form="isolated" 
d="M1229 269v-561q0 -54 -37 -91t-95 -41h-569q-54 0 -91 41l-429 367l66 70q25 25 62 25h21l280 -149v879q4 37 29 62t62 25t61.5 -25t24.5 -62v177q0 37 25 62t62 25t62 -25t29 -62v-441l363 -161q33 -16 53.5 -47t20.5 -68zM701 1337q153 -4 252 -103t103 -248
q-4 -103 -51.5 -181.5t-126.5 -123.5v107q83 75 87 198q0 112 -74 186t-190 78q-91 -4 -159 -55.5t-92 -133.5q-83 -25 -134.5 -93t-51.5 -159q4 -120 87 -198v-107q-79 45 -126.5 125.5t-47.5 183.5t56 187.5t146 130.5q46 90 130.5 148t191.5 58zM701 1514
q227 -8 375.5 -156.5t152.5 -371.5q0 -140 -62 -253.5t-169 -183.5l-95 45q107 54 173 157t66 235q-4 186 -127.5 309.5t-313.5 127.5q-124 0 -225 -61.5t-158 -164.5q-108 -58 -169.5 -159t-61.5 -229q0 -136 72 -243.5t192 -160.5v-95q-157 58 -254 192t-97 307
q0 144 68 261.5t184 187.5q70 116 187.5 184t261.5 72z" />
    <glyph glyph-name="gesture-two-tap" unicode="&#xfc41;" arabic-form="isolated" 
d="M1229 356v-565q0 -54 -37.5 -91t-95.5 -41h-573q-54 0 -91 41l-432 370l66 70q25 25 63 25h20l283 -149v884q4 37 29 62t62.5 25t62 -25t24.5 -62v179q0 37 25 62t62.5 25t62.5 -25t29 -62v-445l365 -162q33 -16 54 -47.5t21 -68.5zM876 771v108q29 29 50 63
q37 58 37 137q0 112 -74.5 186.5t-184.5 74.5t-185 -70l-12 -13q-21 -17 -33.5 -37.5t-20.5 -45.5l-9 -21q-83 -25 -135 -93.5t-52 -161.5t54 -160q17 -21 34 -37v-108q-79 45 -127 126t-48 185t56 189t148 131q45 91 130.5 149t193.5 58q153 -4 252.5 -103.5t104.5 -248.5
q-5 -104 -52.5 -183t-126.5 -125v0z" />
    <glyph glyph-name="humble-bundle" unicode="&#xfc42;" arabic-form="isolated" 
d="M917 167q-109 64 -18 493.5t111 493.5h-179q-3 -9 -42 -150.5t-79 -340.5h-153q6 81 3 159q-18 303 -143.5 320.5t-220.5 -72.5q-83 -72 -138 -184.5t-58 -216.5h81q0 14 50.5 125.5t180.5 128.5q106 -64 16.5 -493.5t-112.5 -493.5h179q6 9 53.5 170.5t85.5 389.5h147
q-12 -118 -9 -239q18 -301 143.5 -312.5t220.5 78.5q86 78 139.5 199t53.5 199h-84q3 -20 -49 -128.5t-179 -125.5z" />
    <glyph glyph-name="kickstarter" unicode="&#xfc43;" arabic-form="isolated" 
d="M471 775l264 385q76 109 196 109q98 0 168 -70t70 -164q0 -72 -38 -124l-238 -351l291 -369q45 -57 45 -129q0 -101 -69.5 -171t-168.5 -70q-105 0 -162 72l-358 445v-245q0 -106 -37 -166q-68 -106 -196 -106q-114 0 -176 75.5t-62 192.5v916q0 113 62 188.5t171.5 75.5
t181.5 -76q37 -45 49 -90q7 -26 7 -98v-230z" />
    <glyph glyph-name="netflix" unicode="&#xfc44;" arabic-form="isolated" 
d="M52 1569h409l303 -904l4 904h409v-2048q-192 34 -418 43l-298 880l-5 -885q-221 -9 -404 -38v2048z" />
    <glyph glyph-name="onenote" unicode="&#xfc45;" arabic-form="isolated" 
d="M0 991l740 104v-118h429q25 0 42.5 -17.5t17.5 -43.5v-244q0 -26 -17.5 -43.5t-42.5 -20.5h-61v-489h-368v-124l-740 110v886zM555 257v521l-123 -14v-262l-124 244l-121 -14v-429l92 -17v340l153 -354zM740 424h244v63h-244v-63zM740 608h244v64h-244v-64zM740 793h244
v63h-244v-63zM740 303v-63h244v63h-244z" />
    <glyph glyph-name="periscope" unicode="&#xfc46;" arabic-form="isolated" 
d="M614 930q0 -65 -44.5 -110t-109.5 -45t-108 45t-43 110q-75 -101 -79 -230q4 -166 113.5 -273.5t270.5 -111.5q162 4 271.5 111.5t113.5 273.5q-4 161 -113.5 269t-271.5 111q-50 0 -93 -10q43 -18 68 -56t25 -84zM614 1310q263 -3 435.5 -177.5t179.5 -432.5
q0 -123 -43 -227q-104 -266 -284 -474.5t-288 -218.5q-107 10 -287 218.5t-284 474.5q-43 104 -43 227q7 258 179.5 432.5t434.5 177.5z" />
    <glyph glyph-name="uber" unicode="&#xfc47;" arabic-form="isolated" 
d="M614 1160q263 -6 436 -179t179 -436q-6 -263 -179 -436t-436 -179q-253 6 -425 170.5t-189 412.5h430v-121q3 -29 32 -32h305q29 3 32 32v306q-3 29 -32 32h-305q-29 -3 -32 -32v-121h-430q17 248 189 412.5t425 170.5z" />
    <glyph glyph-name="vector-radius" unicode="&#xfc48;" arabic-form="isolated" 
d="M0 1038h121v122h369v-122q263 -8 436 -181.5t182 -435.5h121v-369h-121v-122h-124v122h-124v369h124q-6 211 -144.5 349.5t-349.5 143.5v-124h-369v124h-121v124zM984 300v-124h124v124h-124zM245 1038v-124h124v124h-124z" />
    <glyph glyph-name="xbox-controller-battery-alert" unicode="&#xfc49;" arabic-form="isolated" 
d="M1117 156v669h-335v-669h335zM1153 934q32 0 52.5 -20.5t23.5 -52.5v-745q-3 -31 -23.5 -52t-52.5 -21h-407q-32 0 -53 21t-23 52v165h-293q-78 -8 -131.5 -70.5t-132.5 -112.5q-91 -2 -110.5 144t139.5 499h13l24 44q7 8 88 38t144 -11h259v49q2 32 23 52.5t53 20.5h91
v113h225v-113h91zM560 767q-23 0 -39 -15.5t-16 -39t16 -39.5t39.5 -16t39 16t15.5 39.5t-15.5 39t-39.5 15.5zM895 712h109v-279h-109v279zM895 378h109v-113h-109v113z" />
    <glyph glyph-name="xbox-controller-battery-empty" unicode="&#xfc4a;" arabic-form="isolated" 
d="M1117 156v669h-335v-669h335zM1153 934q32 0 52.5 -20.5t23.5 -52.5v-745q-3 -31 -23.5 -52t-52.5 -21h-407q-32 0 -53 21t-23 52v165h-293q-78 -8 -131.5 -70.5t-132.5 -112.5q-91 -2 -110.5 144t139.5 499h13l24 44q7 8 88 38t144 -11h259v49q2 32 23 52.5t53 20.5h91
v113h225v-113h91zM560 767q-23 0 -39 -15.5t-16 -39t16 -39.5t39.5 -16t39 16t15.5 39.5t-15.5 39t-39.5 15.5z" />
    <glyph glyph-name="xbox-controller-battery-full" unicode="&#xfc4b;" arabic-form="isolated" 
d="M1153 934q32 0 52.5 -20.5t23.5 -52.5v-745q-3 -31 -23.5 -52t-52.5 -21h-407q-32 0 -53 21t-23 52v165h-293q-78 -8 -131.5 -70.5t-132.5 -112.5q-91 -2 -110.5 144t139.5 499h13l24 44q7 8 88 38t144 -11h259v49q2 32 23 52.5t53 20.5h91v113h225v-113h91zM560 767
q-23 0 -39 -15.5t-16 -39t16 -39.5t39.5 -16t39 16t15.5 39.5t-15.5 39t-39.5 15.5z" />
    <glyph glyph-name="xbox-controller-battery-low" unicode="&#xfc4c;" arabic-form="isolated" 
d="M1117 323v502h-335v-502h335zM1153 934q32 0 52.5 -20.5t23.5 -52.5v-745q-3 -31 -23.5 -52t-52.5 -21h-407q-32 0 -53 21t-23 52v165h-293q-78 -8 -131.5 -70.5t-132.5 -112.5q-91 -2 -110.5 144t139.5 499h13l24 44q7 8 88 38t144 -11h259v49q2 32 23 52.5t53 20.5h91
v113h225v-113h91zM560 767q-23 0 -39 -15.5t-16 -39t16 -39.5t39.5 -16t39 16t15.5 39.5t-15.5 39t-39.5 15.5z" />
    <glyph glyph-name="xbox-controller-battery-medium" unicode="&#xfc4d;" arabic-form="isolated" 
d="M1117 545v280h-335v-280h335zM1153 934q32 0 52.5 -20.5t23.5 -52.5v-745q-3 -31 -23.5 -52t-52.5 -21h-407q-32 0 -53 21t-23 52v165h-293q-78 -8 -131.5 -70.5t-132.5 -112.5q-91 -2 -110.5 144t139.5 499h13l24 44q7 8 88 38t144 -11h259v49q2 32 23 52.5t53 20.5h91
v113h225v-113h91zM560 767q-23 0 -39 -15.5t-16 -39t16 -39.5t39.5 -16t39 16t15.5 39.5t-15.5 39t-39.5 15.5z" />
    <glyph glyph-name="xbox-controller-battery-unknown" unicode="&#xfc4e;" arabic-form="isolated" 
d="M1153 934q32 0 52.5 -20.5t23.5 -52.5v-745q-3 -31 -23.5 -52t-52.5 -21h-407q-32 0 -53 21t-23 52v165h-293q-78 -8 -131.5 -70.5t-132.5 -112.5q-91 -2 -110.5 144t139.5 499h13l24 44q7 8 88 38t144 -11h259v49q2 32 23 52.5t53 20.5h91v113h225v-113h91zM560 767
q-23 0 -39 -15.5t-16 -39t16 -39.5t39.5 -16t39 16t15.5 39.5t-15.5 39t-39.5 15.5zM960 767q-73 0 -117.5 -32.5t-42.5 -98.5v-2h108q0 26 15.5 39t39 13t39 -15.5t15.5 -42t-13 -46t-34 -32.5q-44 -29 -59.5 -51t-15.5 -66h109q0 26 8 41.5t29 28.5q36 21 61 52.5t25 73.5
q0 62 -44.5 100t-122.5 38zM895 378v-113h109v113h-109z" />
    <glyph glyph-name="clipboard-plus" unicode="&#xfc4f;" arabic-form="isolated" 
d="M410 1025q3 86 60.5 144t144 58t144 -58t60.5 -144h272q58 -3 98 -41.5t40 -96.5v-886q0 -58 -40 -98t-98 -40h-953q-58 0 -98 40t-40 98v886q0 58 40 96.5t98 41.5h272zM614 1092q-28 0 -47.5 -19t-19.5 -48t19.5 -48t48 -19t48 19t19.5 48t-19.5 48t-48.5 19zM682 478
v205h-135v-205h-205v-138h205v-205h135v205h205v138h-205z" />
    <glyph glyph-name="file-plus" unicode="&#xfc50;" arabic-form="isolated" 
d="M690 775h424l-424 420v-420zM155 1310h614l460 -460v-920q-4 -64 -47 -107t-108 -43h-919q-65 0 -108 43t-47 107v1230q4 64 47 107t108 43zM539 315v230h-154v-230h-230v-155h230v-230h154v230h230v155h-230z" />
    <glyph glyph-name="format-align-bottom" unicode="&#xfc51;" arabic-form="isolated" 
d="M682 750l173 169l96 -96l-337 -336l-336 336l96 96l173 -169v410h135v-410zM0 340h1229v-137h-1229v137zM0 68h682v-138h-682v138z" />
    <glyph glyph-name="format-align-middle" unicode="&#xfc52;" arabic-form="isolated" 
d="M682 955l137 137l96 -99l-301 -301l-300 301l96 99l137 -137v272h135v-272zM0 612h1229v-134h-1229v134zM682 135v-272h-135v272l-137 -137l-96 99l300 301l301 -301l-96 -99z" />
    <glyph glyph-name="format-align-top" unicode="&#xfc53;" arabic-form="isolated" 
d="M682 340l173 -169l96 96l-337 336l-336 -336l96 -96l173 169v-410h135v410zM0 1160h1229v-138h-1229v138zM0 887h682v-137h-682v137z" />
    <glyph glyph-name="format-list-checks" unicode="&#xfc54;" arabic-form="isolated" 
d="M95 1018h378v-378h-378v378zM222 894v-127h124v127h-124zM600 894h629v-127h-629v127zM600 388h629v-127h-629v127zM222 72l-222 222l89 89l133 -130l289 286l89 -89z" />
    <glyph glyph-name="format-quote-open" unicode="&#xfc55;" arabic-form="isolated" 
d="M437 986l-173 -354h264v-528h-528v528l173 354h264zM1142 986l-177 -354h264v-528h-528v528l177 354h264z" />
    <glyph glyph-name="grid-large" unicode="&#xfc56;" arabic-form="isolated" 
d="M121 1160h987q52 0 86.5 -35t34.5 -87v-986q0 -52 -34.5 -87t-86.5 -35h-987q-49 0 -85 35t-36 87v986q0 52 34.5 87t86.5 35zM121 1038v-432h433v432h-433zM121 52h433v432h-433v-432zM1108 52v432h-433v-432h433zM1108 1038h-433v-432h433v432z" />
    <glyph glyph-name="heart-off" unicode="&#xfc57;" arabic-form="isolated" 
d="M0 1026l77 75l1037 -1037l-74 -75l-209 209l-186 -170l-85 77q-228 200 -362.5 356.5t-137.5 318.5q0 82 36 150zM381 1101q77 0 145.5 -33t118.5 -88q49 55 117.5 88t145.5 33q137 -3 227.5 -93.5t93.5 -227.5q0 -113 -64.5 -218.5t-179.5 -220.5l-735 732q60 28 131 28
z" />
    <glyph glyph-name="music" unicode="&#xfc58;" arabic-form="isolated" 
d="M1229 1126v-810q-3 -94 -66.5 -159.5t-159.5 -65.5t-161 65.5t-65 161t65 159t159 66.5q55 0 98 -21v380l-647 -137v-577q-3 -97 -66.5 -160.5t-159.5 -63.5t-161 63.5t-65 159.5t65 161t160 65q54 0 97 -21v540z" />
    <glyph glyph-name="music-off" unicode="&#xfc59;" arabic-form="isolated" 
d="M0 1014l82 82l1083 -1084l-82 -82l-631 629v-337q-3 -97 -66.5 -161t-159.5 -64t-161 64t-65 159.5t65 160.5t160 65q54 0 97 -21v264zM1229 1160v-811q-3 -100 -73 -164l-318 319q63 70 163 73q55 0 98 -21v379l-571 -121l-164 160z" />
    <glyph glyph-name="tab-plus" unicode="&#xfc5a;" arabic-form="isolated" 
d="M1091 68v682h-477v272h-476v-954h953zM1091 1160q58 0 98 -40.5t40 -97.5v-954q0 -57 -40 -97.5t-98 -40.5h-953q-58 0 -98 40.5t-40 97.5v954q0 61 40 99.5t98 38.5h953zM272 478h205v205h137v-205h205v-138h-205v-205h-137v205h-205v138z" />
    <glyph glyph-name="volume-plus" unicode="&#xfc5b;" arabic-form="isolated" 
d="M0 739h258l325 325v-1038l-325 325h-258v388zM713 609h194v194h128v-194h194v-128h-194v-194h-128v194h-194v128z" />
    <glyph glyph-name="volume-minus" unicode="&#xfc5c;" arabic-form="isolated" 
d="M0 739h258l325 325v-1038l-325 325h-258v388zM713 609h516v-128h-516v128z" />
    <glyph glyph-name="volume-mute" unicode="&#xfc5d;" arabic-form="isolated" 
d="M0 739h258l325 325v-1038l-325 325h-258v388zM880 545l-167 167l91 91l167 -167l167 167l91 -91l-167 -167l167 -167l-91 -91l-167 167l-167 -167l-91 91z" />
    <glyph glyph-name="unfold-less-vertical" unicode="&#xfc5e;" arabic-form="isolated" 
d="M108 897l352 -352l-352 -352l-108 108l244 244l-244 244zM1121 193l-352 352l352 352l108 -108l-244 -244l244 -244z" />
    <glyph glyph-name="unfold-more-vertical" unicode="&#xfc5f;" arabic-form="isolated" 
d="M1037 545l-218 218l96 96l314 -314l-314 -314l-96 96zM192 545l218 -218l-96 -96l-314 314l314 314l96 -96z" />
    <glyph glyph-name="taco" unicode="&#xfc60;" arabic-form="isolated" 
d="M1004 210h-779q-97 3 -159.5 65.5t-65.5 157.5q5 190 130.5 315.5t316.5 131.5q89 0 167 -32q79 32 168 32q191 -6 316.5 -131.5t130.5 -315.5q-3 -95 -65.5 -157.5t-159.5 -65.5zM112 433q0 -48 33 -79t80 -31t78.5 31t31.5 79q2 102 41.5 187t107.5 145l-37 2
q-141 -2 -236.5 -96.5t-98.5 -237.5zM1004 323q47 0 80 31t33 79q-3 143 -98.5 237.5t-236.5 96.5q-141 -2 -236.5 -96.5t-98.5 -237.5q0 -61 -31 -110h588z" />
    <glyph glyph-name="square-outline" unicode="&#xfc61;" arabic-form="isolated" 
d="M0 1160h1229v-1230h-1229v1230zM138 1022v-954h953v954h-953z" />
    <glyph glyph-name="square" unicode="&#xfc62;" arabic-form="isolated" 
d="M0 1160v-1230h1229v1230h-1229z" />
    <glyph glyph-name="circle" unicode="&#xfc63;" arabic-form="isolated" 
d="M614 1160q-262 -6 -435 -179t-179 -436q6 -263 179 -436t435 -179q263 6 436 179t179 436q-6 263 -179 436t-436 179z" />
    <glyph glyph-name="circle-outline" unicode="&#xfc64;" arabic-form="final" 
d="M614 52q-210 5 -348.5 143.5t-144.5 349.5q6 211 144.5 349.5t348.5 143.5q211 -5 349.5 -143.5t144.5 -349.5q-6 -211 -144.5 -349.5t-349.5 -143.5zM614 1160q-262 -6 -435 -179t-179 -436q6 -263 179 -436t435 -179q263 6 436 179t179 436q-6 263 -179 436t-436 179z
" />
    <glyph glyph-name="alert-octagram" unicode="&#xfc65;" arabic-form="final" 
d="M0 289l106 256l-106 256l256 103l103 256l255 -106l256 106l103 -256l256 -103l-106 -256l106 -256l-256 -103l-103 -256l-256 106l-255 -106l-103 256zM676 230v127h-123v-127h123zM676 483v377h-123v-377h123z" />
    <glyph glyph-name="atom" unicode="&#xfc66;" arabic-form="final" 
d="M615 616q30 0 50 -20.5t20 -50.5t-20 -50.5t-50.5 -20.5t-50.5 20.5t-20 50.5t20 50.5t51 20.5zM54 1105q81 74 231.5 47t329.5 -145q178 118 328.5 145t228 -50.5t50.5 -227.5t-145 -329q118 -179 145 -329t-50.5 -228t-228 -51t-328.5 146q-179 -119 -329.5 -146
t-228 51t-50.5 228t145 329q-118 179 -145 329t47 231zM871 801q64 -67 122 -138q74 118 96 207.5t-18.5 130t-130 18.5t-207.5 -96q71 -58 138 -122zM358 288q-64 68 -121 139q-75 -118 -96.5 -207.5t19 -130t129.5 -18.5t208 96q-71 57 -139 121zM156 1004
q-37 -44 -15.5 -133.5t96.5 -207.5q57 71 123 136.5t137 123.5q-119 74 -208 96t-133 -15zM463 393q74 -78 152 -138q77 60 153 136t137 154q-61 77 -137 153t-153 137q-78 -61 -154 -137t-137 -153q61 -78 139 -152zM1074 86q37 44 15 133.5t-96 207.5q-58 -71 -123.5 -137
t-136.5 -123q118 -74 207.5 -96t133.5 15z" />
    <glyph glyph-name="ceiling-light" unicode="&#xfc67;" arabic-form="final" 
d="M309 773h230v385h151v-385h230l309 -614h-1229zM769 83q-4 -64 -47 -107.5t-107.5 -43.5t-107.5 43.5t-47 107.5h309z" />
    <glyph glyph-name="chart-bar-stacked" unicode="&#xfc68;" arabic-form="final" 
d="M1229 -9h-1229v1108h121v-984h124v121h245v-121h124v185h246v-185h124v121h245v-245zM984 421h245v-121h-245v121zM614 914h246v-184h-246v184zM860 360h-246v309h246v-309zM245 669h245v-124h-245v124zM490 300h-245v184h245v-184z" />
    <glyph glyph-name="chart-line-stacked" unicode="&#xfc69;" arabic-form="final" 
d="M949 349l280 516v-874h-1229v1108h121v-984h159l271 465zM1229 1099v-29l-306 -464l-433 308l-245 -369v554h984z" />
    <glyph glyph-name="decagram" unicode="&#xfc6a;" arabic-form="final" 
d="M1229 545l-136 154l18 207l-201 44l-105 178l-191 -81l-190 81l-105 -178l-201 -44l18 -204l-136 -157l136 -154l-18 -207l201 -47l105 -175l190 81l191 -81l105 178l201 44l-18 207z" />
    <glyph glyph-name="decagram-outline" unicode="&#xfc6b;" arabic-form="final" 
d="M1229 545l-136 -154l18 -207l-201 -44l-105 -178l-191 81l-190 -81l-105 175l-201 47l18 207l-136 154l136 157l-18 204l201 44l105 178l190 -81l191 81l105 -178l201 -44l-18 -207zM1080 545l-102 118l13 157l-154 31l-79 136l-144 -63l-143 63l-79 -136l-154 -31
l13 -157l-102 -118l102 -118l-13 -157l154 -31l79 -136l143 63l144 -63l79 136l154 34l-13 154z" />
    <glyph glyph-name="dice-multiple" unicode="&#xfc6c;" arabic-form="final" 
d="M1146 1160h-586q-35 0 -57.5 -24.5t-25.5 -59.5v-259h410v-410h259q35 4 59 26t24 58v585q0 35 -24 59.5t-59 24.5zM643 910q-35 0 -59 24t-24 59t24 59t61 24t59.5 -24t22.5 -59t-22.5 -59t-61.5 -24zM1063 491q-36 0 -60 24t-24 60.5t22.5 59t59.5 24t61 -22.5
t24 -60.5t-24 -59t-59 -25.5zM1063 910q-36 0 -60 24t-24 59t22.5 59t59.5 24t61 -24t24 -59t-24 -59t-59 -24zM83 683h586q35 -4 57.5 -26t25.5 -58v-585q-3 -35 -25.5 -59.5t-57.5 -24.5h-586q-35 0 -59 24.5t-24 59.5v585q0 36 24 58t59 26zM374 388q-35 0 -57.5 -24
t-22.5 -59t22.5 -57.5t58 -22.5t59.5 22.5t24 57.5t-24 59t-60 24zM166 599q-35 -3 -59 -25.5t-24 -57.5t24 -59t59.5 -24t59.5 24t24 59t-24 57.5t-60 25.5zM582 180q-35 0 -57.5 -24t-22.5 -59t22.5 -57.5t58 -22.5t59.5 22.5t24 57.5t-22.5 59t-57.5 24h-4z" />
    <glyph glyph-name="dice-d10" unicode="&#xfc6d;" arabic-form="final" 
d="M1203 620q26 -35 26 -75t-26 -75l-511 -511q-34 -31 -74.5 -31t-75.5 31l-510 511q-32 35 -32 75t32 75l510 511q35 31 75.5 31t74.5 -31zM1128 545l-511 511l-510 -511l510 -511zM516 311h-92v358l-110 -35v75l194 70h8v-468zM736 790q66 0 110.5 -44.5t47.5 -111.5
v-164q-3 -66 -47.5 -111t-111 -45t-111 45t-47.5 111v164q3 67 47.5 111.5t111.5 44.5zM736 704q-29 -3 -46.5 -20.5t-20.5 -46.5v-170q3 -29 20.5 -46t46.5 -17t47.5 17t18.5 46v170q0 29 -18.5 46.5t-47.5 20.5z" />
    <glyph glyph-name="folder-open" unicode="&#xfc6e;" arabic-form="final" 
d="M984 80h-870q-49 3 -81.5 35.5t-32.5 81.5v696q0 49 32.5 81.5t81.5 35.5h348l117 -117h405q49 0 83 -34t34 -83h-987v-579l125 465h990l-131 -495q-10 -38 -41.5 -61t-72.5 -26z" />
    <glyph glyph-name="guitar-acoustic" unicode="&#xfc6f;" arabic-form="final" 
d="M1074 1128h155v-131h-103l-273 -273q-37 55 -91 91zM583 803q109 -3 182 -76t76 -182q0 -91 -53.5 -159.5t-141.5 -92.5v-6q-3 -140 -94 -231t-227 -94q-140 3 -231 94t-94 231q3 137 94 228t231 94h6q24 88 92.5 141t159.5 53zM583 642q-43 0 -70 -27.5t-27 -69.5
t27 -69.5t69.5 -27.5t70 27.5t27.5 69.5t-27.5 69.5t-69.5 27.5zM255 399l-46 -45l182 -182l46 45z" />
    <glyph glyph-name="loading" unicode="&#xfc70;" arabic-form="final" 
d="M1229 917v243q-525 -12 -871 -358t-358 -872h242q12 422 289 699t698 288z" />
    <glyph glyph-name="lock-reset" unicode="&#xfc71;" arabic-form="final" 
d="M684 1087q232 -5 386 -159t159 -383q-5 -229 -159 -383t-386 -159q-142 0 -260.5 67.5t-191.5 179.5l86 69q59 -95 154 -151t215 -58q183 5 305 127t128 308q-6 186 -128 308t-305 127q-170 -5 -288.5 -110.5t-144.5 -271.5h151l-201 -201l-204 201h145q25 212 175.5 348
t363.5 141zM847 642q21 -3 35 -17t14 -34v-250q0 -22 -14 -36t-37 -14h-300q-21 0 -35 14t-14 36v250q0 20 14 34t35 17v53q2 64 44 107t105.5 43t107 -43t45.5 -107v-53zM695 769q-31 0 -52.5 -20.5t-21.5 -53.5v-53h150v53q-3 33 -23 53.5t-53 20.5z" />
    <glyph glyph-name="ninja" unicode="&#xfc72;" arabic-form="final" 
d="M352 484q0 32 26 55q69 -14 130 -55q-3 -34 -24.5 -54.5t-53.5 -21.5t-53.5 20.5t-24.5 55.5zM721 484q61 41 130 55q26 -23 24.5 -56t-23 -54.5t-53.5 -21.5t-53.5 21.5t-24.5 55.5zM614 730q-259 3 -487 -124l-6 -61q0 -115 52 -219q219 34 441.5 34t441.5 -34
q52 104 52 219l-6 61q-228 127 -488 124zM614 1160q263 -6 436 -179t179 -436q-6 -263 -179 -436t-436 -179q-262 6 -435 179t-179 436q6 263 179 436t435 179z" />
    <glyph glyph-name="octagram-outline" unicode="&#xfc73;" arabic-form="final" 
d="M0 289l106 256l-106 256l256 103l103 256l255 -106l256 106l103 -256l256 -103l-106 -256l106 -256l-256 -103l-103 -256l-256 106l-255 -106l-103 256zM165 733l76 -188l-76 -188l185 -77l76 -185l188 77l189 -77l76 185l185 77l-76 188l76 188l-185 77l-76 185
l-189 -77l-188 77l-76 -185z" />
    <glyph glyph-name="pencil-circle-outline" unicode="&#xfc74;" arabic-form="final" 
d="M306 363l375 375l127 -127l-375 -375h-127v127zM614 52q211 5 349.5 143.5t144.5 349.5q-6 211 -144.5 349.5t-349.5 143.5q-210 -5 -348.5 -143.5t-144.5 -349.5q6 -211 144.5 -349.5t348.5 -143.5zM903 709l-61 -63l-127 127l64 60q23 21 46 0l78 -77q20 -23 0 -47z
M614 1160q263 -6 436 -179t179 -436q-6 -263 -179 -436t-436 -179q-262 6 -435 179t-179 436q6 263 179 436t435 179z" />
    <glyph glyph-name="selection-off" unicode="&#xfc75;" arabic-form="final" 
d="M0 1060l72 73l1130 -1130l-72 -73l-86 86h-99v100l-760 759h-99v99zM199 1160h171v-113h-67l-112 113h8zM1229 1047v-172h-113v172h-171v113h171q49 0 81 -32.5t32 -80.5zM1116 301h113v-180l-113 113v67zM86 129v172h113v-172h171v-113h-171q-49 0 -81 32.5t-32 80.5z
M542 1160h231v-113h-231v113zM542 129h231v-113h-231v113zM1116 703h113v-230h-113v230zM86 703h113v-230h-113v230z" />
    <glyph glyph-name="set-all" unicode="&#xfc76;" arabic-form="final" 
d="M430 975q98 0 184 -41q87 41 185 41q185 -3 306 -124t124 -306q-3 -185 -124 -306t-306 -124q-98 0 -185 41q-86 -41 -184 -41q-185 3 -306 124t-124 306q3 185 124 306t306 124zM398 545q3 -87 36 -162t91 -129l64 26q-61 49 -94 116.5t-33 148.5t33 148.5t94 116.5
l-64 26q-58 -54 -91 -129t-36 -162zM831 545q-3 87 -36 162t-91 129l-64 -26q61 -49 94 -116.5t33 -148.5t-33 -148.5t-94 -116.5l64 -26q58 54 91 129t36 162z" />
    <glyph glyph-name="set-center" unicode="&#xfc77;" arabic-form="final" 
d="M430 975q-185 -3 -306 -124t-124 -306q3 -185 124 -306t306 -124q98 0 184 41q87 -41 185 -41q185 3 306 124t124 306q-3 185 -124 306t-306 124q-98 0 -185 -41q-86 41 -184 41zM430 854q32 0 60 -6q-57 -64 -89 -140t-32 -163t32 -163t89 -137q-28 -9 -60 -9
q-130 3 -218 91t-91 218q3 130 91 218t218 91zM799 854q130 -3 218 -91t91 -218q-3 -130 -91 -218t-218 -91q-32 0 -60 6q57 64 89 140t32 163t-32 163t-89 137q28 9 60 9z" />
    <glyph glyph-name="set-center-right" unicode="&#xfc78;" arabic-form="final" 
d="M799 115q-98 0 -185 41q-86 -41 -184 -41q-185 3 -306 124t-124 306q3 185 124 306t306 124q98 0 184 -41q87 41 185 41q185 -3 306 -124t124 -306q-3 -185 -124 -306t-306 -124zM430 236l60 9q-57 61 -89 137t-32 163t32 163t89 140l-60 6q-130 -3 -218 -91t-91 -218
q3 -130 91 -218t218 -91zM831 545q-3 87 -36 162t-91 129l-64 -26q61 -49 94 -116.5t33 -148.5t-33 -148.5t-94 -116.5l64 -26q58 54 91 129t36 162z" />
    <glyph glyph-name="set-left" unicode="&#xfc79;" arabic-form="final" 
d="M430 975q-185 -3 -306 -124t-124 -306q3 -185 124 -306t306 -124q98 0 184 41q87 -41 185 -41q185 3 306 124t124 306q-3 185 -124 306t-306 124q-98 0 -185 -41q-86 41 -184 41zM799 854q130 -3 218 -91t91 -218q-3 -130 -91 -218t-218 -91q-32 0 -60 6q57 64 89 140
t32 163t-32 163t-89 137q28 9 60 9zM614 790q58 -43 91.5 -108t33.5 -137t-33.5 -137t-91.5 -108q-57 43 -90.5 108t-33.5 137t33.5 137t90.5 108z" />
    <glyph glyph-name="set-left-center" unicode="&#xfc7a;" arabic-form="final" 
d="M430 975q98 0 184 -41q87 41 185 41q185 -3 306 -124t124 -306q-3 -185 -124 -306t-306 -124q-98 0 -185 41q-86 -41 -184 -41q-185 3 -306 124t-124 306q3 185 124 306t306 124zM799 854l-60 -9q57 -61 89 -137t32 -163t-32 -163t-89 -140l60 -6q130 3 218 91t91 218
q-3 130 -91 218t-218 91zM398 545q3 -87 36 -162t91 -129l64 26q-61 49 -94 116.5t-33 148.5t33 148.5t94 116.5l-64 26q-58 -54 -91 -129t-36 -162z" />
    <glyph glyph-name="set-left-right" unicode="&#xfc7b;" arabic-form="final" 
d="M430 975q98 0 184 -41q87 41 185 41q185 -3 306 -124t124 -306q-3 -185 -124 -306t-306 -124q-98 0 -185 41q-86 -41 -184 -41q-185 3 -306 124t-124 306q3 185 124 306t306 124zM430 545q0 -104 50.5 -187.5t133.5 -132.5q84 49 134.5 132.5t50.5 187.5t-50.5 187.5
t-134.5 132.5q-83 -49 -133.5 -132.5t-50.5 -187.5z" />
    <glyph glyph-name="set-none" unicode="&#xfc7c;" arabic-form="final" 
d="M430 975q-185 -3 -306 -124t-124 -306q3 -185 124 -306t306 -124q98 0 184 41q87 -41 185 -41q185 3 306 124t124 306q-3 185 -124 306t-306 124q-98 0 -185 -41q-86 41 -184 41zM430 854q32 0 60 -6q-57 -64 -89 -140t-32 -163t32 -163t89 -137q-28 -9 -60 -9
q-130 3 -218 91t-91 218q3 130 91 218t218 91zM799 854q130 -3 218 -91t91 -218q-3 -130 -91 -218t-218 -91q-32 0 -60 6q57 64 89 140t32 163t-32 163t-89 137q28 9 60 9zM614 790q58 -43 91.5 -108t33.5 -137t-33.5 -137t-91.5 -108q-57 43 -90.5 108t-33.5 137t33.5 137
t90.5 108z" />
    <glyph glyph-name="set-right" unicode="&#xfc7d;" arabic-form="final" 
d="M799 115q-98 0 -185 41q-86 -41 -184 -41q-185 3 -306 124t-124 306q3 185 124 306t306 124q98 0 184 -41q87 41 185 41q185 -3 306 -124t124 -306q-3 -185 -124 -306t-306 -124zM430 236l60 9q-57 61 -89 137t-32 163t32 163t89 140l-60 6q-130 -3 -218 -91t-91 -218
q3 -130 91 -218t218 -91zM614 300q58 43 91.5 108t33.5 137t-33.5 137t-91.5 108q-57 -43 -90.5 -108t-33.5 -137t33.5 -137t90.5 -108z" />
    <glyph glyph-name="shield-half-full" unicode="&#xfc7e;" arabic-form="final" 
d="M1229 612q-6 -291 -176 -518.5t-439 -300.5q-268 73 -438 300.5t-176 518.5v410l614 275l615 -275v-410zM614 -70q199 58 336.5 248.5t140.5 420.5v336l-477 212v-1217z" />
    <glyph glyph-name="sign-direction" unicode="&#xfc7f;" arabic-form="final" 
d="M543 545h-543l180 180l-180 183h543v289l71 71l72 -71v-289h363l180 -183l-180 -180h-363v-581q61 0 103.5 -40.5t42.5 -101.5h-435q0 61 42.5 101.5t103.5 40.5v581z" />
    <glyph glyph-name="sign-text" unicode="&#xfc80;" arabic-form="final" 
d="M547 1160l67 67l68 -67v-138h480q29 0 48 -19.5t19 -47.5v-682q0 -29 -19 -48t-48 -22h-480v-205q57 0 97 -38.5t40 -96.5h-409q0 58 40 96.5t97 38.5v205h-480q-29 3 -48 22t-19 48v682q0 28 19 47.5t48 19.5h480v138zM205 817v-134h819v134h-819zM205 545v-138h477v138
h-477z" />
    <glyph glyph-name="signal-off" unicode="&#xfc81;" arabic-form="final" 
d="M1024 1228v-899l205 -205v1104h-205zM86 1091l-86 -87l528 -528h-186v-477h205v461l135 -137v-324h205v119l256 -256l86 89zM682 819v-151l205 -205v356h-205zM0 204v-205h205v205h-205z" />
    <glyph glyph-name="square-root" unicode="&#xfc82;" arabic-form="final" 
d="M600 278l173 173l-173 176l87 87l173 -176l176 176l86 -87l-176 -176l176 -173l-86 -86l-176 173l-173 -173zM0 636h185l141 -332l164 641h739v-124h-643l-176 -676h-150l-156 370h-104v121z" />
    <glyph glyph-name="sticker-emoji" unicode="&#xfc83;" arabic-form="final" 
d="M213 1160q-89 0 -151 -62.5t-62 -151.5v-802q0 -89 62 -151.5t151 -62.5h647l369 370v646q0 89 -62 151.5t-151 62.5h-803zM231 1038h767q46 -3 76.5 -33t33.5 -76v-569h-92q-93 -3 -153.5 -63.5t-63.5 -152.5v-92h-568q-46 3 -76.5 33t-33.5 76v768q3 46 33.5 76
t76.5 33zM765 868q-15 0 -29 -6q-44 -11 -65.5 -48.5t-9.5 -83.5q3 -15 11 -26l199 52q0 17 -3 31q-11 35 -38.5 56.5t-64.5 24.5zM378 761q-14 0 -29 -3q-43 -14 -64.5 -51.5t-10.5 -80.5q3 -15 14 -29l197 55q0 14 -3 29q-9 37 -38 58.5t-66 21.5zM906 591l-563 -156
q64 -69 150.5 -96.5t179 -3t154.5 92.5t79 163z" />
    <glyph glyph-name="summit" unicode="&#xfc84;" arabic-form="final" 
d="M799 1099h124l306 -124l-306 -121v-196l306 -667h-1229l369 493l214 -291l216 465v441z" />
    <glyph glyph-name="sword-cross" unicode="&#xfc85;" arabic-form="final" 
d="M279 1101l687 -687l122 122l81 -82l-140 -140l184 -185q16 -18 16 -41.5t-16 -39.5l-44 -43q-16 -16 -39 -16t-42 16l-184 184l-141 -143l-81 81l122 124l-688 688v162h163zM839 665l274 274v162h-163l-273 -273zM552 376l-162 165l-127 -127l-122 122l-81 -82l140 -140
l-184 -187q-16 -16 -16 -39.5t16 -41.5l44 -41q16 -16 39 -16t42 16l184 184l141 -143l81 81l-122 124z" />
    <glyph glyph-name="truck-fast" unicode="&#xfc86;" arabic-form="final" 
d="M143 466l-39 78h272l-32 77h-252l-39 78h403l-32 77h-378l-46 78h194q2 44 31.5 73t72.5 31h621v-208h155l155 -206v-260h-104q0 -65 -44 -108.5t-110.5 -43.5t-110 43.5t-46.5 108.5h-206q-2 -65 -45.5 -108.5t-109 -43.5t-109 43.5t-46.5 108.5h-104v182h-51zM970 207
q34 2 55.5 24t21.5 54.5t-21.5 54.5t-54.5 22t-55 -22t-22 -54.5t22 -54.5t54 -24zM1047 672h-128v-128h230zM453 207q34 2 56 24t22 54.5t-22 54.5t-56 22t-55.5 -22t-21.5 -54.5t21.5 -54.5t55.5 -24z" />
    <glyph glyph-name="yammer" unicode="&#xfc87;" arabic-form="final" 
d="M682 973l-303 -776q0 -16 -60 -91t-213 -85q-30 0 -51 19.5t-21 49t21 49t51 19.5q78 6 110.5 42t32.5 46l26 68l-270 659q-10 29 1.5 55t39 36t53.5 0t36 -39l215 -522l202 522q13 29 37.5 39t52 0t39 -36t1.5 -55zM1028 943q-20 0 -37.5 -13t-143 -107.5t-132.5 -123.5
q29 -7 172.5 57t163.5 73q36 13 36 56q0 23 -16.5 40.5t-42.5 17.5zM1080 217q-10 16 -29.5 25.5t-164.5 71.5t-171 56q7 -30 132.5 -124.5t144.5 -103.5q29 -26 65 -7q23 13 29.5 36t-6.5 46zM1197 591q-16 13 -38.5 10t-177.5 -22.5t-178 -42.5q23 -20 179.5 -36
t179.5 -16q35 -7 58 29q13 20 6.5 42.5t-29.5 35.5z" />
    <glyph glyph-name="cast-off" unicode="&#xfc88;" arabic-form="final" 
d="M71 1108l-71 -79l61 -54q-19 -27 -22 -64v-157h106v145l796 -720h-218v-106h334l101 -91l71 79zM329 1017l116 -106h644v-582l106 -96v678q-3 47 -32.5 76.5t-73.5 29.5h-760zM39 651v-106q202 -5 334.5 -137.5t137.5 -334.5h106q-7 246 -169.5 408t-408.5 170zM39 439
v-103q113 -2 187 -77t76 -186h106q-5 157 -108 260.5t-261 105.5zM39 230v-157h158q0 66 -44.5 110.5t-113.5 46.5z" />
    <glyph glyph-name="help-box" unicode="&#xfc89;" arabic-form="final" 
d="M547 135h135v138h-135v-138zM614 955q-115 -4 -191.5 -80.5t-80.5 -191.5h135q3 57 41.5 95.5t96 38.5t96 -38.5t41.5 -95.5q-13 -90 -102.5 -139.5t-102.5 -203.5h135q13 106 102.5 165t102.5 178q-4 115 -80.5 191.5t-192.5 80.5zM138 1160h953q58 0 98 -40.5t40 -97.5
v-954q0 -57 -40 -97.5t-98 -40.5h-953q-58 0 -98 40.5t-40 97.5v954q0 57 40 97.5t98 40.5z" />
    <glyph glyph-name="timer-sand-full" unicode="&#xfc8a;" arabic-form="final" 
d="M0 1568v-615l408 -408l-408 -408v-615h1229v615l-408 408l408 408v615h-1229z" />
    <glyph glyph-name="waves" unicode="&#xfc8b;" arabic-form="final" 
d="M0 206q101 49 203.5 85t206.5 39q101 -9 204.5 -62t204.5 -62q104 9 206.5 62t203.5 62v-185q-101 -8 -203.5 -61.5t-206.5 -62.5q-101 9 -204.5 62.5t-204.5 61.5q-104 -2 -206.5 -38.5t-203.5 -85.5v185zM0 575q101 49 203.5 85t206.5 39q101 -8 204.5 -61.5
t204.5 -62.5q104 9 206.5 62.5t203.5 61.5v-184q-101 -9 -203.5 -62.5t-206.5 -61.5q-101 8 -204.5 61.5t-204.5 62.5q-104 -3 -206.5 -39t-203.5 -85v184zM0 945q101 49 203.5 85t206.5 39q101 -9 204.5 -62.5t204.5 -61.5q104 8 206.5 61.5t203.5 62.5v-185
q-101 -9 -203.5 -62t-206.5 -62q-101 9 -204.5 62t-204.5 62q-104 -3 -206.5 -39t-203.5 -85v185z" />
    <glyph glyph-name="alarm-bell" unicode="&#xfc8c;" arabic-form="final" 
d="M799 135v-205h-614v205q144 -83 307 -83t307 83zM1229 1038q0 52 -34.5 87t-86.5 35q-29 0 -56.5 -13t-44.5 -39q-29 -44 -22 -91.5t51 -79.5q31 -23 72 -23h14q78 -210 24.5 -416.5t-223.5 -353.5q-32 -23 -63 -43v-110h63v78q144 107 225 262.5t81 337.5q0 139 -49 268
q49 38 49 101zM984 669q-6 -211 -144.5 -349.5t-349.5 -143.5q-207 5 -347 143.5t-143 349.5q3 208 143 348t347 143q211 -3 349.5 -143t144.5 -348z" />
    <glyph glyph-name="alarm-light" unicode="&#xfc8d;" arabic-form="final" 
d="M263 814l-123 123l82 83l124 -124zM672 1160v-176h-115v176h115zM1089 937l-123 -123l-83 82l124 124zM176 603v-118h-176v118h176zM1053 603h176v-118h-176v118zM263 46h703q49 0 82 -33t36 -83h-939q3 50 36 83t82 33zM614 924q149 -3 249 -102t103 -250v-466h-703v466
q3 151 103 250t248 102z" />
    <glyph glyph-name="android-head" unicode="&#xfc8e;" arabic-form="final" 
d="M369 529q-34 -3 -56 -24.5t-22 -53t22 -53.5t55 -22t54.5 22t21.5 53.5t-21.5 53t-53.5 24.5zM860 529q-32 -3 -53.5 -24.5t-21.5 -53t21.5 -53.5t54.5 -22t55 22t22 53.5t-22 53t-56 24.5zM614 806q139 -3 257 -58l133 133q20 20 44.5 20t43.5 -18.5t19 -43t-20 -44.5
l-110 -110q115 -87 181.5 -215t66.5 -281h-1229q0 153 66.5 281t181.5 215l-110 110q-20 20 -20 44.5t19 43t43.5 18.5t44.5 -20l133 -133q118 55 256 58z" />
    <glyph glyph-name="approval" unicode="&#xfc8f;" arabic-form="final" 
d="M1229 545l-136 154l18 207l-201 44l-105 178l-191 -81l-190 81l-105 -178l-201 -44l18 -204l-136 -157l136 -154l-18 -207l201 -47l105 -175l190 81l191 -81l105 178l201 44l-18 207zM502 265l-222 225l78 79l144 -144l369 366l78 -79z" />
    <glyph glyph-name="arrow-collapse-down" unicode="&#xfc90;" arabic-form="final" 
d="M1102 539l-488 -487l-487 487l86 87l341 -338v872h121v-872l341 341zM614 52h-614v-122h1229v122h-615z" />
    <glyph glyph-name="arrow-collapse-left" unicode="&#xfc91;" arabic-form="final" 
d="M609 57l-488 488l488 488l86 -87l-337 -340h871v-122h-871l340 -340zM121 545v615h-121v-1230h121v615z" />
    <glyph glyph-name="arrow-collapse-right" unicode="&#xfc92;" arabic-form="final" 
d="M620 1033l488 -488l-488 -488l-86 87l337 340h-871v122h871l-337 340zM1108 545v-615h121v1230h-121v-615z" />
    <glyph glyph-name="arrow-collapse-up" unicode="&#xfc93;" arabic-form="final" 
d="M127 551l487 487l488 -487l-86 -87l-341 338v-872h-121v872l-341 -338zM614 1038h615v122h-1229v-122h614z" />
    <glyph glyph-name="arrow-expand-down" unicode="&#xfc94;" arabic-form="final" 
d="M1229 1038v122h-1229v-122h554v-874l-341 341l-86 -87l487 -488l488 488l-86 87l-341 -341v874h554z" />
    <glyph glyph-name="arrow-expand-left" unicode="&#xfc95;" arabic-form="final" 
d="M1108 -70h121v1230h-121v-554h-874l340 340l-86 87l-488 -488l488 -488l86 87l-340 340h874v-554z" />
    <glyph glyph-name="arrow-expand-right" unicode="&#xfc96;" arabic-form="final" 
d="M121 1160h-121v-1230h121v554h874l-340 -340l86 -87l488 488l-488 488l-86 -87l340 -340h-874v554z" />
    <glyph glyph-name="arrow-expand-up" unicode="&#xfc97;" arabic-form="initial" 
d="M0 52v-122h1229v122h-554v874l341 -341l86 87l-488 488l-487 -488l86 -87l341 341v-874h-554z" />
    <glyph glyph-name="book-secure" unicode="&#xfc98;" arabic-form="initial" 
d="M1074 1310h-460v-535l-190 115l-194 -115v535h-75q-65 0 -108 -43t-47 -107v-1230q4 -64 47 -107t108 -43h919q65 0 108 43t47 107v1230q-4 64 -47 107t-108 43zM1074 -70h-614v310h79v75q0 97 64.5 161.5t163.5 64.5t163.5 -64.5t68.5 -161.5v-75h75v-310zM844 315v-75
h-154v75q4 32 25.5 53.5t53.5 21.5t53.5 -21.5t21.5 -53.5z" />
    <glyph glyph-name="book-unsecure" unicode="&#xfc99;" arabic-form="initial" 
d="M1074 1310h-460v-535l-190 115l-194 -115v535h-75q-65 0 -108 -43t-47 -107v-1230q4 -64 47 -107t108 -43h919q65 0 108 43t47 107v1230q-4 64 -47 107t-108 43zM1074 -70h-614v310h79v150q0 101 64.5 165.5t163.5 64.5t163.5 -64.5t68.5 -165.5h-155q0 33 -21.5 54.5
t-53.5 21.5t-53.5 -21.5t-25.5 -54.5v-150h384v-310z" />
    <glyph glyph-name="bus-articulated-end" unicode="&#xfc9a;" arabic-form="initial" 
d="M1229 931l-97 -97l97 -97l-97 -97l97 -97l-97 -96l97 -97h-581q-3 -82 -57.5 -136.5t-138 -54.5t-138 54.5t-54.5 136.5h-260v451q3 57 39.5 93.5t90.5 36.5h1099zM1035 834h-227v-160h227v160zM711 834h-257v-160h257v160zM357 834h-260v-160h260v160zM454 447
q-42 0 -69.5 -27.5t-27.5 -70t27.5 -69.5t68 -27t68 27t27.5 69.5t-27.5 70t-66.5 27.5z" />
    <glyph glyph-name="bus-articulated-front" unicode="&#xfc9b;" arabic-form="initial" 
d="M0 878l84 -83l-84 -84l84 -84l-84 -83l84 -84l-84 -84h112q3 -70 50 -117t117.5 -47t118 47t49.5 117h335q2 -70 49.5 -117t118 -47t117.5 47t50 117h112v390q-3 50 -34 81t-78 31h-1117zM167 795h142v-139h-142v139zM392 795h222v-139h-222v139zM698 795h222v-139h-222
v139zM1004 795h141v-306l-141 110v196zM280 460q36 0 59.5 -23.5t23.5 -60t-23.5 -60t-60 -23.5t-60 23.5t-23.5 60t23.5 60t60.5 23.5zM949 460q37 0 60.5 -23.5t23.5 -60t-23.5 -60t-60 -23.5t-60 23.5t-23.5 60t23.5 60t59.5 23.5z" />
    <glyph glyph-name="bus-double-decker" unicode="&#xfc9c;" arabic-form="initial" 
d="M112 991q-47 -3 -78 -34.5t-34 -78.5v-614h112q3 -71 50 -118t117.5 -47t118 47t49.5 118h335q2 -71 49.5 -118t118 -47t117.5 47t50 118h112v167q-3 50 -34 81.5t-78 31.5h-113v138h225v196q-3 47 -34 78.5t-78 34.5h-1005zM84 907h225v-141h-225v141zM392 907h222v-141
h-222v141zM698 907h222v-141h-222v141zM1004 907h141v-141h-141v141zM698 682h222v-138h-222v138zM84 682h225v-138h-225v138zM392 682h222v-138h-222v138zM280 348q36 0 59.5 -23.5t23.5 -59t-23.5 -59t-60 -23.5t-60 23.5t-23.5 59t23.5 59t60.5 23.5zM949 348
q37 0 60.5 -23.5t23.5 -59t-23.5 -59t-60 -23.5t-60 23.5t-23.5 59t23.5 59t59.5 23.5z" />
    <glyph glyph-name="bus-school" unicode="&#xfc9d;" arabic-form="initial" 
d="M112 878q-47 0 -78 -31t-34 -81v-390h112q3 -70 50 -117t117.5 -47t118 47t49.5 117h335q2 -70 49.5 -117t118 -47t117.5 47t50 117h112v168q-3 47 -34 78.5t-78 33.5h-113v110q0 50 -31.5 81t-78.5 31h-782zM698 795h222v-139h-222v139zM84 795h225v-139h-225v139z
M392 795h222v-139h-222v139zM280 460q36 0 59.5 -23.5t23.5 -60t-23.5 -60t-60 -23.5t-60 23.5t-23.5 60t23.5 60t60.5 23.5zM949 460q37 0 60.5 -23.5t23.5 -60t-23.5 -60t-60 -23.5t-60 23.5t-23.5 60t23.5 60t59.5 23.5z" />
    <glyph glyph-name="bus-side" unicode="&#xfc9e;" arabic-form="initial" 
d="M112 878q-47 0 -78 -31t-34 -81v-390h112q3 -70 50 -117t117.5 -47t118 47t49.5 117h335q2 -70 49.5 -117t118 -47t117.5 47t50 117h112v390q-3 50 -34 81t-78 31h-1005zM84 795h225v-139h-225v139zM392 795h222v-139h-222v139zM698 795h222v-139h-222v139zM1004 795h141
v-306l-141 110v196zM280 460q36 0 59.5 -23.5t23.5 -60t-23.5 -60t-60 -23.5t-60 23.5t-23.5 60t23.5 60t60.5 23.5zM949 460q37 0 60.5 -23.5t23.5 -60t-23.5 -60t-60 -23.5t-60 23.5t-23.5 60t23.5 60t59.5 23.5z" />
    <glyph glyph-name="camera-gopro" unicode="&#xfc9f;" arabic-form="initial" 
d="M1108 975h-309q-52 0 -86.5 -34.5t-37.5 -86.5v-309q3 -52 37.5 -86.5t86.5 -37.5h309q52 3 86.5 37.5t34.5 86.5v309q0 52 -34.5 86.5t-86.5 34.5zM952 513q-78 3 -130 55t-52 131.5t52 131.5t131.5 52t131.5 -52t52 -131.5t-52 -131.5t-133 -55zM952 606q-37 2 -63 28
t-26 65t26 65t64.5 26t64.5 -26t26 -65t-26 -65t-66 -28zM614 360v615h-493q-52 0 -86.5 -34.5t-34.5 -86.5v-618q0 -52 34.5 -86.5t86.5 -34.5h987q52 0 86.5 34.5t34.5 86.5v124h-615zM490 545h-369v309h369v-309z" />
    <glyph glyph-name="camera-metering-center" unicode="&#xfca0;" arabic-form="initial" 
d="M121 1038h987q52 -3 86.5 -37.5t34.5 -86.5v-738q0 -52 -34.5 -86.5t-86.5 -37.5h-987q-52 3 -86.5 37.5t-34.5 86.5v738q0 52 34.5 86.5t86.5 37.5zM121 914v-738h987v738h-987zM614 637q41 0 67 -26t26 -66t-26 -66t-66.5 -26t-66.5 26t-26 66t26 66t66 26zM614 822
q101 -3 175 -62t97 -154h-98q-21 54 -67 89t-106.5 35t-106.5 -35t-67 -89h-98q23 95 97 154t174 62zM614 268q-100 3 -174 62t-97 154h98q21 -54 67 -89t106.5 -35t106.5 35t67 89h98q-23 -95 -97 -154t-175 -62z" />
    <glyph glyph-name="camera-metering-matrix" unicode="&#xfca1;" arabic-form="initial" 
d="M121 1038h987q52 -3 86.5 -37.5t34.5 -86.5v-738q0 -52 -34.5 -86.5t-86.5 -37.5h-987q-52 3 -86.5 37.5t-34.5 86.5v738q0 52 34.5 86.5t86.5 37.5zM121 914v-738h987v738h-987zM213 822h341v-104q-40 -14 -69 -43t-44 -69h-228v216zM1016 822v-216h-228q-15 40 -44 69
t-69 43v104h341zM1016 268h-341v104q40 14 69 43t44 69h228v-216zM213 268v216h228q15 -40 44 -69t69 -43v-104h-341zM614 637q41 0 67 -26t26 -66t-26 -66t-66.5 -26t-66.5 26t-26 66t26 66t66 26z" />
    <glyph glyph-name="camera-metering-partial" unicode="&#xfca2;" arabic-form="initial" 
d="M121 1038h987q52 -3 86.5 -37.5t34.5 -86.5v-738q0 -52 -34.5 -86.5t-86.5 -37.5h-987q-52 3 -86.5 37.5t-34.5 86.5v738q0 52 34.5 86.5t86.5 37.5zM121 914v-738h987v738h-987zM614 822q101 -3 175 -62t97 -154h-98q-21 54 -67 89t-106.5 35t-106.5 -35t-67 -89h-98
q23 95 97 154t174 62zM614 268q-100 3 -174 62t-97 154h98q21 -54 67 -89t106.5 -35t106.5 35t67 89h98q-23 -95 -97 -154t-175 -62z" />
    <glyph glyph-name="camera-metering-spot" unicode="&#xfca3;" arabic-form="initial" 
d="M121 1038h987q52 -3 86.5 -37.5t34.5 -86.5v-738q0 -52 -34.5 -86.5t-86.5 -37.5h-987q-52 3 -86.5 37.5t-34.5 86.5v738q0 52 34.5 86.5t86.5 37.5zM121 914v-738h987v738h-987zM614 637q41 0 67 -26t26 -66t-26 -66t-66.5 -26t-66.5 26t-26 66t26 66t66 26z" />
    <glyph glyph-name="cannabis" unicode="&#xfca4;" arabic-form="initial" 
d="M575 -220v355q-25 -46 -88 -96.5t-178 -93.5q0 7 34 77t113 142q-75 -18 -188 -5.5t-268 81.5q7 7 124 50t282 29q-93 50 -197.5 174t-194.5 350q15 4 193 -82.5t325 -301.5q-97 298 -18 565.5t100 285.5q133 -312 135 -524t-48 -324q143 212 321 298.5t193 82.5
q-90 -226 -194.5 -350t-197.5 -174q165 14 282 -29t124 -50q-155 -69 -268 -81.5t-188 5.5q79 -72 113 -142t34 -77q-115 43 -178 93.5t-88 96.5v-355h-79z" />
    <glyph glyph-name="car-convertible" unicode="&#xfca5;" arabic-form="initial" 
d="M837 878l-55 -41l138 -181h-222v84h-84v-84h-502q-47 -2 -78 -33.5t-34 -78.5v-168h112q3 -70 50 -117t117.5 -47t118 47t49.5 117h335q2 -70 49.5 -117t118 -47t117.5 47t50 117h112v168q-3 47 -34 78.5t-78 33.5h-113zM280 460q36 0 59.5 -23.5t23.5 -60t-23.5 -60
t-60 -23.5t-60 23.5t-23.5 60t23.5 60t60.5 23.5zM949 460q37 0 60.5 -23.5t23.5 -60t-23.5 -60t-60 -23.5t-60 23.5t-23.5 60t23.5 60t59.5 23.5z" />
    <glyph glyph-name="car-estate" unicode="&#xfca6;" arabic-form="initial" 
d="M112 878h725l167 -222h113q47 -2 78 -33.5t34 -78.5v-168h-112q-3 -70 -50 -117t-117.5 -47t-118 47t-49.5 117h-335q-2 -70 -49.5 -117t-118 -47t-117.5 47t-50 117h-112v390q3 50 34 81t78 31zM84 795v-139h447v139h-447zM614 795v-139h288l-107 139h-181zM280 460
q-37 0 -60.5 -23.5t-23.5 -60t23.5 -60t60 -23.5t60 23.5t23.5 60t-23.5 60t-59.5 23.5zM949 460q-36 0 -59.5 -23.5t-23.5 -60t23.5 -60t60 -23.5t60 23.5t23.5 60t-23.5 60t-60.5 23.5z" />
    <glyph glyph-name="car-hatchback" unicode="&#xfca7;" arabic-form="initial" 
d="M837 878h-557l-280 -334v-168h112q3 -70 50 -117t117.5 -47t118 47t49.5 117h335q2 -70 49.5 -117t118 -47t117.5 47t50 117h112v168q-3 47 -34 78.5t-78 33.5h-113zM309 795h222v-139h-335zM614 795h197l107 -139h-304v139zM280 460q36 0 59.5 -23.5t23.5 -60t-23.5 -60
t-60 -23.5t-60 23.5t-23.5 60t23.5 60t60.5 23.5zM949 460q37 0 60.5 -23.5t23.5 -60t-23.5 -60t-60 -23.5t-60 23.5t-23.5 60t23.5 60t59.5 23.5z" />
    <glyph glyph-name="car-pickup" unicode="&#xfca8;" arabic-form="initial" 
d="M837 878h-306v-222h-531v-280h112q3 -70 50 -117t117.5 -47t118 47t49.5 117h335q2 -70 49.5 -117t118 -47t117.5 47t50 117h112v168q-3 47 -34 78.5t-78 33.5h-113zM614 795h197l107 -139h-304v139zM280 460q36 0 59.5 -23.5t23.5 -60t-23.5 -60t-60 -23.5t-60 23.5
t-23.5 60t23.5 60t60.5 23.5zM949 460q37 0 60.5 -23.5t23.5 -60t-23.5 -60t-60 -23.5t-60 23.5t-23.5 60t23.5 60t59.5 23.5z" />
    <glyph glyph-name="car-side" unicode="&#xfca9;" arabic-form="initial" 
d="M837 878l167 -222h113q47 -2 78 -33.5t34 -78.5v-168h-112q-3 -70 -50 -117t-117.5 -47t-118 47t-49.5 117h-335q-2 -70 -49.5 -117t-118 -47t-117.5 47t-50 117h-112v168q3 47 34 78.5t78 33.5l168 222h557zM531 795h-209l-105 -139h314v139zM614 795v-139h288l-107 139
h-181zM280 460q-37 0 -60.5 -23.5t-23.5 -60t23.5 -60t60 -23.5t60 23.5t23.5 60t-23.5 60t-59.5 23.5zM949 460q-36 0 -59.5 -23.5t-23.5 -60t23.5 -60t60 -23.5t60 23.5t23.5 60t-23.5 60t-60.5 23.5z" />
    <glyph glyph-name="car-sports" unicode="&#xfcaa;" arabic-form="initial" 
d="M614 810h-279l-168 -141h-55q-47 0 -78 -31.5t-34 -78.5v-167h123q18 -52 60 -82t97 -30t96.5 30t60.5 82h355q19 -52 60.5 -82t96.5 -30t97 30t60 82h123v55q-3 44 -37 67.5t-75 44.5zM238 614l125 113h223l225 -113h-573zM280 531q36 0 59.5 -23.5t23.5 -60.5
t-23.5 -60.5t-60 -23.5t-60 23.5t-23.5 60.5t23.5 60.5t60.5 23.5zM949 531q37 0 60.5 -23.5t23.5 -60.5t-23.5 -60.5t-60 -23.5t-60 23.5t-23.5 60.5t23.5 60.5t59.5 23.5z" />
    <glyph glyph-name="caravan" unicode="&#xfcab;" arabic-form="initial" 
d="M121 1037q-52 -3 -86.5 -37.5t-34.5 -86.5v-678h121q3 -78 55 -130t131.5 -52t131 52t51.5 130h739v124h-185v554q0 52 -34.5 86.5t-86.5 37.5h-802zM185 728h245v-184h-245v184zM614 728h246v-369h-246v369zM306 298q26 -3 43 -20t17 -43t-17 -43.5t-43 -17.5
t-43.5 17.5t-17.5 43.5t17.5 43t43.5 20z" />
    <glyph glyph-name="cctv" unicode="&#xfcac;" arabic-form="initial" 
d="M992 1009q-34 3 -69 -17l-534 -309q-43 -26 -56 -73.5t13 -93.5l93 -159q25 -46 73 -59t94 13l109 64q26 -44 73 -64v-109q0 -52 34.5 -85.5t89.5 -36.5h317v122h-317v109q40 20 64.5 57.5t26 81t-21.5 78.5l156 92q46 26 59 73.5t-13 93.5l-92 159q-35 58 -99 63z
M260 502l-260 -44l213 -372l168 202z" />
    <glyph glyph-name="chart-donut" unicode="&#xfcad;" arabic-form="initial" 
d="M675 1158v-185q162 -26 264 -142.5t105 -284.5q0 -83 -28 -155l161 -96q52 116 52 251q-6 246 -160 414.5t-394 197.5zM614 117q-184 2 -305 123.5t-124 305.5q3 168 105 284.5t264 142.5v185q-240 -29 -394 -197.5t-160 -414.5q6 -262 179 -435t435 -179q153 0 281.5 68
t215.5 183l-162 95q-58 -78 -144.5 -119.5t-190.5 -41.5z" />
    <glyph glyph-name="chart-donut-variant" unicode="&#xfcae;" arabic-form="initial" 
d="M675 1158q240 -29 394 -197.5t160 -414.5q0 -135 -52 -251l-161 96q28 72 28 155q-3 168 -105 284.5t-264 142.5v185zM614 117q104 0 190.5 41.5t144.5 119.5l162 -95q-87 -115 -215.5 -183t-281.5 -68q-262 6 -435 180.5t-179 433.5q6 246 160 414.5t394 197.5v-185
q-162 -26 -264 -142.5t-105 -284.5q3 -184 124 -305.5t305 -123.5zM614 916q156 -3 261.5 -108.5t108.5 -261.5q-3 -141 -88 -240.5t-221 -122.5v190q55 21 89.5 67t34.5 106q-3 78 -55 130t-130 55l-34 -3l-95 165q60 23 129 23zM245 546q0 87 36 159t100 127l92 -164
q-43 -52 -43 -122q0 -60 34.5 -106t89.5 -67v-190q-136 23 -221 122.5t-88 240.5z" />
    <glyph glyph-name="chart-line-variant" unicode="&#xfcaf;" arabic-form="initial" 
d="M92 144l370 369l245 -245l522 589l-87 89l-435 -493l-245 245l-462 -462z" />
    <glyph glyph-name="chili-hot" unicode="&#xfcb0;" arabic-form="initial" 
d="M1057 767l89 57q36 -18 59.5 -54t23.5 -79v-902q-40 -14 -307.5 153t-307.5 670v79q0 40 20 76t56 53l111 -53l119 75zM769 1302q90 0 153 -57.5t77 -143.5q58 -18 101 -57.5t68 -93.5l-111 -68l-137 75l-119 -75l-129 64q50 112 169 155q-22 46 -72 50v151zM460 691
q14 -445 163.5 -626.5t296.5 -275.5q-36 -14 -305.5 153t-305.5 670v79q0 40 20 76t52 53l104 -50q-25 -36 -25 -79zM496 882l-129 64q50 112 165 155q-18 46 -72 50v151q93 0 154 -57v-94q54 -4 72 -50q-57 -18 -104 -68.5t-86 -150.5zM155 691q10 -445 161 -626.5
t298 -275.5q-39 -14 -306.5 153t-307.5 670v79q0 40 21.5 76t53.5 53l101 -50q-21 -36 -21 -79zM187 882l-126 64q47 112 165 155q-18 46 -71 50v151q89 0 154 -57v-94q50 -4 72 -50q-58 -18 -104.5 -68.5t-89.5 -150.5z" />
    <glyph glyph-name="chili-medium" unicode="&#xfcb1;" arabic-form="initial" 
d="M999 841l124 77q48 -24 77 -72t29 -106v-1205q-53 -19 -410.5 204t-410.5 896v105q0 53 29 101t72 72l149 -72l163 101zM614 1556q121 0 205 -76.5t103 -192.5q77 -24 137 -76.5t88 -124.5l-148 -91l-178 100l-163 -100l-168 86q62 149 221 206q-24 63 -97 68v201z
M206 740q15 -595 214 -837.5t401 -367.5q-53 -19 -410.5 204t-410.5 896v105q0 53 26.5 101t74.5 72l134 -67q-29 -48 -29 -106zM250 995l-173 86q67 149 225 206q-28 63 -96 68v201q120 0 202 -76v-125q72 -5 96 -68q-72 -24 -137 -91t-117 -201z" />
    <glyph glyph-name="chili-mild" unicode="&#xfcb2;" arabic-form="initial" 
d="M794 845l127 77q48 -24 77.5 -72.5t29.5 -106.5v-1220q-49 -20 -413.5 206t-413.5 907v107q0 53 27 101.5t71 73.5l155 -73l160 102zM405 1569q122 0 209.5 -78t102.5 -194q77 -25 138 -78t95 -126l-156 -93l-180 102l-160 -102l-175 88q68 150 224 209q-25 63 -98 68
v204z" />
    <glyph glyph-name="cloud-braces" unicode="&#xfcb3;" arabic-form="initial" 
d="M307 135q-129 4 -217 90.5t-90 216.5q2 122 79 206t195 99q50 93 139 149.5t201 58.5q142 -2 245.5 -87t131.5 -220q101 -9 168.5 -81t69.5 -176q-2 -108 -74 -181t-183 -75h-665zM948 545h-26q-22 0 -36.5 14.5t-14.5 35.5v53q-2 43 -31 72t-72 29h-77v-101h77v-53
q0 -43 30 -71.5t73 -28.5q-43 -3 -73 -31.5t-30 -72.5v-50h-77v-103h77q43 0 72 30t31 73v50q0 22 14.5 36.5t36.5 14.5h26v103zM281 545v-103h26q22 0 36.5 -14.5t14.5 -36.5v-50q2 -43 31 -73t72 -30h77v103h-77v50q0 44 -30 72.5t-73 31.5q43 0 73 28.5t30 71.5v53h77
v101h-77q-43 0 -72 -29t-31 -72v-53q0 -21 -14.5 -35.5t-36.5 -14.5h-26z" />
    <glyph glyph-name="cloud-tags" unicode="&#xfcb4;" arabic-form="initial" 
d="M307 135q-129 4 -217 90.5t-90 216.5q2 122 79 206t195 99q50 93 139 149.5t201 58.5q142 -2 245.5 -87t131.5 -220q101 -9 168.5 -81t69.5 -176q-2 -108 -74 -181t-183 -75h-665zM466 730l-236 -235l236 -236l72 72l-164 164l164 163zM763 730l-72 -72l164 -163
l-164 -164l72 -72l236 236z" />
    <glyph glyph-name="console-line" unicode="&#xfcb5;" arabic-form="initial" 
d="M697 147v199h532v-199h-532zM398 545l-398 398h280l330 -330q28 -31 28 -71.5t-28 -68.5l-327 -326h-283z" />
    <glyph glyph-name="corn" unicode="&#xfcb6;" arabic-form="initial" 
d="M554 545h-136q75 -46 136 -104v104zM306 606q17 242 100.5 396.5t207.5 157.5q125 -3 210 -160.5t99 -399.5q139 66 306 69q-234 -150 -296 -428.5t-319 -310.5q-245 32 -308.5 310.5t-305.5 428.5q167 -3 306 -63zM554 606v124h-170l-15 -124h185zM554 790v124h-121
q-23 -55 -38 -124h159zM554 975v107q-52 -32 -92 -107h92zM614 1099v-124h61v-61h-61v-124h125v-60h-125v-124h185v-61h-185v-124h125v-61h-110q55 -66 88 -134t39 -125q49 78 76.5 196t27.5 262q-6 225 -75.5 379.5t-170.5 160.5z" />
    <glyph glyph-name="currency-chf" unicode="&#xfcb7;" arabic-form="initial" 
d="M186 1397h1043v-191h-852v-568h759v-186h-759v-284h191v-191h-191v-284h-191v284h-186v191h186v1229z" />
    <glyph glyph-name="currency-cny" unicode="&#xfcb8;" arabic-form="initial" 
d="M517 -342v494h-494v194h494v33l-83 166h-411v199h314l-337 688h222l392 -808l393 808h222l-337 -688h314v-199h-411l-83 -166v-33h494v-194h-494v-494h-195z" />
    <glyph glyph-name="currency-eth" unicode="&#xfcb9;" arabic-form="initial" 
d="M614 1557l-614 -1035l614 -370l615 370zM0 397l614 -864l615 864l-615 -369z" />
    <glyph glyph-name="currency-jpy" unicode="&#xfcba;" arabic-form="initial" 
d="M517 -342v494h-494v194h494v33l-83 166h-411v199h314l-337 688h222l392 -808l393 808h222l-337 -688h314v-199h-411l-83 -166v-33h494v-194h-494v-494h-195z" />
    <glyph glyph-name="currency-krw" unicode="&#xfcbb;" arabic-form="initial" 
d="M0 1099h121l84 -369h245l84 369h161l84 -369h245l84 369h121l-81 -369h81v-124h-110l-26 -122h136v-124h-164l-81 -369h-165l-80 369h-249l-80 -369h-165l-81 369h-164v124h136l-26 122h-110v124h81zM684 606h-139l-26 -122h191zM326 176l43 184h-83zM424 606h-193
l29 -122h135zM903 176l40 184h-83zM998 606h-193l29 -122h135zM614 914l-40 -184h81z" />
    <glyph glyph-name="currency-sign" unicode="&#xfcbc;" arabic-form="initial" 
d="M1223 544q0 97 -31.5 190t-88.5 173l120 120l-125 131l-121 -123q-168 117 -362.5 117t-362.5 -120l-121 120l-131 -125l123 -120q-117 -169 -117 -363.5t120 -362.5l-120 -120l128 -129l123 120q166 -117 362 -117t361 117l123 -120l126 129l-120 120q57 80 85.5 172.5
t28.5 190.5zM614 118q-182 3 -302.5 123t-122.5 303q2 182 122.5 302.5t302.5 122.5q183 -2 303.5 -122.5t122.5 -302.5q-2 -183 -122.5 -303t-303.5 -123z" />
    <glyph glyph-name="currency-twd" unicode="&#xfcbd;" arabic-form="initial" 
d="M0 612h1229v-134h-410v-410h410v-138h-410q-57 0 -95.5 40.5t-41.5 97.5v410h-180l-316 -548l-119 68l279 480h-346v134zM138 1160h953v-138h-953v138z" />
    <glyph glyph-name="desktop-classic" unicode="&#xfcbe;" arabic-form="initial" 
d="M245 1160q-52 0 -86.5 -35t-37.5 -87v-493q3 -52 37.5 -86.5t86.5 -37.5h739q52 3 86.5 37.5t37.5 86.5v493q-3 52 -37.5 87t-86.5 35h-739zM245 1038h739v-493h-739v493zM121 360q-52 0 -86.5 -34.5t-34.5 -89.5v-184q0 -52 34.5 -87t86.5 -35h987q52 0 86.5 35t34.5 87
v184q0 55 -34.5 89.5t-86.5 34.5h-987zM369 236h739v-184h-739v184zM430 190v-92h245v92h-245zM799 190v-92h245v92h-245z" />
    <glyph glyph-name="dip-switch" unicode="&#xfcbf;" arabic-form="initial" 
d="M61 1038h245q26 -3 43 -20t20 -43v-860q-3 -26 -20 -43t-43 -20h-245q-26 3 -43.5 20t-17.5 43v860q0 26 17.5 43t43.5 20zM490 1038h249q26 -3 43 -20t17 -43v-860q0 -26 -17 -43t-43 -20h-249q-26 3 -43 20t-17 43v860q0 26 17 43t43 20zM923 1038h245q26 -3 43.5 -20
t17.5 -43v-860q0 -26 -17.5 -43t-43.5 -20h-245q-26 3 -43 20t-20 43v860q3 26 20 43t43 20zM121 176h124v308h-124v-308zM554 606h121v308h-121v-308zM984 176h124v308h-124v-308z" />
    <glyph glyph-name="donkey" unicode="&#xfcc0;" arabic-form="initial" 
d="M1214 665l-3 6l-211 211v63q-3 31 -33 34q-12 0 -24 -12l-235 -214h-415q-70 -3 -109 -60l-171 -172q-16 -21 -12.5 -46.5t27.5 -43.5q36 -25 72 0l66 60v-380h193v256h319v-256h193v332q3 54 39 90l90 90l130 -63q15 -9 30 -9q30 3 49.5 22.5t19.5 46.5t-15 45z" />
    <glyph glyph-name="dots-horizontal-circle" unicode="&#xfcc1;" arabic-form="initial" 
d="M614 1160q263 -6 436 -179t179 -436q-6 -263 -179 -436t-436 -179q-262 6 -435 179t-179 436q6 263 179 436t435 179zM614 637q-40 0 -66 -26t-26 -66t26 -66t66.5 -26t66.5 26t26 66t-26 66t-67 26zM277 637q-40 0 -66 -26t-26 -66t26 -66t64.5 -26t64.5 26t26 66
t-26 66t-63 26zM952 637q-37 0 -63 -26t-26 -66t26 -66t64.5 -26t64.5 26t26 66t-26 66t-66 26z" />
    <glyph glyph-name="dots-vertical-circle" unicode="&#xfcc2;" arabic-form="initial" 
d="M0 545q6 263 179 436t435 179q263 -6 436 -179t179 -436q-6 -263 -179 -436t-436 -179q-262 6 -435 179t-179 436zM522 545q0 -40 26 -66t66.5 -26t66.5 26t26 66t-26 66t-66.5 26t-66.5 -26t-26 -66zM522 207q0 -40 26 -66t66.5 -26t66.5 26t26 65t-26 65t-66.5 26
t-66.5 -26t-26 -64zM522 883q0 -38 26 -64t66.5 -26t66.5 26t26 65t-26 65t-66.5 26t-66.5 -26t-26 -66z" />
    <glyph glyph-name="ear-hearing" unicode="&#xfcc3;" arabic-form="initial" 
d="M957 -29q-32 0 -54 12q-36 16 -63 51.5t-54 112t-70.5 121.5t-91.5 80q-42 32 -82 70.5t-78 102.5q-54 102 -54 202q3 147 99 243t243 96t241.5 -96t97.5 -243h138q-3 204 -137.5 338.5t-339.5 138.5q-208 -4 -341 -138.5t-139 -338.5q3 -135 74 -266q48 -83 99 -132.5
t94 -81.5t72 -62.5t45 -78.5q32 -93 75.5 -150.5t113.5 -93.5q51 -22 112 -22q115 3 192 80t80 192h-138q0 -57 -38 -95.5t-96 -41.5zM317 1158l-96 96q-103 -103 -162 -239t-59 -292.5t59 -292.5t162 -239l96 96q-87 84 -133 196t-46 240t48 240t131 195zM579 723
q3 -74 51.5 -122t120.5 -48t120 48t48 121.5t-48 121.5t-120 48t-120.5 -48t-51.5 -121z" />
    <glyph glyph-name="elephant" unicode="&#xfcc4;" arabic-form="initial" 
d="M1076 329q-3 -26 -30.5 -26t-29.5 26v432q-6 90 -79.5 152t-169.5 62h-522q-104 -3 -173 -72.5t-72 -172.5v-615h245v245h309v-245h245v277q3 26 30.5 26t30.5 -26v-92q3 -81 54.5 -133t131 -52t131.5 52t52 133v121h-153v-92z" />
    <glyph glyph-name="eventbrite" unicode="&#xfcc5;" arabic-form="initial" 
d="M1229 901q0 63 -36 112t-94 72q-95 18 -473 45t-450 30q-81 -8 -133 -72q-43 -55 -43 -124v-831q0 -49 20 -92t61 -72q52 -41 118 -39.5t410 30.5l427 35q78 5 135.5 58.5t57.5 131.5v716zM961 823q-6 -12 -12 -26q-14 -38 -55 -35h-173q-109 0 -150 3q-14 0 -17 -14
q-12 -64 -26 -130h237h20q26 -6 36 -17.5t7 -39t-19 -53.5t-47 -26h-251q-12 3 -15 -11l-29 -139v-9h329q38 3 52 -34q9 -32 -5.5 -61t-43.5 -46q-14 -3 -32 -6l-403 -5q-32 -3 -58 14q-29 26 -23 63q11 55 57.5 278.5t63.5 304.5q3 38 31.5 61t66.5 20l208 -3l196 -6
q72 -3 55 -83z" />
    <glyph glyph-name="food-croissant" unicode="&#xfcc6;" arabic-form="initial" 
d="M1229 145l-185 122l185 124v-246zM799 391l245 369l185 -245l-245 -185zM185 267l-185 -122v246zM430 391l-185 -61l-245 185l185 245zM739 945l245 -124l-309 -430h-121l-309 430l245 124h249z" />
    <glyph glyph-name="forklift" unicode="&#xfcc7;" arabic-form="initial" 
d="M245 1037v-433h-124q-52 0 -86.5 -34.5t-34.5 -86.5v-248q0 -78 52 -130t131.5 -52t131 52t54.5 130h121q3 -78 55 -130t131.5 -52t131.5 52t52 130v248l-246 554h-369zM923 973v-859h306v92h-213v767h-93zM338 945h227l202 -462h-429v462zM185 327q37 0 63 -26t26 -65
t-26 -65t-65 -26t-65 26t-26 65t26 65t67 26zM675 327q40 0 66 -26t26 -65t-26 -65t-64.5 -26t-64.5 26t-26 65t26 65t63 26z" />
    <glyph glyph-name="fuel" unicode="&#xfcc8;" arabic-form="initial" 
d="M0 1231h217q30 0 50 -21l153 -149l57 54q44 45 102 45h433q54 0 102 -45l71 -71q44 -47 44 -101v-938q-3 -61 -44 -103.5t-102 -42.5h-721q-61 0 -103 42.5t-42 103.5v792q0 58 44 102l54 57l-129 132h-186v143zM579 1014v-142h433v142h-433zM606 581l-142 145h-102v-101
l142 -146v-230l-142 -142v-102h102l142 142h230l146 -142h101v102l-145 142v230l145 146v101h-101l-146 -145h-230zM650 438h146v-145h-146v145z" />
    <glyph glyph-name="gesture" unicode="&#xfcc9;" arabic-form="initial" 
d="M118 891q34 38 66 63.5t48 19.5q25 -13 12.5 -45t-33 -60.5t-101.5 -161.5t-91 -264q0 -133 92 -203q38 -29 84 -36.5t94 7.5q54 16 103 65.5t103 122.5q64 79 138.5 152t138.5 80q79 -3 98 -41.5t19 -79.5q-187 -41 -274.5 -155.5t-86 -206.5t62 -151t152.5 -62
t192 87.5t129 328.5h165v169h-168q-3 92 -63.5 184t-209.5 98q-115 -3 -204 -69.5t-130 -120.5q-32 -42 -86 -105l-69 -80q-13 -15 -33.5 -36t-43 -21t-32 36.5t9.5 95.5t59 129t65 108q41 57 65 106t24 116q-7 108 -64 152.5t-108 41.5q-66 -3 -117 -35t-67 -51
q-35 -35 -57 -64zM746 100q-16 0 -31.5 13t-19.5 38q0 35 44.5 94t149.5 94q-16 -137 -60.5 -188t-82.5 -51z" />
    <glyph glyph-name="google-analytics" unicode="&#xfcca;" arabic-form="initial" 
d="M1091 1160q58 0 98 -40.5t40 -97.5v-954q0 -57 -40 -97.5t-98 -40.5h-272v1092q0 57 40 97.5t98 40.5h134zM138 -70q-58 0 -98 40.5t-40 97.5v135q0 57 40 97t98 40h272v272q0 58 40 98t97 40h237v-820h-646z" />
    <glyph glyph-name="google-assistant" unicode="&#xfccb;" arabic-form="initial" 
d="M369 1129q156 -3 260 -108t110 -261q-6 -156 -110 -261t-260 -108q-158 3 -262 108t-107 261q3 156 107 261t262 108zM1168 821q26 0 43.5 -17.5t17.5 -43.5t-17.5 -43.5t-43.5 -17.5t-43 17.5t-17 43.5t17 43.5t43 17.5zM952 699q66 -3 109.5 -46t43.5 -108t-43.5 -108
t-108 -43t-108 43t-43.5 108t43.5 108t106.5 46zM952 330q81 -3 133 -55t52 -131t-52 -131t-131.5 -52t-131.5 52t-52 131t52 131t130 55z" />
    <glyph glyph-name="headphones-off" unicode="&#xfccc;" arabic-form="initial" 
d="M567 1223q-242 -6 -401.5 -167t-165.5 -400v-443q0 -59 32 -104l346 346v74h-251v127q3 186 127 310t313 130q95 0 176 -35.5t143 -100.5l89 92q-80 79 -183.5 123.5t-224.5 47.5zM1149 1063l-1117 -1116l80 -80l157 157h109v109l378 378v-487h189q80 3 133.5 56
t55.5 133v443q0 103 -35 198l130 130zM999 753q8 -47 8 -97v-127h-233z" />
    <glyph glyph-name="high-definition" unicode="&#xfccd;" arabic-form="initial" 
d="M0 986h173v-354h178v354h177v-882h-177v354h-178v-354h-173v882zM701 986h264q116 -4 190 -78t74 -186v-354q0 -112 -74 -186t-190 -78h-264v882zM965 281q37 0 62 25t29 62v354q-4 37 -29 62t-62 25h-87v-528h87z" />
    <glyph glyph-name="home-assistant" unicode="&#xfcce;" arabic-form="initial" 
d="M1183 469h-104v-466h-409v193l164 164l41 -8q52 0 86 35t34 87t-34 86t-86 34t-86 -34t-37 -86l6 -41l-88 -90v319q30 17 48 45.5t18 63.5q-3 52 -37 86t-86 34t-86 -34t-36 -86q0 -35 17.5 -63.5t47.5 -45.5v-319l-87 90l5 41q-3 52 -37 86t-85.5 34t-85.5 -34t-34 -86
t34 -87t86 -35l40 8l164 -164v-193h-409v466h-101q-19 0 -32.5 1t-13.5 10.5t13.5 26t35.5 35.5l507 507q14 16 29 27t28.5 11t28.5 -11t28 -27l235 -231v57h114v-175l164 -160l32 -36q14 -16 14 -24.5t-13.5 -9.5t-32.5 -1zM352 526q21 0 36 -15t15 -37t-15 -37t-36.5 -15
t-36.5 15t-15 37t15 37t37 15zM875 526q22 0 37 -15t15 -37t-15 -37t-37 -15t-37 15t-15 37t15 37t37 15zM613 823q22 0 37 -15t15 -38t-15 -37t-37 -14t-37 14t-15 37t15 38t37 15z" />
    <glyph glyph-name="home-automation" unicode="&#xfccf;" arabic-form="initial" 
d="M614 1069l-614 -554h185v-494h859v494h185zM614 731q110 -3 204 -42t166 -108l-75 -75q-55 58 -131.5 89.5t-163 31.5t-163 -31.5t-131.5 -89.5l-75 75q72 69 166 108t203 42zM614 526q67 -3 123 -26t100 -66l-75 -72q-58 58 -147.5 58t-147.5 -58l-75 72q44 43 100 66
t122 26zM614 319q44 0 74 -29t30 -72.5t-30 -72t-73.5 -28.5t-73.5 28.5t-30 72t30 72.5t73 29z" />
    <glyph glyph-name="home-circle" unicode="&#xfcd0;" arabic-form="initial" 
d="M1048 979q-86 89 -198 135t-235.5 46t-235.5 -46t-199.5 -134t-133.5 -200t-46 -235t46 -235t133.5 -200t199.5 -134t235.5 -46t235.5 46t199.5 134t133.5 200t46 235t-46 235t-135 199zM922 545v-368h-216v308h-183v-308h-216v368h-120l427 428l460 -428h-152z" />
    <glyph glyph-name="language-go" unicode="&#xfcd1;" arabic-form="initial" 
d="M717 1183q29 0 49 -18t20 -46.5t-20 -48t-48.5 -19.5t-46.5 19.5t-18 48t18 46.5t46 18zM337 1165q29 0 47 -19.5t18 -48t-18 -46.5t-46.5 -18t-48.5 18t-20 46.5t20 48t48 19.5zM1055 1298q46 0 78.5 -32t32.5 -79t-25 -77.5t-69 -40.5l-7 -11q54 -169 52.5 -321.5
t-5.5 -162.5q47 -29 86 -57.5t29 -57.5q-22 -25 -65 -14.5t-46 14.5q14 -391 -38 -498.5t-63 -96.5q7 -4 34 -52.5t6 -80.5q-36 -22 -83 14t-54 43q-7 -3 -120 -37t-224 -38q-104 4 -183 38t-82 37q-47 -43 -92 -62.5t-63 5.5q-7 32 23.5 80.5t34.5 52.5q-119 89 -113.5 335
t16.5 278q-18 -18 -57.5 -38t-57.5 20q-3 43 52.5 68t62.5 25q-22 208 -16.5 328t20.5 174q-40 7 -63.5 37.5t-23.5 77.5t32.5 79t79.5 32q28 0 53 -11q65 47 171 75.5t235 32.5q122 -4 222 -29t169 -68q25 18 61 18zM786 1280q-65 0 -108 -44.5t-43 -109.5t43 -108
t107.5 -43t107.5 43t43 108t-43 109.5t-107 44.5zM402 1262q-65 -3 -108 -46t-43 -108t43 -108t107.5 -43t109.5 43t45 108t-45 108t-109 46zM603 896q-36 0 -59.5 -10.5t-23.5 -28.5t36 -29v-46q0 -18 18 -18h57q18 0 22 18v46q36 11 36 29t-23.5 28.5t-62.5 10.5z" />
    <glyph glyph-name="language-r" unicode="&#xfcd2;" arabic-form="initial" 
d="M614 1018q-259 -3 -433.5 -119.5t-180.5 -292.5q3 -153 144.5 -264t360.5 -140v-130h210v130q78 8 148 29l86 -159h237l-145 239q90 58 139 133t49 162q-6 176 -180.5 292.5t-434.5 119.5zM710 859q196 0 320 -69t127 -213q0 -81 -39 -136t-108 -89q-9 3 -15 8
q-17 9 -37 15l-20 6q11 -3 90.5 30t90.5 166q-11 132 -94.5 162.5t-95.5 24.5h-424v-441q-118 34 -190.5 100.5t-72.5 153.5q3 118 136 199t332 83zM718 614h127q3 0 29 -7t29 -50q-3 -44 -29 -54t-29 -7h-127v118zM715 343h58q15 0 26.5 -11.5t22.5 -28.5q-49 -9 -107 -9
v49z" />
    <glyph glyph-name="lava-lamp" unicode="&#xfcd3;" arabic-form="initial" 
d="M385 1569l-224 -1477h907l-224 1477h-459zM556 1254q37 0 61 -24t24 -58.5t-24 -58.5t-58.5 -24t-58.5 24t-24 58.5t24 58.5t56 24zM673 945q48 -5 80 -37t32 -80t-32 -80t-80 -32t-80 32t-32 80t32 80t80 37zM556 545q74 0 122 -48t48 -122.5t-48 -122.5t-120 -48
t-120 48t-48 122.5t48 122.5t118 48zM161 -26l224 -224l-224 -229h907l-224 229l224 224h-907z" />
    <glyph glyph-name="led-strip" unicode="&#xfcd4;" arabic-form="initial" 
d="M0 783l803 -805l50 47l94 -95l94 95l-94 94l94 94l94 -94l94 94l-94 94l47 50l-806 803zM188 783l188 188l618 -614l-191 -191zM282 783l94 -97l97 97l-97 94zM426 639l94 -94l94 94l-94 94zM567 498l95 -94l94 94l-94 94zM709 357l94 -94l94 94l-94 94z" />
    <glyph glyph-name="locker" unicode="&#xfcd5;" arabic-form="initial" 
d="M206 1568h817q86 0 146 -58t60 -144v-1642q0 -86 -60 -144t-146 -58h-817q-86 0 -146 58t-60 144v1642q0 86 60 144t146 58zM206 1366v-1642h817v1642h-817zM408 444h206v-413h-206v413zM408 1160h413v-154h-413v154zM408 852h413v-153h-413v153z" />
    <glyph glyph-name="locker-multiple" unicode="&#xfcd6;" arabic-form="initial" 
d="M112 1102h1005q47 0 78 -31.5t34 -78.5v-894q-3 -47 -34 -78.5t-78 -31.5h-1005q-47 0 -78 31.5t-34 78.5v894q3 47 34 78.5t78 31.5zM669 992v-894h448v894h-448zM112 992v-894h448v894h-448zM225 490h110v-225h-110v225zM225 880h222v-84h-222v84zM225 712h222v-83
h-222v83zM782 490h112v-225h-112v225zM782 880h222v-84h-222v84zM782 712h222v-83h-222v83z" />
    <glyph glyph-name="map-marker-outline" unicode="&#xfcd7;" arabic-form="initial" 
d="M614 1028q95 0 157 -62t62 -157t-62 -157t-156.5 -62t-156.5 62t-62 157t62 157t156 62zM614 1423q264 -4 437.5 -177t177.5 -437q-37 -375 -307 -744.5t-308 -397.5q-37 28 -307 397.5t-307 744.5q4 264 177.5 437t436.5 177zM614 1250q-185 -4 -311 -129.5t-130 -311.5
q-12 -58 56 -239.5t385 -614.5q318 433 386 614.5t56 239.5q-4 186 -130 311.5t-312 129.5z" />
    <glyph glyph-name="metronome" unicode="&#xfcd8;" arabic-form="initial" 
d="M573 1268l-245 -67l-321 -1205q-7 -14 -7 -34q3 -60 43.5 -100t100.5 -40h857q61 0 101 40t43 100q0 20 -6 34l-98 365l-110 -111l13 -73h-271l204 204l-100 100l-305 -304h-271l251 931h241l107 -389l114 117l-97 365zM519 1034v-697l107 108v589h-107zM1129 836
l-201 -204l-51 50l-100 -100l201 -201l100 100l-50 51l201 204z" />
    <glyph glyph-name="metronome-tick" unicode="&#xfcd9;" arabic-form="initial" 
d="M614 1321l-262 -72l-348 -1304l-4 -25q4 -65 47 -108t108 -43h919q65 0 108 43t47 108l-4 25l-348 1304zM485 1149h259l269 -999h-323v384h-151v-384h-323zM539 1070v-306h-79v-154h309v154h-79v306h-151z" />
    <glyph glyph-name="micro-sd" unicode="&#xfcda;" arabic-form="initial" 
d="M309 1310q-65 0 -109.5 -43t-44.5 -107v-540l-155 -150v-540q4 -64 47 -107t108 -43h919q65 0 108 43t47 107v1230q-4 64 -47 107t-108 43h-765zM385 1160h154v-310h-154v310zM614 1160h155v-310h-155v310zM844 1160h155v-310h-155v310z" />
    <glyph glyph-name="mixer" unicode="&#xfcdb;" arabic-form="initial" 
d="M225 1040l352 -475q14 -18 0 -38l-363 -487q-35 -38 -85.5 -39.5t-88 33.5t-40.5 82.5t26 90.5l254 340l-254 338q-29 40 -26 89t41 84l8 5q44 32 94 25t82 -48zM1004 1040q32 41 82 48t94 -25l8 -5q38 -35 41 -84t-26 -89l-254 -338l254 -340q29 -43 26 -90.5
t-40.5 -82.5t-88 -33.5t-85.5 39.5l-363 487q-14 20 0 38z" />
    <glyph glyph-name="movie-roll" unicode="&#xfcdc;" arabic-form="initial" 
d="M614 1160q263 -6 436 -179t179 -436q-6 -263 -179 -436t-436 -179q-262 6 -435 179t-179 436q6 263 179 436t435 179zM614 1038q-66 -3 -109 -46t-43 -108t43 -108t109.5 -43t109.5 43t43 108t-43 108t-110 46zM147 698q-20 -64 9 -118.5t91 -75t116.5 7t75 91t-8.5 117
t-91 73.5t-117 -7.5t-75 -87.5zM1082 698q-20 60 -75 87.5t-117 9t-91 -73.5t-8.5 -117t75 -91t116.5 -8.5t91 75t9 118.5zM326 147q55 -38 115.5 -27.5t98 63.5t29 113.5t-62 98t-114 29t-99.5 -62t-29 -114t62 -100.5zM903 147q52 40 62 100.5t-29 114t-99.5 62
t-112.5 -29t-62 -98t27.5 -113.5t99.5 -63.5t114 27.5zM614 637q-40 0 -66 -26t-26 -66t26 -66t66.5 -26t66.5 26t26 66t-26 66t-67 26z" />
    <glyph glyph-name="mushroom" unicode="&#xfcdd;" arabic-form="initial" 
d="M614 1160q263 -6 436 -179t179 -436q0 -52 -34.5 -86.5t-86.5 -37.5h-987q-52 3 -86.5 37.5t-34.5 86.5q6 263 179 436t435 179zM614 790q52 3 87 37.5t35 86.5t-35 86.5t-86.5 34.5t-86.5 -34.5t-35 -86.5t35 -86.5t86 -37.5zM923 545q52 0 86.5 36t34.5 88t-34.5 86.5
t-86.5 34.5t-88 -34.5t-36 -86.5t36 -88t88 -36zM306 545q52 0 88 36t36 88t-36 86.5t-88 34.5t-86.5 -34.5t-34.5 -86.5t34.5 -88t86.5 -36zM799 360l78 -274l6 -34q-3 -52 -37.5 -87t-86.5 -35h-289q-52 0 -86.5 35t-37.5 87l6 34l78 274h369z" />
    <glyph glyph-name="mushroom-outline" unicode="&#xfcde;" arabic-form="initial" 
d="M121 545h987q-3 176 -105.5 304.5t-263.5 171.5q-9 -46 -43.5 -76.5t-81 -30.5t-81 30.5t-43.5 76.5q-161 -43 -263.5 -171.5t-105.5 -304.5zM614 1160q263 -6 436 -179t179 -436q0 -52 -34.5 -86.5t-86.5 -37.5h-987q-52 3 -86.5 37.5t-34.5 86.5q6 263 179 436t435 179
zM707 236h-185l-52 -184h289zM799 360l61 -216l17 -58l6 -34q-3 -52 -37.5 -87t-86.5 -35h-289l-29 3q-52 15 -76.5 56.5t-12.5 93.5l78 277h369zM860 854q52 -3 88 -37.5t36 -86.5t-36 -87t-88 -35t-86.5 35t-34.5 87t34.5 86.5t86.5 37.5zM369 854q52 -3 86.5 -37.5
t34.5 -86.5t-34.5 -87t-86.5 -35t-88 35t-36 87t36 86.5t88 37.5z" />
    <glyph glyph-name="nintendo-switch" unicode="&#xfcdf;" arabic-form="medial" 
d="M493 29h-179q-89 2 -151 64.5t-65 151.5v600q3 89 65 151.5t151 64.5h179v-1032zM314 1160q-135 -3 -223 -91t-91 -224v-600q3 -136 91 -224t223 -91h280v1230h-280zM190 790q0 -49 33.5 -80.5t82.5 -31.5t82 31.5t33 80.5t-33 82.5t-82 33.5t-82.5 -33.5t-33.5 -82.5z
M961 606q52 0 86.5 -35t34.5 -88t-34.5 -88t-88 -35t-88 35t-34.5 88t34.5 88t89.5 35zM915 -70q135 3 223 91t91 224v600q-3 136 -91 224t-223 91h-200v-1230h200z" />
    <glyph glyph-name="null" unicode="&#xfce0;" arabic-form="medial" 
d="M614 1293q106 0 199 -40.5t170 -114.5l127 162l119 -91l-151 -190q63 -98 100 -217.5t37 -256.5q-7 -316 -175.5 -528.5t-425.5 -219.5q-105 0 -198 40.5t-170 114.5l-127 -162l-119 91l151 190q-63 98 -100 217.5t-37 256.5q7 316 175.5 528.5t424.5 219.5zM614 1145
q-189 -7 -317 -175.5t-132 -424.5q4 -197 84 -348l639 822q-115 123 -274 126zM614 -55q190 7 318 175.5t132 424.5q-4 197 -84 348l-639 -822q115 -123 273 -126z" />
    <glyph glyph-name="passport" unicode="&#xfce1;" arabic-form="medial" 
d="M155 1310q-65 0 -108 -43t-47 -107v-1230q4 -64 47 -107t108 -43h919q65 0 108 43t47 107v1230q-4 64 -47 107t-108 43h-919zM614 1080q162 -3 271.5 -111t113.5 -269q-4 -166 -113.5 -273.5t-271.5 -111.5q-161 4 -270.5 111.5t-113.5 273.5q4 161 113.5 269t270.5 111z
M614 1005q-46 -72 -71 -155h143q-21 83 -72 155zM514 987q-108 -36 -165 -137h111q22 72 54 137zM715 987q32 -65 54 -137h111q-57 97 -165 137zM316 775q-7 -36 -7 -75.5t7 -79.5h130q-4 40 -4 77.5t4 77.5h-130zM525 775q-8 -36 -8 -75.5t8 -79.5h179q4 40 4 79.5t-4 75.5
h-179zM783 775q4 -40 4 -77.5t-4 -77.5h130q7 40 7 79.5t-7 75.5h-130zM349 545q57 -97 165 -137q-32 65 -54 137h-111zM543 545q25 -83 71 -155q51 72 72 155h-143zM769 545q-22 -72 -54 -137q108 40 165 137h-111zM230 160h769v-150h-769v150z" />
    <glyph glyph-name="periodic-table-co2" unicode="&#xfce2;" arabic-form="medial" 
d="M142 932q-60 -3 -101 -42.5t-41 -99.5v-421q0 -60 41 -99.5t101 -42.5h211v142h-211v421h211v142h-211zM563 932q-59 -3 -100 -42.5t-41 -99.5v-421q0 -60 41 -99.5t100 -42.5h139q59 3 100 42.5t41 99.5v421q0 60 -41 99.5t-100 42.5h-139zM563 790h139v-421h-139v421z
M913 685v-105h211v-106h-106q-43 0 -72.5 -29.5t-32.5 -75.5v-211h316v105h-211v106h106q46 0 75.5 29.5t29.5 75.5v106q0 46 -29.5 75.5t-75.5 29.5h-211z" />
    <glyph glyph-name="pipe" unicode="&#xfce3;" arabic-form="medial" 
d="M1229 421h-121v-121h-369v184h121v122h-121v308q-3 52 -38 86.5t-87 37.5h-493v122h-121v-491h121v121h369v-184h-121v-122h121v-308q3 -52 38 -86.5t86 -37.5h494v-122h121v491z" />
    <glyph glyph-name="pipe-disconnected" unicode="&#xfce4;" arabic-form="medial" 
d="M860 730v-124h-491v124h121v60h-369v-121h-121v491h121v-122h493q52 -3 87 -37.5t38 -86.5v-184h121zM490 360v-184q3 -52 38 -86.5t86 -37.5h494v-122h121v491h-121v-121h-369v60h121v124h-491v-124h121z" />
    <glyph glyph-name="power-socket-eu" unicode="&#xfce5;" arabic-form="medial" 
d="M338 637q40 0 66 -26t26 -66t-26 -66t-66.5 -26t-66.5 26t-26 66t26 66t67 26zM891 637q41 0 67 -26t26 -66t-26 -66t-66.5 -26t-66.5 26t-26 66t26 66t66 26zM136 1160h957q58 0 97 -39t39 -97v-958q0 -58 -39 -97t-97 -39h-957q-58 0 -97 39t-39 97v958q0 58 39 97
t97 39zM614 1038q-210 -5 -348.5 -143.5t-144.5 -349.5q6 -211 144.5 -349.5t348.5 -143.5q211 5 349.5 143.5t144.5 349.5q-6 211 -144.5 349.5t-349.5 143.5z" />
    <glyph glyph-name="power-socket-uk" unicode="&#xfce6;" arabic-form="medial" 
d="M767 438h217v-138h-217v138zM245 438h217v-138h-217v138zM554 914h121v-245h-121v245zM136 1160q-58 0 -97 -39t-39 -97v-958q0 -58 39 -97t97 -39h957q58 0 97 39t39 97v958q0 58 -39 97t-97 39h-957zM614 1038q211 -5 349.5 -143.5t144.5 -349.5q-6 -211 -144.5 -349.5
t-349.5 -143.5q-210 5 -348.5 143.5t-144.5 349.5q6 211 144.5 349.5t348.5 143.5z" />
    <glyph glyph-name="power-socket-us" unicode="&#xfce7;" arabic-form="medial" 
d="M369 854h121v-309h-121v309zM136 1160h957q58 0 97 -39t39 -97v-958q0 -58 -39 -97t-97 -39h-957q-58 0 -97 39t-39 97v958q0 58 39 97t97 39zM614 1038q-210 -5 -348.5 -143.5t-144.5 -349.5q6 -211 144.5 -349.5t348.5 -143.5q211 5 349.5 143.5t144.5 349.5
q-6 211 -144.5 349.5t-349.5 143.5zM739 822h121v-245h-121v245zM522 282q0 41 26 67t66.5 26t66.5 -26t26 -67v-46h-185v46z" />
    <glyph glyph-name="rice" unicode="&#xfce8;" arabic-form="medial" 
d="M1229 590h-141q-15 52 -38 99.5t-55 84.5l211 335l-104 66l-199 -314q-17 14 -34.5 24.5t-37.5 18.5l55 222l-119 32l-49 -211q-52 12 -104 12q-173 -3 -301 -105.5t-172 -263.5h-141q3 -191 104 -339.5t265 -226.5v-109h491v109q164 78 265 226.5t104 339.5zM614 838
q122 -3 214 -71t130 -177h-687q38 109 130 177t213 71z" />
    <glyph glyph-name="ring" unicode="&#xfce9;" arabic-form="medial" 
d="M614 700l-305 427l122 183h367l122 -183zM884 944l-93 -129q129 -54 204.5 -165.5t78.5 -259.5q-3 -194 -134 -323t-326 -137q-194 8 -325 137t-134 323q3 148 78.5 259.5t204.5 165.5l-93 129q-155 -76 -248 -221.5t-97 -332.5q7 -258 179.5 -432.5t434.5 -177.5
q263 3 435.5 177.5t179.5 432.5q-4 187 -97 332.5t-248 221.5z" />
    <glyph glyph-name="sass" unicode="&#xfcea;" arabic-form="medial" 
d="M614 1160q263 -6 436 -179t179 -436q-6 -263 -179 -436t-436 -179q-262 6 -435 179t-179 436q6 263 179 436t435 179zM490 340q15 -49 0 -92l-2 -12l-3 -5q-12 -24 -29 -44q-29 -29 -60.5 -39t-47.5 0t-9 43.5t41.5 68t69.5 56t38 21.5zM1001 897q-26 84 -137 107
t-244 -23q-78 -26 -154.5 -68t-136.5 -100q-69 -66 -89.5 -119.5t-14.5 -76.5q23 -84 104 -144l135 -101q-20 -9 -87.5 -50.5t-99.5 -99.5q-23 -55 -7 -92.5t36 -43.5q63 -14 119.5 10.5t89.5 75t36 102.5t-14 86q37 12 95 6q78 -14 104 -49t21.5 -58t-16 -34.5t-20 -17
t-7.5 -10t10 -3t32 19t26 57.5q3 52 -42 94t-128 44q-70 -2 -98 -14l-3 6q-61 52 -126 102.5t-68 122.5q-5 29 36.5 93.5t209.5 154.5q147 66 246.5 60.5t122.5 -51.5q26 -67 -52 -150.5t-228 -106.5q-55 -3 -85 10t-39 22q-12 14 -14 11q-9 -9 -3.5 -22t24.5 -28.5
t48 -25.5t89.5 -9t143.5 30q93 38 147.5 118.5t37.5 164.5z" />
    <glyph glyph-name="send-secure" unicode="&#xfceb;" arabic-form="medial" 
d="M1174 293v29q-3 58 -42 97.5t-98 39.5t-98.5 -39.5t-41.5 -97.5v-29q-24 0 -39.5 -15.5t-15.5 -39.5v-225q0 -24 15.5 -39.5t39.5 -15.5h280q24 0 39.5 15.5t15.5 39.5v225q0 24 -15.5 39.5t-39.5 15.5zM1116 293h-167v29q2 34 25.5 57.5t59 23.5t59 -23.5t23.5 -57.5
v-29zM1174 629l-1174 -503v390l839 113l-839 113v390z" />
    <glyph glyph-name="soy-sauce" unicode="&#xfcec;" arabic-form="medial" 
d="M811 1001q0 53 10 91l19 63h63l91 254h81v154h-921v-154h81l91 -254h63q29 -48 29 -154q-24 -115 -209 -417.5t-209 -614.5v-207q5 -110 180 -172.5t434.5 -62.5t434.5 62.5t180 172.5v207q-24 312 -209 614.5t-209 417.5zM614 233q-86 0 -143.5 60t-57.5 146.5t57.5 144
t144 57.5t144 -57.5t57.5 -144t-57.5 -146.5t-144.5 -60z" />
    <glyph glyph-name="standard-definition" unicode="&#xfced;" arabic-form="medial" 
d="M701 986h264q116 -4 190 -78t74 -186v-354q0 -112 -74 -186t-190 -78h-264v882zM965 281q37 0 62 25t29 62v354q-4 37 -29 62t-62 25h-87v-528h87zM173 986h355v-177h-355v-177h178q74 0 123.5 -49.5t53.5 -124.5v-177q-4 -74 -53.5 -123.5t-123.5 -53.5h-351v177h351
v177h-178q-74 0 -123.5 49.5t-49.5 124.5v177q0 74 49.5 123.5t123.5 53.5z" />
    <glyph glyph-name="surround-sound-2-0" unicode="&#xfcee;" arabic-form="medial" 
d="M957 887h134q58 -3 98 -41.5t40 -95.5v-410q0 -57 -40 -95.5t-98 -41.5h-134q-58 3 -98 41.5t-40 95.5v410q0 57 40 95.5t98 41.5zM957 750v-410h134v410h-134zM410 203h-410v137l272 410h-272v137h272q58 -3 98 -41.5t40 -95.5q0 -45 -23 -77l-224 -333h247v-137z
M614 203q-28 3 -47.5 22t-19.5 48t19.5 48t48 19t48 -19t19.5 -48t-19.5 -48t-48.5 -22z" />
    <glyph glyph-name="surround-sound-3-1" unicode="&#xfcef;" arabic-form="medial" 
d="M690 160q-32 4 -54 25.5t-22 54t22 54t54 21.5t53.5 -21.5t21.5 -54t-21.5 -54t-53.5 -25.5zM1150 930v-615h79v-155h-309v155h79v460h-79l79 155h151zM0 930h309q65 -4 108 -47t43 -108v-460q0 -65 -43 -108t-108 -47h-309v155h309v155h-230v150h230v155h-309v155z" />
    <glyph glyph-name="surround-sound-5-1" unicode="&#xfcf0;" arabic-form="medial" 
d="M690 160q-32 4 -54 25.5t-22 54t22 54t54 21.5t53.5 -21.5t21.5 -54t-21.5 -54t-53.5 -25.5zM1150 930v-615h79v-155h-309v155h79v460h-79l79 155h151zM155 470q-65 0 -108 43t-47 107v310h460v-155h-305v-155h154q65 0 108 -43t43 -107v-155q0 -65 -43 -108t-108 -47
h-309v155h309v155h-154z" />
    <glyph glyph-name="surround-sound-7-1" unicode="&#xfcf1;" arabic-form="medial" 
d="M614 104q-37 4 -61.5 28.5t-24.5 62t24.5 62t62 24.5t62 -24.5t24.5 -62t-24.5 -62t-62.5 -28.5zM1142 986v-705h87v-177h-351v177h87v528h-87l87 177h177zM528 986l-264 -882h-177l210 705h-297v177h528z" />
    <glyph glyph-name="television-classic" unicode="&#xfcf2;" arabic-form="medial" 
d="M378 1099l-87 -87l159 -158h-329q-52 -3 -86.5 -37.5t-34.5 -86.5v-615q0 -55 34.5 -89.5t86.5 -34.5h987q52 0 86.5 34.5t34.5 89.5v615q0 52 -34.5 86.5t-86.5 37.5h-329l159 158l-87 87l-237 -237zM121 730h802v-615h-802v615zM1076 730q26 0 43.5 -17.5t17.5 -43.5
t-17.5 -43.5t-43.5 -17.5t-43 17.5t-17 43.5t17 43.5t43 17.5zM1076 545q26 0 43.5 -17.5t17.5 -43.5t-17.5 -43t-43.5 -17t-43 17t-17 43t17 43.5t43 17.5z" />
    <glyph glyph-name="textbox-password" unicode="&#xfcf3;" arabic-form="medial" 
d="M923 854h306v-618h-306v-121q0 -26 17.5 -43t43.5 -20h124v-122h-156q-26 0 -57.5 17.5t-34.5 43.5q-3 -26 -33.5 -43.5t-59.5 -17.5h-153v122h125q26 3 43 20t17 43v860q0 26 -17 43t-43 20h-125v122h153q29 0 59.5 -17.5t33.5 -43.5q3 26 34.5 43.5t57.5 17.5h156v-122
h-124q-26 -3 -43.5 -20t-17.5 -43v-121zM0 854h675v-124h-554v-370h554v-124h-675v618zM1108 360v370h-185v-370h185zM398 545q0 40 -26 66t-65 26t-65 -26t-26 -66t26 -66t65 -26t65 26t26 66zM675 614q-29 26 -65 23t-63.5 -31.5t-24.5 -64.5t30.5 -62t62 -26t60.5 23v138
z" />
    <glyph glyph-name="thought-bubble" unicode="&#xfcf4;" arabic-form="medial" 
d="M92 145q38 -2 64 -28t26 -65t-26 -65t-65 -26t-65 26t-26 65t26 65t66 28zM398 330q66 -3 109.5 -46t43.5 -108t-43.5 -108.5t-108 -43.5t-108 43.5t-43.5 108.5t43.5 108t106.5 46zM767 391q-54 0 -102 21.5t-82 61.5q-35 -40 -81 -61.5t-104 -21.5q-92 3 -157 57.5
t-85 144.5q-69 26 -112.5 88t-43.5 140q3 106 72 175.5t173 72.5q23 0 46 -6q70 63 171 66q54 0 102 -21.5t82 -61.5q35 40 81 61.5t104 21.5q92 -3 157 -57.5t85 -144.5q69 -26 112.5 -88t43.5 -140q-3 -106 -72 -175.5t-173 -72.5l-46 6q-70 -63 -171 -66z" />
    <glyph glyph-name="thought-bubble-outline" unicode="&#xfcf5;" arabic-form="isolated" 
d="M92 145q38 -2 64 -28t26 -65t-26 -65t-65 -26t-65 26t-26 65t26 65t66 28zM398 330q66 -3 109.5 -46t43.5 -108t-43.5 -108.5t-108 -43.5t-108 43.5t-43.5 108.5t43.5 108t106.5 46zM767 391q-54 0 -102 21.5t-82 61.5q-35 -40 -81 -61.5t-104 -21.5q-92 3 -157 57.5
t-85 144.5q-69 26 -112.5 88t-43.5 140q3 106 72 175.5t173 72.5l46 -6q70 63 171 66q54 0 102 -21.5t82 -61.5q35 40 81 61.5t104 21.5q92 -3 157 -57.5t85 -144.5q69 -26 112.5 -88t43.5 -140q-3 -106 -72 -175.5t-173 -72.5l-46 6q-70 -63 -171 -66zM245 945
q-52 0 -86.5 -36.5t-34.5 -88t34.5 -86.5t86.5 -35q32 0 58 12q-26 -32 -26 -75q0 -52 34.5 -86.5t89.5 -34.5t89 40l93 104l92 -104q38 -40 92 -40q49 0 82.5 28.5t41.5 75.5q35 -41 93 -44q52 0 86.5 36t34.5 88t-34.5 87t-86.5 35q-32 0 -58 -12q26 32 26 75
q0 52 -34.5 86.5t-89.5 34.5t-89 -40l-96 -104l-89 104q-35 40 -92 40q-49 0 -82.5 -29t-41.5 -75q-35 41 -93 44zM398 238q-26 -3 -43 -20.5t-17 -43.5t17 -43t43 -17t43.5 17t17.5 43t-17.5 43.5t-43.5 20.5z" />
    <glyph glyph-name="trackpad" unicode="&#xfcf6;" arabic-form="isolated" 
d="M121 1099h987q52 0 86.5 -36t34.5 -88v-860q0 -52 -34.5 -88t-86.5 -36h-987q-52 0 -86.5 36t-34.5 88v860q0 52 34.5 88t86.5 36zM121 975v-491h987v491h-987zM121 115h433v245h-433v-245zM1108 115v245h-433v-245h433z" />
    <glyph glyph-name="ultra-high-definition" unicode="&#xfcf7;" arabic-form="isolated" 
d="M447 825h113v-225h109v225h113v-560h-113v225h-109v-225h-113v560zM894 825h168q70 -3 117 -50t50 -118v-224q-3 -71 -50 -118t-117 -50h-168v560zM1062 378q23 0 39 15.5t16 39.5v224q0 24 -16 39.5t-39 15.5h-58v-334h58zM335 433q0 -71 -47 -118t-119 -47t-119 47
t-50 118v392h112v-392q0 -24 16 -39.5t39.5 -15.5t39 15.5t18.5 39.5v392h110v-392z" />
    <glyph glyph-name="van-passenger" unicode="&#xfcf8;" arabic-form="isolated" 
d="M112 907q-47 -2 -78 -33.5t-34 -78.5v-447h112q3 -71 50 -118t117.5 -47t118 47t49.5 118h335q2 -71 49.5 -118t118 -47t117.5 47t50 118h112v224q-3 48 -34 79t-78 31l-168 225h-837zM112 823h223v-141h-223v141zM447 823h222v-141h-222v141zM782 823h138l110 -141h-248
v141zM280 431q36 0 59.5 -23.5t23.5 -58.5t-23.5 -58.5t-60 -23.5t-60 23.5t-23.5 58.5t23.5 58.5t60.5 23.5zM949 431q37 0 60.5 -23.5t23.5 -58.5t-23.5 -58.5t-60 -23.5t-60 23.5t-23.5 58.5t23.5 58.5t59.5 23.5z" />
    <glyph glyph-name="van-utility" unicode="&#xfcf9;" arabic-form="isolated" 
d="M112 907q-47 -2 -78 -33.5t-34 -78.5v-447h112q3 -71 50 -118t117.5 -47t118 47t49.5 118h335q2 -71 49.5 -118t118 -47t117.5 47t50 118h112v224q-3 48 -34 79t-78 31l-168 225h-837zM782 823h138l110 -141h-248v141zM280 431q36 0 59.5 -23.5t23.5 -58.5t-23.5 -58.5
t-60 -23.5t-60 23.5t-23.5 58.5t23.5 58.5t60.5 23.5zM949 431q37 0 60.5 -23.5t23.5 -58.5t-23.5 -58.5t-60 -23.5t-60 23.5t-23.5 58.5t23.5 58.5t59.5 23.5z" />
    <glyph glyph-name="vanish" unicode="&#xfcfa;" arabic-form="isolated" 
d="M887 478v134h342v-134h-342zM807 833l195 195l96 -96l-195 -195zM547 273h135v-343h-135v343zM547 1160h135v-343h-135v343zM131 158l195 195l96 -96l-195 -195zM131 932l96 96l195 -195l-96 -96zM342 478h-342v134h342v-134zM1098 158l-96 -96l-195 195l96 96z" />
    <glyph glyph-name="video-3d" unicode="&#xfcfb;" arabic-form="isolated" 
d="M0 986h351q74 -4 123.5 -53.5t53.5 -123.5v-528q-4 -74 -53.5 -123.5t-123.5 -53.5h-351v177h351v177h-264v174h264v177h-351v177zM701 986h264q116 -4 190 -78t74 -186v-354q0 -112 -74 -186t-190 -78h-264v882zM965 281q37 0 62 25t29 62v354q-4 37 -29 62t-62 25h-87
v-528h87z" />
    <glyph glyph-name="wall" unicode="&#xfcfc;" arabic-form="isolated" 
d="M61 330h553v-309h-553v309zM0 699h369v-308h-369v308zM430 699h369v-308h-369v308zM860 699h369v-308h-369v308zM675 330h493v-309h-493v309zM61 1069h493v-309h-493v309zM614 1069h554v-309h-554v309z" />
    <glyph glyph-name="xmpp" unicode="&#xfcfd;" arabic-form="isolated" 
d="M614 303q-106 109 -174 262t-71 318l-369 124q9 -263 166 -462t359 -317q-110 -81 -219 -84v-61q58 0 137 23.5t171 72.5q93 -49 172 -72.5t137 -23.5v61q-109 3 -219 84q202 118 359 317t166 462l-369 -124q0 -165 -69.5 -318t-176.5 -262z" />
    <glyph glyph-name="account-multiple-plus-outline" unicode="&#xfcfe;" arabic-form="isolated" 
d="M691 903q-77 0 -127 -52t-50 -127.5t50 -126t127 -52.5q58 0 104 34q43 -34 100 -34q77 2 127.5 52.5t50.5 126t-50.5 127.5t-127.5 52q-57 0 -100 -34q-44 34 -104 34zM691 826q44 0 72.5 -29t28.5 -72t-28.5 -73t-72 -30t-72.5 30t-29 73t29 72t72 29zM895 826
q44 0 74 -29t30 -72t-30 -73t-74 -30q-26 0 -50 14q24 39 24 88t-24 90q24 12 50 12zM154 749v-154h-154v-100h154v-154h103v154h153v100h-153v154h-103zM691 495q-93 0 -207 -42t-126 -126v-140h871v140q-10 84 -125 126t-209 42q-43 0 -100 -12q-58 12 -104 12zM691 418
q99 -5 175.5 -36t81.5 -55v-63h-514v63q5 24 82 55t175 36zM977 408q74 -14 123.5 -38t51.5 -43v-63h-127v63q-2 48 -48 81z" />
    <glyph glyph-name="account-plus-outline" unicode="&#xfcff;" arabic-form="isolated" 
d="M782 992q-94 -2 -157 -65t-63 -158.5t63 -158t157 -62.5t157 62.5t63 158t-63 158.5t-157 65zM782 885q50 0 82.5 -34t32.5 -83.5t-32.5 -82.5t-82.5 -33t-82.5 33t-32.5 82.5t32.5 83.5t82.5 34zM167 825v-168h-167v-112h167v-167h113v167h167v112h-167v168h-113z
M782 490q-126 0 -279 -56t-168 -169v-167h894v167q-16 113 -169 169t-278 56zM782 383q131 -3 233 -44.5t107 -73.5v-60h-680v60q5 32 107 73.5t233 44.5z" />
    <glyph glyph-name="allo" unicode="&#xfd00;" arabic-form="isolated" 
d="M1229 546v-554q0 -46 -42 -59t-68 24l-95 130q-173 -156 -410 -156q-253 0 -433.5 180.5t-180.5 434.5t180.5 434t434 180t434 -180t180.5 -434z" />
    <glyph glyph-name="artist" unicode="&#xfd01;" arabic-form="isolated" 
d="M519 415q94 0 206 -28q-79 -85 -79 -197q0 -88 52 -164h-698v131q0 115 177.5 186.5t341.5 71.5zM1004 675h225v-130h-127v-355q0 -67 -49 -115.5t-115.5 -48.5t-113.5 48.5t-47 115.5t47 114t114 47q30 0 66 -15v339zM519 545q-106 0 -183.5 76t-77.5 182t77.5 183.5
t183.5 77.5t182 -77.5t76 -183.5t-76 -182t-182 -76z" />
    <glyph glyph-name="atlassian" unicode="&#xfd02;" arabic-form="isolated" 
d="M364 591q-9 12 -23.5 15t-23 -4.5t-14.5 -15.5l-299 -603q-12 -31 14 -49q9 -5 17 -2h421q20 0 32 17q66 150 31.5 330t-155.5 312zM586 1142q-116 -182 -127.5 -388t80.5 -399l202 -406q12 -17 32 -17h420q32 2 35 34q3 9 -3 17l-285 568q-248 498 -294 591
q-6 11 -19 15.5t-24.5 -1.5t-16.5 -14z" />
    <glyph glyph-name="azure" unicode="&#xfd03;" arabic-form="isolated" 
d="M678 1024l-398 -851l-280 3l312 539zM721 955l508 -889h-938l572 104l-300 355z" />
    <glyph glyph-name="basketball" unicode="&#xfd04;" arabic-form="isolated" 
d="M20 383q55 21 116 21q124 0 216 -78l-193 -194q-98 113 -139 251zM834 681q182 -136 392 -67q3 -20 3 -69q0 -95 -43.5 -212t-106.5 -189l-389 389zM415 259q99 -141 41 -308q-133 37 -231 118zM626 470l390 -389q-202 -176 -471 -148q20 61 20 133q0 58 -25.5 134.5
t-60.5 125.5zM418 392q-86 75 -198.5 96.5t-216.5 -12.5q-3 20 -3 69q0 95 43.5 212t106.5 189l410 -413zM834 808q-124 152 -58 331q58 -14 131.5 -56t119.5 -82zM1209 707q-55 -21 -116 -21q-101 0 -193 61l191 187q80 -101 118 -227zM626 600l-413 409q202 176 471 148
q-20 -61 -20 -130t30 -153t73 -133z" />
    <glyph glyph-name="battery-charging-wireless" unicode="&#xfd05;" arabic-form="isolated" 
d="M642 1014h-115v115h-351v-115h-118q-25 -3 -41.5 -19.5t-16.5 -40.5v-936q0 -24 16.5 -40.5t41.5 -16.5h584q25 0 41.5 16.5t18.5 40.5v936q-2 24 -18.5 40.5t-41.5 19.5zM1056 959l-82 -82q137 -145 137 -332t-137 -332l82 -82q173 181 173 414t-173 414zM892 792
l-83 -82q69 -72 69 -165t-69 -165l83 -82q101 107 101 247t-101 247z" />
    <glyph glyph-name="battery-charging-wireless-10" unicode="&#xfd06;" arabic-form="isolated" 
d="M1056 959l-82 -82q137 -145 137 -332t-137 -332l82 -82q173 181 173 414t-173 414zM892 792l-83 -82q69 -72 69 -165t-69 -165l83 -82q101 107 101 247t-101 247zM642 1014h-115v115h-351v-115h-118q-25 -3 -41.5 -19.5t-16.5 -40.5v-936q0 -24 16.5 -40.5t41.5 -16.5
h584q25 0 41.5 16.5t18.5 40.5v936q-2 24 -18.5 40.5t-41.5 19.5zM584 164h-469v732h469v-732z" />
    <glyph glyph-name="battery-charging-wireless-20" unicode="&#xfd07;" arabic-form="isolated" 
d="M1056 959l-82 -82q137 -145 137 -332t-137 -332l82 -82q173 181 173 414t-173 414zM892 792l-83 -82q69 -72 69 -165t-69 -165l83 -82q101 107 101 247t-101 247zM642 1014h-115v115h-351v-115h-118q-25 -3 -41.5 -19.5t-16.5 -40.5v-936q0 -24 16.5 -40.5t41.5 -16.5
h584q25 0 41.5 16.5t18.5 40.5v936q-2 24 -18.5 40.5t-41.5 19.5zM584 251h-469v645h469v-645z" />
    <glyph glyph-name="battery-charging-wireless-30" unicode="&#xfd08;" arabic-form="isolated" 
d="M1056 959l-82 -82q137 -145 137 -332t-137 -332l82 -82q173 181 173 414t-173 414zM892 792l-83 -82q69 -72 69 -165t-69 -165l83 -82q101 107 101 247t-101 247zM642 1014h-115v115h-351v-115h-118q-25 -3 -41.5 -19.5t-16.5 -40.5v-936q0 -24 16.5 -40.5t41.5 -16.5
h584q25 0 41.5 16.5t18.5 40.5v936q-2 24 -18.5 40.5t-41.5 19.5zM584 312h-469v584h469v-584z" />
    <glyph glyph-name="battery-charging-wireless-40" unicode="&#xfd09;" arabic-form="isolated" 
d="M1056 959l-82 -82q137 -145 137 -332t-137 -332l82 -82q173 181 173 414t-173 414zM892 792l-83 -82q69 -72 69 -165t-69 -165l83 -82q101 107 101 247t-101 247zM642 1014h-115v115h-351v-115h-118q-25 -3 -41.5 -19.5t-16.5 -40.5v-936q0 -24 16.5 -40.5t41.5 -16.5
h584q25 0 41.5 16.5t18.5 40.5v936q-2 24 -18.5 40.5t-41.5 19.5zM584 400h-469v496h469v-496z" />
    <glyph glyph-name="battery-charging-wireless-50" unicode="&#xfd0a;" arabic-form="isolated" 
d="M1056 959l-82 -82q137 -145 137 -332t-137 -332l82 -82q173 181 173 414t-173 414zM892 792l-83 -82q69 -72 69 -165t-69 -165l83 -82q101 107 101 247t-101 247zM642 1014h-115v115h-351v-115h-118q-25 -3 -41.5 -19.5t-16.5 -40.5v-936q0 -24 16.5 -40.5t41.5 -16.5
h584q25 0 41.5 16.5t18.5 40.5v936q-2 24 -18.5 40.5t-41.5 19.5zM584 487h-469v409h469v-409z" />
    <glyph glyph-name="battery-charging-wireless-60" unicode="&#xfd0b;" arabic-form="isolated" 
d="M1056 959l-82 -82q137 -145 137 -332t-137 -332l82 -82q173 181 173 414t-173 414zM892 792l-83 -82q69 -72 69 -165t-69 -165l83 -82q101 107 101 247t-101 247zM642 1014h-115v115h-351v-115h-118q-25 -3 -41.5 -19.5t-16.5 -40.5v-936q0 -24 16.5 -40.5t41.5 -16.5
h584q25 0 41.5 16.5t18.5 40.5v936q-2 24 -18.5 40.5t-41.5 19.5zM584 570h-469v326h469v-326z" />
    <glyph glyph-name="battery-charging-wireless-70" unicode="&#xfd0c;" arabic-form="isolated" 
d="M1056 959l-82 -82q137 -145 137 -332t-137 -332l82 -82q173 181 173 414t-173 414zM892 792l-83 -82q69 -72 69 -165t-69 -165l83 -82q101 107 101 247t-101 247zM642 1014h-115v115h-351v-115h-118q-25 -3 -41.5 -19.5t-16.5 -40.5v-936q0 -24 16.5 -40.5t41.5 -16.5
h584q25 0 41.5 16.5t18.5 40.5v936q-2 24 -18.5 40.5t-41.5 19.5zM584 663h-469v233h469v-233z" />
    <glyph glyph-name="battery-charging-wireless-80" unicode="&#xfd0d;" arabic-form="isolated" 
d="M1056 959l-82 -82q137 -145 137 -332t-137 -332l82 -82q173 181 173 414t-173 414zM892 792l-83 -82q69 -72 69 -165t-69 -165l83 -82q101 107 101 247t-101 247zM642 1014h-115v115h-351v-115h-118q-25 -3 -41.5 -19.5t-16.5 -40.5v-936q0 -24 16.5 -40.5t41.5 -16.5
h584q25 0 41.5 16.5t18.5 40.5v936q-2 24 -18.5 40.5t-41.5 19.5zM584 721h-469v175h469v-175z" />
    <glyph glyph-name="battery-charging-wireless-90" unicode="&#xfd0e;" arabic-form="isolated" 
d="M1056 959l-82 -82q137 -145 137 -332t-137 -332l82 -82q173 181 173 414t-173 414zM892 792l-83 -82q69 -72 69 -165t-69 -165l83 -82q101 107 101 247t-101 247zM642 1014h-115v115h-351v-115h-118q-25 -3 -41.5 -19.5t-16.5 -40.5v-936q0 -24 16.5 -40.5t41.5 -16.5
h584q25 0 41.5 16.5t18.5 40.5v936q-2 24 -18.5 40.5t-41.5 19.5zM584 808h-469v88h469v-88z" />
    <glyph glyph-name="battery-charging-wireless-alert" unicode="&#xfd0f;" arabic-form="isolated" 
d="M642 1014h-115v115h-351v-115h-118q-25 -3 -41.5 -19.5t-16.5 -40.5v-936q0 -24 16.5 -40.5t41.5 -16.5h584q25 0 41.5 16.5t18.5 40.5v936q-2 24 -18.5 40.5t-41.5 19.5zM409 194h-118v118h118v-118zM409 427h-118v294h118v-294zM1056 959l-82 -82q137 -145 137 -332
t-137 -332l82 -82q173 181 173 414t-173 414zM892 792l-83 -82q69 -72 69 -165t-69 -165l83 -82q101 107 101 247t-101 247z" />
    <glyph glyph-name="battery-charging-wireless-outline" unicode="&#xfd10;" arabic-form="isolated" 
d="M1056 959l-82 -82q137 -145 137 -332t-137 -332l82 -82q173 181 173 414t-173 414zM892 792l-83 -82q69 -72 69 -165t-69 -165l83 -82q101 107 101 247t-101 247zM642 1014h-115v115h-351v-115h-118q-25 -3 -41.5 -19.5t-16.5 -40.5v-936q0 -24 16.5 -40.5t41.5 -16.5
h584q25 0 41.5 16.5t18.5 40.5v936q-2 24 -18.5 40.5t-41.5 19.5zM584 76h-469v820h469v-820z" />
    <glyph glyph-name="bitcoin" unicode="&#xfd11;" arabic-form="final" 
d="M0 1135h297v253h166v-253h127v253h170v-253q340 -28 373.5 -253.5t-164.5 -273.5q270 -27 260 -318t-469 -335v-253h-170v253h-127v-253h-166v253h-297l44 167h83q35 4 59 27.5t24 59.5v672q0 36 -24 59.5t-59 27.5h-127v167zM463 968v-340q24 -4 190 16t190 154
q-24 135 -190 156.5t-190 13.5zM463 501v-379q32 -4 233.5 25.5t233.5 164.5q-32 138 -233.5 167.5t-233.5 21.5z" />
    <glyph glyph-name="briefcase-outline" unicode="&#xfd12;" arabic-form="final" 
d="M1108 884q52 0 86.5 -36t34.5 -88v-675q0 -52 -34.5 -88t-86.5 -36h-987q-52 0 -86.5 36t-34.5 88v675q0 52 34.5 88t86.5 36h248v124q0 52 35 86.5t86 34.5h249q51 0 86 -34.5t35 -86.5v-124h248zM121 760v-675h987v675h-987zM739 884v124h-249v-124h249z" />
    <glyph glyph-name="cellphone-wireless" unicode="&#xfd13;" arabic-form="final" 
d="M1067 941q76 -76 119 -178.5t43 -217.5t-43 -217.5t-119 -178.5l-79 79q63 63 97 143t34 174t-34 174t-97 143zM909 781q45 -45 71 -105t26 -131t-26 -131t-71 -105l-78 79q63 63 63 157t-63 157zM671 658q47 -3 80 -34.5t33 -78.5t-33 -78.5t-80 -31.5t-78.5 31.5
t-31.5 78.5t31.5 78.5t78.5 34.5zM587 1161q60 -3 99.5 -42t41.5 -100v-251h-112v225h-503v-838h503v167h112v-251q-2 -61 -41.5 -100t-99.5 -42h-445q-61 3 -100 42t-42 100v948q3 61 42 100t100 42h445z" />
    <glyph glyph-name="clover" unicode="&#xfd14;" arabic-form="final" 
d="M614 594q153 136 231 225.5t78 175.5q-3 72 -50.5 118.5t-119.5 46.5q-84 0 -139 -61q-54 61 -141 61q-72 0 -118 -49.5t-49 -118.5q0 -83 78 -172.5t230 -225.5zM565 545q-135 153 -224.5 231t-176.5 78q-72 -3 -118 -50.5t-46 -120.5q0 -83 61 -138q-61 -55 -61 -141
q0 -72 49 -118.5t118 -49.5q84 0 173.5 78t224.5 231zM666 545q133 -153 222.5 -231t176.5 -78q72 3 118 50.5t46 120.5q0 83 -61 138q61 55 61 141q0 72 -49 118.5t-118 49.5q-84 0 -173.5 -78t-222.5 -231zM614 496q-152 -136 -230 -225.5t-78 -175.5q3 -72 50.5 -118.5
t119.5 -46.5q84 0 138 61q55 -61 142 -61q72 0 118 49.5t49 118.5q0 83 -78 172.5t-231 225.5z" />
    <glyph glyph-name="comment-question" unicode="&#xfd15;" arabic-form="final" 
d="M121 1160h987q52 0 86.5 -35t34.5 -87v-738q0 -52 -34.5 -88t-86.5 -36h-375l-228 -228q-20 -18 -43 -18h-32q-26 0 -43.5 17.5t-17.5 43.5v185h-248q-52 0 -86.5 36t-34.5 88v738q0 52 34.5 87t86.5 35zM626 946q-81 0 -133 -34.5t-46 -101.5h121q0 26 17.5 39t43.5 13
t43.5 -15.5t17.5 -41.5t-14.5 -46.5t-37.5 -34.5q-49 -29 -66.5 -50.5t-17.5 -67.5h121q0 26 8.5 41.5t31.5 30.5q44 20 71.5 53t27.5 74q0 63 -50.5 102t-137.5 39zM554 545v-124h121v124h-121z" />
    <glyph glyph-name="content-save-outline" unicode="&#xfd16;" arabic-form="final" 
d="M819 1022v-272h-681v-682h294q-42 39 -66 90t-24 115q4 115 80.5 192t192 77t192 -77t80.5 -192q0 -64 -24 -115t-66 -90h294v762l-192 192h-80zM138 887h544v135h-544v-135zM957 1160l272 -273v-819q0 -57 -40 -97.5t-98 -40.5h-953q-61 0 -99.5 40.5t-38.5 97.5v954
q0 57 40 97.5t98 40.5h819zM614 407q-57 0 -95.5 -38t-38.5 -96t38.5 -98t96 -40t96 40t38.5 98t-38.5 96t-96.5 38z" />
    <glyph glyph-name="delete-restore" unicode="&#xfd17;" arabic-form="final" 
d="M792 368h173l-351 354l-350 -354h173v-351h355v351zM87 986h1055v-1056q0 -70 -53.5 -123.5t-123.5 -53.5h-701q-70 0 -123.5 53.5t-53.5 123.5v1056zM1229 1250v-177h-1229v177h305l91 87h437l91 -87h305z" />
    <glyph glyph-name="door" unicode="&#xfd18;" arabic-form="final" 
d="M206 1467q-91 0 -148.5 -57.5t-57.5 -149.5v-1637h1229v1637q0 92 -57.5 149.5t-148.5 57.5h-817zM206 1260h817v-1430h-817v1430zM715 646v-202h207v202h-207z" />
    <glyph glyph-name="door-closed" unicode="&#xfd19;" arabic-form="final" 
d="M860 606h124v-122h-124v122zM614 1099h430q55 0 89.5 -34.5t34.5 -89.5v-860h61v-124h-1229v124h490v860q3 55 38 89.5t86 34.5zM614 975v-860h430v860h-430z" />
    <glyph glyph-name="door-open" unicode="&#xfd1a;" arabic-form="final" 
d="M614 1099q-51 0 -86 -34.5t-38 -89.5h-429v-860h-61v-124h1229v124h-61v860q0 55 -34.5 89.5t-89.5 34.5h-430zM614 975h430v-860h-430v860zM185 606h121v-122h-121v122z" />
    <glyph glyph-name="fan-off" unicode="&#xfd1b;" arabic-form="final" 
d="M645 1158q-133 -3 -182 -99.5t-17 -234.5l351 -351q41 -9 79.5 -32t61.5 -63q64 -112 171.5 -89t119.5 224q-9 167 -151.5 203t-320.5 -56q-29 38 -75 55q9 46 32 87.5t69 64.5q112 67 87.5 173.5t-225.5 117.5zM78 1037l-78 -78l150 -152q-58 0 -104 -56t-46 -174
q6 -164 148.5 -201.5t320.5 54.5q29 -38 75 -58q-9 -43 -32 -83t-66 -66q-112 -67 -89 -173.5t224 -117.5q107 0 160 64.5t53 168.5l234 -233l77 78z" />
    <glyph glyph-name="file-percent" unicode="&#xfd1c;" arabic-form="final" 
d="M769 1310l460 -460v-920q-4 -64 -47 -107t-108 -43h-919q-65 0 -108 43t-47 107v1230q4 64 47 107t108 43h614zM259 -70l585 590l-104 100l-585 -585zM690 775h424l-424 420v-420zM270 620q-51 0 -83 -32t-32 -80.5t32 -81t82.5 -32.5t83 32.5t32.5 81t-32.5 80.5
t-82.5 32zM729 160q-50 0 -82.5 -32t-32.5 -80.5t32.5 -81t83 -32.5t82.5 32.5t32 81t-32 80.5t-83 32z" />
    <glyph glyph-name="finance" unicode="&#xfd1d;" arabic-form="final" 
d="M43 480h263v-661h-263v661zM503 412h266v-593h-266v593zM967 743h262v-924h-262v924zM967 1271h262v-266h-65v130l-531 -531l-259 262l-303 -302l-71 71l374 370l259 -259l460 457h-126v68z" />
    <glyph glyph-name="flash-circle" unicode="&#xfd1e;" arabic-form="final" 
d="M583 52l300 600h-208v386l-306 -600h214v-386zM614 1160q254 0 434.5 -180.5t180.5 -434.5t-180.5 -434.5t-434 -180.5t-434 180.5t-180.5 434.5t180.5 434.5t433.5 180.5z" />
    <glyph glyph-name="floor-plan" unicode="&#xfd1f;" arabic-form="final" 
d="M477 1022v-339h-67v339h-272v-544h272v67h67v-342h-67v204h-272v-339h476v135h68v-135h409v135h138v-273h-1229v1230h1229v-820h-138v343h-409v-343h-68v410h477v272h-614z" />
    <glyph glyph-name="forum-outline" unicode="&#xfd20;" arabic-form="final" 
d="M121 1160q-52 0 -86.5 -35t-34.5 -87v-802l245 248h554q52 0 86.5 35t37.5 87v432q-3 52 -37.5 87t-86.5 35h-678zM121 1038h678v-432h-554l-124 -122v554zM1044 914v-124h64v-614l-124 124h-615v60h-124v-60q0 -52 36 -88t88 -36h615l245 -246v860q0 52 -34.5 88
t-86.5 36h-64z" />
    <glyph glyph-name="golf" unicode="&#xfd21;" arabic-form="final" 
d="M1121 112q47 0 77.5 -30.5t30.5 -78t-30.5 -78t-78 -30.5t-78 30.5t-30.5 78t30.5 78t78.5 30.5zM941 985l-433 -223v-654q156 -10 255.5 -47t103.5 -95q-4 -61 -125.5 -101.5t-306 -40.5t-306.5 40.5t-129 101.5q3 41 60.5 74.5t156.5 50.5v-125h145v1300z" />
    <glyph glyph-name="google-home" unicode="&#xfd22;" arabic-form="final" 
d="M248 932q-78 0 -91 14l-39 -567q74 -44 191.5 -72t340 -15t461.5 96l-74 876q-122 -122 -361 -227q-214 -91 -367 -105h-61zM240 1159q-96 -83 -81 -113.5t137 -17.5q153 13 345 96q130 57 226 122.5t131 109t26 63t-87 19.5q-157 0 -392 -100q-201 -87 -305 -179z
M1111 1451q9 -17 9 -39l109 -1338q0 -240 -165.5 -377t-446.5 -137t-449 141.5t-168 381.5l65 971q0 35 30.5 79t57.5 70l30 26q135 113 327 196q131 57 255 85t222 17t124 -76z" />
    <glyph glyph-name="guy-fawkes-mask" unicode="&#xfd23;" arabic-form="final" 
d="M1229 478q-6 -263 -179 -435.5t-436 -179.5q-262 7 -435 179.5t-179 435.5l3 582q135 80 290 123.5t323 43.5t323.5 -42t289.5 -118v-589zM682 4q179 29 292.5 158.5t116.5 315.5v505q-217 106 -473 109q-263 -3 -487 -115l7 -499q3 -186 116.5 -315.5t292.5 -158.5v131
h135v-131zM547 273h-205l-137 205l205 -71h67l70 71h135l70 -71h67l205 71l-137 -205h-205l-68 67zM205 747q67 67 169.5 67t172.5 -67q-70 -64 -172.5 -64t-169.5 64zM682 747q67 67 169.5 67t172.5 -67q-70 -64 -172.5 -64t-169.5 64z" />
    <glyph glyph-name="home-account" unicode="&#xfd24;" arabic-form="final" 
d="M614 1069l-614 -554h185v-494h859v494h185zM614 714q58 0 97 -39t39 -98t-39 -98t-96.5 -39t-96.5 39t-39 98t39 98t96 39zM614 330q78 0 173.5 -34.5t103.5 -103.5v-47h-553v47q8 69 103.5 103.5t172.5 34.5z" />
    <glyph glyph-name="home-heart" unicode="&#xfd25;" arabic-form="final" 
d="M0 515l614 554l615 -554h-185v-494h-859v494h-185zM614 145l44 41q121 107 191.5 189t73.5 166q-3 72 -50.5 119.5t-119.5 50.5q-40 0 -76.5 -17.5t-62.5 -48.5q-25 31 -61.5 48.5t-76.5 17.5q-72 -3 -119.5 -50.5t-50.5 -119.5q3 -84 73.5 -166t191.5 -189z" />
    <glyph glyph-name="hot-tub" unicode="&#xfd26;" arabic-form="final" 
d="M306 1069q52 -3 88 -38t36 -86.5t-36 -86.5t-88 -35t-86.5 35t-34.5 86.5t34.5 86.5t86.5 38zM563 575h666v-493q0 -52 -34.5 -86.5t-86.5 -34.5h-987q-52 0 -86.5 34.5t-34.5 86.5v493h185v46q0 61 39 100t99 39v0q32 0 58 -11.5t46 -34.5l84 -95q23 -24 52 -44zM306 82
v369h-121v-369h121zM554 82v369h-124v-369h124zM799 82v369h-124v-369h124zM1044 82v369h-121v-369h121zM1024 953q46 -46 68 -105t13 -123l-6 -26h-115l6 35q11 75 -41 136l-6 2q-46 49 -67.5 108.5t-12.5 122.5l5 26h116l-6 -37q-12 -75 40 -136zM779 953
q46 -46 67.5 -105t10.5 -123l-3 -26h-115l5 35q12 75 -43 136l-3 2q-49 49 -69 108.5t-12 122.5l3 26h119l-6 -37q-15 -75 40 -136z" />
    <glyph glyph-name="hulu" unicode="&#xfd27;" arabic-form="final" 
d="M1229 480v-753h-392v661q-4 46 -34.5 76.5t-72.5 30.5h-238q-46 0 -75 -30.5t-33 -76.5v-661h-384v1636h392v-522q38 15 77 15h391q158 -4 261.5 -111.5t107.5 -264.5z" />
    <glyph glyph-name="ice-cream" unicode="&#xfd28;" arabic-form="final" 
d="M614 1568q173 -5 288.5 -120.5t120.5 -292.5q91 -20 148.5 -89.5t57.5 -160.5q-5 -110 -77 -182t-177 -77h-721q-105 5 -177 77t-77 182q0 91 57.5 160.5t148.5 94.5q5 172 120.5 287.5t287.5 120.5zM307 545h615l-207 -1023h-201z" />
    <glyph glyph-name="image-off" unicode="&#xfd29;" arabic-form="final" 
d="M81 1160l-81 -78l124 -124v-780q0 -52 36 -88t88 -36h780l123 -124l78 81zM236 1160l993 -993v869q0 54 -36 89t-88 35h-869zM461 515l155 -184l60 77l167 -170h-595z" />
    <glyph glyph-name="karate" unicode="&#xfd2a;" arabic-form="final" 
d="M1079 1213q-49 28 -98 14t-78.5 -63t-15.5 -98t61.5 -78t98 -15.5t79.5 62.5t15.5 98t-62.5 80zM1229 686l-169 -291l-113 64l113 196l-101 86l-205 -355v-528h-132v561l-622 362l64 113l509 -294l159 270l-419 153l49 123l456 -166q37 -15 74 -34l55 -33q34 -19 64 -46z
" />
    <glyph glyph-name="ladybug" unicode="&#xfd2b;" arabic-form="final" 
d="M614 1038q87 0 166 -21l126 219q14 25 44.5 34t59.5 -7t36 -46.5t-11 -59.5l-115 -198q144 -86 226 -226h-1063q82 140 226 226l-115 198q-18 29 -11 59.5t36 46.5t59.5 7t44.5 -34l126 -219q79 21 165 21zM1229 428q-7 -248 -161.5 -417t-395.5 -194v801h525
q32 -90 32 -190zM0 428q0 100 32 190h525v-801q-241 25 -395.5 194t-161.5 417z" />
    <glyph glyph-name="notebook" unicode="&#xfd2c;" arabic-form="final" 
d="M0 887v135h138v70q0 58 38 96.5t96 38.5h410v-477l173 102l169 -102v477h67q58 0 96.5 -40t41.5 -95v-1094q-3 -55 -41.5 -95t-96.5 -40h-819q-54 0 -94 40t-40 95v70h-138v135h138v275h-138v134h138v275h-138zM272 612h-134v-134h134v134zM272 887v135h-134v-135h134z
M272 68v135h-134v-135h134z" />
    <glyph glyph-name="phone-return" unicode="&#xfd2d;" arabic-form="initial" 
d="M1229 937v-342h-102v240h-384l166 -167l-74 -73l-288 291l288 291l74 -74l-166 -166h486zM397 761q29 29 16 67q-39 122 -39 247q0 28 -19 47.5t-48 19.5h-240q-29 0 -48 -19.5t-19 -47.5q13 -493 341 -821t821 -341q29 0 48 19t19 48v240q0 29 -19 48t-48 19
q-125 0 -243 39q-42 13 -71 -16l-150 -151q-144 77 -259.5 190.5t-188.5 261.5z" />
    <glyph glyph-name="poker-chip" unicode="&#xfd2e;" arabic-form="initial" 
d="M1229 545q-8 -261 -180.5 -434t-434.5 -181q-261 8 -433.5 181t-180.5 434q8 261 180.5 434t433.5 181q262 -8 434.5 -181t180.5 -434zM669 987q92 -11 169 -55t132 -118l97 58q-71 97 -173 157t-225 73v-115zM162 872l97 -58q55 74 132 118t169 55v115
q-123 -13 -225 -73t-173 -157zM107 318l97 54q-37 84 -37 173t37 173l-97 54q-49 -109 -49 -227t49 -227zM560 103q-92 11 -169 55t-132 118l-97 -58q71 -97 173 -157t225 -73v115zM1067 218l-97 58q-55 -74 -132 -118t-169 -55v-112q121 13 224 71.5t174 155.5zM1122 318
q49 109 49 227t-49 227l-97 -54q37 -84 37 -173t-37 -173zM782 545l-168 280l-167 -280l167 -280z" />
    <glyph glyph-name="shape" unicode="&#xfd2f;" arabic-form="initial" 
d="M520 446v-520h-520v520h520zM584 1191l356 -584h-712zM940 480q125 -3 207 -85.5t82 -207t-82 -206.5t-207 -82t-207 82t-82 206.5t82 207t207 85.5z" />
    <glyph glyph-name="shape-outline" unicode="&#xfd30;" arabic-form="initial" 
d="M520 446v-520h-520v520h520zM389 315h-258v-258h258v258zM584 1191l356 -584h-712zM584 942l-125 -204h250zM940 480q125 -3 207 -85.5t82 -207t-82 -206.5t-207 -82t-207 82t-82 206.5t82 207t207 85.5zM940 349q-67 -3 -112.5 -49t-45.5 -114t45.5 -114t114 -46t114 46
t45.5 114t-45.5 114t-115.5 49z" />
    <glyph glyph-name="ship-wheel" unicode="&#xfd31;" arabic-form="initial" 
d="M55 600l113 -5q13 97 59 176t122 134l-63 97q-13 21 -6.5 43.5t27.5 34t42 5t34 -27.5l53 -100q81 34 178.5 34t178.5 -34l53 100q13 21 34 27.5t42 -5t27.5 -34t-6.5 -43.5l-63 -97q76 -55 122 -134t59 -176l113 5q23 0 39 -15.5t16 -39.5t-16 -39.5t-39 -15.5l-113 5
q-13 -97 -59 -176t-122 -134l63 -97q13 -21 6.5 -43.5t-27.5 -34t-42 -5t-34 27.5l-53 100q-81 -34 -178.5 -34t-178.5 34l-53 -100q-13 -21 -34 -27.5t-42 5t-27.5 34t6.5 43.5l63 97q-76 55 -122 134t-59 176l-113 -5q-23 0 -39 15.5t-16 39.5t16 39.5t39 15.5zM449 582
q13 52 53 86l-92 142q-53 -39 -86 -95.5t-43 -124.5zM614 713q27 0 50 -8l79 150q-60 26 -128.5 26t-128.5 -26l79 -150q23 8 49 8zM780 582l168 8q-10 68 -43 124.5t-86 95.5l-92 -142q40 -34 53 -86zM780 508q-13 -52 -53 -86l92 -142q53 39 86 95.5t43 124.5zM614 377
q-26 0 -49 8l-79 -150q60 -26 128.5 -26t128.5 26l-79 150q-23 -8 -50 -8zM449 508l-168 -8q10 -68 43 -124.5t86 -95.5l92 142q-40 34 -53 86z" />
    <glyph glyph-name="soccer-field" unicode="&#xfd32;" arabic-form="initial" 
d="M121 1038q-52 -3 -86.5 -37.5t-34.5 -86.5v-738q0 -52 34.5 -86.5t86.5 -37.5h987q52 3 86.5 37.5t34.5 86.5v738q0 52 -34.5 86.5t-86.5 37.5h-987zM121 914h433v-130q-84 -23 -134.5 -87.5t-50.5 -151.5t50.5 -151.5t134.5 -87.5v-130h-433v124h185v490h-185v124z
M675 914h433v-124h-185v-490h185v-124h-433v130q84 23 134.5 87.5t50.5 151.5t-50.5 151.5t-134.5 87.5v130zM121 669h64v-248h-64v248zM1044 669h64v-248h-64v248zM675 652q29 -18 46.5 -45t17.5 -62t-17.5 -62t-46.5 -45v214zM554 652v-214q-29 18 -46.5 45t-17.5 62
t17.5 62t46.5 45z" />
    <glyph glyph-name="table-column" unicode="&#xfd33;" arabic-form="initial" 
d="M206 1568h817q86 0 146 -58t60 -144v-1642q0 -86 -60 -144t-146 -58h-817q-86 0 -146 58t-60 144v1642q0 86 60 144t146 58zM206 751v-412h817v412h-817zM206 137v-413h817v413h-817zM206 1366v-413h817v413h-817z" />
    <glyph glyph-name="table-of-contents" unicode="&#xfd34;" arabic-form="medial" 
d="M0 750h957v137h-957v-137zM0 478h957v134h-957v-134zM0 203h957v137h-957v-137zM1091 203h138v137h-138v-137zM1091 887v-137h138v137h-138zM1091 478h138v134h-138v-134z" />
    <glyph glyph-name="table-row" unicode="&#xfd35;" arabic-form="medial" 
d="M1229 421q0 -52 -34.5 -86.5t-86.5 -34.5h-987q-52 0 -86.5 34.5t-34.5 86.5v248q0 52 34.5 86.5t86.5 34.5h987q52 0 86.5 -34.5t34.5 -86.5v-248zM121 421h248v248h-248v-248zM490 421h249v248h-249v-248zM860 421h248v248h-248v-248z" />
    <glyph glyph-name="table-settings" unicode="&#xfd36;" arabic-form="medial" 
d="M272 -1h138v-137h-138v137zM547 -1h135v-137h-135v137zM819 -1h138v-137h-138v137zM138 1228h953q58 -3 98 -41.5t40 -95.5v-820q0 -57 -40 -95.5t-98 -41.5h-953q-58 3 -98 41.5t-40 95.5v820q0 57 40 95.5t98 41.5zM138 953v-272h409v272h-409zM682 953v-272h409v272
h-409zM138 543v-272h409v272h-409zM682 543v-272h409v272h-409z" />
    <glyph glyph-name="television-box" unicode="&#xfd37;" arabic-form="medial" 
d="M138 1160h953q58 0 98 -40.5t40 -97.5v-954q0 -57 -40 -97.5t-98 -40.5h-953q-58 0 -98 40.5t-40 97.5v954q0 57 40 97.5t98 40.5zM887 273l204 544h-169l-103 -307l-102 307h-579v-134h204v-410h135v410h121l154 -410h135z" />
    <glyph glyph-name="television-classic-off" unicode="&#xfd38;" arabic-form="medial" 
d="M0 1022l78 78l1090 -1090l-77 -81l-125 124h-845q-52 0 -86.5 34.5t-34.5 89.5v615q0 46 30.5 80.5t76.5 43.5zM378 1161l236 -237l237 237l87 -87l-159 -158h329q52 -3 86.5 -37.5t34.5 -86.5v-615q0 -32 -14 -58l-292 292v381h-381l-124 124h32l-159 158zM121 792v-615
h724l-617 615h-107zM1076 792q-26 0 -43 -17.5t-17 -43.5t17 -43.5t43 -17.5t43.5 17.5t17.5 43.5t-17.5 43.5t-43.5 17.5zM1076 607q-26 0 -43 -17.5t-17 -43.5t17 -43t43 -17t43.5 17t17.5 43t-17.5 43.5t-43.5 17.5z" />
    <glyph glyph-name="television-off" unicode="&#xfd39;" arabic-form="medial" 
d="M0 1035l69 69l1050 -1049l-69 -69l-164 163h-41v-110h-435v110h-274q-46 0 -77 31t-33 77v655q2 41 25 70zM1119 257v655h-720l-110 111h830q46 0 76.5 -32t33.5 -79v-655q-3 -33 -22 -61.5t-50 -40.5l-102 102h64zM136 257h640l-640 643v-643z" />
    <glyph glyph-name="towing" unicode="&#xfd3a;" arabic-form="medial" 
d="M782 657h301l-186 223h-115v-223zM920 182q34 0 59 24.5t25 58.5t-25 59t-59 25t-58.5 -25t-24.5 -59t24.5 -58.5t58.5 -24.5zM280 182q36 0 59.5 24.5t23.5 58.5t-23.5 59t-60 25t-60 -25t-23.5 -59t23.5 -58.5t60.5 -24.5zM949 992l280 -335v-392h-141
q0 -68 -50 -117.5t-118 -49.5t-117.5 49.5t-49.5 117.5h-306q0 -68 -49.5 -117.5t-117.5 -49.5t-118 49.5t-50 117.5h-112v225h458l-346 272v-162h-112v335h58l611 -338v395h280z" />
    <glyph glyph-name="upload-multiple" unicode="&#xfd3b;" arabic-form="medial" 
d="M351 322v528h-351l614 619l615 -619h-351v-528h-527zM0 -28v177h1229v-177h-1229zM1229 -206h-1229v-173h1229v173z" />
    <glyph glyph-name="video-4k-box" unicode="&#xfd3c;" arabic-form="final" 
d="M138 1160h953q58 0 98 -40.5t40 -97.5v-954q0 -57 -40 -97.5t-98 -40.5h-953q-58 0 -98 40.5t-40 97.5v954q0 57 40 97.5t98 40.5zM1031 340l-138 205l138 205h-119l-134 -205v205h-103v-410h103v205l134 -205h119zM605 443v102h-67v205h-103v-205h-102v205h-103v-307
h205v-103h103v103h67z" />
    <glyph glyph-name="video-input-antenna" unicode="&#xfd3d;" arabic-form="isolated" 
d="M614 918q-167 -3 -277 -113t-112 -277h110q2 118 82 197.5t197 82.5q118 -3 198 -82.5t82 -197.5h110q-2 167 -112 277t-278 113zM669 400q40 18 62 51t22 77q0 60 -39 99.5t-99.5 39.5t-99.5 -39.5t-39 -99.5q0 -42 22 -76t62 -52v-183l-191 -191l78 -79l167 168
l168 -168l78 79l-191 191v183zM614 1143q-261 -8 -433.5 -181t-180.5 -434h112q6 214 147 355.5t355 146.5q215 -5 356 -146.5t147 -355.5h112q-8 261 -180.5 434t-434.5 181z" />
    <glyph glyph-name=".notdef" 
d="M127 0v750h770v-750h-770zM768 621h-512v-492h512v492z" />
    <glyph glyph-name=".null" 
 />
    <glyph glyph-name="nonmarkingreturn" 
 />
    <glyph glyph-name="space" unicode=" " 
 />
    <glyph glyph-name="exclam" unicode="!" 
d="M689 397h-148l-24 951h196zM515 0v201h194v-201h-194z" />
    <glyph glyph-name="quotedbl" unicode="&#x22;" 
d="M908 845h-142l-40 639h224zM459 845h-141l-41 639h224z" />
    <glyph glyph-name="numbersign" unicode="#" 
d="M930 833l-67 -317h260v-108h-283l-88 -408h-110l86 408h-363l-84 -408h-110l84 408h-201v108h225l67 317h-241v108h263l89 408h110l-88 -408h363l88 408h110l-88 -408h211v-108h-233zM459 833l-69 -317h362l67 317h-360z" />
    <glyph glyph-name="dollar" unicode="$" 
d="M1150 380q0 -162 -120 -256.5t-344 -103.5v-161h-128v161q-422 14 -492 359l170 37q26 -126 106 -188.5t216 -69.5v489l-30 8q-168 41 -246.5 89.5t-115 116.5t-36.5 162q0 149 109.5 232.5t318.5 90.5v130h128v-130q186 -7 287 -79.5t146 -241.5l-174 -33
q-22 106 -86 160t-173 61v-426q172 -42 249 -78t123 -82t69 -106.5t23 -140.5zM302 1018q0 -57 23.5 -95.5t68.5 -64t164 -56.5v413q-126 -5 -191 -55.5t-65 -141.5zM978 383q0 66 -27.5 109t-77.5 71.5t-187 63.5v-471q144 9 218 67.5t74 159.5z" />
    <glyph glyph-name="glyph8" unicode="%" 
d="M221 0h-145l932 1353h147zM291 1361q283 0 283 -336q0 -167 -73 -254t-214 -87t-214 86t-73 255q0 167 70 251.5t221 84.5zM427 1025q0 119 -31.5 173.5t-105.5 54.5q-77 0 -110 -53t-33 -175q0 -116 33 -172t109 -56q71 0 104.5 55.5t33.5 172.5zM947 665
q283 0 283 -336q0 -167 -73 -254t-214 -87t-214 86t-73 255q0 167 70 251.5t221 84.5zM1083 329q0 119 -31.5 173.5t-105.5 54.5q-77 0 -110 -53t-33 -175q0 -116 33 -172t109 -56q71 0 104.5 55.5t33.5 172.5z" />
    <glyph glyph-name="ampersand" unicode="&#x26;" 
d="M1072 -12q-73 0 -143.5 35t-120.5 94q-153 -137 -347 -137q-199 0 -308.5 100t-109.5 278q0 268 292 419q-32 60 -53.5 136.5t-21.5 145.5q0 136 92.5 217t258.5 81q146 0 233.5 -72t87.5 -195q0 -75 -39.5 -133.5t-114 -109t-253.5 -125.5q132 -231 277 -389
q88 182 125 406l145 -43q-44 -236 -162 -462q43 -54 91.5 -79.5t88.5 -25.5q58 0 95 16v-135q-48 -22 -113 -22zM780 1085q0 70 -48 110.5t-124 40.5q-89 0 -144.5 -49t-55.5 -131q0 -110 61 -224q161 68 210 99.5t75 69t26 84.5zM706 217q-180 203 -316 441
q-179 -97 -179 -296q0 -115 69 -183t189 -68q64 0 126.5 27.5t110.5 78.5z" />
    <glyph glyph-name="quotesingle" unicode="'" 
d="M684 845h-141l-41 639h224z" />
    <glyph glyph-name="parenleft" unicode="(" 
d="M529 530q0 -275 85 -497t277 -458h-190q-192 236 -275.5 457.5t-83.5 499.5q0 273 82 492.5t277 459.5h190q-192 -236 -277 -458.5t-85 -495.5z" />
    <glyph glyph-name="parenright" unicode=")" 
d="M885 532q0 -280 -82.5 -500.5t-274.5 -456.5h-192q196 241 280 463.5t84 491.5q0 268 -84 490.5t-280 463.5h192q195 -240 276 -458t81 -494z" />
    <glyph glyph-name="glyph13" unicode="*" 
d="M671 1188l264 103l45 -132l-282 -73l185 -250l-119 -72l-150 258l-156 -256l-119 72l189 248l-280 73l45 134l267 -107l-12 297h136z" />
    <glyph glyph-name="glyph14" unicode="+" 
d="M687 608v-428h-147v428h-424v146h424v428h147v-428h424v-146h-424z" />
    <glyph glyph-name="comma" unicode="," 
d="M259 -363l169 662h265l-311 -662h-123z" />
    <glyph glyph-name="hyphen" unicode="-" 
d="M334 464v160h560v-160h-560z" />
    <glyph glyph-name="period" unicode="." 
d="M496 0v299h235v-299h-235z" />
    <glyph glyph-name="glyph18" unicode="/" 
d="M114 -20l821 1504h178l-817 -1504h-182z" />
    <glyph glyph-name="zero" unicode="0" 
d="M1103 675q0 -338 -124.5 -516.5t-367.5 -178.5t-365 177.5t-122 517.5q0 349 119 522t374 173q249 0 367.5 -174.5t118.5 -520.5zM920 675q0 290 -70.5 419.5t-232.5 129.5q-166 0 -238.5 -128t-72.5 -421q0 -285 73.5 -416.5t233.5 -131.5q159 0 233 135t74 413z
M496 555v249h235v-249h-235z" />
    <glyph glyph-name="one" unicode="1" 
d="M157 0v145h439v1021q-37 -78 -175.5 -136t-272.5 -58v148q148 0 279.5 65t183.5 164h166v-1204h353v-145h-973z" />
    <glyph glyph-name="two" unicode="2" 
d="M144 0v117q49 109 152.5 219.5t281.5 252.5q159 127 229 221t70 181q0 111 -69 171t-197 60q-114 0 -184.5 -62.5t-83.5 -175.5l-184 17q20 170 139 269.5t313 99.5q213 0 332 -96t119 -272q0 -115 -76 -229.5t-227 -234.5q-206 -164 -285.5 -241.5t-112.5 -150.5h723
v-146h-940z" />
    <glyph glyph-name="three" unicode="3" 
d="M1099 370q0 -186 -126 -288t-352 -102q-214 0 -342 97t-151 285l186 17q36 -250 307 -250q136 0 213.5 63t77.5 184q0 75 -45.5 126.5t-123.5 79t-175 27.5h-102v156h98q86 0 157.5 28.5t112.5 80.5t41 123q0 106 -66.5 165.5t-197.5 59.5q-119 0 -192.5 -61t-85.5 -172
l-181 14q20 173 143.5 270t317.5 97q212 0 329.5 -93.5t117.5 -260.5q0 -119 -79 -207t-216 -116v-4q151 -17 242.5 -106t91.5 -213z" />
    <glyph glyph-name="four" unicode="4" 
d="M937 319v-319h-180v319h-654v140l635 890h199v-888h188v-142h-188zM757 1154l-500 -693h500v693z" />
    <glyph glyph-name="five" unicode="5" 
d="M1099 444q0 -139 -59 -244t-172.5 -162.5t-268.5 -57.5q-197 0 -318 86t-153 249l182 21q57 -209 293 -209q141 0 225 84t84 229q0 124 -83 203t-222 79q-73 0 -136 -23t-126 -78h-176l47 728h801v-145h-635l-29 -425q117 90 291 90q204 0 329.5 -117.5t125.5 -307.5z
" />
    <glyph glyph-name="six" unicode="6" 
d="M1096 446q0 -212 -121.5 -339t-333.5 -127q-236 0 -363 172.5t-127 489.5q0 348 132 538t372 190q319 0 402 -287l-172 -31q-53 172 -232 172q-153 0 -238 -139t-85 -390q49 91 138 138.5t204 47.5q192 0 308 -118.5t116 -316.5zM913 438q0 144 -76.5 224t-207.5 80
q-74 0 -140 -33.5t-103.5 -93t-37.5 -134.5q0 -152 80.5 -254t206.5 -102q127 0 202.5 84t75.5 229z" />
    <glyph glyph-name="seven" unicode="7" 
d="M1069 1210q-473 -680 -473 -1210h-188q0 263 122.5 567.5t364.5 636.5h-737v145h911v-139z" />
    <glyph glyph-name="eight" unicode="8" 
d="M1094 378q0 -184 -124.5 -291t-355.5 -107q-226 0 -353.5 105t-127.5 291q0 129 79 219.5t202 111.5v4q-112 27 -180 114t-68 199q0 98 55.5 178t156.5 124t232 44q137 0 239 -44.5t156 -123.5t54 -180q0 -113 -69 -200t-181 -109v-4q130 -21 207.5 -109.5t77.5 -221.5z
M872 1012q0 111 -67.5 167.5t-194.5 56.5q-123 0 -191.5 -57t-68.5 -167q0 -111 69 -172t193 -61q260 0 260 233zM907 395q0 120 -78 184.5t-219 64.5q-136 0 -213.5 -69.5t-77.5 -183.5q0 -135 75.5 -205.5t221.5 -70.5q147 0 219 69t72 211z" />
    <glyph glyph-name="nine" unicode="9" 
d="M1087 703q0 -346 -133 -534.5t-377 -188.5q-165 0 -264.5 69.5t-142.5 224.5l172 27q54 -176 238 -176q154 0 240.5 139.5t88.5 385.5q-40 -90 -137 -144.5t-213 -54.5q-189 0 -303.5 127.5t-114.5 332.5q0 212 125.5 335.5t343.5 123.5q477 0 477 -667zM891 862
q0 161 -80 261.5t-207 100.5q-130 0 -205 -87t-75 -226q0 -143 75 -230.5t203 -87.5q76 0 143.5 34.5t106.5 96t39 138.5z" />
    <glyph glyph-name="colon" unicode=":" 
d="M496 0v299h235v-299h-235zM496 783v299h235v-299h-235z" />
    <glyph glyph-name="semicolon" unicode=";" 
d="M496 783v299h235v-299h-235zM352 -363l169 662h265l-311 -662h-123z" />
    <glyph glyph-name="less" unicode="&#x3c;" 
d="M116 571v205l995 418v-154l-858 -366l858 -367v-153z" />
    <glyph glyph-name="glyph32" unicode="=" 
d="M116 856v148h995v-148h-995zM116 344v148h995v-148h-995z" />
    <glyph glyph-name="greater" unicode="&#x3e;" 
d="M116 154v153l858 367l-858 366v154l995 -418v-205z" />
    <glyph glyph-name="glyph34" unicode="?" 
d="M1073 1002q0 -73 -22 -130t-63.5 -105.5t-133.5 -114.5q-110 -80 -145.5 -117t-56 -80t-21.5 -98h-175q2 70 24.5 125.5t62 102t134.5 117.5q107 78 140.5 115t53.5 79.5t20 97.5q0 109 -79.5 167.5t-215.5 58.5q-135 0 -219.5 -73t-98.5 -199l-184 12
q26 197 159.5 303.5t340.5 106.5q223 0 351 -96.5t128 -271.5zM448 0v201h195v-201h-195z" />
    <glyph glyph-name="glyph35" unicode="@" 
d="M1189 755q0 -298 -82.5 -474.5t-222.5 -176.5q-143 0 -143 157v8l2 30h-6q-34 -88 -95.5 -141.5t-139.5 -53.5q-106 0 -165.5 100t-59.5 285q0 161 48.5 304t132 225.5t186.5 82.5q71 0 116.5 -41.5t67.5 -131.5h5l32 151h116l-99 -507q-40 -210 -40 -278q0 -88 49 -88
q78 0 127.5 149t49.5 398q0 274 -109 444.5t-289 170.5q-148 0 -262 -107.5t-176 -302.5t-62 -444q0 -309 116 -494t318 -185q94 0 181 35t188 123l71 -87q-115 -99 -223 -144t-227 -45q-165 0 -290.5 97t-192.5 279.5t-67 420.5q0 286 77 507.5t220 342t331 120.5
q158 0 274.5 -90.5t179.5 -256t63 -382.5zM775 784q0 106 -35 160.5t-94 54.5q-63 0 -116 -66.5t-85.5 -188t-32.5 -253.5q0 -281 114 -281q74 0 133 95t87.5 252t28.5 227z" />
    <glyph glyph-name="A" unicode="A" 
d="M1034 0l-138 382h-563l-137 -382h-196l510 1349h217l501 -1349h-194zM616 1205l-12 -39l-69 -212l-151 -423h463l-173 500z" />
    <glyph glyph-name="B" unicode="B" 
d="M1152 380q0 -180 -137 -280t-381 -100h-472v1349h412q496 0 496 -327q0 -122 -72 -204t-196 -107q167 -18 258.5 -107t91.5 -224zM878 998q0 107 -75.5 152.5t-226.5 45.5h-223v-416h225q300 0 300 218zM959 397q0 114 -89 174t-265 60h-252v-478h266q175 0 257.5 60.5
t82.5 183.5z" />
    <glyph glyph-name="C" unicode="C" 
d="M314 681q0 -273 85.5 -409.5t261.5 -136.5q101 0 183 68.5t139 213.5l159 -65q-149 -372 -483 -372q-263 0 -404.5 181t-141.5 520q0 689 536 689q339 0 466 -335l-168 -65q-37 113 -115.5 178.5t-181.5 65.5q-171 0 -253.5 -129t-82.5 -404z" />
    <glyph glyph-name="D" unicode="D" 
d="M1125 688q0 -331 -153.5 -509.5t-439.5 -178.5h-370v1349h311q329 0 490.5 -164.5t161.5 -496.5zM933 688q0 264 -110 384.5t-349 120.5h-121v-1037h162q212 0 315 133t103 399z" />
    <glyph glyph-name="E" unicode="E" 
d="M162 0v1349h919v-156h-728v-422h668v-154h-668v-461h769v-156h-960z" />
    <glyph glyph-name="F" unicode="F" 
d="M385 1193v-494h676v-158h-676v-541h-191v1349h891v-156h-700z" />
    <glyph glyph-name="G" unicode="G" 
d="M1101 133q-229 -153 -462 -153q-250 0 -388 185.5t-138 515.5q0 347 132 518t397 171q346 0 461 -331l-171 -56q-80 231 -288 231q-169 0 -249.5 -126t-80.5 -407q0 -546 341 -546q68 0 141 21t119 53v336h-293v160h479v-572z" />
    <glyph glyph-name="H" unicode="H" 
d="M875 0v623h-522v-623h-191v1349h191v-566h522v566h191v-1349h-191z" />
    <glyph glyph-name="I" unicode="I" 
d="M202 1349h823v-156h-316v-1037h316v-156h-823v156h316v1037h-316v156z" />
    <glyph glyph-name="J" unicode="J" 
d="M986 420q0 -209 -105 -324.5t-295 -115.5q-171 0 -273 89t-137 281l187 31q18 -118 76.5 -182t147.5 -64q209 0 209 281v777h-311v156h501v-929z" />
    <glyph glyph-name="K" unicode="K" 
d="M1003 0l-487 638l-163 -169v-469h-191v1349h191v-673l572 673h225l-504 -572l581 -777h-224z" />
    <glyph glyph-name="L" unicode="L" 
d="M237 0v1349h191v-1193h672v-156h-863z" />
    <glyph glyph-name="M" unicode="M" 
d="M937 0v868q0 135 3 201l3 100q-64 -206 -95 -291l-164 -438h-137l-166 438q-18 46 -96 291l4 -301v-868h-160v1349h237l185 -489q21 -53 68 -231l26 90l44 140l185 490h225v-1349h-162z" />
    <glyph glyph-name="N" unicode="N" 
d="M836 0l-520 1130q16 -172 16 -254v-876h-170v1349h222l528 -1138q-18 144 -18 274v864h172v-1349h-230z" />
    <glyph glyph-name="O" unicode="O" 
d="M1126 681q0 -337 -132.5 -519t-380.5 -182q-249 0 -380 179t-131 522q0 337 130 513t383 176q247 0 379 -173.5t132 -515.5zM925 681q0 533 -310 533q-312 0 -312 -533q0 -270 79 -408t232 -138q163 0 237 140t74 406z" />
    <glyph glyph-name="P" unicode="P" 
d="M1119 945q0 -125 -59.5 -223t-170 -153t-255.5 -55h-281v-514h-191v1349h460q238 0 367.5 -106.5t129.5 -297.5zM927 942q0 254 -328 254h-246v-531h254q149 0 234.5 73t85.5 204z" />
    <glyph glyph-name="Q" unicode="Q" 
d="M1126 681q0 -290 -98.5 -465.5t-281.5 -219.5q41 -126 108 -183t168 -57q55 0 115 13v-134q-93 -22 -178 -22q-150 0 -247.5 84.5t-160.5 286.5q-219 22 -334 199.5t-115 497.5q0 337 130 513t383 176q247 0 379 -173.5t132 -515.5zM925 681q0 533 -310 533
q-312 0 -312 -533q0 -270 79 -408t232 -138q163 0 237 140t74 406z" />
    <glyph glyph-name="R" unicode="R" 
d="M957 0l-366 575h-238v-575h-191v1349h482q233 0 355 -96.5t122 -276.5q0 -149 -93.5 -251t-250.5 -128l400 -597h-220zM929 973q0 223 -304 223h-272v-470h280q143 0 219.5 64t76.5 183z" />
    <glyph glyph-name="S" unicode="S" 
d="M1128 370q0 -184 -134.5 -287t-383.5 -103q-457 0 -531 358l185 37q28 -129 116 -187.5t235 -58.5q159 0 241.5 62t82.5 176q0 70 -32.5 114t-85.5 72t-119.5 45.5t-134.5 34.5q-161 42 -229.5 75t-109.5 75.5t-62 97.5t-21 129q0 173 121.5 266.5t348.5 93.5
q212 0 324 -74t156 -250l-188 -33q-24 112 -96 162.5t-197 50.5q-283 0 -283 -213q0 -60 26.5 -97.5t72 -62t106 -40.5t129.5 -34q139 -35 200 -58.5t108.5 -53.5t81.5 -71t53.5 -96t19.5 -130z" />
    <glyph glyph-name="T" unicode="T" 
d="M709 1193v-1193h-190v1193h-443v156h1076v-156h-443z" />
    <glyph glyph-name="U" unicode="U" 
d="M1085 490q0 -267 -114 -388.5t-366 -121.5q-244 0 -353.5 117.5t-109.5 374.5v877h191v-851q0 -204 58.5 -283.5t212.5 -79.5q161 0 226 82t65 294v838h190v-859z" />
    <glyph glyph-name="V" unicode="V" 
d="M713 0h-198l-505 1349h201l320 -902q31 -86 84 -279q40 149 84 279l318 902h201z" />
    <glyph glyph-name="W" unicode="W" 
d="M1018 0h-208q-74 276 -112.5 420t-81.5 336q-29 -125 -53.5 -226t-143.5 -530h-208l-211 1349h189l109 -835q16 -131 33 -346q32 138 53.5 228t143.5 535h175q69 -253 108.5 -398t88.5 -365l35 346l104 835h189z" />
    <glyph glyph-name="X" unicode="X" 
d="M614 836l333 513h205l-435 -644l476 -705h-205l-374 573l-373 -573h-205l476 705l-435 644h205z" />
    <glyph glyph-name="Y" unicode="Y" 
d="M708 584v-584h-188v584l-484 765h205l374 -611l372 611h205z" />
    <glyph glyph-name="Z" unicode="Z" 
d="M1155 0h-1082v143l818 1050h-745v156h962v-139l-818 -1054h865v-156z" />
    <glyph glyph-name="bracketleft" unicode="[" 
d="M410 -425v1909h547v-139h-367v-1631h367v-139h-547z" />
    <glyph glyph-name="backslash" unicode="\" 
d="M932 -20l-817 1504h178l821 -1504h-182z" />
    <glyph glyph-name="bracketright" unicode="]" 
d="M270 -425v139h367v1631h-367v139h547v-1909h-547z" />
    <glyph glyph-name="asciicircum" unicode="^" 
d="M940 442l-329 803l-326 -803h-152l378 907h203l380 -907h-154z" />
    <glyph glyph-name="underscore" unicode="_" 
d="M0 -220v96h1238v-96h-1238z" />
    <glyph glyph-name="grave" unicode="`" 
d="M702 1201l-300 230v29h197l227 -239v-20h-124z" />
    <glyph glyph-name="a" unicode="a" 
d="M1101 111q26 0 59 7v-112q-68 -16 -139 -16q-100 0 -145.5 52.5t-51.5 164.5h-6q-65 -121 -153.5 -174t-218.5 -53q-158 0 -238 86t-80 236q0 349 454 354l236 4v59q0 131 -53 188.5t-169 57.5q-118 0 -170 -42t-62 -130l-188 17q46 292 423 292q200 0 300.5 -93.5
t100.5 -270.5v-466q0 -80 21 -120.5t80 -40.5zM492 117q96 0 170 46t115 123t41 159v89l-190 -4q-118 -2 -180 -26t-96.5 -73.5t-34.5 -131.5t44.5 -132t130.5 -50z" />
    <glyph glyph-name="b" unicode="b" 
d="M1090 546q0 -284 -101.5 -425t-290.5 -141q-244 0 -334 184h-2q0 -48 -3.5 -100t-5.5 -64h-174q6 54 6 223v1261h180v-423q0 -65 -4 -157h4q91 200 334 200q391 0 391 -558zM904 540q0 224 -61.5 324.5t-192.5 100.5q-149 0 -217 -109.5t-68 -331.5q0 -209 66 -310
t217 -101q135 0 195.5 104.5t60.5 322.5z" />
    <glyph glyph-name="c" unicode="c" 
d="M130 542q0 270 129 415t373 145q182 0 300 -87.5t146 -235.5l-192 -14q-16 91 -80 143.5t-182 52.5q-158 0 -231.5 -98t-73.5 -317q0 -222 73.5 -324.5t230.5 -102.5q108 0 179 53t88 162l190 -12q-13 -96 -72.5 -174.5t-157.5 -123t-219 -44.5q-245 0 -373 144t-128 418
z" />
    <glyph glyph-name="d" unicode="d" 
d="M862 174q-49 -105 -130 -152.5t-202 -47.5q-202 0 -297 139t-95 419q0 566 392 566q121 0 202.5 -43t130.5 -141h2l-2 151v419h180v-1261q0 -169 6 -223h-172q-4 15 -7 73t-3 101h-5zM324 538q0 -222 59.5 -323.5t193.5 -101.5q146 0 216 105.5t70 335.5q0 215 -67.5 313
t-216.5 98q-135 0 -195 -103t-60 -324z" />
    <glyph glyph-name="e" unicode="e" 
d="M322 503q0 -182 80.5 -285t220.5 -103q103 0 180.5 44.5t103.5 121.5l158 -45q-44 -124 -161.5 -190t-280.5 -66q-236 0 -363 147t-127 421q0 267 124.5 410.5t359.5 143.5t356 -143t121 -432v-24h-772zM619 969q-134 0 -212 -87.5t-83 -240.5h584q-28 328 -289 328z" />
    <glyph glyph-name="f" unicode="f" 
d="M580 940v-940h-180v940h-262v142h262v25q0 205 96.5 291t321.5 86q72 0 155.5 -6.5t125.5 -14.5v-145q-30 5 -121.5 11t-138.5 6q-104 0 -157 -23t-77.5 -75t-24.5 -145v-10h491v-142h-491z" />
    <glyph glyph-name="g" unicode="g" 
d="M615 -424q-168 0 -270 69t-130 198l184 25q17 -75 73.5 -115.5t148.5 -40.5q248 0 248 315v194h-2q-49 -103 -136 -156t-207 -53q-198 0 -289.5 129.5t-91.5 407.5q0 283 98 416.5t302 133.5q113 0 196.5 -52.5t128.5 -149.5h3q0 30 4 101.5t8 83.5h171q-6 -54 -6 -224
v-826q0 -227 -106 -341.5t-327 -114.5zM869 551q0 193 -75 303.5t-206 110.5q-137 0 -198 -95.5t-61 -318.5q0 -151 25.5 -238.5t79.5 -127.5t151 -40q85 0 149.5 47.5t99.5 139t35 219.5z" />
    <glyph glyph-name="h" unicode="h" 
d="M185 1484h181v-390q0 -59 -9 -197h3q105 205 339 205q350 0 350 -381v-721h-181v695q0 136 -52.5 202t-167.5 66q-124 0 -203.5 -90.5t-79.5 -245.5v-627h-180v1484z" />
    <glyph glyph-name="i" unicode="i" 
d="M745 142h380v-142h-982v142h422v798h-319v142h499v-940zM545 1292v192h200v-192h-200z" />
    <glyph glyph-name="j" unicode="j" 
d="M836 -28q0 -187 -112 -292t-319 -105q-79 0 -161 13t-127 30v140q150 -34 273 -34q128 0 197 66t69 185v965h-407v142h587v-1110zM636 1292v192h200v-192h-200z" />
    <glyph glyph-name="k" unicode="k" 
d="M914 0l-366 499l-132 -98v-401h-180v1484h180v-927l475 525h211l-439 -465l462 -617h-211z" />
    <glyph glyph-name="l" unicode="l" 
d="M736 142h380v-142h-982v142h422v1200h-289v142h469v-1342z" />
    <glyph glyph-name="m" unicode="m" 
d="M531 0v686q0 154 -24.5 215.5t-89.5 61.5q-64 0 -103.5 -96t-39.5 -260v-607h-169v851q0 189 -6 231h149l6 -127v-48h2q34 102 86 148.5t130 46.5q88 0 131.5 -48t62.5 -148h2q40 106 95.5 151t140.5 45q118 0 169 -86t51 -295v-721h-168v686q0 154 -24.5 215.5
t-89.5 61.5q-66 0 -104.5 -84t-38.5 -252v-627h-168z" />
    <glyph glyph-name="n" unicode="n" 
d="M868 0v695q0 136 -52.5 202t-167.5 66q-124 0 -203.5 -90.5t-79.5 -245.5v-627h-180v851q0 189 -6 231h170q1 -5 2 -27t2.5 -50.5t3.5 -107.5h3q105 205 346 205q173 0 258 -93.5t85 -287.5v-721h-181z" />
    <glyph glyph-name="o" unicode="o" 
d="M1097 542q0 -273 -125.5 -417.5t-362.5 -144.5q-232 0 -355.5 146t-123.5 416q0 279 126.5 419.5t358.5 140.5q244 0 363 -139t119 -421zM908 542q0 215 -68.5 321t-221.5 106q-155 0 -227 -108t-72 -319q0 -210 72 -319.5t216 -109.5q159 0 230 107t71 322z" />
    <glyph glyph-name="p" unicode="p" 
d="M1090 546q0 -566 -392 -566q-246 0 -331 184h-5q4 -8 4 -166v-423h-181v1283q0 170 -6 224h175q1 -4 3 -29.5t4.5 -75t2.5 -73.5h4q50 105 127.5 152.5t202.5 47.5q198 0 295 -136.5t97 -421.5zM904 546q0 226 -61 322.5t-192 96.5q-151 0 -218 -109.5t-67 -331.5
q0 -213 67 -312t216 -99q133 0 194 101t61 332z" />
    <glyph glyph-name="q" unicode="q" 
d="M529 1098q129 0 206 -44.5t126 -139.5h2q0 30 3.5 93.5t8.5 75.5h175q-6 -54 -6 -282v-1226h-181v439l4 168h-2q-53 -107 -132 -157.5t-203 -50.5q-202 0 -297 140.5t-95 417.5q0 566 391 566zM863 554q0 212 -68 311.5t-216 99.5q-134 0 -194.5 -102t-60.5 -325
q0 -221 61 -323t192 -102q147 0 216.5 109t69.5 332z" />
    <glyph glyph-name="r" unicode="r" 
d="M1045 918q-112 19 -212 19q-161 0 -260 -121t-99 -308v-508h-180v701q0 76 -13.5 179t-38.5 202h171q40 -138 48 -250h5q50 112 98 164.5t114 79t161 26.5q104 0 206 -17v-167z" />
    <glyph glyph-name="s" unicode="s" 
d="M1060 309q0 -154 -116.5 -241.5t-322.5 -87.5t-313.5 64.5t-140.5 203.5l159 31q19 -86 81.5 -125.5t213.5 -39.5q270 0 270 171q0 64 -49 103.5t-150 64.5q-264 65 -335 102t-109 92.5t-38 138.5q0 147 106 230t307 83q176 0 281 -66.5t131 -193.5l-162 -20
q-11 72 -71 109t-179 37q-245 0 -245 -151q0 -60 41.5 -96t133.5 -58l119 -31q163 -40 234.5 -79t112.5 -97.5t41 -143.5z" />
    <glyph glyph-name="t" unicode="t" 
d="M190 940v142h170l58 282h120v-282h432v-142h-432v-652q0 -79 42.5 -117t139.5 -38q134 0 297 34v-137q-169 -46 -335 -46q-162 0 -243 68.5t-81 216.5v671h-168z" />
    <glyph glyph-name="u" unicode="u" 
d="M365 1082v-686q0 -156 49 -216.5t175 -60.5q129 0 204 88t75 248v627h181v-851q0 -189 6 -231h-170q-1 5 -2 27t-2.5 50.5t-3.5 107.5h-3q-62 -112 -143.5 -158.5t-202.5 -46.5q-178 0 -260.5 88.5t-82.5 292.5v721h180z" />
    <glyph glyph-name="v" unicode="v" 
d="M715 0h-213l-433 1082h202l268 -704l17 -53l52 -184l35 117l39 118l276 706h201z" />
    <glyph glyph-name="w" unicode="w" 
d="M1018 0h-204l-143 471l-57 202l-39 -139l-168 -534h-203l-183 1082h178l93 -607q33 -264 33 -326q39 160 58 214l135 424h193l130 -425q32 -105 55 -213q0 30 4 75t10 92.5t12 90.5t9 68l101 607h176z" />
    <glyph glyph-name="glyph91" unicode="x" 
d="M932 0l-321 444l-323 -444h-194l415 556l-397 526h199l300 -421l298 421h201l-397 -524l420 -558h-201z" />
    <glyph glyph-name="y" unicode="y" 
d="M292 -425q-74 0 -124 11v135q38 -6 84 -6q79 0 148.5 59t117.5 188l18 49l-470 1071h192l264 -642q91 -224 98 -254l41 110l310 786h190l-456 -1082q-89 -235 -184.5 -330t-228.5 -95z" />
    <glyph glyph-name="z" unicode="z" 
d="M147 0v137l681 806h-641v139h844v-137l-682 -806h719v-139h-921z" />
    <glyph glyph-name="braceleft" unicode="{" 
d="M796 -425q-130 0 -212 84.5t-82 218.5v351q0 107 -73 167t-202 65v137q130 5 202.5 66t72.5 165v352q0 137 81 220t213 83h265v-139h-213q-91 0 -131 -44t-40 -151v-346q0 -98 -64 -172.5t-167 -99.5v-2q102 -24 166.5 -97.5t64.5 -176.5v-347q0 -106 40 -150.5
t131 -44.5h213v-139h-265z" />
    <glyph glyph-name="bar" unicode="|" 
d="M531 -425v1909h166v-1909h-166z" />
    </font>
</defs>
</svg>
