<?xml version="1.0" standalone="no"?>
<!DOCTYPE svg PUBLIC "-//W3C//DTD SVG 1.1//EN" "http://www.w3.org/Graphics/SVG/1.1/DTD/svg11.dtd" >
<svg xmlns="http://www.w3.org/2000/svg" xmlns:xlink="http://www.w3.org/1999/xlink" version="1.1">
<metadata>
Created by FontForge 20170731 at Tue Sep  6 01:39:40 2011
 By Aleksey,,,
vernon adams 2011
</metadata>
<defs>
<font id="Amatic" horiz-adv-x="752" >
  <font-face 
    font-family="Amatic"
    font-weight="700"
    font-stretch="normal"
    units-per-em="2048"
    panose-1="0 0 0 0 0 0 0 0 0 0"
    ascent="1638"
    descent="-410"
    x-height="1340"
    cap-height="1553"
    bbox="-483 -560 1530 2220"
    underline-thickness="102"
    underline-position="-306"
    unicode-range="U+0020-2212"
  />
<missing-glyph horiz-adv-x="748" 
d="M68 0v1365h544v-1365h-544zM136 68h408v1229h-408v-1229z" />
    <glyph glyph-name=".notdef" horiz-adv-x="748" 
d="M68 0v1365h544v-1365h-544zM136 68h408v1229h-408v-1229z" />
    <glyph glyph-name="glyph1" horiz-adv-x="0" 
 />
    <glyph glyph-name="glyph2" horiz-adv-x="682" 
 />
    <glyph glyph-name="space" unicode=" " horiz-adv-x="290" 
 />
    <glyph glyph-name="exclam" unicode="!" horiz-adv-x="345" 
d="M165 303q-30 0 -30 179q0 58 -0.5 172t-0.5 167q0 112 -8.5 336t-8.5 336q0 32 27 55.5t60 23.5q21 0 35.5 -14.5t14.5 -35.5q0 -164 -25.5 -490t-25.5 -489q0 -19 -2 -57t-2 -56q0 -127 -34 -127zM148 -38q-50 13 -78 71q0 35 25 63.5t60 28.5q39 0 61.5 -29t22.5 -70
q0 -72 -91 -78v14z" />
    <glyph glyph-name="quotedbl" unicode="&#x22;" horiz-adv-x="489" 
d="M103 1531q0 20 13 33.5t28 13.5q42 0 49 -53q0 -2 0.5 -7.5t0.5 -6.5q0 -89 -23.5 -203.5t-51.5 -114.5q-2 0 -6 64t-7 146t-3 128zM289 1531q0 20 19.5 33.5t41.5 13.5q25 0 34 -47q-3 -98 -20 -218t-39 -120q-9 0 -22.5 131t-13.5 207z" />
    <glyph glyph-name="numbersign" unicode="#" horiz-adv-x="795" 
d="M309 686q8 -1 25 -1q108 0 161 -4q20 178 21 271q-34 8 -92 8q-51 0 -83 -6q-26 -95 -32 -268zM424 -47q0 100 9.5 199t27.5 227t26 202q-45 4 -136 4h-50q-7 -42 -26 -218t-40 -301.5t-45 -145.5q-5 -4 -13 -4q-15 0 -30 14t-15 30q0 100 12 206t32 227.5t27 182.5
q-45 -5 -60 -5q-85 0 -85 66q0 46 96 46q14 0 35.5 -1t26.5 -1q19 109 31 267q-39 -3 -51 -3q-97 0 -97 59v43q10 0 46.5 -0.5t46.5 -0.5q32 0 63 3q4 35 18 125.5t20.5 155.5t6.5 127q0 5 -0.5 17.5t-0.5 19.5q0 33 10.5 53t42.5 20l36 -47q0 -80 -17 -233.5t-18 -228.5
q17 -4 52 -4h39q63 0 95 2q12 71 22 150.5t20.5 177.5t17.5 151q24 31 53 31q15 0 31.5 -12t16.5 -26q0 -33 -9.5 -102t-20 -129.5t-25.5 -141t-18 -99.5h66l43 -36q-4 -18 -9 -29.5t-16.5 -21.5t-28.5 -10h-67q-23 -106 -25 -261q4 0 11 0.5t10 0.5q85 0 85 -62
q0 -51 -77 -51h-6q-9 -102 -43 -307.5t-43 -317.5q-2 -23 -21 -38t-41 -15q-18 0 -29.5 11t-11.5 34z" />
    <glyph glyph-name="dollar" unicode="$" horiz-adv-x="542" 
d="M66 1286q0 70 27 141.5t86 90.5q-6 48 -6 66q0 57 31 57q11 -1 18 -4t11 -6.5t5.5 -13.5t2 -16.5t0.5 -23.5q0 -48 7 -48q36 0 78 -27q4 -5 21.5 -21t28.5 -27t21 -27t10 -28t-4 -23t-11.5 -17.5t-17.5 -6.5q-24 0 -44.5 15t-43 38t-40.5 34q0 -25 1.5 -73t1.5 -73
q0 -23 1 -48.5t2.5 -45.5t4 -48.5t4 -45.5t5 -49t4.5 -46q5 1 28.5 -47.5t55.5 -124t62.5 -156.5t52 -154t21.5 -107q0 -40 -10.5 -76.5t-27 -62t-37.5 -47t-40.5 -34.5t-38.5 -21q6 -109 6 -116q0 -80 -36 -80q-21 0 -30.5 18.5t-9.5 42.5v118q-89 0 -137.5 24.5
t-48.5 93.5q0 17 12.5 30t29.5 13q16 0 26.5 -11.5t21 -32.5t17.5 -30q2 0 15.5 -3.5t19.5 -3.5q8 0 23 2.5t21 2.5q-1 50 -8 190.5t-14 256.5l-8 115q-18 39 -47 94t-47.5 91.5t-37.5 84t-28.5 98.5t-9.5 108zM392 385q0 57 -15.5 126t-29 107.5t-36.5 98.5q-2 4 -3 6.5
t-2 5.5l-2 6q2 -62 12 -221t12 -245q64 54 64 116zM212 1084q-14 102 -24 334q-26 -25 -34 -57t-8 -75q0 -91 66 -202z" />
    <glyph glyph-name="percent" unicode="%" horiz-adv-x="1127" 
d="M267 700q-35 0 -64 13.5t-48.5 40t-34.5 55.5t-23.5 71.5t-14 74.5t-7.5 78t-2.5 69.5t-0.5 60.5q0 43 8 101.5t25 127t53 115t83 46.5q229 0 229 -406q0 -17 1 -60t1.5 -71.5t-2.5 -72.5t-9.5 -74t-21.5 -64.5t-37 -55.5t-56.5 -35t-78.5 -14zM841 2q-37 0 -66.5 29
t-47 71.5t-29 95t-15.5 95.5t-4 77q-3 39 -3 81.5t3 98.5t15.5 104.5t32 91t54 67.5t79.5 25q39 0 70.5 -14t51.5 -36t35 -57t22.5 -67.5t12 -78t5.5 -78.5t1 -78v-51q0 -64 -9 -123t-31 -119.5t-67.5 -97t-109.5 -36.5zM347 65q0 38 13.5 117t42 197.5t53.5 220.5t67 255.5
t62 228.5t59 213t39 140q1 31 16 65t42 34q22 0 37.5 -13.5t15.5 -35.5q0 -55 -33.5 -201t-82 -329t-58.5 -225q-70 -303 -192 -696q-8 -26 -29 -26q-17 0 -34.5 22t-17.5 33zM248 1449q-25 0 -51 -117t-26 -167q0 -22 1 -49.5t4 -72.5t9.5 -85t16 -77t26 -59t36.5 -22
q112 0 112 292q0 357 -128 357zM854 733q-28 0 -47.5 -48.5t-25 -111.5t-8 -123.5t3.5 -83.5q0 -44 22.5 -147t45.5 -103q113 0 113 270v48q0 299 -104 299z" />
    <glyph glyph-name="ampersand" unicode="&#x26;" horiz-adv-x="937" 
d="M277 969q-105 -172 -105 -399q0 -69 18 -131t65 -109t116 -47q31 0 77.5 17t66.5 38q-7 10 -31 34q-48 52 -84 122t-60.5 164.5t-35 150t-27.5 160.5zM815 902q58 -12 58 -54q0 -56 -113 -56h-51q0 -61 -5 -138q9 1 -3 -56.5t-34.5 -130.5t-41.5 -112q61 -63 130 -63
q14 0 41.5 3t41.5 3l38 -31q0 -41 -28.5 -54.5t-75.5 -13.5q-95 0 -197 77q-110 -78 -221 -78q-76 0 -141 52.5t-100 129.5t-35 154q0 85 10 155t37 144t48.5 120.5t68.5 141.5l15 30q0 45 -7 138.5t-7 142.5v170q0 33 6.5 65t27 59.5t52.5 27.5q58 0 114.5 -36t56.5 -92
q0 -18 -3 -52.5t-3 -51.5q0 -21 5 -44q-17 -38 -46.5 -130t-53.5 -138q-4 -8 -18 -29t-23 -38.5t-9 -30.5q0 -98 75.5 -351.5t130.5 -316.5q62 147 62 362v9q-35 0 -51 35v52q51 0 133 7.5t116 18.5zM333 1471q0 -31 1 -92.5t1 -92.5v-23q27 58 52 139t25 129q0 97 -48 99
q-14 -12 -31 -50v-109z" />
    <glyph glyph-name="quotesingle" unicode="'" horiz-adv-x="318" 
d="M100 1531q0 20 19.5 33.5t41.5 13.5q37 0 54 -47v-6q0 -2 -2 -7.5t-2 -6.5q0 -89 -23.5 -203.5t-51.5 -114.5q-9 0 -22.5 131t-13.5 207z" />
    <glyph glyph-name="parenleft" unicode="(" horiz-adv-x="467" 
d="M336 -130q10 -22 30.5 -58.5t35 -68t22.5 -61.5q-7 -18 -23 -30.5t-35 -12.5q-54 0 -103 112t-81 273.5t-56 341.5t-35 316.5t-11 198.5q0 53 15 172t41.5 256.5t71 239.5t93.5 102h45q0 -22 -4.5 -45t-14.5 -52.5t-15.5 -45t-21 -51t-17.5 -41.5q-45 -111 -68 -255.5
t-23 -281.5q0 -272 35.5 -549.5t118.5 -459.5z" />
    <glyph glyph-name="parenright" unicode=")" horiz-adv-x="482" 
d="M406 817v-2q0 -53 -15.5 -179t-45 -286t-65.5 -306.5t-85 -246.5t-97 -100q-21 0 -37.5 13.5t-16.5 34.5q0 17 16.5 52t40.5 77.5t29 54.5q75 166 124.5 428t49.5 459q0 153 -22.5 320t-68.5 280q-8 20 -29 59t-33 71t-12 64v11h37q58 0 105 -104t72 -249t38.5 -265
t14.5 -186z" />
    <glyph glyph-name="asterisk" unicode="*" horiz-adv-x="893" 
d="M211 736v6q1 39 72 182t81 172h-223h-8q-20 0 -29 1t-20.5 5.5t-16 16t-4.5 31.5q0 19 13.5 33.5t32.5 14.5h241l-31 62t-46.5 94.5t-38 85.5t-18.5 61q0 21 17 33.5t39 12.5q24 0 54 -58.5t58.5 -139.5t33.5 -91q2 7 15.5 53.5t25.5 82.5t29.5 79.5t37.5 68.5t39 25
q21 0 38.5 -16.5t17.5 -38.5q0 -6 -1.5 -12.5t-3.5 -11.5t-5.5 -11.5t-6 -10.5t-7.5 -11t-7 -10q-27 -42 -53 -135t-35 -116q38 -5 88 -5q11 0 59 5t76 5q104 0 104 -62q0 -52 -71 -52q-45 0 -133 4.5t-130 4.5q6 -17 77 -160t71 -182q0 -21 -24 -41t-46 -20l-140 320
q-9 -24 -28 -77t-31 -85.5t-31.5 -76t-38.5 -75.5h-49z" />
    <glyph glyph-name="plus" unicode="+" horiz-adv-x="740" 
d="M412 909v-25q0 -6 -0.5 -30.5t0 -48t1.5 -48.5t5.5 -40.5t12.5 -15.5q10 0 51.5 4t67.5 4q106 0 106 -62q0 -24 -17 -40t-41 -16q-20 0 -60.5 5.5t-60.5 5.5q-65 0 -65 -49q0 -27 9.5 -81.5t9.5 -82.5q0 -25 -20.5 -40.5t-46.5 -15.5q-24 0 -45 14.5t-21 37.5
q0 33 3 99.5t3 99.5v15q-12 0 -62 -4.5t-71 -4.5q-87 0 -87 65q0 21 12.5 37t33.5 16q20 0 60.5 -3.5t60.5 -3.5q26 0 47 4q-1 21 -6.5 72t-5.5 78q0 113 66 113q24 0 42 -17.5t18 -41.5z" />
    <glyph glyph-name="comma" unicode="," horiz-adv-x="425" 
d="M82 -202v72q8 8 39.5 33.5t51 48t23.5 44.5q-59 43 -59 101q0 37 31.5 62t69.5 25q37 0 58 -22.5t36 -63.5v-7q0 -2 -1.5 -6.5t-1.5 -7.5q0 -47 -26 -112t-71 -116t-89 -51h-61z" />
    <glyph glyph-name="hyphen" unicode="-" horiz-adv-x="649" 
d="M546 739q0 -11 -48.5 -19.5t-119 -12t-122.5 -5t-85 -1.5q-26 0 -46.5 17t-20.5 42q0 11 48.5 19.5t119 12t122 5t84.5 1.5q26 0 47 -16.5t21 -42.5z" />
    <glyph glyph-name="period" unicode="." horiz-adv-x="355" 
d="M105 41q0 31 23 55t54 24q29 0 51 -24t22 -53q0 -34 -23 -54.5t-58 -20.5q-28 0 -48.5 22.5t-20.5 50.5z" />
    <glyph glyph-name="slash" unicode="/" horiz-adv-x="567" 
d="M64 30q0 136 65.5 407t152 579.5t111.5 436.5q0 2 3 17.5t4.5 22.5t6 20.5t10 20.5t14 13t19.5 6q22 0 38.5 -14t16.5 -36q0 -30 -6.5 -61t-19 -72t-16.5 -59q-140 -599 -231 -1019q-2 -7 -10.5 -54.5t-17 -86t-22.5 -84t-32.5 -72t-39.5 -26.5q-46 28 -46 61z" />
    <glyph glyph-name="zero" unicode="0" horiz-adv-x="644" 
d="M98 1233q0 52 2 88t7 77t16.5 68t29.5 50.5t46.5 35t66.5 11.5q30 0 82 -29q22 -13 39.5 -27.5t31 -33t24 -32.5t18.5 -38t12.5 -37t10 -42.5t7 -40.5t6 -45t5.5 -43q4 -29 15 -109.5t16 -117t13 -107t12 -117.5t7 -108t3 -115q0 -514 -225 -514q-54 0 -96.5 47
t-68 126.5t-43 165t-25 184t-10 160t-2.5 114.5v429zM473 568q0 212 -74 686q-16 102 -54 153t-79 51q-34 0 -58 -33.5t-24 -86.5q0 -58 5.5 -174t5.5 -174q0 -34 11 -100.5t11 -99.5q0 -69 4 -157t17 -222.5t45.5 -222.5t79.5 -88q32 0 55.5 61t34 148t15.5 154t5 105z" />
    <glyph glyph-name="one" unicode="1" horiz-adv-x="602" 
d="M464 102v1q86 0 86 -51q0 -60 -233 -60q-16 0 -33 -0.5t-28 -0.5q-38 0 -60.5 11t-22.5 45v44q65 -5 72 -5q45 0 45 34q0 310 -35 804q-3 43 -10.5 121t-12 142t-4.5 121q0 10 1.5 35.5t1.5 39.5q0 96 -71 96q-6 0 -22 -1t-25 -1q-58 0 -58 44q0 54 165 54q22 0 35 -1.5
t30 -9.5t25 -23q-4 -7 -0.5 -43t3.5 -43q0 -63 15.5 -188t15.5 -188q0 -161 22.5 -484.5t22.5 -485.5v-13q8 1 23.5 2.5t28 2.5t23.5 1z" />
    <glyph glyph-name="two" unicode="2" horiz-adv-x="578" 
d="M278 1586v1q36 0 65.5 -8.5t51 -21.5t38 -36t27.5 -43t18.5 -52t11 -55t5.5 -59t2.5 -56t0.5 -55q0 -177 -44.5 -400.5t-113.5 -378.5q-12 -28 -72 -147.5t-83 -188.5q124 21 232 21l62 -52l-36 -51q-52 0 -156 -9.5t-156 -9.5q-29 0 -52 17t-23 45v8q26 31 45 71.5
t37.5 93.5t30.5 79q117 259 174 475t57 462q0 256 -98 264q-18 -10 -29.5 -39.5t-16 -58.5t-19.5 -52t-41 -23q-50 0 -50 63q0 41 13 84t44.5 77.5t74.5 34.5z" />
    <glyph glyph-name="three" unicode="3" horiz-adv-x="600" 
d="M234 865v24q0 20 19 48t41.5 54.5t41 70t18.5 88.5q0 35 -4 81t-14 106t-33.5 100t-55.5 40q-25 0 -41.5 -18.5t-23.5 -40t-24.5 -40t-45.5 -18.5q-23 0 -39 16.5t-20 39.5q28 69 78.5 113t119.5 44q59 0 106 -51q44 -1 71.5 -156t27.5 -242q0 -30 -9.5 -59t-19 -44.5
t-32.5 -48.5t-31 -45q49 -29 84.5 -100.5t53 -160t25.5 -164.5t8 -141q0 -45 -2 -80.5t-8.5 -83.5t-21 -83t-37 -67.5t-59 -49.5t-84.5 -17q-32 0 -64.5 8.5t-59.5 31.5t-27 56v13h34q11 -2 28.5 -3.5t26.5 -2.5t21.5 -6t24.5 -13q125 5 125 230q0 93 -2.5 148.5t-13.5 137
t-38 148t-71 121.5q-4 -1 -13 -1q-22 0 -60 17z" />
    <glyph glyph-name="four" unicode="4" horiz-adv-x="554" 
d="M286 587q0 92 -8.5 282.5t-8.5 290.5q0 21 16 33.5t33 12.5l42 -36v-62.5v-66.5t0.5 -61.5t1 -66.5t1.5 -61.5t3 -66.5t5 -61t6.5 -66t8.5 -62q2 0 24 2.5t35 2.5q61 0 61 -44q0 -30 -17.5 -40t-49.5 -10q-48 0 -48 -18q0 -69 5.5 -190t15.5 -144q-4 -24 -4 -38
q0 -25 10 -41v-37q0 -29 -11.5 -53t-37.5 -24q-31 0 -46 31.5t-15 65.5v7q7 24 7 74q0 34 -7.5 100t-7.5 99q0 15 1 44.5t1 44.5q0 35 -4 63q-18 -1 -61 -6t-67 -5v-1q-39 0 -81 33q0 46 9 79q-9 48 -9 115q0 70 15.5 211t15.5 207v379q0 13 2 20.5t11 13.5t26 6
q23 0 41.5 -14t18.5 -37q0 -26 -4.5 -79t-4.5 -80q0 -112 -9.5 -352t-9.5 -359q0 -24 3 -46q42 1 92 11z" />
    <glyph glyph-name="five" unicode="5" horiz-adv-x="578" 
d="M103 1008q0 18 5.5 52t5.5 52q0 41 -2.5 83.5t-9 91t-11 80t-14 90.5t-13.5 83l35 34h167q18 0 29.5 -1t26 -5.5t22 -15.5t7.5 -28v-11l-38 -31h-44v-5h-94q4 -112 40 -475q5 -1 39.5 -4t48.5 -5.5t38 -9.5t40 -18q47 -32 78 -144t40.5 -211t9.5 -176q0 -56 -0.5 -83
t-3.5 -73.5t-9.5 -72.5t-19 -63t-30.5 -63.5t-46 -56.5t-64 -58q-5 0 -16.5 -0.5t-18.5 -0.5q-112 0 -112 58q0 23 19.5 34.5t43.5 11.5q30 0 53 -17q49 17 77.5 112t28.5 166q0 47 -5.5 131t-18 192.5t-39.5 185.5t-63 77h-40v-7q-9 -1 -32.5 -8.5t-34.5 -7.5q-24 0 -40 10
t-23 29t-9.5 36.5t-2.5 41.5z" />
    <glyph glyph-name="six" unicode="6" horiz-adv-x="531" 
d="M367 212q0 58 -5.5 150t-18 214t-41.5 210t-68 96q-27 -20 -35 -46t-8 -66q0 -193 49 -563q1 -7 3 -28.5t3.5 -31.5t6.5 -27t12 -25t20 -15t31 -7q51 0 51 139zM300 -14q-45 0 -77 22t-48.5 53.5t-27.5 79.5t-13.5 86.5t-5.5 89.5t-6 74q-31 253 -31 489q0 706 215 706
q15 0 30.5 -12.5t15.5 -28.5q0 -27 -23 -45.5t-52 -24.5q-35 -36 -57 -214t-28 -312q16 3 31 3q47 0 85.5 -32t63 -81t42.5 -119.5t27 -133.5t14.5 -139t6.5 -120t1 -91q0 -44 -2 -74t-11.5 -66t-26.5 -58t-48 -37t-75 -15z" />
    <glyph glyph-name="seven" unicode="7" horiz-adv-x="465" 
d="M244 1498q-33 0 -130 -9q-19 9 -33.5 25t-14.5 35q0 33 188 33h38q28 0 45.5 -3t34.5 -16.5t24 -39.5q-6 -27 -15 -133q-27 -326 -79 -710.5t-113 -560.5q1 -5 1 -18q0 -41 -18 -76.5t-52 -35.5l-49 35q0 25 5.5 50.5t16.5 59t15 48.5q40 151 65 318t48.5 394.5
t35.5 322.5q4 29 13.5 86.5t15 103.5t6.5 87q-32 4 -48 4z" />
    <glyph glyph-name="eight" unicode="8" horiz-adv-x="526" 
d="M219 1515q-49 -55 -49 -102q0 -74 26 -216.5t52 -227.5q41 182 41 343q0 44 -13.5 125t-35.5 81zM211 190v-2q0 -41 20.5 -111.5t44.5 -70.5q52 0 74 38.5t22 95.5q0 148 -29 298.5t-83 344.5q-49 -200 -49 -593zM460 72v-12q-63 -142 -186 -142q-45 0 -78 29t-49.5 74.5
t-24 89.5t-7.5 87q0 342 66 561q28 95 30 104q-16 41 -39.5 106.5t-62.5 215t-39 236.5q0 76 35.5 131t106.5 55h41q36 -23 59 -46.5t36 -45t19 -56.5t7.5 -63t1.5 -83q0 -143 -63 -422q-4 -19 -6 -29q68 -164 113.5 -370t45.5 -373q0 -25 -6 -47z" />
    <glyph glyph-name="nine" unicode="9" horiz-adv-x="531" 
d="M163 1247q0 -64 16 -85q4 -33 11.5 -54.5t22 -35.5t27.5 -21t40 -19t46 -23q9 156 9 418q0 47 -14.5 73.5t-58.5 26.5q-28 0 -49 -34.5t-31 -84.5t-14.5 -91t-4.5 -70zM408 237q0 -25 -6.5 -74t-6.5 -73q0 -6 0.5 -19.5t0.5 -21.5q0 -83 -57 -83l-43 38q32 96 32 682
q0 49 -2 133t-2 112q-114 26 -187.5 111.5t-73.5 200.5q0 44 4 88t17 97t33.5 92.5t57.5 66.5t86 27q100 0 136 -46t36 -148q0 -197 -12.5 -591.5t-12.5 -591.5z" />
    <glyph glyph-name="colon" unicode=":" horiz-adv-x="354" 
d="M115 1024q0 30 23 54.5t53 24.5q29 0 51 -24t22 -53q0 -34 -23 -54.5t-58 -20.5q-28 0 -48 22.5t-20 50.5zM94 250q0 31 23 55t54 24q29 0 50.5 -24t21.5 -53q0 -34 -23 -54.5t-57 -20.5q-28 0 -48.5 22.5t-20.5 50.5z" />
    <glyph glyph-name="semicolon" unicode=";" horiz-adv-x="410" 
d="M125 -11q-12 0 -27 13t-15 25v24q5 5 37.5 31t49.5 46.5t21 42.5q-59 43 -59 101q0 37 31.5 62t69.5 25q39 0 65 -30.5t26 -70.5q0 -46 -27.5 -108.5t-75.5 -111.5t-96 -49zM168 1025q0 30 23 54.5t53 24.5q29 0 51 -24t22 -53q0 -34 -23 -54.5t-58 -20.5q-28 0 -48 22.5
t-20 50.5z" />
    <glyph glyph-name="less" unicode="&#x3c;" horiz-adv-x="553" 
d="M465 -22q-9 0 -24 2t-20 2q-63 96 -122 212.5t-131.5 279t-102.5 224.5q2 56 106 282t118 275q1 4 8 33.5t14 51.5t18.5 49.5t26.5 42.5t32 15q1 0 3 -0.5t4 -0.5l45 -35q-9 -72 -51.5 -178.5t-88 -195.5t-82 -184t-36.5 -151q0 -15 137.5 -292t173.5 -341q-1 -9 0 -21
t0 -24t-3 -22.5t-8.5 -17t-16.5 -6.5z" />
    <glyph glyph-name="equal" unicode="=" horiz-adv-x="783" 
d="M463 680q209 0 209 -54q0 -21 -13.5 -34t-34.5 -13q-72 0 -216 5t-216 5q-82 0 -82 45q0 21 12.5 33.5t33.5 12.5h307zM523 872q159 0 159 -54t-216 -54q-22 0 -46 0.5t-42.5 1.5t-33.5 2t-24 2h-9q-7 0 -34 -1.5t-44 -1.5q-123 0 -123 59q0 21 12.5 33.5t33.5 12.5h367z
" />
    <glyph glyph-name="greater" unicode="&#x3e;" horiz-adv-x="578" 
d="M155 -19q-7 0 -21 -2t-21 -2q-25 0 -39 22.5t-15 49.5q70 129 202.5 384t132.5 269q0 57 -26.5 131.5t-64 148t-75 147.5t-64 149.5t-27.5 132.5l45 35v-2q21 -10 36.5 -24t27.5 -39.5t16.5 -37t14.5 -48t11 -40.5q14 -50 118 -274t106 -283z" />
    <glyph glyph-name="question" unicode="?" horiz-adv-x="1161" 
d="M566 1525q-61 0 -83 -30.5t-22 -87.5q0 -21 4 -70t4 -74q0 -173 23 -263q87 37 132.5 106t45.5 166v26t-0.5 29t-2 33.5t-3.5 32.5t-6 34t-9.5 30.5t-13.5 27.5t-17.5 20.5t-23 15t-28.5 4.5zM862 199q0 -18 -19 -37t-36 -19q-33 0 -67 67.5t-62.5 171.5t-52.5 208.5
t-45 199.5t-32 124h-53q-5 -80 -5 -118q0 -98 22 -293t22 -293q0 -29 -13.5 -48t-41.5 -19t-50.5 18.5t-22.5 46.5q0 43 -17 130.5t-17 131.5v984q0 56 10.5 91.5t35 55t57.5 27t85 7.5q41 0 75 -12t57 -31.5t40.5 -49t28 -60t16.5 -69t8 -71.5t2 -72q0 -69 -13 -121.5
t-32 -81t-37.5 -46.5t-34 -30.5t-18.5 -21.5q3 -76 175 -655q0 -22 17.5 -58.5t17.5 -56.5zM963 706q0 283 -24.5 513t-96.5 436v15q-31 49 -101.5 105.5t-116.5 56.5q-63 0 -117 -21t-93 -56t-70.5 -87.5t-52.5 -106.5t-36.5 -123t-23.5 -128t-13 -130t-6 -120t-1 -106
q0 -774 134 -927q20 -23 65 -52.5t57 -38.5h59v-20q83 1 150 30t112 74t78 112.5t51 133.5t29 149.5t14 148.5t3 142zM613 -190q-103 0 -184.5 33.5t-135 84.5t-92.5 133.5t-59.5 158.5t-32 182.5t-14 182.5t-2.5 180v68q-3 52 -1 115.5t2.5 133.5t8.5 144t18 147t31 143.5
t47 133.5t66 115.5t88 91t113.5 60t142.5 21.5q85 0 163.5 -52t134.5 -131q35 -21 64.5 -112t48.5 -208t32.5 -246.5t19 -228t5.5 -153.5q0 -102 -1 -163.5t-10 -179t-25.5 -194t-50.5 -172t-82 -152t-123.5 -96.5t-171.5 -40z" />
    <glyph glyph-name="at" unicode="@" horiz-adv-x="1078" 
d="M518 1246q-18 0 -32.5 -10.5t-24 -32.5t-17 -44t-11.5 -57.5t-7 -60t-4 -64t-1 -57v-50.5v-15q0 -57 1 -95.5t4 -97t10 -97.5t18.5 -77.5t30.5 -58t44 -19.5q42 0 86 74t44 121v154q0 54 -6.5 126.5t-20.5 158.5t-44 144t-70 58zM463 -31q97 0 156.5 17t84 39.5t72 66.5
t101.5 77v10l49 -39q-16 -59 -69 -110.5t-120.5 -83t-138 -49t-128.5 -17.5q-380 0 -380 1076q0 86 1.5 140.5t9.5 143t23.5 147t46 127t73.5 109t109.5 68.5t151.5 28q254 0 365 -252q54 -122 92 -369q1 -4 9 -57q31 -201 31 -274q0 -35 -0.5 -59t-4 -65t-10 -70t-19 -63
t-30.5 -54.5t-46 -35t-63 -14.5q-45 0 -92 43q-36 -63 -96.5 -103t-126.5 -40q-35 0 -63.5 13t-49.5 33t-37.5 53.5t-27 64.5t-18 76t-11 78.5t-5.5 82t-2.5 75.5t-0.5 69q0 55 0.5 90.5t5 93.5t12.5 96.5t24.5 83.5t39 72t57.5 45.5t80 18.5q90 0 157 -67q16 -16 32 -82
t30 -166t23.5 -181t19.5 -180t11 -110v-9l45 -46q21 12 33.5 71t15 106t2.5 89q0 347 -109 628q-46 113 -107.5 160.5t-174.5 47.5q-55 0 -99 -17.5t-74 -48t-52.5 -72.5t-35 -92t-21.5 -105t-10.5 -112t-3.5 -113.5t0 -109.5v-17.5v-16v-17.5v-18q-1 -904 263 -904z" />
    <glyph glyph-name="A" unicode="A" horiz-adv-x="709" 
d="M482 447q-3 37 -20.5 221.5t-31 348t-13.5 219.5q0 13 1 18q-7 -8 -30.5 -138.5t-48 -279t-31.5 -177.5q-5 -19 -18 -60.5t-20.5 -73t-8.5 -61.5q85 -23 182 -23q15 0 39 6zM490 1529q40 -287 84 -747t44 -712q0 -69 -68 -69q-66 0 -66 53v267q-29 20 -103.5 34
t-132.5 18q-25 -42 -38.5 -171.5t-43.5 -178.5q-99 0 -109 41q26 38 78.5 291t108 563.5t66.5 360.5q55 264 119 264q38 0 61 -18v4z" />
    <glyph glyph-name="B" unicode="B" horiz-adv-x="625" 
d="M550 374q-5 -20 -14 -55q-7 -32 -11 -46.5t-11 -40t-12 -38t-14 -33t-18 -31t-22 -27t-28 -27t-34 -24t-42.5 -25.5t-51.5 -24q-12 -6 -40 -13t-40 -7h-4q-16 0 -25 0.5t-25.5 3t-25.5 7.5t-16.5 15t-7.5 25q0 84 5 252t5 252q0 138 -7 416t-7 416v6v27t1.5 29t4.5 31.5
t8.5 27.5t13.5 24t20.5 15.5t28.5 6.5q94 0 163.5 -44.5t104.5 -120t35 -171.5q0 -156 -125 -332q34 -48 66 -92t45 -59.5t27 -39t16 -29t7 -31.5t5.5 -45t5.5 -71t12 -108q1 -4 4 -11.5t3 -8.5zM292 785v1h-70q9 -254 9 -696q99 16 156 94.5t57 184.5q0 346 -152 416z
M243 1421q-28 0 -28 -64q0 -83 4 -240.5t4 -228.5q21 5 40.5 23.5t34 42t28.5 56t22.5 59t19 58.5t16.5 46v73q0 60 -42.5 117.5t-98.5 57.5z" />
    <glyph glyph-name="C" unicode="C" horiz-adv-x="685" 
d="M450 1444v-4h-32v8q-57 0 -98 -18t-64 -45t-36 -70.5t-16.5 -82.5t-3.5 -92q0 -24 3 -71t3 -70q0 -24 -9 -71.5t-9 -71.5q0 -104 27.5 -381t53.5 -315q46 -67 154 -67q82 0 132 59q35 0 65 10v-27q0 -62 -35.5 -101.5t-82.5 -53t-106 -13.5q-69 0 -136 46.5t-97 110.5
q-40 84 -60 391t-20 522q0 117 14 189q-6 33 -6 64q0 126 94 200.5t232 74.5q49 0 96 -27.5t47 -72.5q0 -22 -17 -34t-40 -12q-38 0 -53 25z" />
    <glyph glyph-name="D" unicode="D" horiz-adv-x="691" 
d="M602 773q-11 -19 -11 -62q0 -155 -71 -339t-176 -280q-22 -20 -32.5 -29t-35.5 -29t-45 -29.5t-35 -9.5q-38 0 -69 17.5t-31 52.5q45 47 45 241q0 114 -19 339t-19 337q0 36 3 111t3 113q0 95 -16 168q-2 10 -15.5 47.5t-13.5 59.5q0 17 8 30t24 20.5t31 12t38 6t35 2
t31 0.5h9q42 0 90 -25.5t89 -64.5t74 -85t49 -87q10 -25 17 -58.5t11 -68t7 -71.5t5 -71t4.5 -63.5t6.5 -53.5t9 -36v-95zM239 310v-196q57 40 102.5 108t73.5 144t46.5 165t25.5 167.5t7 155.5q0 575 -284 575v-2q0 -190 14 -562.5t15 -554.5z" />
    <glyph glyph-name="E" unicode="E" horiz-adv-x="505" 
d="M228 105q105 6 108 6q114 0 114 -54v-7q-14 -28 -47.5 -43t-58.5 -17t-66 -2h-64q-23 0 -37 1.5t-32 7.5t-26.5 20.5t-8.5 37.5v1478q26 0 89 9t88 9q31 0 62.5 -18.5t31.5 -48.5q0 -61 -93 -61q-10 0 -29.5 1t-29.5 1q-15 0 -22 -1q0 -56 8 -169t8 -169q0 -41 -5 -119.5
t-5 -114.5q11 2 30 7t35 8t31 3q23 0 41.5 -17t18.5 -40q0 -25 -15 -44t-39 -19q-6 0 -23.5 1t-27.5 1q-24 0 -36 -15v-632z" />
    <glyph glyph-name="F" unicode="F" horiz-adv-x="452" 
d="M260 94q0 -2 -2 -7t-2 -6q3 -9 3 -25q0 -26 -19 -42t-50 -16q-59 0 -59 131q0 195 -20.5 737t-41.5 574q0 32 13.5 54t31.5 33.5t48 18t51.5 7.5t53.5 1q44 0 65.5 -14t21.5 -56q0 -22 -17 -33t-40 -11q-3 0 -20.5 1t-29.5 1q-57 0 -57 -23q0 -95 15 -278.5t16 -271.5
q4 1 47.5 11.5t66.5 10.5t39.5 -19.5t16.5 -43.5q0 -14 -6.5 -24.5t-20 -17t-26 -11.5t-32.5 -7.5t-31 -3.5t-31 -2t-23 -1q0 -111 19.5 -333t19.5 -334z" />
    <glyph glyph-name="G" unicode="G" horiz-adv-x="771" 
d="M574 2v2q-12 -6 -43 -23.5t-54 -26t-47 -8.5q-55 0 -101.5 19t-80 48.5t-60 76.5t-44 93t-30 108t-18.5 111t-10 113.5t-4.5 103.5t-0.5 92q0 19 -0.5 70t-0.5 81q0 74 2 134.5t10.5 138.5t22.5 139t39.5 122.5t61 102.5t88 66.5t117.5 25.5q82 0 82 -58q0 -22 -15.5 -35
t-36.5 -13q-9 0 -28 5t-28 5q-36 0 -66 -24t-50.5 -68.5t-36 -96t-25 -119.5t-15.5 -124t-8.5 -125t-3 -108t-0.5 -86q0 -15 -0.5 -56.5t-0.5 -70.5q0 -55 1.5 -100.5t7 -106t15.5 -108t27.5 -96.5t42 -81.5t61 -53t82.5 -20.5q87 0 145 86q-3 184 -31 234q-1 0 -31 -4
t-46 -4q-68 0 -68 58q0 20 20.5 34t51 21t55.5 10t43 3q43 0 65 -32t22 -77q0 -62 20.5 -183t20.5 -182q0 -23 -14 -39.5t-36 -16.5q-52 0 -69 43z" />
    <glyph glyph-name="H" unicode="H" horiz-adv-x="624" 
d="M374 1496q-1 15 16 33t36 18q24 0 41 -36t17 -118q0 -225 19 -675.5t19 -674.5q0 -27 -17 -50.5t-43 -23.5q-27 0 -39.5 20t-12.5 48q0 382 -17 722q-55 10 -66 10q-81 0 -117 -16q1 -112 17.5 -343.5t16.5 -350.5q0 -20 -12 -37t-31 -17q-21 0 -32.5 8t-23.5 28
q-11 19 -15.5 136.5t-5.5 257.5t-3 167q-37 532 -37 908v15q3 32 45 32q22 0 40 -11.5t22 -31.5q-7 -73 -7 -154q0 -70 7 -210.5t7 -210.5q0 -12 -1 -38t-1 -39q0 -29 4 -53q32 1 95.5 7.5t96.5 7.5q0 108 -9 332.5t-9 339.5z" />
    <glyph glyph-name="I" unicode="I" horiz-adv-x="489" 
d="M378 19h-257q-11 0 -22.5 2t-24 13t-12.5 30q0 49 62 49q13 0 34 -0.5t29 -0.5q10 0 10 46q0 158 -19 473.5t-19 473.5q0 35 2 104.5t2 104.5q0 66 -5 114q-27 -9 -48 -9q-48 0 -48 49q0 25 31 43.5t77 26.5t82.5 11.5t62.5 3.5q24 0 42 -16.5t18 -39.5
q0 -22 -13.5 -38.5t-34.5 -16.5q-7 0 -19 0.5t-17 0.5q-20 0 -29.5 -8.5t-9.5 -33.5q0 -200 26 -599t26 -599v-88q8 0 21 0.5t21 0.5q83 0 83 -34q8 -34 -7.5 -48.5t-43.5 -14.5z" />
    <glyph glyph-name="J" unicode="J" horiz-adv-x="475" 
d="M352 315q0 -195 -44 -312.5t-155 -196.5q-32 0 -53 16t-21 47q0 25 25.5 48t54.5 35q82 103 82 289q0 102 -10.5 292t-12.5 269q-1 54 -2 157.5t-2 168t-7.5 154t-18.5 163.5q-7 -1 -27 -6t-34 -7.5t-28 -2.5q-21 0 -36.5 15.5t-15.5 36.5q0 72 245 72q118 0 118 -56
q0 -31 -28 -42.5t-63 -10.5v-15q0 -53 -2 -158.5t-2 -158.5q0 -133 18.5 -398.5t18.5 -398.5z" />
    <glyph glyph-name="K" unicode="K" horiz-adv-x="691" 
d="M334 955q30 -79 163.5 -498.5t133.5 -445.5q0 -25 -20 -42t-45 -17q-9 0 -25 4t-23 4q-50 293 -102 508.5t-138 411.5q-9 -17 -23 -44t-18.5 -36.5t-11.5 -28t-9 -33t-4 -36.5t-2 -52q0 -64 6.5 -190t6.5 -190q0 -277 -70 -277q-60 0 -60 115q0 92 13.5 276t13.5 276
q0 41 1.5 176t1.5 213q0 223 -12 320q-1 11 -9.5 49.5t-8.5 57.5q0 26 16.5 45.5t41.5 19.5q76 0 76 -166q0 -1 -9 -421q7 18 38 100t64 167t70.5 173.5t70.5 145t52 56.5q23 0 40.5 -15.5t17.5 -38.5q0 -20 -112 -254t-125 -297v-36z" />
    <glyph glyph-name="L" unicode="L" horiz-adv-x="485" 
d="M241 102h146q5 -3 15.5 -9.5t15 -9.5t9 -11t4.5 -18q0 -23 -15 -40.5t-37 -17.5q-4 0 -9.5 1t-12 3t-9.5 3q-17 -4 -39 -4q-11 0 -33 1.5t-33 1.5q-21 -25 -58 -25q-26 0 -47.5 19.5t-21.5 45.5q0 16 6.5 45.5t6.5 44.5q0 233 -20.5 698.5t-20.5 698.5q0 19 15 30.5
t35 11.5q25 0 43.5 -17t18.5 -42q0 -123 10.5 -369t10.5 -368q0 -36 -4 -65v-9q3 -59 9.5 -168t10.5 -198t4 -168v-65z" />
    <glyph glyph-name="M" unicode="M" horiz-adv-x="854" 
d="M593 1529q5 27 26.5 42.5t51.5 15.5q13 0 24 -8t17.5 -20t6.5 -24q0 -243 13 -728t13 -728q0 -61 -41 -96q-22 -15 -27 -6q-11 -3 -19.5 -3.5t-13.5 2t-8.5 7.5t-4.5 11t-1.5 14.5t-0.5 15.5t0.5 17t0.5 16q-4 156 -4 244t1.5 243t-0.5 588q-11 -64 -46.5 -241.5
t-56.5 -313.5q-5 -25 -13 -79t-15.5 -96.5t-18.5 -86.5t-27.5 -68.5t-38.5 -24.5q-18 0 -30.5 14t-18.5 40t-8.5 48t-4.5 51.5t-2 37.5q-12 98 -66 392.5t-72 404.5q-2 -190 -2 -285q0 -142 8.5 -426t8.5 -426q0 -44 -31 -77q-51 0 -69 34t-18 92q0 57 3.5 171t3.5 171
q0 133 -3.5 397t-3.5 396q0 133 3 265l57 32q28 -3 61.5 -101t65.5 -259t56 -301t47.5 -295.5t26.5 -173.5q6 34 30.5 174t33.5 191.5t29 172t30.5 193.5t24 173.5t22.5 188.5v12z" />
    <glyph glyph-name="N" unicode="N" horiz-adv-x="764" 
d="M235 1112q1 42 -17.5 107.5t-20.5 78.5v-1296h-72v38q4 15 -1 63t-5 74q0 106 -13 344t-13 291v261q0 63 7 188t7 188q0 28 0.5 37t4 27t11 24t23 11.5t38.5 5.5q16 0 31 -8t25 -22.5t10 -31.5q0 -33 8 -66.5t23 -75t21 -62.5q6 -23 10.5 -52t6.5 -52t5 -53t8 -53
q15 -83 45 -193.5t56.5 -195.5t49.5 -192.5t28 -198.5q16 -30 20 -73q0 119 3 357t3 357v606q12 51 67 51q31 0 43.5 -23.5t12.5 -56.5v-12q-13 -27 -13 -60q0 -125 -4 -378t-4 -379v-626q0 -23 -9.5 -41t-30.5 -29.5t-50 -11.5q-16 0 -27.5 7t-17.5 17t-10.5 25t-6.5 28.5
t-4.5 30t-4.5 26.5q-23 92 -77.5 286.5t-91.5 345.5t-59 292q-2 7 -2.5 19t-1 20.5t-3.5 18.5t-8 17z" />
    <glyph glyph-name="O" unicode="O" horiz-adv-x="694" 
d="M304 1477q-19 0 -36 -14t-29 -42t-22 -59.5t-16.5 -77t-11.5 -82.5t-8 -88t-5 -83t-2.5 -77t-0.5 -60v-42q0 -66 10 -183t31.5 -262.5t65 -248.5t99.5 -103q40 0 68 76.5t39.5 191.5t15.5 194t4 136q0 40 -0.5 78t-3 110.5t-8.5 136t-15 140.5t-24.5 137t-35.5 112.5
t-49.5 81t-65.5 28.5zM568 215q0 -54 -22.5 -115.5t-69 -109t-101.5 -47.5t-100.5 38t-75 97.5t-52.5 142t-35 161t-19.5 165.5t-9.5 144.5t-2 107.5q0 52 2.5 107.5t7 132t6.5 107.5q1 18 2 60t2 71t6 71.5t12 72.5t21.5 63t34.5 53.5t50.5 34t69.5 13.5q40 0 74 -11
t57.5 -28.5t43 -46t32 -55.5t22.5 -65t15 -67.5t11 -69.5q49 -350 49 -624q0 -45 -9 -131t-9 -128v-9q-13 -57 -13 -135z" />
    <glyph glyph-name="P" unicode="P" horiz-adv-x="551" 
d="M360 1158v1q0 54 -6 90.5t-14.5 62t-33.5 51.5t-47.5 43.5t-71.5 52.5q1 -108 9.5 -324t8.5 -324q79 75 117 158t38 189zM67 1520q32 46 78 46q76 0 138.5 -34t101.5 -90.5t60 -125t21 -141.5q0 -150 -65 -272.5t-191 -190.5q0 -103 8 -315.5t8 -322.5q0 -37 -16 -61
t-52 -24q-25 0 -37 21.5t-12 47.5q0 93 5 342.5t5 388.5q0 486 -52 731z" />
    <glyph glyph-name="Q" unicode="Q" horiz-adv-x="720" 
d="M297 20q-55 37 -95 87t-62.5 101t-36 116t-17.5 121.5t-4 128.5q0 56 5 167t5 167q0 15 -1 63.5t-1 80.5q0 524 221 524q81 0 151 -58.5t89 -140.5q35 -155 45 -322.5t10 -395.5v-48q0 -86 -0.5 -127t-6.5 -106t-19 -107t-37.5 -95.5t-61.5 -105.5q2 -8 7 -40.5t11.5 -63
t15.5 -63t22.5 -52.5t29.5 -20h20t20 -1t22 -4.5t16.5 -8.5t13.5 -14.5t4 -21.5q0 -63 -91 -63q-35 0 -85 29v1q-27 13 -45.5 36t-28.5 55t-15.5 58.5t-10.5 65.5t-9 57h-81zM494 793q0 59 -5.5 125t-14.5 146.5t-13 123.5q-1 13 -3 38t-3 40t-4 39t-6.5 38.5t-10 34.5
t-14.5 32t-20 25.5t-27 21t-35 12.5t-44 5q-36 0 -60.5 -105.5t-34 -265t-13 -265t-3.5 -185.5q0 -55 2 -110t13 -142.5t28.5 -152t53.5 -114.5t84 -54v2q15 26 47 26v-1q41 39 62 99t21 121v466z" />
    <glyph glyph-name="R" unicode="R" horiz-adv-x="601" 
d="M308 1207q0 38 -7 90t-28 106t-52 60q0 -65 -5.5 -205t-5.5 -213q0 -63 2 -94q34 33 66 79zM102 44v16q0 200 7 600.5t7 600.5v252q0 24 10 34t44 10q62 0 112 -31.5t80 -81.5t46 -109t16 -118q0 -29 -5 -61t-9.5 -54.5t-17.5 -61t-18.5 -52.5t-23.5 -59t-21 -53
q1 -80 26.5 -199.5t47.5 -193t73.5 -229.5t58.5 -178v-5v-24.5t-2.5 -22.5t-7 -23.5t-14.5 -14.5t-25 -7q-38 0 -74 55v7q-5 82 -50.5 225t-54.5 184q-13 59 -37.5 197.5t-42.5 211.5v-807q0 -65 -67 -65q-24 0 -41 16.5t-17 40.5z" />
    <glyph glyph-name="S" unicode="S" horiz-adv-x="581" 
d="M427 685q7 -26 24 -82t26.5 -89.5t17.5 -81.5t8 -90q0 -64 -17.5 -130t-50 -124.5t-88 -95.5t-124.5 -37q-27 0 -60 5t-66 22t-33 42q0 23 11.5 39t34.5 16t60.5 -15.5t52.5 -15.5q40 0 72 35t50 86.5t27.5 100.5t9.5 85q0 92 -30 190t-73.5 184t-86.5 172t-73 184
t-30 190q0 70 24 136.5t77.5 114.5t126.5 48q37 0 72 -20.5t49 -53.5v-44q-86 0 -115 20q-38 -4 -66 -36.5t-39.5 -72t-11.5 -77.5q0 -67 23 -150.5t55 -157t64.5 -136.5t55.5 -103t23 -42v-16z" />
    <glyph glyph-name="T" unicode="T" horiz-adv-x="543" 
d="M375 611v-1q-14 -65 -14 -156q0 -62 8.5 -184t8.5 -184q0 -100 -59 -100q-34 0 -50 32t-16 71q0 55 8 164t8 163q0 106 -14 319t-14 319q0 16 1.5 78t1.5 101q0 147 -19 191q-15 -1 -53 -6t-58 -5q-26 0 -46.5 15.5t-20.5 40.5q0 24 49 41.5t119.5 25.5t122.5 11t85 3
q25 0 45.5 -16.5t20.5 -41.5t-18 -39.5t-44 -14.5q-13 0 -37 2t-36 2q-14 0 -21 -1q14 -118 14 -252q0 -43 -2 -131.5t-2 -132.5q0 -187 32 -314z" />
    <glyph glyph-name="U" unicode="U" 
d="M651 460v-31q0 -3 -2.5 -10.5t-2.5 -11.5q0 -17 0.5 -57t0.5 -62q0 -52 -3.5 -92.5t-15.5 -86.5t-32.5 -76t-58.5 -50t-90 -20q-63 0 -111.5 25.5t-76 63.5t-49.5 96t-32.5 108t-25.5 115t-27 103q-2 5 -22.5 458t-20.5 503q-15 17 -15 42t17.5 44t41.5 19q74 0 74 -146
q0 -118 9.5 -355.5t9.5 -356.5q12 -27 20.5 -109t8.5 -129q0 -44 14.5 -110.5t39.5 -134.5t67.5 -116t90.5 -48q23 0 40 14.5t25 32.5t12.5 47.5t5 47t0.5 42.5v919q0 58 -22 175.5t-22 175.5q0 25 20.5 40.5t46.5 15.5l62 -48v-34q0 -20 -9 -61.5t-9 -63.5
q0 -119 15 -348.5t16 -340.5v-3q-2 -11 1 -32t3 -28q0 -23 3 -65.5t3 -60.5z" />
    <glyph glyph-name="V" unicode="V" horiz-adv-x="664" 
d="M554 1569h43q-14 -133 -73 -581t-80 -700q-2 -24 -2.5 -74t-2.5 -87.5t-8 -77t-21 -61.5t-40 -22q-29 0 -48 22q-47 195 -140 780.5t-131 754.5q12 40 60 40q11 0 19.5 -3t14.5 -10.5t10 -13.5t7 -17.5t4.5 -18t3 -19.5t2.5 -16q19 -118 53.5 -353.5t64.5 -421t64 -351.5
q13 116 49.5 369.5t56 447.5t19.5 372q32 41 75 41z" />
    <glyph glyph-name="W" unicode="W" horiz-adv-x="950" 
d="M380 1286v39q0 22 16.5 42.5t37.5 20.5q34 0 58.5 -14t24.5 -46v-31q0 -127 22.5 -266.5t59 -307.5t51.5 -262q11 113 40 327.5t46 388t17 329.5q0 45 15 65.5t59 20.5q24 0 43.5 -16t19.5 -40q0 -26 -21 -47q-31 -168 -54.5 -501t-49.5 -490q-18 -108 -25.5 -158
t-16.5 -138t-9 -159q0 -31 -15.5 -51t-45.5 -20q-25 0 -43 33t-28 87.5t-15.5 104t-9 103t-5.5 65.5q-13 105 -53 300.5t-46 227.5q-24 -184 -37.5 -295t-25.5 -272.5t-12 -297.5q0 -22 -18.5 -39.5t-40.5 -17.5q-75 0 -75 156q0 96 -84.5 701.5t-107.5 662.5q26 49 71 49
q22 0 39.5 -20.5t28 -56t17.5 -77t10 -89.5t4.5 -86.5t2.5 -75.5t2 -49q6 -68 15.5 -149t18.5 -139.5t23 -152.5t21 -142q4 32 20 173t26 232t19.5 205t9.5 173z" />
    <glyph glyph-name="X" unicode="X" horiz-adv-x="578" 
d="M102 1473v5q8 18 23.5 30t34.5 12t31.5 -5.5t18.5 -18.5t8.5 -22t4.5 -30.5t3 -28.5q9 -64 38.5 -180.5t36.5 -147.5q3 10 25.5 142t52 226.5t64.5 94.5q23 0 42 -12t19 -33q0 -14 -4.5 -28t-12.5 -32t-11 -26q-22 -59 -73.5 -313.5t-51.5 -309.5q0 -14 23.5 -132.5
t53.5 -263t31 -152.5v-12q2 -25 16 -76t14 -80q0 -22 -16.5 -39t-39.5 -17q-26 0 -43 12t-17 37q0 45 -4.5 91.5t-14.5 99.5t-17.5 87t-22.5 97.5t-21 89.5q-76 -324 -101 -461q-5 -30 -10 -45.5t-21 -30t-43 -14.5q-20 0 -37.5 13t-17.5 33q0 23 7.5 50t21 61.5t17.5 48.5
q37 120 81.5 328.5t44.5 297.5q0 75 -21 167.5t-45.5 165t-45.5 162t-21 159.5z" />
    <glyph glyph-name="Y" unicode="Y" horiz-adv-x="522" 
d="M240 25q0 66 5 198t5 198q0 60 -19.5 177.5t-19.5 177.5q0 83 -24.5 185.5t-54.5 184t-54.5 183.5t-24.5 184q0 18 22 25.5t43 7.5q15 0 31 -12t17 -27q20 -236 102 -501q4 18 9.5 85.5t13 138.5t19.5 143.5t33 119t49 46.5q54 0 54 -22q0 -115 -49 -343t-49 -346
q0 -12 3 -35.5t3 -35.5v-31q0 -90 -0.5 -271.5t-0.5 -271.5q0 -17 -0.5 -51t-0.5 -51v-46q0 -27 -18 -43.5t-42 -16.5q-21 0 -36.5 14.5t-15.5 35.5z" />
    <glyph glyph-name="Z" unicode="Z" horiz-adv-x="494" 
d="M79 1549l29 1q27 -7 57 -7q32 0 96.5 10.5t96.5 10.5q24 0 40 -17.5t16 -41.5q0 -54 -19 -162t-21 -119q-12 -88 -39 -314.5t-50.5 -388.5t-53.5 -312q-5 -23 -22 -63.5t-22 -60.5q5 0 44 4t64 4q108 0 108 -63v-9l-32 -32q-42 0 -126.5 -4t-126.5 -4q-39 0 -58 50
q47 75 105.5 389.5t96 607.5t45.5 423q-7 -1 -29 -3.5t-45 -4.5t-43 -2q-111 0 -111 65v43z" />
    <glyph glyph-name="bracketleft" unicode="[" horiz-adv-x="523" 
d="M385 -68q0 -24 -20 -34t-46 -10q-30 0 -62 2t-79 8.5t-76.5 24t-29.5 42.5q0 84 21.5 252.5t21.5 252.5q0 169 26.5 505t26.5 505q0 65 39 96h78q24 0 48 -2t59 -7.5t57 -20t22 -35.5t-17.5 -33.5t-38.5 -12.5q-19 0 -57 6.5t-58 6.5q-38 0 -38 -20q0 -128 -6 -286
t-11 -245t-19 -299t-17 -258q-2 -33 -14.5 -146.5t-12.5 -175.5v-42h9q194 1 194 -74z" />
    <glyph glyph-name="backslash" unicode="\" horiz-adv-x="561" 
d="M463 -30v-1q-15 0 -30 14.5t-26.5 40t-21.5 53.5t-19 64t-14.5 61.5t-11.5 55t-7 35.5q-40 185 -119.5 529t-111.5 490q-5 21 -16.5 60t-18.5 71.5t-7 61.5q0 22 16.5 36t38.5 14q13 0 22.5 -7t15.5 -21t9 -24t6 -28.5t4 -21.5q23 -100 83.5 -321.5t111.5 -409
t92.5 -387.5t41.5 -304q0 -37 -38 -61z" />
    <glyph glyph-name="bracketright" unicode="]" horiz-adv-x="506" 
d="M263 1458v18q-21 0 -66 -5.5t-69 -5.5q-74 0 -74 46q0 22 23 36.5t59 20.5t61.5 8t49.5 2h72q12 -5 19.5 -10.5t11.5 -9t6 -14.5t2.5 -15t0 -22.5t-0.5 -25.5q0 -163 18 -486t18 -485q0 -92 20.5 -273t20.5 -272q0 -25 -29.5 -42.5t-77 -24t-79.5 -8.5t-62 -2
q-66 0 -66 44q0 13 5 23.5t15 17.5t20.5 13t27 9t28.5 5.5t31 3.5t28 1.5t26.5 0.5h20.5v42q-4 202 -32 677.5t-28 732.5z" />
    <glyph glyph-name="asciicircum" unicode="^" horiz-adv-x="355" 
d="M108 1575q0 31 16.5 56t46.5 25t52 -21.5t22 -51.5q0 -28 -18 -48t-46 -20q-30 0 -51.5 15.5t-21.5 44.5z" />
    <glyph glyph-name="underscore" unicode="_" horiz-adv-x="982" 
d="M141 -137q-21 0 -36 15.5t-15 36.5q0 62 218 62q45 0 107.5 1.5t69.5 1.5q53 0 163 10t166 10q25 0 46 -17t21 -41q0 -42 -32 -52q-21 -6 -125 -5h-34q-90 0 -272.5 -11t-276.5 -11z" />
    <glyph glyph-name="grave" unicode="`" horiz-adv-x="583" 
d="M215 1598q-22 -2 -35 -2q-89 0 -89 62q0 51 28 68q69 0 95 -12q10 -6 19 -13q4 -1 44 -14t65.5 -23t60 -26t52.5 -35t18 -38q0 -17 -15 -28.5t-33 -11.5q-9 0 -29.5 6t-48 16t-50 18.5t-49.5 19.5t-33 13z" />
    <glyph glyph-name="a" unicode="a" horiz-adv-x="674" 
d="M597 41v-2q0 -46 -31 -58q-43 0 -67 14t-24 54q0 73 -30 249q-9 0 -30.5 3t-32.5 3h-68q-23 10 -81 10q0 -2 -2.5 -26.5t-4 -39.5t-5 -44.5t-7.5 -50t-10 -48t-13.5 -46t-16.5 -36t-21 -26t-25 -8.5q-24 0 -44.5 15.5t-20.5 39.5q17 65 33 133.5t31 148.5t24.5 132
t26 149.5t23.5 136.5q8 46 35.5 167.5t36.5 188.5q2 15 6.5 80t12.5 111.5t25 71.5h69q70 0 70 -42q0 -395 77 -785q4 -23 15 -64t17.5 -75.5t6.5 -65.5q0 -7 -5.5 -21t-5.5 -20q0 -25 18 -122t18 -127zM432 375q-6 30 -6 76q0 88 -8.5 183.5t-24.5 221.5t-22 182
q-12 -58 -46.5 -194t-53.5 -238.5t-20 -197.5q35 -23 181 -33z" />
    <glyph glyph-name="b" unicode="b" horiz-adv-x="542" 
d="M378 1296q0 -46 30.5 -134.5t30.5 -133.5q0 -139 -24 -213q-16 -49 -59 -110q59 -57 77 -143.5t18 -201.5q0 -60 -10 -114t-33 -103t-56.5 -85t-84 -57t-112.5 -21q-22 0 -36 9.5t-19.5 28t-7 33t-1.5 37.5q0 73 10 218t10 218q0 108 4.5 324.5t4.5 324.5q0 71 -2 106v19
q0 85 58 85q46 0 124 -26t78 -61zM220 244q-13 -22 -13 -68v-92q66 16 100 81.5t34 142.5q0 35 -1.5 68.5t-8.5 81.5t-19 84t-35.5 65t-54.5 36q-8 -118 -8 -310q0 -64 6 -89zM220 1288v-525q103 3 103 249q0 29 -5 69.5t-15.5 88t-32 81.5t-50.5 37z" />
    <glyph glyph-name="c" unicode="c" horiz-adv-x="568" 
d="M499 52q0 -81 -114 -81q-47 0 -96.5 13.5t-74.5 29.5q-136 88 -136 481q0 14 -0.5 54.5t-0.5 65.5q0 589 144 695q41 30 87.5 42t118.5 12q22 0 40.5 -16t18.5 -37v-8q-19 -47 -99 -47q-6 0 -18 1t-19 1q-34 0 -60.5 -37t-40.5 -89t-23 -116.5t-11.5 -110t-2.5 -78.5v-10
q0 -66 -6.5 -197.5t-6.5 -197.5q0 -35 1 -62.5t5.5 -64.5t12.5 -65.5t22.5 -58t34.5 -48.5t50 -31.5t68 -12.5q24 0 44 18q24 0 43 -11t19 -34z" />
    <glyph glyph-name="d" unicode="d" horiz-adv-x="645" 
d="M239 141v-49h37q55 67 87.5 121.5t50.5 117t23.5 124t5.5 157.5q0 618 -212 646q-15 -81 -15 -213q0 -151 11.5 -452t11.5 -452zM296 -12h-140q-52 0 -52 268q0 108 3 323t3 322q0 179 -7 336q-17 20 -17 49q0 26 23 46.5t49 20.5q39 0 62 -36q15 -6 44.5 -11t43.5 -12
q114 -53 178.5 -187.5t64.5 -298.5q0 -14 -2 -49t-2 -54v-112q0 -62 -1.5 -106.5t-7.5 -100t-16.5 -97t-29 -87.5t-44.5 -81.5t-64.5 -70.5t-87.5 -62z" />
    <glyph glyph-name="e" unicode="e" horiz-adv-x="517" 
d="M102 36q-1 29 4.5 71t5.5 67q0 43 -5 130.5t-5 131.5q0 100 7 299t7 299q0 29 -5.5 86.5t-5.5 86.5q0 145 86 145q24 0 45 -15q8 -1 38.5 -3.5t53.5 -6.5t50.5 -11.5t42.5 -21.5t15 -33q0 -22 -17.5 -38.5t-42.5 -25.5q-94 32 -155 39q3 -44 3 -88q0 -49 -4.5 -147
t-4.5 -147q0 -2 6 -32q8 0 33 1.5t40 1.5q99 0 99 -56q0 -30 -17.5 -53t-47.5 -23q-34 0 -58 18h-52q6 -78 6 -148q0 -51 -2 -118t-4.5 -134.5t-2.5 -118.5q0 -23 2.5 -40.5t10 -36t23 -28.5t38.5 -10q8 0 36 2.5t45 2.5q78 0 78 -50q0 -31 -27 -45t-61 -14h-193
q-26 0 -44.5 18t-20.5 45z" />
    <glyph glyph-name="f" unicode="f" horiz-adv-x="541" 
d="M119 975q-8 -130 -13.5 -457.5t-21.5 -504.5l57 -43q69 0 69 102v580q38 -12 81 -12q28 0 50 16.5t22 43.5q0 54 -99 54q-8 0 -21 -0.5t-17 -0.5v55q0 70 9.5 207.5t9.5 203.5v24q90 0 131 -20q104 0 104 58q0 27 -32.5 45t-83.5 25.5t-86.5 10t-66.5 2.5
q-30 0 -54.5 -16t-24.5 -45q0 -90 -13 -328z" />
    <glyph glyph-name="g" unicode="g" horiz-adv-x="654" 
d="M371 624v-1q200 0 200 -63q0 -26 -11 -75t-11 -74q0 -35 5 -108t5 -109q0 -59 -9 -101q-36 -33 -66 -54.5t-69 -38t-76 -16.5q-49 0 -90 26.5t-81 94.5q-38 60 -67 239.5t-29 277.5q0 42 3 88t9 104.5t8 88.5q0 5 1 14q4 56 6.5 85.5t11 83t18.5 84.5t29 70.5t44 61
t62 37t83 15.5q77 0 77 -52q0 -24 -17.5 -39.5t-40.5 -15.5q-5 0 -12 1.5t-13.5 2.5t-11.5 1q-30 0 -53.5 -38t-37.5 -102t-23.5 -132t-13.5 -145t-5.5 -123t-1.5 -83q0 -40 0.5 -70.5t2 -76t5 -80.5t9.5 -77.5t14.5 -74t21 -63t28.5 -51.5t38 -32.5t48 -12.5q89 0 87 345
v5.5v4v4.5v61q-13 8 -42 8q-5 0 -17 -0.5t-19 -0.5q-29 0 -46 9.5t-17 37.5q0 29 18.5 44t45.5 15z" />
    <glyph glyph-name="h" unicode="h" horiz-adv-x="627" 
d="M525 38q0 -18 -15.5 -28t-37.5 -10q-26 0 -47 12.5t-22 33.5q-11 204 -11 502v8q1 11 0 31.5t-1 27.5q0 3 -0.5 9.5t-0.5 9.5v2q-16 -4 -46 -4q-22 0 -64 9t-63 10q0 -32 -3 -108.5t-3 -117.5v-9q0 -56 8.5 -168.5t8.5 -168.5q0 -30 -14.5 -52t-42.5 -22
q-41 0 -56.5 74.5t-15.5 203.5q0 57 3 164.5t3 147.5q0 29 0.5 66t0.5 51q0 20 2 60t2 60q0 77 -7 231t-7 231q0 24 17 42.5t41 18.5q65 0 65 -122q0 -85 -4 -255.5t-4 -255.5q36 -10 108 -10h78v43q0 94 -14 282.5t-14 282.5q0 23 17.5 38.5t40.5 15.5q4 0 14 1.5t16.5 1
t14 -4t11.5 -15t4 -31.5q0 -215 19 -644t19 -644z" />
    <glyph glyph-name="i" unicode="i" horiz-adv-x="551" 
d="M280 22q-18 0 -47 -2t-42 -2q-57 0 -76 37q0 30 7.5 46.5t31.5 16.5h58q0 3 2 12.5t2 14.5q0 73 -7 218t-7 217q0 76 5.5 228t5.5 228q0 115 -10 218h-39h-14.5h-17.5h-15q-30 0 -47 11.5t-17 43.5q0 48 111 47h7q263 0 263 -70q0 -11 -12 -38h-105q8 -75 8 -176
q0 -65 -5.5 -195.5t-5.5 -195.5q0 -73 7.5 -218t7.5 -217v-61q0 -18 -7 -55h87q84 0 84 -51q0 -23 -14.5 -39t-32.5 -16q-15 0 -44.5 -0.5t-44.5 -0.5q-5 0 -30.5 -0.5t-46.5 -0.5z" />
    <glyph glyph-name="j" unicode="j" horiz-adv-x="569" 
d="M103 -254l-61 61q132 83 175.5 158t43.5 222q0 175 -9 523t-9 523v9q-3 0 -22 2t-29 3.5t-29.5 5t-31.5 8.5t-25 12t-19 17t-6 22q0 20 23 33.5t44 13.5q42 0 122 -10t161.5 -36.5t81.5 -59.5q0 -22 -16.5 -35t-39.5 -13q-21 0 -59 9.5t-45 10.5v-17q0 -138 10 -413
t10 -413q0 -15 -1.5 -45.5t-1.5 -46.5q0 -30 1.5 -89t1.5 -87q0 -60 -5 -104t-21 -91t-45 -79.5t-79 -57.5t-120 -36z" />
    <glyph glyph-name="k" unicode="k" horiz-adv-x="696" 
d="M603 1289q0 -2 -48.5 -82t-104 -171.5t-67.5 -116.5q0 -21 -2 -61t-2 -61q0 -88 70.5 -329t117.5 -319q6 -9 26.5 -37t30 -49t9.5 -44t-17.5 -38.5t-40.5 -15.5q-48 0 -100 101.5t-92.5 248.5t-65 257.5t-36.5 179.5q-34 -35 -52.5 -93.5t-18.5 -80.5v-561q0 -48 -45 -48
q-31 0 -49.5 17.5t-18.5 47.5v622q0 111 19.5 331.5t19.5 330.5q18 39 61 39q24 0 38.5 -20t14.5 -49q0 -16 -3 -80.5t-7.5 -154t-6.5 -138.5v-107q6 11 75.5 162t130.5 262.5t85 111.5q30 0 54.5 -14t24.5 -41z" />
    <glyph glyph-name="l" unicode="l" horiz-adv-x="522" 
d="M213 545q0 -55 -4 -162t-4 -164q0 -141 69 -141q8 0 37.5 1.5t47.5 1.5q110 0 110 -60q0 -22 -19 -36.5t-43 -17.5q-75 24 -183 24q-33 -19 -70 -19q-24 0 -41 21t-17 46q0 153 10 458t10 457v15q-6 64 -6 192q0 194 71 194q21 0 36.5 -15t15.5 -36q0 -26 -7 -78t-7 -78
q0 -82 3 -246t3 -246q-12 -29 -12 -111z" />
    <glyph glyph-name="m" unicode="m" horiz-adv-x="878" 
d="M766 93q9 -22 9 -39q0 -32 -16 -60t-42 -28q-64 0 -64 128q0 31 1.5 94.5t1.5 94.5q0 199 -4 356q3 93 3 486q-31 -192 -86 -515t-60 -355q-2 -7 -4 -25t-4 -31t-7.5 -30t-12.5 -28t-19 -19t-29 -8q-60 0 -72 88q-16 125 -65.5 439.5t-73.5 423.5q-16 -701 -16 -976
q0 -10 1.5 -31t1.5 -30q0 -33 -13.5 -50.5t-52.5 -17.5q-21 0 -40 14.5t-18 34.5q1 35 23.5 520.5t22.5 731.5q3 52 16 69.5t51 20.5q10 1 18 -3t14.5 -13.5t11 -17.5t8.5 -24.5t6 -25t5 -27t4 -23.5q5 -30 32 -154.5t36 -189.5q56 -328 99 -630q63 337 155 936q0 5 2.5 24
t4 28t5.5 27t7.5 28t10.5 23.5t14.5 20.5t19.5 12.5t25 5.5q27 0 51 -15t24 -41q0 -408 9 -652q1 -31 4.5 -105.5t3.5 -111.5z" />
    <glyph glyph-name="n" unicode="n" horiz-adv-x="769" 
d="M223 278v-232q0 -27 -14 -45.5t-39 -18.5q-67 0 -67 125q0 120 -2 361t-2 361q0 63 6 191t6 191q0 138 75 138q17 0 31.5 -13t22 -27.5t11.5 -28.5q28 -132 97.5 -379.5t95.5 -376.5q19 -63 49 -186.5t47 -185.5q8 444 8 1076q0 8 -1.5 26.5t-1.5 28.5q0 28 10.5 44.5
t40.5 16.5q20 0 36 -12t24 -30.5t8 -37.5q0 -281 -16 -722t-48 -551q-4 -1 -17 -5.5t-19.5 -6t-17 -3.5t-18.5 -2q-27 0 -39 14.5t-18.5 44.5t-11.5 40q-12 47 -67.5 291t-108.5 467.5t-72 282.5v-306q0 -51 6 -247t6 -283z" />
    <glyph glyph-name="o" unicode="o" horiz-adv-x="669" 
d="M193 913q0 -33 -0.5 -98t-0.5 -98q0 -25 1 -59t2.5 -89.5t6 -110t10.5 -115t16 -112t22.5 -94t31 -66.5t39.5 -24q30 0 53 30t37 80.5t24 106t14.5 118.5t6 105t1.5 77q0 21 1.5 93t1.5 118q0 62 -2 114t-8 111.5t-17.5 105t-28 84t-43 59t-60.5 20.5h-4
q-33 0 -55.5 -20.5t-33 -57.5t-14.5 -74t-4 -84q0 -25 1.5 -66t1.5 -54zM329 -38q-45 0 -83 26t-63.5 67.5t-45 100t-30.5 118t-17.5 127t-9 120t-2.5 105.5q0 25 -0.5 66.5t-0.5 58.5v9v14.5v16.5q0 39 1 76t5.5 95t12 107t22.5 103t35 91.5t51 62.5t69 27q24 -8 51.5 -14
t44.5 -9.5t36.5 -12.5t37.5 -28.5t37 -51.5q49 -80 69.5 -199.5t20.5 -239.5v-247q0 -36 -0.5 -68.5t-3.5 -79.5t-8 -86.5t-14 -86t-21 -83.5t-30.5 -72.5t-41.5 -59.5t-54 -38.5t-68 -14.5z" />
    <glyph glyph-name="p" unicode="p" horiz-adv-x="540" 
d="M226 1228v-113q0 -64 -6 -197t-5 -202v-3q124 17 124 346q0 34 -4 60t-15 52.5t-34.5 41.5t-59.5 15zM114 1080q0 121 -17 190q5 26 19.5 49t36.5 23h90q59 0 101.5 -26.5t64.5 -72t32 -94.5t10 -105q0 -44 -0.5 -68.5t-2.5 -61t-6.5 -57.5t-12.5 -50t-19.5 -47
t-29.5 -39.5t-41 -36.5t-54 -29.5t-69 -26.5v-219q0 -65 8 -194t8 -194q0 -26 -18 -43t-44 -17h-50q-12 56 -12 167q0 87 -2.5 261.5t-2.5 262.5q0 30 4 113.5t4 119.5q0 28 1.5 94t1.5 101z" />
    <glyph glyph-name="q" unicode="q" horiz-adv-x="654" 
d="M283 1288q-30 0 -53 -77.5t-33.5 -187t-15 -193.5t-4.5 -131q0 -35 0.5 -62t1.5 -91t4.5 -115t9 -118t15.5 -117t22.5 -95.5t31.5 -70t42 -24.5q27 12 57 12q20 0 44 104.5t40.5 272.5t16.5 331q0 116 -9 212t-29 177.5t-56 127t-85 45.5zM504 -434v2q-111 0 -151 47
q0 23 -1 45.5t-4 48.5t-5.5 44t-7.5 48.5t-7.5 44t-9 48t-8.5 44.5q-58 14 -97.5 39.5t-62 67t-33 86t-17.5 110.5q-22 208 -22 513q0 43 1 82t5.5 104.5t12.5 119t23.5 113.5t37 101t55 68t75.5 27q15 -7 48 -14.5t47 -13.5q39 -19 69 -53t48.5 -80.5t30 -93t17 -105
t7 -101t1.5 -96.5q0 -781 -150 -861q0 -33 5 -73.5t9 -62.5t16 -76.5t14 -64.5q104 0 104 -58q0 -21 -14.5 -35.5t-35.5 -14.5z" />
    <glyph glyph-name="r" unicode="r" horiz-adv-x="557" 
d="M187 520q0 -68 12.5 -226.5t12.5 -207.5q0 -43 -16.5 -67t-37.5 -24q-30 0 -38 41q2 76 2 113q0 184 -17.5 559t-17.5 560q0 97 68 97q107 0 180 -56t73 -160q0 -140 -22 -218t-83 -195q11 -49 38.5 -195.5t54.5 -247.5t66 -186q2 -5 13 -26t16 -35.5t5 -28.5
q0 -21 -12.5 -36.5t-33.5 -15.5q-35 0 -67 63.5t-56 160t-43.5 195.5t-37.5 187.5t-31 117.5q0 -26 -14 -83t-14 -86zM306 1098q0 37 -3 63.5t-12.5 59t-33 50t-59.5 18.5q0 -1 -3.5 -12.5t-3.5 -16.5q0 -84 4 -242.5t4 -230.5q48 25 77.5 130.5t29.5 180.5z" />
    <glyph glyph-name="s" unicode="s" horiz-adv-x="500" 
d="M176 1075q0 -61 18 -122t45.5 -108.5t59 -105t59 -111.5t45.5 -129.5t18 -156.5q0 -61 -12.5 -121t-39 -116t-76 -91.5t-114.5 -36.5v-5q-38 5 -69 25.5t-35 53.5v35q8 -1 32 -5.5t43.5 -7t32.5 -2.5q39 0 68 34t43 85t20.5 96t6.5 81q0 72 -25 146t-61 137.5t-72.5 129
t-61.5 145t-25 161.5q0 44 10.5 92t31 95t58 77.5t85.5 30.5q36 0 68.5 -23t32.5 -58q0 -19 -15.5 -29t-34.5 -10q-22 0 -43 12q-24 -1 -43 -24t-29.5 -56.5t-15.5 -64.5t-5 -53z" />
    <glyph glyph-name="t" unicode="t" horiz-adv-x="552" 
d="M283 260q-8 26 -33 462.5t-27 532.5q-118 3 -153 26q-21 14 -21 35q0 19 22 31.5t43 12.5q46 0 139 -9.5t139 -9.5q5 0 16 0.5t17 0.5q64 0 64 -49q0 -25 -21 -40.5t-47 -15.5q-19 0 -53 6.5t-41 7.5q0 -1 -2 -9t-2 -12q0 -194 34 -581t34 -582q0 -25 -18.5 -43
t-43.5 -18h-46q0 26 -2 92t-2 92q0 13 2 38t2 32z" />
    <glyph glyph-name="u" unicode="u" horiz-adv-x="698" 
d="M583 878q-9 -44 -14 -138.5t-7.5 -189.5t-15.5 -202.5t-35 -189t-70.5 -135.5t-118.5 -54q-49 0 -87 21.5t-62 62t-40 87t-24 107.5t-11 113t-3 113q0 113 5.5 280t5.5 260q0 177 -25 293v49q49 0 77.5 -38t28.5 -85v-991q0 -79 39.5 -144.5t116.5 -65.5q87 0 116 506v9
t0.5 6.5t0.5 6.5q26 462 26 748q0 6 -0.5 17.5t-0.5 16.5q0 24 11 36t45 12q28 0 43 -17t17.5 -34.5t2.5 -47.5q0 -35 -7 -104t-7 -102q0 -28 -4.5 -85t-4.5 -86q0 -6 1 -17.5t1 -17.5z" />
    <glyph glyph-name="v" unicode="v" horiz-adv-x="732" 
d="M373 247q16 81 40 285q19 166 77.5 471.5t70.5 374.5h46q3 0 11 -1t11.5 -1.5t9.5 -2.5t8.5 -4.5t4.5 -7t2 -10.5q0 -79 -20.5 -170t-49 -192.5t-39.5 -167.5q-10 -63 -22 -188t-21 -184q-6 -38 -25.5 -110.5t-25.5 -108.5q-3 -15 -5.5 -53.5t-6.5 -68.5t-13.5 -62.5
t-30.5 -51t-53 -18.5l-46 31q0 249 -47.5 508t-134.5 595q-4 16 -19.5 63t-26 86.5t-10.5 59.5q0 19 15.5 33t34.5 14q22 0 39 -17t27 -48t16 -57.5t11.5 -61t7.5 -43.5q104 -474 164 -892z" />
    <glyph glyph-name="w" unicode="w" horiz-adv-x="841" 
d="M719 1046q2 41 9.5 93.5t15 102.5t8.5 87q0 23 -14.5 35.5t-37.5 12.5q-63 0 -63 -50q0 -17 7 -35q0 -52 -15.5 -154t-15.5 -154q0 -391 -34 -677q-12 93 -26 265t-32 311t-50 260v17q0 24 -16 37t-39 13h-55q-2 -38 -14 -163t-12 -189q0 -47 -3 -99t-6 -90.5t-11 -101.5
t-12 -90.5t-15 -100.5t-14 -93q-5 140 -48 444.5t-43 467.5q0 134 -66 134q-42 0 -59 -36q20 -45 31.5 -106.5t14.5 -108.5t6 -121t5 -107q5 -62 22.5 -175.5t22.5 -152.5q2 -17 4.5 -90.5t8 -147.5t15.5 -151.5t31.5 -126.5t52.5 -49q22 0 38.5 24.5t26 68t15 78.5t9 82
t4.5 52q7 56 25.5 175.5t28.5 211.5t10 177q0 48 6 116q15 -108 30 -312t25 -293q4 -37 14.5 -98t17.5 -114t7 -100q0 -22 4 -41.5t16 -36t32 -16.5q75 0 75 208q0 24 3 46.5t10 55.5t9 45q41 233 41 610v150z" />
    <glyph glyph-name="x" unicode="x" horiz-adv-x="531" 
d="M210 660q0 58 -52 291.5t-76 267.5v22q-17 17 -17 51q0 20 19.5 31t41.5 11q24 0 38.5 -16.5t18 -35t6.5 -48.5t5 -40q9 -44 33 -145t35 -155q4 24 19.5 106t23 137.5t7.5 100.5q0 41 16 73t46 29q14 -1 21.5 -8t9 -22t1 -28.5t-2 -38t-1.5 -41.5v-93q-26 -70 -59 -232.5
t-33 -230.5q0 -73 36.5 -195.5t73 -235t36.5 -161.5q0 -22 -16.5 -36.5t-38.5 -14.5q-23 0 -47 14q-14 63 -47 202.5t-48 213.5q-5 -28 -18 -152t-32 -188q1 -7 1 -24q0 -76 -53 -76q-23 0 -42.5 12.5t-19.5 34.5q0 71 18 157t39.5 153t39.5 153t18 157z" />
    <glyph glyph-name="y" unicode="y" horiz-adv-x="580" 
d="M379 109q0 -29 -1.5 -46.5t-6.5 -41.5t-19 -36.5t-36 -12.5q-37 0 -57 45q23 45 23 347q0 57 -8 160.5t-9 139.5q-40 69 -123.5 317.5t-83.5 306.5v11l46 34q35 -1 73.5 -90.5t76.5 -227t38 -138.5q8 22 32 152.5t56 231.5t72 101q19 0 34.5 -12t15.5 -31
q0 -67 -19 -148.5t-42.5 -146t-42.5 -147t-19 -151.5v-617z" />
    <glyph glyph-name="z" unicode="z" horiz-adv-x="550" 
d="M302 111v1q83 0 83 -50q0 -25 -22 -37.5t-49 -12.5q-20 0 -60.5 3t-60.5 3q-13 0 -36 -11t-37 -11q-22 0 -38.5 15t-16.5 37q0 30 11.5 79.5t34.5 125t25 82.5q16 56 38.5 163t34.5 153q18 69 59.5 189t68.5 221t31 195q-24 -1 -80 -6.5t-87 -5.5q-22 0 -37.5 17.5
t-15.5 39.5q0 58 208 58h7q22 0 35 -1t33.5 -5.5t31.5 -17.5t11 -33q0 -72 -44.5 -195.5t-52.5 -173.5q-18 -110 -66 -263t-86.5 -296t-43.5 -267h35q14 0 43 2t43 2z" />
    <glyph glyph-name="braceleft" unicode="{" horiz-adv-x="600" 
d="M399 -48q-116 0 -159 62.5t-43 183.5v423q0 38 -10.5 61t-26 29t-33.5 9t-33.5 3.5t-26 10.5t-10.5 32q0 27 14.5 38t34.5 12t40.5 5.5t35 27t14.5 67.5q0 17 -5 94.5t-5 119.5q0 74 13 96q-5 30 -5 54q0 94 53 154.5t152 60.5q23 0 53 -4.5t60 -19.5t30 -36
q0 -22 -17.5 -34t-39.5 -12q-17 0 -50 9.5t-51 9.5q-98 0 -98 -251q0 -22 4 -95t4 -115q0 -132 -36 -179q37 -46 37 -146v-430q0 -24 0.5 -41.5t5.5 -40t14 -37t26.5 -24.5t42.5 -10q21 0 60.5 11.5t60.5 11.5q8 0 12.5 -17.5t4.5 -28.5q0 -24 -24 -39.5t-49.5 -20
t-49.5 -4.5z" />
    <glyph glyph-name="bar" unicode="|" horiz-adv-x="341" 
d="M124 114q0 233 -7 698.5t-7 697.5q0 74 71 74q18 0 30 -16t12 -35q0 -193 3.5 -577.5t3.5 -576.5v-408q0 -21 -17 -36t-38 -15q-51 0 -51 194z" />
    <glyph glyph-name="braceright" unicode="}" horiz-adv-x="595" 
d="M203 1495q114 0 158 -63t44 -183v-373q0 -45 13.5 -68.5t32.5 -28t38 -5.5t32.5 -10t13.5 -33q0 -27 -13.5 -38t-32 -12t-37.5 -5t-32.5 -27t-13.5 -68q0 -15 4 -107t4 -144q0 -91 -11 -109q4 -25 4 -55q0 -94 -52.5 -154t-151.5 -60q-23 0 -53 4.5t-60 19.5t-30 36
q0 22 17.5 34t39.5 12q17 0 50 -9.5t51 -9.5q98 0 98 250q0 24 -5 109.5t-5 135.5q0 147 38 195q-37 47 -37 146q0 12 5 101.5t5 150.5q0 281 -99 281q-21 0 -60.5 -11.5t-60.5 -11.5q-8 0 -12.5 17.5t-4.5 28.5q0 24 24 39.5t49.5 20t49.5 4.5z" />
    <glyph glyph-name="exclamdown" unicode="&#xa1;" horiz-adv-x="346" 
d="M161 1250q27 0 41.5 -61t14.5 -115q0 -180 20.5 -538.5t20.5 -537.5q0 -21 -14.5 -35.5t-35.5 -14.5q-33 0 -60 23.5t-27 55.5q0 112 5 336t5 336q0 53 -4 167t-4 172q0 110 10 184q9 28 28 28zM159 1395q-33 0 -59 26.5t-26 59.5v6q4 85 78 85q40 0 65.5 -19.5
t25.5 -58.5q0 -41 -22.5 -70t-61.5 -29z" />
    <glyph glyph-name="cent" unicode="&#xa2;" horiz-adv-x="666" 
d="M520 1140v-5q0 -17 -13.5 -34t-30.5 -17q-22 0 -40.5 16.5t-27.5 39.5h-58q40 -531 56 -712q1 -4 -0.5 -13t-1.5 -12q0 -4 2 -12q28 1 50 10.5t42 30.5t29.5 34t30.5 45q59 0 59 -60q0 -53 -75 -99t-137 -51v-79q0 -32 7 -97t7 -97q0 -20 -14.5 -34t-33.5 -14
q-2 2 -7 8.5t-6 8.5t-5 7t-4.5 7.5t-3 7.5t-3 9t-1.5 10t-1.5 12.5t-0.5 14.5q0 23 -4 68.5t-4 68.5q0 25 -7 111q-44 16 -78.5 35.5t-59 44.5t-42.5 48t-29 57t-17.5 59.5t-9.5 68.5t-3.5 71.5t-0.5 79.5q0 64 1.5 105.5t10.5 104.5t25.5 106.5t49.5 88t79 72.5
q-1 13 -4.5 36t-5.5 42t-2 36q0 88 54 88q25 -16 29.5 -29.5t4.5 -55.5q0 -39 10 -117q9 -3 33.5 -9.5t39.5 -11t37.5 -14t36.5 -19.5t24.5 -25.5t12.5 -34.5zM262 1150q-42 -55 -60.5 -160t-18.5 -200q0 -362 144 -384q-11 221 -65 744z" />
    <glyph glyph-name="sterling" unicode="&#xa3;" horiz-adv-x="764" 
d="M293 1539v-20q-21 -25 -54.5 -119t-33.5 -130q0 -204 19 -294q32 1 100 13.5t105 12.5q21 0 36.5 -14.5t15.5 -35.5q0 -22 -19 -36.5t-50 -20t-61 -7.5t-62.5 -2.5t-43.5 -2.5q11 -60 40 -158.5t48 -185t19 -161.5q0 -21 -2.5 -42t-8.5 -45t-10 -38.5t-13.5 -43.5
t-12.5 -40q39 -3 127.5 -23.5t137.5 -20.5q54 0 93 19l49 -35q0 -82 -106 -82q-19 0 -53.5 3.5t-46.5 3.5h-66q-98 37 -134 37q-25 0 -87 -25t-97 -44v4q-22 2 -40 14t-18 33q0 31 21.5 49t57.5 31.5t50 24.5q31 24 46.5 95t15.5 129q0 76 -15.5 152.5t-48.5 185.5t-43 147
q-19 3 -31.5 17.5t-12.5 33.5q0 32 27 48q-1 42 -13 133t-12 139q0 36 2.5 77t11.5 100.5t23.5 105t42.5 78.5t65 33h65q37 0 77.5 -42.5t65 -96.5t24.5 -90v-9l-32 -35q-11 0 -20 1t-16 4.5l-11 5.5t-9.5 10t-7.5 10.5t-8.5 15t-8.5 16.5v37q-12 24 -18 50q-23 25 -59 30z
" />
    <glyph glyph-name="currency" unicode="&#xa4;" horiz-adv-x="899" 
d="M235 696q0 -4 2.5 -13t2.5 -14q0 -14 -2.5 -41.5t-2.5 -42.5q0 -117 56 -164q0 -62 44 -89t112 -27q56 0 100 36.5t69 89.5t41 121.5t21 123t5 103.5q0 58 -19 160t-44 132q-22 4 -37 21.5t-17 39.5q-46 49 -128 49q-18 0 -56 -30t-55 -51v-14q0 -4 0.5 -16t0.5 -18
t-2 -15.5t-5.5 -14.5t-10.5 -9t-17 -4q-18 0 -38 -122t-20 -191zM684 251v42q-49 -42 -125.5 -65t-148.5 -23q-100 0 -189 85q-26 -56 -43 -72q-20 -17 -43 -17q-31 0 -47.5 21.5t-16.5 53.5q0 17 16.5 38.5t39.5 44t30 33.5q-32 60 -32 175q0 404 72 511q-6 12 -51.5 57.5
t-45.5 73.5q0 19 14.5 32.5t33.5 13.5q9 0 18.5 -2.5t16.5 -5t15.5 -9.5t13 -10.5t13 -13.5t11 -13t11.5 -15t10 -14q2 2 25.5 28.5t37 40.5t35.5 29t37 15q120 0 231 -69q8 10 31.5 51t46 62.5t53.5 21.5l53 -47q-2 -27 -25.5 -62.5t-46.5 -63.5t-23 -37q0 -60 45 -181.5
t45 -187.5q0 -64 -33.5 -187.5t-33.5 -188.5q0 -30 38.5 -74t38.5 -75q0 -21 -14.5 -36.5t-35.5 -15.5q-29 0 -52 14.5t-26 41.5z" />
    <glyph glyph-name="yen" unicode="&#xa5;" horiz-adv-x="938" 
d="M106 1774q44 0 125 -115.5t171.5 -278.5t97.5 -173q9 23 41 135.5t62.5 214.5t72.5 188.5t75 86.5q23 0 40.5 -15.5t17.5 -38.5v-10q-16 -44 -58 -155.5t-69 -191.5t-47 -159q-8 -31 -31 -98t-31 -105q9 0 76 3.5t102 3.5q127 0 127 -61q0 -48 -113 -48h-198v-70
q10 0 79 1t117 1q110 0 110 -69q0 -17 -17.5 -28.5t-38.5 -11.5q-105 0 -255 -4q0 -104 -15.5 -315t-15.5 -319q0 -7 0.5 -23t0.5 -25q0 -46 -14 -74t-55 -28q-24 0 -43.5 12.5t-19.5 35.5v5q17 44 29.5 320t12.5 408h-236q-28 1 -45 21t-17 44q0 29 24 37q135 0 282 8
q2 24 2 75h-148q-131 0 -131 52q0 47 81 47q17 0 50.5 -2.5t48.5 -2.5q52 0 98 7v12q-32 50 -107.5 182.5t-151 254.5t-139.5 197q-9 18 -9 32q0 37 62 37z" />
    <glyph glyph-name="brokenbar" unicode="&#xa6;" horiz-adv-x="331" 
d="M159 695q61 0 61 -74v-637q0 -64 -49 -64q-21 0 -36.5 15t-15.5 36v673q0 20 11 35.5t29 15.5zM114 1020q0 82 -4 245.5t-4 244.5q0 74 71 74q43 0 43 -191v-516q0 -21 -17 -36t-38 -15q-51 0 -51 194z" />
    <glyph glyph-name="section" unicode="&#xa7;" horiz-adv-x="505" 
d="M430 634q0 -52 -23.5 -97t-65.5 -72q74 -116 74 -219q0 -56 -19.5 -111t-62.5 -94.5t-99 -39.5q-35 0 -67 23.5t-32 57.5q0 19 15.5 29t34.5 10q20 0 41 -12q41 1 65 51t24 97q0 46 -17.5 92t-44.5 82.5t-57.5 81t-57.5 86t-44.5 100t-17.5 121.5q0 58 23.5 111.5
t67.5 86.5q-58 120 -58 257q0 168 163 168q29 0 64 -13t35 -38q0 -23 -18.5 -31.5t-45 -9t-53.5 -2.5t-45.5 -19.5t-18.5 -52.5q0 -63 24.5 -124.5t60 -114.5t71 -109.5t60 -133t24.5 -161.5zM330 649q0 19 -3 39t-6.5 35.5t-12.5 37t-14 33t-18.5 35t-18 31.5t-20.5 34
t-19 31q-42 -54 -42 -130q0 -44 18 -91.5t36.5 -77t52.5 -77.5q47 42 47 100z" />
    <glyph glyph-name="dieresis" unicode="&#xa8;" horiz-adv-x="754" 
d="M517 1023q0 29 22 52t51 23q27 0 47.5 -22.5t20.5 -50.5q0 -31 -23 -51t-54 -20q-26 0 -45 21t-19 48zM156 954q-28 0 -43.5 19t-15.5 48q0 31 20 52.5t50 21.5q29 0 50 -20t21 -49q0 -30 -25.5 -51t-56.5 -21z" />
    <glyph glyph-name="copyright" unicode="&#xa9;" horiz-adv-x="1233" 
d="M622 332q36 0 66.5 17t47.5 37t40 37t47 17q29 0 44.5 -20.5t15.5 -47.5q0 -41 -46 -76.5t-102.5 -53t-100.5 -17.5q-338 0 -338 588v12q0 46 0.5 77t3.5 89t8 99.5t15.5 98t25 97t37.5 83t52 69.5t69.5 44t88.5 17q86 0 176 -73.5t90 -150.5q0 -21 -15.5 -36.5
t-39.5 -15.5q-30 0 -53 17t-37.5 41t-28.5 48t-34.5 41t-47.5 17q-56 0 -101 -85.5t-68 -215.5t-23 -271q0 -96 12 -180.5t36 -153.5t65 -109t95 -40zM204 940q0 -52 3 -107.5t8.5 -130.5t7.5 -107q11 -190 33 -273q50 -192 211 -231q43 -10 94 -10q202 0 316 99.5
t163 283.5v430q0 34 -7 71.5t-19 85t-17 70.5q-18 88 -39 155t-55 140.5t-87 134t-124 107.5q-81 55 -130 55q-66 0 -120 -32t-90 -82.5t-64 -121t-43.5 -140.5t-25 -148.5t-12.5 -136t-3 -112.5zM87 924q0 70 3.5 139.5t15.5 160.5t31.5 169.5t54 157.5t80 135t113.5 91
t150 35q105 0 194 -40.5t151.5 -107.5t111.5 -158.5t79 -187t49 -200.5t26.5 -192.5t7.5 -168.5q0 -777 -565 -777q-284 0 -392 179q-68 111 -88 342q-4 47 -10 159q-12 211 -12 264z" />
    <glyph glyph-name="guillemotleft" unicode="&#xab;" horiz-adv-x="728" 
d="M471 1440q-47 -108 -139.5 -365t-154.5 -388q11 -54 69.5 -166t121.5 -216t114.5 -198t51.5 -120q0 -22 -20.5 -34t-43.5 -12q-21 0 -121 169.5t-191.5 356.5t-91.5 230q0 23 55.5 163t125 306.5t80.5 194.5q3 27 22 64t39 58v2q2 0 9 2t10 2q24 0 43.5 -13t20.5 -36z
M640 -22q-28 0 -40 4q-32 10 -360 716q2 56 106 282t118 275q1 4 8 33.5t14 51.5t18.5 49.5t26.5 42.5t32 15q1 0 3 -0.5t4 -0.5l45 -35q-9 -72 -51.5 -178.5t-88 -195.5t-82 -184t-36.5 -151q0 -15 137.5 -292t173.5 -341q-1 -9 0 -21t0 -24t-3 -22.5t-8.5 -17t-16.5 -6.5z
" />
    <glyph glyph-name="logicalnot" unicode="&#xac;" horiz-adv-x="993" 
d="M150 711q-21 0 -36 15.5t-15 36.5q0 72 218 72q45 0 107.5 -3.5t69.5 -3.5q54 0 161 10t162 10q25 0 46 -17t21 -41q0 -37 -19 -70q0 -108 24 -183q-3 -24 -17.5 -43t-36.5 -19q-63 0 -63 117q0 14 1 37t1 30q0 41 -5 68q-10 0 -35 3t-38 3q-89 0 -270.5 -11t-275.5 -11z
" />
    <glyph glyph-name="uni00AD" unicode="&#xad;" horiz-adv-x="648" 
d="M546 739q0 -25 -48.5 -43.5t-119.5 -26t-122 -10.5t-85 -3q-26 0 -46.5 17t-20.5 42t48.5 43t119 26t122 11t84.5 3q26 0 47 -16.5t21 -42.5z" />
    <glyph glyph-name="registered" unicode="&#xae;" horiz-adv-x="1161" 
d="M566 1525q-61 0 -83 -30.5t-22 -87.5q0 -21 4 -70t4 -74q0 -173 23 -263q87 37 132.5 106t45.5 166v26t-0.5 29t-2 33.5t-3.5 32.5t-6 34t-9.5 30.5t-13.5 27.5t-17.5 20.5t-23 15t-28.5 4.5zM862 199q0 -18 -19 -37t-36 -19q-33 0 -67 67.5t-62.5 171.5t-52.5 208.5
t-45 199.5t-32 124h-53q-5 -80 -5 -118q0 -98 22 -293t22 -293q0 -29 -13.5 -48t-41.5 -19t-50.5 18.5t-22.5 46.5q0 43 -17 130.5t-17 131.5v984q0 56 10.5 91.5t35 55t57.5 27t85 7.5q41 0 75 -12t57 -31.5t40.5 -49t28 -60t16.5 -69t8 -71.5t2 -72q0 -69 -13 -121.5
t-32 -81t-37.5 -46.5t-34 -30.5t-18.5 -21.5q3 -76 175 -655q0 -22 17.5 -58.5t17.5 -56.5zM963 706q0 403 -30 619q-70 506 -309 507q-63 0 -117 -21t-93 -56t-70.5 -87.5t-52.5 -106.5t-36.5 -123t-23.5 -128t-13 -130t-6 -120t-1 -106q0 -774 134 -927q20 -23 65 -52.5
t57 -38.5h59v-20q83 1 150 30t112 74t78 112.5t51 133.5t29 149.5t14 148.5t3 142zM613 -190q-103 0 -184.5 33.5t-135 84.5t-92.5 133.5t-59.5 158.5t-32 182.5t-14 182.5t-2.5 180v68q-3 52 -1 115.5t2.5 133.5t8.5 144t18 147t31 143.5t47 133.5t66 115.5t88 91t113.5 60
t142.5 21.5q85 0 163.5 -52t134.5 -131q35 -21 64.5 -112t48.5 -208t32.5 -246.5t19 -228t5.5 -153.5q0 -102 -1 -163.5t-10 -179t-25.5 -194t-50.5 -172t-82 -152t-123.5 -96.5t-171.5 -40z" />
    <glyph glyph-name="macron" unicode="&#xaf;" horiz-adv-x="652" 
d="M548 749q0 -45 -66 -45q-4 0 -56.5 -2t-91.5 -2q-228 0 -228 56q0 44 90 44q4 0 55 2t89 2q208 0 208 -55z" />
    <glyph glyph-name="degree" unicode="&#xb0;" horiz-adv-x="704" 
d="M334 901q-59 0 -96 -38t-49.5 -87.5t-12.5 -110.5q0 -48 48.5 -99t109.5 -51q50 0 88.5 16.5t60.5 41t36 55.5t18.5 55.5t4.5 45.5q0 27 -9.5 54t-31 55t-65 45.5t-102.5 17.5zM99 731q0 103 63 171t163 68q65 0 116.5 -16.5t82.5 -41.5t51 -58t27.5 -62.5t7.5 -58.5
t-6.5 -63t-26 -76.5t-49.5 -76t-82.5 -56.5t-119.5 -23q-66 0 -113 29t-70.5 76t-33.5 93.5t-10 94.5z" />
    <glyph glyph-name="plusminus" unicode="&#xb1;" horiz-adv-x="745" 
d="M417 909v-25q0 -6 -0.5 -30.5t0 -48t1.5 -48.5t5.5 -40.5t12.5 -15.5q10 0 51.5 4t67.5 4q106 0 106 -62q0 -24 -17 -40t-41 -16q-21 0 -61 5.5t-60 5.5q-65 0 -65 -49q0 -27 9.5 -81.5t9.5 -82.5q0 -25 -20.5 -40.5t-46.5 -15.5q-24 0 -45 14.5t-21 37.5q0 33 3 99.5
t3 99.5v15q-13 0 -62 -4.5t-71 -4.5q-87 0 -87 65q0 21 12.5 37t33.5 16q20 0 60.5 -3.5t60.5 -3.5q26 0 47 4q-1 21 -6.5 72t-5.5 78q0 113 66 113q24 0 42 -17.5t18 -41.5zM89 200q0 21 12.5 33.5t33.5 12.5h427q22 0 34 -1t30 -5.5t26.5 -16.5t8.5 -31q0 -24 -16.5 -35.5
t-41.5 -11.5q-72 0 -216.5 -5t-215.5 -5q-82 0 -82 65z" />
    <glyph glyph-name="uni00B2" unicode="&#xb2;" horiz-adv-x="578" 
d="M278 1586v1q36 0 65.5 -8.5t51 -21.5t38 -36t27.5 -43t18.5 -52t11 -55t5.5 -59t2.5 -56t0.5 -55q0 -177 -44.5 -400.5t-113.5 -378.5q-12 -28 -72 -147.5t-83 -188.5q124 21 232 21q50 -12 50 -46q0 -24 -24 -57q-52 0 -156 -9.5t-156 -9.5q-29 0 -52 17t-23 45v8
q26 31 45 71.5t37.5 93.5t30.5 79q117 259 174 475t57 462q0 256 -98 264q-18 -10 -29.5 -39.5t-16 -58.5t-19.5 -52t-41 -23q-50 0 -50 63q0 41 13 84t44.5 77.5t74.5 34.5z" />
    <glyph glyph-name="uni00B3" unicode="&#xb3;" horiz-adv-x="600" 
d="M234 865v24q0 20 19 48t41.5 54.5t41 70t18.5 88.5q0 35 -4 81t-14 106t-33.5 100t-55.5 40q-25 0 -41.5 -18.5t-23.5 -40t-24.5 -40t-45.5 -18.5q-23 0 -39 16.5t-20 39.5q28 69 78.5 113t119.5 44q59 0 106 -51q44 -1 71.5 -156t27.5 -242q0 -30 -9.5 -59t-19 -44.5
t-32.5 -48.5t-31 -45q49 -29 84.5 -100.5t53 -160t25.5 -164.5t8 -141q0 -45 -2 -80.5t-8.5 -83.5t-21 -83t-37 -67.5t-59 -49.5t-84.5 -17q-32 0 -64.5 8.5t-59.5 31.5t-27 56v13h34q11 -2 28.5 -3.5t26.5 -2.5t21.5 -6t24.5 -13q125 5 125 230q0 93 -2.5 148.5t-13.5 137
t-38 148t-71 121.5q-4 -1 -13 -1q-22 0 -60 17z" />
    <glyph glyph-name="acute" unicode="&#xb4;" horiz-adv-x="530" 
d="M90 1339v2q1 24 55.5 70.5t126 97t86.5 64.5q32 0 55 -13.5t23 -42.5q0 -1 -9 -49q-66 -27 -142.5 -79.5t-125.5 -103.5q-29 0 -49 13.5t-20 40.5z" />
    <glyph glyph-name="mu" unicode="&#xb5;" horiz-adv-x="686" 
d="M535 878q-9 -44 -14 -138t-7 -189t-14.5 -202.5t-34 -189t-69 -135.5t-116.5 -55q-64 0 -109 42q3 -89 3 -177q0 -82 -63 -82q-21 0 -33.5 12.5t-12.5 33.5v301q0 58 -3.5 187t-3.5 189v9q0 110 5.5 274t5.5 255q0 177 -25 293v49q49 0 77.5 -38t28.5 -85v-991
q0 -49 14 -94.5t49 -80.5t86 -35q39 0 67 121t37 233t9 174q0 124 13 373.5t13 374.5q0 6 -0.5 17.5t-0.5 16.5q0 24 11 36t45 12q28 0 43 -17t17.5 -34.5t2.5 -47.5q0 -35 -7 -104t-7 -102q0 -28 -4.5 -85t-4.5 -86q0 -6 1 -17.5t1 -17.5z" />
    <glyph glyph-name="mu" unicode="&#x3bc;" horiz-adv-x="686" 
d="M535 878q-9 -44 -14 -138t-7 -189t-14.5 -202.5t-34 -189t-69 -135.5t-116.5 -55q-64 0 -109 42q3 -89 3 -177q0 -82 -63 -82q-21 0 -33.5 12.5t-12.5 33.5v301q0 58 -3.5 187t-3.5 189v9q0 110 5.5 274t5.5 255q0 177 -25 293v49q49 0 77.5 -38t28.5 -85v-991
q0 -49 14 -94.5t49 -80.5t86 -35q39 0 67 121t37 233t9 174q0 124 13 373.5t13 374.5q0 6 -0.5 17.5t-0.5 16.5q0 24 11 36t45 12q28 0 43 -17t17.5 -34.5t2.5 -47.5q0 -35 -7 -104t-7 -102q0 -28 -4.5 -85t-4.5 -86q0 -6 1 -17.5t1 -17.5z" />
    <glyph glyph-name="paragraph" unicode="&#xb6;" horiz-adv-x="935" 
d="M697 1859v-1h54v-4q43 -2 87.5 -17.5t44.5 -46.5q0 -55 -80 -51q0 -95 7 -294.5t7 -302.5q0 -146 -6 -438.5t-6 -438.5q0 -38 6 -114.5t6 -114.5q0 -24 -17 -40t-41 -16q-74 0 -74 123q0 179 9 537t9 537q0 75 -7 223t-7 223q0 9 1.5 31.5t1.5 34.5q0 80 -60 80
q-8 0 -8 -80q0 -119 12.5 -355t12.5 -354q0 -153 -18 -458t-18 -458q0 -36 -12.5 -54t-46.5 -18q-27 0 -44.5 18.5t-17.5 45.5q0 152 21.5 454t21.5 454q0 26 -2 72.5t-2 61.5q-61 0 -109.5 3.5t-110 17t-105.5 36t-80.5 65.5t-49.5 101q-1 5 -4.5 28t-8.5 35q0 90 13 158.5
t42.5 118t68 83t97.5 55.5t122.5 34.5t151.5 20.5q22 22 62 22q15 0 44 -8t33 -9zM433 1748q-106 0 -181 -92.5t-76 -200.5q0 -57 11.5 -99.5t34.5 -70.5t51.5 -46t70 -27t81 -12.5t93.5 -3.5q2 0 4.5 0.5t6 2t4.5 1.5q0 83 -10 248.5t-10 248.5v43q-27 8 -80 8z" />
    <glyph glyph-name="periodcentered" unicode="&#xb7;" horiz-adv-x="361" 
d="M106 706q0 31 23 55t54 24q29 0 51 -24t22 -53q0 -34 -23 -54.5t-58 -20.5q-28 0 -48.5 22.5t-20.5 50.5z" />
    <glyph glyph-name="cedilla" unicode="&#xb8;" horiz-adv-x="461" 
d="M112 -157q19 38 19 112v47h112q-11 -57 -13 -93q78 -15 113.5 -78t35.5 -149q0 -67 -56 -126.5t-123 -59.5q-42 0 -77 20.5t-35 58.5q0 18 14 31t32 13q37 0 66 -20q15 1 30.5 22.5t15.5 37.5t-3.5 32.5t-10.5 37.5t-9 31l35 -35v9q0 36 -17 52q-33 -5 -47 -5
q-26 0 -42 12.5t-40 49.5z" />
    <glyph glyph-name="uni00B9" unicode="&#xb9;" horiz-adv-x="602" 
d="M464 102v1q86 0 86 -51q0 -60 -233 -60q-16 0 -33 -0.5t-28 -0.5q-38 0 -60.5 11t-22.5 45v44q65 -5 72 -5q45 0 45 34q0 310 -35 804q-3 43 -10.5 121t-12 142t-4.5 121q0 10 1.5 35.5t1.5 39.5q0 96 -71 96q-6 0 -22 -1t-25 -1q-58 0 -58 44q0 54 165 54q22 0 35 -1.5
t30 -9.5t25 -23q-4 -7 -0.5 -43t3.5 -43q0 -63 15.5 -188t15.5 -188q0 -161 22.5 -484.5t22.5 -485.5v-13q8 1 23.5 2.5t28 2.5t23.5 1z" />
    <glyph glyph-name="guillemotright" unicode="&#xbb;" horiz-adv-x="755" 
d="M363 1486v-1q22 -22 42 -58t24 -64q10 -26 80 -194t125 -307t55 -162q0 -42 -91.5 -229.5t-191 -357t-120.5 -169.5q-24 0 -44.5 12t-20.5 34q0 26 51.5 120t114.5 198t122 215.5t70 165.5q-37 77 -73.5 185t-62 194t-67.5 187.5t-93 177.5q2 25 20.5 41t44.5 16
q2 0 4.5 -0.5t6 -2t4.5 -1.5zM155 -19q-7 0 -21 -2t-21 -2q-25 0 -39 22.5t-15 49.5q70 129 202.5 384t132.5 269q0 57 -26.5 131.5t-64 148t-75 147.5t-64 149.5t-27.5 132.5l45 35v-2q21 -10 36.5 -24t27.5 -39.5t16.5 -37t14.5 -48t11 -40.5q14 -50 118 -274t106 -283z
" />
    <glyph glyph-name="onequarter" unicode="&#xbc;" horiz-adv-x="1561" 
d="M461 102v1q83 0 83 -51q0 -60 -227 -60q-16 0 -33 -0.5t-28 -0.5q-38 0 -60.5 11t-22.5 45v44q65 -5 72 -5q45 0 45 34q0 310 -35 804q-3 43 -10.5 121t-12 142t-4.5 121q0 10 1.5 35.5t1.5 39.5q0 96 -71 96q-6 0 -22 -1t-25 -1q-58 0 -58 44q0 54 165 54q22 0 35 -1.5
t30 -9.5t25 -23q-4 -7 -0.5 -43t3.5 -43q0 -63 15.5 -188t15.5 -188q0 -161 22.5 -484.5t22.5 -485.5v-13q8 1 22.5 2.5t26.5 2.5t23 1zM609 30q0 136 63 407t146 579.5t107 436.5q0 2 3 17l4.5 22.5t6 21t9.5 20.5t13.5 13t18.5 6q21 0 36.5 -14t15.5 -36q0 -29 -6.5 -61
t-18 -72t-15.5 -59q-134 -599 -222 -1019q-1 -5 -9.5 -54.5t-16.5 -86.5t-21.5 -83.5t-31.5 -72.5t-38 -26q-44 29 -44 61zM1196 480v-1q-39 0 -81 33q0 46 9 79q-9 48 -9 115q0 70 15.5 211t15.5 207v379q0 13 2 20.5t11 13.5t26 6q23 0 41.5 -14t18.5 -37q0 -26 -4.5 -79
t-4.5 -80q0 -42 8 -74v-7q1 -9 1 -109q0 -87 -14 -260.5t-14 -260.5q0 -24 3 -46q33 1 73 11q-1 198 -14 413q-1 23 -9 76.5t-8 83.5q0 21 20 33.5t43 12.5l42 -36v-62.5v-66.5t0.5 -61.5t1 -66.5t1.5 -61.5t3 -66.5t5 -61t6.5 -66t8.5 -62q3 0 24.5 2.5t34.5 2.5
q61 0 61 -44q0 -30 -17.5 -40t-49.5 -10q-48 0 -48 -18q0 -299 15 -334q-4 -24 -4 -38q0 -25 10 -41v-37q0 -29 -11.5 -53t-37.5 -24q-31 0 -46 31.5t-15 65.5v7q7 24 7 74q0 34 -7.5 100t-7.5 99q0 49 8 89q0 35 -4 63q-16 -1 -52.5 -6t-56.5 -5z" />
    <glyph glyph-name="onehalf" unicode="&#xbd;" horiz-adv-x="1610" 
d="M461 102v1q83 0 83 -51q0 -60 -227 -60q-16 0 -33 -0.5t-28 -0.5q-38 0 -60.5 11t-22.5 45v44q65 -5 72 -5q45 0 45 34q0 310 -35 804q-3 43 -10.5 121t-12 142t-4.5 121q0 10 1.5 35.5t1.5 39.5q0 96 -71 96q-6 0 -22 -1t-25 -1q-58 0 -58 44q0 54 165 54q22 0 35 -1.5
t30 -9.5t25 -23q-4 -7 -0.5 -43t3.5 -43q0 -63 15.5 -188t15.5 -188q0 -161 22.5 -484.5t22.5 -485.5v-13q8 1 22.5 2.5t26.5 2.5t23 1zM609 30q0 136 63 407t146 579.5t107 436.5q0 2 3 17l4.5 22.5t6 21t9.5 20.5t13.5 13t18.5 6q21 0 36.5 -14t15.5 -36q0 -29 -6.5 -61
t-18 -72t-15.5 -59q-134 -599 -222 -1019q-1 -5 -9.5 -54.5t-16.5 -86.5t-21.5 -83.5t-31.5 -72.5t-38 -26q-44 29 -44 61zM1310 1586v1q36 0 65.5 -8.5t51 -21.5t38 -36t27.5 -43t18.5 -52t11 -55t5.5 -59t2.5 -56t0.5 -55q0 -177 -44.5 -400.5t-113.5 -378.5
q-8 -18 -69 -142t-83 -194q120 21 229 21l62 -52l-36 -51q-53 0 -155 -9.5t-152 -9.5q-28 0 -50 17t-22 45v8q25 31 43 72t35.5 93t29.5 79q115 261 171.5 476t56.5 461q0 256 -98 264q-18 -10 -29.5 -39.5t-16 -58.5t-19 -52t-39.5 -23q-48 0 -48 63q0 41 12.5 84
t43.5 77.5t72 34.5z" />
    <glyph glyph-name="threequarters" unicode="&#xbe;" horiz-adv-x="1556" 
d="M234 865v24q0 20 19 48t41.5 54.5t41 70t18.5 88.5q0 35 -4 81t-14 106t-33.5 100t-55.5 40q-25 0 -41.5 -18.5t-23.5 -40t-24.5 -40t-45.5 -18.5q-23 0 -39 16.5t-20 39.5q28 69 78.5 113t119.5 44q59 0 106 -51q44 -1 71.5 -156t27.5 -242q0 -30 -9.5 -59t-19 -44.5
t-32.5 -48.5t-31 -45q49 -29 84.5 -100.5t53 -160t25.5 -164.5t8 -141q0 -45 -2 -80.5t-8.5 -83.5t-21 -83t-37 -67.5t-59 -49.5t-84.5 -17q-32 0 -64.5 8.5t-59.5 31.5t-27 56v13h34q11 -2 28.5 -3.5t26.5 -2.5t21.5 -6t24.5 -13q125 5 125 230q0 93 -2.5 148.5t-13.5 137
t-38 148t-71 121.5q-4 -1 -13 -1q-22 0 -60 17zM604 30q0 136 63 407t146 579.5t107 436.5q0 2 3 17l4.5 22.5t6 21t9.5 20.5t13.5 13t18.5 6q21 0 37 -14t16 -36q0 -29 -6.5 -61t-18.5 -71.5t-16 -59.5q-134 -599 -222 -1019q-1 -5 -9.5 -54.5t-16.5 -86.5t-21.5 -83.5
t-31.5 -72.5t-38 -26q-44 29 -44 61zM1191 480v-1q-39 0 -81 33q0 46 9 79q-9 48 -9 115q0 70 15.5 211t15.5 207v379q0 13 2 20.5t11 13.5t26 6q23 0 41.5 -14t18.5 -37q0 -26 -4.5 -79t-4.5 -80q0 -42 8 -74v-7q1 -9 1 -109q0 -87 -14 -260.5t-14 -260.5q0 -24 3 -46
q33 1 73 11q-1 198 -14 413q-1 23 -9 76.5t-8 83.5q0 21 20 33.5t43 12.5l42 -36v-62.5v-66.5t0.5 -61.5t1 -66.5t1.5 -61.5t3 -66.5t5 -61t6.5 -66t8.5 -62q3 0 24.5 2.5t34.5 2.5q61 0 61 -44q0 -30 -17.5 -40t-49.5 -10q-48 0 -48 -18q0 -299 15 -334q-4 -24 -4 -38
q0 -25 10 -41v-37q0 -29 -11.5 -53t-37.5 -24q-31 0 -46 31.5t-15 65.5v7q7 24 7 74q0 34 -7 100t-7 99q0 54 7 89q0 35 -4 63q-16 -1 -52.5 -6t-56.5 -5z" />
    <glyph glyph-name="questiondown" unicode="&#xbf;" horiz-adv-x="1161" 
d="M566 1525q-61 0 -83 -30.5t-22 -87.5q0 -21 4 -70t4 -74q0 -173 23 -263q87 37 132.5 106t45.5 166v26t-0.5 29t-2 33.5t-3.5 32.5t-6 34t-9.5 30.5t-13.5 27.5t-17.5 20.5t-23 15t-28.5 4.5zM862 199q0 -18 -19 -37t-36 -19q-33 0 -67 67.5t-62.5 171.5t-52.5 208.5
t-45 199.5t-32 124h-53q-5 -80 -5 -118q0 -98 22 -293t22 -293q0 -29 -13.5 -48t-41.5 -19t-50.5 18.5t-22.5 46.5q0 43 -17 130.5t-17 131.5v984q0 56 10.5 91.5t35 55t57.5 27t85 7.5q41 0 75 -12t57 -31.5t40.5 -49t28 -60t16.5 -69t8 -71.5t2 -72q0 -69 -13 -121.5
t-32 -81t-37.5 -46.5t-34 -30.5t-18.5 -21.5q3 -76 175 -655q0 -22 17.5 -58.5t17.5 -56.5zM963 706q0 283 -24.5 513t-96.5 436v15q-31 49 -101.5 105.5t-116.5 56.5q-63 0 -117 -21t-93 -56t-70.5 -87.5t-52.5 -106.5t-36.5 -123t-23.5 -128t-13 -130t-6 -120t-1 -106
q0 -774 134 -927q20 -23 65 -52.5t57 -38.5h59v-20q83 1 150 30t112 74t78 112.5t51 133.5t29 149.5t14 148.5t3 142zM613 -190q-103 0 -184.5 33.5t-135 84.5t-92.5 133.5t-59.5 158.5t-32 182.5t-14 182.5t-2.5 180v68q-3 52 -1 115.5t2.5 133.5t8.5 144t18 147t31 143.5
t47 133.5t66 115.5t88 91t113.5 60t142.5 21.5q85 0 163.5 -52t134.5 -131q35 -21 64.5 -112t48.5 -208t32.5 -246.5t19 -228t5.5 -153.5q0 -102 -1 -163.5t-10 -179t-25.5 -194t-50.5 -172t-82 -152t-123.5 -96.5t-171.5 -40z" />
    <glyph glyph-name="Agrave" unicode="&#xc0;" horiz-adv-x="709" 
d="M215 1760q-22 -2 -35 -2q-89 0 -89 62q0 51 28 68q69 0 95 -12q10 -6 19 -13q4 -1 44 -14t65.5 -23t60 -26t52.5 -35t18 -38q0 -17 -15 -28.5t-33 -11.5q-9 0 -29.5 6t-48 16t-50 18.5t-49.5 19.5t-33 13zM482 447q-3 37 -20.5 221.5t-31 348t-13.5 219.5q0 13 1 18
q-7 -8 -30.5 -138.5t-48 -279t-31.5 -177.5q-5 -19 -18 -60.5t-20.5 -73t-8.5 -61.5q85 -23 182 -23q15 0 39 6zM490 1529q40 -287 84 -747t44 -712q0 -69 -68 -69q-66 0 -66 53v267q-29 20 -103.5 34t-132.5 18q-25 -42 -38.5 -171.5t-43.5 -178.5q-99 0 -109 41
q26 38 78.5 291t108 563.5t66.5 360.5q55 264 119 264q38 0 61 -18v4z" />
    <glyph glyph-name="Aacute" unicode="&#xc1;" horiz-adv-x="709" 
d="M356 1741v2q1 24 55.5 70.5t126 97t86.5 64.5q32 0 55 -13.5t23 -42.5q0 -1 -9 -49q-66 -27 -142.5 -79.5t-125.5 -103.5q-29 0 -49 13.5t-20 40.5zM482 447q-3 37 -20.5 221.5t-31 348t-13.5 219.5q0 13 1 18q-7 -8 -30.5 -138.5t-48 -279t-31.5 -177.5
q-5 -19 -18 -60.5t-20.5 -73t-8.5 -61.5q85 -23 182 -23q15 0 39 6zM490 1529q40 -287 84 -747t44 -712q0 -69 -68 -69q-66 0 -66 53v267q-29 20 -103.5 34t-132.5 18q-25 -42 -38.5 -171.5t-43.5 -178.5q-99 0 -109 41q26 38 78.5 291t108 563.5t66.5 360.5q55 264 119 264
q38 0 61 -18v4z" />
    <glyph glyph-name="Acircumflex" unicode="&#xc2;" horiz-adv-x="709" 
d="M438 1953q-8 -24 -22 -69.5t-22.5 -70.5t-26.5 -60t-42 -65l-67 48q4 38 36 128t79.5 172.5t81.5 82.5q52 0 52 -67q0 -45 31 -124t31 -114v-52q1 -3 9.5 -12t8.5 -13q0 -23 -20.5 -36.5t-44.5 -13.5h-44q-17 171 -40 266zM482 447q-3 37 -20.5 221.5t-31 348
t-13.5 219.5q0 13 1 18q-7 -8 -30.5 -138.5t-48 -279t-31.5 -177.5q-5 -19 -18 -60.5t-20.5 -73t-8.5 -61.5q85 -23 182 -23q15 0 39 6zM490 1529q40 -287 84 -747t44 -712q0 -69 -68 -69q-66 0 -66 53v267q-29 20 -103.5 34t-132.5 18q-25 -42 -38.5 -171.5t-43.5 -178.5
q-99 0 -109 41q26 38 78.5 291t108 563.5t66.5 360.5q55 264 119 264q38 0 61 -18v4z" />
    <glyph glyph-name="Atilde" unicode="&#xc3;" horiz-adv-x="709" 
d="M180 1746q0 70 40.5 119.5t108.5 49.5l102 -52q9 -24 30.5 -48t43.5 -24v1q6 6 20.5 12.5t23.5 13.5t9 19q0 7 -6 22.5t-7 22.5q16 32 46 32q34 0 52 -29t18 -65q0 -53 -39.5 -92.5t-92.5 -39.5q-40 0 -79 21.5t-62 44t-56 60.5v2l-53 -31v-98q-34 0 -66.5 15.5
t-32.5 43.5zM482 447q-3 37 -20.5 221.5t-31 348t-13.5 219.5q0 13 1 18q-7 -8 -30.5 -138.5t-48 -279t-31.5 -177.5q-5 -19 -18 -60.5t-20.5 -73t-8.5 -61.5q85 -23 182 -23q15 0 39 6zM490 1529q40 -287 84 -747t44 -712q0 -69 -68 -69q-66 0 -66 53v267q-29 20 -103.5 34
t-132.5 18q-25 -42 -38.5 -171.5t-43.5 -178.5q-99 0 -109 41q26 38 78.5 291t108 563.5t66.5 360.5q55 264 119 264q38 0 61 -18v4z" />
    <glyph glyph-name="Adieresis" unicode="&#xc4;" horiz-adv-x="709" 
d="M561 1756q0 29 22 52t51 23q27 0 47.5 -22.5t20.5 -50.5q0 -31 -23 -51t-54 -20q-26 0 -45 21t-19 48zM200 1687q-28 0 -43.5 19t-15.5 48q0 31 20 52.5t50 21.5q29 0 50 -20t21 -49q0 -30 -25.5 -51t-56.5 -21zM482 447q-3 37 -20.5 221.5t-31 348t-13.5 219.5
q0 13 1 18q-7 -8 -30.5 -138.5t-48 -279t-31.5 -177.5q-5 -19 -18 -60.5t-20.5 -73t-8.5 -61.5q85 -23 182 -23q15 0 39 6zM490 1529q40 -287 84 -747t44 -712q0 -69 -68 -69q-66 0 -66 53v267q-29 20 -103.5 34t-132.5 18q-25 -42 -38.5 -171.5t-43.5 -178.5q-99 0 -109 41
q26 38 78.5 291t108 563.5t66.5 360.5q55 264 119 264q38 0 61 -18v4z" />
    <glyph glyph-name="Aring" unicode="&#xc5;" horiz-adv-x="709" 
d="M312 1684q0 47 35 84.5t81 37.5q43 0 76 -36t33 -79q0 -52 -35.5 -83t-88.5 -31q-41 0 -71 33t-30 74zM426 1693l-24 -30h38q0 43 -14 57v-27zM482 447q-3 37 -20.5 221.5t-31 348t-13.5 219.5q0 13 1 18q-7 -8 -30.5 -138.5t-48 -279t-31.5 -177.5q-5 -19 -18 -60.5
t-20.5 -73t-8.5 -61.5q85 -23 182 -23q15 0 39 6zM490 1529q40 -287 84 -747t44 -712q0 -69 -68 -69q-66 0 -66 53v267q-29 20 -103.5 34t-132.5 18q-25 -42 -38.5 -171.5t-43.5 -178.5q-99 0 -109 41q26 38 78.5 291t108 563.5t66.5 360.5q55 264 119 264q38 0 61 -18v4z
" />
    <glyph glyph-name="AE" unicode="&#xc6;" horiz-adv-x="919" 
d="M465 2v1q18 187 18 250t-5 190t-5 190q-14 -1 -42 -2.5t-45 -3t-40.5 -5.5t-42.5 -11l-101 -385q-2 -9 -10.5 -54t-16.5 -78t-26.5 -63t-41.5 -30q-16 0 -28 15t-12 32q0 68 26 197t74.5 303t87 305.5t94.5 312t66 214.5q1 3 6.5 23t7.5 27.5t8.5 26t11.5 27.5t14 22.5
t18 20t21 12t26 5.5q26 0 78 5t78 5q87 0 87 -56v-48q-124 0 -213 -10q1 -40 7.5 -132t6.5 -142q0 -75 -3 -225t-3 -225q18 2 68 10.5t78 8.5l52 -48q0 -66 -122 -66h-77q0 -77 3 -259t3 -280q36 0 111 10.5t114 10.5q25 0 46.5 -13.5t21.5 -36.5q0 -65 -244 -65h-30
q-16 0 -42 -14.5t-39 -16.5zM470 706q1 37 4 198.5t3 248.5t-2 130q-106 -366 -152 -595q93 6 147 18z" />
    <glyph glyph-name="Ccedilla" unicode="&#xc7;" horiz-adv-x="684" 
d="M449 1443v-4h-32v8q-57 0 -98 -18t-64 -45t-36 -70.5t-16.5 -82.5t-3.5 -92q0 -23 3 -70.5t3 -70.5q0 -24 -9 -71.5t-9 -71.5q0 -107 27.5 -381.5t53.5 -314.5q44 -67 154 -67q82 0 132 59q35 0 65 10v-27q0 -138 -153 -162q-9 -54 -10 -95q78 -15 113.5 -78t35.5 -149
q0 -67 -56 -126.5t-123 -59.5q-42 0 -77 20.5t-35 58.5q0 18 14 31t32 13q37 0 66 -20q15 2 30.5 23t15.5 37q0 15 -3.5 32t-10.5 38t-9 31l35 -35v10q0 34 -17 51q-33 -5 -48 -5q-26 0 -41.5 12.5t-39.5 49.5q19 39 19 113v46q-60 13 -115 55.5t-80 97.5q-40 88 -60 391
t-20 522q0 117 14 189q-6 33 -6 64q0 126 94 200.5t232 74.5q49 0 96 -27.5t47 -72.5q0 -22 -17 -34t-40 -12q-40 0 -53 25z" />
    <glyph glyph-name="Egrave" unicode="&#xc8;" horiz-adv-x="672" 
d="M617 56v-7q-14 -28 -47.5 -43t-58.5 -17t-66 -2h-64q-23 0 -37 1.5t-32 7.5t-26.5 20.5t-8.5 37.5v1478q25 0 88 9t89 9q31 0 62.5 -18.5t31.5 -48.5q0 -61 -93 -61q-10 0 -29.5 1t-29.5 1q-15 0 -22 -1q0 -57 8 -169t8 -169q0 -41 -5 -119.5t-5 -114.5q11 2 30 7t35 8
t31 3q23 0 41.5 -17t18.5 -40q0 -25 -15 -44t-39 -19q-6 0 -23.5 1t-27.5 1q-23 0 -36 -15v-632q105 6 108 6q114 0 114 -54zM168 1763q-20 -2 -35 -2q-89 0 -89 62q0 51 28 68q69 0 95 -12q10 -6 19 -13q4 -1 44 -14t65.5 -23t60 -26t52.5 -35t18 -38q0 -17 -15 -28.5
t-33 -11.5q-9 0 -29.5 6t-48 16t-50 18.5t-49.5 19.5t-33 13z" />
    <glyph glyph-name="Eacute" unicode="&#xc9;" horiz-adv-x="528" 
d="M142 1744v2q1 24 55.5 70.5t126 97t86.5 64.5q32 0 55 -13.5t23 -42.5q0 -1 -9 -49q-66 -27 -142.5 -79.5t-125.5 -103.5q-29 0 -49 13.5t-20 40.5zM450 59v-7q-14 -28 -47.5 -43t-58.5 -17t-66 -2h-64q-23 0 -37 1.5t-32 7.5t-26.5 20.5t-8.5 37.5v1478q26 0 89 9t88 9
q31 0 62.5 -18.5t31.5 -48.5q0 -61 -93 -61q-10 0 -29.5 1t-29.5 1q-15 0 -22 -1q0 -56 8 -169t8 -169q0 -41 -5 -119.5t-5 -114.5q11 2 30 7t35 8t31 3q23 0 41.5 -17t18.5 -40q0 -25 -15 -44t-39 -19q-6 0 -23.5 1t-27.5 1q-24 0 -36 -15v-632q105 6 108 6q114 0 114 -54z
" />
    <glyph glyph-name="Ecircumflex" unicode="&#xca;" horiz-adv-x="510" 
d="M233 105q105 6 108 6q114 0 114 -54v-7q-14 -28 -47.5 -43t-58.5 -17t-66 -2h-64q-23 0 -37 1.5t-32 7.5t-26.5 20.5t-8.5 37.5v1478q25 0 88 9t89 9q31 0 62.5 -18.5t31.5 -48.5q0 -61 -93 -61q-10 0 -29.5 1t-29.5 1q-15 0 -22 -1q0 -56 8 -169t8 -169q0 -41 -5 -119.5
t-5 -114.5q11 2 30 7t35 8t31 3q23 0 41.5 -17t18.5 -40q0 -25 -15 -44t-39 -19q-6 0 -23.5 1t-27.5 1q-24 0 -36 -15v-632zM230 1957q-8 -24 -22 -69.5t-22.5 -70.5t-26.5 -60t-42 -65l-67 48q4 38 36 128t79.5 172.5t81.5 82.5q52 0 52 -67q0 -45 31 -124t31 -114v-52
q1 -3 9.5 -12t8.5 -13q0 -23 -20.5 -36.5t-44.5 -13.5h-44q-17 171 -40 266z" />
    <glyph glyph-name="Edieresis" unicode="&#xcb;" horiz-adv-x="648" 
d="M566 56v-7q-14 -28 -47.5 -43t-58.5 -17t-66 -2h-64q-23 0 -37 1.5t-32 7.5t-26.5 20.5t-8.5 37.5v1478q25 0 88.5 9t88.5 9q31 0 62.5 -18.5t31.5 -48.5q0 -61 -93 -61q-10 0 -29.5 1t-29.5 1q-15 0 -22 -1q0 -57 8 -169t8 -169q0 -41 -5 -119.5t-5 -114.5q11 2 30 7
t35 8t31 3q23 0 41.5 -17t18.5 -40q0 -25 -15 -44t-39 -19q-6 0 -23.5 1t-27.5 1q-24 0 -36 -15v-632q105 6 108 6q114 0 114 -54zM463 1759q0 29 22 52t51 23q27 0 47.5 -22.5t20.5 -50.5q0 -31 -23 -51t-54 -20q-26 0 -45 21t-19 48zM102 1690q-27 0 -43 19.5t-16 47.5
q0 31 20 52.5t50 21.5q29 0 50 -20t21 -49q0 -30 -25.5 -51t-56.5 -21z" />
    <glyph glyph-name="Igrave" unicode="&#xcc;" horiz-adv-x="681" 
d="M498 17v1h-37q-10 0 -26.5 -5.5t-25.5 -7t-24 5.5q-17 0 -35 1.5t-41 6.5t-38 16.5t-15 27.5q0 49 62 49q9 0 23.5 -1.5t19.5 -1.5q16 0 23 10t7 38q0 158 -19 473.5t-19 473.5q0 35 2 104.5t2 104.5q0 66 -5 114q-27 -9 -48 -9q-48 0 -48 49q0 25 31 43.5t77 26.5
t82.5 11.5t62.5 3.5q24 0 42 -16.5t18 -39.5q0 -22 -13.5 -38.5t-34.5 -16.5q-7 0 -19 0.5t-17 0.5q-20 0 -29.5 -8.5t-9.5 -33.5q0 -200 26 -599t26 -599v-79q21 3 40 3q85 0 85 -72v-12l-51 -35q-13 0 -37.5 5t-36.5 5zM169 1763q-20 -2 -35 -2q-89 0 -89 62q0 51 28 68
q69 0 95 -12q10 -6 19 -13q4 -1 44 -14t65.5 -23t60 -26t52.5 -35t18 -38q0 -17 -15 -28.5t-33 -11.5q-9 0 -29.5 6t-48 16t-50 18.5t-49.5 19.5t-33 13z" />
    <glyph glyph-name="Iacute" unicode="&#xcd;" horiz-adv-x="502" 
d="M116 1744v2q1 24 55.5 70.5t126 97t86.5 64.5q32 0 55 -13.5t23 -42.5q0 -1 -9 -49q-66 -27 -142.5 -79.5t-125.5 -103.5q-29 0 -49 13.5t-20 40.5zM303 20v1h-37q-10 0 -26.5 -5.5t-25.5 -7t-24 5.5q-17 0 -35 1.5t-41 6.5t-38 16.5t-15 27.5q0 49 62 49q9 0 23.5 -1.5
t19.5 -1.5q16 0 23 10t7 38q0 158 -19 473.5t-19 473.5q0 35 2 104.5t2 104.5q0 66 -5 114q-27 -9 -48 -9q-48 0 -48 49q0 25 31 43.5t77 26.5t82.5 11.5t62.5 3.5q24 0 42 -16.5t18 -39.5q0 -22 -13.5 -38.5t-34.5 -16.5q-8 0 -20 0.5t-16 0.5q-20 0 -29.5 -8.5t-9.5 -33.5
q0 -200 26 -599t26 -599v-79q21 3 40 3q85 0 85 -72v-12l-51 -35q-13 0 -37.5 5t-36.5 5z" />
    <glyph glyph-name="Icircumflex" unicode="&#xce;" horiz-adv-x="512" 
d="M329 18v1h-37q-10 0 -26.5 -5.5t-25.5 -7t-24 5.5q-17 0 -35 1.5t-41 6.5t-38 16.5t-15 27.5q0 49 62 49q9 0 23.5 -1.5t19.5 -1.5q16 0 23 10t7 38q0 158 -19 473.5t-19 473.5q0 35 2 104.5t2 104.5q0 66 -5 114q-27 -9 -48 -9q-48 0 -48 49q0 25 31 43.5t77 26.5
t82.5 11.5t62.5 3.5q24 0 42 -16.5t18 -39.5q0 -22 -13.5 -38.5t-34.5 -16.5q-8 0 -20 0.5t-16 0.5q-20 0 -29.5 -8.5t-9.5 -33.5q0 -200 26 -599t26 -599v-79q21 3 40 3q85 0 85 -72v-12l-51 -35q-13 0 -37.5 5t-36.5 5zM223 1958q-8 -24 -22 -69.5t-22.5 -70.5t-26.5 -60
t-42 -65l-67 48q4 38 36 128t79.5 172.5t81.5 82.5q52 0 52 -67q0 -45 31 -124t31 -114v-52q1 -3 9.5 -12t8.5 -13q0 -23 -20.5 -36.5t-44.5 -13.5h-44q-17 171 -40 266z" />
    <glyph glyph-name="Idieresis" unicode="&#xcf;" horiz-adv-x="650" 
d="M448 17v1h-37q-10 0 -26.5 -5.5t-25.5 -7t-24 5.5q-17 0 -35 1.5t-41 6.5t-38 16.5t-15 27.5q0 49 62 49q9 0 23.5 -1.5t19.5 -1.5q16 0 23 10t7 38q0 158 -19 473.5t-19 473.5q0 35 2 104.5t2 104.5q0 66 -5 114q-27 -9 -48 -9q-48 0 -48 49q0 25 31 43.5t77 26.5
t82.5 11.5t62.5 3.5q24 0 42 -16.5t18 -39.5q0 -22 -13.5 -38.5t-34.5 -16.5q-7 0 -19 0.5t-17 0.5q-20 0 -29.5 -8.5t-9.5 -33.5q0 -200 26 -599t26 -599v-79q21 3 40 3q85 0 85 -72v-12l-51 -35q-13 0 -37.5 5t-36.5 5zM465 1759q0 29 22 52t51 23q27 0 47.5 -22.5
t20.5 -50.5q0 -31 -23 -51t-54 -20q-26 0 -45 21t-19 48zM104 1690q-27 0 -43 19.5t-16 47.5q0 31 20 52.5t50 21.5q29 0 50 -20t21 -49q0 -30 -25.5 -51t-56.5 -21z" />
    <glyph glyph-name="Eth" unicode="&#xd0;" horiz-adv-x="868" 
d="M320 1141v-1q4 -149 28 -461t27 -475q72 63 124 135t82.5 143t48.5 157.5t23.5 164.5t5.5 179q0 71 -0.5 122t-4.5 135t-11 148t-20.5 148t-32.5 148t-48.5 134t-66 120.5t-87.5 93t-111 65.5v-268q0 -369 42 -577q33 2 111.5 12t121.5 10q29 0 47 -25t20 -55l-34 -41
q-169 0 -265 -12zM340 45v2q-60 18 -82 60q0 229 -1.5 355.5t-14 321t-36.5 353.5q-84 -12 -107 -12q-24 0 -38 17.5t-14 41.5q0 19 13.5 32.5t35 19t40 7t36.5 1.5h31q-1 148 -22.5 451t-21.5 459q0 22 17 44t39 22q65 0 172 -68.5t189.5 -162.5t82.5 -158
q0 -115 18.5 -256.5t40 -254.5t40 -254.5t18.5 -256.5q0 -233 -118 -447t-318 -317z" />
    <glyph glyph-name="Ntilde" unicode="&#xd1;" horiz-adv-x="793" 
d="M238 1112q1 42 -18.5 107.5t-22.5 78.5v-1296h-72v38q4 15 -1 63t-5 74q0 106 -13 344t-13 291v261q0 63 7 188t7 188q0 28 0.5 37t4 27t11 24t23 11.5t38.5 5.5q26 0 48 -18t22 -44q0 -33 9 -66.5t25.5 -75t22.5 -62.5q11 -38 19 -110.5t13 -99.5q20 -100 67 -247.5
t83.5 -282t44.5 -250.5q18 -30 21 -73q0 119 3.5 357t3.5 357v606q12 51 67 51q56 0 56 -80v-12q-13 -27 -13 -60q0 -125 -4 -378t-4 -379v-626q0 -35 -23 -58.5t-67 -23.5q-24 0 -39.5 15.5t-20 32.5t-9 46.5t-7.5 39.5q-25 92 -84.5 286.5t-99 345.5t-64.5 292q-1 7 -2 24
t-4 29.5t-10 21.5zM125 1755q0 69 40 119t107 50l100 -52q9 -24 30.5 -48t42.5 -24v1q6 6 20.5 12.5t23 13.5t8.5 19q0 7 -6 22.5t-7 22.5q16 32 45 32q33 0 51 -29t18 -65q0 -53 -39 -92.5t-91 -39.5q-39 0 -77 21.5t-61 44t-55 60.5v2l-52 -31v-98q-34 0 -66 15.5
t-32 43.5z" />
    <glyph glyph-name="Ograve" unicode="&#xd2;" horiz-adv-x="694" 
d="M124 1760q-22 -2 -35 -2q-89 0 -89 62q0 51 28 68q69 0 95 -12q10 -6 19 -13q4 -1 44 -14t65.5 -23t60 -26t52.5 -35t18 -38q0 -17 -15 -28.5t-33 -11.5q-9 0 -29.5 6t-48 16t-50 18.5t-49.5 19.5t-33 13zM304 1477q-19 0 -36 -14t-29 -42t-22 -59.5t-16.5 -77
t-11.5 -82.5t-8 -88t-5 -83t-2.5 -77t-0.5 -60v-42q0 -66 10 -183t31.5 -262.5t65 -248.5t99.5 -103q40 0 68 76.5t39.5 191.5t15.5 194t4 136q0 40 -0.5 78t-3 110.5t-8.5 136t-15 140.5t-24.5 137t-35.5 112.5t-49.5 81t-65.5 28.5zM568 215q0 -54 -22.5 -115.5t-69 -109
t-101.5 -47.5t-100.5 38t-75 97.5t-52.5 142t-35 161t-19.5 165.5t-9.5 144.5t-2 107.5q0 52 2.5 107.5t7 132t6.5 107.5q1 18 2 60t2 71t6 71.5t12 72.5t21.5 63t34.5 53.5t50.5 34t69.5 13.5q40 0 74 -11t57.5 -28.5t43 -46t32 -55.5t22.5 -65t15 -67.5t11 -69.5
q49 -350 49 -624q0 -45 -9 -131t-9 -128v-9q-13 -57 -13 -135z" />
    <glyph glyph-name="Oacute" unicode="&#xd3;" horiz-adv-x="694" 
d="M268 1741v2q1 24 55.5 70.5t126 97t86.5 64.5q32 0 55 -13.5t23 -42.5q0 -1 -9 -49q-66 -27 -142.5 -79.5t-125.5 -103.5q-29 0 -49 13.5t-20 40.5zM304 1477q-19 0 -36 -14t-29 -42t-22 -59.5t-16.5 -77t-11.5 -82.5t-8 -88t-5 -83t-2.5 -77t-0.5 -60v-42q0 -66 10 -183
t31.5 -262.5t65 -248.5t99.5 -103q40 0 68 76.5t39.5 191.5t15.5 194t4 136q0 40 -0.5 78t-3 110.5t-8.5 136t-15 140.5t-24.5 137t-35.5 112.5t-49.5 81t-65.5 28.5zM568 215q0 -54 -22.5 -115.5t-69 -109t-101.5 -47.5t-100.5 38t-75 97.5t-52.5 142t-35 161t-19.5 165.5
t-9.5 144.5t-2 107.5q0 52 2.5 107.5t7 132t6.5 107.5q1 18 2 60t2 71t6 71.5t12 72.5t21.5 63t34.5 53.5t50.5 34t69.5 13.5q40 0 74 -11t57.5 -28.5t43 -46t32 -55.5t22.5 -65t15 -67.5t11 -69.5q49 -350 49 -624q0 -45 -9 -131t-9 -128v-9q-13 -57 -13 -135z" />
    <glyph glyph-name="Ocircumflex" unicode="&#xd4;" horiz-adv-x="694" 
d="M319 1957q-8 -23 -21.5 -69t-22 -70.5t-26.5 -60t-41 -65.5l-66 48q7 70 76 226.5t118 156.5q51 0 51 -67q0 -45 30 -124t30 -114v-52q1 -3 9.5 -12t8.5 -13q0 -23 -20.5 -36.5t-43.5 -13.5h-43q-18 178 -39 266zM304 1477q36 0 65.5 -28.5t49.5 -81t35.5 -112.5
t24.5 -137t15 -140.5t8.5 -136t3 -110.5t0.5 -78q0 -57 -4 -136t-15.5 -194t-39.5 -191.5t-68 -76.5q-56 0 -99.5 103t-65 248.5t-31.5 262.5t-10 183v42t0.5 60t2.5 77t5 83t8 88t11.5 82.5t16.5 77t22 59.5t29 42t36 14zM569 215q0 60 17 135v9q0 41 6.5 127.5t6.5 131.5
q0 274 -49 624q-6 40 -11 69.5t-15 67.5t-22.5 65t-32 55.5t-43 46t-57.5 28.5t-74 11q-39 0 -69.5 -13.5t-50.5 -34t-34.5 -53.5t-21.5 -63t-12 -72.5t-6 -71.5t-2 -71t-2 -60q-2 -31 -6.5 -107.5t-7 -132t-2.5 -107.5q0 -50 2 -107.5t9.5 -144.5t19.5 -165.5t35 -161
t52.5 -142t75 -97.5t100.5 -38t101.5 47.5t69.5 109t23 115.5z" />
    <glyph glyph-name="Otilde" unicode="&#xd5;" horiz-adv-x="698" 
d="M67 1749q0 70 40 119.5t108 49.5l100 -52q9 -24 30.5 -48t42.5 -24v1q6 6 20.5 12.5t23 13.5t8.5 19q0 7 -6 22.5t-7 22.5q16 32 45 32q33 0 51 -29t18 -65q0 -53 -39 -92.5t-91 -39.5q-39 0 -77 21.5t-61 44t-55 60.5v2l-52 -31v-98q-34 0 -66.5 15.5t-32.5 43.5z
M308 1477q36 0 65.5 -28.5t49.5 -81t35.5 -112.5t24.5 -137t15 -140.5t8.5 -136t3 -110.5t0.5 -78q0 -57 -4 -136t-15.5 -194t-39.5 -191.5t-68 -76.5q-56 0 -99.5 103t-65 248.5t-31.5 262.5t-10 183v42t0.5 60t2.5 77t5 83t8 88t11.5 82.5t16.5 77t22 59.5t29 42t36 14z
M573 215q0 60 17 135v9q0 41 6.5 127.5t6.5 131.5q0 274 -49 624q-6 40 -11 69.5t-15 67.5t-22.5 65t-32 55.5t-43 46t-57.5 28.5t-74 11q-39 0 -69.5 -13.5t-50.5 -34t-34.5 -53.5t-21.5 -63t-12 -72.5t-6 -71.5t-2 -71t-2 -60q-2 -31 -6.5 -107.5t-7 -132t-2.5 -107.5
q0 -50 2 -107.5t9.5 -144.5t19.5 -165.5t35 -161t52.5 -142t75 -97.5t100.5 -38t101.5 47.5t69.5 109t23 115.5z" />
    <glyph glyph-name="Odieresis" unicode="&#xd6;" horiz-adv-x="719" 
d="M593 214q0 60 17 135v9q0 41 6.5 127.5t6.5 131.5q0 274 -49 624q-6 40 -11 69.5t-15 67.5t-22.5 65t-32 55.5t-43 46t-57.5 28.5t-74 11q-39 0 -69.5 -13.5t-50.5 -34t-34.5 -53.5t-21.5 -63t-12 -72.5t-6 -71.5t-2 -71t-2 -60q-2 -31 -6.5 -107.5t-7 -132t-2.5 -107.5
q0 -50 2 -107.5t9.5 -144.5t19.5 -165.5t35 -161t52.5 -142t75 -97.5t100.5 -38t101.5 47.5t69.5 109t23 115.5zM328 1476q36 0 65.5 -28.5t49.5 -81t35.5 -112.5t24.5 -137t15 -140.5t8.5 -136t3 -110.5t0.5 -78q0 -57 -4 -136t-15.5 -194t-39.5 -191.5t-68 -76.5
q-56 0 -99.5 103t-65 248.5t-31.5 262.5t-10 183v42t0.5 60t2.5 77t5 83t8 88t11.5 82.5t16.5 77t22 59.5t29 42t36 14zM463 1759q0 29 21.5 52t49.5 23q27 0 47.5 -22.5t20.5 -50.5q0 -31 -23 -51t-54 -20q-26 0 -44 21t-18 48zM107 1690q-28 0 -43.5 19t-15.5 48
q0 31 20 52.5t50 21.5q29 0 50 -20t21 -49q0 -30 -25.5 -51t-56.5 -21z" />
    <glyph glyph-name="multiply" unicode="&#xd7;" horiz-adv-x="646" 
d="M456 399q-9 8 -43 49t-65 76.5t-38 37.5q-10 -1 -34.5 -34t-56.5 -65.5t-61 -32.5q-23 0 -42.5 19t-19.5 41q0 17 27 45t62 58.5t45 44.5q-5 5 -58 47t-80 74.5t-27 63.5q0 23 18.5 40t41.5 17q12 0 50 -32t85 -76.5t54 -50.5q18 9 40 34.5t39.5 49t42.5 42.5t51 19
q21 0 37.5 -17t16.5 -38q0 -22 -21.5 -45t-47.5 -39.5t-47.5 -39.5t-21.5 -44q0 -20 25 -42.5t54.5 -40t54.5 -41.5t25 -46q0 -29 -22.5 -51.5t-50.5 -22.5h-33z" />
    <glyph glyph-name="Oslash" unicode="&#xd8;" horiz-adv-x="619" 
d="M153 129q-66 220 -64 618q0 62 1.5 182.5t1.5 178.5v47.5t2 58t4.5 67.5t8.5 67.5t14 68t21.5 59.5t29.5 50t39.5 31.5t50.5 12.5q28 0 54 -22v4q5 19 10 40.5t9 41t8 41.5t7.5 41.5t8.5 41.5t9 41h77q-2 -52 -23.5 -160t-21.5 -166q0 -21 35 -53v-54q1 -24 24.5 -71
t23.5 -72v-16q2 -59 16 -181.5t15 -182.5q1 -43 2.5 -121t2.5 -142t1 -121q0 -48 -0.5 -77.5t-5 -85t-12 -92t-24 -82t-39.5 -73t-59 -46.5t-81 -19q-46 0 -82 20q-6 -41 -15.5 -90.5t-20 -103.5l-17.5 -90l-70 56q0 60 29.5 176.5t29.5 176.5zM315 72q106 0 106 392v172
t-2 156.5t-6 178t-13 155.5t-22 171q-15 -121 -45.5 -491t-67.5 -569q-14 -70 -14 -92q0 -42 12 -57.5t52 -15.5zM267 1492v-1h-34v-11q-20 -43 -32 -176.5t-15 -242t-3 -211.5q0 -52 4.5 -108.5t12.5 -130t11 -108.5q11 101 23.5 232.5t24.5 263t23 232.5q2 20 7 55.5t8 59
t5.5 54.5t2.5 58q0 14 -12 23.5t-26 10.5z" />
    <glyph glyph-name="Ugrave" unicode="&#xd9;" 
d="M169 1760q-22 -2 -35 -2q-89 0 -89 62q0 51 28 68q69 0 95 -12q10 -6 19 -13q4 -1 44 -14t65.5 -23t60 -26t52.5 -35t18 -38q0 -17 -15 -28.5t-33 -11.5q-9 0 -29.5 6t-48 16t-50 18.5t-49.5 19.5t-33 13zM651 460v-31q0 -3 -2.5 -10.5t-2.5 -11.5q0 -17 0.5 -57t0.5 -62
q0 -52 -3.5 -92.5t-15.5 -86.5t-32.5 -76t-58.5 -50t-90 -20q-63 0 -111.5 25.5t-76 63.5t-49.5 96t-32.5 108t-25.5 115t-27 103q-2 5 -22.5 458t-20.5 503q-15 17 -15 42t17.5 44t41.5 19q74 0 74 -146q0 -118 9.5 -355.5t9.5 -356.5q12 -27 20.5 -109t8.5 -129
q0 -44 14.5 -110.5t39.5 -134.5t67.5 -116t90.5 -48q23 0 40 14.5t25 32.5t12.5 47.5t5 47t0.5 42.5v919q0 58 -22 175.5t-22 175.5q0 25 20.5 40.5t46.5 15.5l62 -48v-34q0 -20 -9 -61.5t-9 -63.5q0 -119 15 -348.5t16 -340.5v-3q-2 -11 1 -32t3 -28q0 -23 3 -65.5t3 -60.5
z" />
    <glyph glyph-name="Uacute" unicode="&#xda;" 
d="M313 1741v2q1 24 55.5 70.5t126 97t86.5 64.5q32 0 55 -13.5t23 -42.5q0 -1 -9 -49q-66 -27 -142.5 -79.5t-125.5 -103.5q-29 0 -49 13.5t-20 40.5zM651 460v-31q0 -3 -2.5 -10.5t-2.5 -11.5q0 -17 0.5 -57t0.5 -62q0 -52 -3.5 -92.5t-15.5 -86.5t-32.5 -76t-58.5 -50
t-90 -20q-63 0 -111.5 25.5t-76 63.5t-49.5 96t-32.5 108t-25.5 115t-27 103q-2 5 -22.5 458t-20.5 503q-15 17 -15 42t17.5 44t41.5 19q74 0 74 -146q0 -118 9.5 -355.5t9.5 -356.5q12 -27 20.5 -109t8.5 -129q0 -44 14.5 -110.5t39.5 -134.5t67.5 -116t90.5 -48
q23 0 40 14.5t25 32.5t12.5 47.5t5 47t0.5 42.5v919q0 58 -22 175.5t-22 175.5q0 25 20.5 40.5t46.5 15.5l62 -48v-34q0 -20 -9 -61.5t-9 -63.5q0 -119 15 -348.5t16 -340.5v-3q-2 -11 1 -32t3 -28q0 -23 3 -65.5t3 -60.5z" />
    <glyph glyph-name="Ucircumflex" unicode="&#xdb;" 
d="M389 1953q-8 -24 -22 -69.5t-22.5 -70.5t-26.5 -60t-42 -65l-67 48q4 38 36 128t79.5 172.5t81.5 82.5q52 0 52 -67q0 -45 31 -124t31 -114v-52q1 -3 9.5 -12t8.5 -13q0 -23 -20.5 -36.5t-44.5 -13.5h-44q-17 171 -40 266zM651 460v-31q0 -3 -2.5 -10.5t-2.5 -11.5
q0 -17 0.5 -57t0.5 -62q0 -52 -3.5 -92.5t-15.5 -86.5t-32.5 -76t-58.5 -50t-90 -20q-63 0 -111.5 25.5t-76 63.5t-49.5 96t-32.5 108t-25.5 115t-27 103q-2 5 -22.5 458t-20.5 503q-15 17 -15 42t17.5 44t41.5 19q74 0 74 -146q0 -118 9.5 -355.5t9.5 -356.5
q12 -27 20.5 -109t8.5 -129q0 -44 14.5 -110.5t39.5 -134.5t67.5 -116t90.5 -48q23 0 40 14.5t25 32.5t12.5 47.5t5 47t0.5 42.5v919q0 58 -22 175.5t-22 175.5q0 25 20.5 40.5t46.5 15.5l62 -48v-34q0 -20 -9 -61.5t-9 -63.5q0 -119 15 -348.5t16 -340.5v-3q-2 -11 1 -32
t3 -28q0 -23 3 -65.5t3 -60.5z" />
    <glyph glyph-name="Udieresis" unicode="&#xdc;" 
d="M510 1756q0 29 22 52t51 23q27 0 47.5 -22.5t20.5 -50.5q0 -31 -23 -51t-54 -20q-26 0 -45 21t-19 48zM149 1687q-28 0 -43.5 19t-15.5 48q0 31 20 52.5t50 21.5q29 0 50 -20t21 -49q0 -30 -25.5 -51t-56.5 -21zM651 460v-31q0 -3 -2.5 -10.5t-2.5 -11.5q0 -17 0.5 -57
t0.5 -62q0 -52 -3.5 -92.5t-15.5 -86.5t-32.5 -76t-58.5 -50t-90 -20q-63 0 -111.5 25.5t-76 63.5t-49.5 96t-32.5 108t-25.5 115t-27 103q-2 5 -22.5 458t-20.5 503q-15 17 -15 42t17.5 44t41.5 19q74 0 74 -146q0 -118 9.5 -355.5t9.5 -356.5q12 -27 20.5 -109t8.5 -129
q0 -44 14.5 -110.5t39.5 -134.5t67.5 -116t90.5 -48q23 0 40 14.5t25 32.5t12.5 47.5t5 47t0.5 42.5v919q0 58 -22 175.5t-22 175.5q0 25 20.5 40.5t46.5 15.5l62 -48v-34q0 -20 -9 -61.5t-9 -63.5q0 -119 15 -348.5t16 -340.5v-3q-2 -11 1 -32t3 -28q0 -23 3 -65.5t3 -60.5
z" />
    <glyph glyph-name="Yacute" unicode="&#xdd;" horiz-adv-x="522" 
d="M215 1741v2q1 24 55.5 70.5t126 97t86.5 64.5q32 0 55 -13.5t23 -42.5q0 -1 -9 -49q-66 -27 -142.5 -79.5t-125.5 -103.5q-29 0 -49 13.5t-20 40.5zM240 25q0 66 5 198t5 198q0 60 -19.5 177.5t-19.5 177.5q0 83 -24.5 185.5t-54.5 184t-54.5 183.5t-24.5 184
q0 18 22 25.5t43 7.5q15 0 31 -12t17 -27q20 -236 102 -501q4 18 9.5 85.5t13 138.5t19.5 143.5t33 119t49 46.5q54 0 54 -22q0 -115 -49 -343t-49 -346q0 -12 3 -35.5t3 -35.5v-31q0 -90 -0.5 -271.5t-0.5 -271.5q0 -17 -0.5 -51t-0.5 -51v-46q0 -27 -18 -43.5t-42 -16.5
q-21 0 -36.5 14.5t-15.5 35.5z" />
    <glyph glyph-name="Thorn" unicode="&#xde;" horiz-adv-x="553" 
d="M98 1297v190q0 61 49 61q70 0 70 -124q0 -15 -1 -39.5t-1 -31.5q83 -12 143 -76t86.5 -145t26.5 -167q0 -149 -64 -272t-186 -191q0 -69 7.5 -211.5t7.5 -216.5q0 -85 -67 -85q-25 0 -37 21.5t-12 47.5q0 206 -11 619t-11 620zM365 948q0 87 -12.5 133.5t-39.5 79
t-95 88.5q0 -108 -1 -324t-1 -324q76 75 112.5 158t36.5 189z" />
    <glyph glyph-name="germandbls" unicode="&#xdf;" horiz-adv-x="620" 
d="M361 49q-1 0 -4.5 -1.5t-6 -2t-4.5 -0.5q-16 0 -31.5 10t-15.5 26t22 50t48.5 70t48.5 93t22 115q0 106 -17.5 183.5t-43 116t-50.5 63.5t-42.5 43.5t-17.5 38.5q0 15 28.5 86t57 166t28.5 168q0 21 -4.5 51.5t-14 65t-27.5 58.5t-41 24q-26 0 -46 -19.5t-30 -49.5
t-14.5 -58t-4.5 -52q0 -208 15.5 -623.5t15.5 -624.5q0 -43 -13.5 -68t-52.5 -25q-60 0 -60 51q0 89 5 267t5 267q0 118 -7.5 355t-7.5 356q0 42 4.5 83.5t17.5 88.5t33.5 82t56.5 58.5t83 23.5q43 0 77 -24t53.5 -60t32 -83t17 -88t4.5 -81q0 -181 -122 -390
q108 -83 144.5 -173.5t36.5 -241.5q0 -115 -46.5 -220.5t-131.5 -174.5z" />
    <glyph glyph-name="agrave" unicode="&#xe0;" horiz-adv-x="674" 
d="M211 1553q-22 -2 -35 -2q-89 0 -89 62q0 51 28 68q69 0 95 -12q10 -6 19 -13q4 -1 44 -14t65.5 -23t60 -26t52.5 -35t18 -38q0 -17 -15 -28.5t-33 -11.5q-9 0 -29.5 6t-48 16t-50 18.5t-49.5 19.5t-33 13zM597 41v-2q0 -46 -31 -58q-43 0 -67 14t-24 54q0 73 -30 249
q-9 0 -30.5 3t-32.5 3h-68q-23 10 -81 10q0 -2 -2.5 -26.5t-4 -39.5t-5 -44.5t-7.5 -50t-10 -48t-13.5 -46t-16.5 -36t-21 -26t-25 -8.5q-24 0 -44.5 15.5t-20.5 39.5q17 65 33 133.5t31 148.5t24.5 132t26 149.5t23.5 136.5q8 46 35.5 167.5t36.5 188.5q2 15 6.5 80
t12.5 111.5t25 71.5h69q70 0 70 -42q0 -395 77 -785q4 -23 15 -64t17.5 -75.5t6.5 -65.5q0 -7 -5.5 -21t-5.5 -20q0 -25 18 -122t18 -127zM432 375q-6 30 -6 76q0 88 -8.5 183.5t-24.5 221.5t-22 182q-12 -58 -46.5 -194t-53.5 -238.5t-20 -197.5q35 -23 181 -33z" />
    <glyph glyph-name="aacute" unicode="&#xe1;" horiz-adv-x="674" 
d="M355 1534v2q1 24 55.5 70.5t126 97t86.5 64.5q32 0 55 -13.5t23 -42.5q0 -1 -9 -49q-66 -27 -142.5 -79.5t-125.5 -103.5q-29 0 -49 13.5t-20 40.5zM597 41v-2q0 -46 -31 -58q-43 0 -67 14t-24 54q0 73 -30 249q-9 0 -30.5 3t-32.5 3h-68q-23 10 -81 10q0 -2 -2.5 -26.5
t-4 -39.5t-5 -44.5t-7.5 -50t-10 -48t-13.5 -46t-16.5 -36t-21 -26t-25 -8.5q-24 0 -44.5 15.5t-20.5 39.5q17 65 33 133.5t31 148.5t24.5 132t26 149.5t23.5 136.5q8 46 35.5 167.5t36.5 188.5q2 15 6.5 80t12.5 111.5t25 71.5h69q70 0 70 -42q0 -395 77 -785q4 -23 15 -64
t17.5 -75.5t6.5 -65.5q0 -7 -5.5 -21t-5.5 -20q0 -25 18 -122t18 -127zM432 375q-6 30 -6 76q0 88 -8.5 183.5t-24.5 221.5t-22 182q-12 -58 -46.5 -194t-53.5 -238.5t-20 -197.5q35 -23 181 -33z" />
    <glyph glyph-name="acircumflex" unicode="&#xe2;" horiz-adv-x="674" 
d="M431 1746q-8 -24 -22 -69.5t-22.5 -70.5t-26.5 -60t-42 -65l-67 48q4 38 36 128t79.5 172.5t81.5 82.5q52 0 52 -67q0 -45 31 -124t31 -114v-52q1 -3 9.5 -12t8.5 -13q0 -23 -20.5 -36.5t-44.5 -13.5h-44q-17 171 -40 266zM597 41v-2q0 -46 -31 -58q-43 0 -67 14t-24 54
q0 73 -30 249q-9 0 -30.5 3t-32.5 3h-68q-23 10 -81 10q0 -2 -2.5 -26.5t-4 -39.5t-5 -44.5t-7.5 -50t-10 -48t-13.5 -46t-16.5 -36t-21 -26t-25 -8.5q-24 0 -44.5 15.5t-20.5 39.5q17 65 33 133.5t31 148.5t24.5 132t26 149.5t23.5 136.5q8 46 35.5 167.5t36.5 188.5
q2 15 6.5 80t12.5 111.5t25 71.5h69q70 0 70 -42q0 -395 77 -785q4 -23 15 -64t17.5 -75.5t6.5 -65.5q0 -7 -5.5 -21t-5.5 -20q0 -25 18 -122t18 -127zM432 375q-6 30 -6 76q0 88 -8.5 183.5t-24.5 221.5t-22 182q-12 -58 -46.5 -194t-53.5 -238.5t-20 -197.5
q35 -23 181 -33z" />
    <glyph glyph-name="atilde" unicode="&#xe3;" horiz-adv-x="674" 
d="M172 1539q0 70 40.5 119.5t108.5 49.5l102 -52q9 -24 30.5 -48t43.5 -24v1q6 6 20.5 12.5t23.5 13.5t9 19q0 7 -6 22.5t-7 22.5q16 32 46 32q34 0 52 -29t18 -65q0 -53 -39.5 -92.5t-92.5 -39.5q-40 0 -79 21.5t-62 44t-56 60.5v2l-53 -31v-98q-34 0 -66.5 15.5
t-32.5 43.5zM597 41v-2q0 -46 -31 -58q-43 0 -67 14t-24 54q0 73 -30 249q-9 0 -30.5 3t-32.5 3h-68q-23 10 -81 10q0 -2 -2.5 -26.5t-4 -39.5t-5 -44.5t-7.5 -50t-10 -48t-13.5 -46t-16.5 -36t-21 -26t-25 -8.5q-24 0 -44.5 15.5t-20.5 39.5q17 65 33 133.5t31 148.5
t24.5 132t26 149.5t23.5 136.5q8 46 35.5 167.5t36.5 188.5q2 15 6.5 80t12.5 111.5t25 71.5h69q70 0 70 -42q0 -395 77 -785q4 -23 15 -64t17.5 -75.5t6.5 -65.5q0 -7 -5.5 -21t-5.5 -20q0 -25 18 -122t18 -127zM432 375q-6 30 -6 76q0 88 -8.5 183.5t-24.5 221.5t-22 182
q-12 -58 -46.5 -194t-53.5 -238.5t-20 -197.5q35 -23 181 -33z" />
    <glyph glyph-name="adieresis" unicode="&#xe4;" horiz-adv-x="674" 
d="M552 1549q0 29 22 52t51 23q27 0 47.5 -22.5t20.5 -50.5q0 -31 -23 -51t-54 -20q-26 0 -45 21t-19 48zM191 1480q-28 0 -43.5 19t-15.5 48q0 31 20 52.5t50 21.5q29 0 50 -20t21 -49q0 -30 -25.5 -51t-56.5 -21zM597 41v-2q0 -46 -31 -58q-43 0 -67 14t-24 54
q0 73 -30 249q-9 0 -30.5 3t-32.5 3h-68q-23 10 -81 10q0 -2 -2.5 -26.5t-4 -39.5t-5 -44.5t-7.5 -50t-10 -48t-13.5 -46t-16.5 -36t-21 -26t-25 -8.5q-24 0 -44.5 15.5t-20.5 39.5q17 65 33 133.5t31 148.5t24.5 132t26 149.5t23.5 136.5q8 46 35.5 167.5t36.5 188.5
q2 15 6.5 80t12.5 111.5t25 71.5h69q70 0 70 -42q0 -395 77 -785q4 -23 15 -64t17.5 -75.5t6.5 -65.5q0 -7 -5.5 -21t-5.5 -20q0 -25 18 -122t18 -127zM432 375q-6 30 -6 76q0 88 -8.5 183.5t-24.5 221.5t-22 182q-12 -58 -46.5 -194t-53.5 -238.5t-20 -197.5
q35 -23 181 -33z" />
    <glyph glyph-name="aring" unicode="&#xe5;" horiz-adv-x="674" 
d="M303 1587q0 47 35 84.5t81 37.5q43 0 76 -36t33 -79q0 -52 -35.5 -83t-88.5 -31q-41 0 -71 33t-30 74zM417 1596l-24 -30h38q0 43 -14 57v-27zM597 41v-2q0 -46 -31 -58q-43 0 -67 14t-24 54q0 73 -30 249q-9 0 -30.5 3t-32.5 3h-68q-23 10 -81 10q0 -2 -2.5 -26.5
t-4 -39.5t-5 -44.5t-7.5 -50t-10 -48t-13.5 -46t-16.5 -36t-21 -26t-25 -8.5q-24 0 -44.5 15.5t-20.5 39.5q17 65 33 133.5t31 148.5t24.5 132t26 149.5t23.5 136.5q8 46 35.5 167.5t36.5 188.5q2 15 6.5 80t12.5 111.5t25 71.5h69q70 0 70 -42q0 -395 77 -785q4 -23 15 -64
t17.5 -75.5t6.5 -65.5q0 -7 -5.5 -21t-5.5 -20q0 -25 18 -122t18 -127zM432 375q-6 30 -6 76q0 88 -8.5 183.5t-24.5 221.5t-22 182q-12 -58 -46.5 -194t-53.5 -238.5t-20 -197.5q35 -23 181 -33z" />
    <glyph glyph-name="ae" unicode="&#xe6;" horiz-adv-x="921" 
d="M470 666q1 24 4 127.5t3 159.5q0 87 -2 130q-118 -301 -152 -435q83 3 147 18zM509 -13q-14 0 -27.5 9t-13.5 23q0 38 7.5 116.5t7.5 117.5q0 57 -5 170t-5 170q-14 -1 -42 -2.5t-45 -3t-40.5 -5.5t-42.5 -11l-169 -578q-18 0 -42.5 20t-24.5 35q0 89 62 296.5
t172.5 517.5t113.5 318q3 11 11.5 40.5t14 44t17 34.5t29 31t41.5 14q76 10 156 10q87 0 87 -56v-48q-64 -10 -213 -10q1 -40 7.5 -132t6.5 -142q0 -48 -3 -145t-3 -145q18 1 72 5t84 4l42 -38q0 -51 -115 -50h-7h-77q0 -74 3 -247.5t3 -267.5q36 0 111 10.5t114 10.5
q25 0 46.5 -13.5t21.5 -36.5q0 -67 -275 -67q-20 0 -48 0.5t-32 0.5z" />
    <glyph glyph-name="ccedilla" unicode="&#xe7;" horiz-adv-x="568" 
d="M348 -191q19 38 19 112v47h112q-11 -57 -13 -93q78 -15 113.5 -78t35.5 -149q0 -67 -56 -126.5t-123 -59.5q-42 0 -77 20.5t-35 58.5q0 18 14 31t32 13q37 0 66 -20q15 1 30.5 22.5t15.5 37.5t-3.5 32.5t-10.5 37.5t-9 31l35 -35v9q0 36 -17 52q-33 -5 -47 -5
q-26 0 -42 12.5t-40 49.5zM499 52q0 -81 -114 -81q-47 0 -96.5 13.5t-74.5 29.5q-136 88 -136 481q0 14 -0.5 54.5t-0.5 65.5q0 589 144 695q41 30 87.5 42t118.5 12q22 0 40.5 -16t18.5 -37v-8q-19 -47 -99 -47q-6 0 -18 1t-19 1q-34 0 -60.5 -37t-40.5 -89t-23 -116.5
t-11.5 -110t-2.5 -78.5v-10q0 -66 -6.5 -197.5t-6.5 -197.5q0 -35 1 -62.5t5.5 -64.5t12.5 -65.5t22.5 -58t34.5 -48.5t50 -31.5t68 -12.5q24 0 44 18q24 0 43 -11t19 -34z" />
    <glyph glyph-name="egrave" unicode="&#xe8;" horiz-adv-x="517" 
d="M60 1553q-22 -2 -35 -2q-89 0 -89 62q0 51 28 68q69 0 95 -12q10 -6 19 -13q4 -1 44 -14t65.5 -23t60 -26t52.5 -35t18 -38q0 -17 -15 -28.5t-33 -11.5q-9 0 -29.5 6t-48 16t-50 18.5t-49.5 19.5t-33 13zM102 36q-1 29 4.5 71t5.5 67q0 43 -5 130.5t-5 131.5q0 100 7 299
t7 299q0 29 -5.5 86.5t-5.5 86.5q0 145 86 145q24 0 45 -15q8 -1 38.5 -3.5t53.5 -6.5t50.5 -11.5t42.5 -21.5t15 -33q0 -22 -17.5 -38.5t-42.5 -25.5q-94 32 -155 39q3 -44 3 -88q0 -49 -4.5 -147t-4.5 -147q0 -2 6 -32q8 0 33 1.5t40 1.5q99 0 99 -56q0 -30 -17.5 -53
t-47.5 -23q-34 0 -58 18h-52q6 -78 6 -148q0 -51 -2 -118t-4.5 -134.5t-2.5 -118.5q0 -23 2.5 -40.5t10 -36t23 -28.5t38.5 -10q8 0 36 2.5t45 2.5q78 0 78 -50q0 -31 -27 -45t-61 -14h-193q-26 0 -44.5 18t-20.5 45z" />
    <glyph glyph-name="eacute" unicode="&#xe9;" horiz-adv-x="517" 
d="M162 1534v2q1 24 55.5 70.5t126 97t86.5 64.5q32 0 55 -13.5t23 -42.5q0 -1 -9 -49q-66 -27 -142.5 -79.5t-125.5 -103.5q-29 0 -49 13.5t-20 40.5zM102 36q-1 29 4.5 71t5.5 67q0 43 -5 130.5t-5 131.5q0 100 7 299t7 299q0 29 -5.5 86.5t-5.5 86.5q0 145 86 145
q24 0 45 -15q8 -1 38.5 -3.5t53.5 -6.5t50.5 -11.5t42.5 -21.5t15 -33q0 -22 -17.5 -38.5t-42.5 -25.5q-94 32 -155 39q3 -44 3 -88q0 -49 -4.5 -147t-4.5 -147q0 -2 6 -32q8 0 33 1.5t40 1.5q99 0 99 -56q0 -30 -17.5 -53t-47.5 -23q-34 0 -58 18h-52q6 -78 6 -148
q0 -51 -2 -118t-4.5 -134.5t-2.5 -118.5q0 -23 2.5 -40.5t10 -36t23 -28.5t38.5 -10q8 0 36 2.5t45 2.5q78 0 78 -50q0 -31 -27 -45t-61 -14h-193q-26 0 -44.5 18t-20.5 45z" />
    <glyph glyph-name="ecircumflex" unicode="&#xea;" horiz-adv-x="517" 
d="M280 1746q-8 -24 -22 -69.5t-22.5 -70.5t-26.5 -60t-42 -65l-67 48q4 38 36 128t79.5 172.5t81.5 82.5q52 0 52 -67q0 -45 31 -124t31 -114v-52q1 -3 9.5 -12t8.5 -13q0 -23 -20.5 -36.5t-44.5 -13.5h-44q-17 171 -40 266zM102 36q-1 29 4.5 71t5.5 67q0 43 -5 130.5
t-5 131.5q0 100 7 299t7 299q0 29 -5.5 86.5t-5.5 86.5q0 145 86 145q24 0 45 -15q8 -1 38.5 -3.5t53.5 -6.5t50.5 -11.5t42.5 -21.5t15 -33q0 -22 -17.5 -38.5t-42.5 -25.5q-94 32 -155 39q3 -44 3 -88q0 -49 -4.5 -147t-4.5 -147q0 -2 6 -32q8 0 33 1.5t40 1.5
q99 0 99 -56q0 -30 -17.5 -53t-47.5 -23q-34 0 -58 18h-52q6 -78 6 -148q0 -51 -2 -118t-4.5 -134.5t-2.5 -118.5q0 -23 2.5 -40.5t10 -36t23 -28.5t38.5 -10q8 0 36 2.5t45 2.5q78 0 78 -50q0 -31 -27 -45t-61 -14h-193q-26 0 -44.5 18t-20.5 45z" />
    <glyph glyph-name="edieresis" unicode="&#xeb;" horiz-adv-x="517" 
d="M401 1549q0 29 22 52t51 23q27 0 47.5 -22.5t20.5 -50.5q0 -31 -23 -51t-54 -20q-26 0 -45 21t-19 48zM40 1480q-28 0 -43.5 19t-15.5 48q0 31 20 52.5t50 21.5q29 0 50 -20t21 -49q0 -30 -25.5 -51t-56.5 -21zM102 36q-1 29 4.5 71t5.5 67q0 43 -5 130.5t-5 131.5
q0 100 7 299t7 299q0 29 -5.5 86.5t-5.5 86.5q0 145 86 145q24 0 45 -15q8 -1 38.5 -3.5t53.5 -6.5t50.5 -11.5t42.5 -21.5t15 -33q0 -22 -17.5 -38.5t-42.5 -25.5q-94 32 -155 39q3 -44 3 -88q0 -49 -4.5 -147t-4.5 -147q0 -2 6 -32q8 0 33 1.5t40 1.5q99 0 99 -56
q0 -30 -17.5 -53t-47.5 -23q-34 0 -58 18h-52q6 -78 6 -148q0 -51 -2 -118t-4.5 -134.5t-2.5 -118.5q0 -23 2.5 -40.5t10 -36t23 -28.5t38.5 -10q8 0 36 2.5t45 2.5q78 0 78 -50q0 -31 -27 -45t-61 -14h-193q-26 0 -44.5 18t-20.5 45z" />
    <glyph glyph-name="igrave" unicode="&#xec;" horiz-adv-x="552" 
d="M95 1553q-22 -2 -35 -2q-89 0 -89 62q0 51 28 68q69 0 95 -12q10 -6 19 -13q4 -1 44 -14t65.5 -23t60 -26t52.5 -35t18 -38q0 -17 -15 -28.5t-33 -11.5q-9 0 -29.5 6t-48 16t-50 18.5t-49.5 19.5t-33 13zM329 246v-61q0 -5 -0.5 -14t-1 -14.5t1 -12.5t5.5 -13v-3
q6 0 34 1t41 1q84 0 84 -51q0 -26 -20.5 -44.5t-47.5 -18.5q-11 0 -34 3.5t-34 3.5q-5 0 -31 -11.5t-47 -11.5q-42 0 -63 20q-16 -2 -25 -2q-57 0 -76 37q0 40 32 55v8h65q0 3 2 12.5t2 14.5q0 73 -7 218t-7 217q0 76 5.5 228t5.5 228q0 115 -10 218h-39h-14.5h-17.5h-15
q-30 0 -47 11.5t-17 43.5q0 48 111 47h7q263 0 263 -83q0 -11 -12 -38h-105q8 -75 8 -163q0 -65 -5.5 -195.5t-5.5 -195.5q0 -73 7.5 -218t7.5 -217z" />
    <glyph glyph-name="iacute" unicode="&#xed;" horiz-adv-x="552" 
d="M239 1534v2q1 24 55.5 70.5t126 97t86.5 64.5q32 0 55 -13.5t23 -42.5q0 -1 -9 -49q-66 -27 -142.5 -79.5t-125.5 -103.5q-29 0 -49 13.5t-20 40.5zM329 246v-61q0 -5 -0.5 -14t-1 -14.5t1 -12.5t5.5 -13v-3q6 0 34 1t41 1q84 0 84 -51q0 -26 -20.5 -44.5t-47.5 -18.5
q-11 0 -34 3.5t-34 3.5q-5 0 -31 -11.5t-47 -11.5q-42 0 -63 20q-16 -2 -25 -2q-57 0 -76 37q0 40 32 55v8h65q0 3 2 12.5t2 14.5q0 73 -7 218t-7 217q0 76 5.5 228t5.5 228q0 115 -10 218h-39h-14.5h-17.5h-15q-30 0 -47 11.5t-17 43.5q0 48 111 47h7q263 0 263 -83
q0 -11 -12 -38h-105q8 -75 8 -163q0 -65 -5.5 -195.5t-5.5 -195.5q0 -73 7.5 -218t7.5 -217z" />
    <glyph glyph-name="icircumflex" unicode="&#xee;" horiz-adv-x="552" 
d="M315 1746q-8 -24 -22 -69.5t-22.5 -70.5t-26.5 -60t-42 -65l-67 48q4 38 36 128t79.5 172.5t81.5 82.5q52 0 52 -67q0 -45 31 -124t31 -114v-52q1 -3 9.5 -12t8.5 -13q0 -23 -20.5 -36.5t-44.5 -13.5h-44q-17 171 -40 266zM329 246v-61q0 -5 -0.5 -14t-1 -14.5t1 -12.5
t5.5 -13v-3q6 0 34 1t41 1q84 0 84 -51q0 -26 -20.5 -44.5t-47.5 -18.5q-11 0 -34 3.5t-34 3.5q-5 0 -31 -11.5t-47 -11.5q-42 0 -63 20q-16 -2 -25 -2q-57 0 -76 37q0 40 32 55v8h65q0 3 2 12.5t2 14.5q0 73 -7 218t-7 217q0 76 5.5 228t5.5 228q0 115 -10 218h-39h-14.5
h-17.5h-15q-30 0 -47 11.5t-17 43.5q0 48 111 47h7q263 0 263 -83q0 -11 -12 -38h-105q8 -75 8 -163q0 -65 -5.5 -195.5t-5.5 -195.5q0 -73 7.5 -218t7.5 -217z" />
    <glyph glyph-name="idieresis" unicode="&#xef;" horiz-adv-x="552" 
d="M436 1549q0 29 22 52t51 23q27 0 47.5 -22.5t20.5 -50.5q0 -31 -23 -51t-54 -20q-26 0 -45 21t-19 48zM75 1480q-28 0 -43.5 19t-15.5 48q0 31 20 52.5t50 21.5q29 0 50 -20t21 -49q0 -30 -25.5 -51t-56.5 -21zM329 246v-61q0 -5 -0.5 -14t-1 -14.5t1 -12.5t5.5 -13v-3
q6 0 34 1t41 1q84 0 84 -51q0 -26 -20.5 -44.5t-47.5 -18.5q-11 0 -34 3.5t-34 3.5q-5 0 -31 -11.5t-47 -11.5q-42 0 -63 20q-16 -2 -25 -2q-57 0 -76 37q0 40 32 55v8h65q0 3 2 12.5t2 14.5q0 73 -7 218t-7 217q0 76 5.5 228t5.5 228q0 115 -10 218h-39h-14.5h-17.5h-15
q-30 0 -47 11.5t-17 43.5q0 48 111 47h7q263 0 263 -83q0 -11 -12 -38h-105q8 -75 8 -163q0 -65 -5.5 -195.5t-5.5 -195.5q0 -73 7.5 -218t7.5 -217z" />
    <glyph glyph-name="eth" unicode="&#xf0;" horiz-adv-x="559" 
d="M488 1326q0 -39 -105 -59q52 -242 52 -626q0 -59 -4.5 -179t-4.5 -179q0 -33 -1 -56t-4.5 -56.5t-10.5 -57t-19.5 -49.5t-30.5 -42t-45 -26.5t-61 -10.5t-60.5 11t-44 28.5t-30.5 45t-20 53.5t-10.5 61t-4.5 61t-1 60q-1 8 -1.5 22.5t-1 59t0.5 87.5t6.5 102t14 109
t25 101.5t38.5 87.5t55 59t74 23q8 0 26 -2q-25 189 -48 297q-84 -9 -169 -9q-9 0 -13 11t-4 19q0 47 166 68q-30 111 -56 133q-19 3 -36.5 10.5t-31.5 22t-14 33.5q0 18 17 30.5t36 12.5q127 0 194 -231q74 4 110 4q8 0 12.5 -10.5t4.5 -18.5zM249 72q18 0 30.5 7.5
t19.5 16.5t11 26.5t5 29t2 32t2 27.5q21 278 21 470q0 168 -59 204q-18 -5 -33 -25t-25 -52.5t-17.5 -68t-11.5 -81.5t-7 -81.5t-4 -79t-1 -63v-44.5q0 -5 -0.5 -15t-0.5 -23.5v-26.5q0 -253 68 -253z" />
    <glyph glyph-name="ntilde" unicode="&#xf1;" horiz-adv-x="769" 
d="M204 1539q0 70 40.5 119.5t108.5 49.5l102 -52q9 -24 30.5 -48t43.5 -24v1q6 6 20.5 12.5t23.5 13.5t9 19q0 7 -6 22.5t-7 22.5q16 32 46 32q34 0 52 -29t18 -65q0 -53 -39.5 -92.5t-92.5 -39.5q-40 0 -79 21.5t-62 44t-56 60.5v2l-53 -31v-98q-34 0 -66.5 15.5
t-32.5 43.5zM223 278v-232q0 -27 -14 -45.5t-39 -18.5q-67 0 -67 125q0 120 -2 361t-2 361q0 63 6 191t6 191q0 138 75 138q17 0 31.5 -13t22 -27.5t11.5 -28.5q28 -132 97.5 -379.5t95.5 -376.5q19 -63 49 -186.5t47 -185.5q8 444 8 1076q0 8 -1.5 26.5t-1.5 28.5
q0 28 10.5 44.5t40.5 16.5q20 0 36 -12t24 -30.5t8 -37.5q0 -281 -16 -722t-48 -551q-4 -1 -17 -5.5t-19.5 -6t-17 -3.5t-18.5 -2q-27 0 -39 14.5t-18.5 44.5t-11.5 40q-12 47 -67.5 291t-108.5 467.5t-72 282.5v-306q0 -51 6 -247t6 -283z" />
    <glyph glyph-name="ograve" unicode="&#xf2;" horiz-adv-x="669" 
d="M127 1553q-22 -2 -35 -2q-89 0 -89 62q0 51 28 68q69 0 95 -12q10 -6 19 -13q4 -1 44 -14t65.5 -23t60 -26t52.5 -35t18 -38q0 -17 -15 -28.5t-33 -11.5q-9 0 -29.5 6t-48 16t-50 18.5t-49.5 19.5t-33 13zM193 913q0 -33 -0.5 -98t-0.5 -98q0 -25 1 -59t2.5 -89.5t6 -110
t10.5 -115t16 -112t22.5 -94t31 -66.5t39.5 -24q30 0 53 30t37 80.5t24 106t14.5 118.5t6 105t1.5 77q0 21 1.5 93t1.5 118q0 62 -2 114t-8 111.5t-17.5 105t-28 84t-43 59t-60.5 20.5h-4q-33 0 -55.5 -20.5t-33 -57.5t-14.5 -74t-4 -84q0 -25 1.5 -66t1.5 -54zM329 -38
q-45 0 -83 26t-63.5 67.5t-45 100t-30.5 118t-17.5 127t-9 120t-2.5 105.5q0 25 -0.5 66.5t-0.5 58.5v9v14.5v16.5q0 39 1 76t5.5 95t12 107t22.5 103t35 91.5t51 62.5t69 27q24 -8 51.5 -14t44.5 -9.5t36.5 -12.5t37.5 -28.5t37 -51.5q49 -80 69.5 -199.5t20.5 -239.5v-247
q0 -36 -0.5 -68.5t-3.5 -79.5t-8 -86.5t-14 -86t-21 -83.5t-30.5 -72.5t-41.5 -59.5t-54 -38.5t-68 -14.5z" />
    <glyph glyph-name="oacute" unicode="&#xf3;" horiz-adv-x="669" 
d="M188 1534v2q1 24 55.5 70.5t126 97t86.5 64.5q32 0 55 -13.5t23 -42.5q0 -1 -9 -49q-66 -27 -142.5 -79.5t-125.5 -103.5q-29 0 -49 13.5t-20 40.5zM193 913q0 -33 -0.5 -98t-0.5 -98q0 -25 1 -59t2.5 -89.5t6 -110t10.5 -115t16 -112t22.5 -94t31 -66.5t39.5 -24
q30 0 53 30t37 80.5t24 106t14.5 118.5t6 105t1.5 77q0 21 1.5 93t1.5 118q0 62 -2 114t-8 111.5t-17.5 105t-28 84t-43 59t-60.5 20.5h-4q-33 0 -55.5 -20.5t-33 -57.5t-14.5 -74t-4 -84q0 -25 1.5 -66t1.5 -54zM329 -38q-45 0 -83 26t-63.5 67.5t-45 100t-30.5 118
t-17.5 127t-9 120t-2.5 105.5q0 25 -0.5 66.5t-0.5 58.5v9v14.5v16.5q0 39 1 76t5.5 95t12 107t22.5 103t35 91.5t51 62.5t69 27q24 -8 51.5 -14t44.5 -9.5t36.5 -12.5t37.5 -28.5t37 -51.5q49 -80 69.5 -199.5t20.5 -239.5v-247q0 -36 -0.5 -68.5t-3.5 -79.5t-8 -86.5
t-14 -86t-21 -83.5t-30.5 -72.5t-41.5 -59.5t-54 -38.5t-68 -14.5z" />
    <glyph glyph-name="ocircumflex" unicode="&#xf4;" horiz-adv-x="669" 
d="M347 1746q-8 -24 -22 -69.5t-22.5 -70.5t-26.5 -60t-42 -65l-67 48q4 38 36 128t79.5 172.5t81.5 82.5q52 0 52 -67q0 -45 31 -124t31 -114v-52q1 -3 9.5 -12t8.5 -13q0 -23 -20.5 -36.5t-44.5 -13.5h-44q-17 171 -40 266zM193 913q0 -33 -0.5 -98t-0.5 -98q0 -25 1 -59
t2.5 -89.5t6 -110t10.5 -115t16 -112t22.5 -94t31 -66.5t39.5 -24q30 0 53 30t37 80.5t24 106t14.5 118.5t6 105t1.5 77q0 21 1.5 93t1.5 118q0 62 -2 114t-8 111.5t-17.5 105t-28 84t-43 59t-60.5 20.5h-4q-33 0 -55.5 -20.5t-33 -57.5t-14.5 -74t-4 -84q0 -25 1.5 -66
t1.5 -54zM329 -38q-45 0 -83 26t-63.5 67.5t-45 100t-30.5 118t-17.5 127t-9 120t-2.5 105.5q0 25 -0.5 66.5t-0.5 58.5v9v14.5v16.5q0 39 1 76t5.5 95t12 107t22.5 103t35 91.5t51 62.5t69 27q24 -8 51.5 -14t44.5 -9.5t36.5 -12.5t37.5 -28.5t37 -51.5q49 -80 69.5 -199.5
t20.5 -239.5v-247q0 -36 -0.5 -68.5t-3.5 -79.5t-8 -86.5t-14 -86t-21 -83.5t-30.5 -72.5t-41.5 -59.5t-54 -38.5t-68 -14.5z" />
    <glyph glyph-name="otilde" unicode="&#xf5;" horiz-adv-x="669" 
d="M88 1539q0 70 40.5 119.5t108.5 49.5l102 -52q9 -24 30.5 -48t43.5 -24v1q6 6 20.5 12.5t23.5 13.5t9 19q0 7 -6 22.5t-7 22.5q16 32 46 32q34 0 52 -29t18 -65q0 -53 -39.5 -92.5t-92.5 -39.5q-40 0 -79 21.5t-62 44t-56 60.5v2l-53 -31v-98q-34 0 -66.5 15.5
t-32.5 43.5zM193 913q0 -33 -0.5 -98t-0.5 -98q0 -25 1 -59t2.5 -89.5t6 -110t10.5 -115t16 -112t22.5 -94t31 -66.5t39.5 -24q30 0 53 30t37 80.5t24 106t14.5 118.5t6 105t1.5 77q0 21 1.5 93t1.5 118q0 62 -2 114t-8 111.5t-17.5 105t-28 84t-43 59t-60.5 20.5h-4
q-33 0 -55.5 -20.5t-33 -57.5t-14.5 -74t-4 -84q0 -25 1.5 -66t1.5 -54zM329 -38q-45 0 -83 26t-63.5 67.5t-45 100t-30.5 118t-17.5 127t-9 120t-2.5 105.5q0 25 -0.5 66.5t-0.5 58.5v9v14.5v16.5q0 39 1 76t5.5 95t12 107t22.5 103t35 91.5t51 62.5t69 27q24 -8 51.5 -14
t44.5 -9.5t36.5 -12.5t37.5 -28.5t37 -51.5q49 -80 69.5 -199.5t20.5 -239.5v-247q0 -36 -0.5 -68.5t-3.5 -79.5t-8 -86.5t-14 -86t-21 -83.5t-30.5 -72.5t-41.5 -59.5t-54 -38.5t-68 -14.5z" />
    <glyph glyph-name="odieresis" unicode="&#xf6;" horiz-adv-x="669" 
d="M468 1549q0 29 22 52t51 23q27 0 47.5 -22.5t20.5 -50.5q0 -31 -23 -51t-54 -20q-26 0 -45 21t-19 48zM107 1480q-28 0 -43.5 19t-15.5 48q0 31 20 52.5t50 21.5q29 0 50 -20t21 -49q0 -30 -25.5 -51t-56.5 -21zM193 913q0 -33 -0.5 -98t-0.5 -98q0 -25 1 -59t2.5 -89.5
t6 -110t10.5 -115t16 -112t22.5 -94t31 -66.5t39.5 -24q30 0 53 30t37 80.5t24 106t14.5 118.5t6 105t1.5 77q0 21 1.5 93t1.5 118q0 62 -2 114t-8 111.5t-17.5 105t-28 84t-43 59t-60.5 20.5h-4q-33 0 -55.5 -20.5t-33 -57.5t-14.5 -74t-4 -84q0 -25 1.5 -66t1.5 -54z
M329 -38q-45 0 -83 26t-63.5 67.5t-45 100t-30.5 118t-17.5 127t-9 120t-2.5 105.5q0 25 -0.5 66.5t-0.5 58.5v9v14.5v16.5q0 39 1 76t5.5 95t12 107t22.5 103t35 91.5t51 62.5t69 27q24 -8 51.5 -14t44.5 -9.5t36.5 -12.5t37.5 -28.5t37 -51.5q49 -80 69.5 -199.5
t20.5 -239.5v-247q0 -36 -0.5 -68.5t-3.5 -79.5t-8 -86.5t-14 -86t-21 -83.5t-30.5 -72.5t-41.5 -59.5t-54 -38.5t-68 -14.5z" />
    <glyph glyph-name="divide" unicode="&#xf7;" horiz-adv-x="714" 
d="M61 655q0 21 12.5 33.5t33.5 12.5h427q22 0 34 -1t30 -5.5t26.5 -16.5t8.5 -31q0 -24 -16.5 -35.5t-41.5 -11.5q-72 0 -216.5 -5t-215.5 -5q-82 0 -82 65zM346 789q-29 0 -52 22t-23 51q0 27 22.5 47.5t50.5 20.5q31 0 51 -23t20 -54q0 -26 -21 -45t-48 -19zM415 428
q0 -28 -19 -43.5t-48 -15.5q-31 0 -52.5 20t-21.5 50q0 29 20 50t49 21q30 0 51 -25.5t21 -56.5z" />
    <glyph glyph-name="oslash" unicode="&#xf8;" horiz-adv-x="578" 
d="M449 1064v-16q1 -46 14 -138.5t13 -136.5q1 -39 2.5 -110.5t2.5 -130t1 -110.5q0 -32 -0.5 -53.5t-2.5 -59.5t-5.5 -65t-10.5 -62.5t-17.5 -61t-26 -52t-35.5 -43t-47.5 -27t-60.5 -10.5q-38 0 -72 16q0 -5 -2 -27t-4.5 -41.5t-6.5 -47.5t-9 -49.5t-12 -42t-17 -31.5
t-22 -11q-20 0 -31 16t-11 36v2q4 42 27.5 148.5t23.5 165.5q0 7 -1.5 15.5t-3.5 14.5t-4.5 15t-4.5 15q-7 31 -13 62.5t-10 69.5t-7.5 62t-5 70.5t-3 63.5t-2 71.5t-0.5 63v70v63.5v217v38.5t1 44.5t3.5 50.5t6 51t9.5 52t14.5 47t20.5 43t26.5 32.5t34.5 22.5t43 7.5
q20 0 52 -18v4q22 127 46 223h74q0 -53 -19.5 -151.5t-21.5 -144.5v-60q23 -35 36 -56t25.5 -54.5t12.5 -62.5zM292 73q93 0 93 350q0 163 -1 244t-9.5 215.5t-26.5 242.5q-15 -112 -27.5 -288t-28.5 -332t-45 -285q-14 -56 -14 -85q0 -36 12 -49t47 -13zM245 1280l-31 28
v-10q-25 -54 -34.5 -210.5t-9.5 -307.5q0 -28 1 -55t4 -63.5t4.5 -51.5t6.5 -63.5t6 -54.5q10 86 34 247t38.5 292.5t14.5 248.5h-34z" />
    <glyph glyph-name="ugrave" unicode="&#xf9;" horiz-adv-x="698" 
d="M371 1564q-22 -2 -35 -2q-89 0 -89 62q0 51 28 68q69 0 95 -12q10 -6 19 -13q4 -1 44 -14t65.5 -23t60 -26t52.5 -35t18 -38q0 -17 -15 -28.5t-33 -11.5q-9 0 -29.5 6t-48 16t-50 18.5t-49.5 19.5t-33 13zM583 878q-9 -44 -14 -138.5t-7.5 -189.5t-15.5 -202.5t-35 -189
t-70.5 -135.5t-118.5 -54q-49 0 -87 21.5t-62 62t-40 87t-24 107.5t-11 113t-3 113q0 113 5.5 280t5.5 260q0 177 -25 293v49q49 0 77.5 -38t28.5 -85v-991q0 -79 39.5 -144.5t116.5 -65.5q87 0 116 506v9t0.5 6.5t0.5 6.5q26 462 26 748q0 6 -0.5 17.5t-0.5 16.5
q0 24 11 36t45 12q28 0 43 -17t17.5 -34.5t2.5 -47.5q0 -35 -7 -104t-7 -102q0 -28 -4.5 -85t-4.5 -86q0 -6 1 -17.5t1 -17.5z" />
    <glyph glyph-name="uacute" unicode="&#xfa;" horiz-adv-x="698" 
d="M296 1545v2q1 24 55.5 70.5t126 97t86.5 64.5q32 0 55 -13.5t23 -42.5q0 -1 -9 -49q-66 -27 -142.5 -79.5t-125.5 -103.5q-29 0 -49 13.5t-20 40.5zM583 878q-9 -44 -14 -138.5t-7.5 -189.5t-15.5 -202.5t-35 -189t-70.5 -135.5t-118.5 -54q-49 0 -87 21.5t-62 62t-40 87
t-24 107.5t-11 113t-3 113q0 113 5.5 280t5.5 260q0 177 -25 293v49q49 0 77.5 -38t28.5 -85v-991q0 -79 39.5 -144.5t116.5 -65.5q87 0 116 506v9t0.5 6.5t0.5 6.5q26 462 26 748q0 6 -0.5 17.5t-0.5 16.5q0 24 11 36t45 12q28 0 43 -17t17.5 -34.5t2.5 -47.5
q0 -35 -7 -104t-7 -102q0 -28 -4.5 -85t-4.5 -86q0 -6 1 -17.5t1 -17.5z" />
    <glyph glyph-name="ucircumflex" unicode="&#xfb;" horiz-adv-x="698" 
d="M372 1757q-8 -24 -22 -69.5t-22.5 -70.5t-26.5 -60t-42 -65l-67 48q4 38 36 128t79.5 172.5t81.5 82.5q52 0 52 -67q0 -45 31 -124t31 -114v-52q1 -3 9.5 -12t8.5 -13q0 -23 -20.5 -36.5t-44.5 -13.5h-44q-17 171 -40 266zM583 878q-9 -44 -14 -138.5t-7.5 -189.5
t-15.5 -202.5t-35 -189t-70.5 -135.5t-118.5 -54q-49 0 -87 21.5t-62 62t-40 87t-24 107.5t-11 113t-3 113q0 113 5.5 280t5.5 260q0 177 -25 293v49q49 0 77.5 -38t28.5 -85v-991q0 -79 39.5 -144.5t116.5 -65.5q87 0 116 506v9t0.5 6.5t0.5 6.5q26 462 26 748
q0 6 -0.5 17.5t-0.5 16.5q0 24 11 36t45 12q28 0 43 -17t17.5 -34.5t2.5 -47.5q0 -35 -7 -104t-7 -102q0 -28 -4.5 -85t-4.5 -86q0 -6 1 -17.5t1 -17.5z" />
    <glyph glyph-name="udieresis" unicode="&#xfc;" horiz-adv-x="698" 
d="M493 1560q0 29 22 52t51 23q27 0 47.5 -22.5t20.5 -50.5q0 -31 -23 -51t-54 -20q-26 0 -45 21t-19 48zM132 1491q-28 0 -43.5 19t-15.5 48q0 31 20 52.5t50 21.5q29 0 50 -20t21 -49q0 -30 -25.5 -51t-56.5 -21zM583 878q-9 -44 -14 -138.5t-7.5 -189.5t-15.5 -202.5
t-35 -189t-70.5 -135.5t-118.5 -54q-49 0 -87 21.5t-62 62t-40 87t-24 107.5t-11 113t-3 113q0 113 5.5 280t5.5 260q0 177 -25 293v49q49 0 77.5 -38t28.5 -85v-991q0 -79 39.5 -144.5t116.5 -65.5q87 0 116 506v9t0.5 6.5t0.5 6.5q26 462 26 748q0 6 -0.5 17.5t-0.5 16.5
q0 24 11 36t45 12q28 0 43 -17t17.5 -34.5t2.5 -47.5q0 -35 -7 -104t-7 -102q0 -28 -4.5 -85t-4.5 -86q0 -6 1 -17.5t1 -17.5z" />
    <glyph glyph-name="yacute" unicode="&#xfd;" horiz-adv-x="580" 
d="M246 1534v2q1 24 55.5 70.5t126 97t86.5 64.5q32 0 55 -13.5t23 -42.5q0 -1 -9 -49q-66 -27 -142.5 -79.5t-125.5 -103.5q-29 0 -49 13.5t-20 40.5zM379 109q0 -29 -1.5 -46.5t-6.5 -41.5t-19 -36.5t-36 -12.5q-37 0 -57 45q23 45 23 347q0 57 -8 160.5t-9 139.5
q-40 69 -123.5 317.5t-83.5 306.5v11l46 34q35 -1 73.5 -90.5t76.5 -227t38 -138.5q8 22 32 152.5t56 231.5t72 101q19 0 34.5 -12t15.5 -31q0 -67 -19 -148.5t-42.5 -146t-42.5 -147t-19 -151.5v-617z" />
    <glyph glyph-name="thorn" unicode="&#xfe;" horiz-adv-x="553" 
d="M99 1178v309q0 61 49 61q75 0 75 -168q0 -36 -3.5 -87.5t-3.5 -59.5q83 -12 143 -76t86.5 -145t26.5 -167q0 -128 -66.5 -224.5t-183.5 -148.5q0 -64 7.5 -196.5t7.5 -201.5q0 -85 -67 -85q-25 0 -37 21t-12 48q0 187 -11 560.5t-11 559.5zM366 828q0 66 -4.5 104
t-23.5 72.5t-43 58t-76 66.5q0 -93 -1 -279t-1 -279q73 52 111 112.5t38 144.5z" />
    <glyph glyph-name="ydieresis" unicode="&#xff;" horiz-adv-x="580" 
d="M443 1549q0 29 22 52t51 23q27 0 47.5 -22.5t20.5 -50.5q0 -31 -23 -51t-54 -20q-26 0 -45 21t-19 48zM82 1480q-28 0 -43.5 19t-15.5 48q0 31 20 52.5t50 21.5q29 0 50 -20t21 -49q0 -30 -25.5 -51t-56.5 -21zM379 109q0 -29 -1.5 -46.5t-6.5 -41.5t-19 -36.5t-36 -12.5
q-37 0 -57 45q23 45 23 347q0 57 -8 160.5t-9 139.5q-40 69 -123.5 317.5t-83.5 306.5v11l46 34q35 -1 73.5 -90.5t76.5 -227t38 -138.5q8 22 32 152.5t56 231.5t72 101q19 0 34.5 -12t15.5 -31q0 -67 -19 -148.5t-42.5 -146t-42.5 -147t-19 -151.5v-617z" />
    <glyph glyph-name="Amacron" unicode="&#x100;" horiz-adv-x="709" 
d="M676 1736q0 -45 -66 -45q-4 0 -56.5 -2t-91.5 -2q-228 0 -228 56q0 44 90 44q4 0 55 2t89 2q208 0 208 -55zM482 447q-3 37 -20.5 221.5t-31 348t-13.5 219.5q0 13 1 18q-7 -8 -30.5 -138.5t-48 -279t-31.5 -177.5q-5 -19 -18 -60.5t-20.5 -73t-8.5 -61.5q85 -23 182 -23
q15 0 39 6zM490 1529q40 -287 84 -747t44 -712q0 -69 -68 -69q-66 0 -66 53v267q-29 20 -103.5 34t-132.5 18q-25 -42 -38.5 -171.5t-43.5 -178.5q-99 0 -109 41q26 38 78.5 291t108 563.5t66.5 360.5q55 264 119 264q38 0 61 -18v4z" />
    <glyph glyph-name="amacron" unicode="&#x101;" horiz-adv-x="674" 
d="M636 1529q0 -45 -66 -45q-4 0 -56.5 -2t-91.5 -2q-228 0 -228 56q0 44 90 44q4 0 55 2t89 2q208 0 208 -55zM597 41v-2q0 -46 -31 -58q-43 0 -67 14t-24 54q0 73 -30 249q-9 0 -30.5 3t-32.5 3h-68q-23 10 -81 10q0 -2 -2.5 -26.5t-4 -39.5t-5 -44.5t-7.5 -50t-10 -48
t-13.5 -46t-16.5 -36t-21 -26t-25 -8.5q-24 0 -44.5 15.5t-20.5 39.5q17 65 33 133.5t31 148.5t24.5 132t26 149.5t23.5 136.5q8 46 35.5 167.5t36.5 188.5q2 15 6.5 80t12.5 111.5t25 71.5h69q70 0 70 -42q0 -395 77 -785q4 -23 15 -64t17.5 -75.5t6.5 -65.5q0 -7 -5.5 -21
t-5.5 -20q0 -25 18 -122t18 -127zM432 375q-6 30 -6 76q0 88 -8.5 183.5t-24.5 221.5t-22 182q-12 -58 -46.5 -194t-53.5 -238.5t-20 -197.5q35 -23 181 -33z" />
    <glyph glyph-name="Abreve" unicode="&#x102;" horiz-adv-x="709" 
d="M609 1868v-17q-2 -6 -13 -31t-14 -31.5t-13 -26.5t-16.5 -26t-19 -19t-25 -17t-29.5 -8.5t-37 -4.5q-46 0 -80.5 21t-54 55.5t-29 74t-9.5 82.5v10l38 32q24 0 39 -23t21 -52t18.5 -60.5t30.5 -44.5h43q14 0 30.5 32.5t16.5 48.5q0 23 1 34t6 26.5t17.5 22.5t33.5 7
t37.5 -15.5t16.5 -36.5q0 -1 -9 -33zM482 447q-3 37 -20.5 221.5t-31 348t-13.5 219.5q0 13 1 18q-7 -8 -30.5 -138.5t-48 -279t-31.5 -177.5q-5 -19 -18 -60.5t-20.5 -73t-8.5 -61.5q85 -23 182 -23q15 0 39 6zM490 1529q40 -287 84 -747t44 -712q0 -69 -68 -69
q-66 0 -66 53v267q-29 20 -103.5 34t-132.5 18q-25 -42 -38.5 -171.5t-43.5 -178.5q-99 0 -109 41q26 38 78.5 291t108 563.5t66.5 360.5q55 264 119 264q38 0 61 -18v4z" />
    <glyph glyph-name="abreve" unicode="&#x103;" horiz-adv-x="674" 
d="M568 1661v-17q-2 -6 -13 -31t-14 -31.5t-13 -26.5t-16.5 -26t-19 -19t-25 -17t-29.5 -8.5t-37 -4.5q-46 0 -80.5 21t-54 55.5t-29 74t-9.5 82.5v10l38 32q24 0 39 -23t21 -52t18.5 -60.5t30.5 -44.5h43q14 0 30.5 32.5t16.5 48.5q0 23 1 34t6 26.5t17.5 22.5t33.5 7
t37.5 -15.5t16.5 -36.5q0 -1 -9 -33zM597 41v-2q0 -46 -31 -58q-43 0 -67 14t-24 54q0 73 -30 249q-9 0 -30.5 3t-32.5 3h-68q-23 10 -81 10q0 -2 -2.5 -26.5t-4 -39.5t-5 -44.5t-7.5 -50t-10 -48t-13.5 -46t-16.5 -36t-21 -26t-25 -8.5q-24 0 -44.5 15.5t-20.5 39.5
q17 65 33 133.5t31 148.5t24.5 132t26 149.5t23.5 136.5q8 46 35.5 167.5t36.5 188.5q2 15 6.5 80t12.5 111.5t25 71.5h69q70 0 70 -42q0 -395 77 -785q4 -23 15 -64t17.5 -75.5t6.5 -65.5q0 -7 -5.5 -21t-5.5 -20q0 -25 18 -122t18 -127zM432 375q-6 30 -6 76
q0 88 -8.5 183.5t-24.5 221.5t-22 182q-12 -58 -46.5 -194t-53.5 -238.5t-20 -197.5q35 -23 181 -33z" />
    <glyph glyph-name="Aogonek" unicode="&#x104;" horiz-adv-x="716" 
d="M655 14q-177 -147 -177 -270q0 -10 2 -20.5t8.5 -20.5t16.5 -10q40 0 86 33v-34q0 -27 -31.5 -45.5t-60.5 -18.5q-42 0 -66.5 32t-24.5 75q0 82 56 156t136 123h55zM481 447q-3 37 -20.5 221.5t-31 348t-13.5 219.5q0 13 1 18q-7 -8 -30.5 -138.5t-48 -279t-31.5 -177.5
q-5 -19 -18 -60.5t-20.5 -73t-8.5 -61.5q85 -23 182 -23q15 0 39 6zM489 1529q40 -287 84 -747t44 -712q0 -69 -68 -69q-66 0 -66 53v267q-29 20 -103.5 34t-132.5 18q-25 -42 -38.5 -171.5t-43.5 -178.5q-99 0 -109 41q26 38 78.5 291t108 563.5t66.5 360.5q55 264 119 264
q38 0 61 -18v4z" />
    <glyph glyph-name="aogonek" unicode="&#x105;" horiz-adv-x="711" 
d="M670 -6q-177 -147 -177 -270q0 -10 2 -20.5t8.5 -20.5t16.5 -10q40 0 86 33v-34q0 -27 -31.5 -45.5t-60.5 -18.5q-42 0 -66.5 32t-24.5 75q0 82 56 156t136 123h55zM597 41v-2q0 -46 -31 -58q-43 0 -67 14t-24 54q0 73 -30 249q-9 0 -30.5 3t-32.5 3h-68q-23 10 -81 10
q0 -2 -2.5 -26.5t-4 -39.5t-5 -44.5t-7.5 -50t-10 -48t-13.5 -46t-16.5 -36t-21 -26t-25 -8.5q-24 0 -44.5 15.5t-20.5 39.5q17 65 33 133.5t31 148.5t24.5 132t26 149.5t23.5 136.5q8 46 35.5 167.5t36.5 188.5q2 15 6.5 80t12.5 111.5t25 71.5h69q70 0 70 -42
q0 -395 77 -785q4 -23 15 -64t17.5 -75.5t6.5 -65.5q0 -7 -5.5 -21t-5.5 -20q0 -25 18 -122t18 -127zM432 375q-6 30 -6 76q0 88 -8.5 183.5t-24.5 221.5t-22 182q-12 -58 -46.5 -194t-53.5 -238.5t-20 -197.5q35 -23 181 -33z" />
    <glyph glyph-name="Cacute" unicode="&#x106;" horiz-adv-x="685" 
d="M288 1741v2q1 24 55.5 70.5t126 97t86.5 64.5q32 0 55 -13.5t23 -42.5q0 -1 -9 -49q-66 -27 -142.5 -79.5t-125.5 -103.5q-29 0 -49 13.5t-20 40.5zM450 1444v-4h-32v8q-57 0 -98 -18t-64 -45t-36 -70.5t-16.5 -82.5t-3.5 -92q0 -24 3 -71t3 -70q0 -24 -9 -71.5t-9 -71.5
q0 -104 27.5 -381t53.5 -315q46 -67 154 -67q82 0 132 59q35 0 65 10v-27q0 -62 -35.5 -101.5t-82.5 -53t-106 -13.5q-69 0 -136 46.5t-97 110.5q-40 84 -60 391t-20 522q0 117 14 189q-6 33 -6 64q0 126 94 200.5t232 74.5q49 0 96 -27.5t47 -72.5q0 -22 -17 -34t-40 -12
q-38 0 -53 25z" />
    <glyph glyph-name="cacute" unicode="&#x107;" horiz-adv-x="568" 
d="M229 1534v2q1 24 55.5 70.5t126 97t86.5 64.5q32 0 55 -13.5t23 -42.5q0 -1 -9 -49q-66 -27 -142.5 -79.5t-125.5 -103.5q-29 0 -49 13.5t-20 40.5zM499 52q0 -81 -114 -81q-47 0 -96.5 13.5t-74.5 29.5q-136 88 -136 481q0 14 -0.5 54.5t-0.5 65.5q0 589 144 695
q41 30 87.5 42t118.5 12q22 0 40.5 -16t18.5 -37v-8q-19 -47 -99 -47q-6 0 -18 1t-19 1q-34 0 -60.5 -37t-40.5 -89t-23 -116.5t-11.5 -110t-2.5 -78.5v-10q0 -66 -6.5 -197.5t-6.5 -197.5q0 -35 1 -62.5t5.5 -64.5t12.5 -65.5t22.5 -58t34.5 -48.5t50 -31.5t68 -12.5
q24 0 44 18q24 0 43 -11t19 -34z" />
    <glyph glyph-name="Ccircumflex" unicode="&#x108;" horiz-adv-x="685" 
d="M364 1953q-8 -24 -22 -69.5t-22.5 -70.5t-26.5 -60t-42 -65l-67 48q4 38 36 128t79.5 172.5t81.5 82.5q52 0 52 -67q0 -45 31 -124t31 -114v-52q1 -3 9.5 -12t8.5 -13q0 -23 -20.5 -36.5t-44.5 -13.5h-44q-17 171 -40 266zM450 1444v-4h-32v8q-57 0 -98 -18t-64 -45
t-36 -70.5t-16.5 -82.5t-3.5 -92q0 -24 3 -71t3 -70q0 -24 -9 -71.5t-9 -71.5q0 -104 27.5 -381t53.5 -315q46 -67 154 -67q82 0 132 59q35 0 65 10v-27q0 -62 -35.5 -101.5t-82.5 -53t-106 -13.5q-69 0 -136 46.5t-97 110.5q-40 84 -60 391t-20 522q0 117 14 189
q-6 33 -6 64q0 126 94 200.5t232 74.5q49 0 96 -27.5t47 -72.5q0 -22 -17 -34t-40 -12q-38 0 -53 25z" />
    <glyph glyph-name="ccircumflex" unicode="&#x109;" horiz-adv-x="568" 
d="M305 1746q-8 -24 -22 -69.5t-22.5 -70.5t-26.5 -60t-42 -65l-67 48q4 38 36 128t79.5 172.5t81.5 82.5q52 0 52 -67q0 -45 31 -124t31 -114v-52q1 -3 9.5 -12t8.5 -13q0 -23 -20.5 -36.5t-44.5 -13.5h-44q-17 171 -40 266zM499 52q0 -81 -114 -81q-47 0 -96.5 13.5
t-74.5 29.5q-136 88 -136 481q0 14 -0.5 54.5t-0.5 65.5q0 589 144 695q41 30 87.5 42t118.5 12q22 0 40.5 -16t18.5 -37v-8q-19 -47 -99 -47q-6 0 -18 1t-19 1q-34 0 -60.5 -37t-40.5 -89t-23 -116.5t-11.5 -110t-2.5 -78.5v-10q0 -66 -6.5 -197.5t-6.5 -197.5
q0 -35 1 -62.5t5.5 -64.5t12.5 -65.5t22.5 -58t34.5 -48.5t50 -31.5t68 -12.5q24 0 44 18q24 0 43 -11t19 -34z" />
    <glyph glyph-name="Cdotaccent" unicode="&#x10a;" horiz-adv-x="685" 
d="M367 1760q0 31 23 55t54 24q29 0 51 -24t22 -53q0 -34 -23 -54.5t-58 -20.5q-28 0 -48.5 22.5t-20.5 50.5zM450 1444v-4h-32v8q-57 0 -98 -18t-64 -45t-36 -70.5t-16.5 -82.5t-3.5 -92q0 -24 3 -71t3 -70q0 -24 -9 -71.5t-9 -71.5q0 -104 27.5 -381t53.5 -315
q46 -67 154 -67q82 0 132 59q35 0 65 10v-27q0 -62 -35.5 -101.5t-82.5 -53t-106 -13.5q-69 0 -136 46.5t-97 110.5q-40 84 -60 391t-20 522q0 117 14 189q-6 33 -6 64q0 126 94 200.5t232 74.5q49 0 96 -27.5t47 -72.5q0 -22 -17 -34t-40 -12q-38 0 -53 25z" />
    <glyph glyph-name="cdotaccent" unicode="&#x10b;" horiz-adv-x="568" 
d="M331 1553q0 31 23 55t54 24q29 0 51 -24t22 -53q0 -34 -23 -54.5t-58 -20.5q-28 0 -48.5 22.5t-20.5 50.5zM499 52q0 -81 -114 -81q-47 0 -96.5 13.5t-74.5 29.5q-136 88 -136 481q0 14 -0.5 54.5t-0.5 65.5q0 589 144 695q41 30 87.5 42t118.5 12q22 0 40.5 -16
t18.5 -37v-8q-19 -47 -99 -47q-6 0 -18 1t-19 1q-34 0 -60.5 -37t-40.5 -89t-23 -116.5t-11.5 -110t-2.5 -78.5v-10q0 -66 -6.5 -197.5t-6.5 -197.5q0 -35 1 -62.5t5.5 -64.5t12.5 -65.5t22.5 -58t34.5 -48.5t50 -31.5t68 -12.5q24 0 44 18q24 0 43 -11t19 -34z" />
    <glyph glyph-name="Ccaron" unicode="&#x10c;" horiz-adv-x="685" 
d="M591 2038v-37l-6 -1q-7 -1 -7 -2q0 -10 -30.5 -112.5t-30.5 -132.5q0 -66 -52 -66q-49 0 -119 156t-77 225l66 47l53 -71q1 -38 59 -194q30 118 42 241h44q6 0 17 0.5t18 0.5t14.5 -1.5t11.5 -7t4 -14.5q0 -4 -1 -9.5t-3 -12t-3 -9.5zM450 1444v-4h-32v8q-57 0 -98 -18
t-64 -45t-36 -70.5t-16.5 -82.5t-3.5 -92q0 -24 3 -71t3 -70q0 -24 -9 -71.5t-9 -71.5q0 -104 27.5 -381t53.5 -315q46 -67 154 -67q82 0 132 59q35 0 65 10v-27q0 -62 -35.5 -101.5t-82.5 -53t-106 -13.5q-69 0 -136 46.5t-97 110.5q-40 84 -60 391t-20 522q0 117 14 189
q-6 33 -6 64q0 126 94 200.5t232 74.5q49 0 96 -27.5t47 -72.5q0 -22 -17 -34t-40 -12q-38 0 -53 25z" />
    <glyph glyph-name="ccaron" unicode="&#x10d;" horiz-adv-x="568" 
d="M554 1831v-37l-6 -1q-7 -1 -7 -2q0 -10 -30.5 -112.5t-30.5 -132.5q0 -66 -52 -66q-49 0 -119 156t-77 225l66 47l53 -71q1 -38 59 -194q30 118 42 241h44q6 0 17 0.5t18 0.5t14.5 -1.5t11.5 -7t4 -14.5q0 -4 -1 -9.5t-3 -12t-3 -9.5zM499 52q0 -81 -114 -81
q-47 0 -96.5 13.5t-74.5 29.5q-136 88 -136 481q0 14 -0.5 54.5t-0.5 65.5q0 589 144 695q41 30 87.5 42t118.5 12q22 0 40.5 -16t18.5 -37v-8q-19 -47 -99 -47q-6 0 -18 1t-19 1q-34 0 -60.5 -37t-40.5 -89t-23 -116.5t-11.5 -110t-2.5 -78.5v-10q0 -66 -6.5 -197.5
t-6.5 -197.5q0 -35 1 -62.5t5.5 -64.5t12.5 -65.5t22.5 -58t34.5 -48.5t50 -31.5t68 -12.5q24 0 44 18q24 0 43 -11t19 -34z" />
    <glyph glyph-name="Dcaron" unicode="&#x10e;" horiz-adv-x="691" 
d="M475 2038v-37l-6 -1q-7 -1 -7 -2q0 -10 -30.5 -112.5t-30.5 -132.5q0 -66 -52 -66q-49 0 -119 156t-77 225l66 47l53 -71q1 -38 59 -194q30 118 42 241h44q6 0 17 0.5t18 0.5t14.5 -1.5t11.5 -7t4 -14.5q0 -4 -1 -9.5t-3 -12t-3 -9.5zM602 773q-11 -19 -11 -62
q0 -155 -71 -339t-176 -280q-22 -20 -32.5 -29t-35.5 -29t-45 -29.5t-35 -9.5q-38 0 -69 17.5t-31 52.5q45 47 45 241q0 114 -19 339t-19 337q0 36 3 111t3 113q0 95 -16 168q-2 10 -15.5 47.5t-13.5 59.5q0 17 8 30t24 20.5t31 12t38 6t35 2t31 0.5h9q42 0 90 -25.5
t89 -64.5t74 -85t49 -87q10 -25 17 -58.5t11 -68t7 -71.5t5 -71t4.5 -63.5t6.5 -53.5t9 -36v-95zM239 310v-196q57 40 102.5 108t73.5 144t46.5 165t25.5 167.5t7 155.5q0 575 -284 575v-2q0 -190 14 -562.5t15 -554.5z" />
    <glyph glyph-name="dcaron" unicode="&#x10f;" horiz-adv-x="1075" 
d="M746 992v72q8 8 39.5 33.5t51 48t23.5 44.5q-59 43 -59 101q0 37 31.5 62t69.5 25q37 0 58 -22.5t36 -63.5v-7q0 -2 -1.5 -6.5t-1.5 -7.5q0 -47 -26 -112t-71 -116t-89 -51h-61zM238 141v-49h37q55 67 87.5 121.5t50.5 117t23.5 124t5.5 157.5q0 618 -212 646
q-15 -81 -15 -213q0 -151 11.5 -452t11.5 -452zM295 -12h-140q-52 0 -52 268q0 108 3 323t3 322q0 179 -7 336q-17 20 -17 49q0 26 23 46.5t49 20.5q39 0 62 -36q15 -6 44.5 -11t43.5 -12q114 -53 178.5 -187.5t64.5 -298.5q0 -14 -2 -49t-2 -54v-112q0 -62 -1.5 -106.5
t-7.5 -100t-16.5 -97t-29 -87.5t-44.5 -81.5t-64.5 -70.5t-87.5 -62z" />
    <glyph glyph-name="Dcroat" unicode="&#x110;" horiz-adv-x="868" 
d="M320 1141v-1q4 -149 28 -461t27 -475q72 63 124 135t82.5 143t48.5 157.5t23.5 164.5t5.5 179q0 71 -0.5 122t-4.5 135t-11 148t-20.5 148t-32.5 148t-48.5 134t-66 120.5t-87.5 93t-111 65.5v-268q0 -369 42 -577q33 2 111.5 12t121.5 10q29 0 47 -25t20 -55l-34 -41
q-169 0 -265 -12zM340 45v2q-60 18 -82 60q0 229 -1.5 355.5t-14 321t-36.5 353.5q-84 -12 -107 -12q-24 0 -38 17.5t-14 41.5q0 19 13.5 32.5t35 19t40 7t36.5 1.5h31q-1 148 -22.5 451t-21.5 459q0 22 17 44t39 22q65 0 172 -68.5t189.5 -162.5t82.5 -158
q0 -115 18.5 -256.5t40 -254.5t40 -254.5t18.5 -256.5q0 -233 -118 -447t-318 -317z" />
    <glyph glyph-name="dcroat" unicode="&#x111;" horiz-adv-x="673" 
d="M239 141v-49h42q119 128 153.5 230.5t34.5 289.5q0 618 -238 646q-15 -81 -15 -213q0 -151 11.5 -452t11.5 -452zM586 622q-10 -54 -19 -128.5t-13.5 -123t-20 -109t-40 -104t-72.5 -88.5t-117 -81h-148q-52 0 -52 268q0 108 3 323t3 322q0 179 -7 336q-17 20 -17 49
q0 26 23 46.5t49 20.5q39 0 62 -36q16 -6 49 -11.5t48 -11.5q38 -16 94 -68t76 -65v-13q58 -105 74 -164t16 -176q0 -14 -2 -49t-2 -54q0 -53 13 -83z" />
    <glyph glyph-name="Emacron" unicode="&#x112;" horiz-adv-x="505" 
d="M540 1736q0 -45 -66 -45q-4 0 -56.5 -2t-91.5 -2q-228 0 -228 56q0 44 90 44q4 0 55 2t89 2q208 0 208 -55zM228 105q105 6 108 6q114 0 114 -54v-7q-14 -28 -47.5 -43t-58.5 -17t-66 -2h-64q-23 0 -37 1.5t-32 7.5t-26.5 20.5t-8.5 37.5v1478q26 0 89 9t88 9
q31 0 62.5 -18.5t31.5 -48.5q0 -61 -93 -61q-10 0 -29.5 1t-29.5 1q-15 0 -22 -1q0 -56 8 -169t8 -169q0 -41 -5 -119.5t-5 -114.5q11 2 30 7t35 8t31 3q23 0 41.5 -17t18.5 -40q0 -25 -15 -44t-39 -19q-6 0 -23.5 1t-27.5 1q-24 0 -36 -15v-632z" />
    <glyph glyph-name="emacron" unicode="&#x113;" horiz-adv-x="517" 
d="M485 1529q0 -45 -66 -45q-4 0 -56.5 -2t-91.5 -2q-228 0 -228 56q0 44 90 44q4 0 55 2t89 2q208 0 208 -55zM102 36q-1 29 4.5 71t5.5 67q0 43 -5 130.5t-5 131.5q0 100 7 299t7 299q0 29 -5.5 86.5t-5.5 86.5q0 145 86 145q24 0 45 -15q8 -1 38.5 -3.5t53.5 -6.5
t50.5 -11.5t42.5 -21.5t15 -33q0 -22 -17.5 -38.5t-42.5 -25.5q-94 32 -155 39q3 -44 3 -88q0 -49 -4.5 -147t-4.5 -147q0 -2 6 -32q8 0 33 1.5t40 1.5q99 0 99 -56q0 -30 -17.5 -53t-47.5 -23q-34 0 -58 18h-52q6 -78 6 -148q0 -51 -2 -118t-4.5 -134.5t-2.5 -118.5
q0 -23 2.5 -40.5t10 -36t23 -28.5t38.5 -10q8 0 36 2.5t45 2.5q78 0 78 -50q0 -31 -27 -45t-61 -14h-193q-26 0 -44.5 18t-20.5 45z" />
    <glyph glyph-name="Ebreve" unicode="&#x114;" horiz-adv-x="505" 
d="M385 1868v-17q-2 -6 -13 -31t-14 -31.5t-13 -26.5t-16.5 -26t-19 -19t-25 -17t-29.5 -8.5t-37 -4.5q-46 0 -80.5 21t-54 55.5t-29 74t-9.5 82.5v10l38 32q24 0 39 -23t21 -52t18.5 -60.5t30.5 -44.5h43q14 0 30.5 32.5t16.5 48.5q0 23 1 34t6 26.5t17.5 22.5t33.5 7
t37.5 -15.5t16.5 -36.5q0 -1 -9 -33zM228 105q105 6 108 6q114 0 114 -54v-7q-14 -28 -47.5 -43t-58.5 -17t-66 -2h-64q-23 0 -37 1.5t-32 7.5t-26.5 20.5t-8.5 37.5v1478q26 0 89 9t88 9q31 0 62.5 -18.5t31.5 -48.5q0 -61 -93 -61q-10 0 -29.5 1t-29.5 1q-15 0 -22 -1
q0 -56 8 -169t8 -169q0 -41 -5 -119.5t-5 -114.5q11 2 30 7t35 8t31 3q23 0 41.5 -17t18.5 -40q0 -25 -15 -44t-39 -19q-6 0 -23.5 1t-27.5 1q-24 0 -36 -15v-632z" />
    <glyph glyph-name="ebreve" unicode="&#x115;" horiz-adv-x="517" 
d="M418 1661v-17q-2 -6 -13 -31t-14 -31.5t-13 -26.5t-16.5 -26t-19 -19t-25 -17t-29.5 -8.5t-37 -4.5q-46 0 -80.5 21t-54 55.5t-29 74t-9.5 82.5v10l38 32q24 0 39 -23t21 -52t18.5 -60.5t30.5 -44.5h43q14 0 30.5 32.5t16.5 48.5q0 23 1 34t6 26.5t17.5 22.5t33.5 7
t37.5 -15.5t16.5 -36.5q0 -1 -9 -33zM102 36q-1 29 4.5 71t5.5 67q0 43 -5 130.5t-5 131.5q0 100 7 299t7 299q0 29 -5.5 86.5t-5.5 86.5q0 145 86 145q24 0 45 -15q8 -1 38.5 -3.5t53.5 -6.5t50.5 -11.5t42.5 -21.5t15 -33q0 -22 -17.5 -38.5t-42.5 -25.5q-94 32 -155 39
q3 -44 3 -88q0 -49 -4.5 -147t-4.5 -147q0 -2 6 -32q8 0 33 1.5t40 1.5q99 0 99 -56q0 -30 -17.5 -53t-47.5 -23q-34 0 -58 18h-52q6 -78 6 -148q0 -51 -2 -118t-4.5 -134.5t-2.5 -118.5q0 -23 2.5 -40.5t10 -36t23 -28.5t38.5 -10q8 0 36 2.5t45 2.5q78 0 78 -50
q0 -31 -27 -45t-61 -14h-193q-26 0 -44.5 18t-20.5 45z" />
    <glyph glyph-name="Edotaccent" unicode="&#x116;" horiz-adv-x="505" 
d="M239 1760q0 31 23 55t54 24q29 0 51 -24t22 -53q0 -34 -23 -54.5t-58 -20.5q-28 0 -48.5 22.5t-20.5 50.5zM228 105q105 6 108 6q114 0 114 -54v-7q-14 -28 -47.5 -43t-58.5 -17t-66 -2h-64q-23 0 -37 1.5t-32 7.5t-26.5 20.5t-8.5 37.5v1478q26 0 89 9t88 9
q31 0 62.5 -18.5t31.5 -48.5q0 -61 -93 -61q-10 0 -29.5 1t-29.5 1q-15 0 -22 -1q0 -56 8 -169t8 -169q0 -41 -5 -119.5t-5 -114.5q11 2 30 7t35 8t31 3q23 0 41.5 -17t18.5 -40q0 -25 -15 -44t-39 -19q-6 0 -23.5 1t-27.5 1q-24 0 -36 -15v-632z" />
    <glyph glyph-name="edotaccent" unicode="&#x117;" horiz-adv-x="517" 
d="M142 1553q0 31 23 55t54 24q29 0 51 -24t22 -53q0 -34 -23 -54.5t-58 -20.5q-28 0 -48.5 22.5t-20.5 50.5zM102 36q-1 29 4.5 71t5.5 67q0 43 -5 130.5t-5 131.5q0 100 7 299t7 299q0 29 -5.5 86.5t-5.5 86.5q0 145 86 145q24 0 45 -15q8 -1 38.5 -3.5t53.5 -6.5
t50.5 -11.5t42.5 -21.5t15 -33q0 -22 -17.5 -38.5t-42.5 -25.5q-94 32 -155 39q3 -44 3 -88q0 -49 -4.5 -147t-4.5 -147q0 -2 6 -32q8 0 33 1.5t40 1.5q99 0 99 -56q0 -30 -17.5 -53t-47.5 -23q-34 0 -58 18h-52q6 -78 6 -148q0 -51 -2 -118t-4.5 -134.5t-2.5 -118.5
q0 -23 2.5 -40.5t10 -36t23 -28.5t38.5 -10q8 0 36 2.5t45 2.5q78 0 78 -50q0 -31 -27 -45t-61 -14h-193q-26 0 -44.5 18t-20.5 45z" />
    <glyph glyph-name="Eogonek" unicode="&#x118;" horiz-adv-x="504" 
d="M393 1q-177 -147 -177 -270q0 -10 2 -20.5t8.5 -20.5t16.5 -10q40 0 86 33v-34q0 -27 -31.5 -45.5t-60.5 -18.5q-42 0 -66.5 32t-24.5 75q0 82 56 156t136 123h55zM227 105q105 6 108 6q114 0 114 -54v-7q-14 -28 -47.5 -43t-58.5 -17t-66 -2h-64q-23 0 -37 1.5t-32 7.5
t-26.5 20.5t-8.5 37.5v1478q26 0 89 9t88 9q31 0 62.5 -18.5t31.5 -48.5q0 -61 -93 -61q-10 0 -29.5 1t-29.5 1q-15 0 -22 -1q0 -56 8 -169t8 -169q0 -41 -5 -119.5t-5 -114.5q11 2 30 7t35 8t31 3q23 0 41.5 -17t18.5 -40q0 -25 -15 -44t-39 -19q-6 0 -23.5 1t-27.5 1
q-24 0 -36 -15v-632z" />
    <glyph glyph-name="eogonek" unicode="&#x119;" horiz-adv-x="517" 
d="M419 -14q-177 -147 -177 -270q0 -10 2 -20.5t8.5 -20.5t16.5 -10q40 0 86 33v-34q0 -27 -31.5 -45.5t-60.5 -18.5q-42 0 -66.5 32t-24.5 75q0 82 56 156t136 123h55zM102 36q-1 29 4.5 71t5.5 67q0 43 -5 130.5t-5 131.5q0 100 7 299t7 299q0 29 -5.5 86.5t-5.5 86.5
q0 145 86 145q24 0 45 -15q8 -1 38.5 -3.5t53.5 -6.5t50.5 -11.5t42.5 -21.5t15 -33q0 -22 -17.5 -38.5t-42.5 -25.5q-94 32 -155 39q3 -44 3 -88q0 -49 -4.5 -147t-4.5 -147q0 -2 6 -32q8 0 33 1.5t40 1.5q99 0 99 -56q0 -30 -17.5 -53t-47.5 -23q-34 0 -58 18h-52
q6 -78 6 -148q0 -51 -2 -118t-4.5 -134.5t-2.5 -118.5q0 -23 2.5 -40.5t10 -36t23 -28.5t38.5 -10q8 0 36 2.5t45 2.5q78 0 78 -50q0 -31 -27 -45t-61 -14h-193q-26 0 -44.5 18t-20.5 45z" />
    <glyph glyph-name="Ecaron" unicode="&#x11a;" horiz-adv-x="505" 
d="M376 2038v-37l-6 -1q-7 -1 -7 -2q0 -10 -30.5 -112.5t-30.5 -132.5q0 -66 -52 -66q-49 0 -119 156t-77 225l66 47l53 -71q1 -38 59 -194q30 118 42 241h44q6 0 17 0.5t18 0.5t14.5 -1.5t11.5 -7t4 -14.5q0 -4 -1 -9.5t-3 -12t-3 -9.5zM228 105q105 6 108 6q114 0 114 -54
v-7q-14 -28 -47.5 -43t-58.5 -17t-66 -2h-64q-23 0 -37 1.5t-32 7.5t-26.5 20.5t-8.5 37.5v1478q26 0 89 9t88 9q31 0 62.5 -18.5t31.5 -48.5q0 -61 -93 -61q-10 0 -29.5 1t-29.5 1q-15 0 -22 -1q0 -56 8 -169t8 -169q0 -41 -5 -119.5t-5 -114.5q11 2 30 7t35 8t31 3
q23 0 41.5 -17t18.5 -40q0 -25 -15 -44t-39 -19q-6 0 -23.5 1t-27.5 1q-24 0 -36 -15v-632z" />
    <glyph glyph-name="ecaron" unicode="&#x11b;" horiz-adv-x="517" 
d="M408 1831v-37l-6 -1q-7 -1 -7 -2q0 -10 -30.5 -112.5t-30.5 -132.5q0 -66 -52 -66q-49 0 -119 156t-77 225l66 47l53 -71q1 -38 59 -194q30 118 42 241h44q6 0 17 0.5t18 0.5t14.5 -1.5t11.5 -7t4 -14.5q0 -4 -1 -9.5t-3 -12t-3 -9.5zM102 36q-1 29 4.5 71t5.5 67
q0 43 -5 130.5t-5 131.5q0 100 7 299t7 299q0 29 -5.5 86.5t-5.5 86.5q0 145 86 145q24 0 45 -15q8 -1 38.5 -3.5t53.5 -6.5t50.5 -11.5t42.5 -21.5t15 -33q0 -22 -17.5 -38.5t-42.5 -25.5q-94 32 -155 39q3 -44 3 -88q0 -49 -4.5 -147t-4.5 -147q0 -2 6 -32q8 0 33 1.5
t40 1.5q99 0 99 -56q0 -30 -17.5 -53t-47.5 -23q-34 0 -58 18h-52q6 -78 6 -148q0 -51 -2 -118t-4.5 -134.5t-2.5 -118.5q0 -23 2.5 -40.5t10 -36t23 -28.5t38.5 -10q8 0 36 2.5t45 2.5q78 0 78 -50q0 -31 -27 -45t-61 -14h-193q-26 0 -44.5 18t-20.5 45z" />
    <glyph glyph-name="Gcircumflex" unicode="&#x11c;" horiz-adv-x="771" 
d="M373 1959q-8 -24 -22 -69.5t-22.5 -70.5t-26.5 -60t-42 -65l-67 48q4 38 36 128t79.5 172.5t81.5 82.5q52 0 52 -67q0 -45 31 -124t31 -114v-52q1 -3 9.5 -12t8.5 -13q0 -23 -20.5 -36.5t-44.5 -13.5h-44q-17 171 -40 266zM574 2v2q-12 -6 -43 -23.5t-54 -26t-47 -8.5
q-55 0 -101.5 19t-80 48.5t-60 76.5t-44 93t-30 108t-18.5 111t-10 113.5t-4.5 103.5t-0.5 92q0 19 -0.5 70t-0.5 81q0 74 2 134.5t10.5 138.5t22.5 139t39.5 122.5t61 102.5t88 66.5t117.5 25.5q82 0 82 -58q0 -22 -15.5 -35t-36.5 -13q-9 0 -28 5t-28 5q-36 0 -66 -24
t-50.5 -68.5t-36 -96t-25 -119.5t-15.5 -124t-8.5 -125t-3 -108t-0.5 -86q0 -15 -0.5 -56.5t-0.5 -70.5q0 -55 1.5 -100.5t7 -106t15.5 -108t27.5 -96.5t42 -81.5t61 -53t82.5 -20.5q87 0 145 86q-3 184 -31 234q-1 0 -31 -4t-46 -4q-68 0 -68 58q0 20 20.5 34t51 21
t55.5 10t43 3q43 0 65 -32t22 -77q0 -62 20.5 -183t20.5 -182q0 -23 -14 -39.5t-36 -16.5q-52 0 -69 43z" />
    <glyph glyph-name="gcircumflex" unicode="&#x11d;" horiz-adv-x="654" 
d="M332 1746q-8 -24 -22 -69.5t-22.5 -70.5t-26.5 -60t-42 -65l-67 48q4 38 36 128t79.5 172.5t81.5 82.5q52 0 52 -67q0 -45 31 -124t31 -114v-52q1 -3 9.5 -12t8.5 -13q0 -23 -20.5 -36.5t-44.5 -13.5h-44q-17 171 -40 266zM371 624v-1q200 0 200 -63q0 -26 -11 -75
t-11 -74q0 -35 5 -108t5 -109q0 -59 -9 -101q-36 -33 -66 -54.5t-69 -38t-76 -16.5q-49 0 -90 26.5t-81 94.5q-38 60 -67 239.5t-29 277.5q0 42 3 88t9 104.5t8 88.5q0 5 1 14q4 56 6.5 85.5t11 83t18.5 84.5t29 70.5t44 61t62 37t83 15.5q77 0 77 -52q0 -24 -17.5 -39.5
t-40.5 -15.5q-5 0 -12 1.5t-13.5 2.5t-11.5 1q-30 0 -53.5 -38t-37.5 -102t-23.5 -132t-13.5 -145t-5.5 -123t-1.5 -83q0 -40 0.5 -70.5t2 -76t5 -80.5t9.5 -77.5t14.5 -74t21 -63t28.5 -51.5t38 -32.5t48 -12.5q89 0 87 345v5.5v4v4.5v61q-13 8 -42 8q-5 0 -17 -0.5
t-19 -0.5q-29 0 -46 9.5t-17 37.5q0 29 18.5 44t45.5 15z" />
    <glyph glyph-name="Gbreve" unicode="&#x11e;" horiz-adv-x="771" 
d="M511 1874v-17q-2 -6 -13 -31t-14 -31.5t-13 -26.5t-16.5 -26t-19 -19t-25 -17t-29.5 -8.5t-37 -4.5q-46 0 -80.5 21t-54 55.5t-29 74t-9.5 82.5v10l38 32q24 0 39 -23t21 -52t18.5 -60.5t30.5 -44.5h43q14 0 30.5 32.5t16.5 48.5q0 23 1 34t6 26.5t17.5 22.5t33.5 7
t37.5 -15.5t16.5 -36.5q0 -1 -9 -33zM574 2v2q-12 -6 -43 -23.5t-54 -26t-47 -8.5q-55 0 -101.5 19t-80 48.5t-60 76.5t-44 93t-30 108t-18.5 111t-10 113.5t-4.5 103.5t-0.5 92q0 19 -0.5 70t-0.5 81q0 74 2 134.5t10.5 138.5t22.5 139t39.5 122.5t61 102.5t88 66.5
t117.5 25.5q82 0 82 -58q0 -22 -15.5 -35t-36.5 -13q-9 0 -28 5t-28 5q-36 0 -66 -24t-50.5 -68.5t-36 -96t-25 -119.5t-15.5 -124t-8.5 -125t-3 -108t-0.5 -86q0 -15 -0.5 -56.5t-0.5 -70.5q0 -55 1.5 -100.5t7 -106t15.5 -108t27.5 -96.5t42 -81.5t61 -53t82.5 -20.5
q87 0 145 86q-3 184 -31 234q-1 0 -31 -4t-46 -4q-68 0 -68 58q0 20 20.5 34t51 21t55.5 10t43 3q43 0 65 -32t22 -77q0 -62 20.5 -183t20.5 -182q0 -23 -14 -39.5t-36 -16.5q-52 0 -69 43z" />
    <glyph glyph-name="gbreve" unicode="&#x11f;" horiz-adv-x="654" 
d="M469 1661v-17q-2 -6 -13 -31t-14 -31.5t-13 -26.5t-16.5 -26t-19 -19t-25 -17t-29.5 -8.5t-37 -4.5q-46 0 -80.5 21t-54 55.5t-29 74t-9.5 82.5v10l38 32q24 0 39 -23t21 -52t18.5 -60.5t30.5 -44.5h43q14 0 30.5 32.5t16.5 48.5q0 23 1 34t6 26.5t17.5 22.5t33.5 7
t37.5 -15.5t16.5 -36.5q0 -1 -9 -33zM371 624v-1q200 0 200 -63q0 -26 -11 -75t-11 -74q0 -35 5 -108t5 -109q0 -59 -9 -101q-36 -33 -66 -54.5t-69 -38t-76 -16.5q-49 0 -90 26.5t-81 94.5q-38 60 -67 239.5t-29 277.5q0 42 3 88t9 104.5t8 88.5q0 5 1 14q4 56 6.5 85.5
t11 83t18.5 84.5t29 70.5t44 61t62 37t83 15.5q77 0 77 -52q0 -24 -17.5 -39.5t-40.5 -15.5q-5 0 -12 1.5t-13.5 2.5t-11.5 1q-30 0 -53.5 -38t-37.5 -102t-23.5 -132t-13.5 -145t-5.5 -123t-1.5 -83q0 -40 0.5 -70.5t2 -76t5 -80.5t9.5 -77.5t14.5 -74t21 -63t28.5 -51.5
t38 -32.5t48 -12.5q89 0 87 345v5.5v4v4.5v61q-13 8 -42 8q-5 0 -17 -0.5t-19 -0.5q-29 0 -46 9.5t-17 37.5q0 29 18.5 44t45.5 15z" />
    <glyph glyph-name="Gdotaccent" unicode="&#x120;" horiz-adv-x="771" 
d="M278 1766q0 31 23 55t54 24q29 0 51 -24t22 -53q0 -34 -23 -54.5t-58 -20.5q-28 0 -48.5 22.5t-20.5 50.5zM574 2v2q-12 -6 -43 -23.5t-54 -26t-47 -8.5q-55 0 -101.5 19t-80 48.5t-60 76.5t-44 93t-30 108t-18.5 111t-10 113.5t-4.5 103.5t-0.5 92q0 19 -0.5 70t-0.5 81
q0 74 2 134.5t10.5 138.5t22.5 139t39.5 122.5t61 102.5t88 66.5t117.5 25.5q82 0 82 -58q0 -22 -15.5 -35t-36.5 -13q-9 0 -28 5t-28 5q-36 0 -66 -24t-50.5 -68.5t-36 -96t-25 -119.5t-15.5 -124t-8.5 -125t-3 -108t-0.5 -86q0 -15 -0.5 -56.5t-0.5 -70.5
q0 -55 1.5 -100.5t7 -106t15.5 -108t27.5 -96.5t42 -81.5t61 -53t82.5 -20.5q87 0 145 86q-3 184 -31 234q-1 0 -31 -4t-46 -4q-68 0 -68 58q0 20 20.5 34t51 21t55.5 10t43 3q43 0 65 -32t22 -77q0 -62 20.5 -183t20.5 -182q0 -23 -14 -39.5t-36 -16.5q-52 0 -69 43z" />
    <glyph glyph-name="gdotaccent" unicode="&#x121;" horiz-adv-x="654" 
d="M236 1553q0 31 23 55t54 24q29 0 51 -24t22 -53q0 -34 -23 -54.5t-58 -20.5q-28 0 -48.5 22.5t-20.5 50.5zM371 624v-1q200 0 200 -63q0 -26 -11 -75t-11 -74q0 -35 5 -108t5 -109q0 -59 -9 -101q-36 -33 -66 -54.5t-69 -38t-76 -16.5q-49 0 -90 26.5t-81 94.5
q-38 60 -67 239.5t-29 277.5q0 42 3 88t9 104.5t8 88.5q0 5 1 14q4 56 6.5 85.5t11 83t18.5 84.5t29 70.5t44 61t62 37t83 15.5q77 0 77 -52q0 -24 -17.5 -39.5t-40.5 -15.5q-5 0 -12 1.5t-13.5 2.5t-11.5 1q-30 0 -53.5 -38t-37.5 -102t-23.5 -132t-13.5 -145t-5.5 -123
t-1.5 -83q0 -40 0.5 -70.5t2 -76t5 -80.5t9.5 -77.5t14.5 -74t21 -63t28.5 -51.5t38 -32.5t48 -12.5q89 0 87 345v5.5v4v4.5v61q-13 8 -42 8q-5 0 -17 -0.5t-19 -0.5q-29 0 -46 9.5t-17 37.5q0 29 18.5 44t45.5 15z" />
    <glyph glyph-name="uni0122" unicode="&#x122;" horiz-adv-x="771" 
d="M378 -542v72q8 8 39.5 33.5t51 48t23.5 44.5q-59 43 -59 101q0 37 31.5 62t69.5 25q37 0 58 -22.5t36 -63.5v-7q0 -2 -1.5 -6.5t-1.5 -7.5q0 -47 -26 -112t-71 -116t-89 -51h-61zM574 2v2q-12 -6 -43 -23.5t-54 -26t-47 -8.5q-55 0 -101.5 19t-80 48.5t-60 76.5t-44 93
t-30 108t-18.5 111t-10 113.5t-4.5 103.5t-0.5 92q0 19 -0.5 70t-0.5 81q0 74 2 134.5t10.5 138.5t22.5 139t39.5 122.5t61 102.5t88 66.5t117.5 25.5q82 0 82 -58q0 -22 -15.5 -35t-36.5 -13q-9 0 -28 5t-28 5q-36 0 -66 -24t-50.5 -68.5t-36 -96t-25 -119.5t-15.5 -124
t-8.5 -125t-3 -108t-0.5 -86q0 -15 -0.5 -56.5t-0.5 -70.5q0 -55 1.5 -100.5t7 -106t15.5 -108t27.5 -96.5t42 -81.5t61 -53t82.5 -20.5q87 0 145 86q-3 184 -31 234q-1 0 -31 -4t-46 -4q-68 0 -68 58q0 20 20.5 34t51 21t55.5 10t43 3q43 0 65 -32t22 -77q0 -62 20.5 -183
t20.5 -182q0 -23 -14 -39.5t-36 -16.5q-52 0 -69 43z" />
    <glyph glyph-name="uni0123" unicode="&#x123;" horiz-adv-x="683" 
d="M394 624v-1q206 0 206 -63q0 -26 -11 -75t-11 -74q0 -35 5 -108t5 -109q0 -59 -9 -101q-120 -109 -221 -109q-138 0 -195 70q-45 54 -67.5 243.5t-22.5 324.5q0 42 3 88t9 104.5t8 88.5q13 176 35 252q54 190 222 199h18q83 0 83 -52q0 -24 -19 -39.5t-43 -15.5
q-7 0 -21 2.5t-20 2.5q-34 0 -61 -38t-42.5 -102t-26.5 -132t-15.5 -145t-6 -123t-1.5 -83q0 -82 6 -136q18 -33 24.5 -89.5t8 -107.5t11 -99t43 -77t94.5 -29q97 0 95 346v13v61q-14 8 -46 8q-5 0 -18 -0.5t-20 -0.5q-68 0 -68 47q0 29 20 44t49 15z" />
    <glyph glyph-name="Hcircumflex" unicode="&#x124;" horiz-adv-x="624" 
d="M320 1953q-8 -24 -22 -69.5t-22.5 -70.5t-26.5 -60t-42 -65l-67 48q4 38 36 128t79.5 172.5t81.5 82.5q52 0 52 -67q0 -45 31 -124t31 -114v-52q1 -3 9.5 -12t8.5 -13q0 -23 -20.5 -36.5t-44.5 -13.5h-44q-17 171 -40 266zM374 1496q-1 15 16 33t36 18q24 0 41 -36
t17 -118q0 -225 19 -675.5t19 -674.5q0 -27 -17 -50.5t-43 -23.5q-27 0 -39.5 20t-12.5 48q0 382 -17 722q-55 10 -66 10q-81 0 -117 -16q1 -112 17.5 -343.5t16.5 -350.5q0 -20 -12 -37t-31 -17q-21 0 -32.5 8t-23.5 28q-11 19 -15.5 136.5t-5.5 257.5t-3 167
q-37 532 -37 908v15q3 32 45 32q22 0 40 -11.5t22 -31.5q-7 -73 -7 -154q0 -70 7 -210.5t7 -210.5q0 -12 -1 -38t-1 -39q0 -29 4 -53q32 1 95.5 7.5t96.5 7.5q0 108 -9 332.5t-9 339.5z" />
    <glyph glyph-name="hcircumflex" unicode="&#x125;" horiz-adv-x="627" 
d="M313 1746q-8 -24 -22 -69.5t-22.5 -70.5t-26.5 -60t-42 -65l-67 48q4 38 36 128t79.5 172.5t81.5 82.5q52 0 52 -67q0 -45 31 -124t31 -114v-52q1 -3 9.5 -12t8.5 -13q0 -23 -20.5 -36.5t-44.5 -13.5h-44q-17 171 -40 266zM525 38q0 -18 -15.5 -28t-37.5 -10
q-26 0 -47 12.5t-22 33.5q-11 204 -11 502v8q1 11 0 31.5t-1 27.5q0 3 -0.5 9.5t-0.5 9.5v2q-16 -4 -46 -4q-22 0 -64 9t-63 10q0 -32 -3 -108.5t-3 -117.5v-9q0 -56 8.5 -168.5t8.5 -168.5q0 -30 -14.5 -52t-42.5 -22q-41 0 -56.5 74.5t-15.5 203.5q0 57 3 164.5t3 147.5
q0 29 0.5 66t0.5 51q0 20 2 60t2 60q0 77 -7 231t-7 231q0 24 17 42.5t41 18.5q65 0 65 -122q0 -85 -4 -255.5t-4 -255.5q36 -10 108 -10h78v43q0 94 -14 282.5t-14 282.5q0 23 17.5 38.5t40.5 15.5q4 0 14 1.5t16.5 1t14 -4t11.5 -15t4 -31.5q0 -215 19 -644t19 -644z" />
    <glyph glyph-name="Hbar" unicode="&#x126;" horiz-adv-x="627" 
d="M375 1496v54q35 0 58 -13t34 -37.5t14.5 -49t3.5 -57.5q0 -225 19 -675.5t19 -674.5q0 -27 -17 -50.5t-43 -23.5q-27 0 -39.5 20t-12.5 48q0 382 -17 722q-55 10 -66 10q-81 0 -117 -16q1 -112 17.5 -343.5t16.5 -350.5q0 -20 -12 -37t-31 -17q-21 0 -32.5 8t-23.5 28
q-11 19 -15.5 136.5t-5.5 257.5t-3 167q-37 532 -37 908v15h107q-7 -73 -7 -165q0 -70 7 -210.5t7 -210.5q0 -12 -1 -38t-1 -39q0 -29 4 -53q32 1 95.5 7.5t96.5 7.5q0 108 -9 332.5t-9 339.5zM525 943q0 -45 -66 -45q-4 0 -56.5 -2t-89.5 -2q-223 0 -223 56q0 44 90 44
q5 0 54 2t85 2q206 0 206 -55z" />
    <glyph glyph-name="hbar" unicode="&#x127;" horiz-adv-x="643" 
d="M525 38q0 -18 -15.5 -28t-37.5 -10q-26 0 -47 12.5t-22 33.5q-11 204 -11 502v8q1 11 0 31.5t-1 27.5q0 3 -0.5 9.5t-0.5 9.5v2q-16 -4 -46 -4q-22 0 -64 9t-63 10q0 -32 -3 -108.5t-3 -117.5v-9q0 -56 8.5 -168.5t8.5 -168.5q0 -30 -14.5 -52t-42.5 -22
q-41 0 -56.5 74.5t-15.5 203.5q0 57 3 164.5t3 147.5q0 29 0.5 66t0.5 51q0 20 2 60t2 60q0 77 -7 231t-7 231q0 24 17 42.5t41 18.5q65 0 65 -122q0 -85 -4 -255.5t-4 -255.5q36 -10 108 -10h78v43q0 94 -14 282.5t-14 282.5q0 23 17.5 38.5t40.5 15.5q4 0 14 1.5t16.5 1
t14 -4t11.5 -15t4 -31.5q0 -215 19 -644t19 -644zM570 749q0 -45 -66 -45q-4 0 -56.5 -2t-91.5 -2q-228 0 -228 56q0 44 90 44q4 0 55 2t89 2q208 0 208 -55z" />
    <glyph glyph-name="Itilde" unicode="&#x128;" horiz-adv-x="489" 
d="M-34 1746q0 70 40.5 119.5t108.5 49.5l102 -52q9 -24 30.5 -48t43.5 -24v1q6 6 20.5 12.5t23.5 13.5t9 19q0 7 -6 22.5t-7 22.5q16 32 46 32q34 0 52 -29t18 -65q0 -53 -39.5 -92.5t-92.5 -39.5q-40 0 -79 21.5t-62 44t-56 60.5v2l-53 -31v-98q-34 0 -66.5 15.5
t-32.5 43.5zM378 19h-257q-11 0 -22.5 2t-24 13t-12.5 30q0 49 62 49q13 0 34 -0.5t29 -0.5q10 0 10 46q0 158 -19 473.5t-19 473.5q0 35 2 104.5t2 104.5q0 66 -5 114q-27 -9 -48 -9q-48 0 -48 49q0 25 31 43.5t77 26.5t82.5 11.5t62.5 3.5q24 0 42 -16.5t18 -39.5
q0 -22 -13.5 -38.5t-34.5 -16.5q-7 0 -19 0.5t-17 0.5q-20 0 -29.5 -8.5t-9.5 -33.5q0 -200 26 -599t26 -599v-88q8 0 21 0.5t21 0.5q83 0 83 -34q8 -34 -7.5 -48.5t-43.5 -14.5z" />
    <glyph glyph-name="itilde" unicode="&#x129;" horiz-adv-x="552" 
d="M25 1539q0 70 40.5 119.5t108.5 49.5l102 -52q9 -24 30.5 -48t43.5 -24v1q6 6 20.5 12.5t23.5 13.5t9 19q0 7 -6 22.5t-7 22.5q16 32 46 32q34 0 52 -29t18 -65q0 -53 -39.5 -92.5t-92.5 -39.5q-40 0 -79 21.5t-62 44t-56 60.5v2l-53 -31v-98q-34 0 -66.5 15.5
t-32.5 43.5zM329 246v-61q0 -5 -0.5 -14t-1 -14.5t1 -12.5t5.5 -13v-3q6 0 34 1t41 1q84 0 84 -51q0 -26 -20.5 -44.5t-47.5 -18.5q-11 0 -34 3.5t-34 3.5q-5 0 -31 -11.5t-47 -11.5q-42 0 -63 20q-16 -2 -25 -2q-57 0 -76 37q0 40 32 55v8h65q0 3 2 12.5t2 14.5
q0 73 -7 218t-7 217q0 76 5.5 228t5.5 228q0 115 -10 218h-39h-14.5h-17.5h-15q-30 0 -47 11.5t-17 43.5q0 48 111 47h7q263 0 263 -83q0 -11 -12 -38h-105q8 -75 8 -163q0 -65 -5.5 -195.5t-5.5 -195.5q0 -73 7.5 -218t7.5 -217z" />
    <glyph glyph-name="Imacron" unicode="&#x12a;" horiz-adv-x="489" 
d="M431 1736q0 -45 -66 -45q-4 0 -56.5 -2t-91.5 -2q-228 0 -228 56q0 44 90 44q4 0 55 2t89 2q208 0 208 -55zM378 19h-257q-11 0 -22.5 2t-24 13t-12.5 30q0 49 62 49q13 0 34 -0.5t29 -0.5q10 0 10 46q0 158 -19 473.5t-19 473.5q0 35 2 104.5t2 104.5q0 66 -5 114
q-27 -9 -48 -9q-48 0 -48 49q0 25 31 43.5t77 26.5t82.5 11.5t62.5 3.5q24 0 42 -16.5t18 -39.5q0 -22 -13.5 -38.5t-34.5 -16.5q-7 0 -19 0.5t-17 0.5q-20 0 -29.5 -8.5t-9.5 -33.5q0 -200 26 -599t26 -599v-88q8 0 21 0.5t21 0.5q83 0 83 -34q8 -34 -7.5 -48.5
t-43.5 -14.5z" />
    <glyph glyph-name="imacron" unicode="&#x12b;" horiz-adv-x="552" 
d="M490 1529q0 -45 -66 -45q-4 0 -56.5 -2t-91.5 -2q-228 0 -228 56q0 44 90 44q4 0 55 2t89 2q208 0 208 -55zM329 246v-61q0 -5 -0.5 -14t-1 -14.5t1 -12.5t5.5 -13v-3q6 0 34 1t41 1q84 0 84 -51q0 -26 -20.5 -44.5t-47.5 -18.5q-11 0 -34 3.5t-34 3.5q-5 0 -31 -11.5
t-47 -11.5q-42 0 -63 20q-16 -2 -25 -2q-57 0 -76 37q0 40 32 55v8h65q0 3 2 12.5t2 14.5q0 73 -7 218t-7 217q0 76 5.5 228t5.5 228q0 115 -10 218h-39h-14.5h-17.5h-15q-30 0 -47 11.5t-17 43.5q0 48 111 47h7q263 0 263 -83q0 -11 -12 -38h-105q8 -75 8 -163
q0 -65 -5.5 -195.5t-5.5 -195.5q0 -73 7.5 -218t7.5 -217z" />
    <glyph glyph-name="Ibreve" unicode="&#x12c;" horiz-adv-x="489" 
d="M363 1868v-17q-2 -6 -13 -31t-14 -31.5t-13 -26.5t-16.5 -26t-19 -19t-25 -17t-29.5 -8.5t-37 -4.5q-46 0 -80.5 21t-54 55.5t-29 74t-9.5 82.5v10l38 32q24 0 39 -23t21 -52t18.5 -60.5t30.5 -44.5h43q14 0 30.5 32.5t16.5 48.5q0 23 1 34t6 26.5t17.5 22.5t33.5 7
t37.5 -15.5t16.5 -36.5q0 -1 -9 -33zM378 19h-257q-11 0 -22.5 2t-24 13t-12.5 30q0 49 62 49q13 0 34 -0.5t29 -0.5q10 0 10 46q0 158 -19 473.5t-19 473.5q0 35 2 104.5t2 104.5q0 66 -5 114q-27 -9 -48 -9q-48 0 -48 49q0 25 31 43.5t77 26.5t82.5 11.5t62.5 3.5
q24 0 42 -16.5t18 -39.5q0 -22 -13.5 -38.5t-34.5 -16.5q-7 0 -19 0.5t-17 0.5q-20 0 -29.5 -8.5t-9.5 -33.5q0 -200 26 -599t26 -599v-88q8 0 21 0.5t21 0.5q83 0 83 -34q8 -34 -7.5 -48.5t-43.5 -14.5z" />
    <glyph glyph-name="ibreve" unicode="&#x12d;" horiz-adv-x="552" 
d="M422 1661v-17q-2 -6 -13 -31t-14 -31.5t-13 -26.5t-16.5 -26t-19 -19t-25 -17t-29.5 -8.5t-37 -4.5q-46 0 -80.5 21t-54 55.5t-29 74t-9.5 82.5v10l38 32q24 0 39 -23t21 -52t18.5 -60.5t30.5 -44.5h43q14 0 30.5 32.5t16.5 48.5q0 23 1 34t6 26.5t17.5 22.5t33.5 7
t37.5 -15.5t16.5 -36.5q0 -1 -9 -33zM329 246v-61q0 -5 -0.5 -14t-1 -14.5t1 -12.5t5.5 -13v-3q6 0 34 1t41 1q84 0 84 -51q0 -26 -20.5 -44.5t-47.5 -18.5q-11 0 -34 3.5t-34 3.5q-5 0 -31 -11.5t-47 -11.5q-42 0 -63 20q-16 -2 -25 -2q-57 0 -76 37q0 40 32 55v8h65
q0 3 2 12.5t2 14.5q0 73 -7 218t-7 217q0 76 5.5 228t5.5 228q0 115 -10 218h-39h-14.5h-17.5h-15q-30 0 -47 11.5t-17 43.5q0 48 111 47h7q263 0 263 -83q0 -11 -12 -38h-105q8 -75 8 -163q0 -65 -5.5 -195.5t-5.5 -195.5q0 -73 7.5 -218t7.5 -217z" />
    <glyph glyph-name="Iogonek" unicode="&#x12e;" horiz-adv-x="489" 
d="M373 9q-177 -147 -177 -270q0 -10 2 -20.5t8.5 -20.5t16.5 -10q40 0 86 33v-34q0 -27 -31.5 -45.5t-60.5 -18.5q-42 0 -66.5 32t-24.5 75q0 82 56 156t136 123h55zM378 19h-257q-11 0 -22.5 2t-24 13t-12.5 30q0 49 62 49q13 0 34 -0.5t29 -0.5q10 0 10 46
q0 158 -19 473.5t-19 473.5q0 35 2 104.5t2 104.5q0 66 -5 114q-27 -9 -48 -9q-48 0 -48 49q0 25 31 43.5t77 26.5t82.5 11.5t62.5 3.5q24 0 42 -16.5t18 -39.5q0 -22 -13.5 -38.5t-34.5 -16.5q-7 0 -19 0.5t-17 0.5q-20 0 -29.5 -8.5t-9.5 -33.5q0 -200 26 -599t26 -599
v-88q8 0 21 0.5t21 0.5q83 0 83 -34q8 -34 -7.5 -48.5t-43.5 -14.5z" />
    <glyph glyph-name="iogonek" unicode="&#x12f;" horiz-adv-x="551" 
d="M422 13q-177 -147 -177 -270q0 -10 2 -20.5t8.5 -20.5t16.5 -10q40 0 86 33v-34q0 -27 -31.5 -45.5t-60.5 -18.5q-42 0 -66.5 32t-24.5 75q0 82 56 156t136 123h55zM280 22q-18 0 -47 -2t-42 -2q-57 0 -76 37q0 30 7.5 46.5t31.5 16.5h58q0 3 2 12.5t2 14.5q0 73 -7 218
t-7 217q0 76 5.5 228t5.5 228q0 115 -10 218h-39h-14.5h-17.5h-15q-30 0 -47 11.5t-17 43.5q0 48 111 47h7q263 0 263 -70q0 -11 -12 -38h-105q8 -75 8 -176q0 -65 -5.5 -195.5t-5.5 -195.5q0 -73 7.5 -218t7.5 -217v-61q0 -18 -7 -55h87q84 0 84 -51q0 -23 -14.5 -39
t-32.5 -16q-15 0 -44.5 -0.5t-44.5 -0.5q-5 0 -30.5 -0.5t-46.5 -0.5z" />
    <glyph glyph-name="Idotaccent" unicode="&#x130;" horiz-adv-x="489" 
d="M129 1760q0 31 23 55t54 24q29 0 51 -24t22 -53q0 -34 -23 -54.5t-58 -20.5q-28 0 -48.5 22.5t-20.5 50.5zM378 19h-257q-11 0 -22.5 2t-24 13t-12.5 30q0 49 62 49q13 0 34 -0.5t29 -0.5q10 0 10 46q0 158 -19 473.5t-19 473.5q0 35 2 104.5t2 104.5q0 66 -5 114
q-27 -9 -48 -9q-48 0 -48 49q0 25 31 43.5t77 26.5t82.5 11.5t62.5 3.5q24 0 42 -16.5t18 -39.5q0 -22 -13.5 -38.5t-34.5 -16.5q-7 0 -19 0.5t-17 0.5q-20 0 -29.5 -8.5t-9.5 -33.5q0 -200 26 -599t26 -599v-88q8 0 21 0.5t21 0.5q83 0 83 -34q8 -34 -7.5 -48.5
t-43.5 -14.5z" />
    <glyph glyph-name="dotlessi" unicode="&#x131;" horiz-adv-x="552" 
d="M329 246v-61q0 -5 -0.5 -14t-1 -14.5t1 -12.5t5.5 -13v-3q6 0 34 1t41 1q84 0 84 -51q0 -26 -20.5 -44.5t-47.5 -18.5q-11 0 -34 3.5t-34 3.5q-5 0 -31 -11.5t-47 -11.5q-42 0 -63 20q-16 -2 -25 -2q-57 0 -76 37q0 40 32 55v8h65q0 3 2 12.5t2 14.5q0 73 -7 218t-7 217
q0 76 5.5 228t5.5 228q0 115 -10 218h-39h-14.5h-17.5h-15q-30 0 -47 11.5t-17 43.5q0 48 111 47h7q263 0 263 -83q0 -11 -12 -38h-105q8 -75 8 -163q0 -65 -5.5 -195.5t-5.5 -195.5q0 -73 7.5 -218t7.5 -217z" />
    <glyph glyph-name="IJ" unicode="&#x132;" horiz-adv-x="907" 
d="M784 315q0 -195 -44 -312.5t-155 -196.5q-32 0 -53 16t-21 47q0 25 25.5 48t54.5 35q82 103 82 289q0 102 -10.5 292t-12.5 269q-1 54 -2 157.5t-2 168t-7.5 154t-18.5 163.5q-7 -1 -27 -6t-34 -7.5t-28 -2.5q-21 0 -36.5 15.5t-15.5 36.5q0 72 245 72q118 0 118 -56
q0 -31 -28 -42.5t-63 -10.5v-15q0 -53 -2 -158.5t-2 -158.5q0 -133 18.5 -398.5t18.5 -398.5zM378 19h-257q-11 0 -22.5 2t-24 13t-12.5 30q0 49 62 49q13 0 34 -0.5t29 -0.5q10 0 10 46q0 158 -19 473.5t-19 473.5q0 35 2 104.5t2 104.5q0 66 -5 114q-27 -9 -48 -9
q-48 0 -48 49q0 25 31 43.5t77 26.5t82.5 11.5t62.5 3.5q24 0 42 -16.5t18 -39.5q0 -22 -13.5 -38.5t-34.5 -16.5q-7 0 -19 0.5t-17 0.5q-20 0 -29.5 -8.5t-9.5 -33.5q0 -200 26 -599t26 -599v-88q8 0 21 0.5t21 0.5q83 0 83 -34q8 -34 -7.5 -48.5t-43.5 -14.5z" />
    <glyph glyph-name="ij" unicode="&#x133;" horiz-adv-x="1067" 
d="M601 -254l-61 61q132 83 175.5 158t43.5 222q0 175 -9 523t-9 523v9q-3 0 -22 2t-29 3.5t-29.5 5t-31.5 8.5t-25 12t-19 17t-6 22q0 20 23 33.5t44 13.5q42 0 122 -10t161.5 -36.5t81.5 -59.5q0 -22 -16.5 -35t-39.5 -13q-21 0 -59 9.5t-45 10.5v-17q0 -138 10 -413
t10 -413q0 -15 -1.5 -45.5t-1.5 -46.5q0 -30 1.5 -89t1.5 -87q0 -60 -5 -104t-21 -91t-45 -79.5t-79 -57.5t-120 -36zM279 22q-18 0 -47 -2t-42 -2q-57 0 -76 37q0 30 7.5 46.5t31.5 16.5h58q0 3 2 12.5t2 14.5q0 73 -7 218t-7 217q0 76 5.5 228t5.5 228q0 115 -10 218h-39
h-14.5h-17.5h-15q-30 0 -47 11.5t-17 43.5q0 48 111 47h7q263 0 263 -70q0 -11 -12 -38h-105q8 -75 8 -176q0 -65 -5.5 -195.5t-5.5 -195.5q0 -73 7.5 -218t7.5 -217v-61q0 -18 -7 -55h87q84 0 84 -51q0 -23 -14.5 -39t-32.5 -16q-15 0 -44.5 -0.5t-44.5 -0.5
q-5 0 -30.5 -0.5t-46.5 -0.5z" />
    <glyph glyph-name="Jcircumflex" unicode="&#x134;" horiz-adv-x="475" 
d="M245 1953q-8 -24 -22 -69.5t-22.5 -70.5t-26.5 -60t-42 -65l-67 48q4 38 36 128t79.5 172.5t81.5 82.5q52 0 52 -67q0 -45 31 -124t31 -114v-52q1 -3 9.5 -12t8.5 -13q0 -23 -20.5 -36.5t-44.5 -13.5h-44q-17 171 -40 266zM352 315q0 -195 -44 -312.5t-155 -196.5
q-32 0 -53 16t-21 47q0 25 25.5 48t54.5 35q82 103 82 289q0 102 -10.5 292t-12.5 269q-1 54 -2 157.5t-2 168t-7.5 154t-18.5 163.5q-7 -1 -27 -6t-34 -7.5t-28 -2.5q-21 0 -36.5 15.5t-15.5 36.5q0 72 245 72q118 0 118 -56q0 -31 -28 -42.5t-63 -10.5v-15
q0 -53 -2 -158.5t-2 -158.5q0 -133 18.5 -398.5t18.5 -398.5z" />
    <glyph glyph-name="jcircumflex" unicode="&#x135;" horiz-adv-x="578" 
d="M288 1746q-8 -24 -22 -69.5t-22.5 -70.5t-26.5 -60t-42 -65l-67 48q4 38 36 128t79.5 172.5t81.5 82.5q52 0 52 -67q0 -45 31 -124t31 -114v-52q1 -3 9.5 -12t8.5 -13q0 -23 -20.5 -36.5t-44.5 -13.5h-44q-17 171 -40 266zM382 158q-19 -32 -29 -90t-17 -110t-23.5 -102
t-60 -80t-116.5 -30l-94 67q0 27 62 72.5t107 68.5q31 37 45 103t14 130q0 175 -9 523t-9 523v9q-3 0 -22 2t-29 3.5t-29.5 5t-31.5 8.5t-25 12t-19 17t-6 22q0 20 23 33.5t44 13.5q42 0 122 -10t161.5 -36.5t81.5 -59.5q0 -22 -16.5 -35t-39.5 -13q-21 0 -59 9.5t-45 10.5
v-17q0 -138 10 -413t10 -413v-224z" />
    <glyph glyph-name="uni0136" unicode="&#x136;" horiz-adv-x="691" 
d="M346 -536v72q8 8 39.5 33.5t51 48t23.5 44.5q-59 43 -59 101q0 37 31.5 62t69.5 25q37 0 58 -22.5t36 -63.5v-7q0 -2 -1.5 -6.5t-1.5 -7.5q0 -47 -26 -112t-71 -116t-89 -51h-61zM334 955q30 -79 163.5 -498.5t133.5 -445.5q0 -25 -20 -42t-45 -17q-9 0 -25 4t-23 4
q-50 293 -102 508.5t-138 411.5q-9 -17 -23 -44t-18.5 -36.5t-11.5 -28t-9 -33t-4 -36.5t-2 -52q0 -64 6.5 -190t6.5 -190q0 -277 -70 -277q-60 0 -60 115q0 92 13.5 276t13.5 276q0 41 1.5 176t1.5 213q0 223 -12 320q-1 11 -9.5 49.5t-8.5 57.5q0 26 16.5 45.5t41.5 19.5
q76 0 76 -166q0 -1 -9 -421q7 18 38 100t64 167t70.5 173.5t70.5 145t52 56.5q23 0 40.5 -15.5t17.5 -38.5q0 -20 -112 -254t-125 -297v-36z" />
    <glyph glyph-name="uni0137" unicode="&#x137;" horiz-adv-x="696" 
d="M357 -523v72q8 8 39.5 33.5t51 48t23.5 44.5q-59 43 -59 101q0 37 31.5 62t69.5 25q37 0 58 -22.5t36 -63.5v-7q0 -2 -1.5 -6.5t-1.5 -7.5q0 -47 -26 -112t-71 -116t-89 -51h-61zM603 1289q0 -2 -48.5 -82t-104 -171.5t-67.5 -116.5q0 -21 -2 -61t-2 -61q0 -88 70.5 -329
t117.5 -319q6 -9 26.5 -37t30 -49t9.5 -44t-17.5 -38.5t-40.5 -15.5q-48 0 -100 101.5t-92.5 248.5t-65 257.5t-36.5 179.5q-34 -35 -52.5 -93.5t-18.5 -80.5v-561q0 -48 -45 -48q-31 0 -49.5 17.5t-18.5 47.5v622q0 111 19.5 331.5t19.5 330.5q18 39 61 39q24 0 38.5 -20
t14.5 -49q0 -16 -3 -80.5t-7.5 -154t-6.5 -138.5v-107q6 11 75.5 162t130.5 262.5t85 111.5q30 0 54.5 -14t24.5 -41z" />
    <glyph glyph-name="kgreenlandic" unicode="&#x138;" horiz-adv-x="696" 
d="M603 1289q0 -2 -48.5 -82t-104 -171.5t-67.5 -116.5q0 -21 -2 -61t-2 -61q0 -88 70.5 -329t117.5 -319q6 -9 26.5 -37t30 -49t9.5 -44t-17.5 -38.5t-40.5 -15.5q-48 0 -100 101.5t-92.5 248.5t-65 257.5t-36.5 179.5q-74 -147 -74 -356v-379q0 -48 -42 -48
q-31 0 -49.5 17.5t-18.5 47.5v622q0 111 19.5 331.5t19.5 330.5q18 39 61 39q25 0 44 -18.5t19 -44.5v-6q-27 -47 -27 -373v-73q3 5 75 150t132 248.5t84 103.5q30 0 54.5 -14t24.5 -41z" />
    <glyph glyph-name="Lacute" unicode="&#x139;" horiz-adv-x="485" 
d="M170 1741v2q1 24 55.5 70.5t126 97t86.5 64.5q32 0 55 -13.5t23 -42.5q0 -1 -9 -49q-66 -27 -142.5 -79.5t-125.5 -103.5q-29 0 -49 13.5t-20 40.5zM241 102h146q5 -3 15.5 -9.5t15 -9.5t9 -11t4.5 -18q0 -23 -15 -40.5t-37 -17.5q-4 0 -9.5 1t-12 3t-9.5 3
q-17 -4 -39 -4q-11 0 -33 1.5t-33 1.5q-21 -25 -58 -25q-26 0 -47.5 19.5t-21.5 45.5q0 16 6.5 45.5t6.5 44.5q0 233 -20.5 698.5t-20.5 698.5q0 19 15 30.5t35 11.5q25 0 43.5 -17t18.5 -42q0 -123 10.5 -369t10.5 -368q0 -36 -4 -65v-9q3 -59 9.5 -168t10.5 -198t4 -168
v-65z" />
    <glyph glyph-name="lacute" unicode="&#x13a;" horiz-adv-x="522" 
d="M152 1534v2q1 24 55.5 70.5t126 97t86.5 64.5q32 0 55 -13.5t23 -42.5q0 -1 -9 -49q-66 -27 -142.5 -79.5t-125.5 -103.5q-29 0 -49 13.5t-20 40.5zM213 545q0 -55 -4 -162t-4 -164q0 -141 69 -141q8 0 37.5 1.5t47.5 1.5q110 0 110 -60q0 -22 -19 -36.5t-43 -17.5
q-75 24 -183 24q-33 -19 -70 -19q-24 0 -41 21t-17 46q0 153 10 458t10 457v15q-6 64 -6 192q0 194 71 194q21 0 36.5 -15t15.5 -36q0 -26 -7 -78t-7 -78q0 -82 3 -246t3 -246q-12 -29 -12 -111z" />
    <glyph glyph-name="uni013B" unicode="&#x13b;" horiz-adv-x="485" 
d="M157 -511v72q8 8 39.5 33.5t51 48t23.5 44.5q-59 43 -59 101q0 37 31.5 62t69.5 25q37 0 58 -22.5t36 -63.5v-7q0 -2 -1.5 -6.5t-1.5 -7.5q0 -47 -26 -112t-71 -116t-89 -51h-61zM241 102h146q5 -3 15.5 -9.5t15 -9.5t9 -11t4.5 -18q0 -23 -15 -40.5t-37 -17.5
q-4 0 -9.5 1t-12 3t-9.5 3q-17 -4 -39 -4q-11 0 -33 1.5t-33 1.5q-21 -25 -58 -25q-26 0 -47.5 19.5t-21.5 45.5q0 16 6.5 45.5t6.5 44.5q0 233 -20.5 698.5t-20.5 698.5q0 19 15 30.5t35 11.5q25 0 43.5 -17t18.5 -42q0 -123 10.5 -369t10.5 -368q0 -36 -4 -65v-9
q3 -59 9.5 -168t10.5 -198t4 -168v-65z" />
    <glyph glyph-name="uni013C" unicode="&#x13c;" horiz-adv-x="522" 
d="M259 -521v72q8 8 39.5 33.5t51 48t23.5 44.5q-59 43 -59 101q0 37 31.5 62t69.5 25q37 0 58 -22.5t36 -63.5v-7q0 -2 -1.5 -6.5t-1.5 -7.5q0 -47 -26 -112t-71 -116t-89 -51h-61zM213 545q0 -55 -4 -162t-4 -164q0 -141 69 -141q8 0 37.5 1.5t47.5 1.5q110 0 110 -60
q0 -22 -19 -36.5t-43 -17.5q-75 24 -183 24q-33 -19 -70 -19q-24 0 -41 21t-17 46q0 153 10 458t10 457v15q-6 64 -6 192q0 194 71 194q21 0 36.5 -15t15.5 -36q0 -26 -7 -78t-7 -78q0 -82 3 -246t3 -246q-12 -29 -12 -111z" />
    <glyph glyph-name="Lcaron" unicode="&#x13d;" horiz-adv-x="868" 
d="M554 1199v72q8 8 39.5 33.5t51 48t23.5 44.5q-59 43 -59 101q0 37 31.5 62t69.5 25q37 0 58 -22.5t36 -63.5v-7q0 -2 -1.5 -6.5t-1.5 -7.5q0 -47 -26 -112t-71 -116t-89 -51h-61zM241 102h146q5 -3 15.5 -9.5t15 -9.5t9 -11t4.5 -18q0 -23 -15 -40.5t-37 -17.5
q-4 0 -9.5 1t-12 3t-9.5 3q-17 -4 -39 -4q-11 0 -33 1.5t-33 1.5q-21 -25 -58 -25q-26 0 -47.5 19.5t-21.5 45.5q0 16 6.5 45.5t6.5 44.5q0 233 -20.5 698.5t-20.5 698.5q0 19 15 30.5t35 11.5q25 0 43.5 -17t18.5 -42q0 -123 10.5 -369t10.5 -368q0 -36 -4 -65v-9
q3 -59 9.5 -168t10.5 -198t4 -168v-65z" />
    <glyph glyph-name="lcaron" unicode="&#x13e;" horiz-adv-x="934" 
d="M602 992v72q8 8 39.5 33.5t51 48t23.5 44.5q-59 43 -59 101q0 37 31.5 62t69.5 25q37 0 58 -22.5t36 -63.5v-7q0 -2 -1.5 -6.5t-1.5 -7.5q0 -47 -26 -112t-71 -116t-89 -51h-61zM213 545q0 -55 -4 -162t-4 -164q0 -141 69 -141q8 0 37.5 1.5t47.5 1.5q110 0 110 -60
q0 -22 -19 -36.5t-43 -17.5q-75 24 -183 24q-33 -19 -70 -19q-24 0 -41 21t-17 46q0 153 10 458t10 457v15q-6 64 -6 192q0 194 71 194q21 0 36.5 -15t15.5 -36q0 -26 -7 -78t-7 -78q0 -82 3 -246t3 -246q-12 -29 -12 -111z" />
    <glyph glyph-name="Ldot" unicode="&#x13f;" horiz-adv-x="485" 
d="M202 778q0 31 23 55t54 24q29 0 51 -24t22 -53q0 -34 -23 -54.5t-58 -20.5q-28 0 -48.5 22.5t-20.5 50.5zM241 102h146q5 -3 15.5 -9.5t15 -9.5t9 -11t4.5 -18q0 -23 -15 -40.5t-37 -17.5q-4 0 -9.5 1t-12 3t-9.5 3q-17 -4 -39 -4q-11 0 -33 1.5t-33 1.5q-21 -25 -58 -25
q-26 0 -47.5 19.5t-21.5 45.5q0 16 6.5 45.5t6.5 44.5q0 233 -20.5 698.5t-20.5 698.5q0 19 15 30.5t35 11.5q25 0 43.5 -17t18.5 -42q0 -123 10.5 -369t10.5 -368q0 -36 -4 -65v-9q3 -59 9.5 -168t10.5 -198t4 -168v-65z" />
    <glyph glyph-name="ldot" unicode="&#x140;" horiz-adv-x="794" 
d="M573 706q0 31 23 55t54 24q29 0 51 -24t22 -53q0 -34 -23 -54.5t-58 -20.5q-28 0 -48.5 22.5t-20.5 50.5zM213 545q0 -55 -4 -162t-4 -164q0 -141 69 -141q8 0 37.5 1.5t47.5 1.5q110 0 110 -60q0 -22 -19 -36.5t-43 -17.5q-75 24 -183 24q-33 -19 -70 -19q-24 0 -41 21
t-17 46q0 153 10 458t10 457v15q-6 64 -6 192q0 194 71 194q21 0 36.5 -15t15.5 -36q0 -26 -7 -78t-7 -78q0 -82 3 -246t3 -246q-12 -29 -12 -111z" />
    <glyph glyph-name="Lslash" unicode="&#x141;" horiz-adv-x="558" 
d="M248 102h146q5 -3 15.5 -9.5t15 -9.5t9 -11t4.5 -18q0 -23 -15 -40.5t-37 -17.5q-4 0 -9.5 1t-12 3t-9.5 3q-17 -4 -39 -4q-11 0 -33 1.5t-33 1.5q-21 -25 -58 -25q-26 0 -47.5 19.5t-21.5 45.5q0 16 6.5 45.5t6.5 44.5q0 233 -20.5 698.5t-20.5 698.5q0 19 15 30.5
t35 11.5q25 0 43.5 -17t18.5 -42q0 -123 10.5 -369t10.5 -368q0 -36 -4 -65v-9q3 -59 9.5 -168t10.5 -198t4 -168v-65zM505 739q0 -11 -48.5 -19.5t-119 -12t-122.5 -5t-85 -1.5q-26 0 -46.5 17t-20.5 42q0 11 48.5 19.5t119 12t122 5t84.5 1.5q26 0 47 -16.5t21 -42.5z" />
    <glyph glyph-name="lslash" unicode="&#x142;" horiz-adv-x="563" 
d="M227 545q0 -55 -4 -162t-4 -164q0 -141 69 -141q8 0 37.5 1.5t47.5 1.5q110 0 110 -60q0 -22 -19 -36.5t-43 -17.5q-75 24 -183 24q-33 -19 -70 -19q-24 0 -41 21t-17 46q0 153 10 458t10 457v15q-6 64 -6 192q0 194 71 194q21 0 36.5 -15t15.5 -36q0 -26 -7 -78t-7 -78
q0 -82 3 -246t3 -246q-12 -29 -12 -111zM498 739q0 -25 -48.5 -43.5t-119.5 -26t-122 -10.5t-85 -3q-26 0 -46.5 17t-20.5 42t48.5 43t119 26t122 11t84.5 3q26 0 47 -16.5t21 -42.5z" />
    <glyph glyph-name="Nacute" unicode="&#x143;" horiz-adv-x="764" 
d="M325 1752v2q1 24 55.5 70.5t126 97t86.5 64.5q32 0 55 -13.5t23 -42.5q0 -1 -9 -49q-66 -27 -142.5 -79.5t-125.5 -103.5q-29 0 -49 13.5t-20 40.5zM235 1112q1 42 -17.5 107.5t-20.5 78.5v-1296h-72v38q4 15 -1 63t-5 74q0 106 -13 344t-13 291v261q0 63 7 188t7 188
q0 28 0.5 37t4 27t11 24t23 11.5t38.5 5.5q16 0 31 -8t25 -22.5t10 -31.5q0 -33 8 -66.5t23 -75t21 -62.5q6 -23 10.5 -52t6.5 -52t5 -53t8 -53q15 -83 45 -193.5t56.5 -195.5t49.5 -192.5t28 -198.5q16 -30 20 -73q0 119 3 357t3 357v606q12 51 67 51q31 0 43.5 -23.5
t12.5 -56.5v-12q-13 -27 -13 -60q0 -125 -4 -378t-4 -379v-626q0 -23 -9.5 -41t-30.5 -29.5t-50 -11.5q-16 0 -27.5 7t-17.5 17t-10.5 25t-6.5 28.5t-4.5 30t-4.5 26.5q-23 92 -77.5 286.5t-91.5 345.5t-59 292q-2 7 -2.5 19t-1 20.5t-3.5 18.5t-8 17z" />
    <glyph glyph-name="nacute" unicode="&#x144;" horiz-adv-x="769" 
d="M387 1534v2q1 24 55.5 70.5t126 97t86.5 64.5q32 0 55 -13.5t23 -42.5q0 -1 -9 -49q-66 -27 -142.5 -79.5t-125.5 -103.5q-29 0 -49 13.5t-20 40.5zM223 278v-232q0 -27 -14 -45.5t-39 -18.5q-67 0 -67 125q0 120 -2 361t-2 361q0 63 6 191t6 191q0 138 75 138
q17 0 31.5 -13t22 -27.5t11.5 -28.5q28 -132 97.5 -379.5t95.5 -376.5q19 -63 49 -186.5t47 -185.5q8 444 8 1076q0 8 -1.5 26.5t-1.5 28.5q0 28 10.5 44.5t40.5 16.5q20 0 36 -12t24 -30.5t8 -37.5q0 -281 -16 -722t-48 -551q-4 -1 -17 -5.5t-19.5 -6t-17 -3.5t-18.5 -2
q-27 0 -39 14.5t-18.5 44.5t-11.5 40q-12 47 -67.5 291t-108.5 467.5t-72 282.5v-306q0 -51 6 -247t6 -283z" />
    <glyph glyph-name="uni0145" unicode="&#x145;" horiz-adv-x="764" 
d="M404 -509v72q8 8 39.5 33.5t51 48t23.5 44.5q-59 43 -59 101q0 37 31.5 62t69.5 25q37 0 58 -22.5t36 -63.5v-7q0 -2 -1.5 -6.5t-1.5 -7.5q0 -47 -26 -112t-71 -116t-89 -51h-61zM235 1112q1 42 -17.5 107.5t-20.5 78.5v-1296h-72v38q4 15 -1 63t-5 74q0 106 -13 344
t-13 291v261q0 63 7 188t7 188q0 28 0.5 37t4 27t11 24t23 11.5t38.5 5.5q16 0 31 -8t25 -22.5t10 -31.5q0 -33 8 -66.5t23 -75t21 -62.5q6 -23 10.5 -52t6.5 -52t5 -53t8 -53q15 -83 45 -193.5t56.5 -195.5t49.5 -192.5t28 -198.5q16 -30 20 -73q0 119 3 357t3 357v606
q12 51 67 51q31 0 43.5 -23.5t12.5 -56.5v-12q-13 -27 -13 -60q0 -125 -4 -378t-4 -379v-626q0 -23 -9.5 -41t-30.5 -29.5t-50 -11.5q-16 0 -27.5 7t-17.5 17t-10.5 25t-6.5 28.5t-4.5 30t-4.5 26.5q-23 92 -77.5 286.5t-91.5 345.5t-59 292q-2 7 -2.5 19t-1 20.5t-3.5 18.5
t-8 17z" />
    <glyph glyph-name="uni0146" unicode="&#x146;" horiz-adv-x="769" 
d="M455 -494v72q8 8 39.5 33.5t51 48t23.5 44.5q-59 43 -59 101q0 37 31.5 62t69.5 25q37 0 58 -22.5t36 -63.5v-7q0 -2 -1.5 -6.5t-1.5 -7.5q0 -47 -26 -112t-71 -116t-89 -51h-61zM223 278v-232q0 -27 -14 -45.5t-39 -18.5q-67 0 -67 125q0 120 -2 361t-2 361q0 63 6 191
t6 191q0 138 75 138q17 0 31.5 -13t22 -27.5t11.5 -28.5q28 -132 97.5 -379.5t95.5 -376.5q19 -63 49 -186.5t47 -185.5q8 444 8 1076q0 8 -1.5 26.5t-1.5 28.5q0 28 10.5 44.5t40.5 16.5q20 0 36 -12t24 -30.5t8 -37.5q0 -281 -16 -722t-48 -551q-4 -1 -17 -5.5t-19.5 -6
t-17 -3.5t-18.5 -2q-27 0 -39 14.5t-18.5 44.5t-11.5 40q-12 47 -67.5 291t-108.5 467.5t-72 282.5v-306q0 -51 6 -247t6 -283z" />
    <glyph glyph-name="Ncaron" unicode="&#x147;" horiz-adv-x="764" 
d="M529 2049v-37l-6 -1q-7 -1 -7 -2q0 -10 -30.5 -112.5t-30.5 -132.5q0 -66 -52 -66q-49 0 -119 156t-77 225l66 47l53 -71q1 -38 59 -194q30 118 42 241h44q6 0 17 0.5t18 0.5t14.5 -1.5t11.5 -7t4 -14.5q0 -4 -1 -9.5t-3 -12t-3 -9.5zM235 1112q1 42 -17.5 107.5
t-20.5 78.5v-1296h-72v38q4 15 -1 63t-5 74q0 106 -13 344t-13 291v261q0 63 7 188t7 188q0 28 0.5 37t4 27t11 24t23 11.5t38.5 5.5q16 0 31 -8t25 -22.5t10 -31.5q0 -33 8 -66.5t23 -75t21 -62.5q6 -23 10.5 -52t6.5 -52t5 -53t8 -53q15 -83 45 -193.5t56.5 -195.5
t49.5 -192.5t28 -198.5q16 -30 20 -73q0 119 3 357t3 357v606q12 51 67 51q31 0 43.5 -23.5t12.5 -56.5v-12q-13 -27 -13 -60q0 -125 -4 -378t-4 -379v-626q0 -23 -9.5 -41t-30.5 -29.5t-50 -11.5q-16 0 -27.5 7t-17.5 17t-10.5 25t-6.5 28.5t-4.5 30t-4.5 26.5
q-23 92 -77.5 286.5t-91.5 345.5t-59 292q-2 7 -2.5 19t-1 20.5t-3.5 18.5t-8 17z" />
    <glyph glyph-name="ncaron" unicode="&#x148;" horiz-adv-x="769" 
d="M591 1831v-37l-6 -1q-7 -1 -7 -2q0 -10 -30.5 -112.5t-30.5 -132.5q0 -66 -52 -66q-49 0 -119 156t-77 225l66 47l53 -71q1 -38 59 -194q30 118 42 241h44q6 0 17 0.5t18 0.5t14.5 -1.5t11.5 -7t4 -14.5q0 -4 -1 -9.5t-3 -12t-3 -9.5zM223 278v-232q0 -27 -14 -45.5
t-39 -18.5q-67 0 -67 125q0 120 -2 361t-2 361q0 63 6 191t6 191q0 138 75 138q17 0 31.5 -13t22 -27.5t11.5 -28.5q28 -132 97.5 -379.5t95.5 -376.5q19 -63 49 -186.5t47 -185.5q8 444 8 1076q0 8 -1.5 26.5t-1.5 28.5q0 28 10.5 44.5t40.5 16.5q20 0 36 -12t24 -30.5
t8 -37.5q0 -281 -16 -722t-48 -551q-4 -1 -17 -5.5t-19.5 -6t-17 -3.5t-18.5 -2q-27 0 -39 14.5t-18.5 44.5t-11.5 40q-12 47 -67.5 291t-108.5 467.5t-72 282.5v-306q0 -51 6 -247t6 -283z" />
    <glyph glyph-name="Eng" unicode="&#x14a;" horiz-adv-x="791" 
d="M235 1112q1 42 -17.5 107.5t-20.5 78.5v-1296h-72v38q4 15 -1 63t-5 74q0 106 -13 344t-13 291v261q0 63 7 188t7 188q0 28 0.5 37t4 27t11 24t23 11.5t38.5 5.5q16 0 31 -8t25 -22.5t10 -31.5q0 -33 8 -66.5t23 -75t21 -62.5q6 -23 10.5 -52t6.5 -52t5 -53t8 -53
q15 -83 45 -193.5t56.5 -195.5t49.5 -192.5t28 -198.5q16 -30 20 -73q0 119 3 357t3 357v606q12 51 67 51q31 0 43.5 -23.5t12.5 -56.5v-12q-13 -27 -13 -60q0 -125 -4 -378t-4 -379v-626q0 -23 -9.5 -41t-30.5 -29.5t-50 -11.5q-16 0 -27.5 7t-17.5 17t-10.5 25t-6.5 28.5
t-4.5 30t-4.5 26.5q-23 92 -77.5 286.5t-91.5 345.5t-59 292q-2 7 -2.5 19t-1 20.5t-3.5 18.5t-8 17zM667 315q0 -195 -44 -312.5t-155 -196.5q-32 0 -53 16t-21 47q0 25 25.5 48t54.5 35q82 103 82 289q0 102 -10.5 292t-12.5 269q-1 54 -2 157.5t-2 168t-7.5 154
t-18.5 163.5q-7 -1 -27 -6t-34 -7.5t-28 -2.5q-21 0 -36.5 15.5t-15.5 36.5q0 72 245 72q118 0 118 -56q0 -31 -28 -42.5t-63 -10.5v-15q0 -53 -2 -158.5t-2 -158.5q0 -133 18.5 -398.5t18.5 -398.5z" />
    <glyph glyph-name="eng" unicode="&#x14b;" horiz-adv-x="886" 
d="M210 66q0 -64 -41 -64q-67 0 -67 125q0 117 -2 351t-2 351q0 63 6 191t6 191q0 53 12.5 88t50.5 63v-13q8 5 27 5q31 0 53 -74q39 -143 142 -397t140 -372q13 -39 40 -151t51 -171q41 429 41 1039q0 8 -1.5 26.5t-1.5 28.5q0 61 51 61q30 0 49 -24.5t19 -55.5v-155
q-1 -211 -25.5 -628.5t-58.5 -469.5q-56 -17 -72 -17q-27 0 -38.5 14.5t-18.5 44.5t-12 40q0 1 0.5 4t0.5 5q0 77 -143 486.5t-206 556.5v-1079z" />
    <glyph glyph-name="Omacron" unicode="&#x14c;" horiz-adv-x="694" 
d="M549 1736q0 -45 -66 -45q-4 0 -56.5 -2t-91.5 -2q-228 0 -228 56q0 44 90 44q4 0 55 2t89 2q208 0 208 -55zM304 1477q-19 0 -36 -14t-29 -42t-22 -59.5t-16.5 -77t-11.5 -82.5t-8 -88t-5 -83t-2.5 -77t-0.5 -60v-42q0 -66 10 -183t31.5 -262.5t65 -248.5t99.5 -103
q40 0 68 76.5t39.5 191.5t15.5 194t4 136q0 40 -0.5 78t-3 110.5t-8.5 136t-15 140.5t-24.5 137t-35.5 112.5t-49.5 81t-65.5 28.5zM568 215q0 -54 -22.5 -115.5t-69 -109t-101.5 -47.5t-100.5 38t-75 97.5t-52.5 142t-35 161t-19.5 165.5t-9.5 144.5t-2 107.5
q0 52 2.5 107.5t7 132t6.5 107.5q1 18 2 60t2 71t6 71.5t12 72.5t21.5 63t34.5 53.5t50.5 34t69.5 13.5q40 0 74 -11t57.5 -28.5t43 -46t32 -55.5t22.5 -65t15 -67.5t11 -69.5q49 -350 49 -624q0 -45 -9 -131t-9 -128v-9q-13 -57 -13 -135z" />
    <glyph glyph-name="omacron" unicode="&#x14d;" horiz-adv-x="669" 
d="M553 1529q0 -45 -66 -45q-4 0 -56.5 -2t-91.5 -2q-228 0 -228 56q0 44 90 44q4 0 55 2t89 2q208 0 208 -55zM193 913q0 -33 -0.5 -98t-0.5 -98q0 -25 1 -59t2.5 -89.5t6 -110t10.5 -115t16 -112t22.5 -94t31 -66.5t39.5 -24q30 0 53 30t37 80.5t24 106t14.5 118.5t6 105
t1.5 77q0 21 1.5 93t1.5 118q0 62 -2 114t-8 111.5t-17.5 105t-28 84t-43 59t-60.5 20.5h-4q-33 0 -55.5 -20.5t-33 -57.5t-14.5 -74t-4 -84q0 -25 1.5 -66t1.5 -54zM329 -38q-45 0 -83 26t-63.5 67.5t-45 100t-30.5 118t-17.5 127t-9 120t-2.5 105.5q0 25 -0.5 66.5
t-0.5 58.5v9v14.5v16.5q0 39 1 76t5.5 95t12 107t22.5 103t35 91.5t51 62.5t69 27q24 -8 51.5 -14t44.5 -9.5t36.5 -12.5t37.5 -28.5t37 -51.5q49 -80 69.5 -199.5t20.5 -239.5v-247q0 -36 -0.5 -68.5t-3.5 -79.5t-8 -86.5t-14 -86t-21 -83.5t-30.5 -72.5t-41.5 -59.5
t-54 -38.5t-68 -14.5z" />
    <glyph glyph-name="Obreve" unicode="&#x14e;" horiz-adv-x="694" 
d="M478 1868v-17q-2 -6 -13 -31t-14 -31.5t-13 -26.5t-16.5 -26t-19 -19t-25 -17t-29.5 -8.5t-37 -4.5q-46 0 -80.5 21t-54 55.5t-29 74t-9.5 82.5v10l38 32q24 0 39 -23t21 -52t18.5 -60.5t30.5 -44.5h43q14 0 30.5 32.5t16.5 48.5q0 23 1 34t6 26.5t17.5 22.5t33.5 7
t37.5 -15.5t16.5 -36.5q0 -1 -9 -33zM304 1477q-19 0 -36 -14t-29 -42t-22 -59.5t-16.5 -77t-11.5 -82.5t-8 -88t-5 -83t-2.5 -77t-0.5 -60v-42q0 -66 10 -183t31.5 -262.5t65 -248.5t99.5 -103q40 0 68 76.5t39.5 191.5t15.5 194t4 136q0 40 -0.5 78t-3 110.5t-8.5 136
t-15 140.5t-24.5 137t-35.5 112.5t-49.5 81t-65.5 28.5zM568 215q0 -54 -22.5 -115.5t-69 -109t-101.5 -47.5t-100.5 38t-75 97.5t-52.5 142t-35 161t-19.5 165.5t-9.5 144.5t-2 107.5q0 52 2.5 107.5t7 132t6.5 107.5q1 18 2 60t2 71t6 71.5t12 72.5t21.5 63t34.5 53.5
t50.5 34t69.5 13.5q40 0 74 -11t57.5 -28.5t43 -46t32 -55.5t22.5 -65t15 -67.5t11 -69.5q49 -350 49 -624q0 -45 -9 -131t-9 -128v-9q-13 -57 -13 -135z" />
    <glyph glyph-name="obreve" unicode="&#x14f;" horiz-adv-x="669" 
d="M402 1661v-17q-2 -6 -13 -31t-14 -31.5t-13 -26.5t-16.5 -26t-19 -19t-25 -17t-29.5 -8.5t-37 -4.5q-46 0 -80.5 21t-54 55.5t-29 74t-9.5 82.5v10l38 32q24 0 39 -23t21 -52t18.5 -60.5t30.5 -44.5h43q14 0 30.5 32.5t16.5 48.5q0 23 1 34t6 26.5t17.5 22.5t33.5 7
t37.5 -15.5t16.5 -36.5q0 -1 -9 -33zM193 913q0 -33 -0.5 -98t-0.5 -98q0 -25 1 -59t2.5 -89.5t6 -110t10.5 -115t16 -112t22.5 -94t31 -66.5t39.5 -24q30 0 53 30t37 80.5t24 106t14.5 118.5t6 105t1.5 77q0 21 1.5 93t1.5 118q0 62 -2 114t-8 111.5t-17.5 105t-28 84
t-43 59t-60.5 20.5h-4q-33 0 -55.5 -20.5t-33 -57.5t-14.5 -74t-4 -84q0 -25 1.5 -66t1.5 -54zM329 -38q-45 0 -83 26t-63.5 67.5t-45 100t-30.5 118t-17.5 127t-9 120t-2.5 105.5q0 25 -0.5 66.5t-0.5 58.5v9v14.5v16.5q0 39 1 76t5.5 95t12 107t22.5 103t35 91.5t51 62.5
t69 27q24 -8 51.5 -14t44.5 -9.5t36.5 -12.5t37.5 -28.5t37 -51.5q49 -80 69.5 -199.5t20.5 -239.5v-247q0 -36 -0.5 -68.5t-3.5 -79.5t-8 -86.5t-14 -86t-21 -83.5t-30.5 -72.5t-41.5 -59.5t-54 -38.5t-68 -14.5z" />
    <glyph glyph-name="Ohungarumlaut" unicode="&#x150;" horiz-adv-x="694" 
d="M466 1694q-22 4 -23 37q9 21 116.5 104t221 158t136.5 75t43.5 -19t28.5 -44v-17q-161 -65 -433 -237q-15 -9 -44 -28q-31 -19 -46 -29zM585 2010q0 -40 -287 -228q-33 -5 -93 -46t-85 -49l-18 22q15 26 80.5 84.5t139 116t138 102t78.5 44.5q19 0 33 -13.5t14 -32.5z
M304 1477q-19 0 -36 -14t-29 -42t-22 -59.5t-16.5 -77t-11.5 -82.5t-8 -88t-5 -83t-2.5 -77t-0.5 -60v-42q0 -66 10 -183t31.5 -262.5t65 -248.5t99.5 -103q40 0 68 76.5t39.5 191.5t15.5 194t4 136q0 40 -0.5 78t-3 110.5t-8.5 136t-15 140.5t-24.5 137t-35.5 112.5
t-49.5 81t-65.5 28.5zM568 215q0 -54 -22.5 -115.5t-69 -109t-101.5 -47.5t-100.5 38t-75 97.5t-52.5 142t-35 161t-19.5 165.5t-9.5 144.5t-2 107.5q0 52 2.5 107.5t7 132t6.5 107.5q1 18 2 60t2 71t6 71.5t12 72.5t21.5 63t34.5 53.5t50.5 34t69.5 13.5q40 0 74 -11
t57.5 -28.5t43 -46t32 -55.5t22.5 -65t15 -67.5t11 -69.5q49 -350 49 -624q0 -45 -9 -131t-9 -128v-9q-13 -57 -13 -135z" />
    <glyph glyph-name="ohungarumlaut" unicode="&#x151;" horiz-adv-x="669" 
d="M462 1462q-22 4 -23 37q9 21 116.5 104t221 158t136.5 75t43.5 -19t28.5 -44v-17q-161 -65 -433 -237q-15 -9 -44 -28q-31 -19 -46 -29zM581 1778q0 -40 -287 -228q-33 -5 -93 -46t-85 -49l-18 22q15 26 80.5 84.5t139 116t138 102t78.5 44.5q19 0 33 -13.5t14 -32.5z
M193 913q0 -33 -0.5 -98t-0.5 -98q0 -25 1 -59t2.5 -89.5t6 -110t10.5 -115t16 -112t22.5 -94t31 -66.5t39.5 -24q30 0 53 30t37 80.5t24 106t14.5 118.5t6 105t1.5 77q0 21 1.5 93t1.5 118q0 62 -2 114t-8 111.5t-17.5 105t-28 84t-43 59t-60.5 20.5h-4q-33 0 -55.5 -20.5
t-33 -57.5t-14.5 -74t-4 -84q0 -25 1.5 -66t1.5 -54zM329 -38q-45 0 -83 26t-63.5 67.5t-45 100t-30.5 118t-17.5 127t-9 120t-2.5 105.5q0 25 -0.5 66.5t-0.5 58.5v9v14.5v16.5q0 39 1 76t5.5 95t12 107t22.5 103t35 91.5t51 62.5t69 27q24 -8 51.5 -14t44.5 -9.5
t36.5 -12.5t37.5 -28.5t37 -51.5q49 -80 69.5 -199.5t20.5 -239.5v-247q0 -36 -0.5 -68.5t-3.5 -79.5t-8 -86.5t-14 -86t-21 -83.5t-30.5 -72.5t-41.5 -59.5t-54 -38.5t-68 -14.5z" />
    <glyph glyph-name="OE" unicode="&#x152;" horiz-adv-x="1147" 
d="M171 751q9 -19 16.5 -105.5t13 -174.5t25.5 -162t53 -77q46 -56 109 -88t132 -32q24 0 59.5 4t74 17.5t38.5 34.5q0 217 -18 622.5t-21 580.5q-67 78 -233 78q-53 0 -95.5 -24t-68.5 -66.5t-44 -91t-26.5 -108t-11.5 -106t-3 -96.5q0 -23 0.5 -69t0.5 -68q0 -46 -1 -69z
M925 87v-2h33q136 0 136 -60v-41q-54 0 -173.5 -3t-173.5 -3q-24 0 -48.5 13t-24.5 35v7q-74 -24 -103 -24q-75 0 -138.5 16t-110.5 42t-84.5 67.5t-63 85.5t-43.5 103.5t-28.5 113t-16.5 122.5t-7.5 124t-1.5 126q0 52 0.5 85.5t3.5 97.5t8 109.5t16 108t26 106.5t39 91.5
t54.5 76.5t72.5 48t92 19q181 0 266 -57v31h325q47 -26 47 -55q0 -21 -18.5 -32.5t-41.5 -11.5q-39 0 -112.5 3.5t-105.5 3.5q0 -69 14 -207t14 -208q0 -18 -2 -53t-2 -52q0 -33 5 -57h62q2 0 5 -1t4 -1q9 0 24 0.5t21 0.5q41 0 70 -37q0 -64 -56 -64q-17 0 -50 2t-50 2
q-19 0 -28 -1q-1 -123 5.5 -351.5t6.5 -325.5q103 7 133 7z" />
    <glyph glyph-name="oe" unicode="&#x153;" horiz-adv-x="1148" 
d="M475 1041v36q-2 75 -49 133.5t-117 58.5h-72q-37 -157 -37 -363q0 -32 -4.5 -95t-4.5 -94q0 -66 4.5 -153t17 -216.5t44 -215t76.5 -85.5q43 0 75 44.5t48.5 104.5t26 139.5t12 131t2.5 97.5q0 81 -11 240.5t-11 236.5zM341 -38q-66 0 -115.5 49.5t-76 120.5t-43.5 168
t-21.5 173t-4.5 153q0 17 1 41t1 37q0 10 -3 10v37q0 35 0.5 59.5t2 83.5t5.5 104t10.5 106t18.5 105t27 85t38 62.5t51 21.5q33 0 53 -25q30 -9 70.5 -16t61 -12t48 -26.5t52.5 -61.5q88 -139 88 -439v-247q0 -589 -264 -589zM735 36v54q9 22 9 84q0 44 -4.5 131t-4.5 131
q0 100 6.5 299t6.5 299q0 29 -5 86.5t-5 86.5q0 145 84 145q23 0 45 -15q7 -1 38 -3.5t54 -6.5t50 -11.5t42.5 -21.5t15.5 -33q0 -22 -18 -38.5t-42 -25.5q-95 32 -155 39q3 -43 3 -88q0 -49 -4.5 -147t-4.5 -147q0 -2 6 -32q7 0 32.5 1.5t40.5 1.5q99 0 99 -56
q0 -30 -18 -53t-47 -23q-34 0 -58 18h-52q6 -78 6 -148q0 -61 -4.5 -185t-4.5 -186q0 -32 4 -54.5t21.5 -41.5t48.5 -19q7 0 35.5 2.5t45.5 2.5q78 0 78 -50q0 -31 -27 -45t-61 -14h-193q-26 0 -44.5 18.5t-18.5 44.5z" />
    <glyph glyph-name="Racute" unicode="&#x154;" horiz-adv-x="601" 
d="M137 1741v2q1 24 55.5 70.5t126 97t86.5 64.5q32 0 55 -13.5t23 -42.5q0 -1 -9 -49q-66 -27 -142.5 -79.5t-125.5 -103.5q-29 0 -49 13.5t-20 40.5zM308 1207q0 38 -7 90t-28 106t-52 60q0 -65 -5.5 -205t-5.5 -213q0 -63 2 -94q34 33 66 79zM102 44v16q0 200 7 600.5
t7 600.5v252q0 24 10 34t44 10q62 0 112 -31.5t80 -81.5t46 -109t16 -118q0 -29 -5 -61t-9.5 -54.5t-17.5 -61t-18.5 -52.5t-23.5 -59t-21 -53q1 -80 26.5 -199.5t47.5 -193t73.5 -229.5t58.5 -178v-5v-24.5t-2.5 -22.5t-7 -23.5t-14.5 -14.5t-25 -7q-38 0 -74 55v7
q-5 82 -50.5 225t-54.5 184q-13 59 -37.5 197.5t-42.5 211.5v-807q0 -65 -67 -65q-24 0 -41 16.5t-17 40.5z" />
    <glyph glyph-name="racute" unicode="&#x155;" horiz-adv-x="557" 
d="M213 1534v2q1 24 55.5 70.5t126 97t86.5 64.5q32 0 55 -13.5t23 -42.5q0 -1 -9 -49q-66 -27 -142.5 -79.5t-125.5 -103.5q-29 0 -49 13.5t-20 40.5zM187 520q0 -68 12.5 -226.5t12.5 -207.5q0 -43 -16.5 -67t-37.5 -24q-30 0 -38 41q2 76 2 113q0 184 -17.5 559
t-17.5 560q0 97 68 97q107 0 180 -56t73 -160q0 -140 -22 -218t-83 -195q11 -49 38.5 -195.5t54.5 -247.5t66 -186q2 -5 13 -26t16 -35.5t5 -28.5q0 -21 -12.5 -36.5t-33.5 -15.5q-35 0 -67 63.5t-56 160t-43.5 195.5t-37.5 187.5t-31 117.5q0 -26 -14 -83t-14 -86z
M306 1098q0 37 -3 63.5t-12.5 59t-33 50t-59.5 18.5q0 -1 -3.5 -12.5t-3.5 -16.5q0 -84 4 -242.5t4 -230.5q48 25 77.5 130.5t29.5 180.5z" />
    <glyph glyph-name="uni0156" unicode="&#x156;" horiz-adv-x="601" 
d="M296 -509v72q8 8 39.5 33.5t51 48t23.5 44.5q-59 43 -59 101q0 37 31.5 62t69.5 25q37 0 58 -22.5t36 -63.5v-7q0 -2 -1.5 -6.5t-1.5 -7.5q0 -47 -26 -112t-71 -116t-89 -51h-61zM308 1207q0 38 -7 90t-28 106t-52 60q0 -65 -5.5 -205t-5.5 -213q0 -63 2 -94q34 33 66 79
zM102 44v16q0 200 7 600.5t7 600.5v252q0 24 10 34t44 10q62 0 112 -31.5t80 -81.5t46 -109t16 -118q0 -29 -5 -61t-9.5 -54.5t-17.5 -61t-18.5 -52.5t-23.5 -59t-21 -53q1 -80 26.5 -199.5t47.5 -193t73.5 -229.5t58.5 -178v-5v-24.5t-2.5 -22.5t-7 -23.5t-14.5 -14.5
t-25 -7q-38 0 -74 55v7q-5 82 -50.5 225t-54.5 184q-13 59 -37.5 197.5t-42.5 211.5v-807q0 -65 -67 -65q-24 0 -41 16.5t-17 40.5z" />
    <glyph glyph-name="uni0157" unicode="&#x157;" horiz-adv-x="557" 
d="M282 -523v72q8 8 39.5 33.5t51 48t23.5 44.5q-59 43 -59 101q0 37 31.5 62t69.5 25q37 0 58 -22.5t36 -63.5v-7q0 -2 -1.5 -6.5t-1.5 -7.5q0 -47 -26 -112t-71 -116t-89 -51h-61zM187 520q0 -68 12.5 -226.5t12.5 -207.5q0 -43 -16.5 -67t-37.5 -24q-30 0 -38 41
q2 76 2 113q0 184 -17.5 559t-17.5 560q0 97 68 97q107 0 180 -56t73 -160q0 -140 -22 -218t-83 -195q11 -49 38.5 -195.5t54.5 -247.5t66 -186q2 -5 13 -26t16 -35.5t5 -28.5q0 -21 -12.5 -36.5t-33.5 -15.5q-35 0 -67 63.5t-56 160t-43.5 195.5t-37.5 187.5t-31 117.5
q0 -26 -14 -83t-14 -86zM306 1098q0 37 -3 63.5t-12.5 59t-33 50t-59.5 18.5q0 -1 -3.5 -12.5t-3.5 -16.5q0 -84 4 -242.5t4 -230.5q48 25 77.5 130.5t29.5 180.5z" />
    <glyph glyph-name="Rcaron" unicode="&#x158;" horiz-adv-x="601" 
d="M421 2038v-37l-6 -1q-7 -1 -7 -2q0 -10 -30.5 -112.5t-30.5 -132.5q0 -66 -52 -66q-49 0 -119 156t-77 225l66 47l53 -71q1 -38 59 -194q30 118 42 241h44q6 0 17 0.5t18 0.5t14.5 -1.5t11.5 -7t4 -14.5q0 -4 -1 -9.5t-3 -12t-3 -9.5zM308 1207q0 38 -7 90t-28 106
t-52 60q0 -65 -5.5 -205t-5.5 -213q0 -63 2 -94q34 33 66 79zM102 44v16q0 200 7 600.5t7 600.5v252q0 24 10 34t44 10q62 0 112 -31.5t80 -81.5t46 -109t16 -118q0 -29 -5 -61t-9.5 -54.5t-17.5 -61t-18.5 -52.5t-23.5 -59t-21 -53q1 -80 26.5 -199.5t47.5 -193
t73.5 -229.5t58.5 -178v-5v-24.5t-2.5 -22.5t-7 -23.5t-14.5 -14.5t-25 -7q-38 0 -74 55v7q-5 82 -50.5 225t-54.5 184q-13 59 -37.5 197.5t-42.5 211.5v-807q0 -65 -67 -65q-24 0 -41 16.5t-17 40.5z" />
    <glyph glyph-name="rcaron" unicode="&#x159;" horiz-adv-x="557" 
d="M417 1831v-37l-6 -1q-7 -1 -7 -2q0 -10 -30.5 -112.5t-30.5 -132.5q0 -66 -52 -66q-49 0 -119 156t-77 225l66 47l53 -71q1 -38 59 -194q30 118 42 241h44q6 0 17 0.5t18 0.5t14.5 -1.5t11.5 -7t4 -14.5q0 -4 -1 -9.5t-3 -12t-3 -9.5zM187 520q0 -68 12.5 -226.5
t12.5 -207.5q0 -43 -16.5 -67t-37.5 -24q-30 0 -38 41q2 76 2 113q0 184 -17.5 559t-17.5 560q0 97 68 97q107 0 180 -56t73 -160q0 -140 -22 -218t-83 -195q11 -49 38.5 -195.5t54.5 -247.5t66 -186q2 -5 13 -26t16 -35.5t5 -28.5q0 -21 -12.5 -36.5t-33.5 -15.5
q-35 0 -67 63.5t-56 160t-43.5 195.5t-37.5 187.5t-31 117.5q0 -26 -14 -83t-14 -86zM306 1098q0 37 -3 63.5t-12.5 59t-33 50t-59.5 18.5q0 -1 -3.5 -12.5t-3.5 -16.5q0 -84 4 -242.5t4 -230.5q48 25 77.5 130.5t29.5 180.5z" />
    <glyph glyph-name="Sacute" unicode="&#x15a;" horiz-adv-x="581" 
d="M285 1741v2q1 24 55.5 70.5t126 97t86.5 64.5q32 0 55 -13.5t23 -42.5q0 -1 -9 -49q-66 -27 -142.5 -79.5t-125.5 -103.5q-29 0 -49 13.5t-20 40.5zM427 685q7 -26 24 -82t26.5 -89.5t17.5 -81.5t8 -90q0 -64 -17.5 -130t-50 -124.5t-88 -95.5t-124.5 -37q-27 0 -60 5
t-66 22t-33 42q0 23 11.5 39t34.5 16t60.5 -15.5t52.5 -15.5q40 0 72 35t50 86.5t27.5 100.5t9.5 85q0 92 -30 190t-73.5 184t-86.5 172t-73 184t-30 190q0 70 24 136.5t77.5 114.5t126.5 48q37 0 72 -20.5t49 -53.5v-44q-86 0 -115 20q-38 -4 -66 -36.5t-39.5 -72
t-11.5 -77.5q0 -67 23 -150.5t55 -157t64.5 -136.5t55.5 -103t23 -42v-16z" />
    <glyph glyph-name="sacute" unicode="&#x15b;" horiz-adv-x="500" 
d="M231 1537v2q1 24 55.5 70.5t126 97t86.5 64.5q32 0 55 -13.5t23 -42.5q0 -1 -9 -49q-66 -27 -142.5 -79.5t-125.5 -103.5q-29 0 -49 13.5t-20 40.5zM176 1075q0 -61 18 -122t45.5 -108.5t59 -105t59 -111.5t45.5 -129.5t18 -156.5q0 -61 -12.5 -121t-39 -116t-76 -91.5
t-114.5 -36.5v-5q-38 5 -69 25.5t-35 53.5v35q8 -1 32 -5.5t43.5 -7t32.5 -2.5q39 0 68 34t43 85t20.5 96t6.5 81q0 72 -25 146t-61 137.5t-72.5 129t-61.5 145t-25 161.5q0 44 10.5 92t31 95t58 77.5t85.5 30.5q36 0 68.5 -23t32.5 -58q0 -19 -15.5 -29t-34.5 -10
q-22 0 -43 12q-24 -1 -43 -24t-29.5 -56.5t-15.5 -64.5t-5 -53z" />
    <glyph glyph-name="Scircumflex" unicode="&#x15c;" horiz-adv-x="581" 
d="M362 1953q-8 -24 -22 -69.5t-22.5 -70.5t-26.5 -60t-42 -65l-67 48q4 38 36 128t79.5 172.5t81.5 82.5q52 0 52 -67q0 -45 31 -124t31 -114v-52q1 -3 9.5 -12t8.5 -13q0 -23 -20.5 -36.5t-44.5 -13.5h-44q-17 171 -40 266zM427 685q7 -26 24 -82t26.5 -89.5t17.5 -81.5
t8 -90q0 -64 -17.5 -130t-50 -124.5t-88 -95.5t-124.5 -37q-27 0 -60 5t-66 22t-33 42q0 23 11.5 39t34.5 16t60.5 -15.5t52.5 -15.5q40 0 72 35t50 86.5t27.5 100.5t9.5 85q0 92 -30 190t-73.5 184t-86.5 172t-73 184t-30 190q0 70 24 136.5t77.5 114.5t126.5 48
q37 0 72 -20.5t49 -53.5v-44q-86 0 -115 20q-38 -4 -66 -36.5t-39.5 -72t-11.5 -77.5q0 -67 23 -150.5t55 -157t64.5 -136.5t55.5 -103t23 -42v-16z" />
    <glyph glyph-name="scircumflex" unicode="&#x15d;" horiz-adv-x="500" 
d="M307 1749q-8 -24 -22 -69.5t-22.5 -70.5t-26.5 -60t-42 -65l-67 48q4 38 36 128t79.5 172.5t81.5 82.5q52 0 52 -67q0 -45 31 -124t31 -114v-52q1 -3 9.5 -12t8.5 -13q0 -23 -20.5 -36.5t-44.5 -13.5h-44q-17 171 -40 266zM176 1075q0 -61 18 -122t45.5 -108.5t59 -105
t59 -111.5t45.5 -129.5t18 -156.5q0 -61 -12.5 -121t-39 -116t-76 -91.5t-114.5 -36.5v-5q-38 5 -69 25.5t-35 53.5v35q8 -1 32 -5.5t43.5 -7t32.5 -2.5q39 0 68 34t43 85t20.5 96t6.5 81q0 72 -25 146t-61 137.5t-72.5 129t-61.5 145t-25 161.5q0 44 10.5 92t31 95t58 77.5
t85.5 30.5q36 0 68.5 -23t32.5 -58q0 -19 -15.5 -29t-34.5 -10q-22 0 -43 12q-24 -1 -43 -24t-29.5 -56.5t-15.5 -64.5t-5 -53z" />
    <glyph glyph-name="Scedilla" unicode="&#x15e;" horiz-adv-x="581" 
d="M207 -203q19 38 19 112v47h112q-11 -57 -13 -93q78 -15 113.5 -78t35.5 -149q0 -67 -56 -126.5t-123 -59.5q-42 0 -77 20.5t-35 58.5q0 18 14 31t32 13q37 0 66 -20q15 1 30.5 22.5t15.5 37.5t-3.5 32.5t-10.5 37.5t-9 31l35 -35v9q0 36 -17 52q-33 -5 -47 -5
q-26 0 -42 12.5t-40 49.5zM427 685q7 -26 24 -82t26.5 -89.5t17.5 -81.5t8 -90q0 -64 -17.5 -130t-50 -124.5t-88 -95.5t-124.5 -37q-27 0 -60 5t-66 22t-33 42q0 23 11.5 39t34.5 16t60.5 -15.5t52.5 -15.5q40 0 72 35t50 86.5t27.5 100.5t9.5 85q0 92 -30 190t-73.5 184
t-86.5 172t-73 184t-30 190q0 70 24 136.5t77.5 114.5t126.5 48q37 0 72 -20.5t49 -53.5v-44q-86 0 -115 20q-38 -4 -66 -36.5t-39.5 -72t-11.5 -77.5q0 -67 23 -150.5t55 -157t64.5 -136.5t55.5 -103t23 -42v-16z" />
    <glyph glyph-name="scedilla" unicode="&#x15f;" horiz-adv-x="500" 
d="M152 -186q19 38 19 112v47h112q-11 -57 -13 -93q78 -15 113.5 -78t35.5 -149q0 -67 -56 -126.5t-123 -59.5q-42 0 -77 20.5t-35 58.5q0 18 14 31t32 13q37 0 66 -20q15 1 30.5 22.5t15.5 37.5t-3.5 32.5t-10.5 37.5t-9 31l35 -35v9q0 36 -17 52q-33 -5 -47 -5
q-26 0 -42 12.5t-40 49.5zM176 1075q0 -61 18 -122t45.5 -108.5t59 -105t59 -111.5t45.5 -129.5t18 -156.5q0 -61 -12.5 -121t-39 -116t-76 -91.5t-114.5 -36.5v-5q-38 5 -69 25.5t-35 53.5v35q8 -1 32 -5.5t43.5 -7t32.5 -2.5q39 0 68 34t43 85t20.5 96t6.5 81
q0 72 -25 146t-61 137.5t-72.5 129t-61.5 145t-25 161.5q0 44 10.5 92t31 95t58 77.5t85.5 30.5q36 0 68.5 -23t32.5 -58q0 -19 -15.5 -29t-34.5 -10q-22 0 -43 12q-24 -1 -43 -24t-29.5 -56.5t-15.5 -64.5t-5 -53z" />
    <glyph glyph-name="Scaron" unicode="&#x160;" horiz-adv-x="581" 
d="M388 2038v-37l-6 -1q-7 -1 -7 -2q0 -10 -30.5 -112.5t-30.5 -132.5q0 -66 -52 -66q-49 0 -119 156t-77 225l66 47l53 -71q1 -38 59 -194q30 118 42 241h44q6 0 17 0.5t18 0.5t14.5 -1.5t11.5 -7t4 -14.5q0 -4 -1 -9.5t-3 -12t-3 -9.5zM427 685q7 -26 24 -82t26.5 -89.5
t17.5 -81.5t8 -90q0 -64 -17.5 -130t-50 -124.5t-88 -95.5t-124.5 -37q-27 0 -60 5t-66 22t-33 42q0 23 11.5 39t34.5 16t60.5 -15.5t52.5 -15.5q40 0 72 35t50 86.5t27.5 100.5t9.5 85q0 92 -30 190t-73.5 184t-86.5 172t-73 184t-30 190q0 70 24 136.5t77.5 114.5
t126.5 48q37 0 72 -20.5t49 -53.5v-44q-86 0 -115 20q-38 -4 -66 -36.5t-39.5 -72t-11.5 -77.5q0 -67 23 -150.5t55 -157t64.5 -136.5t55.5 -103t23 -42v-16z" />
    <glyph glyph-name="scaron" unicode="&#x161;" horiz-adv-x="500" 
d="M364 1834v-37l-6 -1q-7 -1 -7 -2q0 -10 -30.5 -112.5t-30.5 -132.5q0 -66 -52 -66q-49 0 -119 156t-77 225l66 47l53 -71q1 -38 59 -194q30 118 42 241h44q6 0 17 0.5t18 0.5t14.5 -1.5t11.5 -7t4 -14.5q0 -4 -1 -9.5t-3 -12t-3 -9.5zM176 1075q0 -61 18 -122
t45.5 -108.5t59 -105t59 -111.5t45.5 -129.5t18 -156.5q0 -61 -12.5 -121t-39 -116t-76 -91.5t-114.5 -36.5v-5q-38 5 -69 25.5t-35 53.5v35q8 -1 32 -5.5t43.5 -7t32.5 -2.5q39 0 68 34t43 85t20.5 96t6.5 81q0 72 -25 146t-61 137.5t-72.5 129t-61.5 145t-25 161.5
q0 44 10.5 92t31 95t58 77.5t85.5 30.5q36 0 68.5 -23t32.5 -58q0 -19 -15.5 -29t-34.5 -10q-22 0 -43 12q-24 -1 -43 -24t-29.5 -56.5t-15.5 -64.5t-5 -53z" />
    <glyph glyph-name="uni0162" unicode="&#x162;" horiz-adv-x="543" 
d="M324 -172q19 38 19 112v47h112q-11 -57 -13 -93q78 -15 113.5 -78t35.5 -149q0 -67 -56 -126.5t-123 -59.5q-42 0 -77 20.5t-35 58.5q0 18 14 31t32 13q37 0 66 -20q15 1 30.5 22.5t15.5 37.5t-3.5 32.5t-10.5 37.5t-9 31l35 -35v9q0 36 -17 52q-33 -5 -47 -5
q-26 0 -42 12.5t-40 49.5zM375 611v-1q-14 -65 -14 -156q0 -62 8.5 -184t8.5 -184q0 -100 -59 -100q-34 0 -50 32t-16 71q0 55 8 164t8 163q0 106 -14 319t-14 319q0 16 1.5 78t1.5 101q0 147 -19 191q-15 -1 -53 -6t-58 -5q-26 0 -46.5 15.5t-20.5 40.5q0 24 49 41.5
t119.5 25.5t122.5 11t85 3q25 0 45.5 -16.5t20.5 -41.5t-18 -39.5t-44 -14.5q-13 0 -37 2t-36 2q-14 0 -21 -1q14 -118 14 -252q0 -43 -2 -131.5t-2 -132.5q0 -187 32 -314z" />
    <glyph glyph-name="uni0163" unicode="&#x163;" horiz-adv-x="552" 
d="M315 -152q19 38 19 112v47h112q-11 -57 -13 -93q78 -15 113.5 -78t35.5 -149q0 -67 -56 -126.5t-123 -59.5q-42 0 -77 20.5t-35 58.5q0 18 14 31t32 13q37 0 66 -20q15 1 30.5 22.5t15.5 37.5t-3.5 32.5t-10.5 37.5t-9 31l35 -35v9q0 36 -17 52q-33 -5 -47 -5
q-26 0 -42 12.5t-40 49.5zM283 260q-8 26 -33 462.5t-27 532.5q-118 3 -153 26q-21 14 -21 35q0 19 22 31.5t43 12.5q46 0 139 -9.5t139 -9.5q5 0 16 0.5t17 0.5q64 0 64 -49q0 -25 -21 -40.5t-47 -15.5q-19 0 -53 6.5t-41 7.5q0 -1 -2 -9t-2 -12q0 -194 34 -581t34 -582
q0 -25 -18.5 -43t-43.5 -18h-46q0 26 -2 92t-2 92q0 13 2 38t2 32z" />
    <glyph glyph-name="Tcaron" unicode="&#x164;" horiz-adv-x="543" 
d="M436 2038v-37l-6 -1q-7 -1 -7 -2q0 -10 -30.5 -112.5t-30.5 -132.5q0 -66 -52 -66q-49 0 -119 156t-77 225l66 47l53 -71q1 -38 59 -194q30 118 42 241h44q6 0 17 0.5t18 0.5t14.5 -1.5t11.5 -7t4 -14.5q0 -4 -1 -9.5t-3 -12t-3 -9.5zM375 611v-1q-14 -65 -14 -156
q0 -62 8.5 -184t8.5 -184q0 -100 -59 -100q-34 0 -50 32t-16 71q0 55 8 164t8 163q0 106 -14 319t-14 319q0 16 1.5 78t1.5 101q0 147 -19 191q-15 -1 -53 -6t-58 -5q-26 0 -46.5 15.5t-20.5 40.5q0 24 49 41.5t119.5 25.5t122.5 11t85 3q25 0 45.5 -16.5t20.5 -41.5
t-18 -39.5t-44 -14.5q-13 0 -37 2t-36 2q-14 0 -21 -1q14 -118 14 -252q0 -43 -2 -131.5t-2 -132.5q0 -187 32 -314z" />
    <glyph glyph-name="tcaron" unicode="&#x165;" horiz-adv-x="996" 
d="M665 992v72q8 8 39.5 33.5t51 48t23.5 44.5q-59 43 -59 101q0 37 31.5 62t69.5 25q37 0 58 -22.5t36 -63.5v-7q0 -2 -1.5 -6.5t-1.5 -7.5q0 -47 -26 -112t-71 -116t-89 -51h-61zM285 260q-8 26 -33 462.5t-27 532.5q-118 3 -153 26q-21 14 -21 35q0 19 22 31.5t43 12.5
q46 0 139 -9.5t139 -9.5q5 0 16 0.5t17 0.5q64 0 64 -49q0 -25 -21 -40.5t-47 -15.5q-19 0 -53 6.5t-41 7.5q0 -1 -2 -9t-2 -12q0 -194 34 -581t34 -582q0 -25 -18.5 -43t-43.5 -18h-46q0 26 -2 92t-2 92q0 13 2 38t2 32z" />
    <glyph glyph-name="Tbar" unicode="&#x166;" horiz-adv-x="566" 
d="M376 611v-1q-14 -65 -14 -156q0 -62 8.5 -184t8.5 -184q0 -100 -59 -100q-34 0 -50 32t-16 71q0 55 8 164t8 163q0 106 -14 319t-14 319q0 16 1.5 78t1.5 101q0 147 -19 191q-15 -1 -53 -6t-58 -5q-26 0 -46.5 15.5t-20.5 40.5q0 24 49 41.5t119.5 25.5t122.5 11t85 3
q25 0 45.5 -16.5t20.5 -41.5t-18 -39.5t-44 -14.5q-13 0 -37 2t-36 2q-14 0 -21 -1q14 -118 14 -252q0 -43 -2 -131.5t-2 -132.5q0 -187 32 -314zM505 943q0 -45 -66 -45q-4 0 -56.5 -2t-91.5 -2q-228 0 -228 56q0 44 90 44q4 0 55 2t89 2q208 0 208 -55z" />
    <glyph glyph-name="tbar" unicode="&#x167;" horiz-adv-x="578" 
d="M293 260q-8 26 -33 462.5t-27 532.5q-118 3 -153 26q-21 14 -21 35q0 19 22 31.5t43 12.5q47 0 139 -9.5t139 -9.5q5 0 16 0.5t17 0.5q64 0 64 -49q0 -25 -21 -40.5t-47 -15.5q-19 0 -53 6.5t-41 7.5q0 -1 -2 -9t-2 -12q0 -194 34 -581t34 -582q0 -25 -18.5 -43
t-43.5 -18h-46q0 26 -2 92t-2 92q0 13 2 38t2 32zM504 749q0 -45 -66 -45q-4 0 -56.5 -2t-91.5 -2q-228 0 -228 56q0 44 90 44q4 0 55 2t89 2q208 0 208 -55z" />
    <glyph glyph-name="Utilde" unicode="&#x168;" 
d="M130 1746q0 70 40.5 119.5t108.5 49.5l102 -52q9 -24 30.5 -48t43.5 -24v1q6 6 20.5 12.5t23.5 13.5t9 19q0 7 -6 22.5t-7 22.5q16 32 46 32q34 0 52 -29t18 -65q0 -53 -39.5 -92.5t-92.5 -39.5q-40 0 -79 21.5t-62 44t-56 60.5v2l-53 -31v-98q-34 0 -66.5 15.5
t-32.5 43.5zM651 460v-31q0 -3 -2.5 -10.5t-2.5 -11.5q0 -17 0.5 -57t0.5 -62q0 -52 -3.5 -92.5t-15.5 -86.5t-32.5 -76t-58.5 -50t-90 -20q-63 0 -111.5 25.5t-76 63.5t-49.5 96t-32.5 108t-25.5 115t-27 103q-2 5 -22.5 458t-20.5 503q-15 17 -15 42t17.5 44t41.5 19
q74 0 74 -146q0 -118 9.5 -355.5t9.5 -356.5q12 -27 20.5 -109t8.5 -129q0 -44 14.5 -110.5t39.5 -134.5t67.5 -116t90.5 -48q23 0 40 14.5t25 32.5t12.5 47.5t5 47t0.5 42.5v919q0 58 -22 175.5t-22 175.5q0 25 20.5 40.5t46.5 15.5l62 -48v-34q0 -20 -9 -61.5t-9 -63.5
q0 -119 15 -348.5t16 -340.5v-3q-2 -11 1 -32t3 -28q0 -23 3 -65.5t3 -60.5z" />
    <glyph glyph-name="utilde" unicode="&#x169;" horiz-adv-x="698" 
d="M113 1550q0 70 40.5 119.5t108.5 49.5l102 -52q9 -24 30.5 -48t43.5 -24v1q6 6 20.5 12.5t23.5 13.5t9 19q0 7 -6 22.5t-7 22.5q16 32 46 32q34 0 52 -29t18 -65q0 -53 -39.5 -92.5t-92.5 -39.5q-40 0 -79 21.5t-62 44t-56 60.5v2l-53 -31v-98q-34 0 -66.5 15.5
t-32.5 43.5zM583 878q-9 -44 -14 -138.5t-7.5 -189.5t-15.5 -202.5t-35 -189t-70.5 -135.5t-118.5 -54q-49 0 -87 21.5t-62 62t-40 87t-24 107.5t-11 113t-3 113q0 113 5.5 280t5.5 260q0 177 -25 293v49q49 0 77.5 -38t28.5 -85v-991q0 -79 39.5 -144.5t116.5 -65.5
q87 0 116 506v9t0.5 6.5t0.5 6.5q26 462 26 748q0 6 -0.5 17.5t-0.5 16.5q0 24 11 36t45 12q28 0 43 -17t17.5 -34.5t2.5 -47.5q0 -35 -7 -104t-7 -102q0 -28 -4.5 -85t-4.5 -86q0 -6 1 -17.5t1 -17.5z" />
    <glyph glyph-name="Umacron" unicode="&#x16a;" 
d="M594 1736q0 -45 -66 -45q-4 0 -56.5 -2t-91.5 -2q-228 0 -228 56q0 44 90 44q4 0 55 2t89 2q208 0 208 -55zM651 460v-31q0 -3 -2.5 -10.5t-2.5 -11.5q0 -17 0.5 -57t0.5 -62q0 -52 -3.5 -92.5t-15.5 -86.5t-32.5 -76t-58.5 -50t-90 -20q-63 0 -111.5 25.5t-76 63.5
t-49.5 96t-32.5 108t-25.5 115t-27 103q-2 5 -22.5 458t-20.5 503q-15 17 -15 42t17.5 44t41.5 19q74 0 74 -146q0 -118 9.5 -355.5t9.5 -356.5q12 -27 20.5 -109t8.5 -129q0 -44 14.5 -110.5t39.5 -134.5t67.5 -116t90.5 -48q23 0 40 14.5t25 32.5t12.5 47.5t5 47t0.5 42.5
v919q0 58 -22 175.5t-22 175.5q0 25 20.5 40.5t46.5 15.5l62 -48v-34q0 -20 -9 -61.5t-9 -63.5q0 -119 15 -348.5t16 -340.5v-3q-2 -11 1 -32t3 -28q0 -23 3 -65.5t3 -60.5z" />
    <glyph glyph-name="umacron" unicode="&#x16b;" horiz-adv-x="698" 
d="M577 1540q0 -45 -66 -45q-4 0 -56.5 -2t-91.5 -2q-228 0 -228 56q0 44 90 44q4 0 55 2t89 2q208 0 208 -55zM583 878q-9 -44 -14 -138.5t-7.5 -189.5t-15.5 -202.5t-35 -189t-70.5 -135.5t-118.5 -54q-49 0 -87 21.5t-62 62t-40 87t-24 107.5t-11 113t-3 113
q0 113 5.5 280t5.5 260q0 177 -25 293v49q49 0 77.5 -38t28.5 -85v-991q0 -79 39.5 -144.5t116.5 -65.5q87 0 116 506v9t0.5 6.5t0.5 6.5q26 462 26 748q0 6 -0.5 17.5t-0.5 16.5q0 24 11 36t45 12q28 0 43 -17t17.5 -34.5t2.5 -47.5q0 -35 -7 -104t-7 -102q0 -28 -4.5 -85
t-4.5 -86q0 -6 1 -17.5t1 -17.5z" />
    <glyph glyph-name="Ubreve" unicode="&#x16c;" 
d="M526 1868v-17q-2 -6 -13 -31t-14 -31.5t-13 -26.5t-16.5 -26t-19 -19t-25 -17t-29.5 -8.5t-37 -4.5q-46 0 -80.5 21t-54 55.5t-29 74t-9.5 82.5v10l38 32q24 0 39 -23t21 -52t18.5 -60.5t30.5 -44.5h43q14 0 30.5 32.5t16.5 48.5q0 23 1 34t6 26.5t17.5 22.5t33.5 7
t37.5 -15.5t16.5 -36.5q0 -1 -9 -33zM651 460v-31q0 -3 -2.5 -10.5t-2.5 -11.5q0 -17 0.5 -57t0.5 -62q0 -52 -3.5 -92.5t-15.5 -86.5t-32.5 -76t-58.5 -50t-90 -20q-63 0 -111.5 25.5t-76 63.5t-49.5 96t-32.5 108t-25.5 115t-27 103q-2 5 -22.5 458t-20.5 503
q-15 17 -15 42t17.5 44t41.5 19q74 0 74 -146q0 -118 9.5 -355.5t9.5 -356.5q12 -27 20.5 -109t8.5 -129q0 -44 14.5 -110.5t39.5 -134.5t67.5 -116t90.5 -48q23 0 40 14.5t25 32.5t12.5 47.5t5 47t0.5 42.5v919q0 58 -22 175.5t-22 175.5q0 25 20.5 40.5t46.5 15.5l62 -48
v-34q0 -20 -9 -61.5t-9 -63.5q0 -119 15 -348.5t16 -340.5v-3q-2 -11 1 -32t3 -28q0 -23 3 -65.5t3 -60.5z" />
    <glyph glyph-name="ubreve" unicode="&#x16d;" horiz-adv-x="698" 
d="M509 1672v-17q-2 -6 -13 -31t-14 -31.5t-13 -26.5t-16.5 -26t-19 -19t-25 -17t-29.5 -8.5t-37 -4.5q-46 0 -80.5 21t-54 55.5t-29 74t-9.5 82.5v10l38 32q24 0 39 -23t21 -52t18.5 -60.5t30.5 -44.5h43q14 0 30.5 32.5t16.5 48.5q0 23 1 34t6 26.5t17.5 22.5t33.5 7
t37.5 -15.5t16.5 -36.5q0 -1 -9 -33zM583 878q-9 -44 -14 -138.5t-7.5 -189.5t-15.5 -202.5t-35 -189t-70.5 -135.5t-118.5 -54q-49 0 -87 21.5t-62 62t-40 87t-24 107.5t-11 113t-3 113q0 113 5.5 280t5.5 260q0 177 -25 293v49q49 0 77.5 -38t28.5 -85v-991
q0 -79 39.5 -144.5t116.5 -65.5q87 0 116 506v9t0.5 6.5t0.5 6.5q26 462 26 748q0 6 -0.5 17.5t-0.5 16.5q0 24 11 36t45 12q28 0 43 -17t17.5 -34.5t2.5 -47.5q0 -35 -7 -104t-7 -102q0 -28 -4.5 -85t-4.5 -86q0 -6 1 -17.5t1 -17.5z" />
    <glyph glyph-name="Uring" unicode="&#x16e;" 
d="M261 1794q0 47 35 84.5t81 37.5q43 0 76 -36t33 -79q0 -52 -35.5 -83t-88.5 -31q-41 0 -71 33t-30 74zM375 1803l-24 -30h38q0 43 -14 57v-27zM651 460v-31q0 -3 -2.5 -10.5t-2.5 -11.5q0 -17 0.5 -57t0.5 -62q0 -52 -3.5 -92.5t-15.5 -86.5t-32.5 -76t-58.5 -50t-90 -20
q-63 0 -111.5 25.5t-76 63.5t-49.5 96t-32.5 108t-25.5 115t-27 103q-2 5 -22.5 458t-20.5 503q-15 17 -15 42t17.5 44t41.5 19q74 0 74 -146q0 -118 9.5 -355.5t9.5 -356.5q12 -27 20.5 -109t8.5 -129q0 -44 14.5 -110.5t39.5 -134.5t67.5 -116t90.5 -48q23 0 40 14.5
t25 32.5t12.5 47.5t5 47t0.5 42.5v919q0 58 -22 175.5t-22 175.5q0 25 20.5 40.5t46.5 15.5l62 -48v-34q0 -20 -9 -61.5t-9 -63.5q0 -119 15 -348.5t16 -340.5v-3q-2 -11 1 -32t3 -28q0 -23 3 -65.5t3 -60.5z" />
    <glyph glyph-name="uring" unicode="&#x16f;" horiz-adv-x="698" 
d="M244 1598q0 47 35 84.5t81 37.5q43 0 76 -36t33 -79q0 -52 -35.5 -83t-88.5 -31q-41 0 -71 33t-30 74zM358 1607l-24 -30h38q0 43 -14 57v-27zM583 878q-9 -44 -14 -138.5t-7.5 -189.5t-15.5 -202.5t-35 -189t-70.5 -135.5t-118.5 -54q-49 0 -87 21.5t-62 62t-40 87
t-24 107.5t-11 113t-3 113q0 113 5.5 280t5.5 260q0 177 -25 293v49q49 0 77.5 -38t28.5 -85v-991q0 -79 39.5 -144.5t116.5 -65.5q87 0 116 506v9t0.5 6.5t0.5 6.5q26 462 26 748q0 6 -0.5 17.5t-0.5 16.5q0 24 11 36t45 12q28 0 43 -17t17.5 -34.5t2.5 -47.5
q0 -35 -7 -104t-7 -102q0 -28 -4.5 -85t-4.5 -86q0 -6 1 -17.5t1 -17.5z" />
    <glyph glyph-name="Uhungarumlaut" unicode="&#x170;" 
d="M512 1694q-22 4 -23 37q9 21 116.5 104t221 158t136.5 75t43.5 -19t28.5 -44v-17q-161 -65 -433 -237q-15 -9 -44 -28q-31 -19 -46 -29zM631 2010q0 -40 -287 -228q-33 -5 -93 -46t-85 -49l-18 22q15 26 80.5 84.5t139 116t138 102t78.5 44.5q19 0 33 -13.5t14 -32.5z
M651 460v-31q0 -3 -2.5 -10.5t-2.5 -11.5q0 -17 0.5 -57t0.5 -62q0 -52 -3.5 -92.5t-15.5 -86.5t-32.5 -76t-58.5 -50t-90 -20q-63 0 -111.5 25.5t-76 63.5t-49.5 96t-32.5 108t-25.5 115t-27 103q-2 5 -22.5 458t-20.5 503q-15 17 -15 42t17.5 44t41.5 19q74 0 74 -146
q0 -118 9.5 -355.5t9.5 -356.5q12 -27 20.5 -109t8.5 -129q0 -44 14.5 -110.5t39.5 -134.5t67.5 -116t90.5 -48q23 0 40 14.5t25 32.5t12.5 47.5t5 47t0.5 42.5v919q0 58 -22 175.5t-22 175.5q0 25 20.5 40.5t46.5 15.5l62 -48v-34q0 -20 -9 -61.5t-9 -63.5
q0 -119 15 -348.5t16 -340.5v-3q-2 -11 1 -32t3 -28q0 -23 3 -65.5t3 -60.5z" />
    <glyph glyph-name="uhungarumlaut" unicode="&#x171;" horiz-adv-x="698" 
d="M493 1498q-22 4 -23 37q9 21 116.5 104t221 158t136.5 75t43.5 -19t28.5 -44v-17q-161 -65 -433 -237q-15 -9 -44 -28q-31 -19 -46 -29zM612 1814q0 -40 -287 -228q-33 -5 -93 -46t-85 -49l-18 22q15 26 80.5 84.5t139 116t138 102t78.5 44.5q19 0 33 -13.5t14 -32.5z
M583 878q-9 -44 -14 -138.5t-7.5 -189.5t-15.5 -202.5t-35 -189t-70.5 -135.5t-118.5 -54q-49 0 -87 21.5t-62 62t-40 87t-24 107.5t-11 113t-3 113q0 113 5.5 280t5.5 260q0 177 -25 293v49q49 0 77.5 -38t28.5 -85v-991q0 -79 39.5 -144.5t116.5 -65.5q87 0 116 506v9
t0.5 6.5t0.5 6.5q26 462 26 748q0 6 -0.5 17.5t-0.5 16.5q0 24 11 36t45 12q28 0 43 -17t17.5 -34.5t2.5 -47.5q0 -35 -7 -104t-7 -102q0 -28 -4.5 -85t-4.5 -86q0 -6 1 -17.5t1 -17.5z" />
    <glyph glyph-name="Uogonek" unicode="&#x172;" 
d="M538 -24q-177 -147 -177 -270q0 -10 2 -20.5t8.5 -20.5t16.5 -10q40 0 86 33v-34q0 -27 -31.5 -45.5t-60.5 -18.5q-42 0 -66.5 32t-24.5 75q0 82 56 156t136 123h55zM651 460v-31q0 -3 -2.5 -10.5t-2.5 -11.5q0 -17 0.5 -57t0.5 -62q0 -52 -3.5 -92.5t-15.5 -86.5
t-32.5 -76t-58.5 -50t-90 -20q-63 0 -111.5 25.5t-76 63.5t-49.5 96t-32.5 108t-25.5 115t-27 103q-2 5 -22.5 458t-20.5 503q-15 17 -15 42t17.5 44t41.5 19q74 0 74 -146q0 -118 9.5 -355.5t9.5 -356.5q12 -27 20.5 -109t8.5 -129q0 -44 14.5 -110.5t39.5 -134.5
t67.5 -116t90.5 -48q23 0 40 14.5t25 32.5t12.5 47.5t5 47t0.5 42.5v919q0 58 -22 175.5t-22 175.5q0 25 20.5 40.5t46.5 15.5l62 -48v-34q0 -20 -9 -61.5t-9 -63.5q0 -119 15 -348.5t16 -340.5v-3q-2 -11 1 -32t3 -28q0 -23 3 -65.5t3 -60.5z" />
    <glyph glyph-name="uogonek" unicode="&#x173;" horiz-adv-x="714" 
d="M664 -18q-177 -147 -177 -270q0 -10 2 -20.5t8.5 -20.5t16.5 -10q40 0 86 33v-34q0 -27 -31.5 -45.5t-60.5 -18.5q-42 0 -66.5 32t-24.5 75q0 82 56 156t136 123h55zM583 878q-9 -44 -14 -138.5t-7.5 -189.5t-15.5 -202.5t-35 -189t-70.5 -135.5t-118.5 -54
q-49 0 -87 21.5t-62 62t-40 87t-24 107.5t-11 113t-3 113q0 113 5.5 280t5.5 260q0 177 -25 293v49q49 0 77.5 -38t28.5 -85v-991q0 -79 39.5 -144.5t116.5 -65.5q87 0 116 506v9t0.5 6.5t0.5 6.5q26 462 26 748q0 6 -0.5 17.5t-0.5 16.5q0 24 11 36t45 12q28 0 43 -17
t17.5 -34.5t2.5 -47.5q0 -35 -7 -104t-7 -102q0 -28 -4.5 -85t-4.5 -86q0 -6 1 -17.5t1 -17.5z" />
    <glyph glyph-name="Ycircumflex" unicode="&#x176;" horiz-adv-x="522" 
d="M291 1953q-8 -24 -22 -69.5t-22.5 -70.5t-26.5 -60t-42 -65l-67 48q4 38 36 128t79.5 172.5t81.5 82.5q52 0 52 -67q0 -45 31 -124t31 -114v-52q1 -3 9.5 -12t8.5 -13q0 -23 -20.5 -36.5t-44.5 -13.5h-44q-17 171 -40 266zM240 25q0 66 5 198t5 198q0 60 -19.5 177.5
t-19.5 177.5q0 83 -24.5 185.5t-54.5 184t-54.5 183.5t-24.5 184q0 18 22 25.5t43 7.5q15 0 31 -12t17 -27q20 -236 102 -501q4 18 9.5 85.5t13 138.5t19.5 143.5t33 119t49 46.5q54 0 54 -22q0 -115 -49 -343t-49 -346q0 -12 3 -35.5t3 -35.5v-31q0 -90 -0.5 -271.5
t-0.5 -271.5q0 -17 -0.5 -51t-0.5 -51v-46q0 -27 -18 -43.5t-42 -16.5q-21 0 -36.5 14.5t-15.5 35.5z" />
    <glyph glyph-name="ycircumflex" unicode="&#x177;" horiz-adv-x="580" 
d="M322 1746q-8 -24 -22 -69.5t-22.5 -70.5t-26.5 -60t-42 -65l-67 48q4 38 36 128t79.5 172.5t81.5 82.5q52 0 52 -67q0 -45 31 -124t31 -114v-52q1 -3 9.5 -12t8.5 -13q0 -23 -20.5 -36.5t-44.5 -13.5h-44q-17 171 -40 266zM379 109q0 -29 -1.5 -46.5t-6.5 -41.5
t-19 -36.5t-36 -12.5q-37 0 -57 45q23 45 23 347q0 57 -8 160.5t-9 139.5q-40 69 -123.5 317.5t-83.5 306.5v11l46 34q35 -1 73.5 -90.5t76.5 -227t38 -138.5q8 22 32 152.5t56 231.5t72 101q19 0 34.5 -12t15.5 -31q0 -67 -19 -148.5t-42.5 -146t-42.5 -147t-19 -151.5
v-617z" />
    <glyph glyph-name="Ydieresis" unicode="&#x178;" horiz-adv-x="522" 
d="M412 1756q0 29 22 52t51 23q27 0 47.5 -22.5t20.5 -50.5q0 -31 -23 -51t-54 -20q-26 0 -45 21t-19 48zM51 1687q-28 0 -43.5 19t-15.5 48q0 31 20 52.5t50 21.5q29 0 50 -20t21 -49q0 -30 -25.5 -51t-56.5 -21zM240 25q0 66 5 198t5 198q0 60 -19.5 177.5t-19.5 177.5
q0 83 -24.5 185.5t-54.5 184t-54.5 183.5t-24.5 184q0 18 22 25.5t43 7.5q15 0 31 -12t17 -27q20 -236 102 -501q4 18 9.5 85.5t13 138.5t19.5 143.5t33 119t49 46.5q54 0 54 -22q0 -115 -49 -343t-49 -346q0 -12 3 -35.5t3 -35.5v-31q0 -90 -0.5 -271.5t-0.5 -271.5
q0 -17 -0.5 -51t-0.5 -51v-46q0 -27 -18 -43.5t-42 -16.5q-21 0 -36.5 14.5t-15.5 35.5z" />
    <glyph glyph-name="Zacute" unicode="&#x179;" horiz-adv-x="494" 
d="M167 1741v2q1 24 55.5 70.5t126 97t86.5 64.5q32 0 55 -13.5t23 -42.5q0 -1 -9 -49q-66 -27 -142.5 -79.5t-125.5 -103.5q-29 0 -49 13.5t-20 40.5zM79 1549l29 1q27 -7 57 -7q32 0 96.5 10.5t96.5 10.5q24 0 40 -17.5t16 -41.5q0 -54 -19 -162t-21 -119
q-12 -88 -39 -314.5t-50.5 -388.5t-53.5 -312q-5 -23 -22 -63.5t-22 -60.5q5 0 44 4t64 4q108 0 108 -63v-9l-32 -32q-42 0 -126.5 -4t-126.5 -4q-39 0 -58 50q47 75 105.5 389.5t96 607.5t45.5 423q-7 -1 -29 -3.5t-45 -4.5t-43 -2q-111 0 -111 65v43z" />
    <glyph glyph-name="zacute" unicode="&#x17a;" horiz-adv-x="550" 
d="M205 1534v2q1 24 55.5 70.5t126 97t86.5 64.5q32 0 55 -13.5t23 -42.5q0 -1 -9 -49q-66 -27 -142.5 -79.5t-125.5 -103.5q-29 0 -49 13.5t-20 40.5zM302 111v1q83 0 83 -50q0 -25 -22 -37.5t-49 -12.5q-20 0 -60.5 3t-60.5 3q-13 0 -36 -11t-37 -11q-22 0 -38.5 15
t-16.5 37q0 30 11.5 79.5t34.5 125t25 82.5q16 56 38.5 163t34.5 153q18 69 59.5 189t68.5 221t31 195q-24 -1 -80 -6.5t-87 -5.5q-22 0 -37.5 17.5t-15.5 39.5q0 58 208 58h7q22 0 35 -1t33.5 -5.5t31.5 -17.5t11 -33q0 -72 -44.5 -195.5t-52.5 -173.5q-18 -110 -66 -263
t-86.5 -296t-43.5 -267h35q14 0 43 2t43 2z" />
    <glyph glyph-name="Zdotaccent" unicode="&#x17b;" horiz-adv-x="494" 
d="M306 1760q0 31 23 55t54 24q29 0 51 -24t22 -53q0 -34 -23 -54.5t-58 -20.5q-28 0 -48.5 22.5t-20.5 50.5zM79 1549l29 1q27 -7 57 -7q32 0 96.5 10.5t96.5 10.5q24 0 40 -17.5t16 -41.5q0 -54 -19 -162t-21 -119q-12 -88 -39 -314.5t-50.5 -388.5t-53.5 -312
q-5 -23 -22 -63.5t-22 -60.5q5 0 44 4t64 4q108 0 108 -63v-9l-32 -32q-42 0 -126.5 -4t-126.5 -4q-39 0 -58 50q47 75 105.5 389.5t96 607.5t45.5 423q-7 -1 -29 -3.5t-45 -4.5t-43 -2q-111 0 -111 65v43z" />
    <glyph glyph-name="zdotaccent" unicode="&#x17c;" horiz-adv-x="550" 
d="M313 1553q0 31 23 55t54 24q29 0 51 -24t22 -53q0 -34 -23 -54.5t-58 -20.5q-28 0 -48.5 22.5t-20.5 50.5zM302 111v1q83 0 83 -50q0 -25 -22 -37.5t-49 -12.5q-20 0 -60.5 3t-60.5 3q-13 0 -36 -11t-37 -11q-22 0 -38.5 15t-16.5 37q0 30 11.5 79.5t34.5 125t25 82.5
q16 56 38.5 163t34.5 153q18 69 59.5 189t68.5 221t31 195q-24 -1 -80 -6.5t-87 -5.5q-22 0 -37.5 17.5t-15.5 39.5q0 58 208 58h7q22 0 35 -1t33.5 -5.5t31.5 -17.5t11 -33q0 -72 -44.5 -195.5t-52.5 -173.5q-18 -110 -66 -263t-86.5 -296t-43.5 -267h35q14 0 43 2t43 2z
" />
    </font>
</defs>
</svg>
